G04 (created by PCBNEW (2013-07-07 BZR 4022)-stable) date 5/10/2014 5:07:10 PM*
%MOIN*%
G04 Gerber Fmt 3.4, Leading zero omitted, Abs format*
%FSLAX34Y34*%
G01*
G70*
G90*
G04 APERTURE LIST*
%ADD10C,0.00590551*%
%ADD11R,0.0905512X0.0905512*%
%ADD12C,0.0984252*%
%ADD13R,0.0787X0.0177*%
%ADD14R,0.0177X0.0787*%
%ADD15R,0.05X0.016*%
%ADD16R,0.133858X0.38189*%
%ADD17R,0.0610236X0.0511811*%
%ADD18R,0.144X0.08*%
%ADD19R,0.04X0.08*%
%ADD20R,0.055X0.035*%
%ADD21R,0.035X0.055*%
%ADD22R,0.0590551X0.0393701*%
%ADD23R,0.0787402X0.0472441*%
%ADD24C,0.0629921*%
%ADD25R,0.06X0.06*%
%ADD26C,0.06*%
%ADD27R,0.161417X0.0275591*%
%ADD28R,0.161417X0.0393701*%
%ADD29R,0.0512X0.059*%
%ADD30R,0.059X0.0512*%
%ADD31R,0.0315X0.0394*%
%ADD32C,0.16*%
%ADD33C,0.035*%
%ADD34C,0.01*%
G04 APERTURE END LIST*
G54D10*
G54D11*
X28307Y-64062D03*
G54D12*
X28307Y-65622D03*
G54D13*
X33982Y-44596D03*
X33982Y-44281D03*
X33982Y-43966D03*
X33982Y-43651D03*
X33982Y-43336D03*
X33982Y-43021D03*
X33982Y-42706D03*
X33982Y-42391D03*
X30216Y-42393D03*
X30216Y-44603D03*
X30216Y-44283D03*
X30216Y-43963D03*
X30216Y-43653D03*
X30216Y-43333D03*
X30216Y-43023D03*
X30216Y-42703D03*
G54D14*
X33198Y-41603D03*
X32884Y-41603D03*
X32568Y-41603D03*
X32254Y-41603D03*
X31938Y-41603D03*
X31624Y-41603D03*
X31308Y-41603D03*
X30994Y-41603D03*
X33196Y-45383D03*
X32886Y-45383D03*
X32566Y-45383D03*
X32256Y-45383D03*
X31946Y-45383D03*
X31626Y-45383D03*
X31306Y-45383D03*
X30986Y-45383D03*
G54D15*
X68285Y-63067D03*
X68285Y-62817D03*
X68285Y-62557D03*
X68285Y-62297D03*
X68285Y-62047D03*
X68285Y-61787D03*
X68285Y-61527D03*
X68285Y-61277D03*
X68285Y-61017D03*
X68285Y-60767D03*
X68285Y-60507D03*
X68285Y-60247D03*
X68285Y-59997D03*
X68285Y-59737D03*
X71085Y-59737D03*
X71085Y-59997D03*
X71085Y-60237D03*
X71085Y-60507D03*
X71085Y-60767D03*
X71085Y-61017D03*
X71085Y-61277D03*
X71085Y-61527D03*
X71085Y-61787D03*
X71085Y-62047D03*
X71085Y-62297D03*
X71085Y-62557D03*
X71085Y-62817D03*
X71085Y-63067D03*
G54D16*
X69685Y-61417D03*
G54D15*
X54111Y-63067D03*
X54111Y-62817D03*
X54111Y-62557D03*
X54111Y-62297D03*
X54111Y-62047D03*
X54111Y-61787D03*
X54111Y-61527D03*
X54111Y-61277D03*
X54111Y-61017D03*
X54111Y-60767D03*
X54111Y-60507D03*
X54111Y-60247D03*
X54111Y-59997D03*
X54111Y-59737D03*
X56911Y-59737D03*
X56911Y-59997D03*
X56911Y-60237D03*
X56911Y-60507D03*
X56911Y-60767D03*
X56911Y-61017D03*
X56911Y-61277D03*
X56911Y-61527D03*
X56911Y-61787D03*
X56911Y-62047D03*
X56911Y-62297D03*
X56911Y-62557D03*
X56911Y-62817D03*
X56911Y-63067D03*
G54D16*
X55511Y-61417D03*
G54D15*
X47025Y-63067D03*
X47025Y-62817D03*
X47025Y-62557D03*
X47025Y-62297D03*
X47025Y-62047D03*
X47025Y-61787D03*
X47025Y-61527D03*
X47025Y-61277D03*
X47025Y-61017D03*
X47025Y-60767D03*
X47025Y-60507D03*
X47025Y-60247D03*
X47025Y-59997D03*
X47025Y-59737D03*
X49825Y-59737D03*
X49825Y-59997D03*
X49825Y-60237D03*
X49825Y-60507D03*
X49825Y-60767D03*
X49825Y-61017D03*
X49825Y-61277D03*
X49825Y-61527D03*
X49825Y-61787D03*
X49825Y-62047D03*
X49825Y-62297D03*
X49825Y-62557D03*
X49825Y-62817D03*
X49825Y-63067D03*
G54D16*
X48425Y-61417D03*
G54D15*
X63604Y-40475D03*
X63604Y-40725D03*
X63604Y-40985D03*
X63604Y-41245D03*
X63604Y-41495D03*
X63604Y-41755D03*
X63604Y-42015D03*
X63604Y-42265D03*
X63604Y-42525D03*
X63604Y-42775D03*
X63604Y-43035D03*
X63604Y-43295D03*
X63604Y-43545D03*
X63604Y-43805D03*
X60804Y-43805D03*
X60804Y-43545D03*
X60804Y-43305D03*
X60804Y-43035D03*
X60804Y-42775D03*
X60804Y-42525D03*
X60804Y-42265D03*
X60804Y-42015D03*
X60804Y-41755D03*
X60804Y-41495D03*
X60804Y-41245D03*
X60804Y-40985D03*
X60804Y-40725D03*
X60804Y-40475D03*
G54D16*
X62204Y-42125D03*
G54D15*
X39938Y-63067D03*
X39938Y-62817D03*
X39938Y-62557D03*
X39938Y-62297D03*
X39938Y-62047D03*
X39938Y-61787D03*
X39938Y-61527D03*
X39938Y-61277D03*
X39938Y-61017D03*
X39938Y-60767D03*
X39938Y-60507D03*
X39938Y-60247D03*
X39938Y-59997D03*
X39938Y-59737D03*
X42738Y-59737D03*
X42738Y-59997D03*
X42738Y-60237D03*
X42738Y-60507D03*
X42738Y-60767D03*
X42738Y-61017D03*
X42738Y-61277D03*
X42738Y-61527D03*
X42738Y-61787D03*
X42738Y-62047D03*
X42738Y-62297D03*
X42738Y-62557D03*
X42738Y-62817D03*
X42738Y-63067D03*
G54D16*
X41338Y-61417D03*
G54D15*
X75371Y-63067D03*
X75371Y-62817D03*
X75371Y-62557D03*
X75371Y-62297D03*
X75371Y-62047D03*
X75371Y-61787D03*
X75371Y-61527D03*
X75371Y-61277D03*
X75371Y-61017D03*
X75371Y-60767D03*
X75371Y-60507D03*
X75371Y-60247D03*
X75371Y-59997D03*
X75371Y-59737D03*
X78171Y-59737D03*
X78171Y-59997D03*
X78171Y-60237D03*
X78171Y-60507D03*
X78171Y-60767D03*
X78171Y-61017D03*
X78171Y-61277D03*
X78171Y-61527D03*
X78171Y-61787D03*
X78171Y-62047D03*
X78171Y-62297D03*
X78171Y-62557D03*
X78171Y-62817D03*
X78171Y-63067D03*
G54D16*
X76771Y-61417D03*
G54D15*
X70691Y-40475D03*
X70691Y-40725D03*
X70691Y-40985D03*
X70691Y-41245D03*
X70691Y-41495D03*
X70691Y-41755D03*
X70691Y-42015D03*
X70691Y-42265D03*
X70691Y-42525D03*
X70691Y-42775D03*
X70691Y-43035D03*
X70691Y-43295D03*
X70691Y-43545D03*
X70691Y-43805D03*
X67891Y-43805D03*
X67891Y-43545D03*
X67891Y-43305D03*
X67891Y-43035D03*
X67891Y-42775D03*
X67891Y-42525D03*
X67891Y-42265D03*
X67891Y-42015D03*
X67891Y-41755D03*
X67891Y-41495D03*
X67891Y-41245D03*
X67891Y-40985D03*
X67891Y-40725D03*
X67891Y-40475D03*
G54D16*
X69291Y-42125D03*
G54D15*
X61198Y-63067D03*
X61198Y-62817D03*
X61198Y-62557D03*
X61198Y-62297D03*
X61198Y-62047D03*
X61198Y-61787D03*
X61198Y-61527D03*
X61198Y-61277D03*
X61198Y-61017D03*
X61198Y-60767D03*
X61198Y-60507D03*
X61198Y-60247D03*
X61198Y-59997D03*
X61198Y-59737D03*
X63998Y-59737D03*
X63998Y-59997D03*
X63998Y-60237D03*
X63998Y-60507D03*
X63998Y-60767D03*
X63998Y-61017D03*
X63998Y-61277D03*
X63998Y-61527D03*
X63998Y-61787D03*
X63998Y-62047D03*
X63998Y-62297D03*
X63998Y-62557D03*
X63998Y-62817D03*
X63998Y-63067D03*
G54D16*
X62598Y-61417D03*
G54D15*
X56518Y-40475D03*
X56518Y-40725D03*
X56518Y-40985D03*
X56518Y-41245D03*
X56518Y-41495D03*
X56518Y-41755D03*
X56518Y-42015D03*
X56518Y-42265D03*
X56518Y-42525D03*
X56518Y-42775D03*
X56518Y-43035D03*
X56518Y-43295D03*
X56518Y-43545D03*
X56518Y-43805D03*
X53718Y-43805D03*
X53718Y-43545D03*
X53718Y-43305D03*
X53718Y-43035D03*
X53718Y-42775D03*
X53718Y-42525D03*
X53718Y-42265D03*
X53718Y-42015D03*
X53718Y-41755D03*
X53718Y-41495D03*
X53718Y-41245D03*
X53718Y-40985D03*
X53718Y-40725D03*
X53718Y-40475D03*
G54D16*
X55118Y-42125D03*
G54D15*
X77777Y-40475D03*
X77777Y-40725D03*
X77777Y-40985D03*
X77777Y-41245D03*
X77777Y-41495D03*
X77777Y-41755D03*
X77777Y-42015D03*
X77777Y-42265D03*
X77777Y-42525D03*
X77777Y-42775D03*
X77777Y-43035D03*
X77777Y-43295D03*
X77777Y-43545D03*
X77777Y-43805D03*
X74977Y-43805D03*
X74977Y-43545D03*
X74977Y-43305D03*
X74977Y-43035D03*
X74977Y-42775D03*
X74977Y-42525D03*
X74977Y-42265D03*
X74977Y-42015D03*
X74977Y-41755D03*
X74977Y-41495D03*
X74977Y-41245D03*
X74977Y-40985D03*
X74977Y-40725D03*
X74977Y-40475D03*
G54D16*
X76377Y-42125D03*
G54D15*
X42344Y-40475D03*
X42344Y-40725D03*
X42344Y-40985D03*
X42344Y-41245D03*
X42344Y-41495D03*
X42344Y-41755D03*
X42344Y-42015D03*
X42344Y-42265D03*
X42344Y-42525D03*
X42344Y-42775D03*
X42344Y-43035D03*
X42344Y-43295D03*
X42344Y-43545D03*
X42344Y-43805D03*
X39544Y-43805D03*
X39544Y-43545D03*
X39544Y-43305D03*
X39544Y-43035D03*
X39544Y-42775D03*
X39544Y-42525D03*
X39544Y-42265D03*
X39544Y-42015D03*
X39544Y-41755D03*
X39544Y-41495D03*
X39544Y-41245D03*
X39544Y-40985D03*
X39544Y-40725D03*
X39544Y-40475D03*
G54D16*
X40944Y-42125D03*
G54D15*
X49431Y-40475D03*
X49431Y-40725D03*
X49431Y-40985D03*
X49431Y-41245D03*
X49431Y-41495D03*
X49431Y-41755D03*
X49431Y-42015D03*
X49431Y-42265D03*
X49431Y-42525D03*
X49431Y-42775D03*
X49431Y-43035D03*
X49431Y-43295D03*
X49431Y-43545D03*
X49431Y-43805D03*
X46631Y-43805D03*
X46631Y-43545D03*
X46631Y-43305D03*
X46631Y-43035D03*
X46631Y-42775D03*
X46631Y-42525D03*
X46631Y-42265D03*
X46631Y-42015D03*
X46631Y-41755D03*
X46631Y-41495D03*
X46631Y-41245D03*
X46631Y-40985D03*
X46631Y-40725D03*
X46631Y-40475D03*
G54D16*
X48031Y-42125D03*
G54D17*
X30108Y-39468D03*
X30108Y-37696D03*
X26978Y-37696D03*
X26978Y-39468D03*
G54D18*
X33661Y-61298D03*
G54D19*
X33661Y-63898D03*
X32761Y-63898D03*
X34561Y-63898D03*
G54D18*
X30511Y-61298D03*
G54D19*
X30511Y-63898D03*
X29611Y-63898D03*
X31411Y-63898D03*
G54D20*
X29527Y-40373D03*
X29527Y-41123D03*
G54D21*
X76752Y-38779D03*
X76002Y-38779D03*
G54D20*
X31102Y-38957D03*
X31102Y-38207D03*
X35826Y-43878D03*
X35826Y-43128D03*
G54D21*
X62579Y-38779D03*
X61829Y-38779D03*
G54D20*
X29330Y-44075D03*
X29330Y-43325D03*
G54D21*
X69666Y-38779D03*
X68916Y-38779D03*
G54D20*
X28149Y-46437D03*
X28149Y-45687D03*
G54D21*
X35451Y-61023D03*
X36201Y-61023D03*
G54D20*
X32480Y-38957D03*
X32480Y-38207D03*
X33858Y-38957D03*
X33858Y-38207D03*
X31102Y-40335D03*
X31102Y-39585D03*
X32480Y-40335D03*
X32480Y-39585D03*
X33858Y-40335D03*
X33858Y-39585D03*
X34645Y-47853D03*
X34645Y-48603D03*
X33661Y-47853D03*
X33661Y-48603D03*
G54D21*
X30493Y-48622D03*
X29743Y-48622D03*
G54D20*
X32677Y-47853D03*
X32677Y-48603D03*
G54D21*
X31871Y-47834D03*
X31121Y-47834D03*
X31121Y-48622D03*
X31871Y-48622D03*
X41319Y-38779D03*
X40569Y-38779D03*
X55136Y-64763D03*
X55886Y-64763D03*
X48406Y-38779D03*
X47656Y-38779D03*
X55493Y-38779D03*
X54743Y-38779D03*
X48050Y-64763D03*
X48800Y-64763D03*
X69310Y-64763D03*
X70060Y-64763D03*
X40963Y-64763D03*
X41713Y-64763D03*
X29152Y-46259D03*
X29902Y-46259D03*
X62223Y-64763D03*
X62973Y-64763D03*
X76396Y-64763D03*
X77146Y-64763D03*
G54D22*
X36736Y-52322D03*
X36736Y-53307D03*
X36736Y-54645D03*
X36736Y-55295D03*
X36736Y-56259D03*
X36736Y-57244D03*
X36736Y-58200D03*
X36736Y-58870D03*
X36736Y-51338D03*
X36736Y-60188D03*
G54D23*
X27992Y-60393D03*
X28464Y-49370D03*
G54D22*
X36736Y-53976D03*
G54D24*
X27165Y-50275D03*
X27165Y-59783D03*
G54D25*
X28059Y-42897D03*
G54D26*
X27059Y-42897D03*
X28059Y-43897D03*
X27059Y-43897D03*
X28059Y-44897D03*
X27059Y-44897D03*
G54D25*
X27165Y-48244D03*
G54D26*
X27165Y-47244D03*
X27165Y-46244D03*
G54D27*
X35039Y-46653D03*
G54D28*
X35039Y-46062D03*
G54D27*
X35039Y-45472D03*
G54D29*
X33680Y-64960D03*
X34430Y-64960D03*
X41713Y-63976D03*
X40963Y-63976D03*
X47656Y-39566D03*
X48406Y-39566D03*
X61829Y-39566D03*
X62579Y-39566D03*
X76002Y-39566D03*
X76752Y-39566D03*
X62973Y-63976D03*
X62223Y-63976D03*
X30530Y-64960D03*
X31280Y-64960D03*
G54D30*
X29527Y-64861D03*
X29527Y-65611D03*
G54D29*
X68916Y-39566D03*
X69666Y-39566D03*
X54743Y-39566D03*
X55493Y-39566D03*
X40569Y-39566D03*
X41319Y-39566D03*
X48050Y-63976D03*
X48800Y-63976D03*
X55136Y-63976D03*
X55886Y-63976D03*
X70060Y-63976D03*
X69310Y-63976D03*
X77146Y-63976D03*
X76396Y-63976D03*
G54D30*
X35039Y-43878D03*
X35039Y-43128D03*
G54D31*
X35826Y-64606D03*
X36201Y-63740D03*
X35451Y-63740D03*
G54D32*
X81496Y-62401D03*
X81496Y-41141D03*
X27952Y-62401D03*
X36811Y-62401D03*
X36811Y-41141D03*
X27952Y-41141D03*
G54D33*
X31306Y-46298D03*
X29852Y-44973D03*
X33331Y-47198D03*
X30904Y-47198D03*
X32065Y-61981D03*
X34666Y-61216D03*
X53582Y-63346D03*
X78307Y-40196D03*
X71220Y-40196D03*
X64133Y-40196D03*
X57047Y-40196D03*
X49960Y-40196D03*
X42874Y-40196D03*
X67755Y-63346D03*
X60669Y-63346D03*
X44657Y-38917D03*
X44232Y-40223D03*
X73084Y-62987D03*
X59133Y-40196D03*
X56703Y-48772D03*
X37644Y-48772D03*
X66231Y-63076D03*
X57893Y-62996D03*
X58015Y-62159D03*
X58198Y-59165D03*
X54080Y-48896D03*
X69607Y-55255D03*
X73319Y-63995D03*
X75309Y-63470D03*
X71732Y-62598D03*
X78818Y-62598D03*
X74330Y-40944D03*
X72700Y-43829D03*
X45984Y-40944D03*
X38897Y-40944D03*
X64645Y-62598D03*
X57559Y-62598D03*
X50472Y-62598D03*
X43385Y-62598D03*
X58916Y-62598D03*
X37972Y-48440D03*
X54118Y-48440D03*
X79188Y-61862D03*
X39114Y-55665D03*
X43167Y-55665D03*
X44705Y-59561D03*
X66913Y-55255D03*
X66038Y-59252D03*
X47646Y-48440D03*
X36763Y-39840D03*
X34351Y-41270D03*
X30613Y-45008D03*
X79173Y-41220D03*
X73858Y-61299D03*
X66771Y-61299D03*
X68975Y-58731D03*
X59685Y-61299D03*
X52598Y-61299D03*
X45511Y-61299D03*
X38425Y-61299D03*
X50963Y-41558D03*
X73321Y-39144D03*
X58059Y-41549D03*
X43847Y-41444D03*
X73212Y-44897D03*
X66190Y-41992D03*
X66112Y-41177D03*
X65062Y-41177D03*
X71714Y-55643D03*
X73321Y-41318D03*
X72138Y-41318D03*
X51735Y-55688D03*
X60110Y-55643D03*
X59305Y-59294D03*
X51122Y-54501D03*
X41169Y-54245D03*
X40583Y-57591D03*
X52466Y-59187D03*
X48444Y-54501D03*
X48300Y-58401D03*
X37758Y-41955D03*
X54876Y-54576D03*
X54984Y-59224D03*
X53385Y-62401D03*
X43267Y-41141D03*
X52250Y-58503D03*
X52462Y-54576D03*
X46102Y-62401D03*
X41595Y-54469D03*
X40838Y-59216D03*
X64777Y-48440D03*
X65320Y-44126D03*
X78700Y-41141D03*
X71614Y-41141D03*
X64527Y-41141D03*
X57440Y-41141D03*
X50354Y-41141D03*
X74448Y-62401D03*
X39015Y-62401D03*
X68795Y-54917D03*
X79541Y-64197D03*
X78515Y-54781D03*
X61621Y-49733D03*
X58844Y-54445D03*
X38184Y-48015D03*
X78818Y-41614D03*
X79448Y-39960D03*
X38267Y-55000D03*
X59224Y-62261D03*
X58861Y-59527D03*
X58607Y-54853D03*
X61137Y-63507D03*
X63593Y-63507D03*
X75802Y-53396D03*
X44155Y-57112D03*
X45821Y-54901D03*
X45312Y-56590D03*
X50635Y-54989D03*
X79015Y-45787D03*
X78976Y-43661D03*
X71929Y-45787D03*
X71889Y-43661D03*
X64842Y-45787D03*
X64803Y-43661D03*
X57755Y-45787D03*
X57716Y-43661D03*
X50669Y-45787D03*
X50629Y-43661D03*
X43582Y-45787D03*
X43543Y-43661D03*
X38095Y-55473D03*
X47425Y-55598D03*
X62165Y-59173D03*
X60275Y-62874D03*
X62016Y-54220D03*
X51615Y-40406D03*
X50354Y-40669D03*
X69792Y-59226D03*
X67362Y-62874D03*
X78700Y-40669D03*
X71614Y-40669D03*
X64527Y-40669D03*
X57440Y-40669D03*
X43267Y-40669D03*
X44444Y-45100D03*
X54537Y-54121D03*
X71231Y-54220D03*
X28815Y-46885D03*
X31987Y-46810D03*
X38897Y-41496D03*
X36023Y-57874D03*
X75787Y-65157D03*
X68661Y-65157D03*
X61614Y-65157D03*
X54566Y-65157D03*
X47480Y-65118D03*
X40393Y-65078D03*
X76771Y-37992D03*
X69685Y-37992D03*
X62598Y-37992D03*
X55511Y-37992D03*
X48425Y-37992D03*
X41338Y-37992D03*
X34898Y-37992D03*
X29242Y-42814D03*
X36134Y-46008D03*
X32354Y-65405D03*
X72677Y-43070D03*
X74330Y-41496D03*
X71732Y-41614D03*
X70236Y-39527D03*
X70236Y-39055D03*
X72992Y-43425D03*
X66811Y-42322D03*
X70944Y-47204D03*
X66653Y-39685D03*
X70905Y-45826D03*
X66692Y-39173D03*
X70196Y-50196D03*
X70551Y-49370D03*
X66653Y-50236D03*
X66653Y-49763D03*
X63464Y-49370D03*
X67244Y-41496D03*
X64645Y-41614D03*
X63149Y-39527D03*
X63149Y-39055D03*
X65590Y-43070D03*
X65905Y-43425D03*
X59724Y-42322D03*
X63858Y-47204D03*
X59566Y-39685D03*
X63818Y-45826D03*
X59606Y-39173D03*
X63110Y-50196D03*
X59566Y-50236D03*
X59566Y-49763D03*
X59566Y-46614D03*
X59370Y-45984D03*
X59527Y-42755D03*
X77637Y-49370D03*
X77322Y-39527D03*
X77322Y-39055D03*
X79763Y-43070D03*
X80078Y-43425D03*
X73897Y-42322D03*
X78031Y-47204D03*
X73740Y-39685D03*
X77992Y-45826D03*
X73779Y-39173D03*
X77283Y-50196D03*
X73740Y-50236D03*
X73740Y-49763D03*
X73740Y-46614D03*
X73543Y-45984D03*
X73700Y-42755D03*
X66653Y-46614D03*
X66456Y-45984D03*
X66614Y-42755D03*
X67244Y-52874D03*
X66732Y-53740D03*
X67283Y-56496D03*
X66732Y-57283D03*
X66338Y-59842D03*
X66141Y-60275D03*
X67007Y-63543D03*
X66535Y-60866D03*
X70275Y-53740D03*
X70236Y-53267D03*
X71417Y-57677D03*
X71889Y-58110D03*
X72244Y-59724D03*
X72362Y-60905D03*
X71141Y-64763D03*
X71771Y-63464D03*
X73818Y-57283D03*
X74330Y-52874D03*
X73818Y-53740D03*
X74370Y-56496D03*
X73425Y-59842D03*
X73228Y-60275D03*
X74094Y-63543D03*
X73622Y-60866D03*
X68921Y-53600D03*
X66161Y-53961D03*
X66006Y-62047D03*
X64645Y-62047D03*
X67244Y-61929D03*
X69315Y-57988D03*
X60157Y-61929D03*
X57559Y-62047D03*
X62152Y-58577D03*
X62140Y-55314D03*
X56083Y-55314D03*
X55519Y-59230D03*
X74330Y-61929D03*
X71732Y-62047D03*
X60157Y-52874D03*
X59645Y-53740D03*
X59921Y-63543D03*
X59448Y-60866D03*
X59251Y-59842D03*
X59055Y-60275D03*
X60196Y-56496D03*
X59645Y-57283D03*
X78858Y-63464D03*
X78228Y-64763D03*
X79448Y-60905D03*
X79330Y-59724D03*
X78976Y-58110D03*
X78503Y-57677D03*
X77322Y-53267D03*
X77362Y-53740D03*
X65157Y-59724D03*
X64685Y-63464D03*
X64055Y-64763D03*
X65275Y-60905D03*
X64803Y-58110D03*
X64330Y-57677D03*
X63149Y-53267D03*
X63188Y-53740D03*
X45078Y-59842D03*
X43818Y-62755D03*
X45984Y-61929D03*
X45393Y-63897D03*
X45275Y-60866D03*
X45118Y-62165D03*
X45748Y-63543D03*
X44881Y-60275D03*
X51102Y-60905D03*
X45472Y-57283D03*
X49842Y-64763D03*
X46023Y-56496D03*
X50511Y-63464D03*
X45472Y-53740D03*
X45984Y-52874D03*
X49015Y-53740D03*
X48976Y-53267D03*
X52362Y-60866D03*
X52834Y-63543D03*
X51968Y-60275D03*
X52165Y-59842D03*
X58188Y-60905D03*
X52559Y-57283D03*
X56968Y-64763D03*
X53110Y-56496D03*
X57598Y-63464D03*
X52559Y-53740D03*
X53070Y-52874D03*
X50157Y-57677D03*
X56102Y-53740D03*
X56062Y-53267D03*
X57244Y-57677D03*
X57716Y-58110D03*
X58070Y-59724D03*
X38188Y-60866D03*
X38661Y-63543D03*
X37795Y-60275D03*
X37992Y-59842D03*
X44015Y-60905D03*
X38385Y-57283D03*
X42795Y-64763D03*
X38937Y-56496D03*
X43425Y-63464D03*
X38385Y-53740D03*
X38897Y-52874D03*
X41929Y-53740D03*
X41889Y-53267D03*
X43070Y-57677D03*
X43543Y-58110D03*
X43897Y-59724D03*
X50629Y-58110D03*
X50984Y-59724D03*
X53070Y-61929D03*
X50472Y-62047D03*
X55062Y-58529D03*
X55082Y-55338D03*
X48138Y-55338D03*
X48449Y-57583D03*
X49291Y-49370D03*
X48937Y-50196D03*
X49645Y-45826D03*
X49685Y-47204D03*
X51574Y-43543D03*
X51417Y-43070D03*
X48976Y-39055D03*
X48976Y-39527D03*
X45393Y-50236D03*
X45393Y-49763D03*
X45393Y-46614D03*
X45196Y-45984D03*
X45354Y-42755D03*
X45551Y-42322D03*
X45393Y-39685D03*
X45433Y-39173D03*
X52480Y-46614D03*
X42598Y-47204D03*
X42204Y-49370D03*
X41850Y-50196D03*
X42559Y-45826D03*
X44645Y-43425D03*
X44330Y-43070D03*
X41889Y-39055D03*
X41889Y-39527D03*
X53070Y-41496D03*
X50472Y-41614D03*
X60157Y-41496D03*
X57559Y-41614D03*
X44290Y-44268D03*
X45047Y-40787D03*
X43385Y-41614D03*
X45984Y-41456D03*
X56023Y-50196D03*
X56377Y-49370D03*
X56062Y-39055D03*
X56062Y-39527D03*
X58818Y-43425D03*
X58503Y-43070D03*
X56732Y-45826D03*
X56771Y-47204D03*
X38307Y-39685D03*
X38346Y-39173D03*
X38464Y-42322D03*
X38267Y-42755D03*
X38110Y-45984D03*
X38307Y-46614D03*
X38307Y-49763D03*
X38307Y-50236D03*
X52519Y-39173D03*
X52480Y-39685D03*
X52637Y-42322D03*
X52440Y-42755D03*
X52283Y-45984D03*
X52480Y-49763D03*
X52480Y-50236D03*
G54D34*
X32055Y-40335D02*
X32480Y-40335D01*
X31624Y-40766D02*
X32055Y-40335D01*
X31624Y-41603D02*
X31624Y-40766D01*
X32480Y-40335D02*
X32480Y-40335D01*
X33858Y-40335D02*
X33858Y-40335D01*
X33858Y-40335D02*
X33858Y-40335D01*
X31938Y-41060D02*
X31938Y-41603D01*
X32338Y-40660D02*
X31938Y-41060D01*
X33533Y-40660D02*
X32338Y-40660D01*
X33858Y-40335D02*
X33533Y-40660D01*
X29902Y-45558D02*
X29902Y-46259D01*
X28509Y-44164D02*
X29902Y-45558D01*
X28509Y-43194D02*
X28509Y-44164D01*
X28212Y-42897D02*
X28509Y-43194D01*
X28059Y-42897D02*
X28212Y-42897D01*
X30986Y-45383D02*
X30986Y-45383D01*
X30654Y-46259D02*
X29902Y-46259D01*
X30986Y-45927D02*
X30654Y-46259D01*
X30986Y-45383D02*
X30986Y-45927D01*
X35826Y-64606D02*
X35826Y-64606D01*
X29902Y-46874D02*
X29902Y-46259D01*
X29417Y-47359D02*
X29902Y-46874D01*
X29417Y-49324D02*
X29417Y-47359D01*
X29967Y-49874D02*
X29417Y-49324D01*
X29967Y-58941D02*
X29967Y-49874D01*
X32935Y-61909D02*
X29967Y-58941D01*
X33385Y-61909D02*
X32935Y-61909D01*
X35027Y-63552D02*
X33385Y-61909D01*
X35027Y-64114D02*
X35027Y-63552D01*
X35519Y-64606D02*
X35027Y-64114D01*
X35826Y-64606D02*
X35519Y-64606D01*
X35826Y-64606D02*
X35826Y-64606D01*
X29743Y-47862D02*
X31306Y-46298D01*
X29743Y-48622D02*
X29743Y-47862D01*
X31306Y-46298D02*
X31306Y-45383D01*
X31306Y-45383D02*
X31306Y-45383D01*
X31308Y-40866D02*
X31308Y-41603D01*
X31102Y-40660D02*
X31308Y-40866D01*
X31102Y-40335D02*
X31102Y-40660D01*
X31102Y-40335D02*
X31102Y-40335D01*
X29527Y-40197D02*
X29527Y-40373D01*
X28798Y-39468D02*
X29527Y-40197D01*
X26978Y-39468D02*
X28798Y-39468D01*
X27559Y-44397D02*
X28059Y-44897D01*
X26898Y-44397D02*
X27559Y-44397D01*
X26590Y-44090D02*
X26898Y-44397D01*
X26590Y-40262D02*
X26590Y-44090D01*
X26978Y-39874D02*
X26590Y-40262D01*
X26978Y-39468D02*
X26978Y-39874D01*
X30108Y-39468D02*
X30108Y-39792D01*
X30108Y-39468D02*
X30108Y-39792D01*
X32254Y-42147D02*
X32254Y-41603D01*
X30839Y-42147D02*
X32254Y-42147D01*
X30227Y-41535D02*
X30839Y-42147D01*
X30108Y-41416D02*
X30227Y-41535D01*
X30108Y-39792D02*
X30108Y-41416D01*
X29527Y-40373D02*
X29527Y-40373D01*
X30108Y-39792D02*
X29527Y-40373D01*
X29672Y-44793D02*
X29852Y-44973D01*
X29672Y-44603D02*
X29672Y-44793D01*
X30216Y-44603D02*
X29672Y-44603D01*
X33112Y-44603D02*
X30216Y-44603D01*
X33565Y-45056D02*
X33112Y-44603D01*
X33565Y-46440D02*
X33565Y-45056D01*
X34066Y-46941D02*
X33565Y-46440D01*
X34411Y-46941D02*
X34066Y-46941D01*
X35070Y-47600D02*
X34411Y-46941D01*
X35070Y-48096D02*
X35070Y-47600D01*
X34889Y-48278D02*
X35070Y-48096D01*
X34645Y-48278D02*
X34889Y-48278D01*
X34645Y-48603D02*
X34645Y-48278D01*
X34645Y-48603D02*
X34645Y-48603D01*
X31545Y-47834D02*
X31871Y-47834D01*
X31545Y-48971D02*
X31545Y-47834D01*
X32042Y-49468D02*
X31545Y-48971D01*
X33935Y-49468D02*
X32042Y-49468D01*
X36062Y-51596D02*
X33935Y-49468D01*
X36062Y-52086D02*
X36062Y-51596D01*
X36299Y-52322D02*
X36062Y-52086D01*
X36736Y-52322D02*
X36299Y-52322D01*
X32233Y-47834D02*
X31871Y-47834D01*
X32252Y-47853D02*
X32233Y-47834D01*
X32676Y-47853D02*
X32252Y-47853D01*
X32676Y-47853D02*
X32677Y-47853D01*
X32523Y-50372D02*
X30773Y-48622D01*
X34555Y-50372D02*
X32523Y-50372D01*
X35036Y-50852D02*
X34555Y-50372D01*
X35036Y-52052D02*
X35036Y-50852D01*
X36290Y-53307D02*
X35036Y-52052D01*
X36736Y-53307D02*
X36290Y-53307D01*
X31121Y-48622D02*
X30773Y-48622D01*
X30773Y-48622D02*
X30493Y-48622D01*
X36290Y-58200D02*
X36736Y-58200D01*
X36039Y-58452D02*
X36290Y-58200D01*
X36039Y-61023D02*
X36039Y-58452D01*
X36201Y-61023D02*
X36039Y-61023D01*
X35894Y-63740D02*
X36201Y-63740D01*
X35856Y-63702D02*
X35894Y-63740D01*
X35856Y-61043D02*
X35856Y-63702D01*
X35876Y-61023D02*
X35856Y-61043D01*
X36039Y-61023D02*
X35876Y-61023D01*
X36201Y-63740D02*
X36201Y-63740D01*
X33661Y-47853D02*
X33661Y-47853D01*
X30167Y-47934D02*
X30904Y-47198D01*
X30167Y-48991D02*
X30167Y-47934D01*
X31760Y-50584D02*
X30167Y-48991D01*
X34484Y-50584D02*
X31760Y-50584D01*
X34795Y-50894D02*
X34484Y-50584D01*
X34795Y-54764D02*
X34795Y-50894D01*
X36290Y-56259D02*
X34795Y-54764D01*
X36736Y-56259D02*
X36290Y-56259D01*
X33661Y-47528D02*
X33661Y-47853D01*
X33331Y-47198D02*
X33661Y-47528D01*
X33661Y-47853D02*
X33661Y-47853D01*
X33661Y-47853D02*
X33661Y-47853D01*
X33661Y-47853D02*
X34645Y-47853D01*
X34645Y-47853D02*
X34645Y-47853D01*
X31626Y-45927D02*
X31626Y-45383D01*
X31646Y-45948D02*
X31626Y-45927D01*
X31646Y-47308D02*
X31646Y-45948D01*
X31121Y-47834D02*
X31646Y-47308D01*
X31626Y-45383D02*
X31626Y-45383D01*
X33661Y-64496D02*
X33661Y-63898D01*
X33680Y-64515D02*
X33661Y-64496D01*
X33680Y-64738D02*
X33680Y-64515D01*
X34859Y-61023D02*
X34666Y-61216D01*
X35451Y-61023D02*
X34859Y-61023D01*
X32788Y-64738D02*
X33680Y-64738D01*
X32065Y-64014D02*
X32788Y-64738D01*
X32065Y-61981D02*
X32065Y-64014D01*
X35451Y-57805D02*
X35451Y-61023D01*
X36450Y-56807D02*
X35451Y-57805D01*
X36910Y-56807D02*
X36450Y-56807D01*
X37181Y-56535D02*
X36910Y-56807D01*
X37181Y-55295D02*
X37181Y-56535D01*
X36736Y-55295D02*
X37181Y-55295D01*
X33680Y-64960D02*
X33680Y-64738D01*
X35451Y-61023D02*
X35451Y-63740D01*
X35451Y-63740D02*
X35451Y-63740D01*
X78211Y-40725D02*
X77777Y-40725D01*
X78307Y-40629D02*
X78211Y-40725D01*
X78307Y-40196D02*
X78307Y-40629D01*
X71124Y-40725D02*
X70691Y-40725D01*
X71220Y-40629D02*
X71124Y-40725D01*
X71220Y-40196D02*
X71220Y-40629D01*
X64037Y-40725D02*
X63604Y-40725D01*
X64133Y-40629D02*
X64037Y-40725D01*
X64133Y-40196D02*
X64133Y-40629D01*
X56951Y-40725D02*
X56518Y-40725D01*
X57047Y-40629D02*
X56951Y-40725D01*
X57047Y-40196D02*
X57047Y-40629D01*
X49864Y-40725D02*
X49431Y-40725D01*
X49960Y-40629D02*
X49864Y-40725D01*
X49960Y-40196D02*
X49960Y-40629D01*
X42777Y-40725D02*
X42344Y-40725D01*
X42874Y-40629D02*
X42777Y-40725D01*
X42874Y-40196D02*
X42874Y-40629D01*
X60765Y-62817D02*
X61198Y-62817D01*
X60669Y-62913D02*
X60765Y-62817D01*
X60669Y-63346D02*
X60669Y-62913D01*
X53678Y-62817D02*
X54111Y-62817D01*
X53582Y-62913D02*
X53678Y-62817D01*
X53582Y-63346D02*
X53582Y-62913D01*
X67851Y-62817D02*
X68285Y-62817D01*
X67755Y-62913D02*
X67851Y-62817D01*
X67755Y-63346D02*
X67755Y-62913D01*
X50837Y-66091D02*
X53582Y-63346D01*
X47901Y-66091D02*
X50837Y-66091D01*
X45825Y-64016D02*
X47901Y-66091D01*
X46592Y-62817D02*
X47025Y-62817D01*
X46496Y-62913D02*
X46592Y-62817D01*
X46496Y-63346D02*
X46496Y-62913D01*
X45825Y-64016D02*
X46496Y-63346D01*
X43762Y-66079D02*
X45825Y-64016D01*
X40801Y-66079D02*
X43762Y-66079D01*
X39409Y-64687D02*
X40801Y-66079D01*
X39409Y-62913D02*
X39409Y-64687D01*
X39505Y-62817D02*
X39409Y-62913D01*
X39938Y-62817D02*
X39505Y-62817D01*
X44232Y-39342D02*
X44657Y-38917D01*
X44232Y-40223D02*
X44232Y-39342D01*
X74938Y-62817D02*
X75371Y-62817D01*
X74842Y-62913D02*
X74938Y-62817D01*
X74842Y-63546D02*
X74842Y-62913D01*
X74311Y-64077D02*
X74842Y-63546D01*
X73862Y-64077D02*
X74311Y-64077D01*
X73084Y-63300D02*
X73862Y-64077D01*
X73084Y-62987D02*
X73084Y-63300D01*
X57893Y-62280D02*
X57893Y-62996D01*
X58015Y-62159D02*
X57893Y-62280D01*
X63385Y-66073D02*
X66231Y-63227D01*
X54980Y-66073D02*
X63385Y-66073D01*
X53582Y-64675D02*
X54980Y-66073D01*
X53582Y-63346D02*
X53582Y-64675D01*
X66877Y-63873D02*
X66231Y-63227D01*
X67228Y-63873D02*
X66877Y-63873D01*
X67755Y-63346D02*
X67228Y-63873D01*
X66231Y-63227D02*
X66231Y-63076D01*
X59170Y-40233D02*
X59133Y-40196D01*
X59170Y-45089D02*
X59170Y-40233D01*
X57839Y-46420D02*
X59170Y-45089D01*
X57839Y-47636D02*
X57839Y-46420D01*
X56703Y-48772D02*
X57839Y-47636D01*
X54080Y-50505D02*
X54080Y-48896D01*
X57500Y-53925D02*
X54080Y-50505D01*
X57500Y-54678D02*
X57500Y-53925D01*
X58125Y-55303D02*
X57500Y-54678D01*
X58125Y-59092D02*
X58125Y-55303D01*
X58198Y-59165D02*
X58125Y-59092D01*
X37322Y-48450D02*
X37644Y-48772D01*
X37322Y-44705D02*
X37322Y-48450D01*
X36070Y-43453D02*
X37322Y-44705D01*
X35826Y-43453D02*
X36070Y-43453D01*
X35826Y-43128D02*
X35826Y-43453D01*
X33982Y-42392D02*
X33982Y-42392D01*
X35826Y-42803D02*
X35826Y-43128D01*
X35414Y-42392D02*
X35826Y-42803D01*
X33982Y-42392D02*
X35414Y-42392D01*
X33982Y-42392D02*
X33982Y-42391D01*
X69299Y-50933D02*
X69704Y-50528D01*
X69299Y-54306D02*
X69299Y-50933D01*
X69607Y-54615D02*
X69299Y-54306D01*
X69607Y-55255D02*
X69607Y-54615D01*
X78818Y-62598D02*
X78647Y-62427D01*
X74448Y-64330D02*
X75309Y-63470D01*
X73661Y-64330D02*
X74448Y-64330D01*
X73325Y-63995D02*
X73661Y-64330D01*
X73319Y-63995D02*
X73325Y-63995D01*
X72700Y-48166D02*
X72700Y-43829D01*
X70338Y-50528D02*
X72700Y-48166D01*
X69704Y-50528D02*
X70338Y-50528D01*
X78647Y-62403D02*
X79188Y-61862D01*
X78647Y-62427D02*
X78647Y-62403D01*
X61224Y-49060D02*
X57816Y-52468D01*
X68265Y-49088D02*
X69704Y-50528D01*
X61407Y-49060D02*
X61224Y-49060D01*
X62912Y-50564D02*
X61407Y-49060D01*
X66789Y-50564D02*
X62912Y-50564D01*
X68265Y-49088D02*
X66789Y-50564D01*
X57816Y-53206D02*
X57816Y-52468D01*
X58282Y-53673D02*
X57816Y-53206D01*
X58282Y-54988D02*
X58282Y-53673D01*
X58366Y-55072D02*
X58282Y-54988D01*
X58366Y-55378D02*
X58366Y-55072D01*
X58533Y-55546D02*
X58366Y-55378D01*
X58533Y-60612D02*
X58533Y-55546D01*
X58894Y-60973D02*
X58533Y-60612D01*
X58894Y-62576D02*
X58894Y-60973D01*
X58916Y-62598D02*
X58894Y-62576D01*
X54448Y-48771D02*
X54118Y-48440D01*
X54448Y-48771D02*
X54448Y-48771D01*
X54608Y-48931D02*
X54448Y-48771D01*
X54608Y-49261D02*
X54608Y-48931D01*
X57816Y-52468D02*
X54608Y-49261D01*
X44705Y-57202D02*
X43167Y-55665D01*
X44705Y-59561D02*
X44705Y-57202D01*
X37972Y-54225D02*
X37972Y-48440D01*
X39114Y-55368D02*
X37972Y-54225D01*
X39114Y-55665D02*
X39114Y-55368D01*
X66038Y-56131D02*
X66913Y-55255D01*
X66038Y-59252D02*
X66038Y-56131D01*
X35781Y-39840D02*
X34351Y-41270D01*
X36763Y-39840D02*
X35781Y-39840D01*
X46285Y-41246D02*
X46631Y-41246D01*
X45984Y-40944D02*
X46285Y-41246D01*
X47031Y-47825D02*
X47646Y-48440D01*
X47031Y-41246D02*
X47031Y-47825D01*
X46631Y-41246D02*
X47031Y-41246D01*
X46631Y-41246D02*
X46631Y-41245D01*
X39544Y-41246D02*
X39544Y-41246D01*
X39198Y-41246D02*
X38897Y-40944D01*
X39544Y-41246D02*
X39198Y-41246D01*
X39544Y-41246D02*
X39544Y-41245D01*
X74977Y-41246D02*
X74977Y-41246D01*
X74631Y-41246D02*
X74330Y-40944D01*
X74977Y-41246D02*
X74631Y-41246D01*
X74977Y-41246D02*
X74977Y-41245D01*
X53718Y-41246D02*
X53718Y-41246D01*
X54118Y-41346D02*
X54118Y-48440D01*
X54018Y-41246D02*
X54118Y-41346D01*
X53718Y-41246D02*
X54018Y-41246D01*
X53718Y-41246D02*
X53718Y-41245D01*
X63998Y-62297D02*
X63998Y-62297D01*
X64344Y-62297D02*
X64645Y-62598D01*
X63998Y-62297D02*
X64344Y-62297D01*
X63998Y-62297D02*
X63998Y-62297D01*
X67891Y-41246D02*
X67891Y-41246D01*
X68310Y-49044D02*
X68265Y-49088D01*
X68310Y-41364D02*
X68310Y-49044D01*
X68191Y-41246D02*
X68310Y-41364D01*
X67891Y-41246D02*
X68191Y-41246D01*
X67891Y-41246D02*
X67891Y-41245D01*
X78171Y-62297D02*
X78171Y-62297D01*
X78517Y-62297D02*
X78647Y-62427D01*
X78171Y-62297D02*
X78517Y-62297D01*
X78171Y-62297D02*
X78171Y-62297D01*
X42738Y-62297D02*
X42738Y-62297D01*
X43084Y-62297D02*
X43385Y-62598D01*
X42738Y-62297D02*
X43084Y-62297D01*
X42738Y-62297D02*
X42738Y-62297D01*
X60804Y-41246D02*
X60804Y-41246D01*
X61224Y-41316D02*
X61224Y-49060D01*
X61154Y-41246D02*
X61224Y-41316D01*
X60804Y-41246D02*
X61154Y-41246D01*
X60804Y-41246D02*
X60804Y-41245D01*
X49825Y-62297D02*
X49825Y-62297D01*
X50171Y-62297D02*
X50472Y-62598D01*
X49825Y-62297D02*
X50171Y-62297D01*
X49825Y-62297D02*
X49825Y-62297D01*
X56911Y-62297D02*
X56911Y-62297D01*
X57257Y-62297D02*
X57559Y-62598D01*
X56911Y-62297D02*
X57257Y-62297D01*
X56911Y-62297D02*
X56911Y-62297D01*
X71085Y-62297D02*
X71085Y-62297D01*
X71431Y-62297D02*
X71732Y-62598D01*
X71085Y-62297D02*
X71431Y-62297D01*
X71085Y-62297D02*
X71085Y-62297D01*
X30782Y-44840D02*
X30613Y-45008D01*
X32256Y-44840D02*
X30782Y-44840D01*
X32256Y-45383D02*
X32256Y-44840D01*
X32256Y-45383D02*
X32256Y-45383D01*
X69031Y-58731D02*
X68975Y-58731D01*
X69950Y-57813D02*
X69031Y-58731D01*
X69950Y-54635D02*
X69950Y-57813D01*
X69499Y-54184D02*
X69950Y-54635D01*
X69499Y-53217D02*
X69499Y-54184D01*
X69976Y-52740D02*
X69499Y-53217D01*
X69997Y-52740D02*
X69976Y-52740D01*
X66190Y-41254D02*
X66112Y-41177D01*
X66190Y-41992D02*
X66190Y-41254D01*
X73321Y-44788D02*
X73321Y-41318D01*
X73212Y-44897D02*
X73321Y-44788D01*
X73321Y-41318D02*
X73321Y-39144D01*
X59305Y-56448D02*
X60110Y-55643D01*
X59305Y-59294D02*
X59305Y-56448D01*
X73212Y-51279D02*
X73212Y-44897D01*
X73812Y-51878D02*
X73212Y-51279D01*
X41169Y-57005D02*
X40583Y-57591D01*
X41169Y-54245D02*
X41169Y-57005D01*
X51735Y-58455D02*
X52466Y-59187D01*
X51735Y-55688D02*
X51735Y-58455D01*
X51122Y-55075D02*
X51122Y-54501D01*
X51735Y-55688D02*
X51122Y-55075D01*
X48124Y-58225D02*
X48300Y-58401D01*
X48124Y-56795D02*
X48124Y-58225D01*
X48462Y-56456D02*
X48124Y-56795D01*
X48462Y-54520D02*
X48462Y-56456D01*
X48444Y-54501D02*
X48462Y-54520D01*
X35929Y-41603D02*
X33198Y-41603D01*
X36435Y-42109D02*
X35929Y-41603D01*
X37604Y-42109D02*
X36435Y-42109D01*
X37758Y-41955D02*
X37604Y-42109D01*
X71714Y-55643D02*
X71714Y-53975D01*
X71714Y-53975D02*
X73812Y-51878D01*
X70000Y-52740D02*
X69997Y-52740D01*
X70479Y-52740D02*
X70000Y-52740D01*
X71714Y-53975D02*
X70479Y-52740D01*
X70000Y-52740D02*
X69997Y-52740D01*
X49431Y-41755D02*
X49431Y-41755D01*
X50963Y-41792D02*
X50963Y-41558D01*
X50787Y-41968D02*
X50963Y-41792D01*
X50354Y-41968D02*
X50787Y-41968D01*
X50141Y-41755D02*
X50354Y-41968D01*
X49431Y-41755D02*
X50141Y-41755D01*
X49431Y-41755D02*
X49431Y-41755D01*
X42344Y-41755D02*
X42344Y-41755D01*
X43847Y-41699D02*
X43847Y-41444D01*
X43578Y-41968D02*
X43847Y-41699D01*
X43267Y-41968D02*
X43578Y-41968D01*
X43055Y-41755D02*
X43267Y-41968D01*
X42344Y-41755D02*
X43055Y-41755D01*
X42344Y-41755D02*
X42344Y-41755D01*
X77777Y-41755D02*
X77778Y-41755D01*
X79173Y-41732D02*
X79173Y-41220D01*
X78937Y-41968D02*
X79173Y-41732D01*
X78700Y-41968D02*
X78937Y-41968D01*
X78488Y-41755D02*
X78700Y-41968D01*
X77778Y-41755D02*
X78488Y-41755D01*
X77778Y-41755D02*
X77777Y-41755D01*
X56518Y-41755D02*
X56518Y-41755D01*
X58059Y-41656D02*
X58059Y-41549D01*
X57748Y-41968D02*
X58059Y-41656D01*
X57440Y-41968D02*
X57748Y-41968D01*
X57228Y-41755D02*
X57440Y-41968D01*
X56518Y-41755D02*
X57228Y-41755D01*
X56518Y-41755D02*
X56518Y-41755D01*
X61198Y-61787D02*
X61198Y-61787D01*
X59960Y-61574D02*
X59685Y-61299D01*
X60275Y-61574D02*
X59960Y-61574D01*
X60488Y-61787D02*
X60275Y-61574D01*
X61198Y-61787D02*
X60488Y-61787D01*
X61198Y-61787D02*
X61198Y-61787D01*
X70691Y-41755D02*
X70691Y-41755D01*
X72138Y-41771D02*
X72138Y-41318D01*
X72125Y-41771D02*
X72138Y-41771D01*
X71929Y-41968D02*
X72125Y-41771D01*
X71614Y-41968D02*
X71929Y-41968D01*
X71401Y-41755D02*
X71614Y-41968D01*
X70691Y-41755D02*
X71401Y-41755D01*
X70691Y-41755D02*
X70691Y-41755D01*
X74661Y-61787D02*
X75371Y-61787D01*
X74448Y-61574D02*
X74661Y-61787D01*
X74133Y-61574D02*
X74448Y-61574D01*
X73858Y-61299D02*
X74133Y-61574D01*
X75771Y-53838D02*
X73812Y-51878D01*
X75771Y-61787D02*
X75771Y-53838D01*
X75371Y-61787D02*
X75771Y-61787D01*
X75371Y-61787D02*
X75371Y-61787D01*
X39938Y-61787D02*
X39938Y-61787D01*
X38700Y-61574D02*
X38425Y-61299D01*
X39015Y-61574D02*
X38700Y-61574D01*
X39228Y-61787D02*
X39015Y-61574D01*
X39938Y-61787D02*
X39228Y-61787D01*
X39938Y-61787D02*
X39938Y-61787D01*
X63604Y-41755D02*
X63604Y-41755D01*
X65062Y-41827D02*
X65062Y-41177D01*
X64921Y-41968D02*
X65062Y-41827D01*
X64527Y-41968D02*
X64921Y-41968D01*
X64314Y-41755D02*
X64527Y-41968D01*
X63604Y-41755D02*
X64314Y-41755D01*
X63604Y-41755D02*
X63604Y-41755D01*
X47025Y-61787D02*
X47025Y-61787D01*
X45787Y-61574D02*
X45511Y-61299D01*
X46102Y-61574D02*
X45787Y-61574D01*
X46314Y-61787D02*
X46102Y-61574D01*
X47025Y-61787D02*
X46314Y-61787D01*
X47025Y-61787D02*
X47025Y-61787D01*
X54111Y-61787D02*
X54111Y-61787D01*
X52874Y-61574D02*
X52598Y-61299D01*
X53188Y-61574D02*
X52874Y-61574D01*
X53401Y-61787D02*
X53188Y-61574D01*
X54111Y-61787D02*
X53401Y-61787D01*
X54111Y-61787D02*
X54111Y-61787D01*
X68285Y-61787D02*
X68284Y-61787D01*
X67047Y-61574D02*
X66771Y-61299D01*
X67362Y-61574D02*
X67047Y-61574D01*
X67574Y-61787D02*
X67362Y-61574D01*
X68284Y-61787D02*
X67574Y-61787D01*
X68284Y-61787D02*
X68285Y-61787D01*
X54733Y-58972D02*
X54984Y-59224D01*
X54733Y-54719D02*
X54733Y-58972D01*
X54876Y-54576D02*
X54733Y-54719D01*
X52233Y-54805D02*
X52462Y-54576D01*
X52233Y-58486D02*
X52233Y-54805D01*
X52250Y-58503D02*
X52233Y-58486D01*
X41595Y-58459D02*
X40838Y-59216D01*
X41595Y-54469D02*
X41595Y-58459D01*
X65320Y-47898D02*
X64777Y-48440D01*
X65320Y-44126D02*
X65320Y-47898D01*
X80060Y-63678D02*
X79541Y-64197D01*
X80060Y-56585D02*
X80060Y-63678D01*
X80036Y-56585D02*
X80060Y-56585D01*
X79392Y-55942D02*
X80036Y-56585D01*
X79392Y-55776D02*
X79392Y-55942D01*
X79451Y-55717D02*
X79392Y-55776D01*
X78515Y-54781D02*
X79451Y-55717D01*
X67385Y-52548D02*
X62950Y-52548D01*
X68795Y-53957D02*
X67385Y-52548D01*
X68795Y-54917D02*
X68795Y-53957D01*
X62950Y-51062D02*
X61621Y-49733D01*
X62950Y-52548D02*
X62950Y-51062D01*
X60311Y-52541D02*
X61634Y-53864D01*
X60000Y-52541D02*
X60311Y-52541D01*
X58844Y-53698D02*
X60000Y-52541D01*
X58844Y-54445D02*
X58844Y-53698D01*
X62950Y-52548D02*
X61634Y-53864D01*
X49431Y-41246D02*
X49431Y-41246D01*
X50250Y-41246D02*
X50354Y-41141D01*
X49431Y-41246D02*
X50250Y-41246D01*
X49431Y-41246D02*
X49431Y-41245D01*
X42344Y-41246D02*
X42344Y-41246D01*
X43163Y-41246D02*
X43267Y-41141D01*
X42344Y-41246D02*
X43163Y-41246D01*
X42344Y-41246D02*
X42344Y-41245D01*
X77777Y-41246D02*
X77778Y-41246D01*
X78596Y-41246D02*
X78700Y-41141D01*
X77778Y-41246D02*
X78596Y-41246D01*
X77778Y-41246D02*
X77777Y-41245D01*
X56518Y-41246D02*
X56518Y-41246D01*
X57336Y-41246D02*
X57440Y-41141D01*
X56518Y-41246D02*
X57336Y-41246D01*
X56518Y-41246D02*
X56518Y-41245D01*
X61198Y-62297D02*
X61198Y-62297D01*
X61498Y-62297D02*
X61198Y-62297D01*
X61615Y-62180D02*
X61498Y-62297D01*
X61615Y-59411D02*
X61615Y-62180D01*
X61535Y-59330D02*
X61615Y-59411D01*
X61535Y-53976D02*
X61535Y-59330D01*
X61615Y-53896D02*
X61535Y-53976D01*
X61615Y-53883D02*
X61615Y-53896D01*
X61634Y-53864D02*
X61615Y-53883D01*
X61198Y-62297D02*
X61198Y-62297D01*
X70691Y-41246D02*
X70691Y-41246D01*
X71509Y-41246D02*
X71614Y-41141D01*
X70691Y-41246D02*
X71509Y-41246D01*
X70691Y-41246D02*
X70691Y-41245D01*
X75371Y-62297D02*
X75371Y-62297D01*
X74553Y-62297D02*
X74448Y-62401D01*
X75371Y-62297D02*
X74553Y-62297D01*
X75371Y-62297D02*
X75371Y-62297D01*
X39938Y-62297D02*
X39938Y-62297D01*
X39120Y-62297D02*
X39015Y-62401D01*
X39938Y-62297D02*
X39120Y-62297D01*
X39938Y-62297D02*
X39938Y-62297D01*
X63604Y-41246D02*
X63604Y-41246D01*
X64423Y-41246D02*
X64527Y-41141D01*
X63604Y-41246D02*
X64423Y-41246D01*
X63604Y-41246D02*
X63604Y-41245D01*
X47025Y-62297D02*
X47025Y-62297D01*
X46206Y-62297D02*
X46102Y-62401D01*
X47025Y-62297D02*
X46206Y-62297D01*
X47025Y-62297D02*
X47025Y-62297D01*
X53490Y-62297D02*
X54111Y-62297D01*
X53385Y-62401D02*
X53490Y-62297D01*
X54111Y-62297D02*
X54111Y-62297D01*
X54111Y-62297D02*
X54111Y-62297D01*
X68285Y-62297D02*
X68285Y-62297D01*
X68640Y-55071D02*
X68795Y-54917D01*
X68640Y-58874D02*
X68640Y-55071D01*
X68688Y-58922D02*
X68640Y-58874D01*
X68688Y-62193D02*
X68688Y-58922D01*
X68585Y-62297D02*
X68688Y-62193D01*
X68285Y-62297D02*
X68585Y-62297D01*
X68285Y-62297D02*
X68285Y-62297D01*
X33982Y-42707D02*
X33982Y-42707D01*
X37747Y-47578D02*
X38184Y-48015D01*
X37747Y-44368D02*
X37747Y-47578D01*
X35525Y-42147D02*
X37747Y-44368D01*
X33524Y-42147D02*
X35525Y-42147D01*
X33438Y-42232D02*
X33524Y-42147D01*
X33438Y-42707D02*
X33438Y-42232D01*
X33982Y-42707D02*
X33438Y-42707D01*
X33982Y-42707D02*
X33982Y-42706D01*
X76929Y-37440D02*
X79448Y-39960D01*
X37440Y-37440D02*
X76929Y-37440D01*
X34015Y-40866D02*
X37440Y-37440D01*
X32992Y-40866D02*
X34015Y-40866D01*
X32884Y-40973D02*
X32992Y-40866D01*
X32884Y-41603D02*
X32884Y-40973D01*
X77778Y-41496D02*
X77777Y-41496D01*
X78700Y-41496D02*
X77778Y-41496D01*
X78818Y-41614D02*
X78700Y-41496D01*
X77778Y-41496D02*
X77777Y-41495D01*
X27343Y-47244D02*
X28149Y-46437D01*
X27165Y-47244D02*
X27343Y-47244D01*
X33121Y-44283D02*
X30216Y-44283D01*
X33438Y-43966D02*
X33121Y-44283D01*
X33982Y-43966D02*
X33438Y-43966D01*
X33982Y-43966D02*
X34670Y-43966D01*
X45312Y-55410D02*
X45312Y-56590D01*
X45821Y-54901D02*
X45312Y-55410D01*
X42358Y-63067D02*
X42738Y-63067D01*
X42322Y-63031D02*
X42358Y-63067D01*
X42322Y-62598D02*
X42322Y-63031D01*
X42363Y-62557D02*
X42322Y-62598D01*
X42738Y-62557D02*
X42363Y-62557D01*
X61184Y-40475D02*
X60804Y-40475D01*
X61220Y-40511D02*
X61184Y-40475D01*
X61220Y-40944D02*
X61220Y-40511D01*
X61179Y-40985D02*
X61220Y-40944D01*
X60804Y-40985D02*
X61179Y-40985D01*
X63149Y-63779D02*
X62973Y-63779D01*
X62973Y-63955D02*
X62973Y-63976D01*
X63149Y-63779D02*
X62973Y-63955D01*
X68271Y-40475D02*
X67891Y-40475D01*
X68307Y-40511D02*
X68271Y-40475D01*
X68307Y-40944D02*
X68307Y-40511D01*
X68266Y-40985D02*
X68307Y-40944D01*
X67891Y-40985D02*
X68266Y-40985D01*
X39924Y-40475D02*
X39544Y-40475D01*
X39960Y-40511D02*
X39924Y-40475D01*
X39960Y-40944D02*
X39960Y-40511D01*
X39919Y-40985D02*
X39960Y-40944D01*
X39544Y-40985D02*
X39919Y-40985D01*
X49445Y-63067D02*
X49825Y-63067D01*
X49409Y-63031D02*
X49445Y-63067D01*
X49409Y-62598D02*
X49409Y-63031D01*
X49450Y-62557D02*
X49409Y-62598D01*
X49825Y-62557D02*
X49450Y-62557D01*
X56531Y-63067D02*
X56911Y-63067D01*
X56496Y-63031D02*
X56531Y-63067D01*
X56496Y-62598D02*
X56496Y-63031D01*
X56537Y-62557D02*
X56496Y-62598D01*
X56911Y-62557D02*
X56537Y-62557D01*
X77791Y-63067D02*
X78171Y-63067D01*
X77755Y-63031D02*
X77791Y-63067D01*
X77755Y-62598D02*
X77755Y-63031D01*
X77796Y-62557D02*
X77755Y-62598D01*
X78171Y-62557D02*
X77796Y-62557D01*
X58861Y-55107D02*
X58861Y-59527D01*
X58607Y-54853D02*
X58861Y-55107D01*
X54098Y-40475D02*
X53718Y-40475D01*
X54133Y-40511D02*
X54098Y-40475D01*
X54133Y-40944D02*
X54133Y-40511D01*
X54092Y-40985D02*
X54133Y-40944D01*
X53718Y-40985D02*
X54092Y-40985D01*
X47011Y-40475D02*
X46631Y-40475D01*
X47047Y-40511D02*
X47011Y-40475D01*
X47047Y-40944D02*
X47047Y-40511D01*
X47006Y-40985D02*
X47047Y-40944D01*
X46631Y-40985D02*
X47006Y-40985D01*
X63618Y-63067D02*
X63998Y-63067D01*
X63582Y-63031D02*
X63618Y-63067D01*
X63582Y-62598D02*
X63582Y-63031D01*
X63623Y-62557D02*
X63582Y-62598D01*
X63998Y-62557D02*
X63623Y-62557D01*
X49173Y-63779D02*
X48975Y-63779D01*
X49825Y-63127D02*
X49173Y-63779D01*
X49825Y-63067D02*
X49825Y-63127D01*
X48975Y-63779D02*
X48800Y-63779D01*
X59244Y-63074D02*
X59104Y-63214D01*
X59244Y-62281D02*
X59244Y-63074D01*
X59224Y-62261D02*
X59244Y-62281D01*
X60771Y-63874D02*
X61137Y-63507D01*
X59764Y-63874D02*
X60771Y-63874D01*
X59104Y-63214D02*
X59764Y-63874D01*
X63998Y-63127D02*
X63621Y-63504D01*
X63998Y-63067D02*
X63998Y-63127D01*
X63346Y-63779D02*
X63149Y-63779D01*
X63621Y-63504D02*
X63346Y-63779D01*
X63596Y-63504D02*
X63593Y-63507D01*
X63621Y-63504D02*
X63596Y-63504D01*
X75352Y-40985D02*
X75393Y-40944D01*
X74977Y-40985D02*
X75352Y-40985D01*
X75357Y-40475D02*
X74977Y-40475D01*
X75393Y-40511D02*
X75357Y-40475D01*
X75393Y-40944D02*
X75393Y-40511D01*
X54821Y-37666D02*
X55087Y-37932D01*
X47984Y-37666D02*
X54821Y-37666D01*
X70705Y-63067D02*
X71085Y-63067D01*
X70669Y-63031D02*
X70705Y-63067D01*
X70669Y-62598D02*
X70669Y-63031D01*
X70710Y-62557D02*
X70669Y-62598D01*
X71085Y-62557D02*
X70710Y-62557D01*
X75629Y-39763D02*
X75816Y-39763D01*
X74977Y-40415D02*
X75629Y-39763D01*
X74977Y-40475D02*
X74977Y-40415D01*
X75816Y-39763D02*
X76003Y-39763D01*
X61707Y-37954D02*
X62173Y-37954D01*
X61469Y-37717D02*
X61707Y-37954D01*
X61419Y-37666D02*
X61469Y-37717D01*
X55352Y-37666D02*
X61419Y-37666D01*
X55087Y-37932D02*
X55352Y-37666D01*
X77519Y-63779D02*
X77322Y-63779D01*
X78171Y-63127D02*
X77519Y-63779D01*
X78171Y-63067D02*
X78171Y-63127D01*
X77322Y-63779D02*
X77146Y-63779D01*
X62464Y-37663D02*
X62173Y-37954D01*
X68731Y-37663D02*
X62464Y-37663D01*
X69141Y-38073D02*
X68731Y-37663D01*
X75393Y-52988D02*
X75802Y-53396D01*
X75393Y-40944D02*
X75393Y-52988D01*
X79037Y-65188D02*
X76821Y-65188D01*
X80266Y-63960D02*
X79037Y-65188D01*
X80266Y-55737D02*
X80266Y-63960D01*
X77450Y-52921D02*
X80266Y-55737D01*
X76277Y-52921D02*
X77450Y-52921D01*
X75802Y-53396D02*
X76277Y-52921D01*
X32761Y-62082D02*
X32761Y-63898D01*
X29417Y-58739D02*
X32761Y-62082D01*
X29417Y-49733D02*
X29417Y-58739D01*
X29152Y-49467D02*
X29417Y-49733D01*
X29152Y-46259D02*
X29152Y-49467D01*
X27512Y-42444D02*
X28900Y-42444D01*
X27059Y-42897D02*
X27512Y-42444D01*
X27535Y-43374D02*
X27059Y-42897D01*
X27535Y-44010D02*
X27535Y-43374D01*
X27872Y-44347D02*
X27535Y-44010D01*
X28172Y-44347D02*
X27872Y-44347D01*
X28600Y-44776D02*
X28172Y-44347D01*
X28600Y-45966D02*
X28600Y-44776D01*
X28149Y-46417D02*
X28600Y-45966D01*
X28149Y-46437D02*
X28149Y-46417D01*
X28327Y-46259D02*
X29152Y-46259D01*
X28149Y-46437D02*
X28327Y-46259D01*
X28149Y-46437D02*
X28149Y-46437D01*
X28149Y-46437D02*
X28149Y-46437D01*
X29527Y-41122D02*
X29527Y-41123D01*
X28900Y-42075D02*
X28900Y-42444D01*
X29527Y-41448D02*
X28900Y-42075D01*
X29527Y-41123D02*
X29527Y-41448D01*
X37733Y-54465D02*
X38267Y-55000D01*
X37733Y-49320D02*
X37733Y-54465D01*
X36735Y-48323D02*
X37733Y-49320D01*
X36735Y-44788D02*
X36735Y-48323D01*
X36151Y-44203D02*
X36735Y-44788D01*
X35826Y-44203D02*
X36151Y-44203D01*
X35826Y-43878D02*
X35826Y-44203D01*
X30216Y-44283D02*
X30216Y-44283D01*
X30216Y-44283D02*
X30216Y-44283D01*
X30216Y-44283D02*
X30216Y-44283D01*
X30216Y-44283D02*
X30216Y-44283D01*
X30216Y-44283D02*
X30216Y-44283D01*
X30216Y-44283D02*
X30216Y-44283D01*
X35039Y-43878D02*
X35039Y-43878D01*
X34951Y-43966D02*
X35039Y-43878D01*
X34670Y-43966D02*
X34951Y-43966D01*
X35826Y-43878D02*
X35826Y-43878D01*
X35039Y-43878D02*
X35826Y-43878D01*
X77146Y-63976D02*
X77146Y-63976D01*
X77146Y-63955D02*
X77146Y-63976D01*
X77322Y-63779D02*
X77146Y-63955D01*
X76821Y-64301D02*
X76821Y-65188D01*
X77146Y-63976D02*
X76821Y-64301D01*
X70060Y-63976D02*
X70059Y-63976D01*
X69716Y-64320D02*
X70059Y-63976D01*
X69716Y-65113D02*
X69716Y-64320D01*
X70690Y-66087D02*
X69716Y-65113D01*
X76530Y-66087D02*
X70690Y-66087D01*
X76821Y-65796D02*
X76530Y-66087D01*
X76821Y-65188D02*
X76821Y-65796D01*
X71085Y-63127D02*
X71085Y-63067D01*
X70433Y-63779D02*
X71085Y-63127D01*
X70059Y-63779D02*
X70433Y-63779D01*
X70059Y-63976D02*
X70059Y-63779D01*
X55886Y-63976D02*
X55886Y-63976D01*
X55886Y-63779D02*
X55886Y-63976D01*
X56259Y-63779D02*
X55886Y-63779D01*
X56911Y-63127D02*
X56259Y-63779D01*
X56911Y-63067D02*
X56911Y-63127D01*
X57109Y-65208D02*
X59104Y-63214D01*
X55647Y-65208D02*
X57109Y-65208D01*
X55561Y-65123D02*
X55647Y-65208D01*
X55561Y-64301D02*
X55561Y-65123D01*
X55886Y-63976D02*
X55561Y-64301D01*
X48800Y-63976D02*
X48800Y-63976D01*
X48456Y-64320D02*
X48800Y-63976D01*
X48456Y-65122D02*
X48456Y-64320D01*
X48523Y-65188D02*
X48456Y-65122D01*
X50034Y-65188D02*
X48523Y-65188D01*
X51696Y-63527D02*
X50034Y-65188D01*
X51696Y-60658D02*
X51696Y-63527D01*
X51409Y-60371D02*
X51696Y-60658D01*
X51409Y-55763D02*
X51409Y-60371D01*
X50635Y-54989D02*
X51409Y-55763D01*
X48800Y-63955D02*
X48975Y-63779D01*
X48800Y-63976D02*
X48800Y-63955D01*
X40569Y-39566D02*
X40570Y-39566D01*
X40570Y-39763D02*
X40570Y-39566D01*
X40196Y-39763D02*
X40570Y-39763D01*
X39544Y-40415D02*
X40196Y-39763D01*
X39544Y-40475D02*
X39544Y-40415D01*
X41181Y-37666D02*
X47984Y-37666D01*
X40894Y-37953D02*
X41181Y-37666D01*
X40894Y-39241D02*
X40894Y-37953D01*
X40570Y-39566D02*
X40894Y-39241D01*
X54743Y-39566D02*
X54743Y-39566D01*
X55087Y-39223D02*
X54743Y-39566D01*
X55087Y-37932D02*
X55087Y-39223D01*
X53718Y-40415D02*
X53718Y-40475D01*
X54370Y-39763D02*
X53718Y-40415D01*
X54743Y-39763D02*
X54370Y-39763D01*
X54743Y-39566D02*
X54743Y-39763D01*
X68916Y-39566D02*
X68916Y-39566D01*
X69241Y-39241D02*
X68916Y-39566D01*
X69241Y-38173D02*
X69241Y-39241D01*
X69141Y-38073D02*
X69241Y-38173D01*
X67891Y-40415D02*
X67891Y-40475D01*
X68543Y-39763D02*
X67891Y-40415D01*
X68916Y-39763D02*
X68543Y-39763D01*
X68916Y-39566D02*
X68916Y-39763D01*
X62973Y-63976D02*
X62973Y-63976D01*
X76002Y-39566D02*
X76003Y-39566D01*
X76003Y-39577D02*
X76003Y-39566D01*
X75816Y-39763D02*
X76003Y-39577D01*
X69551Y-37663D02*
X69141Y-38073D01*
X75553Y-37663D02*
X69551Y-37663D01*
X76327Y-38438D02*
X75553Y-37663D01*
X76327Y-39241D02*
X76327Y-38438D01*
X76003Y-39566D02*
X76327Y-39241D01*
X61829Y-39566D02*
X61829Y-39566D01*
X62173Y-39223D02*
X61829Y-39566D01*
X62173Y-37954D02*
X62173Y-39223D01*
X60804Y-40415D02*
X60804Y-40475D01*
X61456Y-39763D02*
X60804Y-40415D01*
X61829Y-39763D02*
X61456Y-39763D01*
X61829Y-39566D02*
X61829Y-39763D01*
X47656Y-39566D02*
X47656Y-39566D01*
X47984Y-39238D02*
X47656Y-39566D01*
X47984Y-37666D02*
X47984Y-39238D01*
X46631Y-40415D02*
X46631Y-40475D01*
X47283Y-39763D02*
X46631Y-40415D01*
X47656Y-39763D02*
X47283Y-39763D01*
X47656Y-39566D02*
X47656Y-39763D01*
X41713Y-63976D02*
X41713Y-63976D01*
X41713Y-63779D02*
X41713Y-63976D01*
X42086Y-63779D02*
X41713Y-63779D01*
X42738Y-63127D02*
X42086Y-63779D01*
X42738Y-63067D02*
X42738Y-63127D01*
X44230Y-57188D02*
X44155Y-57112D01*
X44230Y-60660D02*
X44230Y-57188D01*
X44624Y-61053D02*
X44230Y-60660D01*
X44624Y-63496D02*
X44624Y-61053D01*
X42931Y-65188D02*
X44624Y-63496D01*
X41476Y-65188D02*
X42931Y-65188D01*
X41388Y-65100D02*
X41476Y-65188D01*
X41388Y-64301D02*
X41388Y-65100D01*
X41713Y-63976D02*
X41388Y-64301D01*
X28149Y-46437D02*
X28149Y-46437D01*
X29330Y-44075D02*
X29330Y-44075D01*
X28900Y-43645D02*
X29330Y-44075D01*
X28900Y-42444D02*
X28900Y-43645D01*
X29538Y-44283D02*
X30216Y-44283D01*
X29330Y-44075D02*
X29538Y-44283D01*
X46631Y-40985D02*
X46631Y-40985D01*
X39544Y-40985D02*
X39544Y-40985D01*
X74977Y-40985D02*
X74977Y-40985D01*
X53718Y-40985D02*
X53718Y-40985D01*
X63998Y-62557D02*
X63998Y-62557D01*
X67891Y-40985D02*
X67891Y-40985D01*
X78171Y-62557D02*
X78171Y-62557D01*
X42738Y-62557D02*
X42738Y-62557D01*
X60804Y-40985D02*
X60804Y-40985D01*
X49825Y-62557D02*
X49825Y-62557D01*
X56911Y-62557D02*
X56911Y-62557D01*
X71085Y-62557D02*
X71085Y-62557D01*
X34526Y-43822D02*
X34670Y-43966D01*
X34526Y-43337D02*
X34526Y-43822D01*
X33982Y-43337D02*
X34526Y-43337D01*
X33982Y-43337D02*
X33982Y-43336D01*
X79015Y-43700D02*
X79015Y-45787D01*
X78976Y-43661D02*
X79015Y-43700D01*
X71929Y-43700D02*
X71929Y-45787D01*
X71889Y-43661D02*
X71929Y-43700D01*
X64842Y-43700D02*
X64842Y-45787D01*
X64803Y-43661D02*
X64842Y-43700D01*
X57755Y-43700D02*
X57755Y-45787D01*
X57716Y-43661D02*
X57755Y-43700D01*
X50669Y-43700D02*
X50669Y-45787D01*
X50629Y-43661D02*
X50669Y-43700D01*
X43582Y-43700D02*
X43582Y-45787D01*
X43543Y-43661D02*
X43582Y-43700D01*
X29611Y-63898D02*
X29611Y-64448D01*
X28307Y-64062D02*
X28909Y-64062D01*
X29527Y-64861D02*
X29527Y-64448D01*
X29295Y-64448D02*
X29527Y-64448D01*
X28909Y-64062D02*
X29295Y-64448D01*
X29527Y-64448D02*
X29611Y-64448D01*
X51903Y-40694D02*
X52083Y-40874D01*
X61811Y-54425D02*
X61815Y-54420D01*
X61811Y-58818D02*
X61811Y-54425D01*
X62165Y-59173D02*
X61811Y-58818D01*
X61815Y-54420D02*
X62016Y-54220D01*
X50140Y-47443D02*
X50140Y-49457D01*
X51903Y-45679D02*
X50140Y-47443D01*
X51903Y-40694D02*
X51903Y-45679D01*
X51615Y-40406D02*
X51903Y-40694D01*
X51615Y-40406D02*
X51615Y-40406D01*
X70150Y-58868D02*
X69792Y-59226D01*
X70150Y-54488D02*
X70150Y-58868D01*
X69699Y-54037D02*
X70150Y-54488D01*
X69699Y-53320D02*
X69699Y-54037D01*
X70079Y-52940D02*
X69699Y-53320D01*
X70377Y-52940D02*
X70079Y-52940D01*
X71231Y-53794D02*
X70377Y-52940D01*
X71231Y-54220D02*
X71231Y-53794D01*
X54537Y-53855D02*
X50140Y-49457D01*
X54537Y-54121D02*
X54537Y-53855D01*
X47425Y-50774D02*
X47425Y-55598D01*
X48823Y-50774D02*
X47425Y-50774D01*
X50140Y-49457D02*
X48823Y-50774D01*
X44444Y-49751D02*
X44444Y-45100D01*
X45467Y-50774D02*
X44444Y-49751D01*
X47425Y-50774D02*
X45467Y-50774D01*
X61815Y-54420D02*
X62016Y-54220D01*
X49431Y-40985D02*
X49431Y-40985D01*
X50037Y-40985D02*
X50354Y-40669D01*
X49431Y-40985D02*
X50037Y-40985D01*
X49431Y-40985D02*
X49431Y-40985D01*
X42344Y-40985D02*
X42345Y-40985D01*
X42951Y-40985D02*
X43267Y-40669D01*
X42345Y-40985D02*
X42951Y-40985D01*
X42345Y-40985D02*
X42344Y-40985D01*
X77777Y-40985D02*
X77778Y-40985D01*
X78384Y-40985D02*
X78700Y-40669D01*
X77778Y-40985D02*
X78384Y-40985D01*
X77778Y-40985D02*
X77777Y-40985D01*
X56518Y-40985D02*
X56518Y-40985D01*
X57124Y-40985D02*
X57440Y-40669D01*
X56518Y-40985D02*
X57124Y-40985D01*
X56518Y-40985D02*
X56518Y-40985D01*
X61198Y-62557D02*
X61198Y-62557D01*
X60592Y-62557D02*
X60275Y-62874D01*
X61198Y-62557D02*
X60592Y-62557D01*
X61198Y-62557D02*
X61198Y-62557D01*
X70691Y-40985D02*
X70691Y-40985D01*
X71297Y-40985D02*
X71614Y-40669D01*
X70691Y-40985D02*
X71297Y-40985D01*
X70691Y-40985D02*
X70691Y-40985D01*
X75371Y-62557D02*
X75371Y-62557D01*
X71329Y-54318D02*
X71231Y-54220D01*
X71329Y-56927D02*
X71329Y-54318D01*
X72867Y-58465D02*
X71329Y-56927D01*
X72867Y-60744D02*
X72867Y-58465D01*
X73011Y-60889D02*
X72867Y-60744D01*
X73011Y-61626D02*
X73011Y-60889D01*
X73549Y-62164D02*
X73011Y-61626D01*
X73549Y-63482D02*
X73549Y-62164D01*
X73561Y-63482D02*
X73549Y-63482D01*
X73956Y-63877D02*
X73561Y-63482D01*
X74228Y-63877D02*
X73956Y-63877D01*
X74468Y-63637D02*
X74228Y-63877D01*
X74468Y-62854D02*
X74468Y-63637D01*
X74765Y-62557D02*
X74468Y-62854D01*
X75371Y-62557D02*
X74765Y-62557D01*
X75371Y-62557D02*
X75371Y-62557D01*
X39938Y-62557D02*
X39938Y-62557D01*
X39938Y-62557D02*
X39938Y-62557D01*
X63604Y-40985D02*
X63604Y-40985D01*
X64211Y-40985D02*
X64527Y-40669D01*
X63604Y-40985D02*
X64211Y-40985D01*
X63604Y-40985D02*
X63604Y-40985D01*
X47025Y-62557D02*
X47025Y-62557D01*
X47425Y-62557D02*
X47025Y-62557D01*
X47425Y-55598D02*
X47425Y-62557D01*
X47025Y-62557D02*
X47025Y-62557D01*
X54111Y-62557D02*
X54111Y-62557D01*
X54511Y-62557D02*
X54111Y-62557D01*
X54511Y-54146D02*
X54511Y-62557D01*
X54537Y-54121D02*
X54511Y-54146D01*
X54111Y-62557D02*
X54111Y-62557D01*
X68285Y-62557D02*
X68284Y-62557D01*
X67678Y-62557D02*
X67362Y-62874D01*
X68284Y-62557D02*
X67678Y-62557D01*
X68284Y-62557D02*
X68285Y-62557D01*
X38446Y-63822D02*
X38420Y-63795D01*
X38500Y-63875D02*
X38446Y-63822D01*
X38790Y-63875D02*
X38500Y-63875D01*
X39015Y-63650D02*
X38790Y-63875D01*
X39015Y-62874D02*
X39015Y-63650D01*
X39332Y-62557D02*
X39015Y-62874D01*
X39938Y-62557D02*
X39332Y-62557D01*
X37958Y-55611D02*
X38095Y-55473D01*
X37958Y-58361D02*
X37958Y-55611D01*
X37103Y-59216D02*
X37958Y-58361D01*
X37001Y-59216D02*
X37103Y-59216D01*
X36290Y-59927D02*
X37001Y-59216D01*
X36290Y-60459D02*
X36290Y-59927D01*
X36405Y-60574D02*
X36290Y-60459D01*
X36458Y-60574D02*
X36405Y-60574D01*
X38332Y-62448D02*
X36458Y-60574D01*
X38332Y-63707D02*
X38332Y-62448D01*
X38420Y-63795D02*
X38332Y-63707D01*
X31946Y-46769D02*
X31987Y-46810D01*
X31946Y-45383D02*
X31946Y-46769D01*
X27907Y-47793D02*
X28815Y-46885D01*
X26815Y-47793D02*
X27907Y-47793D01*
X26815Y-47793D02*
X26815Y-47793D01*
X26803Y-47793D02*
X26815Y-47793D01*
X26715Y-47881D02*
X26803Y-47793D01*
X26715Y-47894D02*
X26715Y-47881D01*
X26700Y-47909D02*
X26715Y-47894D01*
X26700Y-60913D02*
X26700Y-47909D01*
X27002Y-61215D02*
X26700Y-60913D01*
X27002Y-62815D02*
X27002Y-61215D01*
X27538Y-63351D02*
X27002Y-62815D01*
X28702Y-63351D02*
X27538Y-63351D01*
X28727Y-63326D02*
X28702Y-63351D01*
X29856Y-63326D02*
X28727Y-63326D01*
X30124Y-63594D02*
X29856Y-63326D01*
X30124Y-65320D02*
X30124Y-63594D01*
X30535Y-65731D02*
X30124Y-65320D01*
X35383Y-65731D02*
X30535Y-65731D01*
X36161Y-64953D02*
X35383Y-65731D01*
X36934Y-64953D02*
X36161Y-64953D01*
X37800Y-64087D02*
X36934Y-64953D01*
X38128Y-64087D02*
X37800Y-64087D01*
X38420Y-63795D02*
X38128Y-64087D01*
X38420Y-63795D02*
X38420Y-63795D01*
X38897Y-41496D02*
X39544Y-41496D01*
X39544Y-41496D02*
X39544Y-41495D01*
X39938Y-62047D02*
X39938Y-62047D01*
X40238Y-62047D02*
X39938Y-62047D01*
X40338Y-61947D02*
X40238Y-62047D01*
X40338Y-57806D02*
X40338Y-61947D01*
X40148Y-57615D02*
X40338Y-57806D01*
X40148Y-53111D02*
X40148Y-57615D01*
X39944Y-52909D02*
X40148Y-53111D01*
X39944Y-41496D02*
X39944Y-52909D01*
X39544Y-41496D02*
X39944Y-41496D01*
X39938Y-62047D02*
X39938Y-62047D01*
X36653Y-57244D02*
X36023Y-57874D01*
X36736Y-57244D02*
X36653Y-57244D01*
X34561Y-64829D02*
X34430Y-64960D01*
X34561Y-63898D02*
X34561Y-64829D01*
X32480Y-38207D02*
X33858Y-38207D01*
X69666Y-39566D02*
X69666Y-38788D01*
X69666Y-39566D02*
X69666Y-39566D01*
X69782Y-39566D02*
X70691Y-40475D01*
X69666Y-39566D02*
X69782Y-39566D01*
X48406Y-39566D02*
X48406Y-38788D01*
X48406Y-39566D02*
X48406Y-39566D01*
X48522Y-39566D02*
X49431Y-40475D01*
X48406Y-39566D02*
X48522Y-39566D01*
X55492Y-39566D02*
X55492Y-38788D01*
X55493Y-39566D02*
X55492Y-39566D01*
X55609Y-39566D02*
X56518Y-40475D01*
X55493Y-39566D02*
X55609Y-39566D01*
X41319Y-39566D02*
X41319Y-38788D01*
X41319Y-39566D02*
X41319Y-39566D01*
X76752Y-39566D02*
X76752Y-38788D01*
X76752Y-39566D02*
X76752Y-39566D01*
X76868Y-39566D02*
X77777Y-40475D01*
X76752Y-39566D02*
X76868Y-39566D01*
X62579Y-39566D02*
X62579Y-38788D01*
X62579Y-39566D02*
X62579Y-39566D01*
X62695Y-39566D02*
X63604Y-40475D01*
X62579Y-39566D02*
X62695Y-39566D01*
X41435Y-39566D02*
X42344Y-40475D01*
X41319Y-39566D02*
X41435Y-39566D01*
X32252Y-48603D02*
X32676Y-48603D01*
X32233Y-48622D02*
X32252Y-48603D01*
X31871Y-48622D02*
X32233Y-48622D01*
X32676Y-48603D02*
X32677Y-48603D01*
X32480Y-38207D02*
X31102Y-38207D01*
X76396Y-64763D02*
X76396Y-64370D01*
X76396Y-64370D02*
X76396Y-64763D01*
X62223Y-64763D02*
X62223Y-64370D01*
X62223Y-64370D02*
X62223Y-64763D01*
X40963Y-64763D02*
X40963Y-64370D01*
X40963Y-64370D02*
X40963Y-64763D01*
X69310Y-64763D02*
X69310Y-64370D01*
X69310Y-64370D02*
X69310Y-64763D01*
X48050Y-64763D02*
X48050Y-64370D01*
X48050Y-64370D02*
X48050Y-64763D01*
X55137Y-64763D02*
X55137Y-64370D01*
X55137Y-64370D02*
X55137Y-64763D01*
X32676Y-48603D02*
X32677Y-48603D01*
X31411Y-64448D02*
X31411Y-63898D01*
X31280Y-64579D02*
X31411Y-64448D01*
X31280Y-64960D02*
X31280Y-64579D01*
X26978Y-37696D02*
X30108Y-37696D01*
X34682Y-38207D02*
X34898Y-37992D01*
X33858Y-38207D02*
X34682Y-38207D01*
X36736Y-54645D02*
X37181Y-54645D01*
X37181Y-57244D02*
X36736Y-57244D01*
X37406Y-57018D02*
X37181Y-57244D01*
X37406Y-54870D02*
X37406Y-57018D01*
X37181Y-54645D02*
X37406Y-54870D01*
X30108Y-38102D02*
X30108Y-37696D01*
X30213Y-38207D02*
X30108Y-38102D01*
X31102Y-38207D02*
X30213Y-38207D01*
X29330Y-42903D02*
X29242Y-42814D01*
X29330Y-43325D02*
X29330Y-42903D01*
X35996Y-46062D02*
X35039Y-46062D01*
X36051Y-46008D02*
X35996Y-46062D01*
X36134Y-46008D02*
X36051Y-46008D01*
X33823Y-48928D02*
X35050Y-48928D01*
X33661Y-48765D02*
X33823Y-48928D01*
X37181Y-51059D02*
X37181Y-54645D01*
X35050Y-48928D02*
X37181Y-51059D01*
X36134Y-47844D02*
X36134Y-46008D01*
X35050Y-48928D02*
X36134Y-47844D01*
X33661Y-48603D02*
X33661Y-48603D01*
X33661Y-48603D02*
X33661Y-48765D01*
X55137Y-63976D02*
X55136Y-63976D01*
X55137Y-64370D02*
X55137Y-63976D01*
X55020Y-63976D02*
X54111Y-63067D01*
X55136Y-63976D02*
X55020Y-63976D01*
X48050Y-63976D02*
X48050Y-63976D01*
X48050Y-64370D02*
X48050Y-63976D01*
X47934Y-63976D02*
X47025Y-63067D01*
X48050Y-63976D02*
X47934Y-63976D01*
X69310Y-63976D02*
X69310Y-63976D01*
X69310Y-64370D02*
X69310Y-63976D01*
X69194Y-63976D02*
X68285Y-63067D01*
X69310Y-63976D02*
X69194Y-63976D01*
X40963Y-63976D02*
X40963Y-63976D01*
X40963Y-64370D02*
X40963Y-63976D01*
X40847Y-63976D02*
X39938Y-63067D01*
X40963Y-63976D02*
X40847Y-63976D01*
X62223Y-63976D02*
X62223Y-63976D01*
X62223Y-64370D02*
X62223Y-63976D01*
X62107Y-63976D02*
X61198Y-63067D01*
X62223Y-63976D02*
X62107Y-63976D01*
X76396Y-63976D02*
X76396Y-63976D01*
X76396Y-64370D02*
X76396Y-63976D01*
X76280Y-63976D02*
X75371Y-63067D01*
X76396Y-63976D02*
X76280Y-63976D01*
X40963Y-64763D02*
X40963Y-64763D01*
X40708Y-64763D02*
X40393Y-65078D01*
X40963Y-64763D02*
X40708Y-64763D01*
X48050Y-64763D02*
X48050Y-64763D01*
X47834Y-64763D02*
X47480Y-65118D01*
X48050Y-64763D02*
X47834Y-64763D01*
X55137Y-64763D02*
X55136Y-64763D01*
X54960Y-64763D02*
X54566Y-65157D01*
X55136Y-64763D02*
X54960Y-64763D01*
X62223Y-64763D02*
X62223Y-64763D01*
X62007Y-64763D02*
X61614Y-65157D01*
X62223Y-64763D02*
X62007Y-64763D01*
X69310Y-64763D02*
X69310Y-64763D01*
X69055Y-64763D02*
X68661Y-65157D01*
X69310Y-64763D02*
X69055Y-64763D01*
X76396Y-64763D02*
X76396Y-64763D01*
X76181Y-64763D02*
X75787Y-65157D01*
X76396Y-64763D02*
X76181Y-64763D01*
X35039Y-43128D02*
X35039Y-43129D01*
X34380Y-65405D02*
X32354Y-65405D01*
X34430Y-65355D02*
X34380Y-65405D01*
X34430Y-64960D02*
X34430Y-65355D01*
X31280Y-65405D02*
X31280Y-64960D01*
X32354Y-65405D02*
X31280Y-65405D01*
X41319Y-38784D02*
X41319Y-38788D01*
X62579Y-38784D02*
X62579Y-38788D01*
X76752Y-38784D02*
X76752Y-38788D01*
X55492Y-38784D02*
X55492Y-38788D01*
X48406Y-38784D02*
X48406Y-38788D01*
X69666Y-38784D02*
X69666Y-38788D01*
X33982Y-43021D02*
X33982Y-43022D01*
X33438Y-43022D02*
X33982Y-43022D01*
X33438Y-43338D02*
X33438Y-43022D01*
X34928Y-43129D02*
X35039Y-43129D01*
X34821Y-43022D02*
X34928Y-43129D01*
X33982Y-43022D02*
X34821Y-43022D01*
X29071Y-65622D02*
X29082Y-65611D01*
X28307Y-65622D02*
X29071Y-65622D01*
X29527Y-65611D02*
X29082Y-65611D01*
X55492Y-38784D02*
X55492Y-38397D01*
X55492Y-38010D02*
X55511Y-37992D01*
X55492Y-38397D02*
X55492Y-38010D01*
X55493Y-38397D02*
X55493Y-38779D01*
X55492Y-38397D02*
X55493Y-38397D01*
X48406Y-38784D02*
X48406Y-38397D01*
X48406Y-38010D02*
X48425Y-37992D01*
X48406Y-38397D02*
X48406Y-38010D01*
X48406Y-38397D02*
X48406Y-38779D01*
X48406Y-38397D02*
X48406Y-38397D01*
X41319Y-38784D02*
X41319Y-38397D01*
X41319Y-38010D02*
X41338Y-37992D01*
X41319Y-38397D02*
X41319Y-38010D01*
X41319Y-38397D02*
X41319Y-38779D01*
X41319Y-38397D02*
X41319Y-38397D01*
X32677Y-48603D02*
X32677Y-48603D01*
X33102Y-48603D02*
X32677Y-48603D01*
X33264Y-48765D02*
X33102Y-48603D01*
X33661Y-48765D02*
X33264Y-48765D01*
X32677Y-48603D02*
X32677Y-48603D01*
X28149Y-45688D02*
X28149Y-45688D01*
X27059Y-45022D02*
X27059Y-44897D01*
X27724Y-45688D02*
X27059Y-45022D01*
X28149Y-45688D02*
X27724Y-45688D01*
X28149Y-45688D02*
X28149Y-45687D01*
X69666Y-38784D02*
X69666Y-38397D01*
X69666Y-38010D02*
X69685Y-37992D01*
X69666Y-38397D02*
X69666Y-38010D01*
X69666Y-38397D02*
X69666Y-38779D01*
X69666Y-38397D02*
X69666Y-38397D01*
X62579Y-38784D02*
X62579Y-38397D01*
X62579Y-38010D02*
X62598Y-37992D01*
X62579Y-38397D02*
X62579Y-38010D01*
X62579Y-38397D02*
X62579Y-38779D01*
X62579Y-38397D02*
X62579Y-38397D01*
X76752Y-38784D02*
X76752Y-38397D01*
X76752Y-38010D02*
X76771Y-37992D01*
X76752Y-38397D02*
X76752Y-38010D01*
X76752Y-38397D02*
X76752Y-38779D01*
X76752Y-38397D02*
X76752Y-38397D01*
X30216Y-43333D02*
X30216Y-43333D01*
X30760Y-43333D02*
X30216Y-43333D01*
X30765Y-43338D02*
X30760Y-43333D01*
X33438Y-43338D02*
X30765Y-43338D01*
X30216Y-43333D02*
X30216Y-43333D01*
X29330Y-43325D02*
X29330Y-43325D01*
X29664Y-43325D02*
X29330Y-43325D01*
X29672Y-43333D02*
X29664Y-43325D01*
X30216Y-43333D02*
X29672Y-43333D01*
X30216Y-43333D02*
X30216Y-43333D01*
X33438Y-43651D02*
X33438Y-43338D01*
X33982Y-43651D02*
X33438Y-43651D01*
X33982Y-43651D02*
X33982Y-43651D01*
X71771Y-43070D02*
X72677Y-43070D01*
X71226Y-42525D02*
X71771Y-43070D01*
X70691Y-42525D02*
X71226Y-42525D01*
X74977Y-41496D02*
X74977Y-41496D01*
X74977Y-41496D02*
X74330Y-41496D01*
X74977Y-41496D02*
X74977Y-41495D01*
X70691Y-41496D02*
X70691Y-41496D01*
X71614Y-41496D02*
X71732Y-41614D01*
X70691Y-41496D02*
X71614Y-41496D01*
X70691Y-41496D02*
X70691Y-41495D01*
X70691Y-42016D02*
X70691Y-42016D01*
X71102Y-39527D02*
X70236Y-39527D01*
X72559Y-40984D02*
X71102Y-39527D01*
X72559Y-42362D02*
X72559Y-40984D01*
X72322Y-42598D02*
X72559Y-42362D01*
X72086Y-42598D02*
X72322Y-42598D01*
X71692Y-42204D02*
X72086Y-42598D01*
X71535Y-42204D02*
X71692Y-42204D01*
X71346Y-42016D02*
X71535Y-42204D01*
X70691Y-42016D02*
X71346Y-42016D01*
X70691Y-42016D02*
X70691Y-42015D01*
X70691Y-42266D02*
X70691Y-42266D01*
X70944Y-39055D02*
X70236Y-39055D01*
X72795Y-40905D02*
X70944Y-39055D01*
X72795Y-42440D02*
X72795Y-40905D01*
X72401Y-42834D02*
X72795Y-42440D01*
X71850Y-42834D02*
X72401Y-42834D01*
X71281Y-42266D02*
X71850Y-42834D01*
X70691Y-42266D02*
X71281Y-42266D01*
X70691Y-42266D02*
X70691Y-42265D01*
X72559Y-43425D02*
X72992Y-43425D01*
X72440Y-43307D02*
X72559Y-43425D01*
X71692Y-43307D02*
X72440Y-43307D01*
X71161Y-42775D02*
X71692Y-43307D01*
X70691Y-42775D02*
X71161Y-42775D01*
X67014Y-42525D02*
X66811Y-42322D01*
X67891Y-42525D02*
X67014Y-42525D01*
X70691Y-43035D02*
X70691Y-43035D01*
X71535Y-46614D02*
X70944Y-47204D01*
X71535Y-43464D02*
X71535Y-46614D01*
X71106Y-43035D02*
X71535Y-43464D01*
X70691Y-43035D02*
X71106Y-43035D01*
X70691Y-43035D02*
X70691Y-43035D01*
X67891Y-42266D02*
X67891Y-42266D01*
X66653Y-41692D02*
X66653Y-39685D01*
X67226Y-42266D02*
X66653Y-41692D01*
X67891Y-42266D02*
X67226Y-42266D01*
X67891Y-42266D02*
X67891Y-42265D01*
X70691Y-43296D02*
X70691Y-43296D01*
X71141Y-45590D02*
X70905Y-45826D01*
X71141Y-43385D02*
X71141Y-45590D01*
X71051Y-43296D02*
X71141Y-43385D01*
X70691Y-43296D02*
X71051Y-43296D01*
X70691Y-43296D02*
X70691Y-43295D01*
X67891Y-42016D02*
X67891Y-42016D01*
X66968Y-39173D02*
X66692Y-39173D01*
X67204Y-39409D02*
X66968Y-39173D01*
X67204Y-40511D02*
X67204Y-39409D01*
X66889Y-40826D02*
X67204Y-40511D01*
X66889Y-41614D02*
X66889Y-40826D01*
X67291Y-42016D02*
X66889Y-41614D01*
X67891Y-42016D02*
X67291Y-42016D01*
X67891Y-42016D02*
X67891Y-42015D01*
X70691Y-43546D02*
X70691Y-43546D01*
X70196Y-43622D02*
X70196Y-50196D01*
X70272Y-43546D02*
X70196Y-43622D01*
X70691Y-43546D02*
X70272Y-43546D01*
X70691Y-43546D02*
X70691Y-43545D01*
X70551Y-43976D02*
X70551Y-49370D01*
X70691Y-43836D02*
X70551Y-43976D01*
X70691Y-43805D02*
X70691Y-43836D01*
X70691Y-43805D02*
X70691Y-43805D01*
X67696Y-44000D02*
X67745Y-43951D01*
X67696Y-49192D02*
X67696Y-44000D01*
X66653Y-50236D02*
X67696Y-49192D01*
X67745Y-43951D02*
X67794Y-43903D01*
X67745Y-43951D02*
X67818Y-43878D01*
X67818Y-43878D02*
X67891Y-43805D01*
X67891Y-43806D02*
X67891Y-43805D01*
X67818Y-43878D02*
X67891Y-43806D01*
X67891Y-43546D02*
X67891Y-43546D01*
X67204Y-49212D02*
X66653Y-49763D01*
X67204Y-43779D02*
X67204Y-49212D01*
X67438Y-43546D02*
X67204Y-43779D01*
X67891Y-43546D02*
X67438Y-43546D01*
X67891Y-43546D02*
X67891Y-43545D01*
X63464Y-43976D02*
X63464Y-49370D01*
X63604Y-43836D02*
X63464Y-43976D01*
X63604Y-43805D02*
X63604Y-43836D01*
X63604Y-43805D02*
X63604Y-43805D01*
X67891Y-41496D02*
X67891Y-41496D01*
X67891Y-41496D02*
X67244Y-41496D01*
X67891Y-41496D02*
X67891Y-41495D01*
X63604Y-41496D02*
X63604Y-41496D01*
X64527Y-41496D02*
X64645Y-41614D01*
X63604Y-41496D02*
X64527Y-41496D01*
X63604Y-41496D02*
X63604Y-41495D01*
X63604Y-42016D02*
X63604Y-42016D01*
X64015Y-39527D02*
X63149Y-39527D01*
X65472Y-40984D02*
X64015Y-39527D01*
X65472Y-42362D02*
X65472Y-40984D01*
X65236Y-42598D02*
X65472Y-42362D01*
X65000Y-42598D02*
X65236Y-42598D01*
X64606Y-42204D02*
X65000Y-42598D01*
X64448Y-42204D02*
X64606Y-42204D01*
X64260Y-42016D02*
X64448Y-42204D01*
X63604Y-42016D02*
X64260Y-42016D01*
X63604Y-42016D02*
X63604Y-42015D01*
X63604Y-42266D02*
X63604Y-42266D01*
X63858Y-39055D02*
X63149Y-39055D01*
X65708Y-40905D02*
X63858Y-39055D01*
X65708Y-42440D02*
X65708Y-40905D01*
X65314Y-42834D02*
X65708Y-42440D01*
X64763Y-42834D02*
X65314Y-42834D01*
X64195Y-42266D02*
X64763Y-42834D01*
X63604Y-42266D02*
X64195Y-42266D01*
X63604Y-42266D02*
X63604Y-42265D01*
X64685Y-43070D02*
X65590Y-43070D01*
X64140Y-42525D02*
X64685Y-43070D01*
X63604Y-42525D02*
X64140Y-42525D01*
X65472Y-43425D02*
X65905Y-43425D01*
X65354Y-43307D02*
X65472Y-43425D01*
X64606Y-43307D02*
X65354Y-43307D01*
X64075Y-42775D02*
X64606Y-43307D01*
X63604Y-42775D02*
X64075Y-42775D01*
X59927Y-42525D02*
X59724Y-42322D01*
X60804Y-42525D02*
X59927Y-42525D01*
X63604Y-43035D02*
X63604Y-43035D01*
X64448Y-46614D02*
X63858Y-47204D01*
X64448Y-43464D02*
X64448Y-46614D01*
X64020Y-43035D02*
X64448Y-43464D01*
X63604Y-43035D02*
X64020Y-43035D01*
X63604Y-43035D02*
X63604Y-43035D01*
X60804Y-42266D02*
X60804Y-42266D01*
X59566Y-41692D02*
X59566Y-39685D01*
X60140Y-42266D02*
X59566Y-41692D01*
X60804Y-42266D02*
X60140Y-42266D01*
X60804Y-42266D02*
X60804Y-42265D01*
X63604Y-43296D02*
X63604Y-43296D01*
X64055Y-45590D02*
X63818Y-45826D01*
X64055Y-43385D02*
X64055Y-45590D01*
X63965Y-43296D02*
X64055Y-43385D01*
X63604Y-43296D02*
X63965Y-43296D01*
X63604Y-43296D02*
X63604Y-43295D01*
X60804Y-42016D02*
X60804Y-42016D01*
X59881Y-39173D02*
X59606Y-39173D01*
X60118Y-39409D02*
X59881Y-39173D01*
X60118Y-40511D02*
X60118Y-39409D01*
X59803Y-40826D02*
X60118Y-40511D01*
X59803Y-41614D02*
X59803Y-40826D01*
X60205Y-42016D02*
X59803Y-41614D01*
X60804Y-42016D02*
X60205Y-42016D01*
X60804Y-42016D02*
X60804Y-42015D01*
X63604Y-43546D02*
X63604Y-43546D01*
X63110Y-43622D02*
X63110Y-50196D01*
X63186Y-43546D02*
X63110Y-43622D01*
X63604Y-43546D02*
X63186Y-43546D01*
X63604Y-43546D02*
X63604Y-43545D01*
X60610Y-44000D02*
X60659Y-43951D01*
X60610Y-49192D02*
X60610Y-44000D01*
X59566Y-50236D02*
X60610Y-49192D01*
X60659Y-43951D02*
X60707Y-43903D01*
X60659Y-43951D02*
X60731Y-43878D01*
X60731Y-43878D02*
X60804Y-43805D01*
X60804Y-43806D02*
X60804Y-43805D01*
X60731Y-43878D02*
X60804Y-43806D01*
X60804Y-43546D02*
X60804Y-43546D01*
X60118Y-49212D02*
X59566Y-49763D01*
X60118Y-43779D02*
X60118Y-49212D01*
X60351Y-43546D02*
X60118Y-43779D01*
X60804Y-43546D02*
X60351Y-43546D01*
X60804Y-43546D02*
X60804Y-43545D01*
X60804Y-43305D02*
X60804Y-43305D01*
X59724Y-46456D02*
X59566Y-46614D01*
X59724Y-43543D02*
X59724Y-46456D01*
X59960Y-43307D02*
X59724Y-43543D01*
X59960Y-43305D02*
X59960Y-43307D01*
X60804Y-43305D02*
X59960Y-43305D01*
X60804Y-43305D02*
X60804Y-43305D01*
X60354Y-40255D02*
X61829Y-38779D01*
X60354Y-40669D02*
X60354Y-40255D01*
X60411Y-40725D02*
X60354Y-40669D01*
X60804Y-40725D02*
X60411Y-40725D01*
X60804Y-43035D02*
X60804Y-43035D01*
X59409Y-45944D02*
X59370Y-45984D01*
X59409Y-43552D02*
X59409Y-45944D01*
X59925Y-43035D02*
X59409Y-43552D01*
X60804Y-43035D02*
X59925Y-43035D01*
X60804Y-43035D02*
X60804Y-43035D01*
X59547Y-42775D02*
X59527Y-42755D01*
X60334Y-42775D02*
X59547Y-42775D01*
X60354Y-42775D02*
X60334Y-42775D01*
X60804Y-42775D02*
X60354Y-42775D01*
X60804Y-42775D02*
X60354Y-42775D01*
X60354Y-42775D02*
X60334Y-42775D01*
X77637Y-43976D02*
X77637Y-49370D01*
X77777Y-43836D02*
X77637Y-43976D01*
X77777Y-43805D02*
X77777Y-43836D01*
X77777Y-43805D02*
X77777Y-43805D01*
X77777Y-42016D02*
X77778Y-42016D01*
X78188Y-39527D02*
X77322Y-39527D01*
X79645Y-40984D02*
X78188Y-39527D01*
X79645Y-42362D02*
X79645Y-40984D01*
X79409Y-42598D02*
X79645Y-42362D01*
X79173Y-42598D02*
X79409Y-42598D01*
X78779Y-42204D02*
X79173Y-42598D01*
X78622Y-42204D02*
X78779Y-42204D01*
X78433Y-42016D02*
X78622Y-42204D01*
X77778Y-42016D02*
X78433Y-42016D01*
X77778Y-42016D02*
X77777Y-42015D01*
X77777Y-42266D02*
X77778Y-42266D01*
X78031Y-39055D02*
X77322Y-39055D01*
X79881Y-40905D02*
X78031Y-39055D01*
X79881Y-42440D02*
X79881Y-40905D01*
X79488Y-42834D02*
X79881Y-42440D01*
X78937Y-42834D02*
X79488Y-42834D01*
X78368Y-42266D02*
X78937Y-42834D01*
X77778Y-42266D02*
X78368Y-42266D01*
X77778Y-42266D02*
X77777Y-42265D01*
X78858Y-43070D02*
X79763Y-43070D01*
X78313Y-42525D02*
X78858Y-43070D01*
X77777Y-42525D02*
X78313Y-42525D01*
X79645Y-43425D02*
X80078Y-43425D01*
X79527Y-43307D02*
X79645Y-43425D01*
X78779Y-43307D02*
X79527Y-43307D01*
X78248Y-42775D02*
X78779Y-43307D01*
X77777Y-42775D02*
X78248Y-42775D01*
X74100Y-42525D02*
X73897Y-42322D01*
X74977Y-42525D02*
X74100Y-42525D01*
X77777Y-43035D02*
X77778Y-43035D01*
X78622Y-46614D02*
X78031Y-47204D01*
X78622Y-43464D02*
X78622Y-46614D01*
X78193Y-43035D02*
X78622Y-43464D01*
X77778Y-43035D02*
X78193Y-43035D01*
X77778Y-43035D02*
X77777Y-43035D01*
X74977Y-42266D02*
X74977Y-42266D01*
X73740Y-41692D02*
X73740Y-39685D01*
X74313Y-42266D02*
X73740Y-41692D01*
X74977Y-42266D02*
X74313Y-42266D01*
X74977Y-42266D02*
X74977Y-42265D01*
X77777Y-43296D02*
X77778Y-43296D01*
X78228Y-45590D02*
X77992Y-45826D01*
X78228Y-43385D02*
X78228Y-45590D01*
X78138Y-43296D02*
X78228Y-43385D01*
X77778Y-43296D02*
X78138Y-43296D01*
X77778Y-43296D02*
X77777Y-43295D01*
X74977Y-42016D02*
X74977Y-42016D01*
X74055Y-39173D02*
X73779Y-39173D01*
X74291Y-39409D02*
X74055Y-39173D01*
X74291Y-40511D02*
X74291Y-39409D01*
X73976Y-40826D02*
X74291Y-40511D01*
X73976Y-41614D02*
X73976Y-40826D01*
X74378Y-42016D02*
X73976Y-41614D01*
X74977Y-42016D02*
X74378Y-42016D01*
X74977Y-42016D02*
X74977Y-42015D01*
X77777Y-43546D02*
X77777Y-43546D01*
X77283Y-43622D02*
X77283Y-50196D01*
X77359Y-43546D02*
X77283Y-43622D01*
X77777Y-43546D02*
X77359Y-43546D01*
X77777Y-43546D02*
X77777Y-43545D01*
X74783Y-44000D02*
X74832Y-43951D01*
X74783Y-49192D02*
X74783Y-44000D01*
X73740Y-50236D02*
X74783Y-49192D01*
X74832Y-43951D02*
X74880Y-43903D01*
X74832Y-43951D02*
X74905Y-43878D01*
X74905Y-43878D02*
X74977Y-43805D01*
X74977Y-43806D02*
X74977Y-43805D01*
X74905Y-43878D02*
X74977Y-43806D01*
X74977Y-43546D02*
X74977Y-43546D01*
X74291Y-49212D02*
X73740Y-49763D01*
X74291Y-43779D02*
X74291Y-49212D01*
X74524Y-43546D02*
X74291Y-43779D01*
X74977Y-43546D02*
X74524Y-43546D01*
X74977Y-43546D02*
X74977Y-43545D01*
X74977Y-43305D02*
X74977Y-43305D01*
X73897Y-46456D02*
X73740Y-46614D01*
X73897Y-43543D02*
X73897Y-46456D01*
X74133Y-43307D02*
X73897Y-43543D01*
X74133Y-43305D02*
X74133Y-43307D01*
X74977Y-43305D02*
X74133Y-43305D01*
X74977Y-43305D02*
X74977Y-43305D01*
X74977Y-43035D02*
X74977Y-43035D01*
X73543Y-43385D02*
X73543Y-45984D01*
X73893Y-43035D02*
X73543Y-43385D01*
X74977Y-43035D02*
X73893Y-43035D01*
X74977Y-43035D02*
X74977Y-43035D01*
X73720Y-42775D02*
X73700Y-42755D01*
X74507Y-42775D02*
X73720Y-42775D01*
X74527Y-42775D02*
X74507Y-42775D01*
X74977Y-42775D02*
X74527Y-42775D01*
X74977Y-42775D02*
X74527Y-42775D01*
X74527Y-42775D02*
X74507Y-42775D01*
X67891Y-43305D02*
X67891Y-43305D01*
X66811Y-46456D02*
X66653Y-46614D01*
X66811Y-43543D02*
X66811Y-46456D01*
X67047Y-43307D02*
X66811Y-43543D01*
X67047Y-43305D02*
X67047Y-43307D01*
X67891Y-43305D02*
X67047Y-43305D01*
X67891Y-43305D02*
X67891Y-43305D01*
X67891Y-43035D02*
X67891Y-43035D01*
X66456Y-43385D02*
X66456Y-45984D01*
X66806Y-43035D02*
X66456Y-43385D01*
X67891Y-43035D02*
X66806Y-43035D01*
X67891Y-43035D02*
X67891Y-43035D01*
X66634Y-42775D02*
X66614Y-42755D01*
X67420Y-42775D02*
X66634Y-42775D01*
X67440Y-42775D02*
X67420Y-42775D01*
X67891Y-42775D02*
X67440Y-42775D01*
X67891Y-42775D02*
X67440Y-42775D01*
X67440Y-42775D02*
X67420Y-42775D01*
X67440Y-40255D02*
X68916Y-38779D01*
X67440Y-40590D02*
X67440Y-40255D01*
X67576Y-40725D02*
X67440Y-40590D01*
X67891Y-40725D02*
X67576Y-40725D01*
X74527Y-40255D02*
X76003Y-38779D01*
X74527Y-40669D02*
X74527Y-40255D01*
X74584Y-40725D02*
X74527Y-40669D01*
X74977Y-40725D02*
X74584Y-40725D01*
X68285Y-53914D02*
X67244Y-52874D01*
X68285Y-59737D02*
X68285Y-53914D01*
X68285Y-59737D02*
X68285Y-59737D01*
X68285Y-59997D02*
X68284Y-59997D01*
X67834Y-54842D02*
X66732Y-53740D01*
X67834Y-59842D02*
X67834Y-54842D01*
X67989Y-59997D02*
X67834Y-59842D01*
X68284Y-59997D02*
X67989Y-59997D01*
X68284Y-59997D02*
X68285Y-59997D01*
X68285Y-60247D02*
X68284Y-60247D01*
X67283Y-59606D02*
X67283Y-56496D01*
X67924Y-60247D02*
X67283Y-59606D01*
X68284Y-60247D02*
X67924Y-60247D01*
X68284Y-60247D02*
X68285Y-60247D01*
X68285Y-60507D02*
X68284Y-60507D01*
X66968Y-57519D02*
X66732Y-57283D01*
X66968Y-59606D02*
X66968Y-57519D01*
X67869Y-60507D02*
X66968Y-59606D01*
X68284Y-60507D02*
X67869Y-60507D01*
X68284Y-60507D02*
X68285Y-60507D01*
X33982Y-44596D02*
X33982Y-44596D01*
X34061Y-46653D02*
X35039Y-46653D01*
X33982Y-46574D02*
X34061Y-46653D01*
X33982Y-44596D02*
X33982Y-46574D01*
X66535Y-60039D02*
X66338Y-59842D01*
X67086Y-60039D02*
X66535Y-60039D01*
X67814Y-60767D02*
X67086Y-60039D01*
X68285Y-60767D02*
X67814Y-60767D01*
X67007Y-60275D02*
X66141Y-60275D01*
X67749Y-61017D02*
X67007Y-60275D01*
X68285Y-61017D02*
X67749Y-61017D01*
X68285Y-61277D02*
X68284Y-61277D01*
X67007Y-62244D02*
X67007Y-63543D01*
X66181Y-61417D02*
X67007Y-62244D01*
X66181Y-60748D02*
X66181Y-61417D01*
X66417Y-60511D02*
X66181Y-60748D01*
X66929Y-60511D02*
X66417Y-60511D01*
X67694Y-61277D02*
X66929Y-60511D01*
X68284Y-61277D02*
X67694Y-61277D01*
X68284Y-61277D02*
X68285Y-61277D01*
X68285Y-61527D02*
X68284Y-61527D01*
X66968Y-60866D02*
X66535Y-60866D01*
X67629Y-61527D02*
X66968Y-60866D01*
X68284Y-61527D02*
X67629Y-61527D01*
X68284Y-61527D02*
X68285Y-61527D01*
X62973Y-64763D02*
X62973Y-64763D01*
X63385Y-64351D02*
X62973Y-64763D01*
X63385Y-64251D02*
X63385Y-64351D01*
X64488Y-63149D02*
X63385Y-64251D01*
X64488Y-62952D02*
X64488Y-63149D01*
X64352Y-62817D02*
X64488Y-62952D01*
X63998Y-62817D02*
X64352Y-62817D01*
X62973Y-64763D02*
X62973Y-64763D01*
X71085Y-54549D02*
X70275Y-53740D01*
X71085Y-59737D02*
X71085Y-54549D01*
X71085Y-59737D02*
X71085Y-59737D01*
X71085Y-59997D02*
X71084Y-59997D01*
X69921Y-53582D02*
X70236Y-53267D01*
X69921Y-53976D02*
X69921Y-53582D01*
X70590Y-54645D02*
X69921Y-53976D01*
X70590Y-59803D02*
X70590Y-54645D01*
X70784Y-59997D02*
X70590Y-59803D01*
X71084Y-59997D02*
X70784Y-59997D01*
X71084Y-59997D02*
X71085Y-59997D01*
X71085Y-60237D02*
X71085Y-60237D01*
X71535Y-57795D02*
X71417Y-57677D01*
X71535Y-60118D02*
X71535Y-57795D01*
X71416Y-60237D02*
X71535Y-60118D01*
X71085Y-60237D02*
X71416Y-60237D01*
X71085Y-60237D02*
X71085Y-60237D01*
X71085Y-60507D02*
X71085Y-60507D01*
X71889Y-60118D02*
X71889Y-58110D01*
X71500Y-60507D02*
X71889Y-60118D01*
X71085Y-60507D02*
X71500Y-60507D01*
X71085Y-60507D02*
X71085Y-60507D01*
X71535Y-60767D02*
X71555Y-60767D01*
X71085Y-60767D02*
X71535Y-60767D01*
X71535Y-60767D02*
X71555Y-60767D01*
X72244Y-60196D02*
X72244Y-59724D01*
X71673Y-60767D02*
X72244Y-60196D01*
X71555Y-60767D02*
X71673Y-60767D01*
X72250Y-61017D02*
X71085Y-61017D01*
X72362Y-60905D02*
X72250Y-61017D01*
X71085Y-61277D02*
X71085Y-61277D01*
X71417Y-64763D02*
X71141Y-64763D01*
X72755Y-63425D02*
X71417Y-64763D01*
X72755Y-61496D02*
X72755Y-63425D01*
X72537Y-61277D02*
X72755Y-61496D01*
X71085Y-61277D02*
X72537Y-61277D01*
X71085Y-61277D02*
X71085Y-61277D01*
X71085Y-61527D02*
X71085Y-61527D01*
X72401Y-63464D02*
X71771Y-63464D01*
X72519Y-63346D02*
X72401Y-63464D01*
X72519Y-61614D02*
X72519Y-63346D01*
X72432Y-61527D02*
X72519Y-61614D01*
X71085Y-61527D02*
X72432Y-61527D01*
X71085Y-61527D02*
X71085Y-61527D01*
X75371Y-60507D02*
X75371Y-60507D01*
X74055Y-57519D02*
X73818Y-57283D01*
X74055Y-59606D02*
X74055Y-57519D01*
X74956Y-60507D02*
X74055Y-59606D01*
X75371Y-60507D02*
X74956Y-60507D01*
X75371Y-60507D02*
X75371Y-60507D01*
X75371Y-53914D02*
X74330Y-52874D01*
X75371Y-59737D02*
X75371Y-53914D01*
X75371Y-59737D02*
X75371Y-59737D01*
X75371Y-59997D02*
X75371Y-59997D01*
X74921Y-54842D02*
X73818Y-53740D01*
X74921Y-59842D02*
X74921Y-54842D01*
X75075Y-59997D02*
X74921Y-59842D01*
X75371Y-59997D02*
X75075Y-59997D01*
X75371Y-59997D02*
X75371Y-59997D01*
X75371Y-60247D02*
X75371Y-60247D01*
X74370Y-59606D02*
X74370Y-56496D01*
X75011Y-60247D02*
X74370Y-59606D01*
X75371Y-60247D02*
X75011Y-60247D01*
X75371Y-60247D02*
X75371Y-60247D01*
X73622Y-60039D02*
X73425Y-59842D01*
X74173Y-60039D02*
X73622Y-60039D01*
X74901Y-60767D02*
X74173Y-60039D01*
X75371Y-60767D02*
X74901Y-60767D01*
X74094Y-60275D02*
X73228Y-60275D01*
X74836Y-61017D02*
X74094Y-60275D01*
X75371Y-61017D02*
X74836Y-61017D01*
X75371Y-61277D02*
X75371Y-61277D01*
X74094Y-62244D02*
X74094Y-63543D01*
X73267Y-61417D02*
X74094Y-62244D01*
X73267Y-60748D02*
X73267Y-61417D01*
X73503Y-60511D02*
X73267Y-60748D01*
X74015Y-60511D02*
X73503Y-60511D01*
X74781Y-61277D02*
X74015Y-60511D01*
X75371Y-61277D02*
X74781Y-61277D01*
X75371Y-61277D02*
X75371Y-61277D01*
X75371Y-61527D02*
X75371Y-61527D01*
X74055Y-60866D02*
X73622Y-60866D01*
X74716Y-61527D02*
X74055Y-60866D01*
X75371Y-61527D02*
X74716Y-61527D01*
X75371Y-61527D02*
X75371Y-61527D01*
X77146Y-64763D02*
X77146Y-64763D01*
X77598Y-64311D02*
X77146Y-64763D01*
X77598Y-64212D02*
X77598Y-64311D01*
X78661Y-63149D02*
X77598Y-64212D01*
X78661Y-62952D02*
X78661Y-63149D01*
X78525Y-62817D02*
X78661Y-62952D01*
X78171Y-62817D02*
X78525Y-62817D01*
X77146Y-64763D02*
X77146Y-64763D01*
X66006Y-61525D02*
X66006Y-62047D01*
X65712Y-61232D02*
X66006Y-61525D01*
X65712Y-54409D02*
X65712Y-61232D01*
X66161Y-53961D02*
X65712Y-54409D01*
X69094Y-53773D02*
X68921Y-53600D01*
X69094Y-54606D02*
X69094Y-53773D01*
X69233Y-54744D02*
X69094Y-54606D01*
X69233Y-54842D02*
X69233Y-54744D01*
X69233Y-54854D02*
X69233Y-54842D01*
X69233Y-54842D02*
X69233Y-54854D01*
X69233Y-57906D02*
X69315Y-57988D01*
X69233Y-54854D02*
X69233Y-57906D01*
X63998Y-62047D02*
X63998Y-62047D01*
X63998Y-62047D02*
X64645Y-62047D01*
X63998Y-62047D02*
X63998Y-62047D01*
X68285Y-62047D02*
X68284Y-62047D01*
X67362Y-62047D02*
X67244Y-61929D01*
X68284Y-62047D02*
X67362Y-62047D01*
X68284Y-62047D02*
X68285Y-62047D01*
X62152Y-55325D02*
X62140Y-55314D01*
X62152Y-58577D02*
X62152Y-55325D01*
X55519Y-55878D02*
X55519Y-59230D01*
X56083Y-55314D02*
X55519Y-55878D01*
X61198Y-62047D02*
X61198Y-62047D01*
X60275Y-62047D02*
X60157Y-61929D01*
X61198Y-62047D02*
X60275Y-62047D01*
X61198Y-62047D02*
X61198Y-62047D01*
X56911Y-62047D02*
X56911Y-62047D01*
X56911Y-62047D02*
X57559Y-62047D01*
X56911Y-62047D02*
X56911Y-62047D01*
X75371Y-62047D02*
X75371Y-62047D01*
X74448Y-62047D02*
X74330Y-61929D01*
X75371Y-62047D02*
X74448Y-62047D01*
X75371Y-62047D02*
X75371Y-62047D01*
X71085Y-62047D02*
X71085Y-62047D01*
X71085Y-62047D02*
X71732Y-62047D01*
X71085Y-62047D02*
X71085Y-62047D01*
X70060Y-64763D02*
X70059Y-64763D01*
X70472Y-64351D02*
X70060Y-64763D01*
X70472Y-64251D02*
X70472Y-64351D01*
X71614Y-63110D02*
X70472Y-64251D01*
X71614Y-62992D02*
X71614Y-63110D01*
X71439Y-62817D02*
X71614Y-62992D01*
X71085Y-62817D02*
X71439Y-62817D01*
X70060Y-64763D02*
X70060Y-64763D01*
X61198Y-53914D02*
X60157Y-52874D01*
X61198Y-59737D02*
X61198Y-53914D01*
X61198Y-59737D02*
X61198Y-59737D01*
X61198Y-59997D02*
X61198Y-59997D01*
X60748Y-54842D02*
X59645Y-53740D01*
X60748Y-59842D02*
X60748Y-54842D01*
X60902Y-59997D02*
X60748Y-59842D01*
X61198Y-59997D02*
X60902Y-59997D01*
X61198Y-59997D02*
X61198Y-59997D01*
X61198Y-61277D02*
X61198Y-61277D01*
X59921Y-62244D02*
X59921Y-63543D01*
X59094Y-61417D02*
X59921Y-62244D01*
X59094Y-60748D02*
X59094Y-61417D01*
X59330Y-60511D02*
X59094Y-60748D01*
X59842Y-60511D02*
X59330Y-60511D01*
X60607Y-61277D02*
X59842Y-60511D01*
X61198Y-61277D02*
X60607Y-61277D01*
X61198Y-61277D02*
X61198Y-61277D01*
X61198Y-61527D02*
X61198Y-61527D01*
X59881Y-60866D02*
X59448Y-60866D01*
X60542Y-61527D02*
X59881Y-60866D01*
X61198Y-61527D02*
X60542Y-61527D01*
X61198Y-61527D02*
X61198Y-61527D01*
X59448Y-60039D02*
X59251Y-59842D01*
X60000Y-60039D02*
X59448Y-60039D01*
X60727Y-60767D02*
X60000Y-60039D01*
X61198Y-60767D02*
X60727Y-60767D01*
X59921Y-60275D02*
X59055Y-60275D01*
X60662Y-61017D02*
X59921Y-60275D01*
X61198Y-61017D02*
X60662Y-61017D01*
X61198Y-60247D02*
X61198Y-60247D01*
X60196Y-59606D02*
X60196Y-56496D01*
X60837Y-60247D02*
X60196Y-59606D01*
X61198Y-60247D02*
X60837Y-60247D01*
X61198Y-60247D02*
X61198Y-60247D01*
X61198Y-60507D02*
X61198Y-60507D01*
X59881Y-57519D02*
X59645Y-57283D01*
X59881Y-59606D02*
X59881Y-57519D01*
X60783Y-60507D02*
X59881Y-59606D01*
X61198Y-60507D02*
X60783Y-60507D01*
X61198Y-60507D02*
X61198Y-60507D01*
X78171Y-61527D02*
X78171Y-61527D01*
X79488Y-63464D02*
X78858Y-63464D01*
X79606Y-63346D02*
X79488Y-63464D01*
X79606Y-61614D02*
X79606Y-63346D01*
X79519Y-61527D02*
X79606Y-61614D01*
X78171Y-61527D02*
X79519Y-61527D01*
X78171Y-61527D02*
X78171Y-61527D01*
X78171Y-61277D02*
X78171Y-61277D01*
X78503Y-64763D02*
X78228Y-64763D01*
X79842Y-63425D02*
X78503Y-64763D01*
X79842Y-61496D02*
X79842Y-63425D01*
X79623Y-61277D02*
X79842Y-61496D01*
X78171Y-61277D02*
X79623Y-61277D01*
X78171Y-61277D02*
X78171Y-61277D01*
X79337Y-61017D02*
X78171Y-61017D01*
X79448Y-60905D02*
X79337Y-61017D01*
X34526Y-44281D02*
X33982Y-44281D01*
X35039Y-44795D02*
X34526Y-44281D01*
X35039Y-45472D02*
X35039Y-44795D01*
X33982Y-44281D02*
X33982Y-44281D01*
X78622Y-60767D02*
X78642Y-60767D01*
X78171Y-60767D02*
X78622Y-60767D01*
X78622Y-60767D02*
X78642Y-60767D01*
X79330Y-60196D02*
X79330Y-59724D01*
X78760Y-60767D02*
X79330Y-60196D01*
X78642Y-60767D02*
X78760Y-60767D01*
X78171Y-60507D02*
X78171Y-60507D01*
X78976Y-60118D02*
X78976Y-58110D01*
X78587Y-60507D02*
X78976Y-60118D01*
X78171Y-60507D02*
X78587Y-60507D01*
X78171Y-60507D02*
X78171Y-60507D01*
X78171Y-60237D02*
X78171Y-60237D01*
X78622Y-57795D02*
X78503Y-57677D01*
X78622Y-60118D02*
X78622Y-57795D01*
X78502Y-60237D02*
X78622Y-60118D01*
X78171Y-60237D02*
X78502Y-60237D01*
X78171Y-60237D02*
X78171Y-60237D01*
X78171Y-59997D02*
X78171Y-59997D01*
X77007Y-53582D02*
X77322Y-53267D01*
X77007Y-53976D02*
X77007Y-53582D01*
X77677Y-54645D02*
X77007Y-53976D01*
X77677Y-59803D02*
X77677Y-54645D01*
X77871Y-59997D02*
X77677Y-59803D01*
X78171Y-59997D02*
X77871Y-59997D01*
X78171Y-59997D02*
X78171Y-59997D01*
X78171Y-54549D02*
X77362Y-53740D01*
X78171Y-59737D02*
X78171Y-54549D01*
X78171Y-59737D02*
X78171Y-59737D01*
X64448Y-60767D02*
X64468Y-60767D01*
X63998Y-60767D02*
X64448Y-60767D01*
X64448Y-60767D02*
X64468Y-60767D01*
X65157Y-60196D02*
X65157Y-59724D01*
X64587Y-60767D02*
X65157Y-60196D01*
X64468Y-60767D02*
X64587Y-60767D01*
X63998Y-61527D02*
X63998Y-61527D01*
X65314Y-63464D02*
X64685Y-63464D01*
X65433Y-63346D02*
X65314Y-63464D01*
X65433Y-61614D02*
X65433Y-63346D01*
X65346Y-61527D02*
X65433Y-61614D01*
X63998Y-61527D02*
X65346Y-61527D01*
X63998Y-61527D02*
X63998Y-61527D01*
X63998Y-61277D02*
X63998Y-61277D01*
X64330Y-64763D02*
X64055Y-64763D01*
X65669Y-63425D02*
X64330Y-64763D01*
X65669Y-61496D02*
X65669Y-63425D01*
X65450Y-61277D02*
X65669Y-61496D01*
X63998Y-61277D02*
X65450Y-61277D01*
X63998Y-61277D02*
X63998Y-61277D01*
X65163Y-61017D02*
X63998Y-61017D01*
X65275Y-60905D02*
X65163Y-61017D01*
X63998Y-60507D02*
X63998Y-60507D01*
X64803Y-60118D02*
X64803Y-58110D01*
X64413Y-60507D02*
X64803Y-60118D01*
X63998Y-60507D02*
X64413Y-60507D01*
X63998Y-60507D02*
X63998Y-60507D01*
X32480Y-39585D02*
X32480Y-39585D01*
X32480Y-39585D02*
X32480Y-38957D01*
X63998Y-60237D02*
X63998Y-60237D01*
X64448Y-57795D02*
X64330Y-57677D01*
X64448Y-60118D02*
X64448Y-57795D01*
X64329Y-60237D02*
X64448Y-60118D01*
X63998Y-60237D02*
X64329Y-60237D01*
X63998Y-60237D02*
X63998Y-60237D01*
X63998Y-59997D02*
X63998Y-59997D01*
X62834Y-53582D02*
X63149Y-53267D01*
X62834Y-53976D02*
X62834Y-53582D01*
X63503Y-54645D02*
X62834Y-53976D01*
X63503Y-59803D02*
X63503Y-54645D01*
X63698Y-59997D02*
X63503Y-59803D01*
X63998Y-59997D02*
X63698Y-59997D01*
X63998Y-59997D02*
X63998Y-59997D01*
X63998Y-54549D02*
X63188Y-53740D01*
X63998Y-59737D02*
X63998Y-54549D01*
X63998Y-59737D02*
X63998Y-59737D01*
X45275Y-60039D02*
X45078Y-59842D01*
X45826Y-60039D02*
X45275Y-60039D01*
X46554Y-60767D02*
X45826Y-60039D01*
X47025Y-60767D02*
X46554Y-60767D01*
X42738Y-62047D02*
X42738Y-62047D01*
X43818Y-62283D02*
X43818Y-62755D01*
X43582Y-62047D02*
X43818Y-62283D01*
X42738Y-62047D02*
X43582Y-62047D01*
X42738Y-62047D02*
X42738Y-62047D01*
X46102Y-62047D02*
X47025Y-62047D01*
X45984Y-61929D02*
X46102Y-62047D01*
X47025Y-62047D02*
X47025Y-62047D01*
X47025Y-62047D02*
X47025Y-62047D01*
X45393Y-63425D02*
X45393Y-63897D01*
X45511Y-63307D02*
X45393Y-63425D01*
X45511Y-62480D02*
X45511Y-63307D01*
X45196Y-62165D02*
X45511Y-62480D01*
X45118Y-62165D02*
X45196Y-62165D01*
X47025Y-61527D02*
X47025Y-61527D01*
X45708Y-60866D02*
X45275Y-60866D01*
X46369Y-61527D02*
X45708Y-60866D01*
X47025Y-61527D02*
X46369Y-61527D01*
X47025Y-61527D02*
X47025Y-61527D01*
X47025Y-61277D02*
X47025Y-61277D01*
X45748Y-62244D02*
X45748Y-63543D01*
X44921Y-61417D02*
X45748Y-62244D01*
X44921Y-60748D02*
X44921Y-61417D01*
X45157Y-60511D02*
X44921Y-60748D01*
X45669Y-60511D02*
X45157Y-60511D01*
X46434Y-61277D02*
X45669Y-60511D01*
X47025Y-61277D02*
X46434Y-61277D01*
X47025Y-61277D02*
X47025Y-61277D01*
X45748Y-60275D02*
X44881Y-60275D01*
X46489Y-61017D02*
X45748Y-60275D01*
X47025Y-61017D02*
X46489Y-61017D01*
X50990Y-61017D02*
X49825Y-61017D01*
X51102Y-60905D02*
X50990Y-61017D01*
X47025Y-60507D02*
X47025Y-60507D01*
X45708Y-57519D02*
X45472Y-57283D01*
X45708Y-59606D02*
X45708Y-57519D01*
X46609Y-60507D02*
X45708Y-59606D01*
X47025Y-60507D02*
X46609Y-60507D01*
X47025Y-60507D02*
X47025Y-60507D01*
X33858Y-39585D02*
X33858Y-39585D01*
X33858Y-39585D02*
X33858Y-38957D01*
X49825Y-61277D02*
X49825Y-61277D01*
X50157Y-64763D02*
X49842Y-64763D01*
X51459Y-63461D02*
X50157Y-64763D01*
X51459Y-61499D02*
X51459Y-63461D01*
X51237Y-61277D02*
X51459Y-61499D01*
X49825Y-61277D02*
X51237Y-61277D01*
X49825Y-61277D02*
X49825Y-61277D01*
X47025Y-60247D02*
X47025Y-60247D01*
X46023Y-59606D02*
X46023Y-56496D01*
X46664Y-60247D02*
X46023Y-59606D01*
X47025Y-60247D02*
X46664Y-60247D01*
X47025Y-60247D02*
X47025Y-60247D01*
X49825Y-61527D02*
X49825Y-61527D01*
X51141Y-63464D02*
X50511Y-63464D01*
X51259Y-63346D02*
X51141Y-63464D01*
X51259Y-61614D02*
X51259Y-63346D01*
X51172Y-61527D02*
X51259Y-61614D01*
X49825Y-61527D02*
X51172Y-61527D01*
X49825Y-61527D02*
X49825Y-61527D01*
X47025Y-59997D02*
X47025Y-59997D01*
X46574Y-54842D02*
X45472Y-53740D01*
X46574Y-59842D02*
X46574Y-54842D01*
X46729Y-59997D02*
X46574Y-59842D01*
X47025Y-59997D02*
X46729Y-59997D01*
X47025Y-59997D02*
X47025Y-59997D01*
X47025Y-53914D02*
X45984Y-52874D01*
X47025Y-59737D02*
X47025Y-53914D01*
X47025Y-59737D02*
X47025Y-59737D01*
X49825Y-54549D02*
X49015Y-53740D01*
X49825Y-59737D02*
X49825Y-54549D01*
X49825Y-59737D02*
X49825Y-59737D01*
X49825Y-59997D02*
X49825Y-59997D01*
X48661Y-53582D02*
X48976Y-53267D01*
X48661Y-53976D02*
X48661Y-53582D01*
X49330Y-54645D02*
X48661Y-53976D01*
X49330Y-59803D02*
X49330Y-54645D01*
X49524Y-59997D02*
X49330Y-59803D01*
X49825Y-59997D02*
X49524Y-59997D01*
X49825Y-59997D02*
X49825Y-59997D01*
X54111Y-61527D02*
X54111Y-61527D01*
X52795Y-60866D02*
X52362Y-60866D01*
X53456Y-61527D02*
X52795Y-60866D01*
X54111Y-61527D02*
X53456Y-61527D01*
X54111Y-61527D02*
X54111Y-61527D01*
X54111Y-61277D02*
X54111Y-61277D01*
X52834Y-62244D02*
X52834Y-63543D01*
X52007Y-61417D02*
X52834Y-62244D01*
X52007Y-60748D02*
X52007Y-61417D01*
X52244Y-60511D02*
X52007Y-60748D01*
X52755Y-60511D02*
X52244Y-60511D01*
X53521Y-61277D02*
X52755Y-60511D01*
X54111Y-61277D02*
X53521Y-61277D01*
X54111Y-61277D02*
X54111Y-61277D01*
X31102Y-39585D02*
X31102Y-39585D01*
X31102Y-39585D02*
X31102Y-38957D01*
X52834Y-60275D02*
X51968Y-60275D01*
X53576Y-61017D02*
X52834Y-60275D01*
X54111Y-61017D02*
X53576Y-61017D01*
X52362Y-60039D02*
X52165Y-59842D01*
X52913Y-60039D02*
X52362Y-60039D01*
X53641Y-60767D02*
X52913Y-60039D01*
X54111Y-60767D02*
X53641Y-60767D01*
X58077Y-61017D02*
X56911Y-61017D01*
X58188Y-60905D02*
X58077Y-61017D01*
X54111Y-60507D02*
X54111Y-60507D01*
X52795Y-57519D02*
X52559Y-57283D01*
X52795Y-59606D02*
X52795Y-57519D01*
X53696Y-60507D02*
X52795Y-59606D01*
X54111Y-60507D02*
X53696Y-60507D01*
X54111Y-60507D02*
X54111Y-60507D01*
X56911Y-61277D02*
X56911Y-61277D01*
X57244Y-64763D02*
X56968Y-64763D01*
X58582Y-63425D02*
X57244Y-64763D01*
X58582Y-61496D02*
X58582Y-63425D01*
X58363Y-61277D02*
X58582Y-61496D01*
X56911Y-61277D02*
X58363Y-61277D01*
X56911Y-61277D02*
X56911Y-61277D01*
X54111Y-60247D02*
X54111Y-60247D01*
X53110Y-59606D02*
X53110Y-56496D01*
X53751Y-60247D02*
X53110Y-59606D01*
X54111Y-60247D02*
X53751Y-60247D01*
X54111Y-60247D02*
X54111Y-60247D01*
X56911Y-61527D02*
X56911Y-61527D01*
X58228Y-63464D02*
X57598Y-63464D01*
X58346Y-63346D02*
X58228Y-63464D01*
X58346Y-61614D02*
X58346Y-63346D01*
X58259Y-61527D02*
X58346Y-61614D01*
X56911Y-61527D02*
X58259Y-61527D01*
X56911Y-61527D02*
X56911Y-61527D01*
X54111Y-59997D02*
X54111Y-59997D01*
X53661Y-54842D02*
X52559Y-53740D01*
X53661Y-59842D02*
X53661Y-54842D01*
X53816Y-59997D02*
X53661Y-59842D01*
X54111Y-59997D02*
X53816Y-59997D01*
X54111Y-59997D02*
X54111Y-59997D01*
X54111Y-53914D02*
X53070Y-52874D01*
X54111Y-59737D02*
X54111Y-53914D01*
X54111Y-59737D02*
X54111Y-59737D01*
X49825Y-60237D02*
X49825Y-60237D01*
X50275Y-57795D02*
X50157Y-57677D01*
X50275Y-60118D02*
X50275Y-57795D01*
X50156Y-60237D02*
X50275Y-60118D01*
X49825Y-60237D02*
X50156Y-60237D01*
X49825Y-60237D02*
X49825Y-60237D01*
X56911Y-54549D02*
X56102Y-53740D01*
X56911Y-59737D02*
X56911Y-54549D01*
X56911Y-59737D02*
X56911Y-59737D01*
X56911Y-59997D02*
X56911Y-59997D01*
X55748Y-53582D02*
X56062Y-53267D01*
X55748Y-53976D02*
X55748Y-53582D01*
X56417Y-54645D02*
X55748Y-53976D01*
X56417Y-59803D02*
X56417Y-54645D01*
X56611Y-59997D02*
X56417Y-59803D01*
X56911Y-59997D02*
X56611Y-59997D01*
X56911Y-59997D02*
X56911Y-59997D01*
X56911Y-60237D02*
X56911Y-60237D01*
X57362Y-57795D02*
X57244Y-57677D01*
X57362Y-60118D02*
X57362Y-57795D01*
X57242Y-60237D02*
X57362Y-60118D01*
X56911Y-60237D02*
X57242Y-60237D01*
X56911Y-60237D02*
X56911Y-60237D01*
X55886Y-64763D02*
X55886Y-64763D01*
X56377Y-64272D02*
X55886Y-64763D01*
X56377Y-64212D02*
X56377Y-64272D01*
X57322Y-63267D02*
X56377Y-64212D01*
X57322Y-62913D02*
X57322Y-63267D01*
X57226Y-62817D02*
X57322Y-62913D01*
X56911Y-62817D02*
X57226Y-62817D01*
X55886Y-64763D02*
X55886Y-64763D01*
X56911Y-60507D02*
X56911Y-60507D01*
X57716Y-60118D02*
X57716Y-58110D01*
X57327Y-60507D02*
X57716Y-60118D01*
X56911Y-60507D02*
X57327Y-60507D01*
X56911Y-60507D02*
X56911Y-60507D01*
X57362Y-60767D02*
X57382Y-60767D01*
X56911Y-60767D02*
X57362Y-60767D01*
X57362Y-60767D02*
X57382Y-60767D01*
X58070Y-60196D02*
X58070Y-59724D01*
X57500Y-60767D02*
X58070Y-60196D01*
X57382Y-60767D02*
X57500Y-60767D01*
X39938Y-61527D02*
X39938Y-61527D01*
X38622Y-60866D02*
X38188Y-60866D01*
X39283Y-61527D02*
X38622Y-60866D01*
X39938Y-61527D02*
X39283Y-61527D01*
X39938Y-61527D02*
X39938Y-61527D01*
X39938Y-61277D02*
X39938Y-61277D01*
X38661Y-62244D02*
X38661Y-63543D01*
X37834Y-61417D02*
X38661Y-62244D01*
X37834Y-60748D02*
X37834Y-61417D01*
X38070Y-60511D02*
X37834Y-60748D01*
X38582Y-60511D02*
X38070Y-60511D01*
X39348Y-61277D02*
X38582Y-60511D01*
X39938Y-61277D02*
X39348Y-61277D01*
X39938Y-61277D02*
X39938Y-61277D01*
X38661Y-60275D02*
X37795Y-60275D01*
X39403Y-61017D02*
X38661Y-60275D01*
X39938Y-61017D02*
X39403Y-61017D01*
X38188Y-60039D02*
X37992Y-59842D01*
X38740Y-60039D02*
X38188Y-60039D01*
X39468Y-60767D02*
X38740Y-60039D01*
X39938Y-60767D02*
X39468Y-60767D01*
X43903Y-61017D02*
X42738Y-61017D01*
X44015Y-60905D02*
X43903Y-61017D01*
X38503Y-57401D02*
X38385Y-57283D01*
X38503Y-57401D02*
X38385Y-57283D01*
X39938Y-60507D02*
X39938Y-60507D01*
X38622Y-57519D02*
X38503Y-57401D01*
X38622Y-59606D02*
X38622Y-57519D01*
X39523Y-60507D02*
X38622Y-59606D01*
X39938Y-60507D02*
X39523Y-60507D01*
X39938Y-60507D02*
X39938Y-60507D01*
X42738Y-61277D02*
X42738Y-61277D01*
X43070Y-64763D02*
X42795Y-64763D01*
X44409Y-63425D02*
X43070Y-64763D01*
X44409Y-61496D02*
X44409Y-63425D01*
X44190Y-61277D02*
X44409Y-61496D01*
X42738Y-61277D02*
X44190Y-61277D01*
X42738Y-61277D02*
X42738Y-61277D01*
X39938Y-60247D02*
X39938Y-60247D01*
X38937Y-59606D02*
X38937Y-56496D01*
X39577Y-60247D02*
X38937Y-59606D01*
X39938Y-60247D02*
X39577Y-60247D01*
X39938Y-60247D02*
X39938Y-60247D01*
X42738Y-61527D02*
X42738Y-61527D01*
X44055Y-63464D02*
X43425Y-63464D01*
X44173Y-63346D02*
X44055Y-63464D01*
X44173Y-61614D02*
X44173Y-63346D01*
X44086Y-61527D02*
X44173Y-61614D01*
X42738Y-61527D02*
X44086Y-61527D01*
X42738Y-61527D02*
X42738Y-61527D01*
X39938Y-59997D02*
X39938Y-59997D01*
X39488Y-54842D02*
X38385Y-53740D01*
X39488Y-59842D02*
X39488Y-54842D01*
X39642Y-59997D02*
X39488Y-59842D01*
X39938Y-59997D02*
X39642Y-59997D01*
X39938Y-59997D02*
X39938Y-59997D01*
X39938Y-53914D02*
X38897Y-52874D01*
X39938Y-59737D02*
X39938Y-53914D01*
X39938Y-59737D02*
X39938Y-59737D01*
X42738Y-54549D02*
X41929Y-53740D01*
X42738Y-59737D02*
X42738Y-54549D01*
X42738Y-59737D02*
X42738Y-59737D01*
X42738Y-59997D02*
X42738Y-59997D01*
X41574Y-53582D02*
X41889Y-53267D01*
X41574Y-53976D02*
X41574Y-53582D01*
X42244Y-54645D02*
X41574Y-53976D01*
X42244Y-59803D02*
X42244Y-54645D01*
X42438Y-59997D02*
X42244Y-59803D01*
X42738Y-59997D02*
X42438Y-59997D01*
X42738Y-59997D02*
X42738Y-59997D01*
X42738Y-60237D02*
X42738Y-60237D01*
X43188Y-57795D02*
X43070Y-57677D01*
X43188Y-60118D02*
X43188Y-57795D01*
X43069Y-60237D02*
X43188Y-60118D01*
X42738Y-60237D02*
X43069Y-60237D01*
X42738Y-60237D02*
X42738Y-60237D01*
X42738Y-60507D02*
X42738Y-60507D01*
X43543Y-60118D02*
X43543Y-58110D01*
X43153Y-60507D02*
X43543Y-60118D01*
X42738Y-60507D02*
X43153Y-60507D01*
X42738Y-60507D02*
X42738Y-60507D01*
X43897Y-60196D02*
X43897Y-59724D01*
X43327Y-60767D02*
X43897Y-60196D01*
X43209Y-60767D02*
X43327Y-60767D01*
X43188Y-60767D02*
X43209Y-60767D01*
X42738Y-60767D02*
X43188Y-60767D01*
X43188Y-60767D02*
X43209Y-60767D01*
X49825Y-60507D02*
X49825Y-60507D01*
X50629Y-60118D02*
X50629Y-58110D01*
X50240Y-60507D02*
X50629Y-60118D01*
X49825Y-60507D02*
X50240Y-60507D01*
X49825Y-60507D02*
X49825Y-60507D01*
X50275Y-60767D02*
X50295Y-60767D01*
X49825Y-60767D02*
X50275Y-60767D01*
X50275Y-60767D02*
X50295Y-60767D01*
X50984Y-60196D02*
X50984Y-59724D01*
X50413Y-60767D02*
X50984Y-60196D01*
X50295Y-60767D02*
X50413Y-60767D01*
X48800Y-64763D02*
X48800Y-64763D01*
X49251Y-64311D02*
X48800Y-64763D01*
X49251Y-64212D02*
X49251Y-64311D01*
X50314Y-63149D02*
X49251Y-64212D01*
X50314Y-62952D02*
X50314Y-63149D01*
X50179Y-62817D02*
X50314Y-62952D01*
X49825Y-62817D02*
X50179Y-62817D01*
X48800Y-64763D02*
X48800Y-64763D01*
X55082Y-58509D02*
X55062Y-58529D01*
X55082Y-55338D02*
X55082Y-58509D01*
X48640Y-57774D02*
X48449Y-57583D01*
X48640Y-58561D02*
X48640Y-57774D01*
X48475Y-58726D02*
X48640Y-58561D01*
X48125Y-58726D02*
X48475Y-58726D01*
X47924Y-58525D02*
X48125Y-58726D01*
X47924Y-55552D02*
X47924Y-58525D01*
X48138Y-55338D02*
X47924Y-55552D01*
X49825Y-62047D02*
X49825Y-62047D01*
X49825Y-62047D02*
X50472Y-62047D01*
X49825Y-62047D02*
X49825Y-62047D01*
X54111Y-62047D02*
X54111Y-62047D01*
X53188Y-62047D02*
X53070Y-61929D01*
X54111Y-62047D02*
X53188Y-62047D01*
X54111Y-62047D02*
X54111Y-62047D01*
X41713Y-64763D02*
X41713Y-64763D01*
X42204Y-64272D02*
X41713Y-64763D01*
X42204Y-64173D02*
X42204Y-64272D01*
X43188Y-63188D02*
X42204Y-64173D01*
X43188Y-62874D02*
X43188Y-63188D01*
X43132Y-62817D02*
X43188Y-62874D01*
X42738Y-62817D02*
X43132Y-62817D01*
X41713Y-64763D02*
X41713Y-64763D01*
X30530Y-64467D02*
X30530Y-64960D01*
X30511Y-64448D02*
X30530Y-64467D01*
X30511Y-63898D02*
X30511Y-64448D01*
X27165Y-49055D02*
X27165Y-48244D01*
X29067Y-50957D02*
X27165Y-49055D01*
X29067Y-61904D02*
X29067Y-50957D01*
X30511Y-63348D02*
X29067Y-61904D01*
X30511Y-63898D02*
X30511Y-63348D01*
X49291Y-43976D02*
X49291Y-49370D01*
X49431Y-43836D02*
X49291Y-43976D01*
X49431Y-43805D02*
X49431Y-43836D01*
X49431Y-43805D02*
X49431Y-43805D01*
X49431Y-43546D02*
X49431Y-43546D01*
X48937Y-43622D02*
X48937Y-50196D01*
X49012Y-43546D02*
X48937Y-43622D01*
X49431Y-43546D02*
X49012Y-43546D01*
X49431Y-43546D02*
X49431Y-43545D01*
X49431Y-43296D02*
X49431Y-43296D01*
X49881Y-45590D02*
X49645Y-45826D01*
X49881Y-43385D02*
X49881Y-45590D01*
X49792Y-43296D02*
X49881Y-43385D01*
X49431Y-43296D02*
X49792Y-43296D01*
X49431Y-43296D02*
X49431Y-43295D01*
X49431Y-43035D02*
X49431Y-43035D01*
X50275Y-46614D02*
X49685Y-47204D01*
X50275Y-43464D02*
X50275Y-46614D01*
X49846Y-43035D02*
X50275Y-43464D01*
X49431Y-43035D02*
X49846Y-43035D01*
X49431Y-43035D02*
X49431Y-43035D01*
X51456Y-43425D02*
X51574Y-43543D01*
X51299Y-43425D02*
X51456Y-43425D01*
X51181Y-43307D02*
X51299Y-43425D01*
X50433Y-43307D02*
X51181Y-43307D01*
X49901Y-42775D02*
X50433Y-43307D01*
X49431Y-42775D02*
X49901Y-42775D01*
X50511Y-43070D02*
X51417Y-43070D01*
X49966Y-42525D02*
X50511Y-43070D01*
X49431Y-42525D02*
X49966Y-42525D01*
X49431Y-42266D02*
X49431Y-42266D01*
X49685Y-39055D02*
X48976Y-39055D01*
X51535Y-40905D02*
X49685Y-39055D01*
X51535Y-42440D02*
X51535Y-40905D01*
X51141Y-42834D02*
X51535Y-42440D01*
X50590Y-42834D02*
X51141Y-42834D01*
X50022Y-42266D02*
X50590Y-42834D01*
X49431Y-42266D02*
X50022Y-42266D01*
X49431Y-42266D02*
X49431Y-42265D01*
X49431Y-42016D02*
X49431Y-42016D01*
X49842Y-39527D02*
X48976Y-39527D01*
X51299Y-40984D02*
X49842Y-39527D01*
X51299Y-42362D02*
X51299Y-40984D01*
X51062Y-42598D02*
X51299Y-42362D01*
X50826Y-42598D02*
X51062Y-42598D01*
X50433Y-42204D02*
X50826Y-42598D01*
X50275Y-42204D02*
X50433Y-42204D01*
X50087Y-42016D02*
X50275Y-42204D01*
X49431Y-42016D02*
X50087Y-42016D01*
X49431Y-42016D02*
X49431Y-42015D01*
X53267Y-40255D02*
X54743Y-38779D01*
X53267Y-40669D02*
X53267Y-40255D01*
X53324Y-40725D02*
X53267Y-40669D01*
X53718Y-40725D02*
X53324Y-40725D01*
X46437Y-44000D02*
X46485Y-43951D01*
X46437Y-49192D02*
X46437Y-44000D01*
X45393Y-50236D02*
X46437Y-49192D01*
X46485Y-43951D02*
X46534Y-43903D01*
X46485Y-43951D02*
X46558Y-43878D01*
X46558Y-43878D02*
X46631Y-43805D01*
X46631Y-43806D02*
X46631Y-43805D01*
X46558Y-43878D02*
X46631Y-43806D01*
X46631Y-43546D02*
X46631Y-43546D01*
X45944Y-49212D02*
X45393Y-49763D01*
X45944Y-43779D02*
X45944Y-49212D01*
X46178Y-43546D02*
X45944Y-43779D01*
X46631Y-43546D02*
X46178Y-43546D01*
X46631Y-43546D02*
X46631Y-43545D01*
X46631Y-43305D02*
X46631Y-43305D01*
X45551Y-46456D02*
X45393Y-46614D01*
X45551Y-43543D02*
X45551Y-46456D01*
X45787Y-43307D02*
X45551Y-43543D01*
X45787Y-43305D02*
X45787Y-43307D01*
X46631Y-43305D02*
X45787Y-43305D01*
X46631Y-43305D02*
X46631Y-43305D01*
X46631Y-43035D02*
X46631Y-43035D01*
X45196Y-43385D02*
X45196Y-45984D01*
X45546Y-43035D02*
X45196Y-43385D01*
X46631Y-43035D02*
X45546Y-43035D01*
X46631Y-43035D02*
X46631Y-43035D01*
X45374Y-42775D02*
X45354Y-42755D01*
X46161Y-42775D02*
X45374Y-42775D01*
X46181Y-42775D02*
X46161Y-42775D01*
X46631Y-42775D02*
X46181Y-42775D01*
X46631Y-42775D02*
X46181Y-42775D01*
X46181Y-42775D02*
X46161Y-42775D01*
X45754Y-42525D02*
X45551Y-42322D01*
X46631Y-42525D02*
X45754Y-42525D01*
X46631Y-42266D02*
X46631Y-42266D01*
X45393Y-41692D02*
X45393Y-39685D01*
X45966Y-42266D02*
X45393Y-41692D01*
X46631Y-42266D02*
X45966Y-42266D01*
X46631Y-42266D02*
X46631Y-42265D01*
X46631Y-42016D02*
X46631Y-42016D01*
X45708Y-39173D02*
X45433Y-39173D01*
X45944Y-39409D02*
X45708Y-39173D01*
X45944Y-40511D02*
X45944Y-39409D01*
X45629Y-40826D02*
X45944Y-40511D01*
X45629Y-41614D02*
X45629Y-40826D01*
X46031Y-42016D02*
X45629Y-41614D01*
X46631Y-42016D02*
X46031Y-42016D01*
X46631Y-42016D02*
X46631Y-42015D01*
X53718Y-43305D02*
X53718Y-43305D01*
X52637Y-46456D02*
X52480Y-46614D01*
X52637Y-43543D02*
X52637Y-46456D01*
X52874Y-43307D02*
X52637Y-43543D01*
X52874Y-43305D02*
X52874Y-43307D01*
X53718Y-43305D02*
X52874Y-43305D01*
X53718Y-43305D02*
X53718Y-43305D01*
X42344Y-43035D02*
X42345Y-43035D01*
X43188Y-46614D02*
X42598Y-47204D01*
X43188Y-43464D02*
X43188Y-46614D01*
X42760Y-43035D02*
X43188Y-43464D01*
X42345Y-43035D02*
X42760Y-43035D01*
X42345Y-43035D02*
X42344Y-43035D01*
X42204Y-43976D02*
X42204Y-49370D01*
X42344Y-43836D02*
X42204Y-43976D01*
X42344Y-43805D02*
X42344Y-43836D01*
X42344Y-43805D02*
X42344Y-43805D01*
X42344Y-43546D02*
X42344Y-43546D01*
X41850Y-43622D02*
X41850Y-50196D01*
X41926Y-43546D02*
X41850Y-43622D01*
X42344Y-43546D02*
X41926Y-43546D01*
X42344Y-43546D02*
X42344Y-43545D01*
X42344Y-43296D02*
X42344Y-43296D01*
X42795Y-45590D02*
X42559Y-45826D01*
X42795Y-43385D02*
X42795Y-45590D01*
X42705Y-43296D02*
X42795Y-43385D01*
X42344Y-43296D02*
X42705Y-43296D01*
X42344Y-43296D02*
X42344Y-43295D01*
X44212Y-43425D02*
X44645Y-43425D01*
X44094Y-43307D02*
X44212Y-43425D01*
X43346Y-43307D02*
X44094Y-43307D01*
X42815Y-42775D02*
X43346Y-43307D01*
X42344Y-42775D02*
X42815Y-42775D01*
X43425Y-43070D02*
X44330Y-43070D01*
X42880Y-42525D02*
X43425Y-43070D01*
X42344Y-42525D02*
X42880Y-42525D01*
X42344Y-42266D02*
X42345Y-42266D01*
X42598Y-39055D02*
X41889Y-39055D01*
X44448Y-40905D02*
X42598Y-39055D01*
X44448Y-42440D02*
X44448Y-40905D01*
X44055Y-42834D02*
X44448Y-42440D01*
X43503Y-42834D02*
X44055Y-42834D01*
X42935Y-42266D02*
X43503Y-42834D01*
X42345Y-42266D02*
X42935Y-42266D01*
X42345Y-42266D02*
X42344Y-42265D01*
X42344Y-42016D02*
X42345Y-42016D01*
X42755Y-39527D02*
X41889Y-39527D01*
X44212Y-40984D02*
X42755Y-39527D01*
X44212Y-42362D02*
X44212Y-40984D01*
X43976Y-42598D02*
X44212Y-42362D01*
X43740Y-42598D02*
X43976Y-42598D01*
X43346Y-42204D02*
X43740Y-42598D01*
X43188Y-42204D02*
X43346Y-42204D01*
X43000Y-42016D02*
X43188Y-42204D01*
X42345Y-42016D02*
X43000Y-42016D01*
X42345Y-42016D02*
X42344Y-42015D01*
X40511Y-38779D02*
X40569Y-38779D01*
X39094Y-40196D02*
X40511Y-38779D01*
X39094Y-40629D02*
X39094Y-40196D01*
X39190Y-40725D02*
X39094Y-40629D01*
X39544Y-40725D02*
X39190Y-40725D01*
X40569Y-38779D02*
X40570Y-38779D01*
X49431Y-41496D02*
X49431Y-41496D01*
X50354Y-41496D02*
X50472Y-41614D01*
X49431Y-41496D02*
X50354Y-41496D01*
X49431Y-41496D02*
X49431Y-41495D01*
X53718Y-41496D02*
X53718Y-41496D01*
X53718Y-41496D02*
X53070Y-41496D01*
X53718Y-41496D02*
X53718Y-41495D01*
X56518Y-41496D02*
X56518Y-41496D01*
X57440Y-41496D02*
X57559Y-41614D01*
X56518Y-41496D02*
X57440Y-41496D01*
X56518Y-41496D02*
X56518Y-41495D01*
X60804Y-41496D02*
X60804Y-41496D01*
X60804Y-41496D02*
X60157Y-41496D01*
X60804Y-41496D02*
X60804Y-41495D01*
X44970Y-40864D02*
X45047Y-40787D01*
X44970Y-43588D02*
X44970Y-40864D01*
X44290Y-44268D02*
X44970Y-43588D01*
X46141Y-41496D02*
X46631Y-41496D01*
X46102Y-41456D02*
X46141Y-41496D01*
X45984Y-41456D02*
X46102Y-41456D01*
X46631Y-41496D02*
X46631Y-41496D01*
X46631Y-41496D02*
X46631Y-41495D01*
X42344Y-41496D02*
X42344Y-41496D01*
X43267Y-41496D02*
X43385Y-41614D01*
X42344Y-41496D02*
X43267Y-41496D01*
X42344Y-41496D02*
X42344Y-41495D01*
X46181Y-40255D02*
X47656Y-38779D01*
X46181Y-40629D02*
X46181Y-40255D01*
X46277Y-40725D02*
X46181Y-40629D01*
X46631Y-40725D02*
X46277Y-40725D01*
X56518Y-43546D02*
X56518Y-43546D01*
X56023Y-43622D02*
X56023Y-50196D01*
X56099Y-43546D02*
X56023Y-43622D01*
X56518Y-43546D02*
X56099Y-43546D01*
X56518Y-43546D02*
X56518Y-43545D01*
X56377Y-43976D02*
X56377Y-49370D01*
X56518Y-43836D02*
X56377Y-43976D01*
X56518Y-43805D02*
X56518Y-43836D01*
X56518Y-43805D02*
X56518Y-43805D01*
X56518Y-42266D02*
X56518Y-42266D01*
X56771Y-39055D02*
X56062Y-39055D01*
X58622Y-40905D02*
X56771Y-39055D01*
X58622Y-42440D02*
X58622Y-40905D01*
X58228Y-42834D02*
X58622Y-42440D01*
X57677Y-42834D02*
X58228Y-42834D01*
X57108Y-42266D02*
X57677Y-42834D01*
X56518Y-42266D02*
X57108Y-42266D01*
X56518Y-42266D02*
X56518Y-42265D01*
X56518Y-42016D02*
X56518Y-42016D01*
X56929Y-39527D02*
X56062Y-39527D01*
X58385Y-40984D02*
X56929Y-39527D01*
X58385Y-42362D02*
X58385Y-40984D01*
X58149Y-42598D02*
X58385Y-42362D01*
X57913Y-42598D02*
X58149Y-42598D01*
X57519Y-42204D02*
X57913Y-42598D01*
X57362Y-42204D02*
X57519Y-42204D01*
X57173Y-42016D02*
X57362Y-42204D01*
X56518Y-42016D02*
X57173Y-42016D01*
X56518Y-42016D02*
X56518Y-42015D01*
X58385Y-43425D02*
X58818Y-43425D01*
X58267Y-43307D02*
X58385Y-43425D01*
X57519Y-43307D02*
X58267Y-43307D01*
X56988Y-42775D02*
X57519Y-43307D01*
X56518Y-42775D02*
X56988Y-42775D01*
X57598Y-43070D02*
X58503Y-43070D01*
X57053Y-42525D02*
X57598Y-43070D01*
X56518Y-42525D02*
X57053Y-42525D01*
X56518Y-43296D02*
X56518Y-43296D01*
X56968Y-45590D02*
X56732Y-45826D01*
X56968Y-43385D02*
X56968Y-45590D01*
X56878Y-43296D02*
X56968Y-43385D01*
X56518Y-43296D02*
X56878Y-43296D01*
X56518Y-43296D02*
X56518Y-43295D01*
X56518Y-43035D02*
X56518Y-43035D01*
X57362Y-46614D02*
X56771Y-47204D01*
X57362Y-43464D02*
X57362Y-46614D01*
X56933Y-43035D02*
X57362Y-43464D01*
X56518Y-43035D02*
X56933Y-43035D01*
X56518Y-43035D02*
X56518Y-43035D01*
X39544Y-42266D02*
X39544Y-42266D01*
X38307Y-41692D02*
X38307Y-39685D01*
X38880Y-42266D02*
X38307Y-41692D01*
X39544Y-42266D02*
X38880Y-42266D01*
X39544Y-42266D02*
X39544Y-42265D01*
X39544Y-42016D02*
X39544Y-42016D01*
X38622Y-39173D02*
X38346Y-39173D01*
X38858Y-39409D02*
X38622Y-39173D01*
X38858Y-40511D02*
X38858Y-39409D01*
X38543Y-40826D02*
X38858Y-40511D01*
X38543Y-41614D02*
X38543Y-40826D01*
X38945Y-42016D02*
X38543Y-41614D01*
X39544Y-42016D02*
X38945Y-42016D01*
X39544Y-42016D02*
X39544Y-42015D01*
X38667Y-42525D02*
X38464Y-42322D01*
X39544Y-42525D02*
X38667Y-42525D01*
X38287Y-42775D02*
X38267Y-42755D01*
X39074Y-42775D02*
X38287Y-42775D01*
X39094Y-42775D02*
X39074Y-42775D01*
X39544Y-42775D02*
X39094Y-42775D01*
X39544Y-42775D02*
X39094Y-42775D01*
X39094Y-42775D02*
X39074Y-42775D01*
X39544Y-43035D02*
X39544Y-43035D01*
X38110Y-43385D02*
X38110Y-45984D01*
X38460Y-43035D02*
X38110Y-43385D01*
X39544Y-43035D02*
X38460Y-43035D01*
X39544Y-43035D02*
X39544Y-43035D01*
X39544Y-43305D02*
X39544Y-43305D01*
X38464Y-46456D02*
X38307Y-46614D01*
X38464Y-43543D02*
X38464Y-46456D01*
X38700Y-43307D02*
X38464Y-43543D01*
X38700Y-43305D02*
X38700Y-43307D01*
X39544Y-43305D02*
X38700Y-43305D01*
X39544Y-43305D02*
X39544Y-43305D01*
X39544Y-43546D02*
X39544Y-43546D01*
X38858Y-49212D02*
X38307Y-49763D01*
X38858Y-43779D02*
X38858Y-49212D01*
X39091Y-43546D02*
X38858Y-43779D01*
X39544Y-43546D02*
X39091Y-43546D01*
X39544Y-43546D02*
X39544Y-43545D01*
X39350Y-44000D02*
X39399Y-43951D01*
X39350Y-49192D02*
X39350Y-44000D01*
X38307Y-50236D02*
X39350Y-49192D01*
X39399Y-43951D02*
X39447Y-43903D01*
X39399Y-43951D02*
X39472Y-43878D01*
X39472Y-43878D02*
X39544Y-43805D01*
X39544Y-43806D02*
X39544Y-43805D01*
X39472Y-43878D02*
X39544Y-43806D01*
X53718Y-42016D02*
X53717Y-42016D01*
X52795Y-39173D02*
X52519Y-39173D01*
X53031Y-39409D02*
X52795Y-39173D01*
X53031Y-40511D02*
X53031Y-39409D01*
X52716Y-40826D02*
X53031Y-40511D01*
X52716Y-41614D02*
X52716Y-40826D01*
X53118Y-42016D02*
X52716Y-41614D01*
X53717Y-42016D02*
X53118Y-42016D01*
X53717Y-42016D02*
X53718Y-42015D01*
X53718Y-42266D02*
X53717Y-42266D01*
X52480Y-41692D02*
X52480Y-39685D01*
X53053Y-42266D02*
X52480Y-41692D01*
X53717Y-42266D02*
X53053Y-42266D01*
X53717Y-42266D02*
X53718Y-42265D01*
X52840Y-42525D02*
X52637Y-42322D01*
X53718Y-42525D02*
X52840Y-42525D01*
X52461Y-42775D02*
X52440Y-42755D01*
X53247Y-42775D02*
X52461Y-42775D01*
X53267Y-42775D02*
X53247Y-42775D01*
X53718Y-42775D02*
X53267Y-42775D01*
X53718Y-42775D02*
X53267Y-42775D01*
X53267Y-42775D02*
X53247Y-42775D01*
X53718Y-43035D02*
X53717Y-43035D01*
X52283Y-43385D02*
X52283Y-45984D01*
X52633Y-43035D02*
X52283Y-43385D01*
X53717Y-43035D02*
X52633Y-43035D01*
X53717Y-43035D02*
X53718Y-43035D01*
X53718Y-43546D02*
X53718Y-43546D01*
X53031Y-49212D02*
X52480Y-49763D01*
X53031Y-43779D02*
X53031Y-49212D01*
X53264Y-43546D02*
X53031Y-43779D01*
X53718Y-43546D02*
X53264Y-43546D01*
X53718Y-43546D02*
X53718Y-43545D01*
X53523Y-44000D02*
X53572Y-43951D01*
X53523Y-49192D02*
X53523Y-44000D01*
X52480Y-50236D02*
X53523Y-49192D01*
X53572Y-43951D02*
X53620Y-43903D01*
X53572Y-43951D02*
X53645Y-43878D01*
X53645Y-43878D02*
X53718Y-43805D01*
X53718Y-43806D02*
X53718Y-43805D01*
X53645Y-43878D02*
X53718Y-43806D01*
M02*
