M48
;DRILL file {Pcbnew (2013-07-07 BZR 4022)-stable} date 5/10/2014 4:35:32 PM
;FORMAT={-:-/ absolute / inch / decimal}
FMAT,2
INCH,TZ
T1C0.025
T2C0.040
T3C0.059
T4C0.071
T5C0.120
%
G90
G05
M72
T1
X2.8815Y-4.6886
X2.9242Y-4.2815
X2.9853Y-4.4973
X3.0614Y-4.5008
X3.0904Y-4.7198
X3.1307Y-4.6299
X3.1988Y-4.681
X3.2066Y-6.1982
X3.2354Y-6.5406
X3.3331Y-4.7198
X3.4352Y-4.127
X3.4666Y-6.1217
X3.4898Y-3.7992
X3.6024Y-5.7874
X3.6135Y-4.6008
X3.6763Y-3.9841
X3.7645Y-4.8772
X3.7758Y-4.1955
X3.7795Y-6.0276
X3.7972Y-4.8441
X3.7992Y-5.9843
X3.8096Y-5.5474
X3.811Y-4.5984
X3.8184Y-4.8015
X3.8189Y-6.0866
X3.8268Y-4.2756
X3.8268Y-5.5
X3.8307Y-3.9685
X3.8307Y-4.6614
X3.8307Y-4.9764
X3.8307Y-5.0236
X3.8346Y-3.9173
X3.8386Y-5.374
X3.8386Y-5.7283
X3.8425Y-6.1299
X3.8465Y-4.2323
X3.8661Y-6.3543
X3.8898Y-4.0945
X3.8898Y-4.1496
X3.8898Y-5.2874
X3.8937Y-5.6496
X3.9016Y-6.2402
X3.9114Y-5.5665
X4.0394Y-6.5079
X4.0584Y-5.7591
X4.0838Y-5.9217
X4.117Y-5.4245
X4.1339Y-3.7992
X4.1595Y-5.447
X4.185Y-5.0197
X4.189Y-3.9055
X4.189Y-3.9528
X4.189Y-5.3268
X4.1929Y-5.374
X4.2205Y-4.937
X4.2559Y-4.5827
X4.2598Y-4.7205
X4.2795Y-6.4764
X4.2874Y-4.0197
X4.3071Y-5.7677
X4.3168Y-5.5665
X4.3268Y-4.0669
X4.3268Y-4.1142
X4.3386Y-4.1614
X4.3386Y-6.2598
X4.3425Y-6.3465
X4.3543Y-4.3661
X4.3543Y-5.811
X4.3583Y-4.5787
X4.3819Y-6.2756
X4.3848Y-4.1444
X4.3898Y-5.9724
X4.4016Y-6.0906
X4.4155Y-5.7113
X4.4232Y-4.0224
X4.4291Y-4.4269
X4.4331Y-4.3071
X4.4444Y-4.51
X4.4646Y-4.3425
X4.4657Y-3.8918
X4.4706Y-5.9561
X4.4882Y-6.0276
X4.5048Y-4.0787
X4.5079Y-5.9843
X4.5118Y-6.2165
X4.5197Y-4.5984
X4.5276Y-6.0866
X4.5312Y-5.6591
X4.5354Y-4.2756
X4.5394Y-3.9685
X4.5394Y-4.6614
X4.5394Y-4.9764
X4.5394Y-5.0236
X4.5394Y-6.3898
X4.5433Y-3.9173
X4.5472Y-5.374
X4.5472Y-5.7283
X4.5512Y-6.1299
X4.5551Y-4.2323
X4.5748Y-6.3543
X4.5821Y-5.4902
X4.5984Y-4.0945
X4.5984Y-4.1457
X4.5984Y-5.2874
X4.5984Y-6.1929
X4.6024Y-5.6496
X4.6102Y-6.2402
X4.7425Y-5.5599
X4.748Y-6.5118
X4.7646Y-4.8441
X4.8138Y-5.5339
X4.8301Y-5.8402
X4.8425Y-3.7992
X4.8444Y-5.4501
X4.8449Y-5.7583
X4.8937Y-5.0197
X4.8976Y-3.9055
X4.8976Y-3.9528
X4.8976Y-5.3268
X4.9016Y-5.374
X4.9291Y-4.937
X4.9646Y-4.5827
X4.9685Y-4.7205
X4.9843Y-6.4764
X4.9961Y-4.0197
X5.0157Y-5.7677
X5.0354Y-4.0669
X5.0354Y-4.1142
X5.0472Y-4.1614
X5.0472Y-6.2047
X5.0472Y-6.2598
X5.0512Y-6.3465
X5.063Y-4.3661
X5.063Y-5.811
X5.0636Y-5.4989
X5.0669Y-4.5787
X5.0964Y-4.1558
X5.0984Y-5.9724
X5.1102Y-6.0906
X5.1122Y-5.4501
X5.1417Y-4.3071
X5.1575Y-4.3543
X5.1615Y-4.0406
X5.1735Y-5.5688
X5.1969Y-6.0276
X5.2165Y-5.9843
X5.2251Y-5.8503
X5.2283Y-4.5984
X5.2362Y-6.0866
X5.2441Y-4.2756
X5.2463Y-5.4576
X5.2466Y-5.9187
X5.248Y-3.9685
X5.248Y-4.6614
X5.248Y-4.9764
X5.248Y-5.0236
X5.252Y-3.9173
X5.2559Y-5.374
X5.2559Y-5.7283
X5.2598Y-6.1299
X5.2638Y-4.2323
X5.2835Y-6.3543
X5.3071Y-4.1496
X5.3071Y-5.2874
X5.3071Y-6.1929
X5.311Y-5.6496
X5.3386Y-6.2402
X5.3583Y-6.3346
X5.4081Y-4.8896
X5.4118Y-4.8441
X5.4537Y-5.4122
X5.4567Y-6.5157
X5.4877Y-5.4576
X5.4985Y-5.9224
X5.5063Y-5.853
X5.5083Y-5.5339
X5.5512Y-3.7992
X5.5519Y-5.9231
X5.6024Y-5.0197
X5.6063Y-3.9055
X5.6063Y-3.9528
X5.6063Y-5.3268
X5.6083Y-5.5315
X5.6102Y-5.374
X5.6378Y-4.937
X5.6704Y-4.8772
X5.6732Y-4.5827
X5.6772Y-4.7205
X5.6969Y-6.4764
X5.7047Y-4.0197
X5.7244Y-5.7677
X5.7441Y-4.0669
X5.7441Y-4.1142
X5.7559Y-4.1614
X5.7559Y-6.2047
X5.7559Y-6.2598
X5.7598Y-6.3465
X5.7717Y-4.3661
X5.7717Y-5.811
X5.7756Y-4.5787
X5.7894Y-6.2997
X5.8015Y-6.2159
X5.806Y-4.155
X5.8071Y-5.9724
X5.8189Y-6.0906
X5.8198Y-5.9165
X5.8504Y-4.3071
X5.8607Y-5.4854
X5.8819Y-4.3425
X5.8844Y-5.4446
X5.8861Y-5.9527
X5.8917Y-6.2598
X5.9055Y-6.0276
X5.9134Y-4.0197
X5.9224Y-6.2262
X5.9252Y-5.9843
X5.9306Y-5.9294
X5.937Y-4.5984
X5.9449Y-6.0866
X5.9528Y-4.2756
X5.9567Y-3.9685
X5.9567Y-4.6614
X5.9567Y-4.9764
X5.9567Y-5.0236
X5.9606Y-3.9173
X5.9646Y-5.374
X5.9646Y-5.7283
X5.9685Y-6.1299
X5.9724Y-4.2323
X5.9921Y-6.3543
X6.0111Y-5.5644
X6.0157Y-4.1496
X6.0157Y-5.2874
X6.0157Y-6.1929
X6.0197Y-5.6496
X6.0276Y-6.2874
X6.0669Y-6.3346
X6.1138Y-6.3508
X6.1614Y-6.5157
X6.1622Y-4.9733
X6.2016Y-5.422
X6.2141Y-5.5315
X6.2152Y-5.8578
X6.2165Y-5.9173
X6.2598Y-3.7992
X6.311Y-5.0197
X6.315Y-3.9055
X6.315Y-3.9528
X6.315Y-5.3268
X6.3189Y-5.374
X6.3465Y-4.937
X6.3593Y-6.3508
X6.3819Y-4.5827
X6.3858Y-4.7205
X6.4055Y-6.4764
X6.4134Y-4.0197
X6.4331Y-5.7677
X6.4528Y-4.0669
X6.4528Y-4.1142
X6.4646Y-4.1614
X6.4646Y-6.2047
X6.4646Y-6.2598
X6.4685Y-6.3465
X6.4778Y-4.8441
X6.4803Y-4.3661
X6.4803Y-5.811
X6.4843Y-4.5787
X6.5063Y-4.1177
X6.5157Y-5.9724
X6.5276Y-6.0906
X6.532Y-4.4126
X6.5591Y-4.3071
X6.5906Y-4.3425
X6.6006Y-6.2047
X6.6038Y-5.9252
X6.6113Y-4.1177
X6.6142Y-6.0276
X6.6161Y-5.3961
X6.619Y-4.1992
X6.6231Y-6.3077
X6.6339Y-5.9843
X6.6457Y-4.5984
X6.6535Y-6.0866
X6.6614Y-4.2756
X6.6654Y-3.9685
X6.6654Y-4.6614
X6.6654Y-4.9764
X6.6654Y-5.0236
X6.6693Y-3.9173
X6.6732Y-5.374
X6.6732Y-5.7283
X6.6772Y-6.1299
X6.6811Y-4.2323
X6.6914Y-5.5256
X6.7008Y-6.3543
X6.7244Y-4.1496
X6.7244Y-5.2874
X6.7244Y-6.1929
X6.7283Y-5.6496
X6.7362Y-6.2874
X6.7756Y-6.3346
X6.8661Y-6.5157
X6.8795Y-5.4917
X6.8922Y-5.3601
X6.8976Y-5.8732
X6.9315Y-5.7989
X6.9608Y-5.5256
X6.9685Y-3.7992
X6.9793Y-5.9227
X7.0197Y-5.0197
X7.0236Y-3.9055
X7.0236Y-3.9528
X7.0236Y-5.3268
X7.0276Y-5.374
X7.0551Y-4.937
X7.0906Y-4.5827
X7.0945Y-4.7205
X7.1142Y-6.4764
X7.122Y-4.0197
X7.1232Y-5.422
X7.1417Y-5.7677
X7.1614Y-4.0669
X7.1614Y-4.1142
X7.1715Y-5.5644
X7.1732Y-4.1614
X7.1732Y-6.2047
X7.1732Y-6.2598
X7.1772Y-6.3465
X7.189Y-4.3661
X7.189Y-5.811
X7.1929Y-4.5787
X7.2139Y-4.1319
X7.2244Y-5.9724
X7.2362Y-6.0906
X7.2677Y-4.3071
X7.2701Y-4.3829
X7.2992Y-4.3425
X7.3085Y-6.2988
X7.3213Y-4.4898
X7.3228Y-6.0276
X7.332Y-6.3995
X7.3322Y-3.9145
X7.3322Y-4.1319
X7.3425Y-5.9843
X7.3543Y-4.5984
X7.3622Y-6.0866
X7.3701Y-4.2756
X7.374Y-3.9685
X7.374Y-4.6614
X7.374Y-4.9764
X7.374Y-5.0236
X7.378Y-3.9173
X7.3819Y-5.374
X7.3819Y-5.7283
X7.3858Y-6.1299
X7.3898Y-4.2323
X7.4094Y-6.3543
X7.4331Y-4.0945
X7.4331Y-4.1496
X7.4331Y-5.2874
X7.4331Y-6.1929
X7.437Y-5.6496
X7.4449Y-6.2402
X7.5309Y-6.347
X7.5787Y-6.5157
X7.5802Y-5.3397
X7.6772Y-3.7992
X7.7283Y-5.0197
X7.7323Y-3.9055
X7.7323Y-3.9528
X7.7323Y-5.3268
X7.7362Y-5.374
X7.7638Y-4.937
X7.7992Y-4.5827
X7.8031Y-4.7205
X7.8228Y-6.4764
X7.8307Y-4.0197
X7.8504Y-5.7677
X7.8516Y-5.4782
X7.8701Y-4.0669
X7.8701Y-4.1142
X7.8819Y-4.1614
X7.8819Y-6.2598
X7.8858Y-6.3465
X7.8976Y-4.3661
X7.8976Y-5.811
X7.9016Y-4.5787
X7.9173Y-4.122
X7.9189Y-6.1863
X7.9331Y-5.9724
X7.9449Y-3.9961
X7.9449Y-6.0906
X7.9542Y-6.4197
X7.9764Y-4.3071
X8.0079Y-4.3425
T2
X2.7059Y-4.2898
X2.7059Y-4.3898
X2.7059Y-4.4898
X2.7165Y-4.6244
X2.7165Y-4.7244
X2.7165Y-4.8244
X2.8059Y-4.2898
X2.8059Y-4.3898
X2.8059Y-4.4898
T3
X2.7165Y-5.0276
X2.7165Y-5.9783
T4
X2.8307Y-6.4063
X2.8307Y-6.5622
T5
X2.7953Y-4.1142
X2.7953Y-6.2402
X3.6811Y-4.1142
X3.6811Y-6.2402
X8.1496Y-4.1142
X8.1496Y-6.2402
T0
M30
