G04 (created by PCBNEW (2013-07-07 BZR 4022)-stable) date 5/10/2014 5:07:10 PM*
%MOIN*%
G04 Gerber Fmt 3.4, Leading zero omitted, Abs format*
%FSLAX34Y34*%
G01*
G70*
G90*
G04 APERTURE LIST*
%ADD10C,0.00590551*%
%ADD11R,0.0905512X0.0905512*%
%ADD12C,0.0984252*%
%ADD13R,0.0472441X0.023622*%
%ADD14C,0.0629921*%
%ADD15R,0.06X0.06*%
%ADD16C,0.06*%
%ADD17C,0.16*%
%ADD18C,0.035*%
%ADD19C,0.01*%
%ADD20C,0.06*%
G04 APERTURE END LIST*
G54D10*
G54D11*
X28307Y-64062D03*
G54D12*
X28307Y-65622D03*
G54D13*
X78818Y-39183D03*
X78818Y-39557D03*
X77874Y-39557D03*
X77874Y-39183D03*
G54D14*
X27165Y-50275D03*
X27165Y-59783D03*
G54D15*
X28059Y-42897D03*
G54D16*
X27059Y-42897D03*
X28059Y-43897D03*
X27059Y-43897D03*
X28059Y-44897D03*
X27059Y-44897D03*
G54D15*
X27165Y-48244D03*
G54D16*
X27165Y-47244D03*
X27165Y-46244D03*
G54D13*
X78818Y-42726D03*
X78818Y-43100D03*
X77874Y-43100D03*
X77874Y-42726D03*
X54015Y-63986D03*
X54015Y-64360D03*
X53070Y-64360D03*
X53070Y-63986D03*
X57559Y-53356D03*
X57559Y-53730D03*
X56614Y-53730D03*
X56614Y-53356D03*
X57559Y-56899D03*
X57559Y-57273D03*
X56614Y-57273D03*
X56614Y-56899D03*
X57559Y-60442D03*
X57559Y-60816D03*
X56614Y-60816D03*
X56614Y-60442D03*
X57559Y-63986D03*
X57559Y-64360D03*
X56614Y-64360D03*
X56614Y-63986D03*
X50472Y-53356D03*
X50472Y-53730D03*
X49527Y-53730D03*
X49527Y-53356D03*
X50472Y-56899D03*
X50472Y-57273D03*
X49527Y-57273D03*
X49527Y-56899D03*
X50472Y-60442D03*
X50472Y-60816D03*
X49527Y-60816D03*
X49527Y-60442D03*
X50472Y-63986D03*
X50472Y-64360D03*
X49527Y-64360D03*
X49527Y-63986D03*
X54015Y-53356D03*
X54015Y-53730D03*
X53070Y-53730D03*
X53070Y-53356D03*
X54015Y-56899D03*
X54015Y-57273D03*
X53070Y-57273D03*
X53070Y-56899D03*
X54015Y-60442D03*
X54015Y-60816D03*
X53070Y-60816D03*
X53070Y-60442D03*
X61102Y-63986D03*
X61102Y-64360D03*
X60157Y-64360D03*
X60157Y-63986D03*
X46929Y-53356D03*
X46929Y-53730D03*
X45984Y-53730D03*
X45984Y-53356D03*
X46929Y-56899D03*
X46929Y-57273D03*
X45984Y-57273D03*
X45984Y-56899D03*
X46929Y-60442D03*
X46929Y-60816D03*
X45984Y-60816D03*
X45984Y-60442D03*
X46929Y-63986D03*
X46929Y-64360D03*
X45984Y-64360D03*
X45984Y-63986D03*
X43385Y-53356D03*
X43385Y-53730D03*
X42440Y-53730D03*
X42440Y-53356D03*
X43385Y-56899D03*
X43385Y-57273D03*
X42440Y-57273D03*
X42440Y-56899D03*
X43385Y-60442D03*
X43385Y-60816D03*
X42440Y-60816D03*
X42440Y-60442D03*
X43385Y-63986D03*
X43385Y-64360D03*
X42440Y-64360D03*
X42440Y-63986D03*
X39842Y-53356D03*
X39842Y-53730D03*
X38897Y-53730D03*
X38897Y-53356D03*
X39842Y-56899D03*
X39842Y-57273D03*
X38897Y-57273D03*
X38897Y-56899D03*
X64645Y-63986D03*
X64645Y-64360D03*
X63700Y-64360D03*
X63700Y-63986D03*
X78818Y-53356D03*
X78818Y-53730D03*
X77874Y-53730D03*
X77874Y-53356D03*
X78818Y-56899D03*
X78818Y-57273D03*
X77874Y-57273D03*
X77874Y-56899D03*
X78818Y-60442D03*
X78818Y-60816D03*
X77874Y-60816D03*
X77874Y-60442D03*
X78818Y-63986D03*
X78818Y-64360D03*
X77874Y-64360D03*
X77874Y-63986D03*
X71732Y-53356D03*
X71732Y-53730D03*
X70787Y-53730D03*
X70787Y-53356D03*
X71732Y-56899D03*
X71732Y-57273D03*
X70787Y-57273D03*
X70787Y-56899D03*
X71732Y-60442D03*
X71732Y-60816D03*
X70787Y-60816D03*
X70787Y-60442D03*
X71732Y-63986D03*
X71732Y-64360D03*
X70787Y-64360D03*
X70787Y-63986D03*
X64645Y-53356D03*
X64645Y-53730D03*
X63700Y-53730D03*
X63700Y-53356D03*
X64645Y-56899D03*
X64645Y-57273D03*
X63700Y-57273D03*
X63700Y-56899D03*
X64645Y-60442D03*
X64645Y-60816D03*
X63700Y-60816D03*
X63700Y-60442D03*
X39842Y-60442D03*
X39842Y-60816D03*
X38897Y-60816D03*
X38897Y-60442D03*
X75275Y-53356D03*
X75275Y-53730D03*
X74330Y-53730D03*
X74330Y-53356D03*
X75275Y-56899D03*
X75275Y-57273D03*
X74330Y-57273D03*
X74330Y-56899D03*
X75275Y-60442D03*
X75275Y-60816D03*
X74330Y-60816D03*
X74330Y-60442D03*
X75275Y-63986D03*
X75275Y-64360D03*
X74330Y-64360D03*
X74330Y-63986D03*
X68188Y-53356D03*
X68188Y-53730D03*
X67244Y-53730D03*
X67244Y-53356D03*
X68188Y-56899D03*
X68188Y-57273D03*
X67244Y-57273D03*
X67244Y-56899D03*
X68188Y-60442D03*
X68188Y-60816D03*
X67244Y-60816D03*
X67244Y-60442D03*
X61102Y-53356D03*
X61102Y-53730D03*
X60157Y-53730D03*
X60157Y-53356D03*
X61102Y-56899D03*
X61102Y-57273D03*
X60157Y-57273D03*
X60157Y-56899D03*
X61102Y-60442D03*
X61102Y-60816D03*
X60157Y-60816D03*
X60157Y-60442D03*
X64645Y-42726D03*
X64645Y-43100D03*
X63700Y-43100D03*
X63700Y-42726D03*
X57559Y-42726D03*
X57559Y-43100D03*
X56614Y-43100D03*
X56614Y-42726D03*
X57559Y-39183D03*
X57559Y-39557D03*
X56614Y-39557D03*
X56614Y-39183D03*
X61102Y-49812D03*
X61102Y-50187D03*
X60157Y-50187D03*
X60157Y-49812D03*
X61102Y-46269D03*
X61102Y-46643D03*
X60157Y-46643D03*
X60157Y-46269D03*
X61102Y-42726D03*
X61102Y-43100D03*
X60157Y-43100D03*
X60157Y-42726D03*
X61102Y-39183D03*
X61102Y-39557D03*
X60157Y-39557D03*
X60157Y-39183D03*
X68188Y-49812D03*
X68188Y-50187D03*
X67244Y-50187D03*
X67244Y-49812D03*
X68188Y-46269D03*
X68188Y-46643D03*
X67244Y-46643D03*
X67244Y-46269D03*
X68188Y-42726D03*
X68188Y-43100D03*
X67244Y-43100D03*
X67244Y-42726D03*
X68188Y-39183D03*
X68188Y-39557D03*
X67244Y-39557D03*
X67244Y-39183D03*
X64645Y-49812D03*
X64645Y-50187D03*
X63700Y-50187D03*
X63700Y-49812D03*
X57559Y-46269D03*
X57559Y-46643D03*
X56614Y-46643D03*
X56614Y-46269D03*
X64645Y-39183D03*
X64645Y-39557D03*
X63700Y-39557D03*
X63700Y-39183D03*
X71732Y-49812D03*
X71732Y-50187D03*
X70787Y-50187D03*
X70787Y-49812D03*
X71732Y-46269D03*
X71732Y-46643D03*
X70787Y-46643D03*
X70787Y-46269D03*
X71732Y-42726D03*
X71732Y-43100D03*
X70787Y-43100D03*
X70787Y-42726D03*
X71732Y-39183D03*
X71732Y-39557D03*
X70787Y-39557D03*
X70787Y-39183D03*
X75275Y-49812D03*
X75275Y-50187D03*
X74330Y-50187D03*
X74330Y-49812D03*
X75275Y-46269D03*
X75275Y-46643D03*
X74330Y-46643D03*
X74330Y-46269D03*
X75275Y-42726D03*
X75275Y-43100D03*
X74330Y-43100D03*
X74330Y-42726D03*
X75275Y-39183D03*
X75275Y-39557D03*
X74330Y-39557D03*
X74330Y-39183D03*
X78818Y-49812D03*
X78818Y-50187D03*
X77874Y-50187D03*
X77874Y-49812D03*
X54015Y-42726D03*
X54015Y-43100D03*
X53070Y-43100D03*
X53070Y-42726D03*
X39842Y-63986D03*
X39842Y-64360D03*
X38897Y-64360D03*
X38897Y-63986D03*
X39842Y-49812D03*
X39842Y-50187D03*
X38897Y-50187D03*
X38897Y-49812D03*
X39842Y-46269D03*
X39842Y-46643D03*
X38897Y-46643D03*
X38897Y-46269D03*
X39842Y-42726D03*
X39842Y-43100D03*
X38897Y-43100D03*
X38897Y-42726D03*
X39842Y-39183D03*
X39842Y-39557D03*
X38897Y-39557D03*
X38897Y-39183D03*
X46929Y-49812D03*
X46929Y-50187D03*
X45984Y-50187D03*
X45984Y-49812D03*
X46929Y-46269D03*
X46929Y-46643D03*
X45984Y-46643D03*
X45984Y-46269D03*
X46929Y-42726D03*
X46929Y-43100D03*
X45984Y-43100D03*
X45984Y-42726D03*
X46929Y-39183D03*
X46929Y-39557D03*
X45984Y-39557D03*
X45984Y-39183D03*
X54015Y-49812D03*
X54015Y-50187D03*
X53070Y-50187D03*
X53070Y-49812D03*
X54015Y-46269D03*
X54015Y-46643D03*
X53070Y-46643D03*
X53070Y-46269D03*
X78818Y-46269D03*
X78818Y-46643D03*
X77874Y-46643D03*
X77874Y-46269D03*
X54015Y-39183D03*
X54015Y-39557D03*
X53070Y-39557D03*
X53070Y-39183D03*
X43385Y-49812D03*
X43385Y-50187D03*
X42440Y-50187D03*
X42440Y-49812D03*
X43385Y-46269D03*
X43385Y-46643D03*
X42440Y-46643D03*
X42440Y-46269D03*
X43385Y-42726D03*
X43385Y-43100D03*
X42440Y-43100D03*
X42440Y-42726D03*
X43385Y-39183D03*
X43385Y-39557D03*
X42440Y-39557D03*
X42440Y-39183D03*
X50472Y-49812D03*
X50472Y-50187D03*
X49527Y-50187D03*
X49527Y-49812D03*
X50472Y-46269D03*
X50472Y-46643D03*
X49527Y-46643D03*
X49527Y-46269D03*
X50472Y-42726D03*
X50472Y-43100D03*
X49527Y-43100D03*
X49527Y-42726D03*
X50472Y-39183D03*
X50472Y-39557D03*
X49527Y-39557D03*
X49527Y-39183D03*
X57559Y-49812D03*
X57559Y-50187D03*
X56614Y-50187D03*
X56614Y-49812D03*
X64645Y-46269D03*
X64645Y-46643D03*
X63700Y-46643D03*
X63700Y-46269D03*
X68188Y-63986D03*
X68188Y-64360D03*
X67244Y-64360D03*
X67244Y-63986D03*
G54D17*
X81496Y-62401D03*
X81496Y-41141D03*
X27952Y-62401D03*
X36811Y-62401D03*
X36811Y-41141D03*
X27952Y-41141D03*
G54D18*
X31306Y-46298D03*
X29852Y-44973D03*
X33331Y-47198D03*
X30904Y-47198D03*
X32065Y-61981D03*
X34666Y-61216D03*
X53582Y-63346D03*
X78307Y-40196D03*
X71220Y-40196D03*
X64133Y-40196D03*
X57047Y-40196D03*
X49960Y-40196D03*
X42874Y-40196D03*
X67755Y-63346D03*
X60669Y-63346D03*
X44657Y-38917D03*
X44232Y-40223D03*
X73084Y-62987D03*
X59133Y-40196D03*
X56703Y-48772D03*
X37644Y-48772D03*
X66231Y-63076D03*
X57893Y-62996D03*
X58015Y-62159D03*
X58198Y-59165D03*
X54080Y-48896D03*
X69607Y-55255D03*
X73319Y-63995D03*
X75309Y-63470D03*
X71732Y-62598D03*
X78818Y-62598D03*
X74330Y-40944D03*
X72700Y-43829D03*
X45984Y-40944D03*
X38897Y-40944D03*
X64645Y-62598D03*
X57559Y-62598D03*
X50472Y-62598D03*
X43385Y-62598D03*
X58916Y-62598D03*
X37972Y-48440D03*
X54118Y-48440D03*
X79188Y-61862D03*
X39114Y-55665D03*
X43167Y-55665D03*
X44705Y-59561D03*
X66913Y-55255D03*
X66038Y-59252D03*
X47646Y-48440D03*
X36763Y-39840D03*
X34351Y-41270D03*
X30613Y-45008D03*
X79173Y-41220D03*
X73858Y-61299D03*
X66771Y-61299D03*
X68975Y-58731D03*
X59685Y-61299D03*
X52598Y-61299D03*
X45511Y-61299D03*
X38425Y-61299D03*
X50963Y-41558D03*
X73321Y-39144D03*
X58059Y-41549D03*
X43847Y-41444D03*
X73212Y-44897D03*
X66190Y-41992D03*
X66112Y-41177D03*
X65062Y-41177D03*
X71714Y-55643D03*
X73321Y-41318D03*
X72138Y-41318D03*
X51735Y-55688D03*
X60110Y-55643D03*
X59305Y-59294D03*
X51122Y-54501D03*
X41169Y-54245D03*
X40583Y-57591D03*
X52466Y-59187D03*
X48444Y-54501D03*
X48300Y-58401D03*
X37758Y-41955D03*
X54876Y-54576D03*
X54984Y-59224D03*
X53385Y-62401D03*
X43267Y-41141D03*
X52250Y-58503D03*
X52462Y-54576D03*
X46102Y-62401D03*
X41595Y-54469D03*
X40838Y-59216D03*
X64777Y-48440D03*
X65320Y-44126D03*
X78700Y-41141D03*
X71614Y-41141D03*
X64527Y-41141D03*
X57440Y-41141D03*
X50354Y-41141D03*
X74448Y-62401D03*
X39015Y-62401D03*
X68795Y-54917D03*
X79541Y-64197D03*
X78515Y-54781D03*
X61621Y-49733D03*
X58844Y-54445D03*
X38184Y-48015D03*
X78818Y-41614D03*
X79448Y-39960D03*
X38267Y-55000D03*
X59224Y-62261D03*
X58861Y-59527D03*
X58607Y-54853D03*
X61137Y-63507D03*
X63593Y-63507D03*
X75802Y-53396D03*
X44155Y-57112D03*
X45821Y-54901D03*
X45312Y-56590D03*
X50635Y-54989D03*
X79015Y-45787D03*
X78976Y-43661D03*
X71929Y-45787D03*
X71889Y-43661D03*
X64842Y-45787D03*
X64803Y-43661D03*
X57755Y-45787D03*
X57716Y-43661D03*
X50669Y-45787D03*
X50629Y-43661D03*
X43582Y-45787D03*
X43543Y-43661D03*
X38095Y-55473D03*
X47425Y-55598D03*
X62165Y-59173D03*
X60275Y-62874D03*
X62016Y-54220D03*
X51615Y-40406D03*
X50354Y-40669D03*
X69792Y-59226D03*
X67362Y-62874D03*
X78700Y-40669D03*
X71614Y-40669D03*
X64527Y-40669D03*
X57440Y-40669D03*
X43267Y-40669D03*
X44444Y-45100D03*
X54537Y-54121D03*
X71231Y-54220D03*
X28815Y-46885D03*
X31987Y-46810D03*
X38897Y-41496D03*
X36023Y-57874D03*
X75787Y-65157D03*
X68661Y-65157D03*
X61614Y-65157D03*
X54566Y-65157D03*
X47480Y-65118D03*
X40393Y-65078D03*
X76771Y-37992D03*
X69685Y-37992D03*
X62598Y-37992D03*
X55511Y-37992D03*
X48425Y-37992D03*
X41338Y-37992D03*
X34898Y-37992D03*
X29242Y-42814D03*
X36134Y-46008D03*
X32354Y-65405D03*
X72677Y-43070D03*
X74330Y-41496D03*
X71732Y-41614D03*
X70236Y-39527D03*
X70236Y-39055D03*
X72992Y-43425D03*
X66811Y-42322D03*
X70944Y-47204D03*
X66653Y-39685D03*
X70905Y-45826D03*
X66692Y-39173D03*
X70196Y-50196D03*
X70551Y-49370D03*
X66653Y-50236D03*
X66653Y-49763D03*
X63464Y-49370D03*
X67244Y-41496D03*
X64645Y-41614D03*
X63149Y-39527D03*
X63149Y-39055D03*
X65590Y-43070D03*
X65905Y-43425D03*
X59724Y-42322D03*
X63858Y-47204D03*
X59566Y-39685D03*
X63818Y-45826D03*
X59606Y-39173D03*
X63110Y-50196D03*
X59566Y-50236D03*
X59566Y-49763D03*
X59566Y-46614D03*
X59370Y-45984D03*
X59527Y-42755D03*
X77637Y-49370D03*
X77322Y-39527D03*
X77322Y-39055D03*
X79763Y-43070D03*
X80078Y-43425D03*
X73897Y-42322D03*
X78031Y-47204D03*
X73740Y-39685D03*
X77992Y-45826D03*
X73779Y-39173D03*
X77283Y-50196D03*
X73740Y-50236D03*
X73740Y-49763D03*
X73740Y-46614D03*
X73543Y-45984D03*
X73700Y-42755D03*
X66653Y-46614D03*
X66456Y-45984D03*
X66614Y-42755D03*
X67244Y-52874D03*
X66732Y-53740D03*
X67283Y-56496D03*
X66732Y-57283D03*
X66338Y-59842D03*
X66141Y-60275D03*
X67007Y-63543D03*
X66535Y-60866D03*
X70275Y-53740D03*
X70236Y-53267D03*
X71417Y-57677D03*
X71889Y-58110D03*
X72244Y-59724D03*
X72362Y-60905D03*
X71141Y-64763D03*
X71771Y-63464D03*
X73818Y-57283D03*
X74330Y-52874D03*
X73818Y-53740D03*
X74370Y-56496D03*
X73425Y-59842D03*
X73228Y-60275D03*
X74094Y-63543D03*
X73622Y-60866D03*
X68921Y-53600D03*
X66161Y-53961D03*
X66006Y-62047D03*
X64645Y-62047D03*
X67244Y-61929D03*
X69315Y-57988D03*
X60157Y-61929D03*
X57559Y-62047D03*
X62152Y-58577D03*
X62140Y-55314D03*
X56083Y-55314D03*
X55519Y-59230D03*
X74330Y-61929D03*
X71732Y-62047D03*
X60157Y-52874D03*
X59645Y-53740D03*
X59921Y-63543D03*
X59448Y-60866D03*
X59251Y-59842D03*
X59055Y-60275D03*
X60196Y-56496D03*
X59645Y-57283D03*
X78858Y-63464D03*
X78228Y-64763D03*
X79448Y-60905D03*
X79330Y-59724D03*
X78976Y-58110D03*
X78503Y-57677D03*
X77322Y-53267D03*
X77362Y-53740D03*
X65157Y-59724D03*
X64685Y-63464D03*
X64055Y-64763D03*
X65275Y-60905D03*
X64803Y-58110D03*
X64330Y-57677D03*
X63149Y-53267D03*
X63188Y-53740D03*
X45078Y-59842D03*
X43818Y-62755D03*
X45984Y-61929D03*
X45393Y-63897D03*
X45275Y-60866D03*
X45118Y-62165D03*
X45748Y-63543D03*
X44881Y-60275D03*
X51102Y-60905D03*
X45472Y-57283D03*
X49842Y-64763D03*
X46023Y-56496D03*
X50511Y-63464D03*
X45472Y-53740D03*
X45984Y-52874D03*
X49015Y-53740D03*
X48976Y-53267D03*
X52362Y-60866D03*
X52834Y-63543D03*
X51968Y-60275D03*
X52165Y-59842D03*
X58188Y-60905D03*
X52559Y-57283D03*
X56968Y-64763D03*
X53110Y-56496D03*
X57598Y-63464D03*
X52559Y-53740D03*
X53070Y-52874D03*
X50157Y-57677D03*
X56102Y-53740D03*
X56062Y-53267D03*
X57244Y-57677D03*
X57716Y-58110D03*
X58070Y-59724D03*
X38188Y-60866D03*
X38661Y-63543D03*
X37795Y-60275D03*
X37992Y-59842D03*
X44015Y-60905D03*
X38385Y-57283D03*
X42795Y-64763D03*
X38937Y-56496D03*
X43425Y-63464D03*
X38385Y-53740D03*
X38897Y-52874D03*
X41929Y-53740D03*
X41889Y-53267D03*
X43070Y-57677D03*
X43543Y-58110D03*
X43897Y-59724D03*
X50629Y-58110D03*
X50984Y-59724D03*
X53070Y-61929D03*
X50472Y-62047D03*
X55062Y-58529D03*
X55082Y-55338D03*
X48138Y-55338D03*
X48449Y-57583D03*
X49291Y-49370D03*
X48937Y-50196D03*
X49645Y-45826D03*
X49685Y-47204D03*
X51574Y-43543D03*
X51417Y-43070D03*
X48976Y-39055D03*
X48976Y-39527D03*
X45393Y-50236D03*
X45393Y-49763D03*
X45393Y-46614D03*
X45196Y-45984D03*
X45354Y-42755D03*
X45551Y-42322D03*
X45393Y-39685D03*
X45433Y-39173D03*
X52480Y-46614D03*
X42598Y-47204D03*
X42204Y-49370D03*
X41850Y-50196D03*
X42559Y-45826D03*
X44645Y-43425D03*
X44330Y-43070D03*
X41889Y-39055D03*
X41889Y-39527D03*
X53070Y-41496D03*
X50472Y-41614D03*
X60157Y-41496D03*
X57559Y-41614D03*
X44290Y-44268D03*
X45047Y-40787D03*
X43385Y-41614D03*
X45984Y-41456D03*
X56023Y-50196D03*
X56377Y-49370D03*
X56062Y-39055D03*
X56062Y-39527D03*
X58818Y-43425D03*
X58503Y-43070D03*
X56732Y-45826D03*
X56771Y-47204D03*
X38307Y-39685D03*
X38346Y-39173D03*
X38464Y-42322D03*
X38267Y-42755D03*
X38110Y-45984D03*
X38307Y-46614D03*
X38307Y-49763D03*
X38307Y-50236D03*
X52519Y-39173D03*
X52480Y-39685D03*
X52637Y-42322D03*
X52440Y-42755D03*
X52283Y-45984D03*
X52480Y-49763D03*
X52480Y-50236D03*
G54D19*
X30718Y-46298D02*
X31306Y-46298D01*
X28817Y-44397D02*
X30718Y-46298D01*
X27559Y-44397D02*
X28817Y-44397D01*
X27059Y-43897D02*
X27559Y-44397D01*
X28777Y-43897D02*
X28059Y-43897D01*
X29852Y-44973D02*
X28777Y-43897D01*
X30904Y-47198D02*
X33331Y-47198D01*
X33901Y-61981D02*
X32065Y-61981D01*
X34666Y-61216D02*
X33901Y-61981D01*
X42900Y-40223D02*
X44232Y-40223D01*
X42874Y-40196D02*
X42900Y-40223D01*
X44736Y-38838D02*
X44657Y-38917D01*
X46206Y-38838D02*
X44736Y-38838D01*
X46370Y-39002D02*
X46206Y-38838D01*
X46370Y-39565D02*
X46370Y-39002D01*
X47002Y-40196D02*
X46370Y-39565D01*
X49960Y-40196D02*
X47002Y-40196D01*
X50076Y-40081D02*
X49960Y-40196D01*
X56931Y-40081D02*
X50076Y-40081D01*
X57047Y-40196D02*
X56931Y-40081D01*
X68114Y-62987D02*
X73084Y-62987D01*
X67755Y-63346D02*
X68114Y-62987D01*
X60938Y-63076D02*
X66231Y-63076D01*
X60669Y-63346D02*
X60938Y-63076D01*
X54080Y-48896D02*
X54080Y-48772D01*
X56703Y-48772D02*
X54080Y-48772D01*
X58396Y-59362D02*
X58198Y-59165D01*
X58396Y-60648D02*
X58396Y-59362D01*
X58514Y-60766D02*
X58396Y-60648D01*
X58514Y-61659D02*
X58514Y-60766D01*
X58015Y-62159D02*
X58514Y-61659D01*
X53932Y-62996D02*
X57893Y-62996D01*
X53582Y-63346D02*
X53932Y-62996D01*
X50284Y-48772D02*
X37644Y-48772D01*
X50373Y-48682D02*
X50284Y-48772D01*
X50762Y-48682D02*
X50373Y-48682D01*
X50851Y-48772D02*
X50762Y-48682D01*
X54080Y-48772D02*
X50851Y-48772D01*
X64133Y-40196D02*
X71220Y-40196D01*
X71220Y-40196D02*
X78307Y-40196D01*
X57047Y-40196D02*
X59133Y-40196D01*
X59133Y-40196D02*
X64133Y-40196D01*
X73418Y-63896D02*
X73319Y-63995D01*
X73418Y-62853D02*
X73418Y-63896D01*
X73163Y-62598D02*
X73418Y-62853D01*
X71732Y-62598D02*
X73163Y-62598D01*
X76181Y-62598D02*
X75309Y-63470D01*
X78818Y-62598D02*
X76181Y-62598D01*
X74200Y-43829D02*
X72700Y-43829D01*
X74731Y-43297D02*
X74200Y-43829D01*
X74731Y-41346D02*
X74731Y-43297D01*
X74330Y-40944D02*
X74731Y-41346D01*
X77756Y-55255D02*
X69607Y-55255D01*
X79792Y-57292D02*
X77756Y-55255D01*
X79792Y-61257D02*
X79792Y-57292D01*
X79188Y-61862D02*
X79792Y-61257D01*
X57559Y-62598D02*
X58916Y-62598D01*
X44538Y-61446D02*
X43385Y-62598D01*
X44538Y-59906D02*
X44538Y-61446D01*
X44794Y-59650D02*
X44538Y-59906D01*
X44705Y-59561D02*
X44794Y-59650D01*
X39114Y-55665D02*
X43167Y-55665D01*
X64302Y-62255D02*
X64645Y-62598D01*
X64302Y-61916D02*
X64302Y-62255D01*
X64598Y-61620D02*
X64302Y-61916D01*
X65027Y-61620D02*
X64598Y-61620D01*
X65690Y-60957D02*
X65027Y-61620D01*
X65690Y-59600D02*
X65690Y-60957D01*
X66038Y-59252D02*
X65690Y-59600D01*
X69607Y-55255D02*
X66913Y-55255D01*
X44931Y-59513D02*
X44794Y-59650D01*
X45632Y-59513D02*
X44931Y-59513D01*
X46370Y-60251D02*
X45632Y-59513D01*
X46370Y-60842D02*
X46370Y-60251D01*
X48126Y-62598D02*
X46370Y-60842D01*
X50472Y-62598D02*
X48126Y-62598D01*
X38897Y-40944D02*
X38897Y-40483D01*
X44892Y-39852D02*
X45984Y-40944D01*
X39066Y-39852D02*
X44892Y-39852D01*
X38897Y-40022D02*
X39066Y-39852D01*
X38897Y-40483D02*
X38897Y-40022D01*
X34351Y-41270D02*
X30613Y-45008D01*
X37407Y-39840D02*
X36763Y-39840D01*
X38050Y-40483D02*
X37407Y-39840D01*
X38897Y-40483D02*
X38050Y-40483D01*
X54118Y-48440D02*
X47646Y-48440D01*
X47646Y-48440D02*
X37972Y-48440D01*
X67716Y-43194D02*
X67716Y-42596D01*
X66646Y-44264D02*
X67716Y-43194D01*
X65642Y-44264D02*
X66646Y-44264D01*
X65442Y-44464D02*
X65642Y-44264D01*
X64413Y-44464D02*
X65442Y-44464D01*
X64296Y-44347D02*
X64413Y-44464D01*
X63685Y-44347D02*
X64296Y-44347D01*
X63601Y-44264D02*
X63685Y-44347D01*
X61795Y-42458D02*
X63601Y-44264D01*
X60609Y-42458D02*
X61795Y-42458D01*
X60543Y-42523D02*
X60609Y-42458D01*
X68280Y-61299D02*
X66771Y-61299D01*
X68975Y-60604D02*
X68280Y-61299D01*
X68975Y-58731D02*
X68975Y-60604D01*
X59570Y-41549D02*
X60543Y-42523D01*
X58059Y-41549D02*
X59570Y-41549D01*
X71499Y-44897D02*
X73212Y-44897D01*
X69059Y-42458D02*
X71499Y-44897D01*
X67854Y-42458D02*
X69059Y-42458D01*
X67716Y-42596D02*
X67854Y-42458D01*
X66112Y-41177D02*
X65062Y-41177D01*
X67112Y-41992D02*
X66190Y-41992D01*
X67716Y-42596D02*
X67112Y-41992D01*
X72138Y-41318D02*
X73321Y-41318D01*
X51622Y-41558D02*
X50963Y-41558D01*
X52061Y-41997D02*
X51622Y-41558D01*
X73627Y-38838D02*
X73321Y-39144D01*
X74556Y-38838D02*
X73627Y-38838D01*
X74831Y-39113D02*
X74556Y-38838D01*
X74831Y-39714D02*
X74831Y-39113D01*
X74988Y-39871D02*
X74831Y-39714D01*
X78886Y-39871D02*
X74988Y-39871D01*
X78986Y-39971D02*
X78886Y-39871D01*
X79173Y-40158D02*
X78986Y-39971D01*
X79173Y-41220D02*
X79173Y-40158D01*
X60543Y-43299D02*
X60543Y-42523D01*
X59566Y-44277D02*
X60543Y-43299D01*
X56162Y-44277D02*
X59566Y-44277D01*
X53883Y-41997D02*
X56162Y-44277D01*
X52061Y-41997D02*
X53883Y-41997D01*
X71714Y-55643D02*
X60110Y-55643D01*
X60241Y-61299D02*
X59685Y-61299D01*
X60543Y-60997D02*
X60241Y-61299D01*
X60543Y-60262D02*
X60543Y-60997D01*
X59575Y-59294D02*
X60543Y-60262D01*
X59305Y-59294D02*
X59575Y-59294D01*
X40475Y-57700D02*
X40583Y-57591D01*
X40475Y-60765D02*
X40475Y-57700D01*
X39941Y-61299D02*
X40475Y-60765D01*
X38425Y-61299D02*
X39941Y-61299D01*
X60065Y-55688D02*
X60110Y-55643D01*
X51735Y-55688D02*
X60065Y-55688D01*
X53457Y-60177D02*
X52466Y-59187D01*
X53457Y-61004D02*
X53457Y-60177D01*
X53162Y-61299D02*
X53457Y-61004D01*
X52598Y-61299D02*
X53162Y-61299D01*
X51122Y-54501D02*
X48444Y-54501D01*
X48300Y-60578D02*
X48300Y-58401D01*
X49380Y-61658D02*
X48300Y-60578D01*
X50582Y-61658D02*
X49380Y-61658D01*
X50797Y-61874D02*
X50582Y-61658D01*
X50797Y-62756D02*
X50797Y-61874D01*
X50618Y-62936D02*
X50797Y-62756D01*
X47916Y-62936D02*
X50618Y-62936D01*
X46279Y-61299D02*
X47916Y-62936D01*
X45511Y-61299D02*
X46279Y-61299D01*
X42923Y-54501D02*
X48444Y-54501D01*
X42625Y-54799D02*
X42923Y-54501D01*
X41458Y-54799D02*
X42625Y-54799D01*
X41169Y-54511D02*
X41458Y-54799D01*
X41169Y-54245D02*
X41169Y-54511D01*
X45928Y-42194D02*
X46456Y-42194D01*
X45179Y-41444D02*
X45928Y-42194D01*
X43847Y-41444D02*
X45179Y-41444D01*
X52061Y-43557D02*
X52061Y-41997D01*
X51348Y-44271D02*
X52061Y-43557D01*
X49612Y-44271D02*
X51348Y-44271D01*
X47536Y-42194D02*
X49612Y-44271D01*
X46456Y-42194D02*
X47536Y-42194D01*
X40138Y-41955D02*
X37758Y-41955D01*
X43625Y-45442D02*
X40138Y-41955D01*
X44578Y-45442D02*
X43625Y-45442D01*
X46456Y-43563D02*
X44578Y-45442D01*
X46456Y-42194D02*
X46456Y-43563D01*
X54984Y-60802D02*
X53385Y-62401D01*
X54984Y-59224D02*
X54984Y-60802D01*
X57562Y-41020D02*
X57440Y-41141D01*
X59996Y-41020D02*
X57562Y-41020D01*
X60118Y-41141D02*
X59996Y-41020D01*
X61984Y-41141D02*
X60118Y-41141D01*
X55252Y-41141D02*
X57440Y-41141D01*
X55048Y-40937D02*
X55252Y-41141D01*
X50558Y-40937D02*
X55048Y-40937D01*
X50354Y-41141D02*
X50558Y-40937D01*
X43304Y-41104D02*
X43267Y-41141D01*
X44602Y-41104D02*
X43304Y-41104D01*
X44650Y-41153D02*
X44602Y-41104D01*
X45208Y-41153D02*
X44650Y-41153D01*
X45840Y-41785D02*
X45208Y-41153D01*
X45840Y-41822D02*
X45840Y-41785D01*
X49673Y-41822D02*
X45840Y-41822D01*
X50354Y-41141D02*
X49673Y-41822D01*
X46837Y-63136D02*
X46102Y-62401D01*
X50761Y-63136D02*
X46837Y-63136D01*
X51444Y-62453D02*
X50761Y-63136D01*
X51444Y-59309D02*
X51444Y-62453D01*
X52250Y-58503D02*
X51444Y-59309D01*
X52062Y-54175D02*
X52462Y-54576D01*
X41888Y-54175D02*
X52062Y-54175D01*
X41595Y-54469D02*
X41888Y-54175D01*
X62914Y-48440D02*
X64777Y-48440D01*
X62076Y-49278D02*
X62914Y-48440D01*
X61984Y-41958D02*
X61984Y-41141D01*
X64028Y-44002D02*
X61984Y-41958D01*
X64317Y-44002D02*
X64028Y-44002D01*
X64579Y-44264D02*
X64317Y-44002D01*
X65000Y-44264D02*
X64579Y-44264D01*
X65138Y-44126D02*
X65000Y-44264D01*
X65320Y-44126D02*
X65138Y-44126D01*
X79541Y-62844D02*
X79541Y-64197D01*
X78961Y-62263D02*
X79541Y-62844D01*
X74587Y-62263D02*
X78961Y-62263D01*
X74448Y-62401D02*
X74587Y-62263D01*
X78380Y-54917D02*
X68795Y-54917D01*
X78515Y-54781D02*
X78380Y-54917D01*
X39015Y-62401D02*
X39121Y-62401D01*
X72137Y-40618D02*
X71614Y-41141D01*
X75277Y-40618D02*
X72137Y-40618D01*
X75801Y-41141D02*
X75277Y-40618D01*
X78700Y-41141D02*
X75801Y-41141D01*
X67902Y-41141D02*
X71614Y-41141D01*
X67369Y-40608D02*
X67902Y-41141D01*
X65060Y-40608D02*
X67369Y-40608D01*
X64527Y-41141D02*
X65060Y-40608D01*
X61984Y-41141D02*
X64527Y-41141D01*
X55007Y-54445D02*
X54876Y-54576D01*
X58844Y-54445D02*
X55007Y-54445D01*
X52462Y-54576D02*
X54876Y-54576D01*
X60812Y-48015D02*
X62076Y-49278D01*
X38184Y-48015D02*
X60812Y-48015D01*
X62076Y-49278D02*
X61621Y-49733D01*
X39173Y-62401D02*
X39121Y-62401D01*
X40838Y-60736D02*
X39173Y-62401D01*
X40838Y-59216D02*
X40838Y-60736D01*
X39121Y-62401D02*
X39015Y-62401D01*
X79409Y-41614D02*
X78818Y-41614D01*
X79527Y-41496D02*
X79409Y-41614D01*
X79527Y-40039D02*
X79527Y-41496D01*
X79448Y-39960D02*
X79527Y-40039D01*
X44271Y-54901D02*
X45821Y-54901D01*
X44173Y-55000D02*
X44271Y-54901D01*
X38267Y-55000D02*
X44173Y-55000D01*
X44676Y-56590D02*
X45312Y-56590D01*
X44155Y-57112D02*
X44676Y-56590D01*
X58711Y-59676D02*
X58861Y-59527D01*
X58711Y-60580D02*
X58711Y-59676D01*
X58911Y-60780D02*
X58711Y-60580D01*
X58911Y-61949D02*
X58911Y-60780D01*
X59224Y-62261D02*
X58911Y-61949D01*
X61137Y-63507D02*
X63593Y-63507D01*
X75802Y-53770D02*
X75802Y-53396D01*
X74980Y-54592D02*
X75802Y-53770D01*
X59157Y-54592D02*
X74980Y-54592D01*
X58896Y-54853D02*
X59157Y-54592D01*
X58607Y-54853D02*
X58896Y-54853D01*
X58471Y-54989D02*
X50635Y-54989D01*
X58607Y-54853D02*
X58471Y-54989D01*
X45909Y-54989D02*
X50635Y-54989D01*
X45821Y-54901D02*
X45909Y-54989D01*
X78818Y-45984D02*
X78818Y-46269D01*
X79015Y-45787D02*
X78818Y-45984D01*
X78818Y-43503D02*
X78976Y-43661D01*
X78818Y-43100D02*
X78818Y-43503D01*
X75275Y-46968D02*
X74606Y-47637D01*
X75275Y-46643D02*
X75275Y-46968D01*
X78818Y-46968D02*
X78149Y-47637D01*
X78818Y-46643D02*
X78818Y-46968D01*
X74606Y-47637D02*
X78149Y-47637D01*
X78218Y-50787D02*
X78818Y-50187D01*
X74675Y-50787D02*
X78218Y-50787D01*
X74675Y-50787D02*
X75275Y-50187D01*
X71131Y-50787D02*
X74675Y-50787D01*
X75275Y-46269D02*
X75275Y-43100D01*
X75275Y-46643D02*
X75275Y-46269D01*
X75275Y-50187D02*
X75275Y-49812D01*
X78818Y-49812D02*
X78818Y-50187D01*
X78818Y-46269D02*
X78818Y-46643D01*
X78818Y-42726D02*
X78818Y-43100D01*
X75275Y-42726D02*
X75275Y-43100D01*
X78818Y-39557D02*
X78818Y-39183D01*
X75275Y-39557D02*
X75275Y-39183D01*
X75246Y-42726D02*
X75275Y-42726D01*
X75275Y-39133D02*
X75275Y-39183D01*
X78818Y-39183D02*
X78818Y-39557D01*
X75275Y-39183D02*
X75275Y-39557D01*
X71732Y-45984D02*
X71732Y-46269D01*
X71929Y-45787D02*
X71732Y-45984D01*
X71732Y-43503D02*
X71889Y-43661D01*
X71732Y-43100D02*
X71732Y-43503D01*
X68188Y-46968D02*
X67519Y-47637D01*
X68188Y-46643D02*
X68188Y-46968D01*
X71732Y-46968D02*
X71062Y-47637D01*
X71732Y-46643D02*
X71732Y-46968D01*
X67519Y-47637D02*
X71062Y-47637D01*
X67588Y-50787D02*
X68188Y-50187D01*
X67519Y-38582D02*
X65551Y-38582D01*
X68188Y-46269D02*
X68188Y-43100D01*
X68188Y-46643D02*
X68188Y-46269D01*
X68188Y-50187D02*
X68188Y-49812D01*
X71732Y-49812D02*
X71732Y-50187D01*
X71732Y-46269D02*
X71732Y-46643D01*
X71732Y-42726D02*
X71732Y-43100D01*
X68188Y-42726D02*
X68188Y-43100D01*
X71732Y-39557D02*
X71732Y-39183D01*
X68188Y-39557D02*
X68188Y-39183D01*
X68159Y-42726D02*
X68188Y-42726D01*
X68188Y-39133D02*
X68188Y-39183D01*
X71732Y-39183D02*
X71732Y-39557D01*
X68188Y-39183D02*
X68188Y-39557D01*
X64645Y-45984D02*
X64645Y-46269D01*
X64842Y-45787D02*
X64645Y-45984D01*
X64645Y-43503D02*
X64803Y-43661D01*
X64645Y-43100D02*
X64645Y-43503D01*
X61102Y-46968D02*
X60433Y-47637D01*
X61102Y-46643D02*
X61102Y-46968D01*
X64645Y-46968D02*
X63976Y-47637D01*
X64645Y-46643D02*
X64645Y-46968D01*
X60433Y-47637D02*
X63976Y-47637D01*
X60501Y-50787D02*
X61102Y-50187D01*
X60433Y-38582D02*
X58464Y-38582D01*
X61102Y-46269D02*
X61102Y-43100D01*
X61102Y-46643D02*
X61102Y-46269D01*
X61102Y-50187D02*
X61102Y-49812D01*
X64645Y-49812D02*
X64645Y-50187D01*
X64645Y-46269D02*
X64645Y-46643D01*
X64645Y-42726D02*
X64645Y-43100D01*
X61102Y-42726D02*
X61102Y-43100D01*
X64645Y-39557D02*
X64645Y-39183D01*
X61102Y-39557D02*
X61102Y-39183D01*
X61072Y-42726D02*
X61102Y-42726D01*
X61102Y-39133D02*
X61102Y-39183D01*
X64645Y-39183D02*
X64645Y-39557D01*
X61102Y-39183D02*
X61102Y-39557D01*
X57559Y-45984D02*
X57559Y-46269D01*
X57755Y-45787D02*
X57559Y-45984D01*
X57559Y-43503D02*
X57716Y-43661D01*
X57559Y-43100D02*
X57559Y-43503D01*
X54015Y-46968D02*
X53346Y-47637D01*
X54015Y-46643D02*
X54015Y-46968D01*
X57559Y-46968D02*
X56889Y-47637D01*
X57559Y-46643D02*
X57559Y-46968D01*
X53346Y-47637D02*
X56889Y-47637D01*
X53415Y-50787D02*
X54015Y-50187D01*
X53346Y-38582D02*
X51377Y-38582D01*
X54015Y-46269D02*
X54015Y-43100D01*
X54015Y-46643D02*
X54015Y-46269D01*
X54015Y-50187D02*
X54015Y-49812D01*
X57559Y-49812D02*
X57559Y-50187D01*
X57559Y-46269D02*
X57559Y-46643D01*
X57559Y-42726D02*
X57559Y-43100D01*
X54015Y-42726D02*
X54015Y-43100D01*
X57559Y-39557D02*
X57559Y-39183D01*
X54015Y-39557D02*
X54015Y-39183D01*
X53986Y-42726D02*
X54015Y-42726D01*
X54015Y-39133D02*
X54015Y-39183D01*
X57559Y-39183D02*
X57559Y-39557D01*
X54015Y-39183D02*
X54015Y-39557D01*
X50472Y-45984D02*
X50472Y-46269D01*
X50669Y-45787D02*
X50472Y-45984D01*
X50472Y-43503D02*
X50629Y-43661D01*
X50472Y-43100D02*
X50472Y-43503D01*
X46929Y-46968D02*
X46259Y-47637D01*
X46929Y-46643D02*
X46929Y-46968D01*
X50472Y-46968D02*
X49803Y-47637D01*
X50472Y-46643D02*
X50472Y-46968D01*
X46259Y-47637D02*
X49803Y-47637D01*
X46328Y-50787D02*
X46929Y-50187D01*
X46259Y-38582D02*
X44291Y-38582D01*
X46929Y-46269D02*
X46929Y-43100D01*
X46929Y-46643D02*
X46929Y-46269D01*
X46929Y-50187D02*
X46929Y-49812D01*
X50472Y-49812D02*
X50472Y-50187D01*
X50472Y-46269D02*
X50472Y-46643D01*
X50472Y-42726D02*
X50472Y-43100D01*
X46929Y-42726D02*
X46929Y-43100D01*
X50472Y-39557D02*
X50472Y-39183D01*
X46929Y-39557D02*
X46929Y-39183D01*
X46899Y-42726D02*
X46929Y-42726D01*
X46929Y-39133D02*
X46929Y-39183D01*
X50472Y-39183D02*
X50472Y-39557D01*
X46929Y-39183D02*
X46929Y-39557D01*
X43385Y-45984D02*
X43385Y-46269D01*
X43582Y-45787D02*
X43385Y-45984D01*
X43385Y-43503D02*
X43543Y-43661D01*
X43385Y-43100D02*
X43385Y-43503D01*
X57559Y-56535D02*
X57047Y-56023D01*
X57559Y-56899D02*
X57559Y-56535D01*
X57559Y-56899D02*
X57559Y-57273D01*
X64645Y-56899D02*
X64645Y-57273D01*
X39842Y-46968D02*
X39173Y-47637D01*
X39842Y-46643D02*
X39842Y-46968D01*
X43385Y-46968D02*
X42716Y-47637D01*
X43385Y-46643D02*
X43385Y-46968D01*
X39242Y-50787D02*
X39842Y-50187D01*
X37598Y-50787D02*
X39242Y-50787D01*
X37007Y-51377D02*
X37598Y-50787D01*
X39173Y-38582D02*
X37204Y-38582D01*
X39842Y-46269D02*
X39842Y-43100D01*
X39842Y-46643D02*
X39842Y-46269D01*
X39842Y-50187D02*
X39842Y-49812D01*
X43385Y-49812D02*
X43385Y-50187D01*
X43385Y-46269D02*
X43385Y-46643D01*
X43385Y-42726D02*
X43385Y-43100D01*
X39842Y-42726D02*
X39842Y-43100D01*
X43385Y-39557D02*
X43385Y-39183D01*
X39842Y-39557D02*
X39842Y-39183D01*
X39812Y-42726D02*
X39842Y-42726D01*
X39842Y-39133D02*
X39842Y-39183D01*
X43385Y-39183D02*
X43385Y-39557D01*
X39842Y-39183D02*
X39842Y-39557D01*
X39842Y-56417D02*
X39448Y-56023D01*
X39842Y-56899D02*
X39842Y-56417D01*
X43385Y-56456D02*
X42952Y-56023D01*
X43385Y-56899D02*
X43385Y-56456D01*
X46929Y-56496D02*
X46456Y-56023D01*
X46929Y-56899D02*
X46929Y-56496D01*
X50472Y-56535D02*
X49960Y-56023D01*
X50472Y-56899D02*
X50472Y-56535D01*
X54015Y-56614D02*
X53425Y-56023D01*
X54015Y-56899D02*
X54015Y-56614D01*
X61102Y-56692D02*
X60433Y-56023D01*
X61102Y-56899D02*
X61102Y-56692D01*
X64645Y-56614D02*
X64055Y-56023D01*
X64645Y-56899D02*
X64645Y-56614D01*
X68188Y-56653D02*
X67559Y-56023D01*
X68188Y-56899D02*
X68188Y-56653D01*
X71732Y-56417D02*
X71338Y-56023D01*
X71732Y-56899D02*
X71732Y-56417D01*
X75275Y-56771D02*
X74527Y-56023D01*
X75275Y-56899D02*
X75275Y-56771D01*
X37007Y-57086D02*
X37007Y-56850D01*
X37834Y-56023D02*
X39448Y-56023D01*
X37007Y-56850D02*
X37834Y-56023D01*
X77942Y-56023D02*
X78494Y-56574D01*
X74527Y-56023D02*
X77942Y-56023D01*
X39842Y-53110D02*
X39251Y-52519D01*
X39842Y-53356D02*
X39842Y-53110D01*
X43385Y-53149D02*
X42755Y-52519D01*
X43385Y-53356D02*
X43385Y-53149D01*
X46929Y-53110D02*
X46338Y-52519D01*
X46929Y-53356D02*
X46929Y-53110D01*
X50472Y-53149D02*
X49842Y-52519D01*
X50472Y-53356D02*
X50472Y-53149D01*
X54015Y-53110D02*
X53425Y-52519D01*
X54015Y-53356D02*
X54015Y-53110D01*
X57559Y-53188D02*
X56889Y-52519D01*
X57559Y-53356D02*
X57559Y-53188D01*
X61102Y-53149D02*
X60472Y-52519D01*
X61102Y-53356D02*
X61102Y-53149D01*
X64645Y-53307D02*
X63858Y-52519D01*
X64645Y-53356D02*
X64645Y-53307D01*
X68188Y-53307D02*
X67401Y-52519D01*
X68188Y-53356D02*
X68188Y-53307D01*
X71732Y-53346D02*
X70905Y-52519D01*
X71732Y-53356D02*
X71732Y-53346D01*
X75275Y-53307D02*
X74488Y-52519D01*
X75275Y-53356D02*
X75275Y-53307D01*
X77982Y-52519D02*
X78818Y-53356D01*
X74488Y-52519D02*
X77982Y-52519D01*
X75236Y-64645D02*
X71732Y-64645D01*
X78818Y-60442D02*
X78818Y-60816D01*
X78818Y-64360D02*
X78818Y-63986D01*
X75275Y-63986D02*
X75275Y-64360D01*
X75275Y-64606D02*
X75236Y-64645D01*
X75275Y-64360D02*
X75275Y-64606D01*
X78818Y-64685D02*
X78818Y-64360D01*
X78385Y-65118D02*
X78818Y-64685D01*
X78031Y-65118D02*
X78385Y-65118D01*
X77559Y-64645D02*
X78031Y-65118D01*
X75236Y-64645D02*
X77559Y-64645D01*
X75275Y-53356D02*
X75275Y-53730D01*
X75275Y-53356D02*
X75275Y-53730D01*
X68149Y-64645D02*
X64645Y-64645D01*
X71732Y-60442D02*
X71732Y-60816D01*
X71732Y-64360D02*
X71732Y-63986D01*
X71732Y-53395D02*
X71732Y-53356D01*
X68188Y-63986D02*
X68188Y-64360D01*
X68188Y-64606D02*
X68149Y-64645D01*
X68188Y-64360D02*
X68188Y-64606D01*
X68188Y-53356D02*
X68188Y-53730D01*
X68188Y-53356D02*
X68188Y-53730D01*
X61062Y-64645D02*
X57559Y-64645D01*
X64645Y-60442D02*
X64645Y-60816D01*
X64645Y-64360D02*
X64645Y-63986D01*
X64645Y-53395D02*
X64645Y-53356D01*
X61102Y-63986D02*
X61102Y-64360D01*
X61102Y-64606D02*
X61062Y-64645D01*
X61102Y-64360D02*
X61102Y-64606D01*
X64320Y-56574D02*
X64645Y-56899D01*
X63385Y-56574D02*
X64320Y-56574D01*
X63031Y-56929D02*
X63385Y-56574D01*
X63031Y-60039D02*
X63031Y-56929D01*
X62952Y-60118D02*
X63031Y-60039D01*
X62952Y-60748D02*
X62952Y-60118D01*
X63385Y-61181D02*
X62952Y-60748D01*
X64094Y-61181D02*
X63385Y-61181D01*
X64458Y-60816D02*
X64094Y-61181D01*
X64645Y-60816D02*
X64458Y-60816D01*
X61102Y-53356D02*
X61102Y-53730D01*
X61102Y-53356D02*
X61102Y-53730D01*
X53976Y-64645D02*
X50472Y-64645D01*
X57559Y-60442D02*
X57559Y-60816D01*
X57559Y-64360D02*
X57559Y-63986D01*
X57559Y-53395D02*
X57559Y-53356D01*
X54015Y-63986D02*
X54015Y-64360D01*
X54015Y-64606D02*
X53976Y-64645D01*
X54015Y-64360D02*
X54015Y-64606D01*
X57234Y-56574D02*
X57559Y-56899D01*
X56299Y-56574D02*
X57234Y-56574D01*
X55944Y-56929D02*
X56299Y-56574D01*
X55944Y-60039D02*
X55944Y-56929D01*
X55866Y-60118D02*
X55944Y-60039D01*
X55866Y-60748D02*
X55866Y-60118D01*
X56299Y-61181D02*
X55866Y-60748D01*
X57007Y-61181D02*
X56299Y-61181D01*
X57372Y-60816D02*
X57007Y-61181D01*
X57559Y-60816D02*
X57372Y-60816D01*
X54015Y-53356D02*
X54015Y-53730D01*
X54015Y-53356D02*
X54015Y-53730D01*
X46889Y-64645D02*
X43385Y-64645D01*
X50472Y-60442D02*
X50472Y-60816D01*
X50472Y-64360D02*
X50472Y-63986D01*
X50472Y-53395D02*
X50472Y-53356D01*
X46929Y-63986D02*
X46929Y-64360D01*
X46929Y-64606D02*
X46889Y-64645D01*
X46929Y-64360D02*
X46929Y-64606D01*
X46929Y-53356D02*
X46929Y-53730D01*
X46929Y-53356D02*
X46929Y-53730D01*
X37480Y-61220D02*
X36023Y-61220D01*
X38031Y-61771D02*
X37480Y-61220D01*
X38031Y-64133D02*
X38031Y-61771D01*
X38543Y-64645D02*
X38031Y-64133D01*
X39803Y-64645D02*
X38543Y-64645D01*
X39842Y-53356D02*
X39842Y-53730D01*
X54015Y-53356D02*
X54015Y-53730D01*
X61102Y-53356D02*
X61102Y-53730D01*
X68188Y-53356D02*
X68188Y-53730D01*
X75275Y-53356D02*
X75275Y-53730D01*
X39842Y-64606D02*
X39803Y-64645D01*
X39842Y-64360D02*
X39842Y-64606D01*
X39842Y-63986D02*
X39842Y-64360D01*
X43385Y-53395D02*
X43385Y-53356D01*
X43385Y-64360D02*
X43385Y-63986D01*
X43385Y-60442D02*
X43385Y-60816D01*
X78218Y-61417D02*
X78818Y-60816D01*
X78818Y-57273D02*
X78818Y-56899D01*
X78818Y-60816D02*
X78818Y-60442D01*
X78818Y-64360D02*
X78818Y-63986D01*
X39842Y-60816D02*
X39842Y-60442D01*
X43385Y-64685D02*
X43385Y-64645D01*
X42952Y-65118D02*
X43385Y-64685D01*
X42598Y-65118D02*
X42952Y-65118D01*
X42125Y-64645D02*
X42598Y-65118D01*
X39803Y-64645D02*
X42125Y-64645D01*
X43385Y-64645D02*
X43385Y-64360D01*
X50472Y-64685D02*
X50472Y-64645D01*
X50039Y-65118D02*
X50472Y-64685D01*
X49685Y-65118D02*
X50039Y-65118D01*
X49212Y-64645D02*
X49685Y-65118D01*
X46889Y-64645D02*
X49212Y-64645D01*
X50472Y-64645D02*
X50472Y-64360D01*
X46929Y-60816D02*
X46929Y-60442D01*
X57559Y-64685D02*
X57559Y-64645D01*
X57125Y-65118D02*
X57559Y-64685D01*
X56771Y-65118D02*
X57125Y-65118D01*
X56299Y-64645D02*
X56771Y-65118D01*
X53976Y-64645D02*
X56299Y-64645D01*
X57559Y-64645D02*
X57559Y-64360D01*
X54015Y-60816D02*
X54015Y-60442D01*
X64645Y-64685D02*
X64645Y-64645D01*
X64212Y-65118D02*
X64645Y-64685D01*
X63858Y-65118D02*
X64212Y-65118D01*
X63385Y-64645D02*
X63858Y-65118D01*
X61062Y-64645D02*
X63385Y-64645D01*
X64645Y-64645D02*
X64645Y-64360D01*
X61102Y-60816D02*
X61102Y-60442D01*
X71732Y-64685D02*
X71732Y-64645D01*
X71299Y-65118D02*
X71732Y-64685D01*
X70944Y-65118D02*
X71299Y-65118D01*
X70472Y-64645D02*
X70944Y-65118D01*
X68149Y-64645D02*
X70472Y-64645D01*
X71732Y-64645D02*
X71732Y-64360D01*
X68188Y-60816D02*
X68188Y-60442D01*
X75275Y-60816D02*
X75275Y-60442D01*
X78494Y-56574D02*
X78818Y-56899D01*
X77559Y-56574D02*
X78494Y-56574D01*
X77204Y-56929D02*
X77559Y-56574D01*
X77204Y-60039D02*
X77204Y-56929D01*
X77125Y-60118D02*
X77204Y-60039D01*
X77125Y-60748D02*
X77125Y-60118D01*
X77559Y-61181D02*
X77125Y-60748D01*
X78267Y-61181D02*
X77559Y-61181D01*
X78631Y-60816D02*
X78267Y-61181D01*
X78818Y-60816D02*
X78631Y-60816D01*
X78494Y-56574D02*
X78818Y-56899D01*
G54D20*
X37007Y-56850D02*
X37007Y-53385D01*
X37007Y-60236D02*
X37007Y-57086D01*
X36023Y-61220D02*
X37007Y-60236D01*
X37007Y-57086D02*
X37007Y-56850D01*
G54D19*
X70905Y-52519D02*
X74488Y-52519D01*
X67401Y-52519D02*
X70905Y-52519D01*
X63858Y-52519D02*
X67401Y-52519D01*
X60472Y-52519D02*
X63858Y-52519D01*
X56889Y-52519D02*
X60472Y-52519D01*
X53425Y-52519D02*
X56889Y-52519D01*
X49842Y-52519D02*
X53425Y-52519D01*
X46338Y-52519D02*
X49842Y-52519D01*
X42755Y-52519D02*
X46338Y-52519D01*
X37913Y-52519D02*
X39251Y-52519D01*
X37047Y-53385D02*
X37913Y-52519D01*
X37007Y-53385D02*
X37047Y-53385D01*
X39251Y-52519D02*
X42755Y-52519D01*
X71338Y-56023D02*
X74527Y-56023D01*
X67559Y-56023D02*
X71338Y-56023D01*
X64055Y-56023D02*
X67559Y-56023D01*
X60433Y-56023D02*
X64055Y-56023D01*
X49960Y-56023D02*
X53425Y-56023D01*
X46456Y-56023D02*
X49960Y-56023D01*
X39842Y-39183D02*
X39842Y-39557D01*
X39173Y-38582D02*
X39242Y-38582D01*
X42716Y-38582D02*
X42785Y-38582D01*
G54D20*
X37007Y-51377D02*
X37007Y-53385D01*
X37007Y-48425D02*
X37007Y-51377D01*
G54D19*
X42716Y-50787D02*
X42785Y-50787D01*
X37795Y-47637D02*
X39173Y-47637D01*
X37007Y-48425D02*
X37795Y-47637D01*
X39173Y-47637D02*
X42716Y-47637D01*
X46929Y-39183D02*
X46929Y-39557D01*
X46259Y-38582D02*
X46328Y-38582D01*
X54015Y-39183D02*
X54015Y-39557D01*
X53346Y-38582D02*
X53415Y-38582D01*
X61102Y-39183D02*
X61102Y-39557D01*
X60433Y-38582D02*
X60501Y-38582D01*
X68188Y-39183D02*
X68188Y-39557D01*
X67519Y-38582D02*
X67588Y-38582D01*
X75275Y-39183D02*
X75275Y-39557D01*
X74606Y-38582D02*
X74675Y-38582D01*
X78218Y-38582D02*
X78818Y-39183D01*
X74675Y-38582D02*
X78218Y-38582D01*
X71407Y-56574D02*
X71732Y-56899D01*
X70472Y-56574D02*
X71407Y-56574D01*
X70118Y-56929D02*
X70472Y-56574D01*
X70118Y-60039D02*
X70118Y-56929D01*
X70039Y-60118D02*
X70118Y-60039D01*
X70039Y-60748D02*
X70039Y-60118D01*
X70472Y-61181D02*
X70039Y-60748D01*
X71181Y-61181D02*
X70472Y-61181D01*
X71545Y-60816D02*
X71181Y-61181D01*
X71732Y-60816D02*
X71545Y-60816D01*
X72118Y-56899D02*
X71732Y-56899D01*
X72118Y-57273D02*
X72118Y-56899D01*
X71732Y-57273D02*
X72118Y-57273D01*
X43061Y-56574D02*
X43385Y-56899D01*
X42125Y-56574D02*
X43061Y-56574D01*
X41771Y-56929D02*
X42125Y-56574D01*
X41771Y-60039D02*
X41771Y-56929D01*
X41692Y-60118D02*
X41771Y-60039D01*
X41692Y-60748D02*
X41692Y-60118D01*
X42125Y-61181D02*
X41692Y-60748D01*
X42834Y-61181D02*
X42125Y-61181D01*
X43198Y-60816D02*
X42834Y-61181D01*
X43385Y-60816D02*
X43198Y-60816D01*
X50147Y-56574D02*
X50472Y-56899D01*
X49212Y-56574D02*
X50147Y-56574D01*
X48858Y-56929D02*
X49212Y-56574D01*
X48858Y-60039D02*
X48858Y-56929D01*
X48779Y-60118D02*
X48858Y-60039D01*
X48779Y-60748D02*
X48779Y-60118D01*
X49212Y-61181D02*
X48779Y-60748D01*
X49921Y-61181D02*
X49212Y-61181D01*
X50285Y-60816D02*
X49921Y-61181D01*
X50472Y-60816D02*
X50285Y-60816D01*
X50858Y-57273D02*
X50472Y-57273D01*
X50858Y-56899D02*
X50858Y-57273D01*
X50472Y-56899D02*
X50858Y-56899D01*
X43772Y-56899D02*
X43385Y-56899D01*
X43772Y-57273D02*
X43772Y-56899D01*
X43385Y-57273D02*
X43772Y-57273D01*
X42785Y-38582D02*
X43385Y-39183D01*
X42785Y-50787D02*
X43385Y-50187D01*
X78818Y-53395D02*
X78818Y-53356D01*
X79079Y-53395D02*
X78818Y-53395D01*
X79205Y-53521D02*
X79079Y-53395D01*
X79205Y-53730D02*
X79205Y-53521D01*
X78818Y-53730D02*
X79205Y-53730D01*
G54D20*
X37007Y-43307D02*
X37007Y-47525D01*
X36327Y-42626D02*
X37007Y-43307D01*
X35433Y-41732D02*
X36327Y-42626D01*
X35433Y-40354D02*
X35433Y-41732D01*
X37204Y-38582D02*
X35433Y-40354D01*
X37007Y-47525D02*
X37007Y-48425D01*
G54D19*
X28446Y-47525D02*
X37007Y-47525D01*
X27165Y-46244D02*
X28446Y-47525D01*
X43385Y-53356D02*
X43385Y-53395D01*
X43385Y-53395D02*
X43385Y-53730D01*
X71732Y-53356D02*
X71732Y-53395D01*
X71732Y-53395D02*
X71732Y-53730D01*
X71732Y-53356D02*
X71732Y-53395D01*
X71732Y-53395D02*
X71732Y-53730D01*
X64645Y-53356D02*
X64645Y-53395D01*
X64645Y-53395D02*
X64645Y-53730D01*
X64645Y-53356D02*
X64645Y-53395D01*
X64645Y-53395D02*
X64645Y-53730D01*
X57559Y-53356D02*
X57559Y-53395D01*
X57559Y-53395D02*
X57559Y-53730D01*
X57559Y-53356D02*
X57559Y-53395D01*
X57559Y-53395D02*
X57559Y-53730D01*
X50472Y-53356D02*
X50472Y-53395D01*
X50472Y-53395D02*
X50472Y-53730D01*
X39448Y-56023D02*
X42952Y-56023D01*
X42952Y-56023D02*
X46456Y-56023D01*
X53425Y-56023D02*
X57047Y-56023D01*
X57047Y-56023D02*
X60433Y-56023D01*
X39173Y-38582D02*
X39242Y-38582D01*
X39242Y-38582D02*
X39842Y-39183D01*
X39242Y-38582D02*
X42716Y-38582D01*
X42716Y-38582D02*
X42785Y-38582D01*
X39242Y-50787D02*
X42716Y-50787D01*
X42716Y-50787D02*
X42785Y-50787D01*
X46259Y-38582D02*
X46328Y-38582D01*
X46328Y-38582D02*
X46929Y-39183D01*
X46259Y-38582D02*
X46328Y-38582D01*
X46328Y-38582D02*
X49872Y-38582D01*
X46328Y-50787D02*
X49872Y-50787D01*
X49872Y-50787D02*
X50472Y-50187D01*
X42785Y-50787D02*
X46328Y-50787D01*
X46328Y-50787D02*
X49872Y-50787D01*
X42716Y-47637D02*
X46259Y-47637D01*
X46259Y-47637D02*
X49803Y-47637D01*
X53346Y-38582D02*
X53415Y-38582D01*
X53415Y-38582D02*
X54015Y-39183D01*
X53346Y-38582D02*
X53415Y-38582D01*
X53415Y-38582D02*
X56958Y-38582D01*
X46328Y-38582D02*
X49872Y-38582D01*
X49872Y-38582D02*
X50472Y-39183D01*
X53415Y-50787D02*
X56958Y-50787D01*
X56958Y-50787D02*
X57559Y-50187D01*
X49872Y-50787D02*
X53415Y-50787D01*
X53415Y-50787D02*
X56958Y-50787D01*
X49803Y-47637D02*
X53346Y-47637D01*
X53346Y-47637D02*
X56889Y-47637D01*
X60433Y-38582D02*
X60501Y-38582D01*
X60501Y-38582D02*
X61102Y-39183D01*
X60433Y-38582D02*
X60501Y-38582D01*
X60501Y-38582D02*
X64045Y-38582D01*
X53415Y-38582D02*
X56958Y-38582D01*
X56958Y-38582D02*
X57559Y-39183D01*
X60501Y-50787D02*
X64045Y-50787D01*
X64045Y-50787D02*
X64645Y-50187D01*
X56958Y-50787D02*
X60501Y-50787D01*
X60501Y-50787D02*
X64045Y-50787D01*
X56889Y-47637D02*
X60433Y-47637D01*
X60433Y-47637D02*
X63976Y-47637D01*
X67519Y-38582D02*
X67588Y-38582D01*
X67588Y-38582D02*
X68188Y-39183D01*
X67519Y-38582D02*
X67588Y-38582D01*
X67588Y-38582D02*
X71131Y-38582D01*
X71131Y-38582D02*
X71732Y-39183D01*
X67588Y-38582D02*
X71131Y-38582D01*
X71131Y-38582D02*
X74606Y-38582D01*
X60501Y-38582D02*
X64045Y-38582D01*
X64045Y-38582D02*
X64645Y-39183D01*
X64045Y-50787D02*
X67588Y-50787D01*
X67588Y-50787D02*
X71131Y-50787D01*
X67588Y-50787D02*
X71131Y-50787D01*
X71131Y-50787D02*
X71732Y-50187D01*
X63976Y-47637D02*
X67519Y-47637D01*
X67519Y-47637D02*
X71062Y-47637D01*
X74606Y-38582D02*
X74675Y-38582D01*
X74675Y-38582D02*
X75275Y-39183D01*
X71062Y-47637D02*
X74606Y-47637D01*
X74606Y-47637D02*
X78149Y-47637D01*
X75275Y-60442D02*
X75275Y-57273D01*
X75275Y-57273D02*
X75275Y-56899D01*
X68188Y-60442D02*
X68188Y-57273D01*
X68188Y-57273D02*
X68188Y-56899D01*
X61102Y-60442D02*
X61102Y-57273D01*
X61102Y-57273D02*
X61102Y-56899D01*
X54015Y-60442D02*
X54015Y-57273D01*
X54015Y-57273D02*
X54015Y-56899D01*
X46929Y-60442D02*
X46929Y-57273D01*
X46929Y-57273D02*
X46929Y-56899D01*
X39842Y-60442D02*
X39842Y-57273D01*
X39842Y-57273D02*
X39842Y-56899D01*
X42785Y-38582D02*
X44291Y-38582D01*
X44291Y-38582D02*
X46259Y-38582D01*
X49872Y-38582D02*
X51377Y-38582D01*
X51377Y-38582D02*
X53346Y-38582D01*
X56958Y-38582D02*
X58464Y-38582D01*
X58464Y-38582D02*
X60433Y-38582D01*
X64045Y-38582D02*
X65551Y-38582D01*
X65551Y-38582D02*
X67519Y-38582D01*
G54D20*
X28452Y-63917D02*
X28307Y-64062D01*
X29771Y-62598D02*
X28452Y-63917D01*
X34645Y-62598D02*
X29771Y-62598D01*
X36023Y-61220D02*
X34645Y-62598D01*
G54D19*
X28452Y-63917D02*
X28452Y-64066D01*
X28452Y-64263D02*
X28452Y-64066D01*
X28452Y-64066D02*
X28255Y-64263D01*
X38570Y-55473D02*
X38095Y-55473D01*
X38807Y-55236D02*
X38570Y-55473D01*
X43346Y-55236D02*
X38807Y-55236D01*
X43709Y-55598D02*
X43346Y-55236D01*
X47425Y-55598D02*
X43709Y-55598D01*
X62137Y-59200D02*
X62165Y-59173D01*
X62137Y-61011D02*
X62137Y-59200D01*
X60275Y-62874D02*
X62137Y-61011D01*
X64527Y-40669D02*
X57440Y-40669D01*
X56968Y-40669D02*
X57440Y-40669D01*
X56705Y-40406D02*
X56968Y-40669D01*
X51615Y-40406D02*
X56705Y-40406D01*
X50617Y-40406D02*
X51615Y-40406D01*
X50354Y-40669D02*
X50617Y-40406D01*
X70944Y-40669D02*
X71614Y-40669D01*
X70684Y-40408D02*
X70944Y-40669D01*
X64791Y-40408D02*
X70684Y-40408D01*
X64530Y-40669D02*
X64791Y-40408D01*
X64527Y-40669D02*
X64530Y-40669D01*
X69792Y-60443D02*
X67362Y-62874D01*
X69792Y-59226D02*
X69792Y-60443D01*
X71866Y-40416D02*
X71614Y-40669D01*
X75973Y-40416D02*
X71866Y-40416D01*
X76226Y-40669D02*
X75973Y-40416D01*
X78700Y-40669D02*
X76226Y-40669D01*
X54538Y-54120D02*
X54537Y-54121D01*
X61915Y-54120D02*
X54538Y-54120D01*
X62016Y-54220D02*
X61915Y-54120D01*
X62091Y-54296D02*
X62016Y-54220D01*
X71155Y-54296D02*
X62091Y-54296D01*
X71231Y-54220D02*
X71155Y-54296D01*
X41841Y-42095D02*
X43267Y-40669D01*
X41841Y-43367D02*
X41841Y-42095D01*
X43574Y-45100D02*
X41841Y-43367D01*
X44444Y-45100D02*
X43574Y-45100D01*
X28890Y-46810D02*
X31987Y-46810D01*
X28815Y-46885D02*
X28890Y-46810D01*
X27165Y-57874D02*
X26574Y-57283D01*
X36023Y-57874D02*
X27165Y-57874D01*
X26574Y-64645D02*
X26574Y-57283D01*
X27165Y-65236D02*
X26574Y-64645D01*
X27165Y-65263D02*
X27165Y-65236D01*
X26574Y-45381D02*
X27059Y-44897D01*
X26574Y-57283D02*
X26574Y-45381D01*
X75787Y-65157D02*
X75787Y-65748D01*
X68661Y-65157D02*
X68661Y-65748D01*
X61614Y-65157D02*
X61614Y-65748D01*
X54566Y-65157D02*
X54566Y-65748D01*
X47440Y-65157D02*
X47440Y-65748D01*
X47480Y-65118D02*
X47440Y-65157D01*
X40393Y-65078D02*
X40393Y-65748D01*
G54D20*
X48425Y-37992D02*
X41338Y-37992D01*
X80078Y-42007D02*
X80078Y-41653D01*
X80905Y-42834D02*
X80078Y-42007D01*
X80905Y-59251D02*
X80905Y-42834D01*
X80905Y-61181D02*
X80905Y-59448D01*
X80118Y-61968D02*
X80905Y-61181D01*
X80118Y-64566D02*
X80118Y-61968D01*
X78937Y-65748D02*
X80118Y-64566D01*
X75787Y-65748D02*
X78937Y-65748D01*
X68661Y-65748D02*
X75787Y-65748D01*
X61614Y-65748D02*
X68661Y-65748D01*
X54566Y-65748D02*
X61614Y-65748D01*
X47440Y-65748D02*
X54566Y-65748D01*
X47440Y-65748D02*
X40393Y-65748D01*
X27271Y-65263D02*
X27165Y-65263D01*
X27755Y-65748D02*
X27271Y-65263D01*
X40393Y-65748D02*
X27755Y-65748D01*
X80905Y-59448D02*
X80905Y-59251D01*
X80905Y-59448D02*
X80905Y-59251D01*
X80078Y-41653D02*
X80078Y-41338D01*
X80078Y-41653D02*
X80078Y-41338D01*
X80314Y-37992D02*
X76771Y-37992D01*
X80708Y-38385D02*
X80314Y-37992D01*
X80708Y-39173D02*
X80708Y-38385D01*
X80078Y-39803D02*
X80708Y-39173D01*
X80078Y-41338D02*
X80078Y-39803D01*
G54D19*
X41338Y-37992D02*
X34898Y-37992D01*
X34064Y-37992D02*
X34898Y-37992D01*
X29242Y-42814D02*
X34064Y-37992D01*
X26866Y-43432D02*
X28809Y-43432D01*
X26601Y-43697D02*
X26866Y-43432D01*
X26601Y-44439D02*
X26601Y-43697D01*
X27059Y-44897D02*
X26601Y-44439D01*
X28809Y-43247D02*
X29242Y-42814D01*
X28809Y-43432D02*
X28809Y-43247D01*
X30203Y-44826D02*
X28809Y-43432D01*
X30203Y-45070D02*
X30203Y-44826D01*
X30680Y-45548D02*
X30203Y-45070D01*
X35674Y-45548D02*
X30680Y-45548D01*
X36134Y-46008D02*
X35674Y-45548D01*
G54D20*
X76771Y-37992D02*
X69685Y-37992D01*
X69685Y-37992D02*
X62598Y-37992D01*
X62598Y-37992D02*
X55511Y-37992D01*
X55511Y-37992D02*
X48425Y-37992D01*
G54D19*
X72480Y-43267D02*
X72677Y-43070D01*
X72480Y-43582D02*
X72480Y-43267D01*
X72007Y-44055D02*
X72480Y-43582D01*
X71771Y-44055D02*
X72007Y-44055D01*
X71535Y-43818D02*
X71771Y-44055D01*
X71535Y-43543D02*
X71535Y-43818D01*
X71092Y-43100D02*
X71535Y-43543D01*
X70787Y-43100D02*
X71092Y-43100D01*
X71770Y-41651D02*
X71732Y-41614D01*
X74174Y-41651D02*
X71770Y-41651D01*
X74330Y-41496D02*
X74174Y-41651D01*
X70265Y-39557D02*
X70787Y-39557D01*
X70236Y-39527D02*
X70265Y-39557D01*
X70364Y-39183D02*
X70787Y-39183D01*
X70236Y-39055D02*
X70364Y-39183D01*
X73110Y-43307D02*
X72992Y-43425D01*
X73110Y-42637D02*
X73110Y-43307D01*
X72362Y-41889D02*
X73110Y-42637D01*
X71929Y-41889D02*
X72362Y-41889D01*
X71092Y-42726D02*
X71929Y-41889D01*
X70787Y-42726D02*
X71092Y-42726D01*
X67214Y-42726D02*
X67244Y-42726D01*
X66811Y-42322D02*
X67214Y-42726D01*
X70787Y-47047D02*
X70787Y-46643D01*
X70944Y-47204D02*
X70787Y-47047D01*
X66781Y-39557D02*
X67244Y-39557D01*
X66653Y-39685D02*
X66781Y-39557D01*
X70787Y-45944D02*
X70787Y-46269D01*
X70905Y-45826D02*
X70787Y-45944D01*
X66702Y-39183D02*
X67244Y-39183D01*
X66692Y-39173D02*
X66702Y-39183D01*
X70206Y-50187D02*
X70787Y-50187D01*
X70196Y-50196D02*
X70206Y-50187D01*
X70787Y-49606D02*
X70787Y-49812D01*
X70551Y-49370D02*
X70787Y-49606D01*
X66702Y-50187D02*
X67244Y-50187D01*
X66653Y-50236D02*
X66702Y-50187D01*
X67244Y-50147D02*
X67244Y-50187D01*
X66702Y-49812D02*
X67244Y-49812D01*
X66653Y-49763D02*
X66702Y-49812D01*
X63700Y-49606D02*
X63700Y-49812D01*
X63464Y-49370D02*
X63700Y-49606D01*
X67125Y-41614D02*
X67244Y-41496D01*
X64645Y-41614D02*
X67125Y-41614D01*
X63179Y-39557D02*
X63700Y-39557D01*
X63149Y-39527D02*
X63179Y-39557D01*
X63277Y-39183D02*
X63700Y-39183D01*
X63149Y-39055D02*
X63277Y-39183D01*
X65393Y-43267D02*
X65590Y-43070D01*
X65393Y-43582D02*
X65393Y-43267D01*
X64921Y-44055D02*
X65393Y-43582D01*
X64685Y-44055D02*
X64921Y-44055D01*
X64448Y-43818D02*
X64685Y-44055D01*
X64448Y-43543D02*
X64448Y-43818D01*
X64005Y-43100D02*
X64448Y-43543D01*
X63700Y-43100D02*
X64005Y-43100D01*
X66023Y-43307D02*
X65905Y-43425D01*
X66023Y-42637D02*
X66023Y-43307D01*
X65275Y-41889D02*
X66023Y-42637D01*
X64842Y-41889D02*
X65275Y-41889D01*
X64005Y-42726D02*
X64842Y-41889D01*
X63700Y-42726D02*
X64005Y-42726D01*
X60127Y-42726D02*
X60157Y-42726D01*
X59724Y-42322D02*
X60127Y-42726D01*
X63700Y-47047D02*
X63700Y-46643D01*
X63858Y-47204D02*
X63700Y-47047D01*
X59694Y-39557D02*
X60157Y-39557D01*
X59566Y-39685D02*
X59694Y-39557D01*
X63700Y-45944D02*
X63700Y-46269D01*
X63818Y-45826D02*
X63700Y-45944D01*
X59616Y-39183D02*
X60157Y-39183D01*
X59606Y-39173D02*
X59616Y-39183D01*
X63120Y-50187D02*
X63700Y-50187D01*
X63110Y-50196D02*
X63120Y-50187D01*
X59616Y-50187D02*
X60157Y-50187D01*
X59566Y-50236D02*
X59616Y-50187D01*
X60157Y-50147D02*
X60157Y-50187D01*
X59616Y-49812D02*
X60157Y-49812D01*
X59566Y-49763D02*
X59616Y-49812D01*
X59596Y-46643D02*
X60157Y-46643D01*
X59566Y-46614D02*
X59596Y-46643D01*
X59655Y-46269D02*
X60157Y-46269D01*
X59370Y-45984D02*
X59655Y-46269D01*
X59872Y-43100D02*
X60157Y-43100D01*
X59527Y-42755D02*
X59872Y-43100D01*
X77874Y-49606D02*
X77874Y-49812D01*
X77637Y-49370D02*
X77874Y-49606D01*
X77352Y-39557D02*
X77874Y-39557D01*
X77322Y-39527D02*
X77352Y-39557D01*
X77450Y-39183D02*
X77874Y-39183D01*
X77322Y-39055D02*
X77450Y-39183D01*
X79566Y-43267D02*
X79763Y-43070D01*
X79566Y-43582D02*
X79566Y-43267D01*
X79094Y-44055D02*
X79566Y-43582D01*
X78858Y-44055D02*
X79094Y-44055D01*
X78622Y-43818D02*
X78858Y-44055D01*
X78622Y-43543D02*
X78622Y-43818D01*
X78179Y-43100D02*
X78622Y-43543D01*
X77874Y-43100D02*
X78179Y-43100D01*
X80196Y-43307D02*
X80078Y-43425D01*
X80196Y-43031D02*
X80196Y-43307D01*
X79488Y-42322D02*
X80196Y-43031D01*
X78582Y-42322D02*
X79488Y-42322D01*
X78179Y-42726D02*
X78582Y-42322D01*
X77874Y-42726D02*
X78179Y-42726D01*
X74301Y-42726D02*
X74330Y-42726D01*
X73897Y-42322D02*
X74301Y-42726D01*
X77874Y-47047D02*
X77874Y-46643D01*
X78031Y-47204D02*
X77874Y-47047D01*
X73868Y-39557D02*
X74330Y-39557D01*
X73740Y-39685D02*
X73868Y-39557D01*
X77874Y-45944D02*
X77874Y-46269D01*
X77992Y-45826D02*
X77874Y-45944D01*
X73789Y-39183D02*
X74330Y-39183D01*
X73779Y-39173D02*
X73789Y-39183D01*
X77293Y-50187D02*
X77874Y-50187D01*
X77283Y-50196D02*
X77293Y-50187D01*
X73789Y-50187D02*
X74330Y-50187D01*
X73740Y-50236D02*
X73789Y-50187D01*
X74330Y-50147D02*
X74330Y-50187D01*
X73789Y-49812D02*
X74330Y-49812D01*
X73740Y-49763D02*
X73789Y-49812D01*
X73769Y-46643D02*
X74330Y-46643D01*
X73740Y-46614D02*
X73769Y-46643D01*
X73828Y-46269D02*
X74330Y-46269D01*
X73543Y-45984D02*
X73828Y-46269D01*
X74045Y-43100D02*
X74330Y-43100D01*
X73700Y-42755D02*
X74045Y-43100D01*
X66683Y-46643D02*
X67244Y-46643D01*
X66653Y-46614D02*
X66683Y-46643D01*
X66742Y-46269D02*
X67244Y-46269D01*
X66456Y-45984D02*
X66742Y-46269D01*
X66958Y-43100D02*
X67244Y-43100D01*
X66614Y-42755D02*
X66958Y-43100D01*
X67244Y-52874D02*
X67244Y-53356D01*
X66742Y-53730D02*
X67244Y-53730D01*
X66732Y-53740D02*
X66742Y-53730D01*
X67244Y-56535D02*
X67244Y-56899D01*
X67283Y-56496D02*
X67244Y-56535D01*
X66742Y-57273D02*
X67244Y-57273D01*
X66732Y-57283D02*
X66742Y-57273D01*
X66938Y-60442D02*
X67244Y-60442D01*
X66338Y-59842D02*
X66938Y-60442D01*
X66998Y-60816D02*
X67244Y-60816D01*
X66456Y-60275D02*
X66998Y-60816D01*
X66141Y-60275D02*
X66456Y-60275D01*
X67244Y-63779D02*
X67244Y-63986D01*
X67007Y-63543D02*
X67244Y-63779D01*
X66958Y-64360D02*
X67244Y-64360D01*
X66811Y-64212D02*
X66958Y-64360D01*
X66811Y-63858D02*
X66811Y-64212D01*
X66653Y-63700D02*
X66811Y-63858D01*
X66653Y-63425D02*
X66653Y-63700D01*
X66889Y-63188D02*
X66653Y-63425D01*
X66889Y-61889D02*
X66889Y-63188D01*
X66417Y-61417D02*
X66889Y-61889D01*
X66417Y-61181D02*
X66417Y-61417D01*
X66535Y-61062D02*
X66417Y-61181D01*
X66535Y-60866D02*
X66535Y-61062D01*
X70285Y-53730D02*
X70787Y-53730D01*
X70275Y-53740D02*
X70285Y-53730D01*
X70324Y-53356D02*
X70787Y-53356D01*
X70236Y-53267D02*
X70324Y-53356D01*
X71013Y-57273D02*
X70787Y-57273D01*
X71417Y-57677D02*
X71013Y-57273D01*
X70501Y-56899D02*
X70787Y-56899D01*
X70354Y-57047D02*
X70501Y-56899D01*
X70354Y-57834D02*
X70354Y-57047D01*
X70551Y-58031D02*
X70354Y-57834D01*
X71811Y-58031D02*
X70551Y-58031D01*
X71889Y-58110D02*
X71811Y-58031D01*
X70816Y-60816D02*
X70787Y-60816D01*
X70423Y-60816D02*
X70787Y-60816D01*
X70275Y-60669D02*
X70423Y-60816D01*
X70275Y-60314D02*
X70275Y-60669D01*
X70748Y-59842D02*
X70275Y-60314D01*
X72125Y-59842D02*
X70748Y-59842D01*
X72244Y-59724D02*
X72125Y-59842D01*
X72362Y-60236D02*
X72362Y-60905D01*
X72204Y-60078D02*
X72362Y-60236D01*
X71496Y-60078D02*
X72204Y-60078D01*
X71131Y-60442D02*
X71496Y-60078D01*
X70787Y-60442D02*
X71131Y-60442D01*
X70787Y-64409D02*
X70787Y-64360D01*
X71141Y-64763D02*
X70787Y-64409D01*
X70787Y-63937D02*
X70787Y-63986D01*
X71259Y-63464D02*
X70787Y-63937D01*
X71771Y-63464D02*
X71259Y-63464D01*
X73828Y-57273D02*
X74330Y-57273D01*
X73818Y-57283D02*
X73828Y-57273D01*
X74330Y-52874D02*
X74330Y-53356D01*
X73828Y-53730D02*
X74330Y-53730D01*
X73818Y-53740D02*
X73828Y-53730D01*
X74330Y-56535D02*
X74330Y-56899D01*
X74370Y-56496D02*
X74330Y-56535D01*
X74025Y-60442D02*
X74330Y-60442D01*
X73425Y-59842D02*
X74025Y-60442D01*
X74084Y-60816D02*
X74330Y-60816D01*
X73543Y-60275D02*
X74084Y-60816D01*
X73228Y-60275D02*
X73543Y-60275D01*
X74330Y-63779D02*
X74330Y-63986D01*
X74094Y-63543D02*
X74330Y-63779D01*
X74045Y-64360D02*
X74330Y-64360D01*
X73897Y-64212D02*
X74045Y-64360D01*
X73897Y-63858D02*
X73897Y-64212D01*
X73740Y-63700D02*
X73897Y-63858D01*
X73740Y-63425D02*
X73740Y-63700D01*
X73976Y-63188D02*
X73740Y-63425D01*
X73976Y-61889D02*
X73976Y-63188D01*
X73503Y-61417D02*
X73976Y-61889D01*
X73503Y-61181D02*
X73503Y-61417D01*
X73622Y-61062D02*
X73503Y-61181D01*
X73622Y-60866D02*
X73622Y-61062D01*
X64645Y-62047D02*
X66006Y-62047D01*
X66270Y-54071D02*
X66161Y-53961D01*
X68450Y-54071D02*
X66270Y-54071D01*
X68921Y-53600D02*
X68450Y-54071D01*
X67951Y-61929D02*
X67244Y-61929D01*
X69315Y-60565D02*
X67951Y-61929D01*
X69315Y-57988D02*
X69315Y-60565D01*
X61753Y-58976D02*
X62152Y-58577D01*
X61753Y-60772D02*
X61753Y-58976D01*
X60597Y-61929D02*
X61753Y-60772D01*
X60157Y-61929D02*
X60597Y-61929D01*
X62140Y-55314D02*
X56083Y-55314D01*
X56848Y-62047D02*
X57559Y-62047D01*
X55519Y-60718D02*
X56848Y-62047D01*
X55519Y-59230D02*
X55519Y-60718D01*
X72739Y-61040D02*
X71732Y-62047D01*
X72739Y-60045D02*
X72739Y-61040D01*
X73271Y-59512D02*
X72739Y-60045D01*
X73994Y-59512D02*
X73271Y-59512D01*
X74716Y-60235D02*
X73994Y-59512D01*
X74716Y-61542D02*
X74716Y-60235D01*
X74330Y-61929D02*
X74716Y-61542D01*
X60157Y-52874D02*
X60157Y-53356D01*
X59655Y-53730D02*
X60157Y-53730D01*
X59645Y-53740D02*
X59655Y-53730D01*
X60157Y-63779D02*
X60157Y-63986D01*
X59921Y-63543D02*
X60157Y-63779D01*
X59872Y-64360D02*
X60157Y-64360D01*
X59724Y-64212D02*
X59872Y-64360D01*
X59724Y-63858D02*
X59724Y-64212D01*
X59566Y-63700D02*
X59724Y-63858D01*
X59566Y-63425D02*
X59566Y-63700D01*
X59803Y-63188D02*
X59566Y-63425D01*
X59803Y-61889D02*
X59803Y-63188D01*
X59330Y-61417D02*
X59803Y-61889D01*
X59330Y-61181D02*
X59330Y-61417D01*
X59448Y-61062D02*
X59330Y-61181D01*
X59448Y-60866D02*
X59448Y-61062D01*
X59852Y-60442D02*
X60157Y-60442D01*
X59251Y-59842D02*
X59852Y-60442D01*
X59911Y-60816D02*
X60157Y-60816D01*
X59370Y-60275D02*
X59911Y-60816D01*
X59055Y-60275D02*
X59370Y-60275D01*
X60157Y-56535D02*
X60157Y-56899D01*
X60196Y-56496D02*
X60157Y-56535D01*
X59655Y-57273D02*
X60157Y-57273D01*
X59645Y-57283D02*
X59655Y-57273D01*
X77874Y-63937D02*
X77874Y-63986D01*
X78346Y-63464D02*
X77874Y-63937D01*
X78858Y-63464D02*
X78346Y-63464D01*
X77874Y-64409D02*
X77874Y-64360D01*
X78228Y-64763D02*
X77874Y-64409D01*
X79448Y-60236D02*
X79448Y-60905D01*
X79291Y-60078D02*
X79448Y-60236D01*
X78582Y-60078D02*
X79291Y-60078D01*
X78218Y-60442D02*
X78582Y-60078D01*
X77874Y-60442D02*
X78218Y-60442D01*
X77903Y-60816D02*
X77874Y-60816D01*
X77509Y-60816D02*
X77874Y-60816D01*
X77362Y-60669D02*
X77509Y-60816D01*
X77362Y-60314D02*
X77362Y-60669D01*
X77834Y-59842D02*
X77362Y-60314D01*
X79212Y-59842D02*
X77834Y-59842D01*
X79330Y-59724D02*
X79212Y-59842D01*
X77588Y-56899D02*
X77874Y-56899D01*
X77440Y-57047D02*
X77588Y-56899D01*
X77440Y-57834D02*
X77440Y-57047D01*
X77637Y-58031D02*
X77440Y-57834D01*
X78897Y-58031D02*
X77637Y-58031D01*
X78976Y-58110D02*
X78897Y-58031D01*
X78100Y-57273D02*
X77874Y-57273D01*
X78503Y-57677D02*
X78100Y-57273D01*
X77411Y-53356D02*
X77874Y-53356D01*
X77322Y-53267D02*
X77411Y-53356D01*
X77372Y-53730D02*
X77874Y-53730D01*
X77362Y-53740D02*
X77372Y-53730D01*
X63730Y-60816D02*
X63700Y-60816D01*
X63336Y-60816D02*
X63700Y-60816D01*
X63188Y-60669D02*
X63336Y-60816D01*
X63188Y-60314D02*
X63188Y-60669D01*
X63661Y-59842D02*
X63188Y-60314D01*
X65039Y-59842D02*
X63661Y-59842D01*
X65157Y-59724D02*
X65039Y-59842D01*
X63700Y-63937D02*
X63700Y-63986D01*
X64173Y-63464D02*
X63700Y-63937D01*
X64685Y-63464D02*
X64173Y-63464D01*
X63700Y-64409D02*
X63700Y-64360D01*
X64055Y-64763D02*
X63700Y-64409D01*
X65275Y-60236D02*
X65275Y-60905D01*
X65118Y-60078D02*
X65275Y-60236D01*
X64409Y-60078D02*
X65118Y-60078D01*
X64045Y-60442D02*
X64409Y-60078D01*
X63700Y-60442D02*
X64045Y-60442D01*
X63415Y-56899D02*
X63700Y-56899D01*
X63267Y-57047D02*
X63415Y-56899D01*
X63267Y-57834D02*
X63267Y-57047D01*
X63464Y-58031D02*
X63267Y-57834D01*
X64724Y-58031D02*
X63464Y-58031D01*
X64803Y-58110D02*
X64724Y-58031D01*
X63927Y-57273D02*
X63700Y-57273D01*
X64330Y-57677D02*
X63927Y-57273D01*
X63238Y-53356D02*
X63700Y-53356D01*
X63149Y-53267D02*
X63238Y-53356D01*
X63198Y-53730D02*
X63700Y-53730D01*
X63188Y-53740D02*
X63198Y-53730D01*
X45679Y-60442D02*
X45984Y-60442D01*
X45078Y-59842D02*
X45679Y-60442D01*
X45157Y-62755D02*
X45984Y-61929D01*
X43818Y-62755D02*
X45157Y-62755D01*
X45275Y-61062D02*
X45275Y-60866D01*
X45157Y-61181D02*
X45275Y-61062D01*
X45157Y-62125D02*
X45157Y-61181D01*
X45118Y-62165D02*
X45157Y-62125D01*
X45580Y-64360D02*
X45984Y-64360D01*
X45393Y-64173D02*
X45580Y-64360D01*
X45393Y-63897D02*
X45393Y-64173D01*
X45984Y-63779D02*
X45984Y-63986D01*
X45748Y-63543D02*
X45984Y-63779D01*
X45738Y-60816D02*
X45984Y-60816D01*
X45196Y-60275D02*
X45738Y-60816D01*
X44881Y-60275D02*
X45196Y-60275D01*
X51102Y-60236D02*
X51102Y-60905D01*
X50944Y-60078D02*
X51102Y-60236D01*
X50236Y-60078D02*
X50944Y-60078D01*
X49872Y-60442D02*
X50236Y-60078D01*
X49527Y-60442D02*
X49872Y-60442D01*
X45482Y-57273D02*
X45984Y-57273D01*
X45472Y-57283D02*
X45482Y-57273D01*
X49527Y-64448D02*
X49527Y-64360D01*
X49842Y-64763D02*
X49527Y-64448D01*
X45984Y-56535D02*
X45984Y-56899D01*
X46023Y-56496D02*
X45984Y-56535D01*
X49527Y-63937D02*
X49527Y-63986D01*
X50000Y-63464D02*
X49527Y-63937D01*
X50511Y-63464D02*
X50000Y-63464D01*
X45482Y-53730D02*
X45984Y-53730D01*
X45472Y-53740D02*
X45482Y-53730D01*
X45984Y-52874D02*
X45984Y-53356D01*
X49025Y-53730D02*
X49527Y-53730D01*
X49015Y-53740D02*
X49025Y-53730D01*
X49064Y-53356D02*
X49527Y-53356D01*
X48976Y-53267D02*
X49064Y-53356D01*
X52785Y-64360D02*
X53070Y-64360D01*
X52637Y-64212D02*
X52785Y-64360D01*
X52637Y-63858D02*
X52637Y-64212D01*
X52480Y-63700D02*
X52637Y-63858D01*
X52480Y-63425D02*
X52480Y-63700D01*
X52716Y-63188D02*
X52480Y-63425D01*
X52716Y-61889D02*
X52716Y-63188D01*
X52244Y-61417D02*
X52716Y-61889D01*
X52244Y-61181D02*
X52244Y-61417D01*
X52362Y-61062D02*
X52244Y-61181D01*
X52362Y-60866D02*
X52362Y-61062D01*
X53070Y-63779D02*
X53070Y-63986D01*
X52834Y-63543D02*
X53070Y-63779D01*
X52824Y-60816D02*
X53070Y-60816D01*
X52283Y-60275D02*
X52824Y-60816D01*
X51968Y-60275D02*
X52283Y-60275D01*
X52765Y-60442D02*
X53070Y-60442D01*
X52165Y-59842D02*
X52765Y-60442D01*
X58188Y-60236D02*
X58188Y-60905D01*
X58031Y-60078D02*
X58188Y-60236D01*
X57322Y-60078D02*
X58031Y-60078D01*
X56958Y-60442D02*
X57322Y-60078D01*
X56614Y-60442D02*
X56958Y-60442D01*
X52568Y-57273D02*
X53070Y-57273D01*
X52559Y-57283D02*
X52568Y-57273D01*
X56614Y-64409D02*
X56614Y-64360D01*
X56968Y-64763D02*
X56614Y-64409D01*
X53070Y-56535D02*
X53070Y-56899D01*
X53110Y-56496D02*
X53070Y-56535D01*
X56614Y-63937D02*
X56614Y-63986D01*
X57086Y-63464D02*
X56614Y-63937D01*
X57598Y-63464D02*
X57086Y-63464D01*
X52568Y-53730D02*
X53070Y-53730D01*
X52559Y-53740D02*
X52568Y-53730D01*
X53070Y-52874D02*
X53070Y-53356D01*
X49753Y-57273D02*
X49527Y-57273D01*
X50157Y-57677D02*
X49753Y-57273D01*
X56112Y-53730D02*
X56614Y-53730D01*
X56102Y-53740D02*
X56112Y-53730D01*
X56151Y-53356D02*
X56614Y-53356D01*
X56062Y-53267D02*
X56151Y-53356D01*
X56840Y-57273D02*
X56614Y-57273D01*
X57244Y-57677D02*
X56840Y-57273D01*
X56328Y-56899D02*
X56614Y-56899D01*
X56181Y-57047D02*
X56328Y-56899D01*
X56181Y-57834D02*
X56181Y-57047D01*
X56377Y-58031D02*
X56181Y-57834D01*
X57637Y-58031D02*
X56377Y-58031D01*
X57716Y-58110D02*
X57637Y-58031D01*
X56643Y-60816D02*
X56614Y-60816D01*
X56250Y-60816D02*
X56614Y-60816D01*
X56102Y-60669D02*
X56250Y-60816D01*
X56102Y-60314D02*
X56102Y-60669D01*
X56574Y-59842D02*
X56102Y-60314D01*
X57952Y-59842D02*
X56574Y-59842D01*
X58070Y-59724D02*
X57952Y-59842D01*
X38612Y-64360D02*
X38897Y-64360D01*
X38464Y-64212D02*
X38612Y-64360D01*
X38464Y-63858D02*
X38464Y-64212D01*
X38307Y-63700D02*
X38464Y-63858D01*
X38307Y-63425D02*
X38307Y-63700D01*
X38543Y-63188D02*
X38307Y-63425D01*
X38543Y-61889D02*
X38543Y-63188D01*
X38070Y-61417D02*
X38543Y-61889D01*
X38070Y-61181D02*
X38070Y-61417D01*
X38188Y-61062D02*
X38070Y-61181D01*
X38188Y-60866D02*
X38188Y-61062D01*
X38897Y-63779D02*
X38897Y-63986D01*
X38661Y-63543D02*
X38897Y-63779D01*
X38651Y-60816D02*
X38897Y-60816D01*
X38110Y-60275D02*
X38651Y-60816D01*
X37795Y-60275D02*
X38110Y-60275D01*
X38592Y-60442D02*
X38897Y-60442D01*
X37992Y-59842D02*
X38592Y-60442D01*
X44015Y-60236D02*
X44015Y-60905D01*
X43858Y-60078D02*
X44015Y-60236D01*
X43149Y-60078D02*
X43858Y-60078D01*
X42785Y-60442D02*
X43149Y-60078D01*
X42440Y-60442D02*
X42785Y-60442D01*
X38395Y-57273D02*
X38897Y-57273D01*
X38385Y-57283D02*
X38395Y-57273D01*
X42440Y-64409D02*
X42440Y-64360D01*
X42795Y-64763D02*
X42440Y-64409D01*
X38897Y-56535D02*
X38897Y-56899D01*
X38937Y-56496D02*
X38897Y-56535D01*
X42440Y-63937D02*
X42440Y-63986D01*
X42913Y-63464D02*
X42440Y-63937D01*
X43425Y-63464D02*
X42913Y-63464D01*
X38395Y-53730D02*
X38897Y-53730D01*
X38385Y-53740D02*
X38395Y-53730D01*
X38897Y-52874D02*
X38897Y-53356D01*
X41938Y-53730D02*
X42440Y-53730D01*
X41929Y-53740D02*
X41938Y-53730D01*
X41978Y-53356D02*
X42440Y-53356D01*
X41889Y-53267D02*
X41978Y-53356D01*
X42667Y-57273D02*
X42440Y-57273D01*
X43070Y-57677D02*
X42667Y-57273D01*
X42155Y-56899D02*
X42440Y-56899D01*
X42007Y-57047D02*
X42155Y-56899D01*
X42007Y-57834D02*
X42007Y-57047D01*
X42204Y-58031D02*
X42007Y-57834D01*
X43464Y-58031D02*
X42204Y-58031D01*
X43543Y-58110D02*
X43464Y-58031D01*
X42076Y-60816D02*
X42440Y-60816D01*
X41929Y-60669D02*
X42076Y-60816D01*
X41929Y-60314D02*
X41929Y-60669D01*
X42401Y-59842D02*
X41929Y-60314D01*
X43779Y-59842D02*
X42401Y-59842D01*
X43897Y-59724D02*
X43779Y-59842D01*
X42470Y-60816D02*
X42440Y-60816D01*
X49242Y-56899D02*
X49527Y-56899D01*
X49094Y-57047D02*
X49242Y-56899D01*
X49094Y-57834D02*
X49094Y-57047D01*
X49291Y-58031D02*
X49094Y-57834D01*
X50551Y-58031D02*
X49291Y-58031D01*
X50629Y-58110D02*
X50551Y-58031D01*
X49557Y-60816D02*
X49527Y-60816D01*
X49163Y-60816D02*
X49527Y-60816D01*
X49015Y-60669D02*
X49163Y-60816D01*
X49015Y-60314D02*
X49015Y-60669D01*
X49488Y-59842D02*
X49015Y-60314D01*
X50866Y-59842D02*
X49488Y-59842D01*
X50984Y-59724D02*
X50866Y-59842D01*
X54596Y-58996D02*
X55062Y-58529D01*
X54596Y-60822D02*
X54596Y-58996D01*
X53488Y-61929D02*
X54596Y-60822D01*
X53070Y-61929D02*
X53488Y-61929D01*
X55082Y-55338D02*
X48138Y-55338D01*
X47959Y-58074D02*
X48449Y-57583D01*
X47959Y-60529D02*
X47959Y-58074D01*
X49477Y-62047D02*
X47959Y-60529D01*
X50472Y-62047D02*
X49477Y-62047D01*
X49527Y-49606D02*
X49527Y-49812D01*
X49291Y-49370D02*
X49527Y-49606D01*
X48946Y-50187D02*
X49527Y-50187D01*
X48937Y-50196D02*
X48946Y-50187D01*
X49527Y-45944D02*
X49527Y-46269D01*
X49645Y-45826D02*
X49527Y-45944D01*
X49527Y-47047D02*
X49527Y-46643D01*
X49685Y-47204D02*
X49527Y-47047D01*
X51751Y-43366D02*
X51574Y-43543D01*
X51751Y-42539D02*
X51751Y-43366D01*
X51102Y-41889D02*
X51751Y-42539D01*
X50669Y-41889D02*
X51102Y-41889D01*
X49832Y-42726D02*
X50669Y-41889D01*
X49527Y-42726D02*
X49832Y-42726D01*
X51220Y-43267D02*
X51417Y-43070D01*
X51220Y-43582D02*
X51220Y-43267D01*
X50748Y-44055D02*
X51220Y-43582D01*
X50511Y-44055D02*
X50748Y-44055D01*
X50275Y-43818D02*
X50511Y-44055D01*
X50275Y-43543D02*
X50275Y-43818D01*
X49832Y-43100D02*
X50275Y-43543D01*
X49527Y-43100D02*
X49832Y-43100D01*
X49104Y-39183D02*
X49527Y-39183D01*
X48976Y-39055D02*
X49104Y-39183D01*
X49005Y-39557D02*
X49527Y-39557D01*
X48976Y-39527D02*
X49005Y-39557D01*
X45442Y-50187D02*
X45984Y-50187D01*
X45393Y-50236D02*
X45442Y-50187D01*
X45984Y-50147D02*
X45984Y-50187D01*
X45442Y-49812D02*
X45984Y-49812D01*
X45393Y-49763D02*
X45442Y-49812D01*
X45423Y-46643D02*
X45984Y-46643D01*
X45393Y-46614D02*
X45423Y-46643D01*
X45482Y-46269D02*
X45984Y-46269D01*
X45196Y-45984D02*
X45482Y-46269D01*
X45698Y-43100D02*
X45984Y-43100D01*
X45354Y-42755D02*
X45698Y-43100D01*
X45954Y-42726D02*
X45984Y-42726D01*
X45551Y-42322D02*
X45954Y-42726D01*
X45521Y-39557D02*
X45984Y-39557D01*
X45393Y-39685D02*
X45521Y-39557D01*
X45442Y-39183D02*
X45984Y-39183D01*
X45433Y-39173D02*
X45442Y-39183D01*
X52509Y-46643D02*
X53070Y-46643D01*
X52480Y-46614D02*
X52509Y-46643D01*
X42440Y-47047D02*
X42440Y-46643D01*
X42598Y-47204D02*
X42440Y-47047D01*
X42440Y-49606D02*
X42440Y-49812D01*
X42204Y-49370D02*
X42440Y-49606D01*
X41860Y-50187D02*
X42440Y-50187D01*
X41850Y-50196D02*
X41860Y-50187D01*
X42440Y-45944D02*
X42440Y-46269D01*
X42559Y-45826D02*
X42440Y-45944D01*
X44763Y-43307D02*
X44645Y-43425D01*
X44763Y-42637D02*
X44763Y-43307D01*
X44015Y-41889D02*
X44763Y-42637D01*
X43582Y-41889D02*
X44015Y-41889D01*
X42746Y-42726D02*
X43582Y-41889D01*
X42440Y-42726D02*
X42746Y-42726D01*
X44133Y-43267D02*
X44330Y-43070D01*
X44133Y-43582D02*
X44133Y-43267D01*
X43661Y-44055D02*
X44133Y-43582D01*
X43425Y-44055D02*
X43661Y-44055D01*
X43188Y-43818D02*
X43425Y-44055D01*
X43188Y-43543D02*
X43188Y-43818D01*
X42746Y-43100D02*
X43188Y-43543D01*
X42440Y-43100D02*
X42746Y-43100D01*
X42017Y-39183D02*
X42440Y-39183D01*
X41889Y-39055D02*
X42017Y-39183D01*
X41919Y-39557D02*
X42440Y-39557D01*
X41889Y-39527D02*
X41919Y-39557D01*
X52790Y-41215D02*
X53070Y-41496D01*
X50821Y-41215D02*
X52790Y-41215D01*
X50472Y-41564D02*
X50821Y-41215D01*
X50472Y-41614D02*
X50472Y-41564D01*
X57559Y-41570D02*
X57559Y-41614D01*
X57909Y-41220D02*
X57559Y-41570D01*
X59881Y-41220D02*
X57909Y-41220D01*
X60157Y-41496D02*
X59881Y-41220D01*
X45316Y-40787D02*
X45047Y-40787D01*
X45984Y-41456D02*
X45316Y-40787D01*
X43026Y-44268D02*
X44290Y-44268D01*
X42054Y-43296D02*
X43026Y-44268D01*
X42054Y-42513D02*
X42054Y-43296D01*
X42953Y-41614D02*
X42054Y-42513D01*
X43385Y-41614D02*
X42953Y-41614D01*
X56033Y-50187D02*
X56614Y-50187D01*
X56023Y-50196D02*
X56033Y-50187D01*
X56614Y-49606D02*
X56614Y-49812D01*
X56377Y-49370D02*
X56614Y-49606D01*
X56190Y-39183D02*
X56614Y-39183D01*
X56062Y-39055D02*
X56190Y-39183D01*
X56092Y-39557D02*
X56614Y-39557D01*
X56062Y-39527D02*
X56092Y-39557D01*
X58937Y-43307D02*
X58818Y-43425D01*
X58937Y-42637D02*
X58937Y-43307D01*
X58188Y-41889D02*
X58937Y-42637D01*
X57755Y-41889D02*
X58188Y-41889D01*
X56919Y-42726D02*
X57755Y-41889D01*
X56614Y-42726D02*
X56919Y-42726D01*
X58307Y-43267D02*
X58503Y-43070D01*
X58307Y-43582D02*
X58307Y-43267D01*
X57834Y-44055D02*
X58307Y-43582D01*
X57598Y-44055D02*
X57834Y-44055D01*
X57362Y-43818D02*
X57598Y-44055D01*
X57362Y-43543D02*
X57362Y-43818D01*
X56919Y-43100D02*
X57362Y-43543D01*
X56614Y-43100D02*
X56919Y-43100D01*
X56614Y-45944D02*
X56614Y-46269D01*
X56732Y-45826D02*
X56614Y-45944D01*
X56614Y-47047D02*
X56614Y-46643D01*
X56771Y-47204D02*
X56614Y-47047D01*
X38435Y-39557D02*
X38897Y-39557D01*
X38307Y-39685D02*
X38435Y-39557D01*
X38356Y-39183D02*
X38897Y-39183D01*
X38346Y-39173D02*
X38356Y-39183D01*
X38868Y-42726D02*
X38897Y-42726D01*
X38464Y-42322D02*
X38868Y-42726D01*
X38612Y-43100D02*
X38897Y-43100D01*
X38267Y-42755D02*
X38612Y-43100D01*
X38395Y-46269D02*
X38897Y-46269D01*
X38110Y-45984D02*
X38395Y-46269D01*
X38336Y-46643D02*
X38897Y-46643D01*
X38307Y-46614D02*
X38336Y-46643D01*
X38356Y-49812D02*
X38897Y-49812D01*
X38307Y-49763D02*
X38356Y-49812D01*
X38356Y-50187D02*
X38897Y-50187D01*
X38307Y-50236D02*
X38356Y-50187D01*
X38897Y-50147D02*
X38897Y-50187D01*
X52529Y-39183D02*
X53070Y-39183D01*
X52519Y-39173D02*
X52529Y-39183D01*
X52608Y-39557D02*
X53070Y-39557D01*
X52480Y-39685D02*
X52608Y-39557D01*
X53041Y-42726D02*
X53070Y-42726D01*
X52637Y-42322D02*
X53041Y-42726D01*
X52785Y-43100D02*
X53070Y-43100D01*
X52440Y-42755D02*
X52785Y-43100D01*
X52568Y-46269D02*
X53070Y-46269D01*
X52283Y-45984D02*
X52568Y-46269D01*
X52529Y-49812D02*
X53070Y-49812D01*
X52480Y-49763D02*
X52529Y-49812D01*
X52529Y-50187D02*
X53070Y-50187D01*
X52480Y-50236D02*
X52529Y-50187D01*
X53070Y-50147D02*
X53070Y-50187D01*
G54D10*
G36*
X30505Y-46510D02*
X29019Y-46510D01*
X28900Y-46460D01*
X28731Y-46460D01*
X28575Y-46525D01*
X28455Y-46644D01*
X28390Y-46800D01*
X28390Y-46969D01*
X28443Y-47097D01*
X27710Y-46365D01*
X27715Y-46353D01*
X27715Y-46135D01*
X27631Y-45932D01*
X27477Y-45778D01*
X27374Y-45735D01*
X27374Y-45283D01*
X27059Y-44968D01*
X26743Y-45283D01*
X26771Y-45378D01*
X26977Y-45452D01*
X27195Y-45441D01*
X27346Y-45378D01*
X27374Y-45283D01*
X27374Y-45735D01*
X27275Y-45694D01*
X27056Y-45693D01*
X26854Y-45777D01*
X26699Y-45932D01*
X26647Y-46056D01*
X26647Y-45205D01*
X26673Y-45212D01*
X26988Y-44897D01*
X26673Y-44582D01*
X26647Y-44589D01*
X26647Y-44263D01*
X26747Y-44363D01*
X26822Y-44395D01*
X26771Y-44416D01*
X26743Y-44511D01*
X27059Y-44826D01*
X27064Y-44821D01*
X27135Y-44892D01*
X27129Y-44897D01*
X27444Y-45212D01*
X27540Y-45185D01*
X27560Y-45130D01*
X27592Y-45208D01*
X27747Y-45363D01*
X27949Y-45447D01*
X28167Y-45447D01*
X28370Y-45364D01*
X28525Y-45209D01*
X28608Y-45007D01*
X28609Y-44788D01*
X28571Y-44697D01*
X28693Y-44697D01*
X30505Y-46510D01*
X30505Y-46510D01*
G37*
G54D19*
X30505Y-46510D02*
X29019Y-46510D01*
X28900Y-46460D01*
X28731Y-46460D01*
X28575Y-46525D01*
X28455Y-46644D01*
X28390Y-46800D01*
X28390Y-46969D01*
X28443Y-47097D01*
X27710Y-46365D01*
X27715Y-46353D01*
X27715Y-46135D01*
X27631Y-45932D01*
X27477Y-45778D01*
X27374Y-45735D01*
X27374Y-45283D01*
X27059Y-44968D01*
X26743Y-45283D01*
X26771Y-45378D01*
X26977Y-45452D01*
X27195Y-45441D01*
X27346Y-45378D01*
X27374Y-45283D01*
X27374Y-45735D01*
X27275Y-45694D01*
X27056Y-45693D01*
X26854Y-45777D01*
X26699Y-45932D01*
X26647Y-46056D01*
X26647Y-45205D01*
X26673Y-45212D01*
X26988Y-44897D01*
X26673Y-44582D01*
X26647Y-44589D01*
X26647Y-44263D01*
X26747Y-44363D01*
X26822Y-44395D01*
X26771Y-44416D01*
X26743Y-44511D01*
X27059Y-44826D01*
X27064Y-44821D01*
X27135Y-44892D01*
X27129Y-44897D01*
X27444Y-45212D01*
X27540Y-45185D01*
X27560Y-45130D01*
X27592Y-45208D01*
X27747Y-45363D01*
X27949Y-45447D01*
X28167Y-45447D01*
X28370Y-45364D01*
X28525Y-45209D01*
X28608Y-45007D01*
X28609Y-44788D01*
X28571Y-44697D01*
X28693Y-44697D01*
X30505Y-46510D01*
G54D10*
G36*
X82407Y-66068D02*
X28848Y-66068D01*
X28947Y-66025D01*
X29052Y-65749D01*
X29044Y-65454D01*
X28947Y-65218D01*
X28832Y-65167D01*
X28761Y-65238D01*
X28761Y-65097D01*
X28710Y-64981D01*
X28434Y-64876D01*
X28139Y-64884D01*
X27903Y-64981D01*
X27852Y-65097D01*
X28307Y-65551D01*
X28761Y-65097D01*
X28761Y-65238D01*
X28377Y-65622D01*
X28383Y-65627D01*
X28312Y-65698D01*
X28307Y-65692D01*
X28301Y-65698D01*
X28230Y-65627D01*
X28236Y-65622D01*
X27782Y-65167D01*
X27666Y-65218D01*
X27561Y-65494D01*
X27569Y-65789D01*
X27666Y-66025D01*
X27765Y-66068D01*
X26647Y-66068D01*
X26647Y-60009D01*
X26686Y-60103D01*
X26844Y-60262D01*
X27052Y-60348D01*
X27277Y-60348D01*
X27484Y-60262D01*
X27644Y-60103D01*
X27730Y-59896D01*
X27730Y-59671D01*
X27644Y-59463D01*
X27485Y-59304D01*
X27278Y-59218D01*
X27053Y-59218D01*
X26845Y-59304D01*
X26686Y-59463D01*
X26647Y-59557D01*
X26647Y-50502D01*
X26686Y-50595D01*
X26844Y-50754D01*
X27052Y-50840D01*
X27277Y-50840D01*
X27484Y-50754D01*
X27644Y-50596D01*
X27730Y-50388D01*
X27730Y-50163D01*
X27644Y-49955D01*
X27485Y-49796D01*
X27278Y-49710D01*
X27053Y-49710D01*
X26845Y-49796D01*
X26686Y-49955D01*
X26647Y-50049D01*
X26647Y-48671D01*
X26653Y-48685D01*
X26723Y-48755D01*
X26815Y-48794D01*
X26914Y-48794D01*
X27514Y-48794D01*
X27606Y-48756D01*
X27677Y-48685D01*
X27715Y-48594D01*
X27715Y-48494D01*
X27715Y-47894D01*
X27677Y-47802D01*
X27607Y-47732D01*
X27515Y-47694D01*
X27493Y-47694D01*
X27631Y-47556D01*
X27715Y-47353D01*
X27715Y-47218D01*
X28234Y-47737D01*
X28332Y-47802D01*
X28446Y-47825D01*
X28447Y-47825D01*
X36457Y-47825D01*
X36457Y-48425D01*
X36457Y-51377D01*
X36457Y-53385D01*
X36457Y-56850D01*
X36457Y-57086D01*
X36457Y-60008D01*
X35634Y-60831D01*
X35634Y-60831D01*
X35039Y-61426D01*
X35091Y-61301D01*
X35091Y-61132D01*
X35026Y-60976D01*
X34907Y-60856D01*
X34751Y-60792D01*
X34582Y-60791D01*
X34425Y-60856D01*
X34306Y-60975D01*
X34241Y-61132D01*
X34241Y-61217D01*
X33777Y-61681D01*
X32366Y-61681D01*
X32306Y-61621D01*
X32150Y-61556D01*
X31981Y-61556D01*
X31825Y-61621D01*
X31705Y-61740D01*
X31640Y-61896D01*
X31640Y-62048D01*
X29771Y-62048D01*
X29561Y-62090D01*
X29382Y-62209D01*
X29002Y-62589D01*
X29002Y-62193D01*
X28843Y-61807D01*
X28548Y-61511D01*
X28162Y-61351D01*
X27744Y-61351D01*
X27358Y-61510D01*
X27063Y-61806D01*
X26902Y-62191D01*
X26902Y-62609D01*
X27062Y-62995D01*
X27357Y-63291D01*
X27684Y-63426D01*
X27642Y-63468D01*
X27604Y-63560D01*
X27604Y-63659D01*
X27604Y-64565D01*
X27642Y-64657D01*
X27712Y-64727D01*
X27804Y-64765D01*
X27903Y-64765D01*
X28809Y-64765D01*
X28901Y-64727D01*
X28971Y-64657D01*
X29009Y-64565D01*
X29009Y-64466D01*
X29009Y-64138D01*
X29999Y-63148D01*
X34645Y-63148D01*
X34856Y-63106D01*
X35034Y-62987D01*
X35761Y-62260D01*
X35760Y-62609D01*
X35920Y-62995D01*
X36215Y-63291D01*
X36601Y-63451D01*
X37018Y-63451D01*
X37405Y-63292D01*
X37700Y-62997D01*
X37731Y-62922D01*
X37731Y-64133D01*
X37754Y-64248D01*
X37819Y-64345D01*
X38331Y-64857D01*
X38331Y-64857D01*
X38428Y-64922D01*
X38543Y-64945D01*
X39803Y-64945D01*
X42001Y-64945D01*
X42386Y-65330D01*
X42386Y-65330D01*
X42483Y-65395D01*
X42598Y-65418D01*
X42952Y-65418D01*
X42952Y-65418D01*
X43067Y-65395D01*
X43067Y-65395D01*
X43164Y-65330D01*
X43549Y-64945D01*
X46889Y-64945D01*
X49088Y-64945D01*
X49472Y-65330D01*
X49472Y-65330D01*
X49570Y-65395D01*
X49685Y-65418D01*
X50039Y-65418D01*
X50039Y-65418D01*
X50154Y-65395D01*
X50154Y-65395D01*
X50251Y-65330D01*
X50636Y-64945D01*
X53976Y-64945D01*
X56174Y-64945D01*
X56559Y-65330D01*
X56559Y-65330D01*
X56656Y-65395D01*
X56771Y-65418D01*
X57125Y-65418D01*
X57125Y-65418D01*
X57240Y-65395D01*
X57240Y-65395D01*
X57338Y-65330D01*
X57722Y-64945D01*
X61062Y-64945D01*
X63261Y-64945D01*
X63646Y-65330D01*
X63646Y-65330D01*
X63743Y-65395D01*
X63858Y-65418D01*
X64212Y-65418D01*
X64212Y-65418D01*
X64327Y-65395D01*
X64327Y-65395D01*
X64424Y-65330D01*
X64809Y-64945D01*
X68149Y-64945D01*
X70348Y-64945D01*
X70732Y-65330D01*
X70732Y-65330D01*
X70830Y-65395D01*
X70944Y-65418D01*
X71299Y-65418D01*
X71299Y-65418D01*
X71414Y-65395D01*
X71414Y-65395D01*
X71511Y-65330D01*
X71895Y-64945D01*
X75236Y-64945D01*
X77434Y-64945D01*
X77819Y-65330D01*
X77819Y-65330D01*
X77916Y-65395D01*
X78031Y-65418D01*
X78385Y-65418D01*
X78385Y-65418D01*
X78500Y-65395D01*
X78500Y-65395D01*
X78597Y-65330D01*
X79031Y-64897D01*
X79031Y-64897D01*
X79096Y-64799D01*
X79110Y-64725D01*
X79110Y-64725D01*
X79196Y-64690D01*
X79266Y-64620D01*
X79295Y-64551D01*
X79300Y-64557D01*
X79456Y-64622D01*
X79625Y-64622D01*
X79782Y-64557D01*
X79901Y-64438D01*
X79966Y-64282D01*
X79966Y-64113D01*
X79902Y-63956D01*
X79841Y-63896D01*
X79841Y-62844D01*
X79841Y-62843D01*
X79819Y-62729D01*
X79754Y-62631D01*
X79369Y-62247D01*
X79429Y-62223D01*
X79548Y-62103D01*
X79613Y-61947D01*
X79613Y-61861D01*
X80005Y-61470D01*
X80070Y-61372D01*
X80093Y-61258D01*
X80092Y-61257D01*
X80092Y-57293D01*
X80093Y-57292D01*
X80070Y-57177D01*
X80005Y-57080D01*
X78141Y-55217D01*
X78380Y-55217D01*
X78380Y-55217D01*
X78433Y-55206D01*
X78433Y-55206D01*
X78599Y-55206D01*
X78756Y-55142D01*
X78875Y-55022D01*
X78940Y-54866D01*
X78940Y-54697D01*
X78876Y-54541D01*
X78756Y-54421D01*
X78600Y-54356D01*
X78431Y-54356D01*
X78275Y-54421D01*
X78155Y-54540D01*
X78123Y-54617D01*
X75379Y-54617D01*
X76014Y-53982D01*
X76014Y-53982D01*
X76079Y-53884D01*
X76102Y-53770D01*
X76102Y-53770D01*
X76102Y-53697D01*
X76162Y-53637D01*
X76227Y-53481D01*
X76227Y-53312D01*
X76162Y-53156D01*
X76043Y-53036D01*
X75887Y-52971D01*
X75718Y-52971D01*
X75619Y-53012D01*
X75561Y-52988D01*
X75462Y-52988D01*
X75380Y-52988D01*
X75212Y-52819D01*
X77858Y-52819D01*
X78026Y-52988D01*
X77644Y-52988D01*
X77563Y-52907D01*
X77407Y-52842D01*
X77238Y-52842D01*
X77082Y-52907D01*
X76962Y-53026D01*
X76897Y-53182D01*
X76897Y-53351D01*
X76962Y-53508D01*
X76987Y-53533D01*
X76937Y-53655D01*
X76937Y-53824D01*
X77001Y-53980D01*
X77121Y-54100D01*
X77277Y-54165D01*
X77446Y-54165D01*
X77602Y-54100D01*
X77604Y-54098D01*
X77687Y-54098D01*
X78159Y-54098D01*
X78251Y-54060D01*
X78322Y-53990D01*
X78346Y-53931D01*
X78370Y-53989D01*
X78440Y-54060D01*
X78532Y-54098D01*
X78632Y-54098D01*
X79104Y-54098D01*
X79196Y-54060D01*
X79232Y-54024D01*
X79319Y-54007D01*
X79417Y-53942D01*
X79482Y-53845D01*
X79505Y-53730D01*
X79505Y-53521D01*
X79490Y-53449D01*
X79482Y-53406D01*
X79482Y-53406D01*
X79482Y-53406D01*
X79440Y-53343D01*
X79417Y-53309D01*
X79417Y-53309D01*
X79417Y-53309D01*
X79417Y-53309D01*
X79305Y-53196D01*
X79305Y-53188D01*
X79267Y-53096D01*
X79196Y-53026D01*
X79105Y-52988D01*
X79005Y-52988D01*
X78875Y-52988D01*
X78194Y-52307D01*
X78097Y-52242D01*
X77982Y-52219D01*
X74488Y-52219D01*
X70905Y-52219D01*
X67401Y-52219D01*
X63858Y-52219D01*
X60472Y-52219D01*
X56889Y-52219D01*
X53425Y-52219D01*
X49842Y-52219D01*
X46338Y-52219D01*
X42755Y-52219D01*
X39251Y-52219D01*
X37913Y-52219D01*
X37798Y-52242D01*
X37701Y-52307D01*
X37557Y-52450D01*
X37557Y-51377D01*
X37557Y-51252D01*
X37722Y-51087D01*
X39242Y-51087D01*
X42716Y-51087D01*
X42785Y-51087D01*
X46328Y-51087D01*
X49872Y-51087D01*
X53415Y-51087D01*
X56958Y-51087D01*
X60501Y-51087D01*
X64045Y-51087D01*
X67588Y-51087D01*
X71131Y-51087D01*
X74675Y-51087D01*
X78218Y-51087D01*
X78218Y-51087D01*
X78333Y-51064D01*
X78333Y-51064D01*
X78430Y-50999D01*
X78875Y-50555D01*
X79104Y-50555D01*
X79196Y-50517D01*
X79266Y-50446D01*
X79305Y-50355D01*
X79305Y-50255D01*
X79305Y-50019D01*
X79297Y-50000D01*
X79305Y-49981D01*
X79305Y-49881D01*
X79305Y-49645D01*
X79267Y-49553D01*
X79196Y-49483D01*
X79105Y-49444D01*
X79005Y-49444D01*
X78533Y-49444D01*
X78441Y-49482D01*
X78370Y-49553D01*
X78346Y-49611D01*
X78322Y-49553D01*
X78252Y-49483D01*
X78160Y-49444D01*
X78120Y-49444D01*
X78086Y-49394D01*
X78062Y-49370D01*
X78062Y-49285D01*
X77998Y-49129D01*
X77878Y-49009D01*
X77722Y-48945D01*
X77553Y-48945D01*
X77397Y-49009D01*
X77277Y-49129D01*
X77212Y-49285D01*
X77212Y-49454D01*
X77277Y-49610D01*
X77387Y-49721D01*
X77387Y-49744D01*
X77387Y-49779D01*
X77368Y-49771D01*
X77199Y-49771D01*
X77043Y-49836D01*
X76923Y-49955D01*
X76858Y-50111D01*
X76858Y-50281D01*
X76922Y-50437D01*
X76972Y-50487D01*
X75683Y-50487D01*
X75723Y-50446D01*
X75761Y-50355D01*
X75761Y-50255D01*
X75761Y-50019D01*
X75753Y-50000D01*
X75761Y-49981D01*
X75761Y-49881D01*
X75761Y-49645D01*
X75723Y-49553D01*
X75653Y-49483D01*
X75561Y-49444D01*
X75462Y-49444D01*
X74989Y-49444D01*
X74897Y-49482D01*
X74827Y-49553D01*
X74803Y-49611D01*
X74778Y-49553D01*
X74708Y-49483D01*
X74616Y-49444D01*
X74517Y-49444D01*
X74044Y-49444D01*
X74028Y-49451D01*
X73981Y-49403D01*
X73825Y-49338D01*
X73655Y-49338D01*
X73499Y-49403D01*
X73380Y-49522D01*
X73315Y-49678D01*
X73315Y-49847D01*
X73377Y-50000D01*
X73315Y-50151D01*
X73315Y-50320D01*
X73379Y-50476D01*
X73390Y-50487D01*
X72139Y-50487D01*
X72180Y-50446D01*
X72218Y-50355D01*
X72218Y-50255D01*
X72218Y-50019D01*
X72210Y-50000D01*
X72218Y-49981D01*
X72218Y-49881D01*
X72218Y-49645D01*
X72180Y-49553D01*
X72110Y-49483D01*
X72018Y-49444D01*
X71918Y-49444D01*
X71446Y-49444D01*
X71354Y-49482D01*
X71284Y-49553D01*
X71259Y-49611D01*
X71235Y-49553D01*
X71165Y-49483D01*
X71073Y-49444D01*
X71033Y-49444D01*
X70999Y-49394D01*
X70976Y-49370D01*
X70976Y-49285D01*
X70911Y-49129D01*
X70792Y-49009D01*
X70636Y-48945D01*
X70467Y-48945D01*
X70310Y-49009D01*
X70191Y-49129D01*
X70126Y-49285D01*
X70126Y-49454D01*
X70190Y-49610D01*
X70301Y-49721D01*
X70301Y-49744D01*
X70301Y-49779D01*
X70281Y-49771D01*
X70112Y-49771D01*
X69956Y-49836D01*
X69836Y-49955D01*
X69771Y-50111D01*
X69771Y-50281D01*
X69836Y-50437D01*
X69886Y-50487D01*
X68596Y-50487D01*
X68637Y-50446D01*
X68675Y-50355D01*
X68675Y-50255D01*
X68675Y-50019D01*
X68667Y-50000D01*
X68675Y-49981D01*
X68675Y-49881D01*
X68675Y-49645D01*
X68637Y-49553D01*
X68566Y-49483D01*
X68475Y-49444D01*
X68375Y-49444D01*
X67903Y-49444D01*
X67811Y-49482D01*
X67740Y-49553D01*
X67716Y-49611D01*
X67692Y-49553D01*
X67622Y-49483D01*
X67530Y-49444D01*
X67430Y-49444D01*
X66958Y-49444D01*
X66942Y-49451D01*
X66894Y-49403D01*
X66738Y-49338D01*
X66569Y-49338D01*
X66413Y-49403D01*
X66293Y-49522D01*
X66228Y-49678D01*
X66228Y-49847D01*
X66291Y-50000D01*
X66228Y-50151D01*
X66228Y-50320D01*
X66293Y-50476D01*
X66303Y-50487D01*
X65053Y-50487D01*
X65093Y-50446D01*
X65131Y-50355D01*
X65131Y-50255D01*
X65131Y-50019D01*
X65123Y-50000D01*
X65131Y-49981D01*
X65131Y-49881D01*
X65131Y-49645D01*
X65093Y-49553D01*
X65023Y-49483D01*
X64931Y-49444D01*
X64832Y-49444D01*
X64359Y-49444D01*
X64268Y-49482D01*
X64197Y-49553D01*
X64173Y-49611D01*
X64149Y-49553D01*
X64078Y-49483D01*
X63986Y-49444D01*
X63946Y-49444D01*
X63912Y-49394D01*
X63889Y-49370D01*
X63889Y-49285D01*
X63825Y-49129D01*
X63705Y-49009D01*
X63549Y-48945D01*
X63380Y-48945D01*
X63224Y-49009D01*
X63104Y-49129D01*
X63039Y-49285D01*
X63039Y-49454D01*
X63104Y-49610D01*
X63214Y-49721D01*
X63214Y-49744D01*
X63214Y-49779D01*
X63195Y-49771D01*
X63026Y-49771D01*
X62869Y-49836D01*
X62750Y-49955D01*
X62685Y-50111D01*
X62685Y-50281D01*
X62749Y-50437D01*
X62799Y-50487D01*
X61509Y-50487D01*
X61550Y-50446D01*
X61588Y-50355D01*
X61588Y-50255D01*
X61588Y-50158D01*
X61705Y-50158D01*
X61862Y-50093D01*
X61981Y-49974D01*
X62046Y-49818D01*
X62046Y-49732D01*
X62288Y-49491D01*
X62288Y-49490D01*
X62288Y-49490D01*
X62288Y-49490D01*
X63038Y-48740D01*
X64476Y-48740D01*
X64536Y-48801D01*
X64693Y-48865D01*
X64862Y-48866D01*
X65018Y-48801D01*
X65138Y-48682D01*
X65202Y-48525D01*
X65203Y-48356D01*
X65138Y-48200D01*
X65019Y-48080D01*
X64862Y-48016D01*
X64693Y-48015D01*
X64537Y-48080D01*
X64476Y-48140D01*
X62914Y-48140D01*
X62799Y-48163D01*
X62702Y-48228D01*
X62076Y-48854D01*
X61159Y-47937D01*
X63976Y-47937D01*
X67519Y-47937D01*
X71062Y-47937D01*
X74606Y-47937D01*
X78149Y-47937D01*
X78149Y-47937D01*
X78264Y-47914D01*
X78264Y-47914D01*
X78361Y-47849D01*
X79031Y-47180D01*
X79096Y-47083D01*
X79110Y-47009D01*
X79110Y-47009D01*
X79196Y-46973D01*
X79266Y-46903D01*
X79305Y-46811D01*
X79305Y-46712D01*
X79305Y-46476D01*
X79297Y-46456D01*
X79305Y-46437D01*
X79305Y-46338D01*
X79305Y-46102D01*
X79304Y-46099D01*
X79375Y-46028D01*
X79440Y-45872D01*
X79440Y-45703D01*
X79376Y-45546D01*
X79256Y-45427D01*
X79100Y-45362D01*
X78931Y-45362D01*
X78775Y-45426D01*
X78655Y-45546D01*
X78590Y-45702D01*
X78590Y-45796D01*
X78541Y-45869D01*
X78535Y-45901D01*
X78533Y-45901D01*
X78441Y-45939D01*
X78380Y-46000D01*
X78417Y-45911D01*
X78417Y-45742D01*
X78352Y-45586D01*
X78233Y-45466D01*
X78077Y-45401D01*
X77907Y-45401D01*
X77751Y-45466D01*
X77632Y-45585D01*
X77567Y-45741D01*
X77567Y-45910D01*
X77496Y-45939D01*
X77425Y-46009D01*
X77387Y-46101D01*
X77387Y-46201D01*
X77387Y-46437D01*
X77395Y-46456D01*
X77387Y-46475D01*
X77387Y-46575D01*
X77387Y-46811D01*
X77425Y-46903D01*
X77495Y-46973D01*
X77574Y-47006D01*
X77574Y-47047D01*
X77596Y-47162D01*
X77606Y-47176D01*
X77606Y-47288D01*
X77626Y-47337D01*
X75330Y-47337D01*
X75487Y-47180D01*
X75552Y-47083D01*
X75567Y-47009D01*
X75567Y-47009D01*
X75653Y-46973D01*
X75723Y-46903D01*
X75761Y-46811D01*
X75761Y-46712D01*
X75761Y-46476D01*
X75753Y-46456D01*
X75761Y-46437D01*
X75761Y-46338D01*
X75761Y-46102D01*
X75723Y-46010D01*
X75653Y-45939D01*
X75575Y-45907D01*
X75575Y-43462D01*
X75653Y-43430D01*
X75723Y-43360D01*
X75761Y-43268D01*
X75761Y-43168D01*
X75761Y-42932D01*
X75753Y-42913D01*
X75761Y-42894D01*
X75761Y-42794D01*
X75761Y-42558D01*
X75723Y-42466D01*
X75653Y-42396D01*
X75561Y-42358D01*
X75462Y-42358D01*
X75031Y-42358D01*
X75031Y-41346D01*
X75009Y-41231D01*
X74944Y-41133D01*
X74944Y-41133D01*
X74755Y-40945D01*
X74755Y-40918D01*
X75153Y-40918D01*
X75589Y-41353D01*
X75686Y-41418D01*
X75686Y-41418D01*
X75801Y-41441D01*
X78399Y-41441D01*
X78421Y-41463D01*
X78393Y-41529D01*
X78393Y-41698D01*
X78458Y-41854D01*
X78577Y-41974D01*
X78694Y-42022D01*
X78582Y-42022D01*
X78467Y-42045D01*
X78370Y-42110D01*
X78122Y-42358D01*
X78060Y-42358D01*
X77588Y-42358D01*
X77496Y-42396D01*
X77425Y-42466D01*
X77387Y-42558D01*
X77387Y-42657D01*
X77387Y-42893D01*
X77395Y-42913D01*
X77387Y-42932D01*
X77387Y-43031D01*
X77387Y-43268D01*
X77425Y-43359D01*
X77495Y-43430D01*
X77587Y-43468D01*
X77687Y-43468D01*
X78123Y-43468D01*
X78322Y-43667D01*
X78322Y-43818D01*
X78344Y-43933D01*
X78409Y-44031D01*
X78646Y-44267D01*
X78743Y-44332D01*
X78858Y-44355D01*
X79094Y-44355D01*
X79094Y-44355D01*
X79209Y-44332D01*
X79209Y-44332D01*
X79306Y-44267D01*
X79779Y-43794D01*
X79779Y-43794D01*
X79806Y-43753D01*
X79837Y-43785D01*
X79993Y-43850D01*
X80162Y-43850D01*
X80319Y-43785D01*
X80438Y-43666D01*
X80503Y-43510D01*
X80503Y-43341D01*
X80494Y-43318D01*
X80496Y-43307D01*
X80496Y-43307D01*
X80496Y-43031D01*
X80474Y-42916D01*
X80408Y-42819D01*
X80408Y-42819D01*
X79700Y-42110D01*
X79602Y-42045D01*
X79488Y-42022D01*
X78942Y-42022D01*
X79059Y-41974D01*
X79119Y-41914D01*
X79409Y-41914D01*
X79409Y-41914D01*
X79524Y-41891D01*
X79524Y-41891D01*
X79621Y-41826D01*
X79739Y-41708D01*
X79804Y-41610D01*
X79827Y-41496D01*
X79827Y-41496D01*
X79827Y-40156D01*
X79873Y-40045D01*
X79873Y-39876D01*
X79809Y-39720D01*
X79689Y-39600D01*
X79533Y-39535D01*
X79364Y-39535D01*
X79305Y-39560D01*
X79305Y-39389D01*
X79297Y-39370D01*
X79305Y-39351D01*
X79305Y-39251D01*
X79305Y-39015D01*
X79267Y-38923D01*
X79196Y-38853D01*
X79105Y-38815D01*
X79005Y-38814D01*
X78875Y-38814D01*
X78430Y-38370D01*
X78333Y-38305D01*
X78218Y-38282D01*
X74675Y-38282D01*
X74606Y-38282D01*
X71131Y-38282D01*
X67588Y-38282D01*
X67519Y-38282D01*
X65551Y-38282D01*
X64045Y-38282D01*
X60501Y-38282D01*
X60433Y-38282D01*
X58464Y-38282D01*
X56958Y-38282D01*
X53415Y-38282D01*
X53346Y-38282D01*
X51377Y-38282D01*
X49872Y-38282D01*
X46328Y-38282D01*
X46259Y-38282D01*
X44291Y-38282D01*
X42785Y-38282D01*
X42716Y-38282D01*
X39242Y-38282D01*
X39173Y-38282D01*
X37653Y-38282D01*
X37593Y-38193D01*
X37415Y-38074D01*
X37204Y-38032D01*
X36994Y-38074D01*
X36815Y-38193D01*
X35044Y-39965D01*
X34924Y-40143D01*
X34883Y-40354D01*
X34883Y-41732D01*
X34924Y-41942D01*
X35044Y-42121D01*
X35938Y-43015D01*
X35938Y-43015D01*
X36457Y-43534D01*
X36457Y-47225D01*
X33756Y-47225D01*
X33756Y-47113D01*
X33691Y-46957D01*
X33572Y-46837D01*
X33416Y-46773D01*
X33247Y-46772D01*
X33090Y-46837D01*
X33030Y-46898D01*
X32411Y-46898D01*
X32412Y-46895D01*
X32413Y-46726D01*
X32348Y-46570D01*
X32229Y-46450D01*
X32072Y-46385D01*
X31903Y-46385D01*
X31747Y-46449D01*
X31686Y-46510D01*
X31678Y-46510D01*
X31731Y-46383D01*
X31731Y-46214D01*
X31667Y-46058D01*
X31547Y-45938D01*
X31391Y-45873D01*
X31222Y-45873D01*
X31066Y-45938D01*
X31005Y-45998D01*
X30842Y-45998D01*
X30135Y-45291D01*
X30213Y-45214D01*
X30226Y-45182D01*
X30253Y-45248D01*
X30372Y-45368D01*
X30528Y-45433D01*
X30698Y-45433D01*
X30854Y-45368D01*
X30973Y-45249D01*
X31038Y-45093D01*
X31038Y-45007D01*
X34350Y-41695D01*
X34436Y-41695D01*
X34592Y-41630D01*
X34712Y-41511D01*
X34776Y-41355D01*
X34777Y-41186D01*
X34712Y-41030D01*
X34593Y-40910D01*
X34436Y-40845D01*
X34267Y-40845D01*
X34111Y-40909D01*
X33991Y-41029D01*
X33927Y-41185D01*
X33926Y-41270D01*
X30614Y-44583D01*
X30529Y-44583D01*
X30373Y-44647D01*
X30253Y-44767D01*
X30240Y-44798D01*
X30213Y-44732D01*
X30093Y-44613D01*
X29937Y-44548D01*
X29852Y-44548D01*
X29002Y-43699D01*
X29002Y-40933D01*
X28843Y-40547D01*
X28548Y-40252D01*
X28162Y-40091D01*
X27744Y-40091D01*
X27358Y-40251D01*
X27063Y-40546D01*
X26902Y-40931D01*
X26902Y-41349D01*
X27062Y-41735D01*
X27357Y-42031D01*
X27742Y-42191D01*
X28160Y-42191D01*
X28546Y-42032D01*
X28842Y-41737D01*
X29002Y-41351D01*
X29002Y-40933D01*
X29002Y-43699D01*
X28989Y-43685D01*
X28891Y-43620D01*
X28777Y-43597D01*
X28530Y-43597D01*
X28525Y-43586D01*
X28387Y-43447D01*
X28408Y-43447D01*
X28500Y-43409D01*
X28570Y-43339D01*
X28609Y-43247D01*
X28609Y-43148D01*
X28609Y-42548D01*
X28571Y-42456D01*
X28500Y-42385D01*
X28409Y-42347D01*
X28309Y-42347D01*
X27709Y-42347D01*
X27617Y-42385D01*
X27547Y-42455D01*
X27509Y-42547D01*
X27509Y-42569D01*
X27371Y-42431D01*
X27168Y-42347D01*
X26950Y-42347D01*
X26747Y-42431D01*
X26647Y-42531D01*
X26647Y-37474D01*
X82407Y-37474D01*
X82407Y-40597D01*
X82386Y-40547D01*
X82091Y-40252D01*
X81705Y-40091D01*
X81288Y-40091D01*
X80902Y-40251D01*
X80606Y-40546D01*
X80446Y-40931D01*
X80445Y-41349D01*
X80605Y-41735D01*
X80900Y-42031D01*
X81286Y-42191D01*
X81704Y-42191D01*
X82090Y-42032D01*
X82385Y-41737D01*
X82407Y-41684D01*
X82407Y-61857D01*
X82386Y-61807D01*
X82091Y-61511D01*
X81705Y-61351D01*
X81288Y-61351D01*
X80902Y-61510D01*
X80606Y-61806D01*
X80446Y-62191D01*
X80445Y-62609D01*
X80605Y-62995D01*
X80900Y-63291D01*
X81286Y-63451D01*
X81704Y-63451D01*
X82090Y-63292D01*
X82385Y-62997D01*
X82407Y-62944D01*
X82407Y-66068D01*
X82407Y-66068D01*
G37*
G54D19*
X82407Y-66068D02*
X28848Y-66068D01*
X28947Y-66025D01*
X29052Y-65749D01*
X29044Y-65454D01*
X28947Y-65218D01*
X28832Y-65167D01*
X28761Y-65238D01*
X28761Y-65097D01*
X28710Y-64981D01*
X28434Y-64876D01*
X28139Y-64884D01*
X27903Y-64981D01*
X27852Y-65097D01*
X28307Y-65551D01*
X28761Y-65097D01*
X28761Y-65238D01*
X28377Y-65622D01*
X28383Y-65627D01*
X28312Y-65698D01*
X28307Y-65692D01*
X28301Y-65698D01*
X28230Y-65627D01*
X28236Y-65622D01*
X27782Y-65167D01*
X27666Y-65218D01*
X27561Y-65494D01*
X27569Y-65789D01*
X27666Y-66025D01*
X27765Y-66068D01*
X26647Y-66068D01*
X26647Y-60009D01*
X26686Y-60103D01*
X26844Y-60262D01*
X27052Y-60348D01*
X27277Y-60348D01*
X27484Y-60262D01*
X27644Y-60103D01*
X27730Y-59896D01*
X27730Y-59671D01*
X27644Y-59463D01*
X27485Y-59304D01*
X27278Y-59218D01*
X27053Y-59218D01*
X26845Y-59304D01*
X26686Y-59463D01*
X26647Y-59557D01*
X26647Y-50502D01*
X26686Y-50595D01*
X26844Y-50754D01*
X27052Y-50840D01*
X27277Y-50840D01*
X27484Y-50754D01*
X27644Y-50596D01*
X27730Y-50388D01*
X27730Y-50163D01*
X27644Y-49955D01*
X27485Y-49796D01*
X27278Y-49710D01*
X27053Y-49710D01*
X26845Y-49796D01*
X26686Y-49955D01*
X26647Y-50049D01*
X26647Y-48671D01*
X26653Y-48685D01*
X26723Y-48755D01*
X26815Y-48794D01*
X26914Y-48794D01*
X27514Y-48794D01*
X27606Y-48756D01*
X27677Y-48685D01*
X27715Y-48594D01*
X27715Y-48494D01*
X27715Y-47894D01*
X27677Y-47802D01*
X27607Y-47732D01*
X27515Y-47694D01*
X27493Y-47694D01*
X27631Y-47556D01*
X27715Y-47353D01*
X27715Y-47218D01*
X28234Y-47737D01*
X28332Y-47802D01*
X28446Y-47825D01*
X28447Y-47825D01*
X36457Y-47825D01*
X36457Y-48425D01*
X36457Y-51377D01*
X36457Y-53385D01*
X36457Y-56850D01*
X36457Y-57086D01*
X36457Y-60008D01*
X35634Y-60831D01*
X35634Y-60831D01*
X35039Y-61426D01*
X35091Y-61301D01*
X35091Y-61132D01*
X35026Y-60976D01*
X34907Y-60856D01*
X34751Y-60792D01*
X34582Y-60791D01*
X34425Y-60856D01*
X34306Y-60975D01*
X34241Y-61132D01*
X34241Y-61217D01*
X33777Y-61681D01*
X32366Y-61681D01*
X32306Y-61621D01*
X32150Y-61556D01*
X31981Y-61556D01*
X31825Y-61621D01*
X31705Y-61740D01*
X31640Y-61896D01*
X31640Y-62048D01*
X29771Y-62048D01*
X29561Y-62090D01*
X29382Y-62209D01*
X29002Y-62589D01*
X29002Y-62193D01*
X28843Y-61807D01*
X28548Y-61511D01*
X28162Y-61351D01*
X27744Y-61351D01*
X27358Y-61510D01*
X27063Y-61806D01*
X26902Y-62191D01*
X26902Y-62609D01*
X27062Y-62995D01*
X27357Y-63291D01*
X27684Y-63426D01*
X27642Y-63468D01*
X27604Y-63560D01*
X27604Y-63659D01*
X27604Y-64565D01*
X27642Y-64657D01*
X27712Y-64727D01*
X27804Y-64765D01*
X27903Y-64765D01*
X28809Y-64765D01*
X28901Y-64727D01*
X28971Y-64657D01*
X29009Y-64565D01*
X29009Y-64466D01*
X29009Y-64138D01*
X29999Y-63148D01*
X34645Y-63148D01*
X34856Y-63106D01*
X35034Y-62987D01*
X35761Y-62260D01*
X35760Y-62609D01*
X35920Y-62995D01*
X36215Y-63291D01*
X36601Y-63451D01*
X37018Y-63451D01*
X37405Y-63292D01*
X37700Y-62997D01*
X37731Y-62922D01*
X37731Y-64133D01*
X37754Y-64248D01*
X37819Y-64345D01*
X38331Y-64857D01*
X38331Y-64857D01*
X38428Y-64922D01*
X38543Y-64945D01*
X39803Y-64945D01*
X42001Y-64945D01*
X42386Y-65330D01*
X42386Y-65330D01*
X42483Y-65395D01*
X42598Y-65418D01*
X42952Y-65418D01*
X42952Y-65418D01*
X43067Y-65395D01*
X43067Y-65395D01*
X43164Y-65330D01*
X43549Y-64945D01*
X46889Y-64945D01*
X49088Y-64945D01*
X49472Y-65330D01*
X49472Y-65330D01*
X49570Y-65395D01*
X49685Y-65418D01*
X50039Y-65418D01*
X50039Y-65418D01*
X50154Y-65395D01*
X50154Y-65395D01*
X50251Y-65330D01*
X50636Y-64945D01*
X53976Y-64945D01*
X56174Y-64945D01*
X56559Y-65330D01*
X56559Y-65330D01*
X56656Y-65395D01*
X56771Y-65418D01*
X57125Y-65418D01*
X57125Y-65418D01*
X57240Y-65395D01*
X57240Y-65395D01*
X57338Y-65330D01*
X57722Y-64945D01*
X61062Y-64945D01*
X63261Y-64945D01*
X63646Y-65330D01*
X63646Y-65330D01*
X63743Y-65395D01*
X63858Y-65418D01*
X64212Y-65418D01*
X64212Y-65418D01*
X64327Y-65395D01*
X64327Y-65395D01*
X64424Y-65330D01*
X64809Y-64945D01*
X68149Y-64945D01*
X70348Y-64945D01*
X70732Y-65330D01*
X70732Y-65330D01*
X70830Y-65395D01*
X70944Y-65418D01*
X71299Y-65418D01*
X71299Y-65418D01*
X71414Y-65395D01*
X71414Y-65395D01*
X71511Y-65330D01*
X71895Y-64945D01*
X75236Y-64945D01*
X77434Y-64945D01*
X77819Y-65330D01*
X77819Y-65330D01*
X77916Y-65395D01*
X78031Y-65418D01*
X78385Y-65418D01*
X78385Y-65418D01*
X78500Y-65395D01*
X78500Y-65395D01*
X78597Y-65330D01*
X79031Y-64897D01*
X79031Y-64897D01*
X79096Y-64799D01*
X79110Y-64725D01*
X79110Y-64725D01*
X79196Y-64690D01*
X79266Y-64620D01*
X79295Y-64551D01*
X79300Y-64557D01*
X79456Y-64622D01*
X79625Y-64622D01*
X79782Y-64557D01*
X79901Y-64438D01*
X79966Y-64282D01*
X79966Y-64113D01*
X79902Y-63956D01*
X79841Y-63896D01*
X79841Y-62844D01*
X79841Y-62843D01*
X79819Y-62729D01*
X79754Y-62631D01*
X79369Y-62247D01*
X79429Y-62223D01*
X79548Y-62103D01*
X79613Y-61947D01*
X79613Y-61861D01*
X80005Y-61470D01*
X80070Y-61372D01*
X80093Y-61258D01*
X80092Y-61257D01*
X80092Y-57293D01*
X80093Y-57292D01*
X80070Y-57177D01*
X80005Y-57080D01*
X78141Y-55217D01*
X78380Y-55217D01*
X78380Y-55217D01*
X78433Y-55206D01*
X78433Y-55206D01*
X78599Y-55206D01*
X78756Y-55142D01*
X78875Y-55022D01*
X78940Y-54866D01*
X78940Y-54697D01*
X78876Y-54541D01*
X78756Y-54421D01*
X78600Y-54356D01*
X78431Y-54356D01*
X78275Y-54421D01*
X78155Y-54540D01*
X78123Y-54617D01*
X75379Y-54617D01*
X76014Y-53982D01*
X76014Y-53982D01*
X76079Y-53884D01*
X76102Y-53770D01*
X76102Y-53770D01*
X76102Y-53697D01*
X76162Y-53637D01*
X76227Y-53481D01*
X76227Y-53312D01*
X76162Y-53156D01*
X76043Y-53036D01*
X75887Y-52971D01*
X75718Y-52971D01*
X75619Y-53012D01*
X75561Y-52988D01*
X75462Y-52988D01*
X75380Y-52988D01*
X75212Y-52819D01*
X77858Y-52819D01*
X78026Y-52988D01*
X77644Y-52988D01*
X77563Y-52907D01*
X77407Y-52842D01*
X77238Y-52842D01*
X77082Y-52907D01*
X76962Y-53026D01*
X76897Y-53182D01*
X76897Y-53351D01*
X76962Y-53508D01*
X76987Y-53533D01*
X76937Y-53655D01*
X76937Y-53824D01*
X77001Y-53980D01*
X77121Y-54100D01*
X77277Y-54165D01*
X77446Y-54165D01*
X77602Y-54100D01*
X77604Y-54098D01*
X77687Y-54098D01*
X78159Y-54098D01*
X78251Y-54060D01*
X78322Y-53990D01*
X78346Y-53931D01*
X78370Y-53989D01*
X78440Y-54060D01*
X78532Y-54098D01*
X78632Y-54098D01*
X79104Y-54098D01*
X79196Y-54060D01*
X79232Y-54024D01*
X79319Y-54007D01*
X79417Y-53942D01*
X79482Y-53845D01*
X79505Y-53730D01*
X79505Y-53521D01*
X79490Y-53449D01*
X79482Y-53406D01*
X79482Y-53406D01*
X79482Y-53406D01*
X79440Y-53343D01*
X79417Y-53309D01*
X79417Y-53309D01*
X79417Y-53309D01*
X79417Y-53309D01*
X79305Y-53196D01*
X79305Y-53188D01*
X79267Y-53096D01*
X79196Y-53026D01*
X79105Y-52988D01*
X79005Y-52988D01*
X78875Y-52988D01*
X78194Y-52307D01*
X78097Y-52242D01*
X77982Y-52219D01*
X74488Y-52219D01*
X70905Y-52219D01*
X67401Y-52219D01*
X63858Y-52219D01*
X60472Y-52219D01*
X56889Y-52219D01*
X53425Y-52219D01*
X49842Y-52219D01*
X46338Y-52219D01*
X42755Y-52219D01*
X39251Y-52219D01*
X37913Y-52219D01*
X37798Y-52242D01*
X37701Y-52307D01*
X37557Y-52450D01*
X37557Y-51377D01*
X37557Y-51252D01*
X37722Y-51087D01*
X39242Y-51087D01*
X42716Y-51087D01*
X42785Y-51087D01*
X46328Y-51087D01*
X49872Y-51087D01*
X53415Y-51087D01*
X56958Y-51087D01*
X60501Y-51087D01*
X64045Y-51087D01*
X67588Y-51087D01*
X71131Y-51087D01*
X74675Y-51087D01*
X78218Y-51087D01*
X78218Y-51087D01*
X78333Y-51064D01*
X78333Y-51064D01*
X78430Y-50999D01*
X78875Y-50555D01*
X79104Y-50555D01*
X79196Y-50517D01*
X79266Y-50446D01*
X79305Y-50355D01*
X79305Y-50255D01*
X79305Y-50019D01*
X79297Y-50000D01*
X79305Y-49981D01*
X79305Y-49881D01*
X79305Y-49645D01*
X79267Y-49553D01*
X79196Y-49483D01*
X79105Y-49444D01*
X79005Y-49444D01*
X78533Y-49444D01*
X78441Y-49482D01*
X78370Y-49553D01*
X78346Y-49611D01*
X78322Y-49553D01*
X78252Y-49483D01*
X78160Y-49444D01*
X78120Y-49444D01*
X78086Y-49394D01*
X78062Y-49370D01*
X78062Y-49285D01*
X77998Y-49129D01*
X77878Y-49009D01*
X77722Y-48945D01*
X77553Y-48945D01*
X77397Y-49009D01*
X77277Y-49129D01*
X77212Y-49285D01*
X77212Y-49454D01*
X77277Y-49610D01*
X77387Y-49721D01*
X77387Y-49744D01*
X77387Y-49779D01*
X77368Y-49771D01*
X77199Y-49771D01*
X77043Y-49836D01*
X76923Y-49955D01*
X76858Y-50111D01*
X76858Y-50281D01*
X76922Y-50437D01*
X76972Y-50487D01*
X75683Y-50487D01*
X75723Y-50446D01*
X75761Y-50355D01*
X75761Y-50255D01*
X75761Y-50019D01*
X75753Y-50000D01*
X75761Y-49981D01*
X75761Y-49881D01*
X75761Y-49645D01*
X75723Y-49553D01*
X75653Y-49483D01*
X75561Y-49444D01*
X75462Y-49444D01*
X74989Y-49444D01*
X74897Y-49482D01*
X74827Y-49553D01*
X74803Y-49611D01*
X74778Y-49553D01*
X74708Y-49483D01*
X74616Y-49444D01*
X74517Y-49444D01*
X74044Y-49444D01*
X74028Y-49451D01*
X73981Y-49403D01*
X73825Y-49338D01*
X73655Y-49338D01*
X73499Y-49403D01*
X73380Y-49522D01*
X73315Y-49678D01*
X73315Y-49847D01*
X73377Y-50000D01*
X73315Y-50151D01*
X73315Y-50320D01*
X73379Y-50476D01*
X73390Y-50487D01*
X72139Y-50487D01*
X72180Y-50446D01*
X72218Y-50355D01*
X72218Y-50255D01*
X72218Y-50019D01*
X72210Y-50000D01*
X72218Y-49981D01*
X72218Y-49881D01*
X72218Y-49645D01*
X72180Y-49553D01*
X72110Y-49483D01*
X72018Y-49444D01*
X71918Y-49444D01*
X71446Y-49444D01*
X71354Y-49482D01*
X71284Y-49553D01*
X71259Y-49611D01*
X71235Y-49553D01*
X71165Y-49483D01*
X71073Y-49444D01*
X71033Y-49444D01*
X70999Y-49394D01*
X70976Y-49370D01*
X70976Y-49285D01*
X70911Y-49129D01*
X70792Y-49009D01*
X70636Y-48945D01*
X70467Y-48945D01*
X70310Y-49009D01*
X70191Y-49129D01*
X70126Y-49285D01*
X70126Y-49454D01*
X70190Y-49610D01*
X70301Y-49721D01*
X70301Y-49744D01*
X70301Y-49779D01*
X70281Y-49771D01*
X70112Y-49771D01*
X69956Y-49836D01*
X69836Y-49955D01*
X69771Y-50111D01*
X69771Y-50281D01*
X69836Y-50437D01*
X69886Y-50487D01*
X68596Y-50487D01*
X68637Y-50446D01*
X68675Y-50355D01*
X68675Y-50255D01*
X68675Y-50019D01*
X68667Y-50000D01*
X68675Y-49981D01*
X68675Y-49881D01*
X68675Y-49645D01*
X68637Y-49553D01*
X68566Y-49483D01*
X68475Y-49444D01*
X68375Y-49444D01*
X67903Y-49444D01*
X67811Y-49482D01*
X67740Y-49553D01*
X67716Y-49611D01*
X67692Y-49553D01*
X67622Y-49483D01*
X67530Y-49444D01*
X67430Y-49444D01*
X66958Y-49444D01*
X66942Y-49451D01*
X66894Y-49403D01*
X66738Y-49338D01*
X66569Y-49338D01*
X66413Y-49403D01*
X66293Y-49522D01*
X66228Y-49678D01*
X66228Y-49847D01*
X66291Y-50000D01*
X66228Y-50151D01*
X66228Y-50320D01*
X66293Y-50476D01*
X66303Y-50487D01*
X65053Y-50487D01*
X65093Y-50446D01*
X65131Y-50355D01*
X65131Y-50255D01*
X65131Y-50019D01*
X65123Y-50000D01*
X65131Y-49981D01*
X65131Y-49881D01*
X65131Y-49645D01*
X65093Y-49553D01*
X65023Y-49483D01*
X64931Y-49444D01*
X64832Y-49444D01*
X64359Y-49444D01*
X64268Y-49482D01*
X64197Y-49553D01*
X64173Y-49611D01*
X64149Y-49553D01*
X64078Y-49483D01*
X63986Y-49444D01*
X63946Y-49444D01*
X63912Y-49394D01*
X63889Y-49370D01*
X63889Y-49285D01*
X63825Y-49129D01*
X63705Y-49009D01*
X63549Y-48945D01*
X63380Y-48945D01*
X63224Y-49009D01*
X63104Y-49129D01*
X63039Y-49285D01*
X63039Y-49454D01*
X63104Y-49610D01*
X63214Y-49721D01*
X63214Y-49744D01*
X63214Y-49779D01*
X63195Y-49771D01*
X63026Y-49771D01*
X62869Y-49836D01*
X62750Y-49955D01*
X62685Y-50111D01*
X62685Y-50281D01*
X62749Y-50437D01*
X62799Y-50487D01*
X61509Y-50487D01*
X61550Y-50446D01*
X61588Y-50355D01*
X61588Y-50255D01*
X61588Y-50158D01*
X61705Y-50158D01*
X61862Y-50093D01*
X61981Y-49974D01*
X62046Y-49818D01*
X62046Y-49732D01*
X62288Y-49491D01*
X62288Y-49490D01*
X62288Y-49490D01*
X62288Y-49490D01*
X63038Y-48740D01*
X64476Y-48740D01*
X64536Y-48801D01*
X64693Y-48865D01*
X64862Y-48866D01*
X65018Y-48801D01*
X65138Y-48682D01*
X65202Y-48525D01*
X65203Y-48356D01*
X65138Y-48200D01*
X65019Y-48080D01*
X64862Y-48016D01*
X64693Y-48015D01*
X64537Y-48080D01*
X64476Y-48140D01*
X62914Y-48140D01*
X62799Y-48163D01*
X62702Y-48228D01*
X62076Y-48854D01*
X61159Y-47937D01*
X63976Y-47937D01*
X67519Y-47937D01*
X71062Y-47937D01*
X74606Y-47937D01*
X78149Y-47937D01*
X78149Y-47937D01*
X78264Y-47914D01*
X78264Y-47914D01*
X78361Y-47849D01*
X79031Y-47180D01*
X79096Y-47083D01*
X79110Y-47009D01*
X79110Y-47009D01*
X79196Y-46973D01*
X79266Y-46903D01*
X79305Y-46811D01*
X79305Y-46712D01*
X79305Y-46476D01*
X79297Y-46456D01*
X79305Y-46437D01*
X79305Y-46338D01*
X79305Y-46102D01*
X79304Y-46099D01*
X79375Y-46028D01*
X79440Y-45872D01*
X79440Y-45703D01*
X79376Y-45546D01*
X79256Y-45427D01*
X79100Y-45362D01*
X78931Y-45362D01*
X78775Y-45426D01*
X78655Y-45546D01*
X78590Y-45702D01*
X78590Y-45796D01*
X78541Y-45869D01*
X78535Y-45901D01*
X78533Y-45901D01*
X78441Y-45939D01*
X78380Y-46000D01*
X78417Y-45911D01*
X78417Y-45742D01*
X78352Y-45586D01*
X78233Y-45466D01*
X78077Y-45401D01*
X77907Y-45401D01*
X77751Y-45466D01*
X77632Y-45585D01*
X77567Y-45741D01*
X77567Y-45910D01*
X77496Y-45939D01*
X77425Y-46009D01*
X77387Y-46101D01*
X77387Y-46201D01*
X77387Y-46437D01*
X77395Y-46456D01*
X77387Y-46475D01*
X77387Y-46575D01*
X77387Y-46811D01*
X77425Y-46903D01*
X77495Y-46973D01*
X77574Y-47006D01*
X77574Y-47047D01*
X77596Y-47162D01*
X77606Y-47176D01*
X77606Y-47288D01*
X77626Y-47337D01*
X75330Y-47337D01*
X75487Y-47180D01*
X75552Y-47083D01*
X75567Y-47009D01*
X75567Y-47009D01*
X75653Y-46973D01*
X75723Y-46903D01*
X75761Y-46811D01*
X75761Y-46712D01*
X75761Y-46476D01*
X75753Y-46456D01*
X75761Y-46437D01*
X75761Y-46338D01*
X75761Y-46102D01*
X75723Y-46010D01*
X75653Y-45939D01*
X75575Y-45907D01*
X75575Y-43462D01*
X75653Y-43430D01*
X75723Y-43360D01*
X75761Y-43268D01*
X75761Y-43168D01*
X75761Y-42932D01*
X75753Y-42913D01*
X75761Y-42894D01*
X75761Y-42794D01*
X75761Y-42558D01*
X75723Y-42466D01*
X75653Y-42396D01*
X75561Y-42358D01*
X75462Y-42358D01*
X75031Y-42358D01*
X75031Y-41346D01*
X75009Y-41231D01*
X74944Y-41133D01*
X74944Y-41133D01*
X74755Y-40945D01*
X74755Y-40918D01*
X75153Y-40918D01*
X75589Y-41353D01*
X75686Y-41418D01*
X75686Y-41418D01*
X75801Y-41441D01*
X78399Y-41441D01*
X78421Y-41463D01*
X78393Y-41529D01*
X78393Y-41698D01*
X78458Y-41854D01*
X78577Y-41974D01*
X78694Y-42022D01*
X78582Y-42022D01*
X78467Y-42045D01*
X78370Y-42110D01*
X78122Y-42358D01*
X78060Y-42358D01*
X77588Y-42358D01*
X77496Y-42396D01*
X77425Y-42466D01*
X77387Y-42558D01*
X77387Y-42657D01*
X77387Y-42893D01*
X77395Y-42913D01*
X77387Y-42932D01*
X77387Y-43031D01*
X77387Y-43268D01*
X77425Y-43359D01*
X77495Y-43430D01*
X77587Y-43468D01*
X77687Y-43468D01*
X78123Y-43468D01*
X78322Y-43667D01*
X78322Y-43818D01*
X78344Y-43933D01*
X78409Y-44031D01*
X78646Y-44267D01*
X78743Y-44332D01*
X78858Y-44355D01*
X79094Y-44355D01*
X79094Y-44355D01*
X79209Y-44332D01*
X79209Y-44332D01*
X79306Y-44267D01*
X79779Y-43794D01*
X79779Y-43794D01*
X79806Y-43753D01*
X79837Y-43785D01*
X79993Y-43850D01*
X80162Y-43850D01*
X80319Y-43785D01*
X80438Y-43666D01*
X80503Y-43510D01*
X80503Y-43341D01*
X80494Y-43318D01*
X80496Y-43307D01*
X80496Y-43307D01*
X80496Y-43031D01*
X80474Y-42916D01*
X80408Y-42819D01*
X80408Y-42819D01*
X79700Y-42110D01*
X79602Y-42045D01*
X79488Y-42022D01*
X78942Y-42022D01*
X79059Y-41974D01*
X79119Y-41914D01*
X79409Y-41914D01*
X79409Y-41914D01*
X79524Y-41891D01*
X79524Y-41891D01*
X79621Y-41826D01*
X79739Y-41708D01*
X79804Y-41610D01*
X79827Y-41496D01*
X79827Y-41496D01*
X79827Y-40156D01*
X79873Y-40045D01*
X79873Y-39876D01*
X79809Y-39720D01*
X79689Y-39600D01*
X79533Y-39535D01*
X79364Y-39535D01*
X79305Y-39560D01*
X79305Y-39389D01*
X79297Y-39370D01*
X79305Y-39351D01*
X79305Y-39251D01*
X79305Y-39015D01*
X79267Y-38923D01*
X79196Y-38853D01*
X79105Y-38815D01*
X79005Y-38814D01*
X78875Y-38814D01*
X78430Y-38370D01*
X78333Y-38305D01*
X78218Y-38282D01*
X74675Y-38282D01*
X74606Y-38282D01*
X71131Y-38282D01*
X67588Y-38282D01*
X67519Y-38282D01*
X65551Y-38282D01*
X64045Y-38282D01*
X60501Y-38282D01*
X60433Y-38282D01*
X58464Y-38282D01*
X56958Y-38282D01*
X53415Y-38282D01*
X53346Y-38282D01*
X51377Y-38282D01*
X49872Y-38282D01*
X46328Y-38282D01*
X46259Y-38282D01*
X44291Y-38282D01*
X42785Y-38282D01*
X42716Y-38282D01*
X39242Y-38282D01*
X39173Y-38282D01*
X37653Y-38282D01*
X37593Y-38193D01*
X37415Y-38074D01*
X37204Y-38032D01*
X36994Y-38074D01*
X36815Y-38193D01*
X35044Y-39965D01*
X34924Y-40143D01*
X34883Y-40354D01*
X34883Y-41732D01*
X34924Y-41942D01*
X35044Y-42121D01*
X35938Y-43015D01*
X35938Y-43015D01*
X36457Y-43534D01*
X36457Y-47225D01*
X33756Y-47225D01*
X33756Y-47113D01*
X33691Y-46957D01*
X33572Y-46837D01*
X33416Y-46773D01*
X33247Y-46772D01*
X33090Y-46837D01*
X33030Y-46898D01*
X32411Y-46898D01*
X32412Y-46895D01*
X32413Y-46726D01*
X32348Y-46570D01*
X32229Y-46450D01*
X32072Y-46385D01*
X31903Y-46385D01*
X31747Y-46449D01*
X31686Y-46510D01*
X31678Y-46510D01*
X31731Y-46383D01*
X31731Y-46214D01*
X31667Y-46058D01*
X31547Y-45938D01*
X31391Y-45873D01*
X31222Y-45873D01*
X31066Y-45938D01*
X31005Y-45998D01*
X30842Y-45998D01*
X30135Y-45291D01*
X30213Y-45214D01*
X30226Y-45182D01*
X30253Y-45248D01*
X30372Y-45368D01*
X30528Y-45433D01*
X30698Y-45433D01*
X30854Y-45368D01*
X30973Y-45249D01*
X31038Y-45093D01*
X31038Y-45007D01*
X34350Y-41695D01*
X34436Y-41695D01*
X34592Y-41630D01*
X34712Y-41511D01*
X34776Y-41355D01*
X34777Y-41186D01*
X34712Y-41030D01*
X34593Y-40910D01*
X34436Y-40845D01*
X34267Y-40845D01*
X34111Y-40909D01*
X33991Y-41029D01*
X33927Y-41185D01*
X33926Y-41270D01*
X30614Y-44583D01*
X30529Y-44583D01*
X30373Y-44647D01*
X30253Y-44767D01*
X30240Y-44798D01*
X30213Y-44732D01*
X30093Y-44613D01*
X29937Y-44548D01*
X29852Y-44548D01*
X29002Y-43699D01*
X29002Y-40933D01*
X28843Y-40547D01*
X28548Y-40252D01*
X28162Y-40091D01*
X27744Y-40091D01*
X27358Y-40251D01*
X27063Y-40546D01*
X26902Y-40931D01*
X26902Y-41349D01*
X27062Y-41735D01*
X27357Y-42031D01*
X27742Y-42191D01*
X28160Y-42191D01*
X28546Y-42032D01*
X28842Y-41737D01*
X29002Y-41351D01*
X29002Y-40933D01*
X29002Y-43699D01*
X28989Y-43685D01*
X28891Y-43620D01*
X28777Y-43597D01*
X28530Y-43597D01*
X28525Y-43586D01*
X28387Y-43447D01*
X28408Y-43447D01*
X28500Y-43409D01*
X28570Y-43339D01*
X28609Y-43247D01*
X28609Y-43148D01*
X28609Y-42548D01*
X28571Y-42456D01*
X28500Y-42385D01*
X28409Y-42347D01*
X28309Y-42347D01*
X27709Y-42347D01*
X27617Y-42385D01*
X27547Y-42455D01*
X27509Y-42547D01*
X27509Y-42569D01*
X27371Y-42431D01*
X27168Y-42347D01*
X26950Y-42347D01*
X26747Y-42431D01*
X26647Y-42531D01*
X26647Y-37474D01*
X82407Y-37474D01*
X82407Y-40597D01*
X82386Y-40547D01*
X82091Y-40252D01*
X81705Y-40091D01*
X81288Y-40091D01*
X80902Y-40251D01*
X80606Y-40546D01*
X80446Y-40931D01*
X80445Y-41349D01*
X80605Y-41735D01*
X80900Y-42031D01*
X81286Y-42191D01*
X81704Y-42191D01*
X82090Y-42032D01*
X82385Y-41737D01*
X82407Y-41684D01*
X82407Y-61857D01*
X82386Y-61807D01*
X82091Y-61511D01*
X81705Y-61351D01*
X81288Y-61351D01*
X80902Y-61510D01*
X80606Y-61806D01*
X80446Y-62191D01*
X80445Y-62609D01*
X80605Y-62995D01*
X80900Y-63291D01*
X81286Y-63451D01*
X81704Y-63451D01*
X82090Y-63292D01*
X82385Y-62997D01*
X82407Y-62944D01*
X82407Y-66068D01*
M02*
