G04 (created by PCBNEW (2013-07-07 BZR 4022)-stable) date 5/10/2014 5:07:10 PM*
%MOIN*%
G04 Gerber Fmt 3.4, Leading zero omitted, Abs format*
%FSLAX34Y34*%
G01*
G70*
G90*
G04 APERTURE LIST*
%ADD10C,0.00590551*%
%ADD11R,0.0472441X0.023622*%
G04 APERTURE END LIST*
G54D10*
G54D11*
X78818Y-39183D03*
X78818Y-39557D03*
X77874Y-39557D03*
X77874Y-39183D03*
X78818Y-42726D03*
X78818Y-43100D03*
X77874Y-43100D03*
X77874Y-42726D03*
X54015Y-63986D03*
X54015Y-64360D03*
X53070Y-64360D03*
X53070Y-63986D03*
X57559Y-53356D03*
X57559Y-53730D03*
X56614Y-53730D03*
X56614Y-53356D03*
X57559Y-56899D03*
X57559Y-57273D03*
X56614Y-57273D03*
X56614Y-56899D03*
X57559Y-60442D03*
X57559Y-60816D03*
X56614Y-60816D03*
X56614Y-60442D03*
X57559Y-63986D03*
X57559Y-64360D03*
X56614Y-64360D03*
X56614Y-63986D03*
X50472Y-53356D03*
X50472Y-53730D03*
X49527Y-53730D03*
X49527Y-53356D03*
X50472Y-56899D03*
X50472Y-57273D03*
X49527Y-57273D03*
X49527Y-56899D03*
X50472Y-60442D03*
X50472Y-60816D03*
X49527Y-60816D03*
X49527Y-60442D03*
X50472Y-63986D03*
X50472Y-64360D03*
X49527Y-64360D03*
X49527Y-63986D03*
X54015Y-53356D03*
X54015Y-53730D03*
X53070Y-53730D03*
X53070Y-53356D03*
X54015Y-56899D03*
X54015Y-57273D03*
X53070Y-57273D03*
X53070Y-56899D03*
X54015Y-60442D03*
X54015Y-60816D03*
X53070Y-60816D03*
X53070Y-60442D03*
X61102Y-63986D03*
X61102Y-64360D03*
X60157Y-64360D03*
X60157Y-63986D03*
X46929Y-53356D03*
X46929Y-53730D03*
X45984Y-53730D03*
X45984Y-53356D03*
X46929Y-56899D03*
X46929Y-57273D03*
X45984Y-57273D03*
X45984Y-56899D03*
X46929Y-60442D03*
X46929Y-60816D03*
X45984Y-60816D03*
X45984Y-60442D03*
X46929Y-63986D03*
X46929Y-64360D03*
X45984Y-64360D03*
X45984Y-63986D03*
X43385Y-53356D03*
X43385Y-53730D03*
X42440Y-53730D03*
X42440Y-53356D03*
X43385Y-56899D03*
X43385Y-57273D03*
X42440Y-57273D03*
X42440Y-56899D03*
X43385Y-60442D03*
X43385Y-60816D03*
X42440Y-60816D03*
X42440Y-60442D03*
X43385Y-63986D03*
X43385Y-64360D03*
X42440Y-64360D03*
X42440Y-63986D03*
X39842Y-53356D03*
X39842Y-53730D03*
X38897Y-53730D03*
X38897Y-53356D03*
X39842Y-56899D03*
X39842Y-57273D03*
X38897Y-57273D03*
X38897Y-56899D03*
X64645Y-63986D03*
X64645Y-64360D03*
X63700Y-64360D03*
X63700Y-63986D03*
X78818Y-53356D03*
X78818Y-53730D03*
X77874Y-53730D03*
X77874Y-53356D03*
X78818Y-56899D03*
X78818Y-57273D03*
X77874Y-57273D03*
X77874Y-56899D03*
X78818Y-60442D03*
X78818Y-60816D03*
X77874Y-60816D03*
X77874Y-60442D03*
X78818Y-63986D03*
X78818Y-64360D03*
X77874Y-64360D03*
X77874Y-63986D03*
X71732Y-53356D03*
X71732Y-53730D03*
X70787Y-53730D03*
X70787Y-53356D03*
X71732Y-56899D03*
X71732Y-57273D03*
X70787Y-57273D03*
X70787Y-56899D03*
X71732Y-60442D03*
X71732Y-60816D03*
X70787Y-60816D03*
X70787Y-60442D03*
X71732Y-63986D03*
X71732Y-64360D03*
X70787Y-64360D03*
X70787Y-63986D03*
X64645Y-53356D03*
X64645Y-53730D03*
X63700Y-53730D03*
X63700Y-53356D03*
X64645Y-56899D03*
X64645Y-57273D03*
X63700Y-57273D03*
X63700Y-56899D03*
X64645Y-60442D03*
X64645Y-60816D03*
X63700Y-60816D03*
X63700Y-60442D03*
X39842Y-60442D03*
X39842Y-60816D03*
X38897Y-60816D03*
X38897Y-60442D03*
X75275Y-53356D03*
X75275Y-53730D03*
X74330Y-53730D03*
X74330Y-53356D03*
X75275Y-56899D03*
X75275Y-57273D03*
X74330Y-57273D03*
X74330Y-56899D03*
X75275Y-60442D03*
X75275Y-60816D03*
X74330Y-60816D03*
X74330Y-60442D03*
X75275Y-63986D03*
X75275Y-64360D03*
X74330Y-64360D03*
X74330Y-63986D03*
X68188Y-53356D03*
X68188Y-53730D03*
X67244Y-53730D03*
X67244Y-53356D03*
X68188Y-56899D03*
X68188Y-57273D03*
X67244Y-57273D03*
X67244Y-56899D03*
X68188Y-60442D03*
X68188Y-60816D03*
X67244Y-60816D03*
X67244Y-60442D03*
X61102Y-53356D03*
X61102Y-53730D03*
X60157Y-53730D03*
X60157Y-53356D03*
X61102Y-56899D03*
X61102Y-57273D03*
X60157Y-57273D03*
X60157Y-56899D03*
X61102Y-60442D03*
X61102Y-60816D03*
X60157Y-60816D03*
X60157Y-60442D03*
X64645Y-42726D03*
X64645Y-43100D03*
X63700Y-43100D03*
X63700Y-42726D03*
X57559Y-42726D03*
X57559Y-43100D03*
X56614Y-43100D03*
X56614Y-42726D03*
X57559Y-39183D03*
X57559Y-39557D03*
X56614Y-39557D03*
X56614Y-39183D03*
X61102Y-49812D03*
X61102Y-50187D03*
X60157Y-50187D03*
X60157Y-49812D03*
X61102Y-46269D03*
X61102Y-46643D03*
X60157Y-46643D03*
X60157Y-46269D03*
X61102Y-42726D03*
X61102Y-43100D03*
X60157Y-43100D03*
X60157Y-42726D03*
X61102Y-39183D03*
X61102Y-39557D03*
X60157Y-39557D03*
X60157Y-39183D03*
X68188Y-49812D03*
X68188Y-50187D03*
X67244Y-50187D03*
X67244Y-49812D03*
X68188Y-46269D03*
X68188Y-46643D03*
X67244Y-46643D03*
X67244Y-46269D03*
X68188Y-42726D03*
X68188Y-43100D03*
X67244Y-43100D03*
X67244Y-42726D03*
X68188Y-39183D03*
X68188Y-39557D03*
X67244Y-39557D03*
X67244Y-39183D03*
X64645Y-49812D03*
X64645Y-50187D03*
X63700Y-50187D03*
X63700Y-49812D03*
X57559Y-46269D03*
X57559Y-46643D03*
X56614Y-46643D03*
X56614Y-46269D03*
X64645Y-39183D03*
X64645Y-39557D03*
X63700Y-39557D03*
X63700Y-39183D03*
X71732Y-49812D03*
X71732Y-50187D03*
X70787Y-50187D03*
X70787Y-49812D03*
X71732Y-46269D03*
X71732Y-46643D03*
X70787Y-46643D03*
X70787Y-46269D03*
X71732Y-42726D03*
X71732Y-43100D03*
X70787Y-43100D03*
X70787Y-42726D03*
X71732Y-39183D03*
X71732Y-39557D03*
X70787Y-39557D03*
X70787Y-39183D03*
X75275Y-49812D03*
X75275Y-50187D03*
X74330Y-50187D03*
X74330Y-49812D03*
X75275Y-46269D03*
X75275Y-46643D03*
X74330Y-46643D03*
X74330Y-46269D03*
X75275Y-42726D03*
X75275Y-43100D03*
X74330Y-43100D03*
X74330Y-42726D03*
X75275Y-39183D03*
X75275Y-39557D03*
X74330Y-39557D03*
X74330Y-39183D03*
X78818Y-49812D03*
X78818Y-50187D03*
X77874Y-50187D03*
X77874Y-49812D03*
X54015Y-42726D03*
X54015Y-43100D03*
X53070Y-43100D03*
X53070Y-42726D03*
X39842Y-63986D03*
X39842Y-64360D03*
X38897Y-64360D03*
X38897Y-63986D03*
X39842Y-49812D03*
X39842Y-50187D03*
X38897Y-50187D03*
X38897Y-49812D03*
X39842Y-46269D03*
X39842Y-46643D03*
X38897Y-46643D03*
X38897Y-46269D03*
X39842Y-42726D03*
X39842Y-43100D03*
X38897Y-43100D03*
X38897Y-42726D03*
X39842Y-39183D03*
X39842Y-39557D03*
X38897Y-39557D03*
X38897Y-39183D03*
X46929Y-49812D03*
X46929Y-50187D03*
X45984Y-50187D03*
X45984Y-49812D03*
X46929Y-46269D03*
X46929Y-46643D03*
X45984Y-46643D03*
X45984Y-46269D03*
X46929Y-42726D03*
X46929Y-43100D03*
X45984Y-43100D03*
X45984Y-42726D03*
X46929Y-39183D03*
X46929Y-39557D03*
X45984Y-39557D03*
X45984Y-39183D03*
X54015Y-49812D03*
X54015Y-50187D03*
X53070Y-50187D03*
X53070Y-49812D03*
X54015Y-46269D03*
X54015Y-46643D03*
X53070Y-46643D03*
X53070Y-46269D03*
X78818Y-46269D03*
X78818Y-46643D03*
X77874Y-46643D03*
X77874Y-46269D03*
X54015Y-39183D03*
X54015Y-39557D03*
X53070Y-39557D03*
X53070Y-39183D03*
X43385Y-49812D03*
X43385Y-50187D03*
X42440Y-50187D03*
X42440Y-49812D03*
X43385Y-46269D03*
X43385Y-46643D03*
X42440Y-46643D03*
X42440Y-46269D03*
X43385Y-42726D03*
X43385Y-43100D03*
X42440Y-43100D03*
X42440Y-42726D03*
X43385Y-39183D03*
X43385Y-39557D03*
X42440Y-39557D03*
X42440Y-39183D03*
X50472Y-49812D03*
X50472Y-50187D03*
X49527Y-50187D03*
X49527Y-49812D03*
X50472Y-46269D03*
X50472Y-46643D03*
X49527Y-46643D03*
X49527Y-46269D03*
X50472Y-42726D03*
X50472Y-43100D03*
X49527Y-43100D03*
X49527Y-42726D03*
X50472Y-39183D03*
X50472Y-39557D03*
X49527Y-39557D03*
X49527Y-39183D03*
X57559Y-49812D03*
X57559Y-50187D03*
X56614Y-50187D03*
X56614Y-49812D03*
X64645Y-46269D03*
X64645Y-46643D03*
X63700Y-46643D03*
X63700Y-46269D03*
X68188Y-63986D03*
X68188Y-64360D03*
X67244Y-64360D03*
X67244Y-63986D03*
M02*
