G04 (created by PCBNEW (2013-07-07 BZR 4022)-stable) date 01/05/2014 03:57:46 PM*
%MOIN*%
G04 Gerber Fmt 3.4, Leading zero omitted, Abs format*
%FSLAX34Y34*%
G01*
G70*
G90*
G04 APERTURE LIST*
%ADD10C,0.00590551*%
%ADD11C,0.0590551*%
%ADD12R,0.0590551X0.0590551*%
%ADD13R,0.035X0.055*%
%ADD14R,0.06X0.06*%
%ADD15C,0.06*%
%ADD16R,0.161417X0.0275591*%
%ADD17R,0.161417X0.0393701*%
%ADD18R,0.05X0.016*%
%ADD19R,0.133858X0.38189*%
%ADD20R,0.0512X0.059*%
%ADD21R,0.059X0.0512*%
%ADD22R,0.144X0.08*%
%ADD23R,0.04X0.08*%
%ADD24R,0.055X0.035*%
%ADD25R,0.0315X0.0394*%
%ADD26R,0.0610236X0.0511811*%
%ADD27R,0.0787X0.0177*%
%ADD28R,0.0177X0.0787*%
%ADD29R,0.0393701X0.0590551*%
%ADD30R,0.0472441X0.0787402*%
%ADD31C,0.0629921*%
%ADD32C,0.17*%
G04 APERTURE END LIST*
G54D10*
G54D11*
X68897Y-50748D03*
X69881Y-50748D03*
X68897Y-51732D03*
X69881Y-51732D03*
X68897Y-52716D03*
X69881Y-52716D03*
X68897Y-53700D03*
X69881Y-53700D03*
X68897Y-54685D03*
X69881Y-54685D03*
X68897Y-55669D03*
X69881Y-55669D03*
X68897Y-56653D03*
X69881Y-56653D03*
G54D12*
X68897Y-57637D03*
G54D11*
X69881Y-57637D03*
X73484Y-57637D03*
X72500Y-57637D03*
X73484Y-56653D03*
X72500Y-56653D03*
X73484Y-55669D03*
X72500Y-55669D03*
X73484Y-54685D03*
X72500Y-54685D03*
X73484Y-53700D03*
X72500Y-53700D03*
X73484Y-52716D03*
X72500Y-52716D03*
X73484Y-51732D03*
X72500Y-51732D03*
G54D12*
X73484Y-50748D03*
G54D11*
X72500Y-50748D03*
G54D13*
X89705Y-57893D03*
X88955Y-57893D03*
X90363Y-60610D03*
X91113Y-60610D03*
X65394Y-57854D03*
X64644Y-57854D03*
X77756Y-57893D03*
X77006Y-57893D03*
X85865Y-65748D03*
X86615Y-65748D03*
G54D14*
X79503Y-67452D03*
G54D15*
X79503Y-68452D03*
X78503Y-67452D03*
X78503Y-68452D03*
X77503Y-67452D03*
X77503Y-68452D03*
G54D14*
X93437Y-68523D03*
G54D15*
X94437Y-68523D03*
G54D16*
X88671Y-61938D03*
G54D17*
X88671Y-62529D03*
G54D16*
X88671Y-63120D03*
G54D18*
X66321Y-56197D03*
X66321Y-55947D03*
X66321Y-55687D03*
X66321Y-55427D03*
X66321Y-55177D03*
X66321Y-54917D03*
X66321Y-54657D03*
X66321Y-54407D03*
X66321Y-54147D03*
X66321Y-53897D03*
X66321Y-53637D03*
X66321Y-53377D03*
X66321Y-53127D03*
X66321Y-52867D03*
X63521Y-52867D03*
X63521Y-53127D03*
X63521Y-53367D03*
X63521Y-53637D03*
X63521Y-53897D03*
X63521Y-54147D03*
X63521Y-54407D03*
X63521Y-54657D03*
X63521Y-54917D03*
X63521Y-55177D03*
X63521Y-55427D03*
X63521Y-55687D03*
X63521Y-55947D03*
X63521Y-56197D03*
G54D19*
X64921Y-54547D03*
G54D18*
X78781Y-56236D03*
X78781Y-55986D03*
X78781Y-55726D03*
X78781Y-55466D03*
X78781Y-55216D03*
X78781Y-54956D03*
X78781Y-54696D03*
X78781Y-54446D03*
X78781Y-54186D03*
X78781Y-53936D03*
X78781Y-53676D03*
X78781Y-53416D03*
X78781Y-53166D03*
X78781Y-52906D03*
X75981Y-52906D03*
X75981Y-53166D03*
X75981Y-53406D03*
X75981Y-53676D03*
X75981Y-53936D03*
X75981Y-54186D03*
X75981Y-54446D03*
X75981Y-54696D03*
X75981Y-54956D03*
X75981Y-55216D03*
X75981Y-55466D03*
X75981Y-55726D03*
X75981Y-55986D03*
X75981Y-56236D03*
G54D19*
X77381Y-54586D03*
G54D18*
X90966Y-56275D03*
X90966Y-56025D03*
X90966Y-55765D03*
X90966Y-55505D03*
X90966Y-55255D03*
X90966Y-54995D03*
X90966Y-54735D03*
X90966Y-54485D03*
X90966Y-54225D03*
X90966Y-53975D03*
X90966Y-53715D03*
X90966Y-53455D03*
X90966Y-53205D03*
X90966Y-52945D03*
X88166Y-52945D03*
X88166Y-53205D03*
X88166Y-53445D03*
X88166Y-53715D03*
X88166Y-53975D03*
X88166Y-54225D03*
X88166Y-54485D03*
X88166Y-54735D03*
X88166Y-54995D03*
X88166Y-55255D03*
X88166Y-55505D03*
X88166Y-55765D03*
X88166Y-56025D03*
X88166Y-56275D03*
G54D19*
X89566Y-54625D03*
G54D20*
X88955Y-57106D03*
X89705Y-57106D03*
G54D21*
X81122Y-62715D03*
X81122Y-63465D03*
X86948Y-62715D03*
X86948Y-63465D03*
G54D20*
X65394Y-57066D03*
X64644Y-57066D03*
X77756Y-57106D03*
X77006Y-57106D03*
G54D11*
X61023Y-57598D03*
X60039Y-57598D03*
X61023Y-56614D03*
X60039Y-56614D03*
X61023Y-55629D03*
X60039Y-55629D03*
X61023Y-54645D03*
X60039Y-54645D03*
X61023Y-53661D03*
X60039Y-53661D03*
X61023Y-52677D03*
X60039Y-52677D03*
X61023Y-51692D03*
X60039Y-51692D03*
G54D12*
X61023Y-50708D03*
G54D11*
X60039Y-50708D03*
X81102Y-50748D03*
X82086Y-50748D03*
X81102Y-51732D03*
X82086Y-51732D03*
X81102Y-52716D03*
X82086Y-52716D03*
X81102Y-53700D03*
X82086Y-53700D03*
X81102Y-54685D03*
X82086Y-54685D03*
X81102Y-55669D03*
X82086Y-55669D03*
X81102Y-56653D03*
X82086Y-56653D03*
G54D12*
X81102Y-57637D03*
G54D11*
X82086Y-57637D03*
X85610Y-57637D03*
X84625Y-57637D03*
X85610Y-56653D03*
X84625Y-56653D03*
X85610Y-55669D03*
X84625Y-55669D03*
X85610Y-54685D03*
X84625Y-54685D03*
X85610Y-53700D03*
X84625Y-53700D03*
X85610Y-52716D03*
X84625Y-52716D03*
X85610Y-51732D03*
X84625Y-51732D03*
G54D12*
X85610Y-50748D03*
G54D11*
X84625Y-50748D03*
X93523Y-50748D03*
X94507Y-50748D03*
X93523Y-51732D03*
X94507Y-51732D03*
X93523Y-52716D03*
X94507Y-52716D03*
X93523Y-53700D03*
X94507Y-53700D03*
X93523Y-54685D03*
X94507Y-54685D03*
X93523Y-55669D03*
X94507Y-55669D03*
X93523Y-56653D03*
X94507Y-56653D03*
G54D12*
X93523Y-57637D03*
G54D11*
X94507Y-57637D03*
G54D22*
X93681Y-66280D03*
G54D23*
X93681Y-63680D03*
X92781Y-63680D03*
X94581Y-63680D03*
G54D22*
X72795Y-64764D03*
G54D23*
X72795Y-62164D03*
X71895Y-62164D03*
X73695Y-62164D03*
G54D24*
X76122Y-65158D03*
X76122Y-64408D03*
G54D13*
X77085Y-65964D03*
X77835Y-65964D03*
X77500Y-61948D03*
X76750Y-61948D03*
X78168Y-60925D03*
X78918Y-60925D03*
X77500Y-60925D03*
X76750Y-60925D03*
X78168Y-61948D03*
X78918Y-61948D03*
X77500Y-63051D03*
X76750Y-63051D03*
X78168Y-63051D03*
X78918Y-63051D03*
X73286Y-61023D03*
X74036Y-61023D03*
X94093Y-62539D03*
X94843Y-62539D03*
G54D24*
X84419Y-66495D03*
X84419Y-67245D03*
X83159Y-66514D03*
X83159Y-67264D03*
X81899Y-66514D03*
X81899Y-67264D03*
X84419Y-67922D03*
X84419Y-68672D03*
X83159Y-67922D03*
X83159Y-68672D03*
X81899Y-67922D03*
X81899Y-68672D03*
G54D14*
X94681Y-60807D03*
G54D15*
X93681Y-60807D03*
X92681Y-60807D03*
G54D20*
X71632Y-61023D03*
X72382Y-61023D03*
X92518Y-62539D03*
X93268Y-62539D03*
G54D25*
X77460Y-64192D03*
X77835Y-65058D03*
X77085Y-65058D03*
G54D26*
X88828Y-66850D03*
X88828Y-68622D03*
X85698Y-68622D03*
X85698Y-66850D03*
G54D27*
X85931Y-61997D03*
X85931Y-62312D03*
X85931Y-62627D03*
X85931Y-62942D03*
X85931Y-63257D03*
X85931Y-63572D03*
X85931Y-63887D03*
X85931Y-64202D03*
X82165Y-64200D03*
X82165Y-61990D03*
X82165Y-62310D03*
X82165Y-62630D03*
X82165Y-62940D03*
X82165Y-63260D03*
X82165Y-63570D03*
X82165Y-63890D03*
G54D28*
X85147Y-64990D03*
X84833Y-64990D03*
X84517Y-64990D03*
X84203Y-64990D03*
X83887Y-64990D03*
X83573Y-64990D03*
X83257Y-64990D03*
X82943Y-64990D03*
X85145Y-61210D03*
X84835Y-61210D03*
X84515Y-61210D03*
X84205Y-61210D03*
X83895Y-61210D03*
X83575Y-61210D03*
X83255Y-61210D03*
X82935Y-61210D03*
G54D29*
X67322Y-59720D03*
X66338Y-59720D03*
X65000Y-59720D03*
X64350Y-59720D03*
X63385Y-59720D03*
X62401Y-59720D03*
X61444Y-59720D03*
X60775Y-59720D03*
X68307Y-59720D03*
X59456Y-59720D03*
G54D30*
X59251Y-68464D03*
X70275Y-67992D03*
G54D29*
X65669Y-59720D03*
G54D31*
X69370Y-69291D03*
X59862Y-69291D03*
G54D32*
X64960Y-50866D03*
X89566Y-50866D03*
X73523Y-68326D03*
X90944Y-68326D03*
M02*
