G04 (created by PCBNEW (2013-07-07 BZR 4022)-stable) date 01/05/2014 03:57:46 PM*
%MOIN*%
G04 Gerber Fmt 3.4, Leading zero omitted, Abs format*
%FSLAX34Y34*%
G01*
G70*
G90*
G04 APERTURE LIST*
%ADD10C,0.00590551*%
%ADD11C,0.0590551*%
%ADD12R,0.0590551X0.0590551*%
%ADD13R,0.06X0.06*%
%ADD14C,0.06*%
%ADD15C,0.0629921*%
%ADD16C,0.17*%
G04 APERTURE END LIST*
G54D10*
G54D11*
X68897Y-50748D03*
X69881Y-50748D03*
X68897Y-51732D03*
X69881Y-51732D03*
X68897Y-52716D03*
X69881Y-52716D03*
X68897Y-53700D03*
X69881Y-53700D03*
X68897Y-54685D03*
X69881Y-54685D03*
X68897Y-55669D03*
X69881Y-55669D03*
X68897Y-56653D03*
X69881Y-56653D03*
G54D12*
X68897Y-57637D03*
G54D11*
X69881Y-57637D03*
X73484Y-57637D03*
X72500Y-57637D03*
X73484Y-56653D03*
X72500Y-56653D03*
X73484Y-55669D03*
X72500Y-55669D03*
X73484Y-54685D03*
X72500Y-54685D03*
X73484Y-53700D03*
X72500Y-53700D03*
X73484Y-52716D03*
X72500Y-52716D03*
X73484Y-51732D03*
X72500Y-51732D03*
G54D12*
X73484Y-50748D03*
G54D11*
X72500Y-50748D03*
G54D13*
X79503Y-67452D03*
G54D14*
X79503Y-68452D03*
X78503Y-67452D03*
X78503Y-68452D03*
X77503Y-67452D03*
X77503Y-68452D03*
G54D13*
X93437Y-68523D03*
G54D14*
X94437Y-68523D03*
G54D11*
X61023Y-57598D03*
X60039Y-57598D03*
X61023Y-56614D03*
X60039Y-56614D03*
X61023Y-55629D03*
X60039Y-55629D03*
X61023Y-54645D03*
X60039Y-54645D03*
X61023Y-53661D03*
X60039Y-53661D03*
X61023Y-52677D03*
X60039Y-52677D03*
X61023Y-51692D03*
X60039Y-51692D03*
G54D12*
X61023Y-50708D03*
G54D11*
X60039Y-50708D03*
X81102Y-50748D03*
X82086Y-50748D03*
X81102Y-51732D03*
X82086Y-51732D03*
X81102Y-52716D03*
X82086Y-52716D03*
X81102Y-53700D03*
X82086Y-53700D03*
X81102Y-54685D03*
X82086Y-54685D03*
X81102Y-55669D03*
X82086Y-55669D03*
X81102Y-56653D03*
X82086Y-56653D03*
G54D12*
X81102Y-57637D03*
G54D11*
X82086Y-57637D03*
X85610Y-57637D03*
X84625Y-57637D03*
X85610Y-56653D03*
X84625Y-56653D03*
X85610Y-55669D03*
X84625Y-55669D03*
X85610Y-54685D03*
X84625Y-54685D03*
X85610Y-53700D03*
X84625Y-53700D03*
X85610Y-52716D03*
X84625Y-52716D03*
X85610Y-51732D03*
X84625Y-51732D03*
G54D12*
X85610Y-50748D03*
G54D11*
X84625Y-50748D03*
X93523Y-50748D03*
X94507Y-50748D03*
X93523Y-51732D03*
X94507Y-51732D03*
X93523Y-52716D03*
X94507Y-52716D03*
X93523Y-53700D03*
X94507Y-53700D03*
X93523Y-54685D03*
X94507Y-54685D03*
X93523Y-55669D03*
X94507Y-55669D03*
X93523Y-56653D03*
X94507Y-56653D03*
G54D12*
X93523Y-57637D03*
G54D11*
X94507Y-57637D03*
G54D13*
X94681Y-60807D03*
G54D14*
X93681Y-60807D03*
X92681Y-60807D03*
G54D15*
X69370Y-69291D03*
X59862Y-69291D03*
G54D16*
X64960Y-50866D03*
X89566Y-50866D03*
X73523Y-68326D03*
X90944Y-68326D03*
M02*
