M48
INCH,TZ
T1C0.025
T2C0.040
T3C0.043
T4C0.059
T5C0.149
%
G90
G05
T1
X062402Y-060236
X064026Y-057510
X065394Y-058504
X065945Y-057894
X066299Y-056693
X066535Y-058484
X067566Y-055833
X070807Y-061055
X071900Y-063327
X073927Y-062982
X074174Y-062514
X074694Y-059063
X075168Y-056097
X075709Y-063612
X075719Y-060994
X076122Y-065621
X076122Y-068012
X076515Y-057565
X076969Y-063661
X078223Y-057812
X078543Y-064016
X078671Y-058386
X078780Y-056614
X078986Y-057874
X079439Y-064360
X079567Y-055039
X079705Y-058730
X079961Y-057854
X079970Y-058356
X080118Y-064134
X080394Y-059469
X080482Y-063632
X081004Y-069213
X081319Y-066535
X082579Y-065591
X082589Y-066506
X082933Y-063248
X082953Y-062776
X083415Y-065787
X083799Y-066545
X083878Y-065787
X085118Y-063583
X085276Y-062697
X086902Y-059063
X087283Y-065433
X087352Y-057451
X087559Y-063543
X088317Y-057106
X089803Y-062539
X089843Y-060581
X090266Y-059331
X090344Y-057943
X090394Y-058730
X090955Y-056663
X091073Y-058711
X091919Y-058120
X092185Y-055659
X092283Y-064724
X093287Y-061831
X094626Y-064744
T2
X077504Y-067453
X077504Y-068453
X078504Y-067453
X078504Y-068453
X079504Y-067453
X079504Y-068453
X092681Y-060807
X093437Y-068524
X093681Y-060807
X094437Y-068524
X094681Y-060807
T3
X060039Y-050709
X060039Y-051693
X060039Y-052677
X060039Y-053661
X060039Y-054646
X060039Y-055630
X060039Y-056614
X060039Y-057598
X061024Y-050709
X061024Y-051693
X061024Y-052677
X061024Y-053661
X061024Y-054646
X061024Y-055630
X061024Y-056614
X061024Y-057598
X068898Y-050748
X068898Y-051732
X068898Y-052717
X068898Y-053701
X068898Y-054685
X068898Y-055669
X068898Y-056654
X068898Y-057638
X069882Y-050748
X069882Y-051732
X069882Y-052717
X069882Y-053701
X069882Y-054685
X069882Y-055669
X069882Y-056654
X069882Y-057638
X072500Y-050748
X072500Y-051732
X072500Y-052717
X072500Y-053701
X072500Y-054685
X072500Y-055669
X072500Y-056654
X072500Y-057638
X073484Y-050748
X073484Y-051732
X073484Y-052717
X073484Y-053701
X073484Y-054685
X073484Y-055669
X073484Y-056654
X073484Y-057638
X081102Y-050748
X081102Y-051732
X081102Y-052717
X081102Y-053701
X081102Y-054685
X081102Y-055669
X081102Y-056654
X081102Y-057638
X082087Y-050748
X082087Y-051732
X082087Y-052717
X082087Y-053701
X082087Y-054685
X082087Y-055669
X082087Y-056654
X082087Y-057638
X084626Y-050748
X084626Y-051732
X084626Y-052717
X084626Y-053701
X084626Y-054685
X084626Y-055669
X084626Y-056654
X084626Y-057638
X085610Y-050748
X085610Y-051732
X085610Y-052717
X085610Y-053701
X085610Y-054685
X085610Y-055669
X085610Y-056654
X085610Y-057638
X093524Y-050748
X093524Y-051732
X093524Y-052717
X093524Y-053701
X093524Y-054685
X093524Y-055669
X093524Y-056654
X093524Y-057638
X094508Y-050748
X094508Y-051732
X094508Y-052717
X094508Y-053701
X094508Y-054685
X094508Y-055669
X094508Y-056654
X094508Y-057638
T4
X059862Y-069291
X069370Y-069291
T5
X064961Y-050866
X073524Y-068327
X089567Y-050866
X090945Y-068327
T0
M30
