G04 #@! TF.FileFunction,Soldermask,Top*
%FSLAX46Y46*%
G04 Gerber Fmt 4.6, Leading zero omitted, Abs format (unit mm)*
G04 Created by KiCad (PCBNEW 4.0.1-stable) date 6/7/2017 10:05:46 PM*
%MOMM*%
G01*
G04 APERTURE LIST*
%ADD10C,0.150000*%
%ADD11C,1.520000*%
%ADD12R,1.300000X1.550000*%
%ADD13R,1.524000X1.524000*%
%ADD14C,1.524000*%
%ADD15R,1.397000X0.889000*%
%ADD16C,0.300000*%
%ADD17C,1.600000*%
%ADD18C,4.000000*%
G04 APERTURE END LIST*
D10*
D11*
X174706000Y-138248000D03*
X177246000Y-138248000D03*
X174706000Y-135838000D03*
X177246000Y-135838000D03*
X138706000Y-77248000D03*
X141246000Y-77248000D03*
X138706000Y-74838000D03*
X141246000Y-74838000D03*
X102706000Y-84248000D03*
X105246000Y-84248000D03*
X102706000Y-81838000D03*
X105246000Y-81838000D03*
D12*
X67346000Y-70447000D03*
X71846000Y-70447000D03*
X71846000Y-78397000D03*
X67346000Y-78397000D03*
D13*
X70612000Y-86614000D03*
D14*
X68072000Y-86614000D03*
X70612000Y-84074000D03*
X68072000Y-84074000D03*
X70612000Y-81534000D03*
X68072000Y-81534000D03*
D15*
X80010000Y-75374500D03*
X80010000Y-73469500D03*
X77470000Y-73469500D03*
X77470000Y-75374500D03*
X74930000Y-75374500D03*
X74930000Y-73469500D03*
D16*
X112976000Y-103438000D03*
X111676000Y-103438000D03*
X111676000Y-104738000D03*
X111676000Y-106038000D03*
X111676000Y-107338000D03*
X111676000Y-108638000D03*
X111676000Y-109938000D03*
X111676000Y-111238000D03*
X112976000Y-111238000D03*
X112976000Y-109938000D03*
X112976000Y-108638000D03*
X112976000Y-107338000D03*
X112976000Y-106038000D03*
X112976000Y-104738000D03*
X114276000Y-103438000D03*
X114276000Y-104738000D03*
X114276000Y-106038000D03*
X114276000Y-107338000D03*
X114276000Y-108638000D03*
X114276000Y-109938000D03*
X114276000Y-111238000D03*
X148976000Y-103438000D03*
X147676000Y-103438000D03*
X147676000Y-104738000D03*
X147676000Y-106038000D03*
X147676000Y-107338000D03*
X147676000Y-108638000D03*
X147676000Y-109938000D03*
X147676000Y-111238000D03*
X148976000Y-111238000D03*
X148976000Y-109938000D03*
X148976000Y-108638000D03*
X148976000Y-107338000D03*
X148976000Y-106038000D03*
X148976000Y-104738000D03*
X150276000Y-103438000D03*
X150276000Y-104738000D03*
X150276000Y-106038000D03*
X150276000Y-107338000D03*
X150276000Y-108638000D03*
X150276000Y-109938000D03*
X150276000Y-111238000D03*
X184976000Y-103438000D03*
X183676000Y-103438000D03*
X183676000Y-104738000D03*
X183676000Y-106038000D03*
X183676000Y-107338000D03*
X183676000Y-108638000D03*
X183676000Y-109938000D03*
X183676000Y-111238000D03*
X184976000Y-111238000D03*
X184976000Y-109938000D03*
X184976000Y-108638000D03*
X184976000Y-107338000D03*
X184976000Y-106038000D03*
X184976000Y-104738000D03*
X186276000Y-103438000D03*
X186276000Y-104738000D03*
X186276000Y-106038000D03*
X186276000Y-107338000D03*
X186276000Y-108638000D03*
X186276000Y-109938000D03*
X186276000Y-111238000D03*
D11*
X102706000Y-77248000D03*
X105246000Y-77248000D03*
X102706000Y-74838000D03*
X105246000Y-74838000D03*
X138706000Y-95248000D03*
X141246000Y-95248000D03*
X138706000Y-92838000D03*
X141246000Y-92838000D03*
X138706000Y-84248000D03*
X141246000Y-84248000D03*
X138706000Y-81838000D03*
X141246000Y-81838000D03*
X102706000Y-138248000D03*
X105246000Y-138248000D03*
X102706000Y-135838000D03*
X105246000Y-135838000D03*
X102706000Y-131248000D03*
X105246000Y-131248000D03*
X102706000Y-128838000D03*
X105246000Y-128838000D03*
X102706000Y-120248000D03*
X105246000Y-120248000D03*
X102706000Y-117838000D03*
X105246000Y-117838000D03*
X102706000Y-113248000D03*
X105246000Y-113248000D03*
X102706000Y-110838000D03*
X105246000Y-110838000D03*
X102706000Y-102248000D03*
X105246000Y-102248000D03*
X102706000Y-99838000D03*
X105246000Y-99838000D03*
X102706000Y-95248000D03*
X105246000Y-95248000D03*
X102706000Y-92838000D03*
X105246000Y-92838000D03*
X174706000Y-77248000D03*
X177246000Y-77248000D03*
X174706000Y-74838000D03*
X177246000Y-74838000D03*
X138706000Y-102248000D03*
X141246000Y-102248000D03*
X138706000Y-99838000D03*
X141246000Y-99838000D03*
X138706000Y-113248000D03*
X141246000Y-113248000D03*
X138706000Y-110838000D03*
X141246000Y-110838000D03*
X138706000Y-120248000D03*
X141246000Y-120248000D03*
X138706000Y-117838000D03*
X141246000Y-117838000D03*
X138706000Y-131248000D03*
X141246000Y-131248000D03*
X138706000Y-128838000D03*
X141246000Y-128838000D03*
X138706000Y-138248000D03*
X141246000Y-138248000D03*
X138706000Y-135838000D03*
X141246000Y-135838000D03*
X174706000Y-84248000D03*
X177246000Y-84248000D03*
X174706000Y-81838000D03*
X177246000Y-81838000D03*
X174706000Y-95248000D03*
X177246000Y-95248000D03*
X174706000Y-92838000D03*
X177246000Y-92838000D03*
X174706000Y-102248000D03*
X177246000Y-102248000D03*
X174706000Y-99838000D03*
X177246000Y-99838000D03*
X174706000Y-113248000D03*
X177246000Y-113248000D03*
X174706000Y-110838000D03*
X177246000Y-110838000D03*
X174706000Y-120248000D03*
X177246000Y-120248000D03*
X174706000Y-117838000D03*
X177246000Y-117838000D03*
X174706000Y-131248000D03*
X177246000Y-131248000D03*
X174706000Y-128838000D03*
X177246000Y-128838000D03*
X156706000Y-102248000D03*
X159246000Y-102248000D03*
X156706000Y-99838000D03*
X159246000Y-99838000D03*
X120706000Y-77248000D03*
X123246000Y-77248000D03*
X120706000Y-74838000D03*
X123246000Y-74838000D03*
X120706000Y-84248000D03*
X123246000Y-84248000D03*
X120706000Y-81838000D03*
X123246000Y-81838000D03*
X120706000Y-95248000D03*
X123246000Y-95248000D03*
X120706000Y-92838000D03*
X123246000Y-92838000D03*
X120706000Y-102248000D03*
X123246000Y-102248000D03*
X120706000Y-99838000D03*
X123246000Y-99838000D03*
X120706000Y-113248000D03*
X123246000Y-113248000D03*
X120706000Y-110838000D03*
X123246000Y-110838000D03*
X120706000Y-120248000D03*
X123246000Y-120248000D03*
X120706000Y-117838000D03*
X123246000Y-117838000D03*
X120706000Y-131248000D03*
X123246000Y-131248000D03*
X120706000Y-128838000D03*
X123246000Y-128838000D03*
X120706000Y-138248000D03*
X123246000Y-138248000D03*
X120706000Y-135838000D03*
X123246000Y-135838000D03*
X156706000Y-77248000D03*
X159246000Y-77248000D03*
X156706000Y-74838000D03*
X159246000Y-74838000D03*
X156706000Y-84248000D03*
X159246000Y-84248000D03*
X156706000Y-81838000D03*
X159246000Y-81838000D03*
X156706000Y-95248000D03*
X159246000Y-95248000D03*
X156706000Y-92838000D03*
X159246000Y-92838000D03*
X192706000Y-138248000D03*
X195246000Y-138248000D03*
X192706000Y-135838000D03*
X195246000Y-135838000D03*
X156706000Y-113248000D03*
X159246000Y-113248000D03*
X156706000Y-110838000D03*
X159246000Y-110838000D03*
X156706000Y-120248000D03*
X159246000Y-120248000D03*
X156706000Y-117838000D03*
X159246000Y-117838000D03*
X156706000Y-131248000D03*
X159246000Y-131248000D03*
X156706000Y-128838000D03*
X159246000Y-128838000D03*
X156706000Y-138248000D03*
X159246000Y-138248000D03*
X156706000Y-135838000D03*
X159246000Y-135838000D03*
X192706000Y-77248000D03*
X195246000Y-77248000D03*
X192706000Y-74838000D03*
X195246000Y-74838000D03*
X192706000Y-84248000D03*
X195246000Y-84248000D03*
X192706000Y-81838000D03*
X195246000Y-81838000D03*
X192706000Y-95248000D03*
X195246000Y-95248000D03*
X192706000Y-92838000D03*
X195246000Y-92838000D03*
X192706000Y-102248000D03*
X195246000Y-102248000D03*
X192706000Y-99838000D03*
X195246000Y-99838000D03*
X192706000Y-113248000D03*
X195246000Y-113248000D03*
X192706000Y-110838000D03*
X195246000Y-110838000D03*
X192706000Y-120248000D03*
X195246000Y-120248000D03*
X192706000Y-117838000D03*
X195246000Y-117838000D03*
X192706000Y-131248000D03*
X195246000Y-131248000D03*
X192706000Y-128838000D03*
X195246000Y-128838000D03*
D17*
X66976000Y-96650000D03*
X66976000Y-120800000D03*
D18*
X74780140Y-134620000D03*
X68780660Y-134620000D03*
X71780400Y-139319000D03*
M02*
