G04 #@! TF.FileFunction,Copper,L2,Bot,Signal*
%FSLAX46Y46*%
G04 Gerber Fmt 4.6, Leading zero omitted, Abs format (unit mm)*
G04 Created by KiCad (PCBNEW 4.0.1-stable) date 6/7/2017 10:05:46 PM*
%MOMM*%
G01*
G04 APERTURE LIST*
%ADD10C,0.150000*%
%ADD11C,1.520000*%
%ADD12R,0.889000X1.397000*%
%ADD13R,1.524000X1.524000*%
%ADD14C,1.524000*%
%ADD15R,1.397000X0.889000*%
%ADD16R,1.270000X0.406400*%
%ADD17R,3.400000X9.700000*%
%ADD18C,0.300000*%
%ADD19R,1.998980X0.449580*%
%ADD20R,0.449580X1.998980*%
%ADD21R,0.900000X1.000000*%
%ADD22R,1.500000X1.000000*%
%ADD23R,2.000000X1.200000*%
%ADD24C,1.600000*%
%ADD25R,1.600200X3.599180*%
%ADD26R,2.400300X3.500120*%
%ADD27R,1.220000X0.910000*%
%ADD28R,1.550000X0.600000*%
%ADD29R,5.100000X1.900000*%
%ADD30C,4.000000*%
%ADD31C,0.889000*%
%ADD32C,0.254000*%
%ADD33C,1.524000*%
G04 APERTURE END LIST*
D10*
D11*
X174706000Y-138248000D03*
X177246000Y-138248000D03*
X174706000Y-135838000D03*
X177246000Y-135838000D03*
X138706000Y-77248000D03*
X141246000Y-77248000D03*
X138706000Y-74838000D03*
X141246000Y-74838000D03*
X102706000Y-84248000D03*
X105246000Y-84248000D03*
X102706000Y-81838000D03*
X105246000Y-81838000D03*
D12*
X112023500Y-100838000D03*
X113928500Y-100838000D03*
X113928500Y-98838000D03*
X112023500Y-98838000D03*
X148023500Y-100838000D03*
X149928500Y-100838000D03*
X149928500Y-98838000D03*
X148023500Y-98838000D03*
X184023500Y-100838000D03*
X185928500Y-100838000D03*
X185928500Y-98838000D03*
X184023500Y-98838000D03*
X88836500Y-87376000D03*
X86931500Y-87376000D03*
X70167500Y-90932000D03*
X72072500Y-90932000D03*
D13*
X70612000Y-86614000D03*
D14*
X68072000Y-86614000D03*
X70612000Y-84074000D03*
X68072000Y-84074000D03*
X70612000Y-81534000D03*
X68072000Y-81534000D03*
D12*
X75120500Y-81534000D03*
X73215500Y-81534000D03*
X86128500Y-82438000D03*
X84223500Y-82438000D03*
D15*
X82042000Y-78676500D03*
X82042000Y-76771500D03*
X78994000Y-78676500D03*
X78994000Y-76771500D03*
X75946000Y-78676500D03*
X75946000Y-76771500D03*
D16*
X116532000Y-103147000D03*
X116532000Y-103782000D03*
X116532000Y-104442400D03*
X116532000Y-105102800D03*
X116532000Y-105737800D03*
X116532000Y-106398200D03*
X116532000Y-107058600D03*
X116532000Y-107693600D03*
X116532000Y-108354000D03*
X116532000Y-108989000D03*
X116532000Y-109649400D03*
X116532000Y-110309800D03*
X116532000Y-110944800D03*
X116532000Y-111605200D03*
X109420000Y-111605200D03*
X109420000Y-110944800D03*
X109420000Y-110335200D03*
X109420000Y-109649400D03*
X109420000Y-108989000D03*
X109420000Y-108354000D03*
X109420000Y-107693600D03*
X109420000Y-107058600D03*
X109420000Y-106398200D03*
X109420000Y-105737800D03*
X109420000Y-105102800D03*
X109420000Y-104442400D03*
X109420000Y-103782000D03*
X109420000Y-103147000D03*
D17*
X112976000Y-107338000D03*
D18*
X112976000Y-103438000D03*
X111676000Y-103438000D03*
X111676000Y-104738000D03*
X111676000Y-106038000D03*
X111676000Y-107338000D03*
X111676000Y-108638000D03*
X111676000Y-109938000D03*
X111676000Y-111238000D03*
X112976000Y-111238000D03*
X112976000Y-109938000D03*
X112976000Y-108638000D03*
X112976000Y-107338000D03*
X112976000Y-106038000D03*
X112976000Y-104738000D03*
X114276000Y-103438000D03*
X114276000Y-104738000D03*
X114276000Y-106038000D03*
X114276000Y-107338000D03*
X114276000Y-108638000D03*
X114276000Y-109938000D03*
X114276000Y-111238000D03*
D16*
X152532000Y-103147000D03*
X152532000Y-103782000D03*
X152532000Y-104442400D03*
X152532000Y-105102800D03*
X152532000Y-105737800D03*
X152532000Y-106398200D03*
X152532000Y-107058600D03*
X152532000Y-107693600D03*
X152532000Y-108354000D03*
X152532000Y-108989000D03*
X152532000Y-109649400D03*
X152532000Y-110309800D03*
X152532000Y-110944800D03*
X152532000Y-111605200D03*
X145420000Y-111605200D03*
X145420000Y-110944800D03*
X145420000Y-110335200D03*
X145420000Y-109649400D03*
X145420000Y-108989000D03*
X145420000Y-108354000D03*
X145420000Y-107693600D03*
X145420000Y-107058600D03*
X145420000Y-106398200D03*
X145420000Y-105737800D03*
X145420000Y-105102800D03*
X145420000Y-104442400D03*
X145420000Y-103782000D03*
X145420000Y-103147000D03*
D17*
X148976000Y-107338000D03*
D18*
X148976000Y-103438000D03*
X147676000Y-103438000D03*
X147676000Y-104738000D03*
X147676000Y-106038000D03*
X147676000Y-107338000D03*
X147676000Y-108638000D03*
X147676000Y-109938000D03*
X147676000Y-111238000D03*
X148976000Y-111238000D03*
X148976000Y-109938000D03*
X148976000Y-108638000D03*
X148976000Y-107338000D03*
X148976000Y-106038000D03*
X148976000Y-104738000D03*
X150276000Y-103438000D03*
X150276000Y-104738000D03*
X150276000Y-106038000D03*
X150276000Y-107338000D03*
X150276000Y-108638000D03*
X150276000Y-109938000D03*
X150276000Y-111238000D03*
D16*
X188532000Y-103147000D03*
X188532000Y-103782000D03*
X188532000Y-104442400D03*
X188532000Y-105102800D03*
X188532000Y-105737800D03*
X188532000Y-106398200D03*
X188532000Y-107058600D03*
X188532000Y-107693600D03*
X188532000Y-108354000D03*
X188532000Y-108989000D03*
X188532000Y-109649400D03*
X188532000Y-110309800D03*
X188532000Y-110944800D03*
X188532000Y-111605200D03*
X181420000Y-111605200D03*
X181420000Y-110944800D03*
X181420000Y-110335200D03*
X181420000Y-109649400D03*
X181420000Y-108989000D03*
X181420000Y-108354000D03*
X181420000Y-107693600D03*
X181420000Y-107058600D03*
X181420000Y-106398200D03*
X181420000Y-105737800D03*
X181420000Y-105102800D03*
X181420000Y-104442400D03*
X181420000Y-103782000D03*
X181420000Y-103147000D03*
D17*
X184976000Y-107338000D03*
D18*
X184976000Y-103438000D03*
X183676000Y-103438000D03*
X183676000Y-104738000D03*
X183676000Y-106038000D03*
X183676000Y-107338000D03*
X183676000Y-108638000D03*
X183676000Y-109938000D03*
X183676000Y-111238000D03*
X184976000Y-111238000D03*
X184976000Y-109938000D03*
X184976000Y-108638000D03*
X184976000Y-107338000D03*
X184976000Y-106038000D03*
X184976000Y-104738000D03*
X186276000Y-103438000D03*
X186276000Y-104738000D03*
X186276000Y-106038000D03*
X186276000Y-107338000D03*
X186276000Y-108638000D03*
X186276000Y-109938000D03*
X186276000Y-111238000D03*
D11*
X102706000Y-77248000D03*
X105246000Y-77248000D03*
X102706000Y-74838000D03*
X105246000Y-74838000D03*
X138706000Y-95248000D03*
X141246000Y-95248000D03*
X138706000Y-92838000D03*
X141246000Y-92838000D03*
X138706000Y-84248000D03*
X141246000Y-84248000D03*
X138706000Y-81838000D03*
X141246000Y-81838000D03*
X102706000Y-138248000D03*
X105246000Y-138248000D03*
X102706000Y-135838000D03*
X105246000Y-135838000D03*
X102706000Y-131248000D03*
X105246000Y-131248000D03*
X102706000Y-128838000D03*
X105246000Y-128838000D03*
X102706000Y-120248000D03*
X105246000Y-120248000D03*
X102706000Y-117838000D03*
X105246000Y-117838000D03*
X102706000Y-113248000D03*
X105246000Y-113248000D03*
X102706000Y-110838000D03*
X105246000Y-110838000D03*
X102706000Y-102248000D03*
X105246000Y-102248000D03*
X102706000Y-99838000D03*
X105246000Y-99838000D03*
X102706000Y-95248000D03*
X105246000Y-95248000D03*
X102706000Y-92838000D03*
X105246000Y-92838000D03*
X174706000Y-77248000D03*
X177246000Y-77248000D03*
X174706000Y-74838000D03*
X177246000Y-74838000D03*
X138706000Y-102248000D03*
X141246000Y-102248000D03*
X138706000Y-99838000D03*
X141246000Y-99838000D03*
X138706000Y-113248000D03*
X141246000Y-113248000D03*
X138706000Y-110838000D03*
X141246000Y-110838000D03*
X138706000Y-120248000D03*
X141246000Y-120248000D03*
X138706000Y-117838000D03*
X141246000Y-117838000D03*
X138706000Y-131248000D03*
X141246000Y-131248000D03*
X138706000Y-128838000D03*
X141246000Y-128838000D03*
X138706000Y-138248000D03*
X141246000Y-138248000D03*
X138706000Y-135838000D03*
X141246000Y-135838000D03*
X174706000Y-84248000D03*
X177246000Y-84248000D03*
X174706000Y-81838000D03*
X177246000Y-81838000D03*
X174706000Y-95248000D03*
X177246000Y-95248000D03*
X174706000Y-92838000D03*
X177246000Y-92838000D03*
X174706000Y-102248000D03*
X177246000Y-102248000D03*
X174706000Y-99838000D03*
X177246000Y-99838000D03*
X174706000Y-113248000D03*
X177246000Y-113248000D03*
X174706000Y-110838000D03*
X177246000Y-110838000D03*
X174706000Y-120248000D03*
X177246000Y-120248000D03*
X174706000Y-117838000D03*
X177246000Y-117838000D03*
X174706000Y-131248000D03*
X177246000Y-131248000D03*
X174706000Y-128838000D03*
X177246000Y-128838000D03*
X156706000Y-102248000D03*
X159246000Y-102248000D03*
X156706000Y-99838000D03*
X159246000Y-99838000D03*
X120706000Y-77248000D03*
X123246000Y-77248000D03*
X120706000Y-74838000D03*
X123246000Y-74838000D03*
X120706000Y-84248000D03*
X123246000Y-84248000D03*
X120706000Y-81838000D03*
X123246000Y-81838000D03*
X120706000Y-95248000D03*
X123246000Y-95248000D03*
X120706000Y-92838000D03*
X123246000Y-92838000D03*
X120706000Y-102248000D03*
X123246000Y-102248000D03*
X120706000Y-99838000D03*
X123246000Y-99838000D03*
X120706000Y-113248000D03*
X123246000Y-113248000D03*
X120706000Y-110838000D03*
X123246000Y-110838000D03*
X120706000Y-120248000D03*
X123246000Y-120248000D03*
X120706000Y-117838000D03*
X123246000Y-117838000D03*
X120706000Y-131248000D03*
X123246000Y-131248000D03*
X120706000Y-128838000D03*
X123246000Y-128838000D03*
X120706000Y-138248000D03*
X123246000Y-138248000D03*
X120706000Y-135838000D03*
X123246000Y-135838000D03*
X156706000Y-77248000D03*
X159246000Y-77248000D03*
X156706000Y-74838000D03*
X159246000Y-74838000D03*
X156706000Y-84248000D03*
X159246000Y-84248000D03*
X156706000Y-81838000D03*
X159246000Y-81838000D03*
X156706000Y-95248000D03*
X159246000Y-95248000D03*
X156706000Y-92838000D03*
X159246000Y-92838000D03*
X192706000Y-138248000D03*
X195246000Y-138248000D03*
X192706000Y-135838000D03*
X195246000Y-135838000D03*
X156706000Y-113248000D03*
X159246000Y-113248000D03*
X156706000Y-110838000D03*
X159246000Y-110838000D03*
X156706000Y-120248000D03*
X159246000Y-120248000D03*
X156706000Y-117838000D03*
X159246000Y-117838000D03*
X156706000Y-131248000D03*
X159246000Y-131248000D03*
X156706000Y-128838000D03*
X159246000Y-128838000D03*
X156706000Y-138248000D03*
X159246000Y-138248000D03*
X156706000Y-135838000D03*
X159246000Y-135838000D03*
X192706000Y-77248000D03*
X195246000Y-77248000D03*
X192706000Y-74838000D03*
X195246000Y-74838000D03*
X192706000Y-84248000D03*
X195246000Y-84248000D03*
X192706000Y-81838000D03*
X195246000Y-81838000D03*
X192706000Y-95248000D03*
X195246000Y-95248000D03*
X192706000Y-92838000D03*
X195246000Y-92838000D03*
X192706000Y-102248000D03*
X195246000Y-102248000D03*
X192706000Y-99838000D03*
X195246000Y-99838000D03*
X192706000Y-113248000D03*
X195246000Y-113248000D03*
X192706000Y-110838000D03*
X195246000Y-110838000D03*
X192706000Y-120248000D03*
X195246000Y-120248000D03*
X192706000Y-117838000D03*
X195246000Y-117838000D03*
X192706000Y-131248000D03*
X195246000Y-131248000D03*
X192706000Y-128838000D03*
X195246000Y-128838000D03*
D19*
X84291840Y-89614220D03*
X84291840Y-88814120D03*
X84291840Y-88014020D03*
X84291840Y-87213920D03*
X84291840Y-86413820D03*
X84291840Y-85613720D03*
X84291840Y-84813620D03*
X84291840Y-84013520D03*
X74726200Y-84018600D03*
X74726200Y-89632000D03*
X74726200Y-88819200D03*
X74726200Y-88006400D03*
X74726200Y-87219000D03*
X74726200Y-86406200D03*
X74726200Y-85618800D03*
X74726200Y-84806000D03*
D20*
X82300480Y-82012000D03*
X81502920Y-82012000D03*
X80700280Y-82012000D03*
X79902720Y-82012000D03*
X79100080Y-82012000D03*
X78302520Y-82012000D03*
X77499880Y-82012000D03*
X76702320Y-82012000D03*
X82295400Y-91613200D03*
X81508000Y-91613200D03*
X80695200Y-91613200D03*
X79907800Y-91613200D03*
X79120400Y-91613200D03*
X78307600Y-91613200D03*
X77494800Y-91613200D03*
X76682000Y-91613200D03*
D15*
X91694000Y-91884500D03*
X91694000Y-89979500D03*
X86614000Y-89979500D03*
X86614000Y-91884500D03*
D21*
X89929000Y-92007000D03*
X89929000Y-89857000D03*
X88379000Y-92007000D03*
X88379000Y-89857000D03*
D22*
X91286000Y-101850000D03*
X91286000Y-104350000D03*
X91286000Y-107750000D03*
X91286000Y-109400000D03*
X91286000Y-111850000D03*
X91286000Y-114350000D03*
X91286000Y-116780000D03*
X91286000Y-118480000D03*
X91286000Y-99350000D03*
X91286000Y-121830000D03*
D23*
X69076000Y-122350000D03*
X70276000Y-94350000D03*
D22*
X91286000Y-106050000D03*
D24*
X66976000Y-96650000D03*
X66976000Y-120800000D03*
D12*
X88836500Y-85344000D03*
X86931500Y-85344000D03*
D25*
X81280000Y-133647180D03*
X81280000Y-139148820D03*
D26*
X88392000Y-132029200D03*
X88392000Y-125526800D03*
D27*
X75946000Y-125111000D03*
X75946000Y-128381000D03*
D28*
X73312000Y-124587000D03*
X73312000Y-125857000D03*
X73312000Y-127127000D03*
X73312000Y-128397000D03*
X67912000Y-128397000D03*
X67912000Y-127127000D03*
X67912000Y-125857000D03*
X67912000Y-124587000D03*
D29*
X80518000Y-125154000D03*
X80518000Y-129354000D03*
D30*
X74780140Y-134620000D03*
X68780660Y-134620000D03*
X71780400Y-139319000D03*
D31*
X73776000Y-92038000D03*
X75692000Y-91948000D03*
X77422000Y-89672000D03*
X73406000Y-78486000D03*
X74676000Y-90538000D03*
X151384000Y-94234000D03*
X114808000Y-91948000D03*
X186182000Y-92456000D03*
X185976000Y-86538000D03*
X149976000Y-86538000D03*
X113976000Y-86538000D03*
X181476000Y-114438000D03*
X189176000Y-114438000D03*
X180076000Y-105038000D03*
X197976000Y-108438000D03*
X162776000Y-90938000D03*
X145476000Y-114438000D03*
X153176000Y-114438000D03*
X144076000Y-105038000D03*
X161976000Y-108438000D03*
X162676000Y-88338000D03*
X109476000Y-114438000D03*
X117176000Y-114438000D03*
X108076000Y-105038000D03*
X125976000Y-108438000D03*
X126676000Y-88338000D03*
X126776000Y-90938000D03*
X199576000Y-106638000D03*
X192876000Y-106338000D03*
X164576000Y-85938000D03*
X164576000Y-90838000D03*
X156876000Y-106338000D03*
X163576000Y-106638000D03*
X128576000Y-90838000D03*
X120876000Y-106338000D03*
X127576000Y-106638000D03*
X128576000Y-85938000D03*
X199676000Y-104438000D03*
X190876000Y-105138000D03*
X163676000Y-91738000D03*
X163676000Y-104438000D03*
X154876000Y-105138000D03*
X163676000Y-87738000D03*
X127676000Y-104438000D03*
X118876000Y-105138000D03*
X127676000Y-87738000D03*
X127676000Y-91738000D03*
X129576000Y-85238000D03*
X129576000Y-91538000D03*
X119876000Y-105738000D03*
X129376000Y-105438000D03*
X80322000Y-88572000D03*
X88122000Y-94972000D03*
X108676000Y-101338000D03*
X93218000Y-105156000D03*
X166276000Y-99838000D03*
X180676000Y-101338000D03*
X172376000Y-103738000D03*
X148844000Y-96266000D03*
X112522000Y-96520000D03*
X130276000Y-99838000D03*
X136376000Y-103738000D03*
X144676000Y-101338000D03*
X197876000Y-103438000D03*
X190076000Y-104238000D03*
X154076000Y-104238000D03*
X161876000Y-103438000D03*
X125876000Y-103438000D03*
X118076000Y-104238000D03*
X76454000Y-129540000D03*
X89722000Y-107772000D03*
X89822000Y-114272000D03*
X90170000Y-125222000D03*
X79502000Y-139192000D03*
X69342000Y-124460000D03*
X69342000Y-125730000D03*
X69342000Y-127000000D03*
X69342000Y-128270000D03*
X72898000Y-129794000D03*
X69222000Y-89172000D03*
X90172000Y-85822000D03*
X90170000Y-87122000D03*
X93218000Y-91186000D03*
X84836000Y-90932000D03*
X77172000Y-86322000D03*
X82422000Y-86822000D03*
X82422000Y-85572000D03*
X149860000Y-97028000D03*
X114046000Y-97282000D03*
X185928000Y-97028000D03*
X116078000Y-92202000D03*
X118176000Y-83638000D03*
X117094000Y-92964000D03*
X152400000Y-94996000D03*
X154176000Y-83638000D03*
X153670000Y-95250000D03*
X190176000Y-83638000D03*
X188468000Y-92964000D03*
X189484000Y-93980000D03*
X106934000Y-84582000D03*
X108204000Y-91948000D03*
X107188000Y-92710000D03*
X144526000Y-92710000D03*
X143776000Y-83138000D03*
X143256000Y-92710000D03*
X180340000Y-92710000D03*
X179776000Y-83138000D03*
X178816000Y-93980000D03*
X136376000Y-107538000D03*
X145476000Y-115638000D03*
X153176000Y-115638000D03*
X109476000Y-113238000D03*
X117176000Y-113238000D03*
X108076000Y-106238000D03*
X126776000Y-107538000D03*
X155876000Y-105738000D03*
X191876000Y-105738000D03*
X145476000Y-113238000D03*
X153176000Y-113238000D03*
X144076000Y-106238000D03*
X162776000Y-107538000D03*
X189176000Y-115738000D03*
X181476000Y-115738000D03*
X172376000Y-107538000D03*
X181476000Y-113238000D03*
X189176000Y-113238000D03*
X180076000Y-106238000D03*
X198776000Y-107538000D03*
X81280000Y-72390000D03*
X73406000Y-70866000D03*
X78740000Y-71120000D03*
D32*
X78302520Y-82012000D02*
X78302520Y-79367980D01*
X78302520Y-79367980D02*
X78994000Y-78676500D01*
X79100080Y-82012000D02*
X79100080Y-80665920D01*
X81089500Y-78676500D02*
X82042000Y-78676500D01*
X79100080Y-80665920D02*
X81089500Y-78676500D01*
X91286000Y-116780000D02*
X90630000Y-116780000D01*
X90630000Y-116780000D02*
X86672000Y-112822000D01*
X78486000Y-97028000D02*
X85378000Y-97028000D01*
X86672000Y-112822000D02*
X86672000Y-98322000D01*
X86672000Y-98322000D02*
X85378000Y-97028000D01*
X73776000Y-92038000D02*
X73776000Y-92318000D01*
X73776000Y-92318000D02*
X78486000Y-97028000D01*
X76682000Y-91613200D02*
X76026800Y-91613200D01*
X76026800Y-91613200D02*
X75692000Y-91948000D01*
X91286000Y-104350000D02*
X90500000Y-104350000D01*
X77494800Y-89744800D02*
X77494800Y-91613200D01*
X77422000Y-89672000D02*
X77494800Y-89744800D01*
X88646000Y-97846000D02*
X88646000Y-102496000D01*
X86304000Y-95504000D02*
X88646000Y-97846000D01*
X79502000Y-95504000D02*
X77494800Y-93496800D01*
X77494800Y-91613200D02*
X77494800Y-93496800D01*
X79502000Y-95504000D02*
X86304000Y-95504000D01*
X90500000Y-104350000D02*
X88646000Y-102496000D01*
X77499880Y-82012000D02*
X77499880Y-80230380D01*
X77499880Y-80230380D02*
X75946000Y-78676500D01*
X76390500Y-78676500D02*
X75946000Y-78676500D01*
X77476000Y-81988120D02*
X77499880Y-82012000D01*
X70612000Y-81534000D02*
X72136000Y-80010000D01*
X72136000Y-80010000D02*
X73596500Y-80010000D01*
X76454000Y-83820000D02*
X75184000Y-82550000D01*
X79502000Y-83820000D02*
X80010000Y-83312000D01*
X80010000Y-82119280D02*
X80010000Y-83312000D01*
X76454000Y-83820000D02*
X79502000Y-83820000D01*
X75184000Y-82550000D02*
X75184000Y-81597500D01*
X75184000Y-81597500D02*
X73660000Y-80073500D01*
X73660000Y-80073500D02*
X73406000Y-79819500D01*
X73406000Y-79819500D02*
X73406000Y-78486000D01*
X80010000Y-82119280D02*
X79902720Y-82012000D01*
X91286000Y-111850000D02*
X90600000Y-111850000D01*
X90600000Y-111850000D02*
X87630000Y-108880000D01*
X78740000Y-96266000D02*
X85924000Y-96266000D01*
X87630000Y-108880000D02*
X87630000Y-97972000D01*
X87630000Y-97972000D02*
X85924000Y-96266000D01*
X74676000Y-90538000D02*
X74676000Y-92202000D01*
X74676000Y-92202000D02*
X78740000Y-96266000D01*
X74726200Y-90487800D02*
X74726200Y-89632000D01*
X74676000Y-90538000D02*
X74726200Y-90487800D01*
X91286000Y-101850000D02*
X90500000Y-101850000D01*
X90500000Y-101850000D02*
X89662000Y-101012000D01*
X79756000Y-94742000D02*
X86642000Y-94742000D01*
X78307600Y-93293600D02*
X79756000Y-94742000D01*
X78307600Y-93293600D02*
X78307600Y-91613200D01*
X86642000Y-94742000D02*
X89662000Y-97762000D01*
X89662000Y-97762000D02*
X89662000Y-101012000D01*
X86576000Y-82438000D02*
X89542000Y-82438000D01*
X89542000Y-82438000D02*
X93942000Y-86838000D01*
X86128500Y-83085500D02*
X85200480Y-84013520D01*
X86128500Y-82438000D02*
X86576000Y-82438000D01*
X153576000Y-102738000D02*
X153538000Y-102738000D01*
X153576000Y-103538000D02*
X153576000Y-102738000D01*
X152532000Y-103782000D02*
X153332000Y-103782000D01*
X153332000Y-103782000D02*
X153576000Y-103538000D01*
X151384000Y-100584000D02*
X151384000Y-94234000D01*
X153538000Y-102738000D02*
X151384000Y-100584000D01*
X116114000Y-101276000D02*
X116114000Y-96048000D01*
X116532000Y-103782000D02*
X117332000Y-103782000D01*
X117576000Y-102738000D02*
X116114000Y-101276000D01*
X117576000Y-103538000D02*
X117576000Y-102738000D01*
X117332000Y-103782000D02*
X117576000Y-103538000D01*
X114808000Y-94742000D02*
X114808000Y-91948000D01*
X116114000Y-96048000D02*
X114808000Y-94742000D01*
X189576000Y-102738000D02*
X189576000Y-102708000D01*
X186182000Y-92456000D02*
X187706000Y-93980000D01*
X187706000Y-93980000D02*
X187706000Y-100868000D01*
X189332000Y-103782000D02*
X189576000Y-103538000D01*
X189576000Y-103538000D02*
X189576000Y-102738000D01*
X188532000Y-103782000D02*
X189332000Y-103782000D01*
X187706000Y-101092000D02*
X187706000Y-100868000D01*
X188850288Y-102236288D02*
X187706000Y-101092000D01*
X189104288Y-102236288D02*
X188850288Y-102236288D01*
X189576000Y-102708000D02*
X189104288Y-102236288D01*
X166176000Y-86838000D02*
X178076000Y-86838000D01*
X150376000Y-86838000D02*
X164576000Y-86838000D01*
X150076000Y-86538000D02*
X150376000Y-86838000D01*
X166176000Y-86838000D02*
X164576000Y-86838000D01*
X149976000Y-86538000D02*
X150076000Y-86538000D01*
X185676000Y-86838000D02*
X185976000Y-86538000D01*
X178076000Y-86838000D02*
X183676000Y-86838000D01*
X183676000Y-86838000D02*
X185676000Y-86838000D01*
X130176000Y-86838000D02*
X142076000Y-86838000D01*
X113976000Y-86538000D02*
X114076000Y-86538000D01*
X114376000Y-86838000D02*
X128576000Y-86838000D01*
X114076000Y-86538000D02*
X114376000Y-86838000D01*
X130176000Y-86838000D02*
X128576000Y-86838000D01*
X147676000Y-86838000D02*
X149676000Y-86838000D01*
X142076000Y-86838000D02*
X147676000Y-86838000D01*
X149676000Y-86838000D02*
X149976000Y-86538000D01*
X111676000Y-86838000D02*
X113676000Y-86838000D01*
X113676000Y-86838000D02*
X113976000Y-86538000D01*
X106076000Y-86838000D02*
X111676000Y-86838000D01*
X93942000Y-86838000D02*
X106076000Y-86838000D01*
X86128500Y-82438000D02*
X86128500Y-83085500D01*
X85200480Y-84013520D02*
X84291840Y-84013520D01*
X79907800Y-93069800D02*
X80247000Y-93409000D01*
X126676000Y-88338000D02*
X126376000Y-88038000D01*
X126376000Y-88038000D02*
X125676000Y-88038000D01*
X106076000Y-88038000D02*
X125676000Y-88038000D01*
X94234000Y-91768000D02*
X94234000Y-89012000D01*
X95208000Y-88038000D02*
X106076000Y-88038000D01*
X92593000Y-93409000D02*
X94234000Y-91768000D01*
X79907800Y-93069800D02*
X79907800Y-91613200D01*
X94234000Y-89012000D02*
X95208000Y-88038000D01*
X92593000Y-93409000D02*
X80247000Y-93409000D01*
X198776000Y-88900000D02*
X198776000Y-88794000D01*
X198020000Y-88038000D02*
X197966000Y-88038000D01*
X198776000Y-88794000D02*
X198020000Y-88038000D01*
X166076000Y-88038000D02*
X178076000Y-88038000D01*
X178076000Y-88038000D02*
X197676000Y-88038000D01*
X197866000Y-88038000D02*
X197676000Y-88038000D01*
X162776000Y-88338000D02*
X163076000Y-88638000D01*
X162676000Y-88338000D02*
X162776000Y-88338000D01*
X164576000Y-88038000D02*
X166076000Y-88038000D01*
X163976000Y-88638000D02*
X164576000Y-88038000D01*
X163076000Y-88638000D02*
X163976000Y-88638000D01*
X198776000Y-88900000D02*
X198776000Y-90938000D01*
X197976000Y-108138000D02*
X197876000Y-108038000D01*
X197876000Y-108038000D02*
X197876000Y-104838000D01*
X197876000Y-104838000D02*
X198776000Y-103938000D01*
X181476000Y-114438000D02*
X189176000Y-114438000D01*
X197976000Y-108438000D02*
X197976000Y-108138000D01*
X198776000Y-103938000D02*
X198776000Y-90938000D01*
X130076000Y-88038000D02*
X142076000Y-88038000D01*
X126776000Y-88338000D02*
X127076000Y-88638000D01*
X127076000Y-88638000D02*
X127976000Y-88638000D01*
X127976000Y-88638000D02*
X128576000Y-88038000D01*
X128576000Y-88038000D02*
X130076000Y-88038000D01*
X126676000Y-88338000D02*
X126776000Y-88338000D01*
X142076000Y-88038000D02*
X161676000Y-88038000D01*
X162376000Y-88038000D02*
X161676000Y-88038000D01*
X162376000Y-88038000D02*
X162676000Y-88338000D01*
X109420000Y-105102800D02*
X108140800Y-105102800D01*
X108140800Y-105102800D02*
X108076000Y-105038000D01*
X181420000Y-105102800D02*
X180140800Y-105102800D01*
X180140800Y-105102800D02*
X180076000Y-105038000D01*
X180140800Y-105102800D02*
X180076000Y-105038000D01*
X162776000Y-103938000D02*
X162776000Y-90938000D01*
X161976000Y-108138000D02*
X161876000Y-108038000D01*
X161876000Y-108038000D02*
X161876000Y-104838000D01*
X161876000Y-104838000D02*
X162776000Y-103938000D01*
X145476000Y-114438000D02*
X153176000Y-114438000D01*
X144140800Y-105102800D02*
X144076000Y-105038000D01*
X144140800Y-105102800D02*
X145420000Y-105102800D01*
X161976000Y-108438000D02*
X161976000Y-108138000D01*
X126776000Y-103938000D02*
X126776000Y-90938000D01*
X125976000Y-108138000D02*
X125876000Y-108038000D01*
X125876000Y-108038000D02*
X125876000Y-104838000D01*
X125876000Y-104838000D02*
X126776000Y-103938000D01*
X109476000Y-114438000D02*
X117176000Y-114438000D01*
X108140800Y-105102800D02*
X108076000Y-105038000D01*
X125976000Y-108438000D02*
X125976000Y-108138000D01*
X83476000Y-80836480D02*
X89194480Y-80836480D01*
X89194480Y-80836480D02*
X94596000Y-86238000D01*
X82300480Y-82012000D02*
X83476000Y-80836480D01*
X186844000Y-86206000D02*
X198728000Y-86206000D01*
X198728000Y-86206000D02*
X198882000Y-86360000D01*
X198760000Y-86238000D02*
X198882000Y-86360000D01*
X198882000Y-86360000D02*
X200576000Y-88054000D01*
X199576000Y-106638000D02*
X199576000Y-105838000D01*
X190136200Y-106398200D02*
X188532000Y-106398200D01*
X192576000Y-106638000D02*
X192876000Y-106338000D01*
X190376000Y-106638000D02*
X192576000Y-106638000D01*
X190136200Y-106398200D02*
X190376000Y-106638000D01*
X200576000Y-104838000D02*
X200576000Y-90838000D01*
X199576000Y-105838000D02*
X200576000Y-104838000D01*
X200576000Y-88054000D02*
X200576000Y-90838000D01*
X166176000Y-86238000D02*
X178076000Y-86238000D01*
X164976000Y-86238000D02*
X166176000Y-86238000D01*
X164576000Y-85938000D02*
X164676000Y-85938000D01*
X164676000Y-85938000D02*
X164976000Y-86238000D01*
X186576000Y-85938000D02*
X186376000Y-85738000D01*
X186376000Y-85738000D02*
X186276000Y-85638000D01*
X186276000Y-85638000D02*
X185676000Y-85638000D01*
X185676000Y-85638000D02*
X185076000Y-86238000D01*
X185076000Y-86238000D02*
X181276000Y-86238000D01*
X178076000Y-86238000D02*
X181276000Y-86238000D01*
X186876000Y-86238000D02*
X186844000Y-86206000D01*
X186844000Y-86206000D02*
X186576000Y-85938000D01*
X130176000Y-86238000D02*
X142076000Y-86238000D01*
X128676000Y-85938000D02*
X128976000Y-86238000D01*
X128976000Y-86238000D02*
X130176000Y-86238000D01*
X128576000Y-85938000D02*
X128676000Y-85938000D01*
X150576000Y-85938000D02*
X150376000Y-85738000D01*
X150376000Y-85738000D02*
X150276000Y-85638000D01*
X150276000Y-85638000D02*
X149676000Y-85638000D01*
X149676000Y-85638000D02*
X149076000Y-86238000D01*
X149076000Y-86238000D02*
X145276000Y-86238000D01*
X142076000Y-86238000D02*
X145276000Y-86238000D01*
X150876000Y-86238000D02*
X150576000Y-85938000D01*
X164276000Y-86238000D02*
X150876000Y-86238000D01*
X164276000Y-86238000D02*
X164576000Y-85938000D01*
X163576000Y-105838000D02*
X164576000Y-104838000D01*
X164576000Y-104838000D02*
X164576000Y-90838000D01*
X154136200Y-106398200D02*
X154376000Y-106638000D01*
X154376000Y-106638000D02*
X156576000Y-106638000D01*
X156576000Y-106638000D02*
X156876000Y-106338000D01*
X154136200Y-106398200D02*
X152532000Y-106398200D01*
X163576000Y-106638000D02*
X163576000Y-105838000D01*
X114576000Y-85938000D02*
X114376000Y-85738000D01*
X114376000Y-85738000D02*
X114276000Y-85638000D01*
X114276000Y-85638000D02*
X113676000Y-85638000D01*
X113676000Y-85638000D02*
X113076000Y-86238000D01*
X113076000Y-86238000D02*
X109276000Y-86238000D01*
X106076000Y-86238000D02*
X109276000Y-86238000D01*
X94596000Y-86238000D02*
X106076000Y-86238000D01*
X114876000Y-86238000D02*
X114576000Y-85938000D01*
X127576000Y-105838000D02*
X128576000Y-104838000D01*
X128576000Y-104838000D02*
X128576000Y-90838000D01*
X118136200Y-106398200D02*
X118376000Y-106638000D01*
X118376000Y-106638000D02*
X120576000Y-106638000D01*
X120576000Y-106638000D02*
X120876000Y-106338000D01*
X118136200Y-106398200D02*
X116532000Y-106398200D01*
X127576000Y-106638000D02*
X127576000Y-105838000D01*
X128276000Y-86238000D02*
X114876000Y-86238000D01*
X128576000Y-85938000D02*
X128276000Y-86238000D01*
X89930000Y-83822000D02*
X93546000Y-87438000D01*
X84291840Y-84813620D02*
X85430380Y-84813620D01*
X85430380Y-84813620D02*
X86422000Y-83822000D01*
X86422000Y-83822000D02*
X89930000Y-83822000D01*
X93546000Y-87438000D02*
X94708000Y-87438000D01*
X199676000Y-88424000D02*
X198690000Y-87438000D01*
X127676000Y-87738000D02*
X127376000Y-87438000D01*
X127376000Y-87438000D02*
X126676000Y-87438000D01*
X125876000Y-87438000D02*
X126676000Y-87438000D01*
X106076000Y-87438000D02*
X125876000Y-87438000D01*
X94708000Y-87438000D02*
X106076000Y-87438000D01*
X166176000Y-87438000D02*
X178076000Y-87438000D01*
X164076000Y-87438000D02*
X166176000Y-87438000D01*
X163676000Y-87738000D02*
X163776000Y-87738000D01*
X163776000Y-87738000D02*
X164076000Y-87438000D01*
X199676000Y-104438000D02*
X199676000Y-91738000D01*
X178076000Y-87438000D02*
X197876000Y-87438000D01*
X197876000Y-87438000D02*
X198676000Y-87438000D01*
X198690000Y-87438000D02*
X198676000Y-87438000D01*
X199676000Y-88424000D02*
X199676000Y-91738000D01*
X130176000Y-87438000D02*
X142076000Y-87438000D01*
X127776000Y-87738000D02*
X128076000Y-87438000D01*
X128076000Y-87438000D02*
X130176000Y-87438000D01*
X127676000Y-87738000D02*
X127776000Y-87738000D01*
X142076000Y-87438000D02*
X161876000Y-87438000D01*
X161876000Y-87438000D02*
X162676000Y-87438000D01*
X163376000Y-87438000D02*
X162676000Y-87438000D01*
X163376000Y-87438000D02*
X163676000Y-87738000D01*
X188532000Y-105102800D02*
X190840800Y-105102800D01*
X190840800Y-105102800D02*
X190876000Y-105138000D01*
X190840800Y-105102800D02*
X190876000Y-105138000D01*
X163676000Y-104438000D02*
X163676000Y-91738000D01*
X154840800Y-105102800D02*
X152532000Y-105102800D01*
X154840800Y-105102800D02*
X154876000Y-105138000D01*
X127676000Y-104438000D02*
X127676000Y-91738000D01*
X118840800Y-105102800D02*
X116532000Y-105102800D01*
X118840800Y-105102800D02*
X118876000Y-105138000D01*
X81973000Y-79941000D02*
X89549000Y-79941000D01*
X95246000Y-85638000D02*
X89549000Y-79941000D01*
X112876000Y-85638000D02*
X95246000Y-85638000D01*
X129376000Y-85038000D02*
X129576000Y-85238000D01*
X129576000Y-91538000D02*
X129376000Y-91738000D01*
X129376000Y-91738000D02*
X129376000Y-105438000D01*
X115176000Y-85638000D02*
X127676000Y-85638000D01*
X112876000Y-85638000D02*
X113476000Y-85038000D01*
X113476000Y-85038000D02*
X114576000Y-85038000D01*
X114576000Y-85038000D02*
X115176000Y-85638000D01*
X128276000Y-85038000D02*
X128876000Y-85038000D01*
X127676000Y-85638000D02*
X128276000Y-85038000D01*
X118275800Y-105737800D02*
X118576000Y-106038000D01*
X118576000Y-106038000D02*
X119576000Y-106038000D01*
X119576000Y-106038000D02*
X119876000Y-105738000D01*
X116532000Y-105737800D02*
X118275800Y-105737800D01*
X128876000Y-85038000D02*
X129376000Y-85038000D01*
X81973000Y-79941000D02*
X81502920Y-80411080D01*
X81502920Y-80411080D02*
X81502920Y-82012000D01*
X81976000Y-79938000D02*
X81973000Y-79941000D01*
X73312000Y-127127000D02*
X78291000Y-127127000D01*
X78291000Y-127127000D02*
X80518000Y-129354000D01*
X88122000Y-94972000D02*
X90654000Y-94972000D01*
X93218000Y-105156000D02*
X93218000Y-97536000D01*
X93218000Y-97536000D02*
X90654000Y-94972000D01*
X91286000Y-109400000D02*
X92382000Y-109400000D01*
X92382000Y-109400000D02*
X93218000Y-110236000D01*
X110876000Y-98138000D02*
X111476000Y-97538000D01*
X110876000Y-98138000D02*
X110876000Y-99138000D01*
X110876000Y-99138000D02*
X110176000Y-99838000D01*
X110176000Y-99838000D02*
X110176000Y-100838000D01*
X110176000Y-100838000D02*
X109676000Y-101338000D01*
X109676000Y-101338000D02*
X108676000Y-101338000D01*
X89916000Y-132029200D02*
X89966800Y-132029200D01*
X89966800Y-132029200D02*
X93218000Y-128778000D01*
X93218000Y-128778000D02*
X93218000Y-110236000D01*
X93218000Y-110236000D02*
X93218000Y-108458000D01*
X93218000Y-108458000D02*
X93218000Y-105156000D01*
X89916000Y-132029200D02*
X88900000Y-132029200D01*
X80518000Y-129354000D02*
X85716800Y-129354000D01*
X85716800Y-129354000D02*
X88392000Y-132029200D01*
X81422000Y-84822000D02*
X81422000Y-87472000D01*
X83806000Y-82438000D02*
X81422000Y-84822000D01*
X81422000Y-87472000D02*
X80879980Y-88014020D01*
X80322000Y-88572000D02*
X76922000Y-88572000D01*
X76922000Y-88572000D02*
X76674800Y-88819200D01*
X76674800Y-88819200D02*
X74726200Y-88819200D01*
X80879980Y-88014020D02*
X82114020Y-88014020D01*
X84291840Y-88014020D02*
X82114020Y-88014020D01*
X80322000Y-88572000D02*
X80879980Y-88014020D01*
X72072500Y-90932000D02*
X72072500Y-91249500D01*
X72072500Y-91249500D02*
X70929500Y-92392500D01*
X69024500Y-92392500D02*
X68072000Y-91440000D01*
X68072000Y-91440000D02*
X68072000Y-86614000D01*
X70929500Y-92392500D02*
X69024500Y-92392500D01*
X86293480Y-88014020D02*
X86931500Y-87376000D01*
X86931500Y-87376000D02*
X86931500Y-85344000D01*
X85861680Y-86413820D02*
X86931500Y-85344000D01*
X85344000Y-86413820D02*
X85861680Y-86413820D01*
X84291840Y-88014020D02*
X86293480Y-88014020D01*
X83806000Y-82438000D02*
X84223500Y-82438000D01*
X184176000Y-100838000D02*
X184976000Y-100038000D01*
X184976000Y-100038000D02*
X184976000Y-97838000D01*
X184976000Y-97838000D02*
X184676000Y-97538000D01*
X184676000Y-97538000D02*
X183476000Y-97538000D01*
X183476000Y-97538000D02*
X182876000Y-98138000D01*
X182876000Y-98138000D02*
X182876000Y-99138000D01*
X182876000Y-99138000D02*
X182176000Y-99838000D01*
X182176000Y-99838000D02*
X182176000Y-100838000D01*
X182176000Y-100838000D02*
X181676000Y-101338000D01*
X181676000Y-101338000D02*
X180676000Y-101338000D01*
X172376000Y-103738000D02*
X168476000Y-99838000D01*
X168476000Y-99838000D02*
X166276000Y-99838000D01*
X147574000Y-97536000D02*
X148844000Y-96266000D01*
X147574000Y-97536000D02*
X147574000Y-97538000D01*
X111476000Y-97538000D02*
X111504000Y-97538000D01*
X111504000Y-97538000D02*
X112522000Y-96520000D01*
X112676000Y-97538000D02*
X111476000Y-97538000D01*
X112976000Y-100038000D02*
X112976000Y-97838000D01*
X112176000Y-100838000D02*
X112976000Y-100038000D01*
X112976000Y-97838000D02*
X112676000Y-97538000D01*
X84291840Y-86413820D02*
X85344000Y-86413820D01*
X85344000Y-86413820D02*
X85353680Y-86413820D01*
X72072500Y-90932000D02*
X72072500Y-89725500D01*
X72978800Y-88819200D02*
X74726200Y-88819200D01*
X72072500Y-89725500D02*
X72978800Y-88819200D01*
X69342000Y-85344000D02*
X71882000Y-85344000D01*
X68072000Y-86614000D02*
X69342000Y-85344000D01*
X72644000Y-84582000D02*
X72644000Y-82105500D01*
X71882000Y-85344000D02*
X72644000Y-84582000D01*
X72644000Y-82105500D02*
X73215500Y-81534000D01*
X72898000Y-81851500D02*
X73215500Y-81534000D01*
X68072000Y-86614000D02*
X68072000Y-87122000D01*
X184023500Y-100838000D02*
X184176000Y-100838000D01*
X132476000Y-99838000D02*
X130276000Y-99838000D01*
X136376000Y-103738000D02*
X132476000Y-99838000D01*
X145676000Y-101338000D02*
X144676000Y-101338000D01*
X146176000Y-100838000D02*
X145676000Y-101338000D01*
X146176000Y-99838000D02*
X146176000Y-100838000D01*
X146876000Y-99138000D02*
X146176000Y-99838000D01*
X146876000Y-98138000D02*
X146876000Y-99138000D01*
X147476000Y-97538000D02*
X146876000Y-98138000D01*
X147574000Y-97538000D02*
X147476000Y-97538000D01*
X148676000Y-97538000D02*
X147574000Y-97538000D01*
X148976000Y-100038000D02*
X148976000Y-97838000D01*
X148976000Y-97838000D02*
X148676000Y-97538000D01*
X148176000Y-100838000D02*
X148976000Y-100038000D01*
X148023500Y-100838000D02*
X148176000Y-100838000D01*
X181420000Y-104442400D02*
X182171600Y-104442400D01*
X182576000Y-104038000D02*
X182576000Y-102285500D01*
X182171600Y-104442400D02*
X182576000Y-104038000D01*
X181420000Y-103147000D02*
X181714500Y-103147000D01*
X181714500Y-103147000D02*
X182576000Y-102285500D01*
X182576000Y-102285500D02*
X184023500Y-100838000D01*
X146576000Y-102285500D02*
X148023500Y-100838000D01*
X145714500Y-103147000D02*
X146576000Y-102285500D01*
X145420000Y-103147000D02*
X145714500Y-103147000D01*
X146171600Y-104442400D02*
X146576000Y-104038000D01*
X146576000Y-104038000D02*
X146576000Y-102285500D01*
X145420000Y-104442400D02*
X146171600Y-104442400D01*
X112023500Y-100838000D02*
X112176000Y-100838000D01*
X109420000Y-104442400D02*
X110171600Y-104442400D01*
X110576000Y-104038000D02*
X110576000Y-102285500D01*
X110171600Y-104442400D02*
X110576000Y-104038000D01*
X109420000Y-103147000D02*
X109714500Y-103147000D01*
X109714500Y-103147000D02*
X110576000Y-102285500D01*
X110576000Y-102285500D02*
X112023500Y-100838000D01*
X84223500Y-82438000D02*
X83876000Y-82438000D01*
X73312000Y-124587000D02*
X72009000Y-124587000D01*
X70866000Y-130705860D02*
X74780140Y-134620000D01*
X70866000Y-125730000D02*
X70866000Y-130705860D01*
X72009000Y-124587000D02*
X70866000Y-125730000D01*
X74780140Y-134620000D02*
X74780140Y-134216140D01*
D33*
X74780140Y-134620000D02*
X80307180Y-134620000D01*
X80307180Y-134620000D02*
X81280000Y-133647180D01*
X81280000Y-133647180D02*
X84625180Y-133647180D01*
X84625180Y-133647180D02*
X87630000Y-136652000D01*
X87630000Y-136652000D02*
X96520000Y-136652000D01*
D32*
X192706000Y-84248000D02*
X192766000Y-84248000D01*
X192706000Y-77248000D02*
X192766000Y-77248000D01*
X120706000Y-113248000D02*
X120706000Y-113368000D01*
X120706000Y-120248000D02*
X120706000Y-120568000D01*
X79914000Y-94076000D02*
X92946000Y-94076000D01*
X92946000Y-94076000D02*
X92964000Y-94058000D01*
X94996000Y-89250000D02*
X95608000Y-88638000D01*
X92964000Y-94058000D02*
X94996000Y-92026000D01*
X125076000Y-88638000D02*
X125476000Y-88638000D01*
X95608000Y-88638000D02*
X106076000Y-88638000D01*
X94996000Y-92026000D02*
X94996000Y-89250000D01*
X106076000Y-88638000D02*
X125076000Y-88638000D01*
X125476000Y-88638000D02*
X125876000Y-89038000D01*
X79120400Y-93282400D02*
X79120400Y-91613200D01*
X79914000Y-94076000D02*
X79120400Y-93282400D01*
X166076000Y-88638000D02*
X178076000Y-88638000D01*
X164176000Y-89238000D02*
X164776000Y-88638000D01*
X164776000Y-88638000D02*
X166076000Y-88638000D01*
X161876000Y-89038000D02*
X162076000Y-89238000D01*
X162076000Y-89238000D02*
X164176000Y-89238000D01*
X197476000Y-88638000D02*
X197876000Y-89038000D01*
X197876000Y-89038000D02*
X197876000Y-90738000D01*
X178076000Y-88638000D02*
X197076000Y-88638000D01*
X197876000Y-103438000D02*
X197876000Y-90738000D01*
X197076000Y-88638000D02*
X197476000Y-88638000D01*
X130076000Y-88638000D02*
X142076000Y-88638000D01*
X161476000Y-88638000D02*
X161876000Y-89038000D01*
X142076000Y-88638000D02*
X161076000Y-88638000D01*
X161076000Y-88638000D02*
X161476000Y-88638000D01*
X125876000Y-89038000D02*
X126076000Y-89238000D01*
X128776000Y-88638000D02*
X130076000Y-88638000D01*
X128176000Y-89238000D02*
X128776000Y-88638000D01*
X126076000Y-89238000D02*
X128176000Y-89238000D01*
X188532000Y-104442400D02*
X189871600Y-104442400D01*
X189871600Y-104442400D02*
X190076000Y-104238000D01*
X189871600Y-104442400D02*
X190076000Y-104238000D01*
X189871600Y-104442400D02*
X190076000Y-104238000D01*
X161876000Y-89038000D02*
X161876000Y-90738000D01*
X153871600Y-104442400D02*
X154076000Y-104238000D01*
X152532000Y-104442400D02*
X153871600Y-104442400D01*
X161876000Y-103438000D02*
X161876000Y-90738000D01*
X125876000Y-89038000D02*
X125876000Y-90738000D01*
X125876000Y-103438000D02*
X125876000Y-90738000D01*
X116532000Y-104442400D02*
X117871600Y-104442400D01*
X117871600Y-104442400D02*
X118076000Y-104238000D01*
X75946000Y-128381000D02*
X75946000Y-129032000D01*
X75946000Y-129032000D02*
X76454000Y-129540000D01*
X91286000Y-107750000D02*
X89744000Y-107750000D01*
X89744000Y-107750000D02*
X89722000Y-107772000D01*
X91286000Y-114350000D02*
X89900000Y-114350000D01*
X89900000Y-114350000D02*
X89822000Y-114272000D01*
X89865200Y-125526800D02*
X90170000Y-125222000D01*
X88392000Y-125526800D02*
X89865200Y-125526800D01*
X81280000Y-139148820D02*
X79545180Y-139148820D01*
X79545180Y-139148820D02*
X79502000Y-139192000D01*
X67912000Y-124587000D02*
X69215000Y-124587000D01*
X69215000Y-124587000D02*
X69342000Y-124460000D01*
X67912000Y-125857000D02*
X69215000Y-125857000D01*
X69215000Y-125857000D02*
X69342000Y-125730000D01*
X67912000Y-127127000D02*
X69215000Y-127127000D01*
X69215000Y-127127000D02*
X69342000Y-127000000D01*
X67912000Y-128397000D02*
X69215000Y-128397000D01*
X69215000Y-128397000D02*
X69342000Y-128270000D01*
X73312000Y-128397000D02*
X73312000Y-129380000D01*
X73312000Y-129380000D02*
X72898000Y-129794000D01*
X70167500Y-90932000D02*
X70167500Y-90117500D01*
X70167500Y-90117500D02*
X69222000Y-89172000D01*
X88836500Y-87376000D02*
X89916000Y-87376000D01*
X89916000Y-87376000D02*
X90170000Y-87122000D01*
X88836500Y-85344000D02*
X89694000Y-85344000D01*
X89694000Y-85344000D02*
X90172000Y-85822000D01*
X88836500Y-85344000D02*
X88836500Y-84772500D01*
X91694000Y-91884500D02*
X92519500Y-91884500D01*
X92519500Y-91884500D02*
X93218000Y-91186000D01*
X89929000Y-92007000D02*
X91571500Y-92007000D01*
X91571500Y-92007000D02*
X91694000Y-91884500D01*
X88379000Y-89857000D02*
X88379000Y-90157000D01*
X88379000Y-90157000D02*
X89929000Y-91707000D01*
X89929000Y-91707000D02*
X89929000Y-92007000D01*
X86614000Y-89979500D02*
X88256500Y-89979500D01*
X88256500Y-89979500D02*
X88379000Y-89857000D01*
X86614000Y-89979500D02*
X85788500Y-89979500D01*
X85788500Y-89979500D02*
X84836000Y-90932000D01*
X88125000Y-90111000D02*
X88125000Y-89903000D01*
X89675000Y-92261000D02*
X89675000Y-91961000D01*
X74726200Y-86406200D02*
X77087800Y-86406200D01*
X84291840Y-87213920D02*
X82813920Y-87213920D01*
X82813920Y-87213920D02*
X82422000Y-86822000D01*
X84291840Y-85613720D02*
X82463720Y-85613720D01*
X82463720Y-85613720D02*
X82422000Y-85572000D01*
X149928500Y-98838000D02*
X149928500Y-97096500D01*
X149928500Y-97096500D02*
X149860000Y-97028000D01*
X113928500Y-98838000D02*
X113928500Y-97399500D01*
X113928500Y-97399500D02*
X114046000Y-97282000D01*
X185928500Y-98838000D02*
X185928500Y-97028500D01*
X185928500Y-97028500D02*
X185928000Y-97028000D01*
X185928500Y-100838000D02*
X186223000Y-100838000D01*
X186223000Y-100838000D02*
X187049500Y-101664500D01*
X187049500Y-101664500D02*
X188532000Y-103147000D01*
X185928500Y-98838000D02*
X185928500Y-100838000D01*
X149928500Y-98838000D02*
X149928500Y-100838000D01*
X151049500Y-101664500D02*
X152532000Y-103147000D01*
X150223000Y-100838000D02*
X151049500Y-101664500D01*
X149928500Y-100838000D02*
X150223000Y-100838000D01*
X113928500Y-100838000D02*
X114223000Y-100838000D01*
X114223000Y-100838000D02*
X115049500Y-101664500D01*
X115049500Y-101664500D02*
X116532000Y-103147000D01*
X113928500Y-98838000D02*
X113928500Y-100838000D01*
X91694000Y-89979500D02*
X90051500Y-89979500D01*
X90051500Y-89979500D02*
X89929000Y-89857000D01*
X89929000Y-89857000D02*
X89929000Y-89421000D01*
X89929000Y-89421000D02*
X89322120Y-88814120D01*
X89322120Y-88814120D02*
X84291840Y-88814120D01*
X91562500Y-90111000D02*
X91694000Y-89979500D01*
X91562500Y-90111000D02*
X91694000Y-89979500D01*
X86614000Y-91884500D02*
X84264500Y-91884500D01*
X83820000Y-90086060D02*
X84291840Y-89614220D01*
X83820000Y-91440000D02*
X83820000Y-90086060D01*
X84264500Y-91884500D02*
X83820000Y-91440000D01*
X88379000Y-92007000D02*
X86736500Y-92007000D01*
X86736500Y-92007000D02*
X86677500Y-91948000D01*
X88151000Y-92007000D02*
X88451000Y-92007000D01*
X88226000Y-91932000D02*
X88151000Y-92007000D01*
X88376000Y-92232000D02*
X88151000Y-92007000D01*
X84291840Y-89614220D02*
X84291840Y-89697840D01*
X116078000Y-94996000D02*
X116078000Y-94996000D01*
X116078000Y-92202000D02*
X116078000Y-94996000D01*
X123246000Y-77248000D02*
X121556000Y-78938000D01*
X119976000Y-78938000D02*
X121556000Y-78938000D01*
X118176000Y-80738000D02*
X119976000Y-78938000D01*
X118176000Y-83638000D02*
X118176000Y-80738000D01*
X118176000Y-102428000D02*
X118176000Y-103138000D01*
X116840000Y-101092000D02*
X118176000Y-102428000D01*
X116840000Y-95758000D02*
X116840000Y-101092000D01*
X116078000Y-94996000D02*
X116840000Y-95758000D01*
X117996600Y-107058600D02*
X118176000Y-107238000D01*
X118176000Y-107238000D02*
X121276000Y-107238000D01*
X121276000Y-107238000D02*
X121776000Y-106738000D01*
X121776000Y-106738000D02*
X121776000Y-105938000D01*
X121776000Y-105938000D02*
X121076000Y-105238000D01*
X121076000Y-105238000D02*
X120576000Y-105238000D01*
X120576000Y-105238000D02*
X120176000Y-104838000D01*
X120176000Y-104838000D02*
X119776000Y-104838000D01*
X119776000Y-104838000D02*
X118876000Y-103938000D01*
X118876000Y-103938000D02*
X118876000Y-103838000D01*
X118876000Y-103838000D02*
X118176000Y-103138000D01*
X117996600Y-107058600D02*
X116532000Y-107058600D01*
X118790000Y-102026000D02*
X117602000Y-100838000D01*
X117602000Y-100838000D02*
X117602000Y-94996000D01*
X117602000Y-94996000D02*
X117094000Y-94488000D01*
X117094000Y-94488000D02*
X117094000Y-92964000D01*
X118790000Y-102952000D02*
X118790000Y-102026000D01*
X117831600Y-107693600D02*
X117976000Y-107838000D01*
X117976000Y-107838000D02*
X121476000Y-107838000D01*
X121476000Y-107838000D02*
X122376000Y-106938000D01*
X122376000Y-106938000D02*
X122376000Y-105738000D01*
X122376000Y-105738000D02*
X121176000Y-104538000D01*
X121176000Y-104538000D02*
X120676000Y-104538000D01*
X120676000Y-104538000D02*
X120416788Y-104278788D01*
X120416788Y-104278788D02*
X120016788Y-104278788D01*
X120016788Y-104278788D02*
X119376000Y-103638000D01*
X119376000Y-103638000D02*
X119376000Y-103538000D01*
X119376000Y-103538000D02*
X118790000Y-102952000D01*
X118790000Y-102952000D02*
X118776000Y-102938000D01*
X116532000Y-107693600D02*
X117831600Y-107693600D01*
X122976000Y-105538000D02*
X122976000Y-104942000D01*
X116532000Y-108354000D02*
X117792000Y-108354000D01*
X122976000Y-107138000D02*
X122976000Y-105538000D01*
X121676000Y-108438000D02*
X122976000Y-107138000D01*
X117876000Y-108438000D02*
X121676000Y-108438000D01*
X117792000Y-108354000D02*
X117876000Y-108438000D01*
X121920000Y-96574000D02*
X123246000Y-95248000D01*
X121920000Y-103886000D02*
X121920000Y-96574000D01*
X122976000Y-104942000D02*
X121920000Y-103886000D01*
X116532000Y-108989000D02*
X121927000Y-108989000D01*
X123576000Y-102578000D02*
X123246000Y-102248000D01*
X123576000Y-107340000D02*
X123576000Y-102578000D01*
X121927000Y-108989000D02*
X123576000Y-107340000D01*
X116532000Y-109649400D02*
X121464600Y-109649400D01*
X121976000Y-111978000D02*
X123246000Y-113248000D01*
X121976000Y-110160800D02*
X121976000Y-111978000D01*
X121464600Y-109649400D02*
X121976000Y-110160800D01*
X116532000Y-110309800D02*
X118647800Y-110309800D01*
X121976000Y-118978000D02*
X123246000Y-120248000D01*
X121976000Y-116838000D02*
X121976000Y-118978000D01*
X119376000Y-114238000D02*
X121976000Y-116838000D01*
X119376000Y-111038000D02*
X119376000Y-114238000D01*
X118647800Y-110309800D02*
X119376000Y-111038000D01*
X116532000Y-110944800D02*
X118382800Y-110944800D01*
X121976000Y-129978000D02*
X123246000Y-131248000D01*
X121976000Y-128038000D02*
X121976000Y-129978000D01*
X118776000Y-124838000D02*
X121976000Y-128038000D01*
X118776000Y-111338000D02*
X118776000Y-124838000D01*
X118382800Y-110944800D02*
X118776000Y-111338000D01*
X116532000Y-111605200D02*
X117043200Y-111605200D01*
X121876000Y-136878000D02*
X123246000Y-138248000D01*
X121876000Y-135038000D02*
X121876000Y-136878000D01*
X118176000Y-131338000D02*
X121876000Y-135038000D01*
X118176000Y-112738000D02*
X118176000Y-131338000D01*
X117043200Y-111605200D02*
X118176000Y-112738000D01*
X152146000Y-100076000D02*
X152146000Y-100330000D01*
X152146000Y-100076000D02*
X152146000Y-95250000D01*
X152146000Y-95250000D02*
X152400000Y-94996000D01*
X159246000Y-77248000D02*
X157556000Y-78938000D01*
X155976000Y-78938000D02*
X157556000Y-78938000D01*
X154176000Y-80738000D02*
X155976000Y-78938000D01*
X154176000Y-83638000D02*
X154176000Y-80738000D01*
X152146000Y-100330000D02*
X154176000Y-102360000D01*
X153996600Y-107058600D02*
X152532000Y-107058600D01*
X154876000Y-103838000D02*
X154176000Y-103138000D01*
X154876000Y-103938000D02*
X154876000Y-103838000D01*
X155776000Y-104838000D02*
X154876000Y-103938000D01*
X156176000Y-104838000D02*
X155776000Y-104838000D01*
X156576000Y-105238000D02*
X156176000Y-104838000D01*
X157076000Y-105238000D02*
X156576000Y-105238000D01*
X157776000Y-105938000D02*
X157076000Y-105238000D01*
X157776000Y-106738000D02*
X157776000Y-105938000D01*
X157276000Y-107238000D02*
X157776000Y-106738000D01*
X154176000Y-107238000D02*
X157276000Y-107238000D01*
X153996600Y-107058600D02*
X154176000Y-107238000D01*
X154176000Y-103138000D02*
X154176000Y-102360000D01*
X154776000Y-102938000D02*
X154776000Y-101944000D01*
X153831600Y-107693600D02*
X153976000Y-107838000D01*
X153976000Y-107838000D02*
X157476000Y-107838000D01*
X157476000Y-107838000D02*
X158376000Y-106938000D01*
X158376000Y-106938000D02*
X158376000Y-105738000D01*
X158376000Y-105738000D02*
X157176000Y-104538000D01*
X157176000Y-104538000D02*
X156676000Y-104538000D01*
X156676000Y-104538000D02*
X156416788Y-104278788D01*
X156416788Y-104278788D02*
X156016788Y-104278788D01*
X156016788Y-104278788D02*
X155376000Y-103638000D01*
X155376000Y-103638000D02*
X155376000Y-103538000D01*
X155376000Y-103538000D02*
X154776000Y-102938000D01*
X152532000Y-107693600D02*
X153831600Y-107693600D01*
X152908000Y-96012000D02*
X153670000Y-95250000D01*
X152908000Y-100076000D02*
X152908000Y-96012000D01*
X154776000Y-101944000D02*
X152908000Y-100076000D01*
X158976000Y-105538000D02*
X158976000Y-104874000D01*
X153792000Y-108354000D02*
X153876000Y-108438000D01*
X153876000Y-108438000D02*
X157676000Y-108438000D01*
X157676000Y-108438000D02*
X158976000Y-107138000D01*
X158976000Y-107138000D02*
X158976000Y-105538000D01*
X152532000Y-108354000D02*
X153792000Y-108354000D01*
X157988000Y-103886000D02*
X157988000Y-96506000D01*
X158976000Y-104874000D02*
X157988000Y-103886000D01*
X157988000Y-96506000D02*
X159246000Y-95248000D01*
X157927000Y-108989000D02*
X159576000Y-107340000D01*
X159576000Y-107340000D02*
X159576000Y-102578000D01*
X159576000Y-102578000D02*
X159246000Y-102248000D01*
X152532000Y-108989000D02*
X157927000Y-108989000D01*
X157464600Y-109649400D02*
X157976000Y-110160800D01*
X157976000Y-110160800D02*
X157976000Y-111978000D01*
X157976000Y-111978000D02*
X159246000Y-113248000D01*
X152532000Y-109649400D02*
X157464600Y-109649400D01*
X154647800Y-110309800D02*
X155376000Y-111038000D01*
X155376000Y-111038000D02*
X155376000Y-114238000D01*
X155376000Y-114238000D02*
X157976000Y-116838000D01*
X157976000Y-116838000D02*
X157976000Y-118978000D01*
X157976000Y-118978000D02*
X159246000Y-120248000D01*
X152532000Y-110309800D02*
X154647800Y-110309800D01*
X154382800Y-110944800D02*
X154776000Y-111338000D01*
X154776000Y-111338000D02*
X154776000Y-124838000D01*
X154776000Y-124838000D02*
X157976000Y-128038000D01*
X157976000Y-128038000D02*
X157976000Y-129978000D01*
X157976000Y-129978000D02*
X159246000Y-131248000D01*
X152532000Y-110944800D02*
X154382800Y-110944800D01*
X153043200Y-111605200D02*
X154176000Y-112738000D01*
X154176000Y-112738000D02*
X154176000Y-131338000D01*
X154176000Y-131338000D02*
X157876000Y-135038000D01*
X157876000Y-135038000D02*
X157876000Y-136878000D01*
X157876000Y-136878000D02*
X159246000Y-138248000D01*
X152532000Y-111605200D02*
X153043200Y-111605200D01*
X190176000Y-102546000D02*
X190176000Y-102292000D01*
X195246000Y-77248000D02*
X193556000Y-78938000D01*
X191976000Y-78938000D02*
X193556000Y-78938000D01*
X190176000Y-80738000D02*
X191976000Y-78938000D01*
X190176000Y-83638000D02*
X190176000Y-80738000D01*
X188468000Y-100838000D02*
X188468000Y-92964000D01*
X189996600Y-107058600D02*
X190176000Y-107238000D01*
X190176000Y-107238000D02*
X193276000Y-107238000D01*
X193276000Y-107238000D02*
X193776000Y-106738000D01*
X193776000Y-106738000D02*
X193776000Y-105938000D01*
X193776000Y-105938000D02*
X193076000Y-105238000D01*
X193076000Y-105238000D02*
X192576000Y-105238000D01*
X192576000Y-105238000D02*
X192176000Y-104838000D01*
X192176000Y-104838000D02*
X191776000Y-104838000D01*
X191776000Y-104838000D02*
X190876000Y-103938000D01*
X190876000Y-103938000D02*
X190876000Y-103838000D01*
X190876000Y-103838000D02*
X190176000Y-103138000D01*
X189996600Y-107058600D02*
X188532000Y-107058600D01*
X190176000Y-103138000D02*
X190176000Y-102546000D01*
X188468000Y-100838000D02*
X188468000Y-100838000D01*
X189230000Y-101600000D02*
X188468000Y-100838000D01*
X189484000Y-101600000D02*
X189230000Y-101600000D01*
X190176000Y-102292000D02*
X189484000Y-101600000D01*
X190776000Y-102384000D02*
X190776000Y-102130000D01*
X189831600Y-107693600D02*
X189976000Y-107838000D01*
X189976000Y-107838000D02*
X193476000Y-107838000D01*
X193476000Y-107838000D02*
X194376000Y-106938000D01*
X194376000Y-106938000D02*
X194376000Y-105738000D01*
X194376000Y-105738000D02*
X193176000Y-104538000D01*
X193176000Y-104538000D02*
X192676000Y-104538000D01*
X192676000Y-104538000D02*
X192416788Y-104278788D01*
X192416788Y-104278788D02*
X192016788Y-104278788D01*
X192016788Y-104278788D02*
X191376000Y-103638000D01*
X191376000Y-103638000D02*
X191376000Y-103538000D01*
X191376000Y-103538000D02*
X190776000Y-102938000D01*
X188532000Y-107693600D02*
X189831600Y-107693600D01*
X190776000Y-102938000D02*
X190776000Y-102384000D01*
X190776000Y-102130000D02*
X189230000Y-100584000D01*
X189230000Y-100584000D02*
X189230000Y-93980000D01*
X194976000Y-105538000D02*
X194976000Y-105314000D01*
X189792000Y-108354000D02*
X189876000Y-108438000D01*
X189876000Y-108438000D02*
X193676000Y-108438000D01*
X193676000Y-108438000D02*
X194976000Y-107138000D01*
X194976000Y-107138000D02*
X194976000Y-105538000D01*
X188532000Y-108354000D02*
X189792000Y-108354000D01*
X194056000Y-96438000D02*
X195246000Y-95248000D01*
X194056000Y-104394000D02*
X194056000Y-96438000D01*
X194976000Y-105314000D02*
X194056000Y-104394000D01*
X195246000Y-95248000D02*
X195246000Y-95330000D01*
X188532000Y-108989000D02*
X193927000Y-108989000D01*
X195576000Y-102578000D02*
X195246000Y-102248000D01*
X195576000Y-107340000D02*
X195576000Y-102578000D01*
X193927000Y-108989000D02*
X195576000Y-107340000D01*
X188532000Y-109649400D02*
X193464600Y-109649400D01*
X193976000Y-111978000D02*
X195246000Y-113248000D01*
X193976000Y-110160800D02*
X193976000Y-111978000D01*
X193464600Y-109649400D02*
X193976000Y-110160800D01*
X188532000Y-110309800D02*
X190647800Y-110309800D01*
X193976000Y-118978000D02*
X195246000Y-120248000D01*
X193976000Y-116838000D02*
X193976000Y-118978000D01*
X191376000Y-114238000D02*
X193976000Y-116838000D01*
X191376000Y-111038000D02*
X191376000Y-114238000D01*
X190647800Y-110309800D02*
X191376000Y-111038000D01*
X188532000Y-110944800D02*
X190382800Y-110944800D01*
X193976000Y-129978000D02*
X195246000Y-131248000D01*
X193976000Y-128038000D02*
X193976000Y-129978000D01*
X190776000Y-124838000D02*
X193976000Y-128038000D01*
X190776000Y-111338000D02*
X190776000Y-124838000D01*
X190382800Y-110944800D02*
X190776000Y-111338000D01*
X188532000Y-111605200D02*
X189043200Y-111605200D01*
X193876000Y-136878000D02*
X195246000Y-138248000D01*
X193876000Y-135038000D02*
X193876000Y-136878000D01*
X190176000Y-131338000D02*
X193876000Y-135038000D01*
X190176000Y-112738000D02*
X190176000Y-131338000D01*
X189043200Y-111605200D02*
X190176000Y-112738000D01*
X105246000Y-77248000D02*
X105442000Y-77248000D01*
X105442000Y-77248000D02*
X106934000Y-78740000D01*
X106934000Y-78740000D02*
X106934000Y-84582000D01*
X109420000Y-107058600D02*
X108355400Y-107058600D01*
X107176000Y-104738000D02*
X107776000Y-104138000D01*
X107176000Y-106538000D02*
X107176000Y-104738000D01*
X107776000Y-107138000D02*
X107176000Y-106538000D01*
X108276000Y-107138000D02*
X107776000Y-107138000D01*
X108355400Y-107058600D02*
X108276000Y-107138000D01*
X107776000Y-94408000D02*
X107776000Y-104138000D01*
X108204000Y-93980000D02*
X107776000Y-94408000D01*
X108204000Y-91948000D02*
X108204000Y-93980000D01*
X107188000Y-92710000D02*
X107176000Y-92722000D01*
X107176000Y-92722000D02*
X107176000Y-93230000D01*
X107531600Y-107693600D02*
X106576000Y-106738000D01*
X106576000Y-106738000D02*
X106576000Y-104538000D01*
X106576000Y-104538000D02*
X107176000Y-103938000D01*
X107531600Y-107693600D02*
X109420000Y-107693600D01*
X107176000Y-93230000D02*
X107176000Y-103938000D01*
X109420000Y-108354000D02*
X107392000Y-108354000D01*
X106576000Y-96578000D02*
X105246000Y-95248000D01*
X106576000Y-103638000D02*
X106576000Y-96578000D01*
X105976000Y-104238000D02*
X106576000Y-103638000D01*
X105976000Y-106938000D02*
X105976000Y-104238000D01*
X107392000Y-108354000D02*
X105976000Y-106938000D01*
X109420000Y-108989000D02*
X107227000Y-108989000D01*
X105376000Y-102378000D02*
X105246000Y-102248000D01*
X105376000Y-107138000D02*
X105376000Y-102378000D01*
X107227000Y-108989000D02*
X105376000Y-107138000D01*
X109420000Y-109649400D02*
X107164600Y-109649400D01*
X106776000Y-111718000D02*
X105246000Y-113248000D01*
X106776000Y-110038000D02*
X106776000Y-111718000D01*
X107164600Y-109649400D02*
X106776000Y-110038000D01*
X109420000Y-110335200D02*
X108078800Y-110335200D01*
X107376000Y-118118000D02*
X105246000Y-120248000D01*
X107376000Y-111038000D02*
X107376000Y-118118000D01*
X108078800Y-110335200D02*
X107376000Y-111038000D01*
X109420000Y-110944800D02*
X108369200Y-110944800D01*
X107976000Y-128518000D02*
X105246000Y-131248000D01*
X107976000Y-111338000D02*
X107976000Y-128518000D01*
X108369200Y-110944800D02*
X107976000Y-111338000D01*
X109420000Y-111605200D02*
X109108800Y-111605200D01*
X108576000Y-134918000D02*
X105246000Y-138248000D01*
X108576000Y-112138000D02*
X108576000Y-134918000D01*
X109108800Y-111605200D02*
X108576000Y-112138000D01*
X144526000Y-94488000D02*
X143764000Y-95250000D01*
X143764000Y-95250000D02*
X143764000Y-104150000D01*
X144526000Y-92710000D02*
X144526000Y-94488000D01*
X143776000Y-83138000D02*
X143776000Y-79778000D01*
X141246000Y-77248000D02*
X143776000Y-79778000D01*
X144355400Y-107058600D02*
X145420000Y-107058600D01*
X143176000Y-104738000D02*
X143764000Y-104150000D01*
X143176000Y-106538000D02*
X143176000Y-104738000D01*
X143776000Y-107138000D02*
X143176000Y-106538000D01*
X144276000Y-107138000D02*
X143776000Y-107138000D01*
X144355400Y-107058600D02*
X144276000Y-107138000D01*
X143764000Y-104150000D02*
X143776000Y-104138000D01*
X143531600Y-107693600D02*
X142576000Y-106738000D01*
X142576000Y-106738000D02*
X142576000Y-104538000D01*
X142576000Y-104538000D02*
X143176000Y-103938000D01*
X143531600Y-107693600D02*
X145420000Y-107693600D01*
X143176000Y-92790000D02*
X143176000Y-103938000D01*
X143256000Y-92710000D02*
X143176000Y-92790000D01*
X143392000Y-108354000D02*
X141976000Y-106938000D01*
X141976000Y-106938000D02*
X141976000Y-104238000D01*
X141976000Y-104238000D02*
X142576000Y-103638000D01*
X142576000Y-103638000D02*
X142576000Y-96578000D01*
X142576000Y-96578000D02*
X141246000Y-95248000D01*
X145420000Y-108354000D02*
X143392000Y-108354000D01*
X143227000Y-108989000D02*
X141376000Y-107138000D01*
X141376000Y-107138000D02*
X141376000Y-102378000D01*
X141376000Y-102378000D02*
X141246000Y-102248000D01*
X145420000Y-108989000D02*
X143227000Y-108989000D01*
X143164600Y-109649400D02*
X142776000Y-110038000D01*
X142776000Y-110038000D02*
X142776000Y-111718000D01*
X142776000Y-111718000D02*
X141246000Y-113248000D01*
X145420000Y-109649400D02*
X143164600Y-109649400D01*
X144078800Y-110335200D02*
X143376000Y-111038000D01*
X143376000Y-111038000D02*
X143376000Y-118118000D01*
X143376000Y-118118000D02*
X141246000Y-120248000D01*
X145420000Y-110335200D02*
X144078800Y-110335200D01*
X144369200Y-110944800D02*
X143976000Y-111338000D01*
X143976000Y-111338000D02*
X143976000Y-128518000D01*
X143976000Y-128518000D02*
X141246000Y-131248000D01*
X145420000Y-110944800D02*
X144369200Y-110944800D01*
X145108800Y-111605200D02*
X144576000Y-112138000D01*
X144576000Y-112138000D02*
X144576000Y-134918000D01*
X144576000Y-134918000D02*
X141246000Y-138248000D01*
X145420000Y-111605200D02*
X145108800Y-111605200D01*
X179776000Y-104138000D02*
X179776000Y-93274000D01*
X181420000Y-107058600D02*
X180355400Y-107058600D01*
X179176000Y-104738000D02*
X179776000Y-104138000D01*
X179176000Y-106538000D02*
X179176000Y-104738000D01*
X179776000Y-107138000D02*
X179176000Y-106538000D01*
X180276000Y-107138000D02*
X179776000Y-107138000D01*
X180355400Y-107058600D02*
X180276000Y-107138000D01*
X179776000Y-93274000D02*
X180340000Y-92710000D01*
X179776000Y-83138000D02*
X179776000Y-79778000D01*
X177246000Y-77248000D02*
X179776000Y-79778000D01*
X179176000Y-103938000D02*
X179176000Y-94340000D01*
X181420000Y-107693600D02*
X179531600Y-107693600D01*
X178576000Y-104538000D02*
X179176000Y-103938000D01*
X178576000Y-106738000D02*
X178576000Y-104538000D01*
X179531600Y-107693600D02*
X178576000Y-106738000D01*
X179176000Y-94340000D02*
X178816000Y-93980000D01*
X181420000Y-108354000D02*
X179392000Y-108354000D01*
X178576000Y-96578000D02*
X177246000Y-95248000D01*
X178576000Y-103638000D02*
X178576000Y-96578000D01*
X177976000Y-104238000D02*
X178576000Y-103638000D01*
X177976000Y-106938000D02*
X177976000Y-104238000D01*
X179392000Y-108354000D02*
X177976000Y-106938000D01*
X181420000Y-108989000D02*
X179227000Y-108989000D01*
X177376000Y-102378000D02*
X177246000Y-102248000D01*
X177376000Y-107138000D02*
X177376000Y-102378000D01*
X179227000Y-108989000D02*
X177376000Y-107138000D01*
X181420000Y-109649400D02*
X179164600Y-109649400D01*
X178776000Y-111718000D02*
X177246000Y-113248000D01*
X178776000Y-110038000D02*
X178776000Y-111718000D01*
X179164600Y-109649400D02*
X178776000Y-110038000D01*
X181420000Y-110335200D02*
X180078800Y-110335200D01*
X179376000Y-118118000D02*
X177246000Y-120248000D01*
X179376000Y-111038000D02*
X179376000Y-118118000D01*
X180078800Y-110335200D02*
X179376000Y-111038000D01*
X181420000Y-110944800D02*
X180369200Y-110944800D01*
X179976000Y-128518000D02*
X177246000Y-131248000D01*
X179976000Y-111338000D02*
X179976000Y-128518000D01*
X180369200Y-110944800D02*
X179976000Y-111338000D01*
X181420000Y-111605200D02*
X181108800Y-111605200D01*
X180576000Y-134918000D02*
X177246000Y-138248000D01*
X180576000Y-112138000D02*
X180576000Y-134918000D01*
X181108800Y-111605200D02*
X180576000Y-112138000D01*
X109420000Y-103782000D02*
X108420000Y-103782000D01*
X110776000Y-100085500D02*
X112023500Y-98838000D01*
X110776000Y-101138000D02*
X110776000Y-100085500D01*
X109776000Y-102138000D02*
X110776000Y-101138000D01*
X108976000Y-102138000D02*
X109776000Y-102138000D01*
X108376000Y-102738000D02*
X108976000Y-102138000D01*
X108376000Y-103738000D02*
X108376000Y-102738000D01*
X108420000Y-103782000D02*
X108376000Y-103738000D01*
X144420000Y-103782000D02*
X144376000Y-103738000D01*
X144376000Y-103738000D02*
X144376000Y-102738000D01*
X144376000Y-102738000D02*
X144976000Y-102138000D01*
X144976000Y-102138000D02*
X145776000Y-102138000D01*
X145776000Y-102138000D02*
X146776000Y-101138000D01*
X146776000Y-101138000D02*
X146776000Y-100085500D01*
X146776000Y-100085500D02*
X148023500Y-98838000D01*
X145420000Y-103782000D02*
X144420000Y-103782000D01*
X181420000Y-103782000D02*
X180420000Y-103782000D01*
X182776000Y-100085500D02*
X184023500Y-98838000D01*
X182776000Y-101138000D02*
X182776000Y-100085500D01*
X181776000Y-102138000D02*
X182776000Y-101138000D01*
X180976000Y-102138000D02*
X181776000Y-102138000D01*
X180376000Y-102738000D02*
X180976000Y-102138000D01*
X180376000Y-103738000D02*
X180376000Y-102738000D01*
X180420000Y-103782000D02*
X180376000Y-103738000D01*
X126776000Y-107538000D02*
X136376000Y-107538000D01*
X145476000Y-115638000D02*
X153176000Y-115638000D01*
X109476000Y-113238000D02*
X117176000Y-113238000D01*
X109420000Y-105737800D02*
X108576200Y-105737800D01*
X108576200Y-105737800D02*
X108076000Y-106238000D01*
X154275800Y-105737800D02*
X154576000Y-106038000D01*
X154576000Y-106038000D02*
X155576000Y-106038000D01*
X155576000Y-106038000D02*
X155876000Y-105738000D01*
X152532000Y-105737800D02*
X154275800Y-105737800D01*
X188532000Y-105737800D02*
X190275800Y-105737800D01*
X191576000Y-106038000D02*
X191876000Y-105738000D01*
X190576000Y-106038000D02*
X191576000Y-106038000D01*
X190275800Y-105737800D02*
X190576000Y-106038000D01*
X162776000Y-107538000D02*
X172376000Y-107538000D01*
X145476000Y-113238000D02*
X153176000Y-113238000D01*
X145420000Y-105737800D02*
X144576200Y-105737800D01*
X144576200Y-105737800D02*
X144076000Y-106238000D01*
X181476000Y-115738000D02*
X189176000Y-115738000D01*
X181476000Y-113238000D02*
X189176000Y-113238000D01*
X181420000Y-105737800D02*
X180576200Y-105737800D01*
X180576200Y-105737800D02*
X180076000Y-106238000D01*
X82042000Y-73152000D02*
X81280000Y-72390000D01*
X82042000Y-76771500D02*
X82042000Y-73152000D01*
X82042000Y-76771500D02*
X82042000Y-76708000D01*
X75946000Y-76771500D02*
X74993500Y-76771500D01*
X74993500Y-76771500D02*
X73406000Y-75184000D01*
X73406000Y-75184000D02*
X73406000Y-70866000D01*
X78994000Y-71374000D02*
X78740000Y-71120000D01*
X78994000Y-76771500D02*
X78994000Y-71374000D01*
X91286000Y-118558000D02*
X91286000Y-118464000D01*
X73312000Y-125857000D02*
X75200000Y-125857000D01*
X75200000Y-125857000D02*
X75903000Y-125154000D01*
X75903000Y-125154000D02*
X80518000Y-125154000D01*
X76200000Y-124857000D02*
X75803000Y-124857000D01*
X80475000Y-124857000D02*
X80772000Y-125154000D01*
G36*
X207791000Y-141605000D02*
X95885000Y-141605000D01*
X95885000Y-93114265D01*
X101310758Y-93114265D01*
X101522687Y-93627172D01*
X101914764Y-94019934D01*
X102427300Y-94232758D01*
X102982265Y-94233242D01*
X103495172Y-94021313D01*
X103887934Y-93629236D01*
X103975954Y-93417262D01*
X104062687Y-93627172D01*
X104454764Y-94019934D01*
X104509815Y-94042793D01*
X104456828Y-94064687D01*
X104064066Y-94456764D01*
X103851242Y-94969300D01*
X103850758Y-95524265D01*
X104062687Y-96037172D01*
X104454764Y-96429934D01*
X104967300Y-96642758D01*
X105522265Y-96643242D01*
X105551523Y-96631153D01*
X105814000Y-96893630D01*
X105814000Y-98563370D01*
X105524700Y-98443242D01*
X104969735Y-98442758D01*
X104456828Y-98654687D01*
X104064066Y-99046764D01*
X103976046Y-99258738D01*
X103889313Y-99048828D01*
X103497236Y-98656066D01*
X102984700Y-98443242D01*
X102429735Y-98442758D01*
X101916828Y-98654687D01*
X101524066Y-99046764D01*
X101311242Y-99559300D01*
X101310758Y-100114265D01*
X101522687Y-100627172D01*
X101914764Y-101019934D01*
X102427300Y-101232758D01*
X102982265Y-101233242D01*
X103495172Y-101021313D01*
X103887934Y-100629236D01*
X103975954Y-100417262D01*
X104062687Y-100627172D01*
X104454764Y-101019934D01*
X104509815Y-101042793D01*
X104456828Y-101064687D01*
X104064066Y-101456764D01*
X103851242Y-101969300D01*
X103850758Y-102524265D01*
X104062687Y-103037172D01*
X104454764Y-103429934D01*
X104614000Y-103496055D01*
X104614000Y-107138000D01*
X104672004Y-107429605D01*
X104785314Y-107599185D01*
X104837185Y-107676815D01*
X106448369Y-109288000D01*
X106237185Y-109499185D01*
X106094219Y-109713148D01*
X106037236Y-109656066D01*
X105524700Y-109443242D01*
X104969735Y-109442758D01*
X104456828Y-109654687D01*
X104064066Y-110046764D01*
X103976046Y-110258738D01*
X103889313Y-110048828D01*
X103497236Y-109656066D01*
X102984700Y-109443242D01*
X102429735Y-109442758D01*
X101916828Y-109654687D01*
X101524066Y-110046764D01*
X101311242Y-110559300D01*
X101310758Y-111114265D01*
X101522687Y-111627172D01*
X101914764Y-112019934D01*
X102427300Y-112232758D01*
X102982265Y-112233242D01*
X103495172Y-112021313D01*
X103887934Y-111629236D01*
X103975954Y-111417262D01*
X104062687Y-111627172D01*
X104454764Y-112019934D01*
X104509815Y-112042793D01*
X104456828Y-112064687D01*
X104064066Y-112456764D01*
X103851242Y-112969300D01*
X103850758Y-113524265D01*
X104062687Y-114037172D01*
X104454764Y-114429934D01*
X104967300Y-114642758D01*
X105522265Y-114643242D01*
X106035172Y-114431313D01*
X106427934Y-114039236D01*
X106614000Y-113591140D01*
X106614000Y-117495804D01*
X106429313Y-117048828D01*
X106037236Y-116656066D01*
X105524700Y-116443242D01*
X104969735Y-116442758D01*
X104456828Y-116654687D01*
X104064066Y-117046764D01*
X103976046Y-117258738D01*
X103889313Y-117048828D01*
X103497236Y-116656066D01*
X102984700Y-116443242D01*
X102429735Y-116442758D01*
X101916828Y-116654687D01*
X101524066Y-117046764D01*
X101311242Y-117559300D01*
X101310758Y-118114265D01*
X101522687Y-118627172D01*
X101914764Y-119019934D01*
X102427300Y-119232758D01*
X102982265Y-119233242D01*
X103495172Y-119021313D01*
X103887934Y-118629236D01*
X103975954Y-118417262D01*
X104062687Y-118627172D01*
X104454764Y-119019934D01*
X104509815Y-119042793D01*
X104456828Y-119064687D01*
X104064066Y-119456764D01*
X103851242Y-119969300D01*
X103850758Y-120524265D01*
X104062687Y-121037172D01*
X104454764Y-121429934D01*
X104967300Y-121642758D01*
X105522265Y-121643242D01*
X106035172Y-121431313D01*
X106427934Y-121039236D01*
X106640758Y-120526700D01*
X106641242Y-119971735D01*
X106629153Y-119942477D01*
X107214000Y-119357630D01*
X107214000Y-128202370D01*
X106641056Y-128775314D01*
X106641242Y-128561735D01*
X106429313Y-128048828D01*
X106037236Y-127656066D01*
X105524700Y-127443242D01*
X104969735Y-127442758D01*
X104456828Y-127654687D01*
X104064066Y-128046764D01*
X103976046Y-128258738D01*
X103889313Y-128048828D01*
X103497236Y-127656066D01*
X102984700Y-127443242D01*
X102429735Y-127442758D01*
X101916828Y-127654687D01*
X101524066Y-128046764D01*
X101311242Y-128559300D01*
X101310758Y-129114265D01*
X101522687Y-129627172D01*
X101914764Y-130019934D01*
X102427300Y-130232758D01*
X102982265Y-130233242D01*
X103495172Y-130021313D01*
X103887934Y-129629236D01*
X103975954Y-129417262D01*
X104062687Y-129627172D01*
X104454764Y-130019934D01*
X104509815Y-130042793D01*
X104456828Y-130064687D01*
X104064066Y-130456764D01*
X103851242Y-130969300D01*
X103850758Y-131524265D01*
X104062687Y-132037172D01*
X104454764Y-132429934D01*
X104967300Y-132642758D01*
X105522265Y-132643242D01*
X106035172Y-132431313D01*
X106427934Y-132039236D01*
X106640758Y-131526700D01*
X106641242Y-130971735D01*
X106629153Y-130942477D01*
X107814000Y-129757630D01*
X107814000Y-134602370D01*
X106641056Y-135775314D01*
X106641242Y-135561735D01*
X106429313Y-135048828D01*
X106037236Y-134656066D01*
X105524700Y-134443242D01*
X104969735Y-134442758D01*
X104456828Y-134654687D01*
X104064066Y-135046764D01*
X103976046Y-135258738D01*
X103889313Y-135048828D01*
X103497236Y-134656066D01*
X102984700Y-134443242D01*
X102429735Y-134442758D01*
X101916828Y-134654687D01*
X101524066Y-135046764D01*
X101311242Y-135559300D01*
X101310758Y-136114265D01*
X101522687Y-136627172D01*
X101914764Y-137019934D01*
X102427300Y-137232758D01*
X102982265Y-137233242D01*
X103495172Y-137021313D01*
X103887934Y-136629236D01*
X103975954Y-136417262D01*
X104062687Y-136627172D01*
X104454764Y-137019934D01*
X104509815Y-137042793D01*
X104456828Y-137064687D01*
X104064066Y-137456764D01*
X103851242Y-137969300D01*
X103850758Y-138524265D01*
X104062687Y-139037172D01*
X104454764Y-139429934D01*
X104967300Y-139642758D01*
X105522265Y-139643242D01*
X106035172Y-139431313D01*
X106427934Y-139039236D01*
X106640758Y-138526700D01*
X106641242Y-137971735D01*
X106629153Y-137942477D01*
X109114815Y-135456815D01*
X109279996Y-135209605D01*
X109338000Y-134918000D01*
X109338000Y-115517381D01*
X109689784Y-115517687D01*
X110086689Y-115353689D01*
X110240646Y-115200000D01*
X116411358Y-115200000D01*
X116563714Y-115352622D01*
X116960332Y-115517313D01*
X117389784Y-115517687D01*
X117414000Y-115507681D01*
X117414000Y-131338000D01*
X117472004Y-131629605D01*
X117577049Y-131786815D01*
X117637185Y-131876815D01*
X120269384Y-134509014D01*
X119916828Y-134654687D01*
X119524066Y-135046764D01*
X119311242Y-135559300D01*
X119310758Y-136114265D01*
X119522687Y-136627172D01*
X119914764Y-137019934D01*
X120427300Y-137232758D01*
X120982265Y-137233242D01*
X121169291Y-137155964D01*
X121172004Y-137169605D01*
X121337185Y-137416815D01*
X121862517Y-137942147D01*
X121851242Y-137969300D01*
X121850758Y-138524265D01*
X122062687Y-139037172D01*
X122454764Y-139429934D01*
X122967300Y-139642758D01*
X123522265Y-139643242D01*
X124035172Y-139431313D01*
X124427934Y-139039236D01*
X124640758Y-138526700D01*
X124641242Y-137971735D01*
X124429313Y-137458828D01*
X124037236Y-137066066D01*
X123982185Y-137043207D01*
X124035172Y-137021313D01*
X124427934Y-136629236D01*
X124640758Y-136116700D01*
X124641242Y-135561735D01*
X124429313Y-135048828D01*
X124037236Y-134656066D01*
X123524700Y-134443242D01*
X122969735Y-134442758D01*
X122505328Y-134634647D01*
X122414815Y-134499185D01*
X118938000Y-131022370D01*
X118938000Y-126077630D01*
X120340145Y-127479776D01*
X119916828Y-127654687D01*
X119524066Y-128046764D01*
X119311242Y-128559300D01*
X119310758Y-129114265D01*
X119522687Y-129627172D01*
X119914764Y-130019934D01*
X120427300Y-130232758D01*
X120982265Y-130233242D01*
X121243315Y-130125378D01*
X121272004Y-130269605D01*
X121397060Y-130456764D01*
X121437185Y-130516815D01*
X121862517Y-130942147D01*
X121851242Y-130969300D01*
X121850758Y-131524265D01*
X122062687Y-132037172D01*
X122454764Y-132429934D01*
X122967300Y-132642758D01*
X123522265Y-132643242D01*
X124035172Y-132431313D01*
X124427934Y-132039236D01*
X124640758Y-131526700D01*
X124641242Y-130971735D01*
X124429313Y-130458828D01*
X124037236Y-130066066D01*
X123982185Y-130043207D01*
X124035172Y-130021313D01*
X124427934Y-129629236D01*
X124640758Y-129116700D01*
X124641242Y-128561735D01*
X124429313Y-128048828D01*
X124037236Y-127656066D01*
X123524700Y-127443242D01*
X122969735Y-127442758D01*
X122583693Y-127602267D01*
X122514815Y-127499184D01*
X119538000Y-124522370D01*
X119538000Y-118642512D01*
X119914764Y-119019934D01*
X120427300Y-119232758D01*
X120982265Y-119233242D01*
X121243315Y-119125378D01*
X121272004Y-119269605D01*
X121397060Y-119456764D01*
X121437185Y-119516815D01*
X121862517Y-119942147D01*
X121851242Y-119969300D01*
X121850758Y-120524265D01*
X122062687Y-121037172D01*
X122454764Y-121429934D01*
X122967300Y-121642758D01*
X123522265Y-121643242D01*
X124035172Y-121431313D01*
X124427934Y-121039236D01*
X124640758Y-120526700D01*
X124641242Y-119971735D01*
X124429313Y-119458828D01*
X124037236Y-119066066D01*
X123982185Y-119043207D01*
X124035172Y-119021313D01*
X124427934Y-118629236D01*
X124640758Y-118116700D01*
X124641242Y-117561735D01*
X124429313Y-117048828D01*
X124037236Y-116656066D01*
X123524700Y-116443242D01*
X122969735Y-116442758D01*
X122682952Y-116561255D01*
X122679996Y-116546395D01*
X122547893Y-116348689D01*
X122514815Y-116299184D01*
X120138000Y-113922370D01*
X120138000Y-112112630D01*
X120427300Y-112232758D01*
X120982265Y-112233242D01*
X121243315Y-112125378D01*
X121272004Y-112269605D01*
X121385785Y-112439890D01*
X121437185Y-112516815D01*
X121862517Y-112942147D01*
X121851242Y-112969300D01*
X121850758Y-113524265D01*
X122062687Y-114037172D01*
X122454764Y-114429934D01*
X122967300Y-114642758D01*
X123522265Y-114643242D01*
X124035172Y-114431313D01*
X124427934Y-114039236D01*
X124640758Y-113526700D01*
X124641242Y-112971735D01*
X124429313Y-112458828D01*
X124037236Y-112066066D01*
X123982185Y-112043207D01*
X124035172Y-112021313D01*
X124427934Y-111629236D01*
X124640758Y-111116700D01*
X124641242Y-110561735D01*
X124429313Y-110048828D01*
X124037236Y-109656066D01*
X123524700Y-109443242D01*
X122969735Y-109442758D01*
X122519393Y-109628836D01*
X122514815Y-109621985D01*
X122438738Y-109545908D01*
X122465815Y-109527815D01*
X124114815Y-107878815D01*
X124279996Y-107631605D01*
X124295494Y-107553689D01*
X124338000Y-107340000D01*
X124338000Y-103129013D01*
X124427934Y-103039236D01*
X124640758Y-102526700D01*
X124641242Y-101971735D01*
X124429313Y-101458828D01*
X124037236Y-101066066D01*
X123982185Y-101043207D01*
X124035172Y-101021313D01*
X124427934Y-100629236D01*
X124640758Y-100116700D01*
X124641242Y-99561735D01*
X124429313Y-99048828D01*
X124037236Y-98656066D01*
X123524700Y-98443242D01*
X122969735Y-98442758D01*
X122682000Y-98561648D01*
X122682000Y-96889630D01*
X122940147Y-96631483D01*
X122967300Y-96642758D01*
X123522265Y-96643242D01*
X124035172Y-96431313D01*
X124427934Y-96039236D01*
X124640758Y-95526700D01*
X124641242Y-94971735D01*
X124429313Y-94458828D01*
X124037236Y-94066066D01*
X123982185Y-94043207D01*
X124035172Y-94021313D01*
X124427934Y-93629236D01*
X124640758Y-93116700D01*
X124641242Y-92561735D01*
X124429313Y-92048828D01*
X124037236Y-91656066D01*
X123524700Y-91443242D01*
X122969735Y-91442758D01*
X122456828Y-91654687D01*
X122064066Y-92046764D01*
X121976046Y-92258738D01*
X121889313Y-92048828D01*
X121497236Y-91656066D01*
X120984700Y-91443242D01*
X120429735Y-91442758D01*
X119916828Y-91654687D01*
X119524066Y-92046764D01*
X119311242Y-92559300D01*
X119310758Y-93114265D01*
X119522687Y-93627172D01*
X119914764Y-94019934D01*
X120427300Y-94232758D01*
X120982265Y-94233242D01*
X121495172Y-94021313D01*
X121887934Y-93629236D01*
X121975954Y-93417262D01*
X122062687Y-93627172D01*
X122454764Y-94019934D01*
X122509815Y-94042793D01*
X122456828Y-94064687D01*
X122064066Y-94456764D01*
X121851242Y-94969300D01*
X121850758Y-95524265D01*
X121862847Y-95553523D01*
X121381185Y-96035185D01*
X121216004Y-96282395D01*
X121158000Y-96574000D01*
X121158000Y-98515203D01*
X120984700Y-98443242D01*
X120429735Y-98442758D01*
X119916828Y-98654687D01*
X119524066Y-99046764D01*
X119311242Y-99559300D01*
X119310758Y-100114265D01*
X119522687Y-100627172D01*
X119914764Y-101019934D01*
X120427300Y-101232758D01*
X120982265Y-101233242D01*
X121158000Y-101160630D01*
X121158000Y-103776000D01*
X120991630Y-103776000D01*
X120955603Y-103739973D01*
X120895779Y-103700000D01*
X120708393Y-103574792D01*
X120416788Y-103516788D01*
X120332418Y-103516788D01*
X120084458Y-103268828D01*
X120079996Y-103246395D01*
X119914815Y-102999185D01*
X119552000Y-102636370D01*
X119552000Y-102026000D01*
X119493996Y-101734395D01*
X119404195Y-101599999D01*
X119328816Y-101487185D01*
X118364000Y-100522370D01*
X118364000Y-94996000D01*
X118305996Y-94704395D01*
X118230020Y-94590689D01*
X118140815Y-94457184D01*
X117856000Y-94172370D01*
X117856000Y-93728642D01*
X118008622Y-93576286D01*
X118173313Y-93179668D01*
X118173687Y-92750216D01*
X118009689Y-92353311D01*
X117706286Y-92049378D01*
X117309668Y-91884687D01*
X117114840Y-91884517D01*
X116993689Y-91591311D01*
X116690286Y-91287378D01*
X116293668Y-91122687D01*
X115864216Y-91122313D01*
X115612777Y-91226206D01*
X115420286Y-91033378D01*
X115023668Y-90868687D01*
X114594216Y-90868313D01*
X114197311Y-91032311D01*
X113893378Y-91335714D01*
X113728687Y-91732332D01*
X113728313Y-92161784D01*
X113892311Y-92558689D01*
X114046000Y-92712646D01*
X114046000Y-94742000D01*
X114104004Y-95033605D01*
X114222982Y-95211668D01*
X114269185Y-95280815D01*
X115352000Y-96363630D01*
X115352000Y-100889369D01*
X115020440Y-100557810D01*
X115020440Y-100139500D01*
X114976162Y-99904183D01*
X114934525Y-99839477D01*
X114969431Y-99788390D01*
X115020440Y-99536500D01*
X115020440Y-98139500D01*
X114976162Y-97904183D01*
X114964219Y-97885623D01*
X115125313Y-97497668D01*
X115125687Y-97068216D01*
X114961689Y-96671311D01*
X114658286Y-96367378D01*
X114261668Y-96202687D01*
X113832216Y-96202313D01*
X113598634Y-96298827D01*
X113437689Y-95909311D01*
X113134286Y-95605378D01*
X112737668Y-95440687D01*
X112308216Y-95440313D01*
X111911311Y-95604311D01*
X111607378Y-95907714D01*
X111442687Y-96304332D01*
X111442498Y-96521872D01*
X111021568Y-96942802D01*
X110937185Y-96999185D01*
X110337185Y-97599185D01*
X110172004Y-97846395D01*
X110114000Y-98138000D01*
X110114000Y-98822369D01*
X109637185Y-99299185D01*
X109472004Y-99546395D01*
X109414000Y-99838000D01*
X109414000Y-100522369D01*
X109400541Y-100535829D01*
X109288286Y-100423378D01*
X108891668Y-100258687D01*
X108538000Y-100258379D01*
X108538000Y-94723631D01*
X108742815Y-94518816D01*
X108907996Y-94271605D01*
X108915723Y-94232758D01*
X108966000Y-93980000D01*
X108966000Y-92712642D01*
X109118622Y-92560286D01*
X109283313Y-92163668D01*
X109283687Y-91734216D01*
X109119689Y-91337311D01*
X108816286Y-91033378D01*
X108419668Y-90868687D01*
X107990216Y-90868313D01*
X107593311Y-91032311D01*
X107289378Y-91335714D01*
X107166979Y-91630481D01*
X106974216Y-91630313D01*
X106577311Y-91794311D01*
X106375925Y-91995346D01*
X106037236Y-91656066D01*
X105524700Y-91443242D01*
X104969735Y-91442758D01*
X104456828Y-91654687D01*
X104064066Y-92046764D01*
X103976046Y-92258738D01*
X103889313Y-92048828D01*
X103497236Y-91656066D01*
X102984700Y-91443242D01*
X102429735Y-91442758D01*
X101916828Y-91654687D01*
X101524066Y-92046764D01*
X101311242Y-92559300D01*
X101310758Y-93114265D01*
X95885000Y-93114265D01*
X95885000Y-89438631D01*
X95923631Y-89400000D01*
X125114000Y-89400000D01*
X125114000Y-102673358D01*
X124961378Y-102825714D01*
X124796687Y-103222332D01*
X124796313Y-103651784D01*
X124960311Y-104048689D01*
X125263714Y-104352622D01*
X125293277Y-104364898D01*
X125172004Y-104546395D01*
X125114000Y-104838000D01*
X125114000Y-107773184D01*
X125061378Y-107825714D01*
X124896687Y-108222332D01*
X124896313Y-108651784D01*
X125060311Y-109048689D01*
X125363714Y-109352622D01*
X125760332Y-109517313D01*
X126189784Y-109517687D01*
X126586689Y-109353689D01*
X126890622Y-109050286D01*
X127055313Y-108653668D01*
X127055368Y-108590588D01*
X127386689Y-108453689D01*
X127540646Y-108300000D01*
X135611358Y-108300000D01*
X135763714Y-108452622D01*
X136160332Y-108617313D01*
X136589784Y-108617687D01*
X136986689Y-108453689D01*
X137290622Y-108150286D01*
X137455313Y-107753668D01*
X137455687Y-107324216D01*
X137291689Y-106927311D01*
X136988286Y-106623378D01*
X136591668Y-106458687D01*
X136162216Y-106458313D01*
X135765311Y-106622311D01*
X135611354Y-106776000D01*
X128655381Y-106776000D01*
X128655687Y-106424216D01*
X128528921Y-106117419D01*
X128763714Y-106352622D01*
X129160332Y-106517313D01*
X129589784Y-106517687D01*
X129986689Y-106353689D01*
X130290622Y-106050286D01*
X130455313Y-105653668D01*
X130455687Y-105224216D01*
X130291689Y-104827311D01*
X130138000Y-104673354D01*
X130138000Y-100917381D01*
X130489784Y-100917687D01*
X130886689Y-100753689D01*
X131040646Y-100600000D01*
X132160370Y-100600000D01*
X135296501Y-103736131D01*
X135296313Y-103951784D01*
X135460311Y-104348689D01*
X135763714Y-104652622D01*
X136160332Y-104817313D01*
X136589784Y-104817687D01*
X136986689Y-104653689D01*
X137290622Y-104350286D01*
X137455313Y-103953668D01*
X137455687Y-103524216D01*
X137291689Y-103127311D01*
X136988286Y-102823378D01*
X136591668Y-102658687D01*
X136374128Y-102658498D01*
X133014815Y-99299185D01*
X132904858Y-99225714D01*
X132767605Y-99134004D01*
X132476000Y-99076000D01*
X131040642Y-99076000D01*
X130888286Y-98923378D01*
X130491668Y-98758687D01*
X130138000Y-98758379D01*
X130138000Y-93114265D01*
X137310758Y-93114265D01*
X137522687Y-93627172D01*
X137914764Y-94019934D01*
X138427300Y-94232758D01*
X138982265Y-94233242D01*
X139495172Y-94021313D01*
X139887934Y-93629236D01*
X139975954Y-93417262D01*
X140062687Y-93627172D01*
X140454764Y-94019934D01*
X140509815Y-94042793D01*
X140456828Y-94064687D01*
X140064066Y-94456764D01*
X139851242Y-94969300D01*
X139850758Y-95524265D01*
X140062687Y-96037172D01*
X140454764Y-96429934D01*
X140967300Y-96642758D01*
X141522265Y-96643242D01*
X141551523Y-96631153D01*
X141814000Y-96893630D01*
X141814000Y-98563370D01*
X141524700Y-98443242D01*
X140969735Y-98442758D01*
X140456828Y-98654687D01*
X140064066Y-99046764D01*
X139976046Y-99258738D01*
X139889313Y-99048828D01*
X139497236Y-98656066D01*
X138984700Y-98443242D01*
X138429735Y-98442758D01*
X137916828Y-98654687D01*
X137524066Y-99046764D01*
X137311242Y-99559300D01*
X137310758Y-100114265D01*
X137522687Y-100627172D01*
X137914764Y-101019934D01*
X138427300Y-101232758D01*
X138982265Y-101233242D01*
X139495172Y-101021313D01*
X139887934Y-100629236D01*
X139975954Y-100417262D01*
X140062687Y-100627172D01*
X140454764Y-101019934D01*
X140509815Y-101042793D01*
X140456828Y-101064687D01*
X140064066Y-101456764D01*
X139851242Y-101969300D01*
X139850758Y-102524265D01*
X140062687Y-103037172D01*
X140454764Y-103429934D01*
X140614000Y-103496055D01*
X140614000Y-107138000D01*
X140672004Y-107429605D01*
X140785314Y-107599185D01*
X140837185Y-107676815D01*
X142448369Y-109288000D01*
X142237185Y-109499185D01*
X142094219Y-109713148D01*
X142037236Y-109656066D01*
X141524700Y-109443242D01*
X140969735Y-109442758D01*
X140456828Y-109654687D01*
X140064066Y-110046764D01*
X139976046Y-110258738D01*
X139889313Y-110048828D01*
X139497236Y-109656066D01*
X138984700Y-109443242D01*
X138429735Y-109442758D01*
X137916828Y-109654687D01*
X137524066Y-110046764D01*
X137311242Y-110559300D01*
X137310758Y-111114265D01*
X137522687Y-111627172D01*
X137914764Y-112019934D01*
X138427300Y-112232758D01*
X138982265Y-112233242D01*
X139495172Y-112021313D01*
X139887934Y-111629236D01*
X139975954Y-111417262D01*
X140062687Y-111627172D01*
X140454764Y-112019934D01*
X140509815Y-112042793D01*
X140456828Y-112064687D01*
X140064066Y-112456764D01*
X139851242Y-112969300D01*
X139850758Y-113524265D01*
X140062687Y-114037172D01*
X140454764Y-114429934D01*
X140967300Y-114642758D01*
X141522265Y-114643242D01*
X142035172Y-114431313D01*
X142427934Y-114039236D01*
X142614000Y-113591140D01*
X142614000Y-117495804D01*
X142429313Y-117048828D01*
X142037236Y-116656066D01*
X141524700Y-116443242D01*
X140969735Y-116442758D01*
X140456828Y-116654687D01*
X140064066Y-117046764D01*
X139976046Y-117258738D01*
X139889313Y-117048828D01*
X139497236Y-116656066D01*
X138984700Y-116443242D01*
X138429735Y-116442758D01*
X137916828Y-116654687D01*
X137524066Y-117046764D01*
X137311242Y-117559300D01*
X137310758Y-118114265D01*
X137522687Y-118627172D01*
X137914764Y-119019934D01*
X138427300Y-119232758D01*
X138982265Y-119233242D01*
X139495172Y-119021313D01*
X139887934Y-118629236D01*
X139975954Y-118417262D01*
X140062687Y-118627172D01*
X140454764Y-119019934D01*
X140509815Y-119042793D01*
X140456828Y-119064687D01*
X140064066Y-119456764D01*
X139851242Y-119969300D01*
X139850758Y-120524265D01*
X140062687Y-121037172D01*
X140454764Y-121429934D01*
X140967300Y-121642758D01*
X141522265Y-121643242D01*
X142035172Y-121431313D01*
X142427934Y-121039236D01*
X142640758Y-120526700D01*
X142641242Y-119971735D01*
X142629153Y-119942477D01*
X143214000Y-119357630D01*
X143214000Y-128202370D01*
X142641056Y-128775314D01*
X142641242Y-128561735D01*
X142429313Y-128048828D01*
X142037236Y-127656066D01*
X141524700Y-127443242D01*
X140969735Y-127442758D01*
X140456828Y-127654687D01*
X140064066Y-128046764D01*
X139976046Y-128258738D01*
X139889313Y-128048828D01*
X139497236Y-127656066D01*
X138984700Y-127443242D01*
X138429735Y-127442758D01*
X137916828Y-127654687D01*
X137524066Y-128046764D01*
X137311242Y-128559300D01*
X137310758Y-129114265D01*
X137522687Y-129627172D01*
X137914764Y-130019934D01*
X138427300Y-130232758D01*
X138982265Y-130233242D01*
X139495172Y-130021313D01*
X139887934Y-129629236D01*
X139975954Y-129417262D01*
X140062687Y-129627172D01*
X140454764Y-130019934D01*
X140509815Y-130042793D01*
X140456828Y-130064687D01*
X140064066Y-130456764D01*
X139851242Y-130969300D01*
X139850758Y-131524265D01*
X140062687Y-132037172D01*
X140454764Y-132429934D01*
X140967300Y-132642758D01*
X141522265Y-132643242D01*
X142035172Y-132431313D01*
X142427934Y-132039236D01*
X142640758Y-131526700D01*
X142641242Y-130971735D01*
X142629153Y-130942477D01*
X143814000Y-129757630D01*
X143814000Y-134602370D01*
X142641056Y-135775314D01*
X142641242Y-135561735D01*
X142429313Y-135048828D01*
X142037236Y-134656066D01*
X141524700Y-134443242D01*
X140969735Y-134442758D01*
X140456828Y-134654687D01*
X140064066Y-135046764D01*
X139976046Y-135258738D01*
X139889313Y-135048828D01*
X139497236Y-134656066D01*
X138984700Y-134443242D01*
X138429735Y-134442758D01*
X137916828Y-134654687D01*
X137524066Y-135046764D01*
X137311242Y-135559300D01*
X137310758Y-136114265D01*
X137522687Y-136627172D01*
X137914764Y-137019934D01*
X138427300Y-137232758D01*
X138982265Y-137233242D01*
X139495172Y-137021313D01*
X139887934Y-136629236D01*
X139975954Y-136417262D01*
X140062687Y-136627172D01*
X140454764Y-137019934D01*
X140509815Y-137042793D01*
X140456828Y-137064687D01*
X140064066Y-137456764D01*
X139851242Y-137969300D01*
X139850758Y-138524265D01*
X140062687Y-139037172D01*
X140454764Y-139429934D01*
X140967300Y-139642758D01*
X141522265Y-139643242D01*
X142035172Y-139431313D01*
X142427934Y-139039236D01*
X142640758Y-138526700D01*
X142641242Y-137971735D01*
X142629153Y-137942477D01*
X145114815Y-135456815D01*
X145279996Y-135209605D01*
X145338000Y-134918000D01*
X145338000Y-116717381D01*
X145689784Y-116717687D01*
X146086689Y-116553689D01*
X146240646Y-116400000D01*
X152411358Y-116400000D01*
X152563714Y-116552622D01*
X152960332Y-116717313D01*
X153389784Y-116717687D01*
X153414000Y-116707681D01*
X153414000Y-131338000D01*
X153472004Y-131629605D01*
X153577049Y-131786815D01*
X153637185Y-131876815D01*
X156269384Y-134509014D01*
X155916828Y-134654687D01*
X155524066Y-135046764D01*
X155311242Y-135559300D01*
X155310758Y-136114265D01*
X155522687Y-136627172D01*
X155914764Y-137019934D01*
X156427300Y-137232758D01*
X156982265Y-137233242D01*
X157169291Y-137155964D01*
X157172004Y-137169605D01*
X157337185Y-137416815D01*
X157862517Y-137942147D01*
X157851242Y-137969300D01*
X157850758Y-138524265D01*
X158062687Y-139037172D01*
X158454764Y-139429934D01*
X158967300Y-139642758D01*
X159522265Y-139643242D01*
X160035172Y-139431313D01*
X160427934Y-139039236D01*
X160640758Y-138526700D01*
X160641242Y-137971735D01*
X160429313Y-137458828D01*
X160037236Y-137066066D01*
X159982185Y-137043207D01*
X160035172Y-137021313D01*
X160427934Y-136629236D01*
X160640758Y-136116700D01*
X160641242Y-135561735D01*
X160429313Y-135048828D01*
X160037236Y-134656066D01*
X159524700Y-134443242D01*
X158969735Y-134442758D01*
X158505328Y-134634647D01*
X158414815Y-134499185D01*
X154938000Y-131022370D01*
X154938000Y-126077630D01*
X156340145Y-127479776D01*
X155916828Y-127654687D01*
X155524066Y-128046764D01*
X155311242Y-128559300D01*
X155310758Y-129114265D01*
X155522687Y-129627172D01*
X155914764Y-130019934D01*
X156427300Y-130232758D01*
X156982265Y-130233242D01*
X157243315Y-130125378D01*
X157272004Y-130269605D01*
X157397060Y-130456764D01*
X157437185Y-130516815D01*
X157862517Y-130942147D01*
X157851242Y-130969300D01*
X157850758Y-131524265D01*
X158062687Y-132037172D01*
X158454764Y-132429934D01*
X158967300Y-132642758D01*
X159522265Y-132643242D01*
X160035172Y-132431313D01*
X160427934Y-132039236D01*
X160640758Y-131526700D01*
X160641242Y-130971735D01*
X160429313Y-130458828D01*
X160037236Y-130066066D01*
X159982185Y-130043207D01*
X160035172Y-130021313D01*
X160427934Y-129629236D01*
X160640758Y-129116700D01*
X160641242Y-128561735D01*
X160429313Y-128048828D01*
X160037236Y-127656066D01*
X159524700Y-127443242D01*
X158969735Y-127442758D01*
X158583693Y-127602267D01*
X158514815Y-127499184D01*
X155538000Y-124522370D01*
X155538000Y-118642512D01*
X155914764Y-119019934D01*
X156427300Y-119232758D01*
X156982265Y-119233242D01*
X157243315Y-119125378D01*
X157272004Y-119269605D01*
X157397060Y-119456764D01*
X157437185Y-119516815D01*
X157862517Y-119942147D01*
X157851242Y-119969300D01*
X157850758Y-120524265D01*
X158062687Y-121037172D01*
X158454764Y-121429934D01*
X158967300Y-121642758D01*
X159522265Y-121643242D01*
X160035172Y-121431313D01*
X160427934Y-121039236D01*
X160640758Y-120526700D01*
X160641242Y-119971735D01*
X160429313Y-119458828D01*
X160037236Y-119066066D01*
X159982185Y-119043207D01*
X160035172Y-119021313D01*
X160427934Y-118629236D01*
X160640758Y-118116700D01*
X160641242Y-117561735D01*
X160429313Y-117048828D01*
X160037236Y-116656066D01*
X159524700Y-116443242D01*
X158969735Y-116442758D01*
X158682952Y-116561255D01*
X158679996Y-116546395D01*
X158547893Y-116348689D01*
X158514815Y-116299184D01*
X156138000Y-113922370D01*
X156138000Y-112112630D01*
X156427300Y-112232758D01*
X156982265Y-112233242D01*
X157243315Y-112125378D01*
X157272004Y-112269605D01*
X157385785Y-112439890D01*
X157437185Y-112516815D01*
X157862517Y-112942147D01*
X157851242Y-112969300D01*
X157850758Y-113524265D01*
X158062687Y-114037172D01*
X158454764Y-114429934D01*
X158967300Y-114642758D01*
X159522265Y-114643242D01*
X160035172Y-114431313D01*
X160427934Y-114039236D01*
X160640758Y-113526700D01*
X160641242Y-112971735D01*
X160429313Y-112458828D01*
X160037236Y-112066066D01*
X159982185Y-112043207D01*
X160035172Y-112021313D01*
X160427934Y-111629236D01*
X160640758Y-111116700D01*
X160641242Y-110561735D01*
X160429313Y-110048828D01*
X160037236Y-109656066D01*
X159524700Y-109443242D01*
X158969735Y-109442758D01*
X158519393Y-109628836D01*
X158514815Y-109621985D01*
X158438738Y-109545908D01*
X158465815Y-109527815D01*
X160114815Y-107878815D01*
X160279996Y-107631605D01*
X160295494Y-107553689D01*
X160338000Y-107340000D01*
X160338000Y-103129013D01*
X160427934Y-103039236D01*
X160640758Y-102526700D01*
X160641242Y-101971735D01*
X160429313Y-101458828D01*
X160037236Y-101066066D01*
X159982185Y-101043207D01*
X160035172Y-101021313D01*
X160427934Y-100629236D01*
X160640758Y-100116700D01*
X160641242Y-99561735D01*
X160429313Y-99048828D01*
X160037236Y-98656066D01*
X159524700Y-98443242D01*
X158969735Y-98442758D01*
X158750000Y-98533551D01*
X158750000Y-96821630D01*
X158940147Y-96631483D01*
X158967300Y-96642758D01*
X159522265Y-96643242D01*
X160035172Y-96431313D01*
X160427934Y-96039236D01*
X160640758Y-95526700D01*
X160641242Y-94971735D01*
X160429313Y-94458828D01*
X160037236Y-94066066D01*
X159982185Y-94043207D01*
X160035172Y-94021313D01*
X160427934Y-93629236D01*
X160640758Y-93116700D01*
X160641242Y-92561735D01*
X160429313Y-92048828D01*
X160037236Y-91656066D01*
X159524700Y-91443242D01*
X158969735Y-91442758D01*
X158456828Y-91654687D01*
X158064066Y-92046764D01*
X157976046Y-92258738D01*
X157889313Y-92048828D01*
X157497236Y-91656066D01*
X156984700Y-91443242D01*
X156429735Y-91442758D01*
X155916828Y-91654687D01*
X155524066Y-92046764D01*
X155311242Y-92559300D01*
X155310758Y-93114265D01*
X155522687Y-93627172D01*
X155914764Y-94019934D01*
X156427300Y-94232758D01*
X156982265Y-94233242D01*
X157495172Y-94021313D01*
X157887934Y-93629236D01*
X157975954Y-93417262D01*
X158062687Y-93627172D01*
X158454764Y-94019934D01*
X158509815Y-94042793D01*
X158456828Y-94064687D01*
X158064066Y-94456764D01*
X157851242Y-94969300D01*
X157850758Y-95524265D01*
X157862847Y-95553523D01*
X157449185Y-95967185D01*
X157284004Y-96214395D01*
X157226000Y-96506000D01*
X157226000Y-98543439D01*
X156984700Y-98443242D01*
X156429735Y-98442758D01*
X155916828Y-98654687D01*
X155524066Y-99046764D01*
X155311242Y-99559300D01*
X155310758Y-100114265D01*
X155522687Y-100627172D01*
X155914764Y-101019934D01*
X156427300Y-101232758D01*
X156982265Y-101233242D01*
X157226000Y-101132533D01*
X157226000Y-103785946D01*
X157176000Y-103776000D01*
X156991630Y-103776000D01*
X156955603Y-103739973D01*
X156895779Y-103700000D01*
X156708393Y-103574792D01*
X156416788Y-103516788D01*
X156332418Y-103516788D01*
X156084458Y-103268828D01*
X156079996Y-103246395D01*
X155914815Y-102999185D01*
X155538000Y-102622370D01*
X155538000Y-101944000D01*
X155479996Y-101652395D01*
X155314815Y-101405185D01*
X153670000Y-99760370D01*
X153670000Y-96329501D01*
X153883784Y-96329687D01*
X154280689Y-96165689D01*
X154584622Y-95862286D01*
X154749313Y-95465668D01*
X154749687Y-95036216D01*
X154585689Y-94639311D01*
X154282286Y-94335378D01*
X153885668Y-94170687D01*
X153456216Y-94170313D01*
X153204777Y-94274206D01*
X153012286Y-94081378D01*
X152615668Y-93916687D01*
X152420840Y-93916517D01*
X152299689Y-93623311D01*
X151996286Y-93319378D01*
X151599668Y-93154687D01*
X151170216Y-93154313D01*
X150773311Y-93318311D01*
X150469378Y-93621714D01*
X150304687Y-94018332D01*
X150304313Y-94447784D01*
X150468311Y-94844689D01*
X150622000Y-94998646D01*
X150622000Y-96263354D01*
X150472286Y-96113378D01*
X150075668Y-95948687D01*
X149880840Y-95948517D01*
X149759689Y-95655311D01*
X149456286Y-95351378D01*
X149059668Y-95186687D01*
X148630216Y-95186313D01*
X148233311Y-95350311D01*
X147929378Y-95653714D01*
X147764687Y-96050332D01*
X147764498Y-96267872D01*
X147201835Y-96830535D01*
X147194450Y-96832004D01*
X147184395Y-96834004D01*
X146937185Y-96999185D01*
X146337185Y-97599185D01*
X146172004Y-97846395D01*
X146114000Y-98138000D01*
X146114000Y-98822369D01*
X145637185Y-99299185D01*
X145472004Y-99546395D01*
X145414000Y-99838000D01*
X145414000Y-100522369D01*
X145400541Y-100535829D01*
X145288286Y-100423378D01*
X144891668Y-100258687D01*
X144526000Y-100258369D01*
X144526000Y-95565630D01*
X145064816Y-95026815D01*
X145186508Y-94844689D01*
X145229996Y-94779605D01*
X145288000Y-94488000D01*
X145288000Y-93474642D01*
X145440622Y-93322286D01*
X145605313Y-92925668D01*
X145605687Y-92496216D01*
X145441689Y-92099311D01*
X145138286Y-91795378D01*
X144741668Y-91630687D01*
X144312216Y-91630313D01*
X143915311Y-91794311D01*
X143891224Y-91818356D01*
X143868286Y-91795378D01*
X143471668Y-91630687D01*
X143042216Y-91630313D01*
X142645311Y-91794311D01*
X142409865Y-92029346D01*
X142037236Y-91656066D01*
X141524700Y-91443242D01*
X140969735Y-91442758D01*
X140456828Y-91654687D01*
X140064066Y-92046764D01*
X139976046Y-92258738D01*
X139889313Y-92048828D01*
X139497236Y-91656066D01*
X138984700Y-91443242D01*
X138429735Y-91442758D01*
X137916828Y-91654687D01*
X137524066Y-92046764D01*
X137311242Y-92559300D01*
X137310758Y-93114265D01*
X130138000Y-93114265D01*
X130138000Y-92473807D01*
X130186689Y-92453689D01*
X130490622Y-92150286D01*
X130655313Y-91753668D01*
X130655687Y-91324216D01*
X130491689Y-90927311D01*
X130188286Y-90623378D01*
X129791668Y-90458687D01*
X129587218Y-90458509D01*
X129491689Y-90227311D01*
X129188286Y-89923378D01*
X128791668Y-89758687D01*
X128732994Y-89758636D01*
X129091630Y-89400000D01*
X161114000Y-89400000D01*
X161114000Y-102673358D01*
X160961378Y-102825714D01*
X160796687Y-103222332D01*
X160796313Y-103651784D01*
X160960311Y-104048689D01*
X161263714Y-104352622D01*
X161293277Y-104364898D01*
X161172004Y-104546395D01*
X161114000Y-104838000D01*
X161114000Y-107773184D01*
X161061378Y-107825714D01*
X160896687Y-108222332D01*
X160896313Y-108651784D01*
X161060311Y-109048689D01*
X161363714Y-109352622D01*
X161760332Y-109517313D01*
X162189784Y-109517687D01*
X162586689Y-109353689D01*
X162890622Y-109050286D01*
X163055313Y-108653668D01*
X163055368Y-108590588D01*
X163386689Y-108453689D01*
X163540646Y-108300000D01*
X171611358Y-108300000D01*
X171763714Y-108452622D01*
X172160332Y-108617313D01*
X172589784Y-108617687D01*
X172986689Y-108453689D01*
X173290622Y-108150286D01*
X173455313Y-107753668D01*
X173455687Y-107324216D01*
X173291689Y-106927311D01*
X172988286Y-106623378D01*
X172591668Y-106458687D01*
X172162216Y-106458313D01*
X171765311Y-106622311D01*
X171611354Y-106776000D01*
X164655381Y-106776000D01*
X164655687Y-106424216D01*
X164491689Y-106027311D01*
X164478016Y-106013614D01*
X165114816Y-105376815D01*
X165279997Y-105129604D01*
X165338000Y-104838000D01*
X165338000Y-100394692D01*
X165360311Y-100448689D01*
X165663714Y-100752622D01*
X166060332Y-100917313D01*
X166489784Y-100917687D01*
X166886689Y-100753689D01*
X167040646Y-100600000D01*
X168160370Y-100600000D01*
X171296501Y-103736131D01*
X171296313Y-103951784D01*
X171460311Y-104348689D01*
X171763714Y-104652622D01*
X172160332Y-104817313D01*
X172589784Y-104817687D01*
X172986689Y-104653689D01*
X173290622Y-104350286D01*
X173455313Y-103953668D01*
X173455687Y-103524216D01*
X173291689Y-103127311D01*
X172988286Y-102823378D01*
X172591668Y-102658687D01*
X172374128Y-102658498D01*
X169014815Y-99299185D01*
X168904858Y-99225714D01*
X168767605Y-99134004D01*
X168476000Y-99076000D01*
X167040642Y-99076000D01*
X166888286Y-98923378D01*
X166491668Y-98758687D01*
X166062216Y-98758313D01*
X165665311Y-98922311D01*
X165361378Y-99225714D01*
X165338000Y-99282014D01*
X165338000Y-93114265D01*
X173310758Y-93114265D01*
X173522687Y-93627172D01*
X173914764Y-94019934D01*
X174427300Y-94232758D01*
X174982265Y-94233242D01*
X175495172Y-94021313D01*
X175887934Y-93629236D01*
X175975954Y-93417262D01*
X176062687Y-93627172D01*
X176454764Y-94019934D01*
X176509815Y-94042793D01*
X176456828Y-94064687D01*
X176064066Y-94456764D01*
X175851242Y-94969300D01*
X175850758Y-95524265D01*
X176062687Y-96037172D01*
X176454764Y-96429934D01*
X176967300Y-96642758D01*
X177522265Y-96643242D01*
X177551523Y-96631153D01*
X177814000Y-96893630D01*
X177814000Y-98563370D01*
X177524700Y-98443242D01*
X176969735Y-98442758D01*
X176456828Y-98654687D01*
X176064066Y-99046764D01*
X175976046Y-99258738D01*
X175889313Y-99048828D01*
X175497236Y-98656066D01*
X174984700Y-98443242D01*
X174429735Y-98442758D01*
X173916828Y-98654687D01*
X173524066Y-99046764D01*
X173311242Y-99559300D01*
X173310758Y-100114265D01*
X173522687Y-100627172D01*
X173914764Y-101019934D01*
X174427300Y-101232758D01*
X174982265Y-101233242D01*
X175495172Y-101021313D01*
X175887934Y-100629236D01*
X175975954Y-100417262D01*
X176062687Y-100627172D01*
X176454764Y-101019934D01*
X176509815Y-101042793D01*
X176456828Y-101064687D01*
X176064066Y-101456764D01*
X175851242Y-101969300D01*
X175850758Y-102524265D01*
X176062687Y-103037172D01*
X176454764Y-103429934D01*
X176614000Y-103496055D01*
X176614000Y-107138000D01*
X176672004Y-107429605D01*
X176785314Y-107599185D01*
X176837185Y-107676815D01*
X178448369Y-109288000D01*
X178237185Y-109499185D01*
X178094219Y-109713148D01*
X178037236Y-109656066D01*
X177524700Y-109443242D01*
X176969735Y-109442758D01*
X176456828Y-109654687D01*
X176064066Y-110046764D01*
X175976046Y-110258738D01*
X175889313Y-110048828D01*
X175497236Y-109656066D01*
X174984700Y-109443242D01*
X174429735Y-109442758D01*
X173916828Y-109654687D01*
X173524066Y-110046764D01*
X173311242Y-110559300D01*
X173310758Y-111114265D01*
X173522687Y-111627172D01*
X173914764Y-112019934D01*
X174427300Y-112232758D01*
X174982265Y-112233242D01*
X175495172Y-112021313D01*
X175887934Y-111629236D01*
X175975954Y-111417262D01*
X176062687Y-111627172D01*
X176454764Y-112019934D01*
X176509815Y-112042793D01*
X176456828Y-112064687D01*
X176064066Y-112456764D01*
X175851242Y-112969300D01*
X175850758Y-113524265D01*
X176062687Y-114037172D01*
X176454764Y-114429934D01*
X176967300Y-114642758D01*
X177522265Y-114643242D01*
X178035172Y-114431313D01*
X178427934Y-114039236D01*
X178614000Y-113591140D01*
X178614000Y-117495804D01*
X178429313Y-117048828D01*
X178037236Y-116656066D01*
X177524700Y-116443242D01*
X176969735Y-116442758D01*
X176456828Y-116654687D01*
X176064066Y-117046764D01*
X175976046Y-117258738D01*
X175889313Y-117048828D01*
X175497236Y-116656066D01*
X174984700Y-116443242D01*
X174429735Y-116442758D01*
X173916828Y-116654687D01*
X173524066Y-117046764D01*
X173311242Y-117559300D01*
X173310758Y-118114265D01*
X173522687Y-118627172D01*
X173914764Y-119019934D01*
X174427300Y-119232758D01*
X174982265Y-119233242D01*
X175495172Y-119021313D01*
X175887934Y-118629236D01*
X175975954Y-118417262D01*
X176062687Y-118627172D01*
X176454764Y-119019934D01*
X176509815Y-119042793D01*
X176456828Y-119064687D01*
X176064066Y-119456764D01*
X175851242Y-119969300D01*
X175850758Y-120524265D01*
X176062687Y-121037172D01*
X176454764Y-121429934D01*
X176967300Y-121642758D01*
X177522265Y-121643242D01*
X178035172Y-121431313D01*
X178427934Y-121039236D01*
X178640758Y-120526700D01*
X178641242Y-119971735D01*
X178629153Y-119942477D01*
X179214000Y-119357630D01*
X179214000Y-128202370D01*
X178641056Y-128775314D01*
X178641242Y-128561735D01*
X178429313Y-128048828D01*
X178037236Y-127656066D01*
X177524700Y-127443242D01*
X176969735Y-127442758D01*
X176456828Y-127654687D01*
X176064066Y-128046764D01*
X175976046Y-128258738D01*
X175889313Y-128048828D01*
X175497236Y-127656066D01*
X174984700Y-127443242D01*
X174429735Y-127442758D01*
X173916828Y-127654687D01*
X173524066Y-128046764D01*
X173311242Y-128559300D01*
X173310758Y-129114265D01*
X173522687Y-129627172D01*
X173914764Y-130019934D01*
X174427300Y-130232758D01*
X174982265Y-130233242D01*
X175495172Y-130021313D01*
X175887934Y-129629236D01*
X175975954Y-129417262D01*
X176062687Y-129627172D01*
X176454764Y-130019934D01*
X176509815Y-130042793D01*
X176456828Y-130064687D01*
X176064066Y-130456764D01*
X175851242Y-130969300D01*
X175850758Y-131524265D01*
X176062687Y-132037172D01*
X176454764Y-132429934D01*
X176967300Y-132642758D01*
X177522265Y-132643242D01*
X178035172Y-132431313D01*
X178427934Y-132039236D01*
X178640758Y-131526700D01*
X178641242Y-130971735D01*
X178629153Y-130942477D01*
X179814000Y-129757630D01*
X179814000Y-134602370D01*
X178641056Y-135775314D01*
X178641242Y-135561735D01*
X178429313Y-135048828D01*
X178037236Y-134656066D01*
X177524700Y-134443242D01*
X176969735Y-134442758D01*
X176456828Y-134654687D01*
X176064066Y-135046764D01*
X175976046Y-135258738D01*
X175889313Y-135048828D01*
X175497236Y-134656066D01*
X174984700Y-134443242D01*
X174429735Y-134442758D01*
X173916828Y-134654687D01*
X173524066Y-135046764D01*
X173311242Y-135559300D01*
X173310758Y-136114265D01*
X173522687Y-136627172D01*
X173914764Y-137019934D01*
X174427300Y-137232758D01*
X174982265Y-137233242D01*
X175495172Y-137021313D01*
X175887934Y-136629236D01*
X175975954Y-136417262D01*
X176062687Y-136627172D01*
X176454764Y-137019934D01*
X176509815Y-137042793D01*
X176456828Y-137064687D01*
X176064066Y-137456764D01*
X175851242Y-137969300D01*
X175850758Y-138524265D01*
X176062687Y-139037172D01*
X176454764Y-139429934D01*
X176967300Y-139642758D01*
X177522265Y-139643242D01*
X178035172Y-139431313D01*
X178427934Y-139039236D01*
X178640758Y-138526700D01*
X178641242Y-137971735D01*
X178629153Y-137942477D01*
X181114815Y-135456815D01*
X181279996Y-135209605D01*
X181338000Y-134918000D01*
X181338000Y-116817381D01*
X181689784Y-116817687D01*
X182086689Y-116653689D01*
X182240646Y-116500000D01*
X188411358Y-116500000D01*
X188563714Y-116652622D01*
X188960332Y-116817313D01*
X189389784Y-116817687D01*
X189414000Y-116807681D01*
X189414000Y-131338000D01*
X189472004Y-131629605D01*
X189577049Y-131786815D01*
X189637185Y-131876815D01*
X192269384Y-134509014D01*
X191916828Y-134654687D01*
X191524066Y-135046764D01*
X191311242Y-135559300D01*
X191310758Y-136114265D01*
X191522687Y-136627172D01*
X191914764Y-137019934D01*
X192427300Y-137232758D01*
X192982265Y-137233242D01*
X193169291Y-137155964D01*
X193172004Y-137169605D01*
X193337185Y-137416815D01*
X193862517Y-137942147D01*
X193851242Y-137969300D01*
X193850758Y-138524265D01*
X194062687Y-139037172D01*
X194454764Y-139429934D01*
X194967300Y-139642758D01*
X195522265Y-139643242D01*
X196035172Y-139431313D01*
X196427934Y-139039236D01*
X196640758Y-138526700D01*
X196641242Y-137971735D01*
X196429313Y-137458828D01*
X196037236Y-137066066D01*
X195982185Y-137043207D01*
X196035172Y-137021313D01*
X196427934Y-136629236D01*
X196640758Y-136116700D01*
X196641242Y-135561735D01*
X196429313Y-135048828D01*
X196037236Y-134656066D01*
X195524700Y-134443242D01*
X194969735Y-134442758D01*
X194505328Y-134634647D01*
X194414815Y-134499185D01*
X190938000Y-131022370D01*
X190938000Y-126077630D01*
X192340145Y-127479776D01*
X191916828Y-127654687D01*
X191524066Y-128046764D01*
X191311242Y-128559300D01*
X191310758Y-129114265D01*
X191522687Y-129627172D01*
X191914764Y-130019934D01*
X192427300Y-130232758D01*
X192982265Y-130233242D01*
X193243315Y-130125378D01*
X193272004Y-130269605D01*
X193397060Y-130456764D01*
X193437185Y-130516815D01*
X193862517Y-130942147D01*
X193851242Y-130969300D01*
X193850758Y-131524265D01*
X194062687Y-132037172D01*
X194454764Y-132429934D01*
X194967300Y-132642758D01*
X195522265Y-132643242D01*
X196035172Y-132431313D01*
X196427934Y-132039236D01*
X196640758Y-131526700D01*
X196641242Y-130971735D01*
X196429313Y-130458828D01*
X196037236Y-130066066D01*
X195982185Y-130043207D01*
X196035172Y-130021313D01*
X196427934Y-129629236D01*
X196640758Y-129116700D01*
X196641242Y-128561735D01*
X196429313Y-128048828D01*
X196037236Y-127656066D01*
X195524700Y-127443242D01*
X194969735Y-127442758D01*
X194583693Y-127602267D01*
X194514815Y-127499184D01*
X191538000Y-124522370D01*
X191538000Y-118642512D01*
X191914764Y-119019934D01*
X192427300Y-119232758D01*
X192982265Y-119233242D01*
X193243315Y-119125378D01*
X193272004Y-119269605D01*
X193397060Y-119456764D01*
X193437185Y-119516815D01*
X193862517Y-119942147D01*
X193851242Y-119969300D01*
X193850758Y-120524265D01*
X194062687Y-121037172D01*
X194454764Y-121429934D01*
X194967300Y-121642758D01*
X195522265Y-121643242D01*
X196035172Y-121431313D01*
X196427934Y-121039236D01*
X196640758Y-120526700D01*
X196641242Y-119971735D01*
X196429313Y-119458828D01*
X196037236Y-119066066D01*
X195982185Y-119043207D01*
X196035172Y-119021313D01*
X196427934Y-118629236D01*
X196640758Y-118116700D01*
X196641242Y-117561735D01*
X196429313Y-117048828D01*
X196037236Y-116656066D01*
X195524700Y-116443242D01*
X194969735Y-116442758D01*
X194682952Y-116561255D01*
X194679996Y-116546395D01*
X194547893Y-116348689D01*
X194514815Y-116299184D01*
X192138000Y-113922370D01*
X192138000Y-112112630D01*
X192427300Y-112232758D01*
X192982265Y-112233242D01*
X193243315Y-112125378D01*
X193272004Y-112269605D01*
X193385785Y-112439890D01*
X193437185Y-112516815D01*
X193862517Y-112942147D01*
X193851242Y-112969300D01*
X193850758Y-113524265D01*
X194062687Y-114037172D01*
X194454764Y-114429934D01*
X194967300Y-114642758D01*
X195522265Y-114643242D01*
X196035172Y-114431313D01*
X196427934Y-114039236D01*
X196640758Y-113526700D01*
X196641242Y-112971735D01*
X196429313Y-112458828D01*
X196037236Y-112066066D01*
X195982185Y-112043207D01*
X196035172Y-112021313D01*
X196427934Y-111629236D01*
X196640758Y-111116700D01*
X196641242Y-110561735D01*
X196429313Y-110048828D01*
X196037236Y-109656066D01*
X195524700Y-109443242D01*
X194969735Y-109442758D01*
X194519393Y-109628836D01*
X194514815Y-109621985D01*
X194438738Y-109545908D01*
X194465815Y-109527815D01*
X196114815Y-107878815D01*
X196279996Y-107631605D01*
X196295494Y-107553689D01*
X196338000Y-107340000D01*
X196338000Y-103129013D01*
X196427934Y-103039236D01*
X196640758Y-102526700D01*
X196641242Y-101971735D01*
X196429313Y-101458828D01*
X196037236Y-101066066D01*
X195982185Y-101043207D01*
X196035172Y-101021313D01*
X196427934Y-100629236D01*
X196640758Y-100116700D01*
X196641242Y-99561735D01*
X196429313Y-99048828D01*
X196037236Y-98656066D01*
X195524700Y-98443242D01*
X194969735Y-98442758D01*
X194818000Y-98505454D01*
X194818000Y-96753630D01*
X194940147Y-96631483D01*
X194967300Y-96642758D01*
X195522265Y-96643242D01*
X196035172Y-96431313D01*
X196427934Y-96039236D01*
X196640758Y-95526700D01*
X196641242Y-94971735D01*
X196429313Y-94458828D01*
X196037236Y-94066066D01*
X195982185Y-94043207D01*
X196035172Y-94021313D01*
X196427934Y-93629236D01*
X196640758Y-93116700D01*
X196641242Y-92561735D01*
X196429313Y-92048828D01*
X196037236Y-91656066D01*
X195524700Y-91443242D01*
X194969735Y-91442758D01*
X194456828Y-91654687D01*
X194064066Y-92046764D01*
X193976046Y-92258738D01*
X193889313Y-92048828D01*
X193497236Y-91656066D01*
X192984700Y-91443242D01*
X192429735Y-91442758D01*
X191916828Y-91654687D01*
X191524066Y-92046764D01*
X191311242Y-92559300D01*
X191310758Y-93114265D01*
X191522687Y-93627172D01*
X191914764Y-94019934D01*
X192427300Y-94232758D01*
X192982265Y-94233242D01*
X193495172Y-94021313D01*
X193887934Y-93629236D01*
X193975954Y-93417262D01*
X194062687Y-93627172D01*
X194454764Y-94019934D01*
X194509815Y-94042793D01*
X194456828Y-94064687D01*
X194064066Y-94456764D01*
X193851242Y-94969300D01*
X193850758Y-95524265D01*
X193862847Y-95553523D01*
X193517185Y-95899185D01*
X193352004Y-96146395D01*
X193294000Y-96438000D01*
X193294000Y-98571675D01*
X192984700Y-98443242D01*
X192429735Y-98442758D01*
X191916828Y-98654687D01*
X191524066Y-99046764D01*
X191311242Y-99559300D01*
X191310758Y-100114265D01*
X191522687Y-100627172D01*
X191914764Y-101019934D01*
X192427300Y-101232758D01*
X192982265Y-101233242D01*
X193294000Y-101104436D01*
X193294000Y-103799472D01*
X193176000Y-103776000D01*
X192991630Y-103776000D01*
X192955603Y-103739973D01*
X192895779Y-103700000D01*
X192708393Y-103574792D01*
X192416788Y-103516788D01*
X192332418Y-103516788D01*
X192084458Y-103268828D01*
X192079996Y-103246395D01*
X191914815Y-102999185D01*
X191538000Y-102622370D01*
X191538000Y-102130000D01*
X191479996Y-101838395D01*
X191314815Y-101591185D01*
X189992000Y-100268370D01*
X189992000Y-94938119D01*
X190094689Y-94895689D01*
X190398622Y-94592286D01*
X190563313Y-94195668D01*
X190563687Y-93766216D01*
X190399689Y-93369311D01*
X190096286Y-93065378D01*
X189699668Y-92900687D01*
X189547556Y-92900555D01*
X189547687Y-92750216D01*
X189383689Y-92353311D01*
X189080286Y-92049378D01*
X188683668Y-91884687D01*
X188254216Y-91884313D01*
X187857311Y-92048311D01*
X187553378Y-92351714D01*
X187436593Y-92632962D01*
X187261499Y-92457869D01*
X187261687Y-92242216D01*
X187097689Y-91845311D01*
X186794286Y-91541378D01*
X186397668Y-91376687D01*
X185968216Y-91376313D01*
X185571311Y-91540311D01*
X185267378Y-91843714D01*
X185102687Y-92240332D01*
X185102313Y-92669784D01*
X185266311Y-93066689D01*
X185569714Y-93370622D01*
X185966332Y-93535313D01*
X186183872Y-93535502D01*
X186944000Y-94295631D01*
X186944000Y-96660082D01*
X186843689Y-96417311D01*
X186540286Y-96113378D01*
X186143668Y-95948687D01*
X185714216Y-95948313D01*
X185317311Y-96112311D01*
X185013378Y-96415714D01*
X184849447Y-96810501D01*
X184676000Y-96776000D01*
X183476000Y-96776000D01*
X183194450Y-96832004D01*
X183184395Y-96834004D01*
X182937185Y-96999185D01*
X182337185Y-97599185D01*
X182172004Y-97846395D01*
X182114000Y-98138000D01*
X182114000Y-98822369D01*
X181637185Y-99299185D01*
X181472004Y-99546395D01*
X181414000Y-99838000D01*
X181414000Y-100522369D01*
X181400541Y-100535829D01*
X181288286Y-100423378D01*
X180891668Y-100258687D01*
X180538000Y-100258379D01*
X180538000Y-93789673D01*
X180553784Y-93789687D01*
X180950689Y-93625689D01*
X181254622Y-93322286D01*
X181419313Y-92925668D01*
X181419687Y-92496216D01*
X181255689Y-92099311D01*
X180952286Y-91795378D01*
X180555668Y-91630687D01*
X180126216Y-91630313D01*
X179729311Y-91794311D01*
X179425378Y-92097714D01*
X179260687Y-92494332D01*
X179260498Y-92711872D01*
X179237185Y-92735185D01*
X179105981Y-92931545D01*
X179031668Y-92900687D01*
X178640947Y-92900347D01*
X178641242Y-92561735D01*
X178429313Y-92048828D01*
X178037236Y-91656066D01*
X177524700Y-91443242D01*
X176969735Y-91442758D01*
X176456828Y-91654687D01*
X176064066Y-92046764D01*
X175976046Y-92258738D01*
X175889313Y-92048828D01*
X175497236Y-91656066D01*
X174984700Y-91443242D01*
X174429735Y-91442758D01*
X173916828Y-91654687D01*
X173524066Y-92046764D01*
X173311242Y-92559300D01*
X173310758Y-93114265D01*
X165338000Y-93114265D01*
X165338000Y-91602642D01*
X165490622Y-91450286D01*
X165655313Y-91053668D01*
X165655687Y-90624216D01*
X165491689Y-90227311D01*
X165188286Y-89923378D01*
X164791668Y-89758687D01*
X164732994Y-89758636D01*
X165091630Y-89400000D01*
X197114000Y-89400000D01*
X197114000Y-102673358D01*
X196961378Y-102825714D01*
X196796687Y-103222332D01*
X196796313Y-103651784D01*
X196960311Y-104048689D01*
X197263714Y-104352622D01*
X197293277Y-104364898D01*
X197172004Y-104546395D01*
X197114000Y-104838000D01*
X197114000Y-107773184D01*
X197061378Y-107825714D01*
X196896687Y-108222332D01*
X196896313Y-108651784D01*
X197060311Y-109048689D01*
X197363714Y-109352622D01*
X197760332Y-109517313D01*
X198189784Y-109517687D01*
X198586689Y-109353689D01*
X198890622Y-109050286D01*
X199055313Y-108653668D01*
X199055368Y-108590588D01*
X199386689Y-108453689D01*
X199690622Y-108150286D01*
X199855313Y-107753668D01*
X199855368Y-107690588D01*
X200186689Y-107553689D01*
X200490622Y-107250286D01*
X200655313Y-106853668D01*
X200655687Y-106424216D01*
X200491689Y-106027311D01*
X200478016Y-106013614D01*
X201114816Y-105376815D01*
X201279997Y-105129604D01*
X201338000Y-104838000D01*
X201338000Y-88054000D01*
X201279996Y-87762395D01*
X201171487Y-87600000D01*
X201114816Y-87515185D01*
X199420815Y-85821185D01*
X199266815Y-85667185D01*
X199258027Y-85661313D01*
X199019605Y-85502004D01*
X198728000Y-85444000D01*
X196004467Y-85444000D01*
X196035172Y-85431313D01*
X196427934Y-85039236D01*
X196640758Y-84526700D01*
X196641242Y-83971735D01*
X196429313Y-83458828D01*
X196037236Y-83066066D01*
X195982185Y-83043207D01*
X196035172Y-83021313D01*
X196427934Y-82629236D01*
X196640758Y-82116700D01*
X196641242Y-81561735D01*
X196429313Y-81048828D01*
X196037236Y-80656066D01*
X195524700Y-80443242D01*
X194969735Y-80442758D01*
X194456828Y-80654687D01*
X194064066Y-81046764D01*
X193976046Y-81258738D01*
X193889313Y-81048828D01*
X193497236Y-80656066D01*
X192984700Y-80443242D01*
X192429735Y-80442758D01*
X191916828Y-80654687D01*
X191524066Y-81046764D01*
X191311242Y-81559300D01*
X191310758Y-82114265D01*
X191522687Y-82627172D01*
X191914764Y-83019934D01*
X192427300Y-83232758D01*
X192982265Y-83233242D01*
X193495172Y-83021313D01*
X193887934Y-82629236D01*
X193975954Y-82417262D01*
X194062687Y-82627172D01*
X194454764Y-83019934D01*
X194509815Y-83042793D01*
X194456828Y-83064687D01*
X194064066Y-83456764D01*
X193851242Y-83969300D01*
X193850758Y-84524265D01*
X194062687Y-85037172D01*
X194454764Y-85429934D01*
X194488639Y-85444000D01*
X187159630Y-85444000D01*
X187114818Y-85399188D01*
X187114816Y-85399185D01*
X186914817Y-85199187D01*
X186914815Y-85199184D01*
X186814815Y-85099185D01*
X186701362Y-85023378D01*
X186567605Y-84934004D01*
X186276000Y-84876000D01*
X185676000Y-84876000D01*
X185384395Y-84934004D01*
X185137185Y-85099185D01*
X184760370Y-85476000D01*
X177927021Y-85476000D01*
X178035172Y-85431313D01*
X178427934Y-85039236D01*
X178640758Y-84526700D01*
X178641242Y-83971735D01*
X178429313Y-83458828D01*
X178037236Y-83066066D01*
X177982185Y-83043207D01*
X178035172Y-83021313D01*
X178427934Y-82629236D01*
X178640758Y-82116700D01*
X178641242Y-81561735D01*
X178429313Y-81048828D01*
X178037236Y-80656066D01*
X177524700Y-80443242D01*
X176969735Y-80442758D01*
X176456828Y-80654687D01*
X176064066Y-81046764D01*
X175976046Y-81258738D01*
X175889313Y-81048828D01*
X175497236Y-80656066D01*
X174984700Y-80443242D01*
X174429735Y-80442758D01*
X173916828Y-80654687D01*
X173524066Y-81046764D01*
X173311242Y-81559300D01*
X173310758Y-82114265D01*
X173522687Y-82627172D01*
X173914764Y-83019934D01*
X174427300Y-83232758D01*
X174982265Y-83233242D01*
X175495172Y-83021313D01*
X175887934Y-82629236D01*
X175975954Y-82417262D01*
X176062687Y-82627172D01*
X176454764Y-83019934D01*
X176509815Y-83042793D01*
X176456828Y-83064687D01*
X176064066Y-83456764D01*
X175851242Y-83969300D01*
X175850758Y-84524265D01*
X176062687Y-85037172D01*
X176454764Y-85429934D01*
X176565703Y-85476000D01*
X165553126Y-85476000D01*
X165491689Y-85327311D01*
X165188286Y-85023378D01*
X164791668Y-84858687D01*
X164362216Y-84858313D01*
X163965311Y-85022311D01*
X163661378Y-85325714D01*
X163598973Y-85476000D01*
X159927021Y-85476000D01*
X160035172Y-85431313D01*
X160427934Y-85039236D01*
X160640758Y-84526700D01*
X160641242Y-83971735D01*
X160429313Y-83458828D01*
X160037236Y-83066066D01*
X159982185Y-83043207D01*
X160035172Y-83021313D01*
X160427934Y-82629236D01*
X160640758Y-82116700D01*
X160641242Y-81561735D01*
X160429313Y-81048828D01*
X160037236Y-80656066D01*
X159524700Y-80443242D01*
X158969735Y-80442758D01*
X158456828Y-80654687D01*
X158064066Y-81046764D01*
X157976046Y-81258738D01*
X157889313Y-81048828D01*
X157497236Y-80656066D01*
X156984700Y-80443242D01*
X156429735Y-80442758D01*
X155916828Y-80654687D01*
X155524066Y-81046764D01*
X155311242Y-81559300D01*
X155310758Y-82114265D01*
X155522687Y-82627172D01*
X155914764Y-83019934D01*
X156427300Y-83232758D01*
X156982265Y-83233242D01*
X157495172Y-83021313D01*
X157887934Y-82629236D01*
X157975954Y-82417262D01*
X158062687Y-82627172D01*
X158454764Y-83019934D01*
X158509815Y-83042793D01*
X158456828Y-83064687D01*
X158064066Y-83456764D01*
X157851242Y-83969300D01*
X157850758Y-84524265D01*
X158062687Y-85037172D01*
X158454764Y-85429934D01*
X158565703Y-85476000D01*
X151191630Y-85476000D01*
X151114818Y-85399188D01*
X151114816Y-85399185D01*
X150914817Y-85199187D01*
X150914815Y-85199184D01*
X150814815Y-85099185D01*
X150701362Y-85023378D01*
X150567605Y-84934004D01*
X150276000Y-84876000D01*
X149676000Y-84876000D01*
X149384395Y-84934004D01*
X149137185Y-85099185D01*
X148760370Y-85476000D01*
X141927021Y-85476000D01*
X142035172Y-85431313D01*
X142427934Y-85039236D01*
X142640758Y-84526700D01*
X142641242Y-83971735D01*
X142429313Y-83458828D01*
X142037236Y-83066066D01*
X141982185Y-83043207D01*
X142035172Y-83021313D01*
X142427934Y-82629236D01*
X142640758Y-82116700D01*
X142641242Y-81561735D01*
X142429313Y-81048828D01*
X142037236Y-80656066D01*
X141524700Y-80443242D01*
X140969735Y-80442758D01*
X140456828Y-80654687D01*
X140064066Y-81046764D01*
X139976046Y-81258738D01*
X139889313Y-81048828D01*
X139497236Y-80656066D01*
X138984700Y-80443242D01*
X138429735Y-80442758D01*
X137916828Y-80654687D01*
X137524066Y-81046764D01*
X137311242Y-81559300D01*
X137310758Y-82114265D01*
X137522687Y-82627172D01*
X137914764Y-83019934D01*
X138427300Y-83232758D01*
X138982265Y-83233242D01*
X139495172Y-83021313D01*
X139887934Y-82629236D01*
X139975954Y-82417262D01*
X140062687Y-82627172D01*
X140454764Y-83019934D01*
X140509815Y-83042793D01*
X140456828Y-83064687D01*
X140064066Y-83456764D01*
X139851242Y-83969300D01*
X139850758Y-84524265D01*
X140062687Y-85037172D01*
X140454764Y-85429934D01*
X140565703Y-85476000D01*
X130646040Y-85476000D01*
X130655313Y-85453668D01*
X130655687Y-85024216D01*
X130491689Y-84627311D01*
X130188286Y-84323378D01*
X129791668Y-84158687D01*
X129362216Y-84158313D01*
X129077392Y-84276000D01*
X128276000Y-84276000D01*
X127984395Y-84334004D01*
X127737185Y-84499185D01*
X127360370Y-84876000D01*
X124495716Y-84876000D01*
X124640758Y-84526700D01*
X124641242Y-83971735D01*
X124429313Y-83458828D01*
X124037236Y-83066066D01*
X123982185Y-83043207D01*
X124035172Y-83021313D01*
X124427934Y-82629236D01*
X124640758Y-82116700D01*
X124641242Y-81561735D01*
X124429313Y-81048828D01*
X124037236Y-80656066D01*
X123524700Y-80443242D01*
X122969735Y-80442758D01*
X122456828Y-80654687D01*
X122064066Y-81046764D01*
X121976046Y-81258738D01*
X121889313Y-81048828D01*
X121497236Y-80656066D01*
X120984700Y-80443242D01*
X120429735Y-80442758D01*
X119916828Y-80654687D01*
X119524066Y-81046764D01*
X119311242Y-81559300D01*
X119310758Y-82114265D01*
X119522687Y-82627172D01*
X119914764Y-83019934D01*
X120427300Y-83232758D01*
X120982265Y-83233242D01*
X121495172Y-83021313D01*
X121887934Y-82629236D01*
X121975954Y-82417262D01*
X122062687Y-82627172D01*
X122454764Y-83019934D01*
X122509815Y-83042793D01*
X122456828Y-83064687D01*
X122064066Y-83456764D01*
X121851242Y-83969300D01*
X121850758Y-84524265D01*
X121996092Y-84876000D01*
X115491630Y-84876000D01*
X115114815Y-84499185D01*
X114867605Y-84334004D01*
X114576000Y-84276000D01*
X113476000Y-84276000D01*
X113184395Y-84334004D01*
X112937185Y-84499185D01*
X112560370Y-84876000D01*
X107980787Y-84876000D01*
X108013313Y-84797668D01*
X108013687Y-84368216D01*
X107849689Y-83971311D01*
X107730371Y-83851784D01*
X117096313Y-83851784D01*
X117260311Y-84248689D01*
X117563714Y-84552622D01*
X117960332Y-84717313D01*
X118389784Y-84717687D01*
X118786689Y-84553689D01*
X119090622Y-84250286D01*
X119255313Y-83853668D01*
X119255687Y-83424216D01*
X119091689Y-83027311D01*
X118938000Y-82873354D01*
X118938000Y-81053630D01*
X120291631Y-79700000D01*
X121556000Y-79700000D01*
X121847605Y-79641996D01*
X122094815Y-79476815D01*
X122940147Y-78631483D01*
X122967300Y-78642758D01*
X123522265Y-78643242D01*
X124035172Y-78431313D01*
X124427934Y-78039236D01*
X124640758Y-77526700D01*
X124641242Y-76971735D01*
X124429313Y-76458828D01*
X124037236Y-76066066D01*
X123982185Y-76043207D01*
X124035172Y-76021313D01*
X124427934Y-75629236D01*
X124640758Y-75116700D01*
X124640760Y-75114265D01*
X137310758Y-75114265D01*
X137522687Y-75627172D01*
X137914764Y-76019934D01*
X138427300Y-76232758D01*
X138982265Y-76233242D01*
X139495172Y-76021313D01*
X139887934Y-75629236D01*
X139975954Y-75417262D01*
X140062687Y-75627172D01*
X140454764Y-76019934D01*
X140509815Y-76042793D01*
X140456828Y-76064687D01*
X140064066Y-76456764D01*
X139851242Y-76969300D01*
X139850758Y-77524265D01*
X140062687Y-78037172D01*
X140454764Y-78429934D01*
X140967300Y-78642758D01*
X141522265Y-78643242D01*
X141551523Y-78631153D01*
X143014000Y-80093631D01*
X143014000Y-82373358D01*
X142861378Y-82525714D01*
X142696687Y-82922332D01*
X142696313Y-83351784D01*
X142860311Y-83748689D01*
X143163714Y-84052622D01*
X143560332Y-84217313D01*
X143989784Y-84217687D01*
X144386689Y-84053689D01*
X144588946Y-83851784D01*
X153096313Y-83851784D01*
X153260311Y-84248689D01*
X153563714Y-84552622D01*
X153960332Y-84717313D01*
X154389784Y-84717687D01*
X154786689Y-84553689D01*
X155090622Y-84250286D01*
X155255313Y-83853668D01*
X155255687Y-83424216D01*
X155091689Y-83027311D01*
X154938000Y-82873354D01*
X154938000Y-81053630D01*
X156291631Y-79700000D01*
X157556000Y-79700000D01*
X157847605Y-79641996D01*
X158094815Y-79476815D01*
X158940147Y-78631483D01*
X158967300Y-78642758D01*
X159522265Y-78643242D01*
X160035172Y-78431313D01*
X160427934Y-78039236D01*
X160640758Y-77526700D01*
X160641242Y-76971735D01*
X160429313Y-76458828D01*
X160037236Y-76066066D01*
X159982185Y-76043207D01*
X160035172Y-76021313D01*
X160427934Y-75629236D01*
X160640758Y-75116700D01*
X160640760Y-75114265D01*
X173310758Y-75114265D01*
X173522687Y-75627172D01*
X173914764Y-76019934D01*
X174427300Y-76232758D01*
X174982265Y-76233242D01*
X175495172Y-76021313D01*
X175887934Y-75629236D01*
X175975954Y-75417262D01*
X176062687Y-75627172D01*
X176454764Y-76019934D01*
X176509815Y-76042793D01*
X176456828Y-76064687D01*
X176064066Y-76456764D01*
X175851242Y-76969300D01*
X175850758Y-77524265D01*
X176062687Y-78037172D01*
X176454764Y-78429934D01*
X176967300Y-78642758D01*
X177522265Y-78643242D01*
X177551523Y-78631153D01*
X179014000Y-80093631D01*
X179014000Y-82373358D01*
X178861378Y-82525714D01*
X178696687Y-82922332D01*
X178696313Y-83351784D01*
X178860311Y-83748689D01*
X179163714Y-84052622D01*
X179560332Y-84217313D01*
X179989784Y-84217687D01*
X180386689Y-84053689D01*
X180588946Y-83851784D01*
X189096313Y-83851784D01*
X189260311Y-84248689D01*
X189563714Y-84552622D01*
X189960332Y-84717313D01*
X190389784Y-84717687D01*
X190786689Y-84553689D01*
X191090622Y-84250286D01*
X191255313Y-83853668D01*
X191255687Y-83424216D01*
X191091689Y-83027311D01*
X190938000Y-82873354D01*
X190938000Y-81053630D01*
X192291631Y-79700000D01*
X193556000Y-79700000D01*
X193847605Y-79641996D01*
X194094815Y-79476815D01*
X194940147Y-78631483D01*
X194967300Y-78642758D01*
X195522265Y-78643242D01*
X196035172Y-78431313D01*
X196427934Y-78039236D01*
X196640758Y-77526700D01*
X196641242Y-76971735D01*
X196429313Y-76458828D01*
X196037236Y-76066066D01*
X195982185Y-76043207D01*
X196035172Y-76021313D01*
X196427934Y-75629236D01*
X196640758Y-75116700D01*
X196641242Y-74561735D01*
X196429313Y-74048828D01*
X196037236Y-73656066D01*
X195524700Y-73443242D01*
X194969735Y-73442758D01*
X194456828Y-73654687D01*
X194064066Y-74046764D01*
X193976046Y-74258738D01*
X193889313Y-74048828D01*
X193497236Y-73656066D01*
X192984700Y-73443242D01*
X192429735Y-73442758D01*
X191916828Y-73654687D01*
X191524066Y-74046764D01*
X191311242Y-74559300D01*
X191310758Y-75114265D01*
X191522687Y-75627172D01*
X191914764Y-76019934D01*
X192427300Y-76232758D01*
X192982265Y-76233242D01*
X193495172Y-76021313D01*
X193887934Y-75629236D01*
X193975954Y-75417262D01*
X194062687Y-75627172D01*
X194454764Y-76019934D01*
X194509815Y-76042793D01*
X194456828Y-76064687D01*
X194064066Y-76456764D01*
X193851242Y-76969300D01*
X193850758Y-77524265D01*
X193862847Y-77553523D01*
X193240370Y-78176000D01*
X191976000Y-78176000D01*
X191684395Y-78234004D01*
X191437184Y-78399185D01*
X189637185Y-80199185D01*
X189472004Y-80446395D01*
X189414000Y-80738000D01*
X189414000Y-82873358D01*
X189261378Y-83025714D01*
X189096687Y-83422332D01*
X189096313Y-83851784D01*
X180588946Y-83851784D01*
X180690622Y-83750286D01*
X180855313Y-83353668D01*
X180855687Y-82924216D01*
X180691689Y-82527311D01*
X180538000Y-82373354D01*
X180538000Y-79778000D01*
X180479996Y-79486395D01*
X180314815Y-79239184D01*
X178629483Y-77553853D01*
X178640758Y-77526700D01*
X178641242Y-76971735D01*
X178429313Y-76458828D01*
X178037236Y-76066066D01*
X177982185Y-76043207D01*
X178035172Y-76021313D01*
X178427934Y-75629236D01*
X178640758Y-75116700D01*
X178641242Y-74561735D01*
X178429313Y-74048828D01*
X178037236Y-73656066D01*
X177524700Y-73443242D01*
X176969735Y-73442758D01*
X176456828Y-73654687D01*
X176064066Y-74046764D01*
X175976046Y-74258738D01*
X175889313Y-74048828D01*
X175497236Y-73656066D01*
X174984700Y-73443242D01*
X174429735Y-73442758D01*
X173916828Y-73654687D01*
X173524066Y-74046764D01*
X173311242Y-74559300D01*
X173310758Y-75114265D01*
X160640760Y-75114265D01*
X160641242Y-74561735D01*
X160429313Y-74048828D01*
X160037236Y-73656066D01*
X159524700Y-73443242D01*
X158969735Y-73442758D01*
X158456828Y-73654687D01*
X158064066Y-74046764D01*
X157976046Y-74258738D01*
X157889313Y-74048828D01*
X157497236Y-73656066D01*
X156984700Y-73443242D01*
X156429735Y-73442758D01*
X155916828Y-73654687D01*
X155524066Y-74046764D01*
X155311242Y-74559300D01*
X155310758Y-75114265D01*
X155522687Y-75627172D01*
X155914764Y-76019934D01*
X156427300Y-76232758D01*
X156982265Y-76233242D01*
X157495172Y-76021313D01*
X157887934Y-75629236D01*
X157975954Y-75417262D01*
X158062687Y-75627172D01*
X158454764Y-76019934D01*
X158509815Y-76042793D01*
X158456828Y-76064687D01*
X158064066Y-76456764D01*
X157851242Y-76969300D01*
X157850758Y-77524265D01*
X157862847Y-77553523D01*
X157240370Y-78176000D01*
X155976000Y-78176000D01*
X155684395Y-78234004D01*
X155437184Y-78399185D01*
X153637185Y-80199185D01*
X153472004Y-80446395D01*
X153414000Y-80738000D01*
X153414000Y-82873358D01*
X153261378Y-83025714D01*
X153096687Y-83422332D01*
X153096313Y-83851784D01*
X144588946Y-83851784D01*
X144690622Y-83750286D01*
X144855313Y-83353668D01*
X144855687Y-82924216D01*
X144691689Y-82527311D01*
X144538000Y-82373354D01*
X144538000Y-79778000D01*
X144479996Y-79486395D01*
X144314815Y-79239184D01*
X142629483Y-77553853D01*
X142640758Y-77526700D01*
X142641242Y-76971735D01*
X142429313Y-76458828D01*
X142037236Y-76066066D01*
X141982185Y-76043207D01*
X142035172Y-76021313D01*
X142427934Y-75629236D01*
X142640758Y-75116700D01*
X142641242Y-74561735D01*
X142429313Y-74048828D01*
X142037236Y-73656066D01*
X141524700Y-73443242D01*
X140969735Y-73442758D01*
X140456828Y-73654687D01*
X140064066Y-74046764D01*
X139976046Y-74258738D01*
X139889313Y-74048828D01*
X139497236Y-73656066D01*
X138984700Y-73443242D01*
X138429735Y-73442758D01*
X137916828Y-73654687D01*
X137524066Y-74046764D01*
X137311242Y-74559300D01*
X137310758Y-75114265D01*
X124640760Y-75114265D01*
X124641242Y-74561735D01*
X124429313Y-74048828D01*
X124037236Y-73656066D01*
X123524700Y-73443242D01*
X122969735Y-73442758D01*
X122456828Y-73654687D01*
X122064066Y-74046764D01*
X121976046Y-74258738D01*
X121889313Y-74048828D01*
X121497236Y-73656066D01*
X120984700Y-73443242D01*
X120429735Y-73442758D01*
X119916828Y-73654687D01*
X119524066Y-74046764D01*
X119311242Y-74559300D01*
X119310758Y-75114265D01*
X119522687Y-75627172D01*
X119914764Y-76019934D01*
X120427300Y-76232758D01*
X120982265Y-76233242D01*
X121495172Y-76021313D01*
X121887934Y-75629236D01*
X121975954Y-75417262D01*
X122062687Y-75627172D01*
X122454764Y-76019934D01*
X122509815Y-76042793D01*
X122456828Y-76064687D01*
X122064066Y-76456764D01*
X121851242Y-76969300D01*
X121850758Y-77524265D01*
X121862847Y-77553523D01*
X121240370Y-78176000D01*
X119976000Y-78176000D01*
X119684395Y-78234004D01*
X119437184Y-78399185D01*
X117637185Y-80199185D01*
X117472004Y-80446395D01*
X117414000Y-80738000D01*
X117414000Y-82873358D01*
X117261378Y-83025714D01*
X117096687Y-83422332D01*
X117096313Y-83851784D01*
X107730371Y-83851784D01*
X107696000Y-83817354D01*
X107696000Y-78740000D01*
X107637996Y-78448395D01*
X107571834Y-78349377D01*
X107472816Y-78201185D01*
X106640895Y-77369265D01*
X106641242Y-76971735D01*
X106429313Y-76458828D01*
X106037236Y-76066066D01*
X105982185Y-76043207D01*
X106035172Y-76021313D01*
X106427934Y-75629236D01*
X106640758Y-75116700D01*
X106641242Y-74561735D01*
X106429313Y-74048828D01*
X106037236Y-73656066D01*
X105524700Y-73443242D01*
X104969735Y-73442758D01*
X104456828Y-73654687D01*
X104064066Y-74046764D01*
X103976046Y-74258738D01*
X103889313Y-74048828D01*
X103497236Y-73656066D01*
X102984700Y-73443242D01*
X102429735Y-73442758D01*
X101916828Y-73654687D01*
X101524066Y-74046764D01*
X101311242Y-74559300D01*
X101310758Y-75114265D01*
X101522687Y-75627172D01*
X101914764Y-76019934D01*
X102427300Y-76232758D01*
X102982265Y-76233242D01*
X103495172Y-76021313D01*
X103887934Y-75629236D01*
X103975954Y-75417262D01*
X104062687Y-75627172D01*
X104454764Y-76019934D01*
X104509815Y-76042793D01*
X104456828Y-76064687D01*
X104064066Y-76456764D01*
X103851242Y-76969300D01*
X103850758Y-77524265D01*
X104062687Y-78037172D01*
X104454764Y-78429934D01*
X104967300Y-78642758D01*
X105522265Y-78643242D01*
X105690216Y-78573846D01*
X106172000Y-79055631D01*
X106172000Y-80791065D01*
X106037236Y-80656066D01*
X105524700Y-80443242D01*
X104969735Y-80442758D01*
X104456828Y-80654687D01*
X104064066Y-81046764D01*
X103976046Y-81258738D01*
X103889313Y-81048828D01*
X103497236Y-80656066D01*
X102984700Y-80443242D01*
X102429735Y-80442758D01*
X101916828Y-80654687D01*
X101524066Y-81046764D01*
X101311242Y-81559300D01*
X101310758Y-82114265D01*
X101522687Y-82627172D01*
X101914764Y-83019934D01*
X102427300Y-83232758D01*
X102982265Y-83233242D01*
X103495172Y-83021313D01*
X103887934Y-82629236D01*
X103975954Y-82417262D01*
X104062687Y-82627172D01*
X104454764Y-83019934D01*
X104509815Y-83042793D01*
X104456828Y-83064687D01*
X104064066Y-83456764D01*
X103851242Y-83969300D01*
X103850758Y-84524265D01*
X103996092Y-84876000D01*
X95885000Y-84876000D01*
X95885000Y-69023000D01*
X207791000Y-69023000D01*
X207791000Y-141605000D01*
X207791000Y-141605000D01*
G37*
X207791000Y-141605000D02*
X95885000Y-141605000D01*
X95885000Y-93114265D01*
X101310758Y-93114265D01*
X101522687Y-93627172D01*
X101914764Y-94019934D01*
X102427300Y-94232758D01*
X102982265Y-94233242D01*
X103495172Y-94021313D01*
X103887934Y-93629236D01*
X103975954Y-93417262D01*
X104062687Y-93627172D01*
X104454764Y-94019934D01*
X104509815Y-94042793D01*
X104456828Y-94064687D01*
X104064066Y-94456764D01*
X103851242Y-94969300D01*
X103850758Y-95524265D01*
X104062687Y-96037172D01*
X104454764Y-96429934D01*
X104967300Y-96642758D01*
X105522265Y-96643242D01*
X105551523Y-96631153D01*
X105814000Y-96893630D01*
X105814000Y-98563370D01*
X105524700Y-98443242D01*
X104969735Y-98442758D01*
X104456828Y-98654687D01*
X104064066Y-99046764D01*
X103976046Y-99258738D01*
X103889313Y-99048828D01*
X103497236Y-98656066D01*
X102984700Y-98443242D01*
X102429735Y-98442758D01*
X101916828Y-98654687D01*
X101524066Y-99046764D01*
X101311242Y-99559300D01*
X101310758Y-100114265D01*
X101522687Y-100627172D01*
X101914764Y-101019934D01*
X102427300Y-101232758D01*
X102982265Y-101233242D01*
X103495172Y-101021313D01*
X103887934Y-100629236D01*
X103975954Y-100417262D01*
X104062687Y-100627172D01*
X104454764Y-101019934D01*
X104509815Y-101042793D01*
X104456828Y-101064687D01*
X104064066Y-101456764D01*
X103851242Y-101969300D01*
X103850758Y-102524265D01*
X104062687Y-103037172D01*
X104454764Y-103429934D01*
X104614000Y-103496055D01*
X104614000Y-107138000D01*
X104672004Y-107429605D01*
X104785314Y-107599185D01*
X104837185Y-107676815D01*
X106448369Y-109288000D01*
X106237185Y-109499185D01*
X106094219Y-109713148D01*
X106037236Y-109656066D01*
X105524700Y-109443242D01*
X104969735Y-109442758D01*
X104456828Y-109654687D01*
X104064066Y-110046764D01*
X103976046Y-110258738D01*
X103889313Y-110048828D01*
X103497236Y-109656066D01*
X102984700Y-109443242D01*
X102429735Y-109442758D01*
X101916828Y-109654687D01*
X101524066Y-110046764D01*
X101311242Y-110559300D01*
X101310758Y-111114265D01*
X101522687Y-111627172D01*
X101914764Y-112019934D01*
X102427300Y-112232758D01*
X102982265Y-112233242D01*
X103495172Y-112021313D01*
X103887934Y-111629236D01*
X103975954Y-111417262D01*
X104062687Y-111627172D01*
X104454764Y-112019934D01*
X104509815Y-112042793D01*
X104456828Y-112064687D01*
X104064066Y-112456764D01*
X103851242Y-112969300D01*
X103850758Y-113524265D01*
X104062687Y-114037172D01*
X104454764Y-114429934D01*
X104967300Y-114642758D01*
X105522265Y-114643242D01*
X106035172Y-114431313D01*
X106427934Y-114039236D01*
X106614000Y-113591140D01*
X106614000Y-117495804D01*
X106429313Y-117048828D01*
X106037236Y-116656066D01*
X105524700Y-116443242D01*
X104969735Y-116442758D01*
X104456828Y-116654687D01*
X104064066Y-117046764D01*
X103976046Y-117258738D01*
X103889313Y-117048828D01*
X103497236Y-116656066D01*
X102984700Y-116443242D01*
X102429735Y-116442758D01*
X101916828Y-116654687D01*
X101524066Y-117046764D01*
X101311242Y-117559300D01*
X101310758Y-118114265D01*
X101522687Y-118627172D01*
X101914764Y-119019934D01*
X102427300Y-119232758D01*
X102982265Y-119233242D01*
X103495172Y-119021313D01*
X103887934Y-118629236D01*
X103975954Y-118417262D01*
X104062687Y-118627172D01*
X104454764Y-119019934D01*
X104509815Y-119042793D01*
X104456828Y-119064687D01*
X104064066Y-119456764D01*
X103851242Y-119969300D01*
X103850758Y-120524265D01*
X104062687Y-121037172D01*
X104454764Y-121429934D01*
X104967300Y-121642758D01*
X105522265Y-121643242D01*
X106035172Y-121431313D01*
X106427934Y-121039236D01*
X106640758Y-120526700D01*
X106641242Y-119971735D01*
X106629153Y-119942477D01*
X107214000Y-119357630D01*
X107214000Y-128202370D01*
X106641056Y-128775314D01*
X106641242Y-128561735D01*
X106429313Y-128048828D01*
X106037236Y-127656066D01*
X105524700Y-127443242D01*
X104969735Y-127442758D01*
X104456828Y-127654687D01*
X104064066Y-128046764D01*
X103976046Y-128258738D01*
X103889313Y-128048828D01*
X103497236Y-127656066D01*
X102984700Y-127443242D01*
X102429735Y-127442758D01*
X101916828Y-127654687D01*
X101524066Y-128046764D01*
X101311242Y-128559300D01*
X101310758Y-129114265D01*
X101522687Y-129627172D01*
X101914764Y-130019934D01*
X102427300Y-130232758D01*
X102982265Y-130233242D01*
X103495172Y-130021313D01*
X103887934Y-129629236D01*
X103975954Y-129417262D01*
X104062687Y-129627172D01*
X104454764Y-130019934D01*
X104509815Y-130042793D01*
X104456828Y-130064687D01*
X104064066Y-130456764D01*
X103851242Y-130969300D01*
X103850758Y-131524265D01*
X104062687Y-132037172D01*
X104454764Y-132429934D01*
X104967300Y-132642758D01*
X105522265Y-132643242D01*
X106035172Y-132431313D01*
X106427934Y-132039236D01*
X106640758Y-131526700D01*
X106641242Y-130971735D01*
X106629153Y-130942477D01*
X107814000Y-129757630D01*
X107814000Y-134602370D01*
X106641056Y-135775314D01*
X106641242Y-135561735D01*
X106429313Y-135048828D01*
X106037236Y-134656066D01*
X105524700Y-134443242D01*
X104969735Y-134442758D01*
X104456828Y-134654687D01*
X104064066Y-135046764D01*
X103976046Y-135258738D01*
X103889313Y-135048828D01*
X103497236Y-134656066D01*
X102984700Y-134443242D01*
X102429735Y-134442758D01*
X101916828Y-134654687D01*
X101524066Y-135046764D01*
X101311242Y-135559300D01*
X101310758Y-136114265D01*
X101522687Y-136627172D01*
X101914764Y-137019934D01*
X102427300Y-137232758D01*
X102982265Y-137233242D01*
X103495172Y-137021313D01*
X103887934Y-136629236D01*
X103975954Y-136417262D01*
X104062687Y-136627172D01*
X104454764Y-137019934D01*
X104509815Y-137042793D01*
X104456828Y-137064687D01*
X104064066Y-137456764D01*
X103851242Y-137969300D01*
X103850758Y-138524265D01*
X104062687Y-139037172D01*
X104454764Y-139429934D01*
X104967300Y-139642758D01*
X105522265Y-139643242D01*
X106035172Y-139431313D01*
X106427934Y-139039236D01*
X106640758Y-138526700D01*
X106641242Y-137971735D01*
X106629153Y-137942477D01*
X109114815Y-135456815D01*
X109279996Y-135209605D01*
X109338000Y-134918000D01*
X109338000Y-115517381D01*
X109689784Y-115517687D01*
X110086689Y-115353689D01*
X110240646Y-115200000D01*
X116411358Y-115200000D01*
X116563714Y-115352622D01*
X116960332Y-115517313D01*
X117389784Y-115517687D01*
X117414000Y-115507681D01*
X117414000Y-131338000D01*
X117472004Y-131629605D01*
X117577049Y-131786815D01*
X117637185Y-131876815D01*
X120269384Y-134509014D01*
X119916828Y-134654687D01*
X119524066Y-135046764D01*
X119311242Y-135559300D01*
X119310758Y-136114265D01*
X119522687Y-136627172D01*
X119914764Y-137019934D01*
X120427300Y-137232758D01*
X120982265Y-137233242D01*
X121169291Y-137155964D01*
X121172004Y-137169605D01*
X121337185Y-137416815D01*
X121862517Y-137942147D01*
X121851242Y-137969300D01*
X121850758Y-138524265D01*
X122062687Y-139037172D01*
X122454764Y-139429934D01*
X122967300Y-139642758D01*
X123522265Y-139643242D01*
X124035172Y-139431313D01*
X124427934Y-139039236D01*
X124640758Y-138526700D01*
X124641242Y-137971735D01*
X124429313Y-137458828D01*
X124037236Y-137066066D01*
X123982185Y-137043207D01*
X124035172Y-137021313D01*
X124427934Y-136629236D01*
X124640758Y-136116700D01*
X124641242Y-135561735D01*
X124429313Y-135048828D01*
X124037236Y-134656066D01*
X123524700Y-134443242D01*
X122969735Y-134442758D01*
X122505328Y-134634647D01*
X122414815Y-134499185D01*
X118938000Y-131022370D01*
X118938000Y-126077630D01*
X120340145Y-127479776D01*
X119916828Y-127654687D01*
X119524066Y-128046764D01*
X119311242Y-128559300D01*
X119310758Y-129114265D01*
X119522687Y-129627172D01*
X119914764Y-130019934D01*
X120427300Y-130232758D01*
X120982265Y-130233242D01*
X121243315Y-130125378D01*
X121272004Y-130269605D01*
X121397060Y-130456764D01*
X121437185Y-130516815D01*
X121862517Y-130942147D01*
X121851242Y-130969300D01*
X121850758Y-131524265D01*
X122062687Y-132037172D01*
X122454764Y-132429934D01*
X122967300Y-132642758D01*
X123522265Y-132643242D01*
X124035172Y-132431313D01*
X124427934Y-132039236D01*
X124640758Y-131526700D01*
X124641242Y-130971735D01*
X124429313Y-130458828D01*
X124037236Y-130066066D01*
X123982185Y-130043207D01*
X124035172Y-130021313D01*
X124427934Y-129629236D01*
X124640758Y-129116700D01*
X124641242Y-128561735D01*
X124429313Y-128048828D01*
X124037236Y-127656066D01*
X123524700Y-127443242D01*
X122969735Y-127442758D01*
X122583693Y-127602267D01*
X122514815Y-127499184D01*
X119538000Y-124522370D01*
X119538000Y-118642512D01*
X119914764Y-119019934D01*
X120427300Y-119232758D01*
X120982265Y-119233242D01*
X121243315Y-119125378D01*
X121272004Y-119269605D01*
X121397060Y-119456764D01*
X121437185Y-119516815D01*
X121862517Y-119942147D01*
X121851242Y-119969300D01*
X121850758Y-120524265D01*
X122062687Y-121037172D01*
X122454764Y-121429934D01*
X122967300Y-121642758D01*
X123522265Y-121643242D01*
X124035172Y-121431313D01*
X124427934Y-121039236D01*
X124640758Y-120526700D01*
X124641242Y-119971735D01*
X124429313Y-119458828D01*
X124037236Y-119066066D01*
X123982185Y-119043207D01*
X124035172Y-119021313D01*
X124427934Y-118629236D01*
X124640758Y-118116700D01*
X124641242Y-117561735D01*
X124429313Y-117048828D01*
X124037236Y-116656066D01*
X123524700Y-116443242D01*
X122969735Y-116442758D01*
X122682952Y-116561255D01*
X122679996Y-116546395D01*
X122547893Y-116348689D01*
X122514815Y-116299184D01*
X120138000Y-113922370D01*
X120138000Y-112112630D01*
X120427300Y-112232758D01*
X120982265Y-112233242D01*
X121243315Y-112125378D01*
X121272004Y-112269605D01*
X121385785Y-112439890D01*
X121437185Y-112516815D01*
X121862517Y-112942147D01*
X121851242Y-112969300D01*
X121850758Y-113524265D01*
X122062687Y-114037172D01*
X122454764Y-114429934D01*
X122967300Y-114642758D01*
X123522265Y-114643242D01*
X124035172Y-114431313D01*
X124427934Y-114039236D01*
X124640758Y-113526700D01*
X124641242Y-112971735D01*
X124429313Y-112458828D01*
X124037236Y-112066066D01*
X123982185Y-112043207D01*
X124035172Y-112021313D01*
X124427934Y-111629236D01*
X124640758Y-111116700D01*
X124641242Y-110561735D01*
X124429313Y-110048828D01*
X124037236Y-109656066D01*
X123524700Y-109443242D01*
X122969735Y-109442758D01*
X122519393Y-109628836D01*
X122514815Y-109621985D01*
X122438738Y-109545908D01*
X122465815Y-109527815D01*
X124114815Y-107878815D01*
X124279996Y-107631605D01*
X124295494Y-107553689D01*
X124338000Y-107340000D01*
X124338000Y-103129013D01*
X124427934Y-103039236D01*
X124640758Y-102526700D01*
X124641242Y-101971735D01*
X124429313Y-101458828D01*
X124037236Y-101066066D01*
X123982185Y-101043207D01*
X124035172Y-101021313D01*
X124427934Y-100629236D01*
X124640758Y-100116700D01*
X124641242Y-99561735D01*
X124429313Y-99048828D01*
X124037236Y-98656066D01*
X123524700Y-98443242D01*
X122969735Y-98442758D01*
X122682000Y-98561648D01*
X122682000Y-96889630D01*
X122940147Y-96631483D01*
X122967300Y-96642758D01*
X123522265Y-96643242D01*
X124035172Y-96431313D01*
X124427934Y-96039236D01*
X124640758Y-95526700D01*
X124641242Y-94971735D01*
X124429313Y-94458828D01*
X124037236Y-94066066D01*
X123982185Y-94043207D01*
X124035172Y-94021313D01*
X124427934Y-93629236D01*
X124640758Y-93116700D01*
X124641242Y-92561735D01*
X124429313Y-92048828D01*
X124037236Y-91656066D01*
X123524700Y-91443242D01*
X122969735Y-91442758D01*
X122456828Y-91654687D01*
X122064066Y-92046764D01*
X121976046Y-92258738D01*
X121889313Y-92048828D01*
X121497236Y-91656066D01*
X120984700Y-91443242D01*
X120429735Y-91442758D01*
X119916828Y-91654687D01*
X119524066Y-92046764D01*
X119311242Y-92559300D01*
X119310758Y-93114265D01*
X119522687Y-93627172D01*
X119914764Y-94019934D01*
X120427300Y-94232758D01*
X120982265Y-94233242D01*
X121495172Y-94021313D01*
X121887934Y-93629236D01*
X121975954Y-93417262D01*
X122062687Y-93627172D01*
X122454764Y-94019934D01*
X122509815Y-94042793D01*
X122456828Y-94064687D01*
X122064066Y-94456764D01*
X121851242Y-94969300D01*
X121850758Y-95524265D01*
X121862847Y-95553523D01*
X121381185Y-96035185D01*
X121216004Y-96282395D01*
X121158000Y-96574000D01*
X121158000Y-98515203D01*
X120984700Y-98443242D01*
X120429735Y-98442758D01*
X119916828Y-98654687D01*
X119524066Y-99046764D01*
X119311242Y-99559300D01*
X119310758Y-100114265D01*
X119522687Y-100627172D01*
X119914764Y-101019934D01*
X120427300Y-101232758D01*
X120982265Y-101233242D01*
X121158000Y-101160630D01*
X121158000Y-103776000D01*
X120991630Y-103776000D01*
X120955603Y-103739973D01*
X120895779Y-103700000D01*
X120708393Y-103574792D01*
X120416788Y-103516788D01*
X120332418Y-103516788D01*
X120084458Y-103268828D01*
X120079996Y-103246395D01*
X119914815Y-102999185D01*
X119552000Y-102636370D01*
X119552000Y-102026000D01*
X119493996Y-101734395D01*
X119404195Y-101599999D01*
X119328816Y-101487185D01*
X118364000Y-100522370D01*
X118364000Y-94996000D01*
X118305996Y-94704395D01*
X118230020Y-94590689D01*
X118140815Y-94457184D01*
X117856000Y-94172370D01*
X117856000Y-93728642D01*
X118008622Y-93576286D01*
X118173313Y-93179668D01*
X118173687Y-92750216D01*
X118009689Y-92353311D01*
X117706286Y-92049378D01*
X117309668Y-91884687D01*
X117114840Y-91884517D01*
X116993689Y-91591311D01*
X116690286Y-91287378D01*
X116293668Y-91122687D01*
X115864216Y-91122313D01*
X115612777Y-91226206D01*
X115420286Y-91033378D01*
X115023668Y-90868687D01*
X114594216Y-90868313D01*
X114197311Y-91032311D01*
X113893378Y-91335714D01*
X113728687Y-91732332D01*
X113728313Y-92161784D01*
X113892311Y-92558689D01*
X114046000Y-92712646D01*
X114046000Y-94742000D01*
X114104004Y-95033605D01*
X114222982Y-95211668D01*
X114269185Y-95280815D01*
X115352000Y-96363630D01*
X115352000Y-100889369D01*
X115020440Y-100557810D01*
X115020440Y-100139500D01*
X114976162Y-99904183D01*
X114934525Y-99839477D01*
X114969431Y-99788390D01*
X115020440Y-99536500D01*
X115020440Y-98139500D01*
X114976162Y-97904183D01*
X114964219Y-97885623D01*
X115125313Y-97497668D01*
X115125687Y-97068216D01*
X114961689Y-96671311D01*
X114658286Y-96367378D01*
X114261668Y-96202687D01*
X113832216Y-96202313D01*
X113598634Y-96298827D01*
X113437689Y-95909311D01*
X113134286Y-95605378D01*
X112737668Y-95440687D01*
X112308216Y-95440313D01*
X111911311Y-95604311D01*
X111607378Y-95907714D01*
X111442687Y-96304332D01*
X111442498Y-96521872D01*
X111021568Y-96942802D01*
X110937185Y-96999185D01*
X110337185Y-97599185D01*
X110172004Y-97846395D01*
X110114000Y-98138000D01*
X110114000Y-98822369D01*
X109637185Y-99299185D01*
X109472004Y-99546395D01*
X109414000Y-99838000D01*
X109414000Y-100522369D01*
X109400541Y-100535829D01*
X109288286Y-100423378D01*
X108891668Y-100258687D01*
X108538000Y-100258379D01*
X108538000Y-94723631D01*
X108742815Y-94518816D01*
X108907996Y-94271605D01*
X108915723Y-94232758D01*
X108966000Y-93980000D01*
X108966000Y-92712642D01*
X109118622Y-92560286D01*
X109283313Y-92163668D01*
X109283687Y-91734216D01*
X109119689Y-91337311D01*
X108816286Y-91033378D01*
X108419668Y-90868687D01*
X107990216Y-90868313D01*
X107593311Y-91032311D01*
X107289378Y-91335714D01*
X107166979Y-91630481D01*
X106974216Y-91630313D01*
X106577311Y-91794311D01*
X106375925Y-91995346D01*
X106037236Y-91656066D01*
X105524700Y-91443242D01*
X104969735Y-91442758D01*
X104456828Y-91654687D01*
X104064066Y-92046764D01*
X103976046Y-92258738D01*
X103889313Y-92048828D01*
X103497236Y-91656066D01*
X102984700Y-91443242D01*
X102429735Y-91442758D01*
X101916828Y-91654687D01*
X101524066Y-92046764D01*
X101311242Y-92559300D01*
X101310758Y-93114265D01*
X95885000Y-93114265D01*
X95885000Y-89438631D01*
X95923631Y-89400000D01*
X125114000Y-89400000D01*
X125114000Y-102673358D01*
X124961378Y-102825714D01*
X124796687Y-103222332D01*
X124796313Y-103651784D01*
X124960311Y-104048689D01*
X125263714Y-104352622D01*
X125293277Y-104364898D01*
X125172004Y-104546395D01*
X125114000Y-104838000D01*
X125114000Y-107773184D01*
X125061378Y-107825714D01*
X124896687Y-108222332D01*
X124896313Y-108651784D01*
X125060311Y-109048689D01*
X125363714Y-109352622D01*
X125760332Y-109517313D01*
X126189784Y-109517687D01*
X126586689Y-109353689D01*
X126890622Y-109050286D01*
X127055313Y-108653668D01*
X127055368Y-108590588D01*
X127386689Y-108453689D01*
X127540646Y-108300000D01*
X135611358Y-108300000D01*
X135763714Y-108452622D01*
X136160332Y-108617313D01*
X136589784Y-108617687D01*
X136986689Y-108453689D01*
X137290622Y-108150286D01*
X137455313Y-107753668D01*
X137455687Y-107324216D01*
X137291689Y-106927311D01*
X136988286Y-106623378D01*
X136591668Y-106458687D01*
X136162216Y-106458313D01*
X135765311Y-106622311D01*
X135611354Y-106776000D01*
X128655381Y-106776000D01*
X128655687Y-106424216D01*
X128528921Y-106117419D01*
X128763714Y-106352622D01*
X129160332Y-106517313D01*
X129589784Y-106517687D01*
X129986689Y-106353689D01*
X130290622Y-106050286D01*
X130455313Y-105653668D01*
X130455687Y-105224216D01*
X130291689Y-104827311D01*
X130138000Y-104673354D01*
X130138000Y-100917381D01*
X130489784Y-100917687D01*
X130886689Y-100753689D01*
X131040646Y-100600000D01*
X132160370Y-100600000D01*
X135296501Y-103736131D01*
X135296313Y-103951784D01*
X135460311Y-104348689D01*
X135763714Y-104652622D01*
X136160332Y-104817313D01*
X136589784Y-104817687D01*
X136986689Y-104653689D01*
X137290622Y-104350286D01*
X137455313Y-103953668D01*
X137455687Y-103524216D01*
X137291689Y-103127311D01*
X136988286Y-102823378D01*
X136591668Y-102658687D01*
X136374128Y-102658498D01*
X133014815Y-99299185D01*
X132904858Y-99225714D01*
X132767605Y-99134004D01*
X132476000Y-99076000D01*
X131040642Y-99076000D01*
X130888286Y-98923378D01*
X130491668Y-98758687D01*
X130138000Y-98758379D01*
X130138000Y-93114265D01*
X137310758Y-93114265D01*
X137522687Y-93627172D01*
X137914764Y-94019934D01*
X138427300Y-94232758D01*
X138982265Y-94233242D01*
X139495172Y-94021313D01*
X139887934Y-93629236D01*
X139975954Y-93417262D01*
X140062687Y-93627172D01*
X140454764Y-94019934D01*
X140509815Y-94042793D01*
X140456828Y-94064687D01*
X140064066Y-94456764D01*
X139851242Y-94969300D01*
X139850758Y-95524265D01*
X140062687Y-96037172D01*
X140454764Y-96429934D01*
X140967300Y-96642758D01*
X141522265Y-96643242D01*
X141551523Y-96631153D01*
X141814000Y-96893630D01*
X141814000Y-98563370D01*
X141524700Y-98443242D01*
X140969735Y-98442758D01*
X140456828Y-98654687D01*
X140064066Y-99046764D01*
X139976046Y-99258738D01*
X139889313Y-99048828D01*
X139497236Y-98656066D01*
X138984700Y-98443242D01*
X138429735Y-98442758D01*
X137916828Y-98654687D01*
X137524066Y-99046764D01*
X137311242Y-99559300D01*
X137310758Y-100114265D01*
X137522687Y-100627172D01*
X137914764Y-101019934D01*
X138427300Y-101232758D01*
X138982265Y-101233242D01*
X139495172Y-101021313D01*
X139887934Y-100629236D01*
X139975954Y-100417262D01*
X140062687Y-100627172D01*
X140454764Y-101019934D01*
X140509815Y-101042793D01*
X140456828Y-101064687D01*
X140064066Y-101456764D01*
X139851242Y-101969300D01*
X139850758Y-102524265D01*
X140062687Y-103037172D01*
X140454764Y-103429934D01*
X140614000Y-103496055D01*
X140614000Y-107138000D01*
X140672004Y-107429605D01*
X140785314Y-107599185D01*
X140837185Y-107676815D01*
X142448369Y-109288000D01*
X142237185Y-109499185D01*
X142094219Y-109713148D01*
X142037236Y-109656066D01*
X141524700Y-109443242D01*
X140969735Y-109442758D01*
X140456828Y-109654687D01*
X140064066Y-110046764D01*
X139976046Y-110258738D01*
X139889313Y-110048828D01*
X139497236Y-109656066D01*
X138984700Y-109443242D01*
X138429735Y-109442758D01*
X137916828Y-109654687D01*
X137524066Y-110046764D01*
X137311242Y-110559300D01*
X137310758Y-111114265D01*
X137522687Y-111627172D01*
X137914764Y-112019934D01*
X138427300Y-112232758D01*
X138982265Y-112233242D01*
X139495172Y-112021313D01*
X139887934Y-111629236D01*
X139975954Y-111417262D01*
X140062687Y-111627172D01*
X140454764Y-112019934D01*
X140509815Y-112042793D01*
X140456828Y-112064687D01*
X140064066Y-112456764D01*
X139851242Y-112969300D01*
X139850758Y-113524265D01*
X140062687Y-114037172D01*
X140454764Y-114429934D01*
X140967300Y-114642758D01*
X141522265Y-114643242D01*
X142035172Y-114431313D01*
X142427934Y-114039236D01*
X142614000Y-113591140D01*
X142614000Y-117495804D01*
X142429313Y-117048828D01*
X142037236Y-116656066D01*
X141524700Y-116443242D01*
X140969735Y-116442758D01*
X140456828Y-116654687D01*
X140064066Y-117046764D01*
X139976046Y-117258738D01*
X139889313Y-117048828D01*
X139497236Y-116656066D01*
X138984700Y-116443242D01*
X138429735Y-116442758D01*
X137916828Y-116654687D01*
X137524066Y-117046764D01*
X137311242Y-117559300D01*
X137310758Y-118114265D01*
X137522687Y-118627172D01*
X137914764Y-119019934D01*
X138427300Y-119232758D01*
X138982265Y-119233242D01*
X139495172Y-119021313D01*
X139887934Y-118629236D01*
X139975954Y-118417262D01*
X140062687Y-118627172D01*
X140454764Y-119019934D01*
X140509815Y-119042793D01*
X140456828Y-119064687D01*
X140064066Y-119456764D01*
X139851242Y-119969300D01*
X139850758Y-120524265D01*
X140062687Y-121037172D01*
X140454764Y-121429934D01*
X140967300Y-121642758D01*
X141522265Y-121643242D01*
X142035172Y-121431313D01*
X142427934Y-121039236D01*
X142640758Y-120526700D01*
X142641242Y-119971735D01*
X142629153Y-119942477D01*
X143214000Y-119357630D01*
X143214000Y-128202370D01*
X142641056Y-128775314D01*
X142641242Y-128561735D01*
X142429313Y-128048828D01*
X142037236Y-127656066D01*
X141524700Y-127443242D01*
X140969735Y-127442758D01*
X140456828Y-127654687D01*
X140064066Y-128046764D01*
X139976046Y-128258738D01*
X139889313Y-128048828D01*
X139497236Y-127656066D01*
X138984700Y-127443242D01*
X138429735Y-127442758D01*
X137916828Y-127654687D01*
X137524066Y-128046764D01*
X137311242Y-128559300D01*
X137310758Y-129114265D01*
X137522687Y-129627172D01*
X137914764Y-130019934D01*
X138427300Y-130232758D01*
X138982265Y-130233242D01*
X139495172Y-130021313D01*
X139887934Y-129629236D01*
X139975954Y-129417262D01*
X140062687Y-129627172D01*
X140454764Y-130019934D01*
X140509815Y-130042793D01*
X140456828Y-130064687D01*
X140064066Y-130456764D01*
X139851242Y-130969300D01*
X139850758Y-131524265D01*
X140062687Y-132037172D01*
X140454764Y-132429934D01*
X140967300Y-132642758D01*
X141522265Y-132643242D01*
X142035172Y-132431313D01*
X142427934Y-132039236D01*
X142640758Y-131526700D01*
X142641242Y-130971735D01*
X142629153Y-130942477D01*
X143814000Y-129757630D01*
X143814000Y-134602370D01*
X142641056Y-135775314D01*
X142641242Y-135561735D01*
X142429313Y-135048828D01*
X142037236Y-134656066D01*
X141524700Y-134443242D01*
X140969735Y-134442758D01*
X140456828Y-134654687D01*
X140064066Y-135046764D01*
X139976046Y-135258738D01*
X139889313Y-135048828D01*
X139497236Y-134656066D01*
X138984700Y-134443242D01*
X138429735Y-134442758D01*
X137916828Y-134654687D01*
X137524066Y-135046764D01*
X137311242Y-135559300D01*
X137310758Y-136114265D01*
X137522687Y-136627172D01*
X137914764Y-137019934D01*
X138427300Y-137232758D01*
X138982265Y-137233242D01*
X139495172Y-137021313D01*
X139887934Y-136629236D01*
X139975954Y-136417262D01*
X140062687Y-136627172D01*
X140454764Y-137019934D01*
X140509815Y-137042793D01*
X140456828Y-137064687D01*
X140064066Y-137456764D01*
X139851242Y-137969300D01*
X139850758Y-138524265D01*
X140062687Y-139037172D01*
X140454764Y-139429934D01*
X140967300Y-139642758D01*
X141522265Y-139643242D01*
X142035172Y-139431313D01*
X142427934Y-139039236D01*
X142640758Y-138526700D01*
X142641242Y-137971735D01*
X142629153Y-137942477D01*
X145114815Y-135456815D01*
X145279996Y-135209605D01*
X145338000Y-134918000D01*
X145338000Y-116717381D01*
X145689784Y-116717687D01*
X146086689Y-116553689D01*
X146240646Y-116400000D01*
X152411358Y-116400000D01*
X152563714Y-116552622D01*
X152960332Y-116717313D01*
X153389784Y-116717687D01*
X153414000Y-116707681D01*
X153414000Y-131338000D01*
X153472004Y-131629605D01*
X153577049Y-131786815D01*
X153637185Y-131876815D01*
X156269384Y-134509014D01*
X155916828Y-134654687D01*
X155524066Y-135046764D01*
X155311242Y-135559300D01*
X155310758Y-136114265D01*
X155522687Y-136627172D01*
X155914764Y-137019934D01*
X156427300Y-137232758D01*
X156982265Y-137233242D01*
X157169291Y-137155964D01*
X157172004Y-137169605D01*
X157337185Y-137416815D01*
X157862517Y-137942147D01*
X157851242Y-137969300D01*
X157850758Y-138524265D01*
X158062687Y-139037172D01*
X158454764Y-139429934D01*
X158967300Y-139642758D01*
X159522265Y-139643242D01*
X160035172Y-139431313D01*
X160427934Y-139039236D01*
X160640758Y-138526700D01*
X160641242Y-137971735D01*
X160429313Y-137458828D01*
X160037236Y-137066066D01*
X159982185Y-137043207D01*
X160035172Y-137021313D01*
X160427934Y-136629236D01*
X160640758Y-136116700D01*
X160641242Y-135561735D01*
X160429313Y-135048828D01*
X160037236Y-134656066D01*
X159524700Y-134443242D01*
X158969735Y-134442758D01*
X158505328Y-134634647D01*
X158414815Y-134499185D01*
X154938000Y-131022370D01*
X154938000Y-126077630D01*
X156340145Y-127479776D01*
X155916828Y-127654687D01*
X155524066Y-128046764D01*
X155311242Y-128559300D01*
X155310758Y-129114265D01*
X155522687Y-129627172D01*
X155914764Y-130019934D01*
X156427300Y-130232758D01*
X156982265Y-130233242D01*
X157243315Y-130125378D01*
X157272004Y-130269605D01*
X157397060Y-130456764D01*
X157437185Y-130516815D01*
X157862517Y-130942147D01*
X157851242Y-130969300D01*
X157850758Y-131524265D01*
X158062687Y-132037172D01*
X158454764Y-132429934D01*
X158967300Y-132642758D01*
X159522265Y-132643242D01*
X160035172Y-132431313D01*
X160427934Y-132039236D01*
X160640758Y-131526700D01*
X160641242Y-130971735D01*
X160429313Y-130458828D01*
X160037236Y-130066066D01*
X159982185Y-130043207D01*
X160035172Y-130021313D01*
X160427934Y-129629236D01*
X160640758Y-129116700D01*
X160641242Y-128561735D01*
X160429313Y-128048828D01*
X160037236Y-127656066D01*
X159524700Y-127443242D01*
X158969735Y-127442758D01*
X158583693Y-127602267D01*
X158514815Y-127499184D01*
X155538000Y-124522370D01*
X155538000Y-118642512D01*
X155914764Y-119019934D01*
X156427300Y-119232758D01*
X156982265Y-119233242D01*
X157243315Y-119125378D01*
X157272004Y-119269605D01*
X157397060Y-119456764D01*
X157437185Y-119516815D01*
X157862517Y-119942147D01*
X157851242Y-119969300D01*
X157850758Y-120524265D01*
X158062687Y-121037172D01*
X158454764Y-121429934D01*
X158967300Y-121642758D01*
X159522265Y-121643242D01*
X160035172Y-121431313D01*
X160427934Y-121039236D01*
X160640758Y-120526700D01*
X160641242Y-119971735D01*
X160429313Y-119458828D01*
X160037236Y-119066066D01*
X159982185Y-119043207D01*
X160035172Y-119021313D01*
X160427934Y-118629236D01*
X160640758Y-118116700D01*
X160641242Y-117561735D01*
X160429313Y-117048828D01*
X160037236Y-116656066D01*
X159524700Y-116443242D01*
X158969735Y-116442758D01*
X158682952Y-116561255D01*
X158679996Y-116546395D01*
X158547893Y-116348689D01*
X158514815Y-116299184D01*
X156138000Y-113922370D01*
X156138000Y-112112630D01*
X156427300Y-112232758D01*
X156982265Y-112233242D01*
X157243315Y-112125378D01*
X157272004Y-112269605D01*
X157385785Y-112439890D01*
X157437185Y-112516815D01*
X157862517Y-112942147D01*
X157851242Y-112969300D01*
X157850758Y-113524265D01*
X158062687Y-114037172D01*
X158454764Y-114429934D01*
X158967300Y-114642758D01*
X159522265Y-114643242D01*
X160035172Y-114431313D01*
X160427934Y-114039236D01*
X160640758Y-113526700D01*
X160641242Y-112971735D01*
X160429313Y-112458828D01*
X160037236Y-112066066D01*
X159982185Y-112043207D01*
X160035172Y-112021313D01*
X160427934Y-111629236D01*
X160640758Y-111116700D01*
X160641242Y-110561735D01*
X160429313Y-110048828D01*
X160037236Y-109656066D01*
X159524700Y-109443242D01*
X158969735Y-109442758D01*
X158519393Y-109628836D01*
X158514815Y-109621985D01*
X158438738Y-109545908D01*
X158465815Y-109527815D01*
X160114815Y-107878815D01*
X160279996Y-107631605D01*
X160295494Y-107553689D01*
X160338000Y-107340000D01*
X160338000Y-103129013D01*
X160427934Y-103039236D01*
X160640758Y-102526700D01*
X160641242Y-101971735D01*
X160429313Y-101458828D01*
X160037236Y-101066066D01*
X159982185Y-101043207D01*
X160035172Y-101021313D01*
X160427934Y-100629236D01*
X160640758Y-100116700D01*
X160641242Y-99561735D01*
X160429313Y-99048828D01*
X160037236Y-98656066D01*
X159524700Y-98443242D01*
X158969735Y-98442758D01*
X158750000Y-98533551D01*
X158750000Y-96821630D01*
X158940147Y-96631483D01*
X158967300Y-96642758D01*
X159522265Y-96643242D01*
X160035172Y-96431313D01*
X160427934Y-96039236D01*
X160640758Y-95526700D01*
X160641242Y-94971735D01*
X160429313Y-94458828D01*
X160037236Y-94066066D01*
X159982185Y-94043207D01*
X160035172Y-94021313D01*
X160427934Y-93629236D01*
X160640758Y-93116700D01*
X160641242Y-92561735D01*
X160429313Y-92048828D01*
X160037236Y-91656066D01*
X159524700Y-91443242D01*
X158969735Y-91442758D01*
X158456828Y-91654687D01*
X158064066Y-92046764D01*
X157976046Y-92258738D01*
X157889313Y-92048828D01*
X157497236Y-91656066D01*
X156984700Y-91443242D01*
X156429735Y-91442758D01*
X155916828Y-91654687D01*
X155524066Y-92046764D01*
X155311242Y-92559300D01*
X155310758Y-93114265D01*
X155522687Y-93627172D01*
X155914764Y-94019934D01*
X156427300Y-94232758D01*
X156982265Y-94233242D01*
X157495172Y-94021313D01*
X157887934Y-93629236D01*
X157975954Y-93417262D01*
X158062687Y-93627172D01*
X158454764Y-94019934D01*
X158509815Y-94042793D01*
X158456828Y-94064687D01*
X158064066Y-94456764D01*
X157851242Y-94969300D01*
X157850758Y-95524265D01*
X157862847Y-95553523D01*
X157449185Y-95967185D01*
X157284004Y-96214395D01*
X157226000Y-96506000D01*
X157226000Y-98543439D01*
X156984700Y-98443242D01*
X156429735Y-98442758D01*
X155916828Y-98654687D01*
X155524066Y-99046764D01*
X155311242Y-99559300D01*
X155310758Y-100114265D01*
X155522687Y-100627172D01*
X155914764Y-101019934D01*
X156427300Y-101232758D01*
X156982265Y-101233242D01*
X157226000Y-101132533D01*
X157226000Y-103785946D01*
X157176000Y-103776000D01*
X156991630Y-103776000D01*
X156955603Y-103739973D01*
X156895779Y-103700000D01*
X156708393Y-103574792D01*
X156416788Y-103516788D01*
X156332418Y-103516788D01*
X156084458Y-103268828D01*
X156079996Y-103246395D01*
X155914815Y-102999185D01*
X155538000Y-102622370D01*
X155538000Y-101944000D01*
X155479996Y-101652395D01*
X155314815Y-101405185D01*
X153670000Y-99760370D01*
X153670000Y-96329501D01*
X153883784Y-96329687D01*
X154280689Y-96165689D01*
X154584622Y-95862286D01*
X154749313Y-95465668D01*
X154749687Y-95036216D01*
X154585689Y-94639311D01*
X154282286Y-94335378D01*
X153885668Y-94170687D01*
X153456216Y-94170313D01*
X153204777Y-94274206D01*
X153012286Y-94081378D01*
X152615668Y-93916687D01*
X152420840Y-93916517D01*
X152299689Y-93623311D01*
X151996286Y-93319378D01*
X151599668Y-93154687D01*
X151170216Y-93154313D01*
X150773311Y-93318311D01*
X150469378Y-93621714D01*
X150304687Y-94018332D01*
X150304313Y-94447784D01*
X150468311Y-94844689D01*
X150622000Y-94998646D01*
X150622000Y-96263354D01*
X150472286Y-96113378D01*
X150075668Y-95948687D01*
X149880840Y-95948517D01*
X149759689Y-95655311D01*
X149456286Y-95351378D01*
X149059668Y-95186687D01*
X148630216Y-95186313D01*
X148233311Y-95350311D01*
X147929378Y-95653714D01*
X147764687Y-96050332D01*
X147764498Y-96267872D01*
X147201835Y-96830535D01*
X147194450Y-96832004D01*
X147184395Y-96834004D01*
X146937185Y-96999185D01*
X146337185Y-97599185D01*
X146172004Y-97846395D01*
X146114000Y-98138000D01*
X146114000Y-98822369D01*
X145637185Y-99299185D01*
X145472004Y-99546395D01*
X145414000Y-99838000D01*
X145414000Y-100522369D01*
X145400541Y-100535829D01*
X145288286Y-100423378D01*
X144891668Y-100258687D01*
X144526000Y-100258369D01*
X144526000Y-95565630D01*
X145064816Y-95026815D01*
X145186508Y-94844689D01*
X145229996Y-94779605D01*
X145288000Y-94488000D01*
X145288000Y-93474642D01*
X145440622Y-93322286D01*
X145605313Y-92925668D01*
X145605687Y-92496216D01*
X145441689Y-92099311D01*
X145138286Y-91795378D01*
X144741668Y-91630687D01*
X144312216Y-91630313D01*
X143915311Y-91794311D01*
X143891224Y-91818356D01*
X143868286Y-91795378D01*
X143471668Y-91630687D01*
X143042216Y-91630313D01*
X142645311Y-91794311D01*
X142409865Y-92029346D01*
X142037236Y-91656066D01*
X141524700Y-91443242D01*
X140969735Y-91442758D01*
X140456828Y-91654687D01*
X140064066Y-92046764D01*
X139976046Y-92258738D01*
X139889313Y-92048828D01*
X139497236Y-91656066D01*
X138984700Y-91443242D01*
X138429735Y-91442758D01*
X137916828Y-91654687D01*
X137524066Y-92046764D01*
X137311242Y-92559300D01*
X137310758Y-93114265D01*
X130138000Y-93114265D01*
X130138000Y-92473807D01*
X130186689Y-92453689D01*
X130490622Y-92150286D01*
X130655313Y-91753668D01*
X130655687Y-91324216D01*
X130491689Y-90927311D01*
X130188286Y-90623378D01*
X129791668Y-90458687D01*
X129587218Y-90458509D01*
X129491689Y-90227311D01*
X129188286Y-89923378D01*
X128791668Y-89758687D01*
X128732994Y-89758636D01*
X129091630Y-89400000D01*
X161114000Y-89400000D01*
X161114000Y-102673358D01*
X160961378Y-102825714D01*
X160796687Y-103222332D01*
X160796313Y-103651784D01*
X160960311Y-104048689D01*
X161263714Y-104352622D01*
X161293277Y-104364898D01*
X161172004Y-104546395D01*
X161114000Y-104838000D01*
X161114000Y-107773184D01*
X161061378Y-107825714D01*
X160896687Y-108222332D01*
X160896313Y-108651784D01*
X161060311Y-109048689D01*
X161363714Y-109352622D01*
X161760332Y-109517313D01*
X162189784Y-109517687D01*
X162586689Y-109353689D01*
X162890622Y-109050286D01*
X163055313Y-108653668D01*
X163055368Y-108590588D01*
X163386689Y-108453689D01*
X163540646Y-108300000D01*
X171611358Y-108300000D01*
X171763714Y-108452622D01*
X172160332Y-108617313D01*
X172589784Y-108617687D01*
X172986689Y-108453689D01*
X173290622Y-108150286D01*
X173455313Y-107753668D01*
X173455687Y-107324216D01*
X173291689Y-106927311D01*
X172988286Y-106623378D01*
X172591668Y-106458687D01*
X172162216Y-106458313D01*
X171765311Y-106622311D01*
X171611354Y-106776000D01*
X164655381Y-106776000D01*
X164655687Y-106424216D01*
X164491689Y-106027311D01*
X164478016Y-106013614D01*
X165114816Y-105376815D01*
X165279997Y-105129604D01*
X165338000Y-104838000D01*
X165338000Y-100394692D01*
X165360311Y-100448689D01*
X165663714Y-100752622D01*
X166060332Y-100917313D01*
X166489784Y-100917687D01*
X166886689Y-100753689D01*
X167040646Y-100600000D01*
X168160370Y-100600000D01*
X171296501Y-103736131D01*
X171296313Y-103951784D01*
X171460311Y-104348689D01*
X171763714Y-104652622D01*
X172160332Y-104817313D01*
X172589784Y-104817687D01*
X172986689Y-104653689D01*
X173290622Y-104350286D01*
X173455313Y-103953668D01*
X173455687Y-103524216D01*
X173291689Y-103127311D01*
X172988286Y-102823378D01*
X172591668Y-102658687D01*
X172374128Y-102658498D01*
X169014815Y-99299185D01*
X168904858Y-99225714D01*
X168767605Y-99134004D01*
X168476000Y-99076000D01*
X167040642Y-99076000D01*
X166888286Y-98923378D01*
X166491668Y-98758687D01*
X166062216Y-98758313D01*
X165665311Y-98922311D01*
X165361378Y-99225714D01*
X165338000Y-99282014D01*
X165338000Y-93114265D01*
X173310758Y-93114265D01*
X173522687Y-93627172D01*
X173914764Y-94019934D01*
X174427300Y-94232758D01*
X174982265Y-94233242D01*
X175495172Y-94021313D01*
X175887934Y-93629236D01*
X175975954Y-93417262D01*
X176062687Y-93627172D01*
X176454764Y-94019934D01*
X176509815Y-94042793D01*
X176456828Y-94064687D01*
X176064066Y-94456764D01*
X175851242Y-94969300D01*
X175850758Y-95524265D01*
X176062687Y-96037172D01*
X176454764Y-96429934D01*
X176967300Y-96642758D01*
X177522265Y-96643242D01*
X177551523Y-96631153D01*
X177814000Y-96893630D01*
X177814000Y-98563370D01*
X177524700Y-98443242D01*
X176969735Y-98442758D01*
X176456828Y-98654687D01*
X176064066Y-99046764D01*
X175976046Y-99258738D01*
X175889313Y-99048828D01*
X175497236Y-98656066D01*
X174984700Y-98443242D01*
X174429735Y-98442758D01*
X173916828Y-98654687D01*
X173524066Y-99046764D01*
X173311242Y-99559300D01*
X173310758Y-100114265D01*
X173522687Y-100627172D01*
X173914764Y-101019934D01*
X174427300Y-101232758D01*
X174982265Y-101233242D01*
X175495172Y-101021313D01*
X175887934Y-100629236D01*
X175975954Y-100417262D01*
X176062687Y-100627172D01*
X176454764Y-101019934D01*
X176509815Y-101042793D01*
X176456828Y-101064687D01*
X176064066Y-101456764D01*
X175851242Y-101969300D01*
X175850758Y-102524265D01*
X176062687Y-103037172D01*
X176454764Y-103429934D01*
X176614000Y-103496055D01*
X176614000Y-107138000D01*
X176672004Y-107429605D01*
X176785314Y-107599185D01*
X176837185Y-107676815D01*
X178448369Y-109288000D01*
X178237185Y-109499185D01*
X178094219Y-109713148D01*
X178037236Y-109656066D01*
X177524700Y-109443242D01*
X176969735Y-109442758D01*
X176456828Y-109654687D01*
X176064066Y-110046764D01*
X175976046Y-110258738D01*
X175889313Y-110048828D01*
X175497236Y-109656066D01*
X174984700Y-109443242D01*
X174429735Y-109442758D01*
X173916828Y-109654687D01*
X173524066Y-110046764D01*
X173311242Y-110559300D01*
X173310758Y-111114265D01*
X173522687Y-111627172D01*
X173914764Y-112019934D01*
X174427300Y-112232758D01*
X174982265Y-112233242D01*
X175495172Y-112021313D01*
X175887934Y-111629236D01*
X175975954Y-111417262D01*
X176062687Y-111627172D01*
X176454764Y-112019934D01*
X176509815Y-112042793D01*
X176456828Y-112064687D01*
X176064066Y-112456764D01*
X175851242Y-112969300D01*
X175850758Y-113524265D01*
X176062687Y-114037172D01*
X176454764Y-114429934D01*
X176967300Y-114642758D01*
X177522265Y-114643242D01*
X178035172Y-114431313D01*
X178427934Y-114039236D01*
X178614000Y-113591140D01*
X178614000Y-117495804D01*
X178429313Y-117048828D01*
X178037236Y-116656066D01*
X177524700Y-116443242D01*
X176969735Y-116442758D01*
X176456828Y-116654687D01*
X176064066Y-117046764D01*
X175976046Y-117258738D01*
X175889313Y-117048828D01*
X175497236Y-116656066D01*
X174984700Y-116443242D01*
X174429735Y-116442758D01*
X173916828Y-116654687D01*
X173524066Y-117046764D01*
X173311242Y-117559300D01*
X173310758Y-118114265D01*
X173522687Y-118627172D01*
X173914764Y-119019934D01*
X174427300Y-119232758D01*
X174982265Y-119233242D01*
X175495172Y-119021313D01*
X175887934Y-118629236D01*
X175975954Y-118417262D01*
X176062687Y-118627172D01*
X176454764Y-119019934D01*
X176509815Y-119042793D01*
X176456828Y-119064687D01*
X176064066Y-119456764D01*
X175851242Y-119969300D01*
X175850758Y-120524265D01*
X176062687Y-121037172D01*
X176454764Y-121429934D01*
X176967300Y-121642758D01*
X177522265Y-121643242D01*
X178035172Y-121431313D01*
X178427934Y-121039236D01*
X178640758Y-120526700D01*
X178641242Y-119971735D01*
X178629153Y-119942477D01*
X179214000Y-119357630D01*
X179214000Y-128202370D01*
X178641056Y-128775314D01*
X178641242Y-128561735D01*
X178429313Y-128048828D01*
X178037236Y-127656066D01*
X177524700Y-127443242D01*
X176969735Y-127442758D01*
X176456828Y-127654687D01*
X176064066Y-128046764D01*
X175976046Y-128258738D01*
X175889313Y-128048828D01*
X175497236Y-127656066D01*
X174984700Y-127443242D01*
X174429735Y-127442758D01*
X173916828Y-127654687D01*
X173524066Y-128046764D01*
X173311242Y-128559300D01*
X173310758Y-129114265D01*
X173522687Y-129627172D01*
X173914764Y-130019934D01*
X174427300Y-130232758D01*
X174982265Y-130233242D01*
X175495172Y-130021313D01*
X175887934Y-129629236D01*
X175975954Y-129417262D01*
X176062687Y-129627172D01*
X176454764Y-130019934D01*
X176509815Y-130042793D01*
X176456828Y-130064687D01*
X176064066Y-130456764D01*
X175851242Y-130969300D01*
X175850758Y-131524265D01*
X176062687Y-132037172D01*
X176454764Y-132429934D01*
X176967300Y-132642758D01*
X177522265Y-132643242D01*
X178035172Y-132431313D01*
X178427934Y-132039236D01*
X178640758Y-131526700D01*
X178641242Y-130971735D01*
X178629153Y-130942477D01*
X179814000Y-129757630D01*
X179814000Y-134602370D01*
X178641056Y-135775314D01*
X178641242Y-135561735D01*
X178429313Y-135048828D01*
X178037236Y-134656066D01*
X177524700Y-134443242D01*
X176969735Y-134442758D01*
X176456828Y-134654687D01*
X176064066Y-135046764D01*
X175976046Y-135258738D01*
X175889313Y-135048828D01*
X175497236Y-134656066D01*
X174984700Y-134443242D01*
X174429735Y-134442758D01*
X173916828Y-134654687D01*
X173524066Y-135046764D01*
X173311242Y-135559300D01*
X173310758Y-136114265D01*
X173522687Y-136627172D01*
X173914764Y-137019934D01*
X174427300Y-137232758D01*
X174982265Y-137233242D01*
X175495172Y-137021313D01*
X175887934Y-136629236D01*
X175975954Y-136417262D01*
X176062687Y-136627172D01*
X176454764Y-137019934D01*
X176509815Y-137042793D01*
X176456828Y-137064687D01*
X176064066Y-137456764D01*
X175851242Y-137969300D01*
X175850758Y-138524265D01*
X176062687Y-139037172D01*
X176454764Y-139429934D01*
X176967300Y-139642758D01*
X177522265Y-139643242D01*
X178035172Y-139431313D01*
X178427934Y-139039236D01*
X178640758Y-138526700D01*
X178641242Y-137971735D01*
X178629153Y-137942477D01*
X181114815Y-135456815D01*
X181279996Y-135209605D01*
X181338000Y-134918000D01*
X181338000Y-116817381D01*
X181689784Y-116817687D01*
X182086689Y-116653689D01*
X182240646Y-116500000D01*
X188411358Y-116500000D01*
X188563714Y-116652622D01*
X188960332Y-116817313D01*
X189389784Y-116817687D01*
X189414000Y-116807681D01*
X189414000Y-131338000D01*
X189472004Y-131629605D01*
X189577049Y-131786815D01*
X189637185Y-131876815D01*
X192269384Y-134509014D01*
X191916828Y-134654687D01*
X191524066Y-135046764D01*
X191311242Y-135559300D01*
X191310758Y-136114265D01*
X191522687Y-136627172D01*
X191914764Y-137019934D01*
X192427300Y-137232758D01*
X192982265Y-137233242D01*
X193169291Y-137155964D01*
X193172004Y-137169605D01*
X193337185Y-137416815D01*
X193862517Y-137942147D01*
X193851242Y-137969300D01*
X193850758Y-138524265D01*
X194062687Y-139037172D01*
X194454764Y-139429934D01*
X194967300Y-139642758D01*
X195522265Y-139643242D01*
X196035172Y-139431313D01*
X196427934Y-139039236D01*
X196640758Y-138526700D01*
X196641242Y-137971735D01*
X196429313Y-137458828D01*
X196037236Y-137066066D01*
X195982185Y-137043207D01*
X196035172Y-137021313D01*
X196427934Y-136629236D01*
X196640758Y-136116700D01*
X196641242Y-135561735D01*
X196429313Y-135048828D01*
X196037236Y-134656066D01*
X195524700Y-134443242D01*
X194969735Y-134442758D01*
X194505328Y-134634647D01*
X194414815Y-134499185D01*
X190938000Y-131022370D01*
X190938000Y-126077630D01*
X192340145Y-127479776D01*
X191916828Y-127654687D01*
X191524066Y-128046764D01*
X191311242Y-128559300D01*
X191310758Y-129114265D01*
X191522687Y-129627172D01*
X191914764Y-130019934D01*
X192427300Y-130232758D01*
X192982265Y-130233242D01*
X193243315Y-130125378D01*
X193272004Y-130269605D01*
X193397060Y-130456764D01*
X193437185Y-130516815D01*
X193862517Y-130942147D01*
X193851242Y-130969300D01*
X193850758Y-131524265D01*
X194062687Y-132037172D01*
X194454764Y-132429934D01*
X194967300Y-132642758D01*
X195522265Y-132643242D01*
X196035172Y-132431313D01*
X196427934Y-132039236D01*
X196640758Y-131526700D01*
X196641242Y-130971735D01*
X196429313Y-130458828D01*
X196037236Y-130066066D01*
X195982185Y-130043207D01*
X196035172Y-130021313D01*
X196427934Y-129629236D01*
X196640758Y-129116700D01*
X196641242Y-128561735D01*
X196429313Y-128048828D01*
X196037236Y-127656066D01*
X195524700Y-127443242D01*
X194969735Y-127442758D01*
X194583693Y-127602267D01*
X194514815Y-127499184D01*
X191538000Y-124522370D01*
X191538000Y-118642512D01*
X191914764Y-119019934D01*
X192427300Y-119232758D01*
X192982265Y-119233242D01*
X193243315Y-119125378D01*
X193272004Y-119269605D01*
X193397060Y-119456764D01*
X193437185Y-119516815D01*
X193862517Y-119942147D01*
X193851242Y-119969300D01*
X193850758Y-120524265D01*
X194062687Y-121037172D01*
X194454764Y-121429934D01*
X194967300Y-121642758D01*
X195522265Y-121643242D01*
X196035172Y-121431313D01*
X196427934Y-121039236D01*
X196640758Y-120526700D01*
X196641242Y-119971735D01*
X196429313Y-119458828D01*
X196037236Y-119066066D01*
X195982185Y-119043207D01*
X196035172Y-119021313D01*
X196427934Y-118629236D01*
X196640758Y-118116700D01*
X196641242Y-117561735D01*
X196429313Y-117048828D01*
X196037236Y-116656066D01*
X195524700Y-116443242D01*
X194969735Y-116442758D01*
X194682952Y-116561255D01*
X194679996Y-116546395D01*
X194547893Y-116348689D01*
X194514815Y-116299184D01*
X192138000Y-113922370D01*
X192138000Y-112112630D01*
X192427300Y-112232758D01*
X192982265Y-112233242D01*
X193243315Y-112125378D01*
X193272004Y-112269605D01*
X193385785Y-112439890D01*
X193437185Y-112516815D01*
X193862517Y-112942147D01*
X193851242Y-112969300D01*
X193850758Y-113524265D01*
X194062687Y-114037172D01*
X194454764Y-114429934D01*
X194967300Y-114642758D01*
X195522265Y-114643242D01*
X196035172Y-114431313D01*
X196427934Y-114039236D01*
X196640758Y-113526700D01*
X196641242Y-112971735D01*
X196429313Y-112458828D01*
X196037236Y-112066066D01*
X195982185Y-112043207D01*
X196035172Y-112021313D01*
X196427934Y-111629236D01*
X196640758Y-111116700D01*
X196641242Y-110561735D01*
X196429313Y-110048828D01*
X196037236Y-109656066D01*
X195524700Y-109443242D01*
X194969735Y-109442758D01*
X194519393Y-109628836D01*
X194514815Y-109621985D01*
X194438738Y-109545908D01*
X194465815Y-109527815D01*
X196114815Y-107878815D01*
X196279996Y-107631605D01*
X196295494Y-107553689D01*
X196338000Y-107340000D01*
X196338000Y-103129013D01*
X196427934Y-103039236D01*
X196640758Y-102526700D01*
X196641242Y-101971735D01*
X196429313Y-101458828D01*
X196037236Y-101066066D01*
X195982185Y-101043207D01*
X196035172Y-101021313D01*
X196427934Y-100629236D01*
X196640758Y-100116700D01*
X196641242Y-99561735D01*
X196429313Y-99048828D01*
X196037236Y-98656066D01*
X195524700Y-98443242D01*
X194969735Y-98442758D01*
X194818000Y-98505454D01*
X194818000Y-96753630D01*
X194940147Y-96631483D01*
X194967300Y-96642758D01*
X195522265Y-96643242D01*
X196035172Y-96431313D01*
X196427934Y-96039236D01*
X196640758Y-95526700D01*
X196641242Y-94971735D01*
X196429313Y-94458828D01*
X196037236Y-94066066D01*
X195982185Y-94043207D01*
X196035172Y-94021313D01*
X196427934Y-93629236D01*
X196640758Y-93116700D01*
X196641242Y-92561735D01*
X196429313Y-92048828D01*
X196037236Y-91656066D01*
X195524700Y-91443242D01*
X194969735Y-91442758D01*
X194456828Y-91654687D01*
X194064066Y-92046764D01*
X193976046Y-92258738D01*
X193889313Y-92048828D01*
X193497236Y-91656066D01*
X192984700Y-91443242D01*
X192429735Y-91442758D01*
X191916828Y-91654687D01*
X191524066Y-92046764D01*
X191311242Y-92559300D01*
X191310758Y-93114265D01*
X191522687Y-93627172D01*
X191914764Y-94019934D01*
X192427300Y-94232758D01*
X192982265Y-94233242D01*
X193495172Y-94021313D01*
X193887934Y-93629236D01*
X193975954Y-93417262D01*
X194062687Y-93627172D01*
X194454764Y-94019934D01*
X194509815Y-94042793D01*
X194456828Y-94064687D01*
X194064066Y-94456764D01*
X193851242Y-94969300D01*
X193850758Y-95524265D01*
X193862847Y-95553523D01*
X193517185Y-95899185D01*
X193352004Y-96146395D01*
X193294000Y-96438000D01*
X193294000Y-98571675D01*
X192984700Y-98443242D01*
X192429735Y-98442758D01*
X191916828Y-98654687D01*
X191524066Y-99046764D01*
X191311242Y-99559300D01*
X191310758Y-100114265D01*
X191522687Y-100627172D01*
X191914764Y-101019934D01*
X192427300Y-101232758D01*
X192982265Y-101233242D01*
X193294000Y-101104436D01*
X193294000Y-103799472D01*
X193176000Y-103776000D01*
X192991630Y-103776000D01*
X192955603Y-103739973D01*
X192895779Y-103700000D01*
X192708393Y-103574792D01*
X192416788Y-103516788D01*
X192332418Y-103516788D01*
X192084458Y-103268828D01*
X192079996Y-103246395D01*
X191914815Y-102999185D01*
X191538000Y-102622370D01*
X191538000Y-102130000D01*
X191479996Y-101838395D01*
X191314815Y-101591185D01*
X189992000Y-100268370D01*
X189992000Y-94938119D01*
X190094689Y-94895689D01*
X190398622Y-94592286D01*
X190563313Y-94195668D01*
X190563687Y-93766216D01*
X190399689Y-93369311D01*
X190096286Y-93065378D01*
X189699668Y-92900687D01*
X189547556Y-92900555D01*
X189547687Y-92750216D01*
X189383689Y-92353311D01*
X189080286Y-92049378D01*
X188683668Y-91884687D01*
X188254216Y-91884313D01*
X187857311Y-92048311D01*
X187553378Y-92351714D01*
X187436593Y-92632962D01*
X187261499Y-92457869D01*
X187261687Y-92242216D01*
X187097689Y-91845311D01*
X186794286Y-91541378D01*
X186397668Y-91376687D01*
X185968216Y-91376313D01*
X185571311Y-91540311D01*
X185267378Y-91843714D01*
X185102687Y-92240332D01*
X185102313Y-92669784D01*
X185266311Y-93066689D01*
X185569714Y-93370622D01*
X185966332Y-93535313D01*
X186183872Y-93535502D01*
X186944000Y-94295631D01*
X186944000Y-96660082D01*
X186843689Y-96417311D01*
X186540286Y-96113378D01*
X186143668Y-95948687D01*
X185714216Y-95948313D01*
X185317311Y-96112311D01*
X185013378Y-96415714D01*
X184849447Y-96810501D01*
X184676000Y-96776000D01*
X183476000Y-96776000D01*
X183194450Y-96832004D01*
X183184395Y-96834004D01*
X182937185Y-96999185D01*
X182337185Y-97599185D01*
X182172004Y-97846395D01*
X182114000Y-98138000D01*
X182114000Y-98822369D01*
X181637185Y-99299185D01*
X181472004Y-99546395D01*
X181414000Y-99838000D01*
X181414000Y-100522369D01*
X181400541Y-100535829D01*
X181288286Y-100423378D01*
X180891668Y-100258687D01*
X180538000Y-100258379D01*
X180538000Y-93789673D01*
X180553784Y-93789687D01*
X180950689Y-93625689D01*
X181254622Y-93322286D01*
X181419313Y-92925668D01*
X181419687Y-92496216D01*
X181255689Y-92099311D01*
X180952286Y-91795378D01*
X180555668Y-91630687D01*
X180126216Y-91630313D01*
X179729311Y-91794311D01*
X179425378Y-92097714D01*
X179260687Y-92494332D01*
X179260498Y-92711872D01*
X179237185Y-92735185D01*
X179105981Y-92931545D01*
X179031668Y-92900687D01*
X178640947Y-92900347D01*
X178641242Y-92561735D01*
X178429313Y-92048828D01*
X178037236Y-91656066D01*
X177524700Y-91443242D01*
X176969735Y-91442758D01*
X176456828Y-91654687D01*
X176064066Y-92046764D01*
X175976046Y-92258738D01*
X175889313Y-92048828D01*
X175497236Y-91656066D01*
X174984700Y-91443242D01*
X174429735Y-91442758D01*
X173916828Y-91654687D01*
X173524066Y-92046764D01*
X173311242Y-92559300D01*
X173310758Y-93114265D01*
X165338000Y-93114265D01*
X165338000Y-91602642D01*
X165490622Y-91450286D01*
X165655313Y-91053668D01*
X165655687Y-90624216D01*
X165491689Y-90227311D01*
X165188286Y-89923378D01*
X164791668Y-89758687D01*
X164732994Y-89758636D01*
X165091630Y-89400000D01*
X197114000Y-89400000D01*
X197114000Y-102673358D01*
X196961378Y-102825714D01*
X196796687Y-103222332D01*
X196796313Y-103651784D01*
X196960311Y-104048689D01*
X197263714Y-104352622D01*
X197293277Y-104364898D01*
X197172004Y-104546395D01*
X197114000Y-104838000D01*
X197114000Y-107773184D01*
X197061378Y-107825714D01*
X196896687Y-108222332D01*
X196896313Y-108651784D01*
X197060311Y-109048689D01*
X197363714Y-109352622D01*
X197760332Y-109517313D01*
X198189784Y-109517687D01*
X198586689Y-109353689D01*
X198890622Y-109050286D01*
X199055313Y-108653668D01*
X199055368Y-108590588D01*
X199386689Y-108453689D01*
X199690622Y-108150286D01*
X199855313Y-107753668D01*
X199855368Y-107690588D01*
X200186689Y-107553689D01*
X200490622Y-107250286D01*
X200655313Y-106853668D01*
X200655687Y-106424216D01*
X200491689Y-106027311D01*
X200478016Y-106013614D01*
X201114816Y-105376815D01*
X201279997Y-105129604D01*
X201338000Y-104838000D01*
X201338000Y-88054000D01*
X201279996Y-87762395D01*
X201171487Y-87600000D01*
X201114816Y-87515185D01*
X199420815Y-85821185D01*
X199266815Y-85667185D01*
X199258027Y-85661313D01*
X199019605Y-85502004D01*
X198728000Y-85444000D01*
X196004467Y-85444000D01*
X196035172Y-85431313D01*
X196427934Y-85039236D01*
X196640758Y-84526700D01*
X196641242Y-83971735D01*
X196429313Y-83458828D01*
X196037236Y-83066066D01*
X195982185Y-83043207D01*
X196035172Y-83021313D01*
X196427934Y-82629236D01*
X196640758Y-82116700D01*
X196641242Y-81561735D01*
X196429313Y-81048828D01*
X196037236Y-80656066D01*
X195524700Y-80443242D01*
X194969735Y-80442758D01*
X194456828Y-80654687D01*
X194064066Y-81046764D01*
X193976046Y-81258738D01*
X193889313Y-81048828D01*
X193497236Y-80656066D01*
X192984700Y-80443242D01*
X192429735Y-80442758D01*
X191916828Y-80654687D01*
X191524066Y-81046764D01*
X191311242Y-81559300D01*
X191310758Y-82114265D01*
X191522687Y-82627172D01*
X191914764Y-83019934D01*
X192427300Y-83232758D01*
X192982265Y-83233242D01*
X193495172Y-83021313D01*
X193887934Y-82629236D01*
X193975954Y-82417262D01*
X194062687Y-82627172D01*
X194454764Y-83019934D01*
X194509815Y-83042793D01*
X194456828Y-83064687D01*
X194064066Y-83456764D01*
X193851242Y-83969300D01*
X193850758Y-84524265D01*
X194062687Y-85037172D01*
X194454764Y-85429934D01*
X194488639Y-85444000D01*
X187159630Y-85444000D01*
X187114818Y-85399188D01*
X187114816Y-85399185D01*
X186914817Y-85199187D01*
X186914815Y-85199184D01*
X186814815Y-85099185D01*
X186701362Y-85023378D01*
X186567605Y-84934004D01*
X186276000Y-84876000D01*
X185676000Y-84876000D01*
X185384395Y-84934004D01*
X185137185Y-85099185D01*
X184760370Y-85476000D01*
X177927021Y-85476000D01*
X178035172Y-85431313D01*
X178427934Y-85039236D01*
X178640758Y-84526700D01*
X178641242Y-83971735D01*
X178429313Y-83458828D01*
X178037236Y-83066066D01*
X177982185Y-83043207D01*
X178035172Y-83021313D01*
X178427934Y-82629236D01*
X178640758Y-82116700D01*
X178641242Y-81561735D01*
X178429313Y-81048828D01*
X178037236Y-80656066D01*
X177524700Y-80443242D01*
X176969735Y-80442758D01*
X176456828Y-80654687D01*
X176064066Y-81046764D01*
X175976046Y-81258738D01*
X175889313Y-81048828D01*
X175497236Y-80656066D01*
X174984700Y-80443242D01*
X174429735Y-80442758D01*
X173916828Y-80654687D01*
X173524066Y-81046764D01*
X173311242Y-81559300D01*
X173310758Y-82114265D01*
X173522687Y-82627172D01*
X173914764Y-83019934D01*
X174427300Y-83232758D01*
X174982265Y-83233242D01*
X175495172Y-83021313D01*
X175887934Y-82629236D01*
X175975954Y-82417262D01*
X176062687Y-82627172D01*
X176454764Y-83019934D01*
X176509815Y-83042793D01*
X176456828Y-83064687D01*
X176064066Y-83456764D01*
X175851242Y-83969300D01*
X175850758Y-84524265D01*
X176062687Y-85037172D01*
X176454764Y-85429934D01*
X176565703Y-85476000D01*
X165553126Y-85476000D01*
X165491689Y-85327311D01*
X165188286Y-85023378D01*
X164791668Y-84858687D01*
X164362216Y-84858313D01*
X163965311Y-85022311D01*
X163661378Y-85325714D01*
X163598973Y-85476000D01*
X159927021Y-85476000D01*
X160035172Y-85431313D01*
X160427934Y-85039236D01*
X160640758Y-84526700D01*
X160641242Y-83971735D01*
X160429313Y-83458828D01*
X160037236Y-83066066D01*
X159982185Y-83043207D01*
X160035172Y-83021313D01*
X160427934Y-82629236D01*
X160640758Y-82116700D01*
X160641242Y-81561735D01*
X160429313Y-81048828D01*
X160037236Y-80656066D01*
X159524700Y-80443242D01*
X158969735Y-80442758D01*
X158456828Y-80654687D01*
X158064066Y-81046764D01*
X157976046Y-81258738D01*
X157889313Y-81048828D01*
X157497236Y-80656066D01*
X156984700Y-80443242D01*
X156429735Y-80442758D01*
X155916828Y-80654687D01*
X155524066Y-81046764D01*
X155311242Y-81559300D01*
X155310758Y-82114265D01*
X155522687Y-82627172D01*
X155914764Y-83019934D01*
X156427300Y-83232758D01*
X156982265Y-83233242D01*
X157495172Y-83021313D01*
X157887934Y-82629236D01*
X157975954Y-82417262D01*
X158062687Y-82627172D01*
X158454764Y-83019934D01*
X158509815Y-83042793D01*
X158456828Y-83064687D01*
X158064066Y-83456764D01*
X157851242Y-83969300D01*
X157850758Y-84524265D01*
X158062687Y-85037172D01*
X158454764Y-85429934D01*
X158565703Y-85476000D01*
X151191630Y-85476000D01*
X151114818Y-85399188D01*
X151114816Y-85399185D01*
X150914817Y-85199187D01*
X150914815Y-85199184D01*
X150814815Y-85099185D01*
X150701362Y-85023378D01*
X150567605Y-84934004D01*
X150276000Y-84876000D01*
X149676000Y-84876000D01*
X149384395Y-84934004D01*
X149137185Y-85099185D01*
X148760370Y-85476000D01*
X141927021Y-85476000D01*
X142035172Y-85431313D01*
X142427934Y-85039236D01*
X142640758Y-84526700D01*
X142641242Y-83971735D01*
X142429313Y-83458828D01*
X142037236Y-83066066D01*
X141982185Y-83043207D01*
X142035172Y-83021313D01*
X142427934Y-82629236D01*
X142640758Y-82116700D01*
X142641242Y-81561735D01*
X142429313Y-81048828D01*
X142037236Y-80656066D01*
X141524700Y-80443242D01*
X140969735Y-80442758D01*
X140456828Y-80654687D01*
X140064066Y-81046764D01*
X139976046Y-81258738D01*
X139889313Y-81048828D01*
X139497236Y-80656066D01*
X138984700Y-80443242D01*
X138429735Y-80442758D01*
X137916828Y-80654687D01*
X137524066Y-81046764D01*
X137311242Y-81559300D01*
X137310758Y-82114265D01*
X137522687Y-82627172D01*
X137914764Y-83019934D01*
X138427300Y-83232758D01*
X138982265Y-83233242D01*
X139495172Y-83021313D01*
X139887934Y-82629236D01*
X139975954Y-82417262D01*
X140062687Y-82627172D01*
X140454764Y-83019934D01*
X140509815Y-83042793D01*
X140456828Y-83064687D01*
X140064066Y-83456764D01*
X139851242Y-83969300D01*
X139850758Y-84524265D01*
X140062687Y-85037172D01*
X140454764Y-85429934D01*
X140565703Y-85476000D01*
X130646040Y-85476000D01*
X130655313Y-85453668D01*
X130655687Y-85024216D01*
X130491689Y-84627311D01*
X130188286Y-84323378D01*
X129791668Y-84158687D01*
X129362216Y-84158313D01*
X129077392Y-84276000D01*
X128276000Y-84276000D01*
X127984395Y-84334004D01*
X127737185Y-84499185D01*
X127360370Y-84876000D01*
X124495716Y-84876000D01*
X124640758Y-84526700D01*
X124641242Y-83971735D01*
X124429313Y-83458828D01*
X124037236Y-83066066D01*
X123982185Y-83043207D01*
X124035172Y-83021313D01*
X124427934Y-82629236D01*
X124640758Y-82116700D01*
X124641242Y-81561735D01*
X124429313Y-81048828D01*
X124037236Y-80656066D01*
X123524700Y-80443242D01*
X122969735Y-80442758D01*
X122456828Y-80654687D01*
X122064066Y-81046764D01*
X121976046Y-81258738D01*
X121889313Y-81048828D01*
X121497236Y-80656066D01*
X120984700Y-80443242D01*
X120429735Y-80442758D01*
X119916828Y-80654687D01*
X119524066Y-81046764D01*
X119311242Y-81559300D01*
X119310758Y-82114265D01*
X119522687Y-82627172D01*
X119914764Y-83019934D01*
X120427300Y-83232758D01*
X120982265Y-83233242D01*
X121495172Y-83021313D01*
X121887934Y-82629236D01*
X121975954Y-82417262D01*
X122062687Y-82627172D01*
X122454764Y-83019934D01*
X122509815Y-83042793D01*
X122456828Y-83064687D01*
X122064066Y-83456764D01*
X121851242Y-83969300D01*
X121850758Y-84524265D01*
X121996092Y-84876000D01*
X115491630Y-84876000D01*
X115114815Y-84499185D01*
X114867605Y-84334004D01*
X114576000Y-84276000D01*
X113476000Y-84276000D01*
X113184395Y-84334004D01*
X112937185Y-84499185D01*
X112560370Y-84876000D01*
X107980787Y-84876000D01*
X108013313Y-84797668D01*
X108013687Y-84368216D01*
X107849689Y-83971311D01*
X107730371Y-83851784D01*
X117096313Y-83851784D01*
X117260311Y-84248689D01*
X117563714Y-84552622D01*
X117960332Y-84717313D01*
X118389784Y-84717687D01*
X118786689Y-84553689D01*
X119090622Y-84250286D01*
X119255313Y-83853668D01*
X119255687Y-83424216D01*
X119091689Y-83027311D01*
X118938000Y-82873354D01*
X118938000Y-81053630D01*
X120291631Y-79700000D01*
X121556000Y-79700000D01*
X121847605Y-79641996D01*
X122094815Y-79476815D01*
X122940147Y-78631483D01*
X122967300Y-78642758D01*
X123522265Y-78643242D01*
X124035172Y-78431313D01*
X124427934Y-78039236D01*
X124640758Y-77526700D01*
X124641242Y-76971735D01*
X124429313Y-76458828D01*
X124037236Y-76066066D01*
X123982185Y-76043207D01*
X124035172Y-76021313D01*
X124427934Y-75629236D01*
X124640758Y-75116700D01*
X124640760Y-75114265D01*
X137310758Y-75114265D01*
X137522687Y-75627172D01*
X137914764Y-76019934D01*
X138427300Y-76232758D01*
X138982265Y-76233242D01*
X139495172Y-76021313D01*
X139887934Y-75629236D01*
X139975954Y-75417262D01*
X140062687Y-75627172D01*
X140454764Y-76019934D01*
X140509815Y-76042793D01*
X140456828Y-76064687D01*
X140064066Y-76456764D01*
X139851242Y-76969300D01*
X139850758Y-77524265D01*
X140062687Y-78037172D01*
X140454764Y-78429934D01*
X140967300Y-78642758D01*
X141522265Y-78643242D01*
X141551523Y-78631153D01*
X143014000Y-80093631D01*
X143014000Y-82373358D01*
X142861378Y-82525714D01*
X142696687Y-82922332D01*
X142696313Y-83351784D01*
X142860311Y-83748689D01*
X143163714Y-84052622D01*
X143560332Y-84217313D01*
X143989784Y-84217687D01*
X144386689Y-84053689D01*
X144588946Y-83851784D01*
X153096313Y-83851784D01*
X153260311Y-84248689D01*
X153563714Y-84552622D01*
X153960332Y-84717313D01*
X154389784Y-84717687D01*
X154786689Y-84553689D01*
X155090622Y-84250286D01*
X155255313Y-83853668D01*
X155255687Y-83424216D01*
X155091689Y-83027311D01*
X154938000Y-82873354D01*
X154938000Y-81053630D01*
X156291631Y-79700000D01*
X157556000Y-79700000D01*
X157847605Y-79641996D01*
X158094815Y-79476815D01*
X158940147Y-78631483D01*
X158967300Y-78642758D01*
X159522265Y-78643242D01*
X160035172Y-78431313D01*
X160427934Y-78039236D01*
X160640758Y-77526700D01*
X160641242Y-76971735D01*
X160429313Y-76458828D01*
X160037236Y-76066066D01*
X159982185Y-76043207D01*
X160035172Y-76021313D01*
X160427934Y-75629236D01*
X160640758Y-75116700D01*
X160640760Y-75114265D01*
X173310758Y-75114265D01*
X173522687Y-75627172D01*
X173914764Y-76019934D01*
X174427300Y-76232758D01*
X174982265Y-76233242D01*
X175495172Y-76021313D01*
X175887934Y-75629236D01*
X175975954Y-75417262D01*
X176062687Y-75627172D01*
X176454764Y-76019934D01*
X176509815Y-76042793D01*
X176456828Y-76064687D01*
X176064066Y-76456764D01*
X175851242Y-76969300D01*
X175850758Y-77524265D01*
X176062687Y-78037172D01*
X176454764Y-78429934D01*
X176967300Y-78642758D01*
X177522265Y-78643242D01*
X177551523Y-78631153D01*
X179014000Y-80093631D01*
X179014000Y-82373358D01*
X178861378Y-82525714D01*
X178696687Y-82922332D01*
X178696313Y-83351784D01*
X178860311Y-83748689D01*
X179163714Y-84052622D01*
X179560332Y-84217313D01*
X179989784Y-84217687D01*
X180386689Y-84053689D01*
X180588946Y-83851784D01*
X189096313Y-83851784D01*
X189260311Y-84248689D01*
X189563714Y-84552622D01*
X189960332Y-84717313D01*
X190389784Y-84717687D01*
X190786689Y-84553689D01*
X191090622Y-84250286D01*
X191255313Y-83853668D01*
X191255687Y-83424216D01*
X191091689Y-83027311D01*
X190938000Y-82873354D01*
X190938000Y-81053630D01*
X192291631Y-79700000D01*
X193556000Y-79700000D01*
X193847605Y-79641996D01*
X194094815Y-79476815D01*
X194940147Y-78631483D01*
X194967300Y-78642758D01*
X195522265Y-78643242D01*
X196035172Y-78431313D01*
X196427934Y-78039236D01*
X196640758Y-77526700D01*
X196641242Y-76971735D01*
X196429313Y-76458828D01*
X196037236Y-76066066D01*
X195982185Y-76043207D01*
X196035172Y-76021313D01*
X196427934Y-75629236D01*
X196640758Y-75116700D01*
X196641242Y-74561735D01*
X196429313Y-74048828D01*
X196037236Y-73656066D01*
X195524700Y-73443242D01*
X194969735Y-73442758D01*
X194456828Y-73654687D01*
X194064066Y-74046764D01*
X193976046Y-74258738D01*
X193889313Y-74048828D01*
X193497236Y-73656066D01*
X192984700Y-73443242D01*
X192429735Y-73442758D01*
X191916828Y-73654687D01*
X191524066Y-74046764D01*
X191311242Y-74559300D01*
X191310758Y-75114265D01*
X191522687Y-75627172D01*
X191914764Y-76019934D01*
X192427300Y-76232758D01*
X192982265Y-76233242D01*
X193495172Y-76021313D01*
X193887934Y-75629236D01*
X193975954Y-75417262D01*
X194062687Y-75627172D01*
X194454764Y-76019934D01*
X194509815Y-76042793D01*
X194456828Y-76064687D01*
X194064066Y-76456764D01*
X193851242Y-76969300D01*
X193850758Y-77524265D01*
X193862847Y-77553523D01*
X193240370Y-78176000D01*
X191976000Y-78176000D01*
X191684395Y-78234004D01*
X191437184Y-78399185D01*
X189637185Y-80199185D01*
X189472004Y-80446395D01*
X189414000Y-80738000D01*
X189414000Y-82873358D01*
X189261378Y-83025714D01*
X189096687Y-83422332D01*
X189096313Y-83851784D01*
X180588946Y-83851784D01*
X180690622Y-83750286D01*
X180855313Y-83353668D01*
X180855687Y-82924216D01*
X180691689Y-82527311D01*
X180538000Y-82373354D01*
X180538000Y-79778000D01*
X180479996Y-79486395D01*
X180314815Y-79239184D01*
X178629483Y-77553853D01*
X178640758Y-77526700D01*
X178641242Y-76971735D01*
X178429313Y-76458828D01*
X178037236Y-76066066D01*
X177982185Y-76043207D01*
X178035172Y-76021313D01*
X178427934Y-75629236D01*
X178640758Y-75116700D01*
X178641242Y-74561735D01*
X178429313Y-74048828D01*
X178037236Y-73656066D01*
X177524700Y-73443242D01*
X176969735Y-73442758D01*
X176456828Y-73654687D01*
X176064066Y-74046764D01*
X175976046Y-74258738D01*
X175889313Y-74048828D01*
X175497236Y-73656066D01*
X174984700Y-73443242D01*
X174429735Y-73442758D01*
X173916828Y-73654687D01*
X173524066Y-74046764D01*
X173311242Y-74559300D01*
X173310758Y-75114265D01*
X160640760Y-75114265D01*
X160641242Y-74561735D01*
X160429313Y-74048828D01*
X160037236Y-73656066D01*
X159524700Y-73443242D01*
X158969735Y-73442758D01*
X158456828Y-73654687D01*
X158064066Y-74046764D01*
X157976046Y-74258738D01*
X157889313Y-74048828D01*
X157497236Y-73656066D01*
X156984700Y-73443242D01*
X156429735Y-73442758D01*
X155916828Y-73654687D01*
X155524066Y-74046764D01*
X155311242Y-74559300D01*
X155310758Y-75114265D01*
X155522687Y-75627172D01*
X155914764Y-76019934D01*
X156427300Y-76232758D01*
X156982265Y-76233242D01*
X157495172Y-76021313D01*
X157887934Y-75629236D01*
X157975954Y-75417262D01*
X158062687Y-75627172D01*
X158454764Y-76019934D01*
X158509815Y-76042793D01*
X158456828Y-76064687D01*
X158064066Y-76456764D01*
X157851242Y-76969300D01*
X157850758Y-77524265D01*
X157862847Y-77553523D01*
X157240370Y-78176000D01*
X155976000Y-78176000D01*
X155684395Y-78234004D01*
X155437184Y-78399185D01*
X153637185Y-80199185D01*
X153472004Y-80446395D01*
X153414000Y-80738000D01*
X153414000Y-82873358D01*
X153261378Y-83025714D01*
X153096687Y-83422332D01*
X153096313Y-83851784D01*
X144588946Y-83851784D01*
X144690622Y-83750286D01*
X144855313Y-83353668D01*
X144855687Y-82924216D01*
X144691689Y-82527311D01*
X144538000Y-82373354D01*
X144538000Y-79778000D01*
X144479996Y-79486395D01*
X144314815Y-79239184D01*
X142629483Y-77553853D01*
X142640758Y-77526700D01*
X142641242Y-76971735D01*
X142429313Y-76458828D01*
X142037236Y-76066066D01*
X141982185Y-76043207D01*
X142035172Y-76021313D01*
X142427934Y-75629236D01*
X142640758Y-75116700D01*
X142641242Y-74561735D01*
X142429313Y-74048828D01*
X142037236Y-73656066D01*
X141524700Y-73443242D01*
X140969735Y-73442758D01*
X140456828Y-73654687D01*
X140064066Y-74046764D01*
X139976046Y-74258738D01*
X139889313Y-74048828D01*
X139497236Y-73656066D01*
X138984700Y-73443242D01*
X138429735Y-73442758D01*
X137916828Y-73654687D01*
X137524066Y-74046764D01*
X137311242Y-74559300D01*
X137310758Y-75114265D01*
X124640760Y-75114265D01*
X124641242Y-74561735D01*
X124429313Y-74048828D01*
X124037236Y-73656066D01*
X123524700Y-73443242D01*
X122969735Y-73442758D01*
X122456828Y-73654687D01*
X122064066Y-74046764D01*
X121976046Y-74258738D01*
X121889313Y-74048828D01*
X121497236Y-73656066D01*
X120984700Y-73443242D01*
X120429735Y-73442758D01*
X119916828Y-73654687D01*
X119524066Y-74046764D01*
X119311242Y-74559300D01*
X119310758Y-75114265D01*
X119522687Y-75627172D01*
X119914764Y-76019934D01*
X120427300Y-76232758D01*
X120982265Y-76233242D01*
X121495172Y-76021313D01*
X121887934Y-75629236D01*
X121975954Y-75417262D01*
X122062687Y-75627172D01*
X122454764Y-76019934D01*
X122509815Y-76042793D01*
X122456828Y-76064687D01*
X122064066Y-76456764D01*
X121851242Y-76969300D01*
X121850758Y-77524265D01*
X121862847Y-77553523D01*
X121240370Y-78176000D01*
X119976000Y-78176000D01*
X119684395Y-78234004D01*
X119437184Y-78399185D01*
X117637185Y-80199185D01*
X117472004Y-80446395D01*
X117414000Y-80738000D01*
X117414000Y-82873358D01*
X117261378Y-83025714D01*
X117096687Y-83422332D01*
X117096313Y-83851784D01*
X107730371Y-83851784D01*
X107696000Y-83817354D01*
X107696000Y-78740000D01*
X107637996Y-78448395D01*
X107571834Y-78349377D01*
X107472816Y-78201185D01*
X106640895Y-77369265D01*
X106641242Y-76971735D01*
X106429313Y-76458828D01*
X106037236Y-76066066D01*
X105982185Y-76043207D01*
X106035172Y-76021313D01*
X106427934Y-75629236D01*
X106640758Y-75116700D01*
X106641242Y-74561735D01*
X106429313Y-74048828D01*
X106037236Y-73656066D01*
X105524700Y-73443242D01*
X104969735Y-73442758D01*
X104456828Y-73654687D01*
X104064066Y-74046764D01*
X103976046Y-74258738D01*
X103889313Y-74048828D01*
X103497236Y-73656066D01*
X102984700Y-73443242D01*
X102429735Y-73442758D01*
X101916828Y-73654687D01*
X101524066Y-74046764D01*
X101311242Y-74559300D01*
X101310758Y-75114265D01*
X101522687Y-75627172D01*
X101914764Y-76019934D01*
X102427300Y-76232758D01*
X102982265Y-76233242D01*
X103495172Y-76021313D01*
X103887934Y-75629236D01*
X103975954Y-75417262D01*
X104062687Y-75627172D01*
X104454764Y-76019934D01*
X104509815Y-76042793D01*
X104456828Y-76064687D01*
X104064066Y-76456764D01*
X103851242Y-76969300D01*
X103850758Y-77524265D01*
X104062687Y-78037172D01*
X104454764Y-78429934D01*
X104967300Y-78642758D01*
X105522265Y-78643242D01*
X105690216Y-78573846D01*
X106172000Y-79055631D01*
X106172000Y-80791065D01*
X106037236Y-80656066D01*
X105524700Y-80443242D01*
X104969735Y-80442758D01*
X104456828Y-80654687D01*
X104064066Y-81046764D01*
X103976046Y-81258738D01*
X103889313Y-81048828D01*
X103497236Y-80656066D01*
X102984700Y-80443242D01*
X102429735Y-80442758D01*
X101916828Y-80654687D01*
X101524066Y-81046764D01*
X101311242Y-81559300D01*
X101310758Y-82114265D01*
X101522687Y-82627172D01*
X101914764Y-83019934D01*
X102427300Y-83232758D01*
X102982265Y-83233242D01*
X103495172Y-83021313D01*
X103887934Y-82629236D01*
X103975954Y-82417262D01*
X104062687Y-82627172D01*
X104454764Y-83019934D01*
X104509815Y-83042793D01*
X104456828Y-83064687D01*
X104064066Y-83456764D01*
X103851242Y-83969300D01*
X103850758Y-84524265D01*
X103996092Y-84876000D01*
X95885000Y-84876000D01*
X95885000Y-69023000D01*
X207791000Y-69023000D01*
X207791000Y-141605000D01*
M02*
