G04 #@! TF.FileFunction,Legend,Top*
%FSLAX46Y46*%
G04 Gerber Fmt 4.6, Leading zero omitted, Abs format (unit mm)*
G04 Created by KiCad (PCBNEW 4.0.1-stable) date 6/7/2017 10:05:46 PM*
%MOMM*%
G01*
G04 APERTURE LIST*
%ADD10C,0.150000*%
%ADD11C,0.300000*%
%ADD12C,0.250000*%
%ADD13C,0.203200*%
%ADD14C,0.099060*%
%ADD15C,0.109220*%
G04 APERTURE END LIST*
D10*
D11*
X72884571Y-112823142D02*
X72884571Y-113537428D01*
X71384571Y-113537428D01*
X72884571Y-112323142D02*
X71384571Y-112323142D01*
X71384571Y-111751714D01*
X71456000Y-111608856D01*
X71527429Y-111537428D01*
X71670286Y-111465999D01*
X71884571Y-111465999D01*
X72027429Y-111537428D01*
X72098857Y-111608856D01*
X72170286Y-111751714D01*
X72170286Y-112323142D01*
X72456000Y-110894571D02*
X72456000Y-110180285D01*
X72884571Y-111037428D02*
X71384571Y-110537428D01*
X72884571Y-110037428D01*
X71884571Y-108537428D02*
X72884571Y-108180285D01*
X71884571Y-107823143D01*
X72884571Y-106466000D02*
X72884571Y-107323143D01*
X72884571Y-106894571D02*
X71384571Y-106894571D01*
X71598857Y-107037428D01*
X71741714Y-107180286D01*
X71813143Y-107323143D01*
X72741714Y-105823143D02*
X72813143Y-105751715D01*
X72884571Y-105823143D01*
X72813143Y-105894572D01*
X72741714Y-105823143D01*
X72884571Y-105823143D01*
X72884571Y-104323143D02*
X72884571Y-105180286D01*
X72884571Y-104751714D02*
X71384571Y-104751714D01*
X71598857Y-104894571D01*
X71741714Y-105037429D01*
X71813143Y-105180286D01*
X73784571Y-114430286D02*
X73784571Y-113573143D01*
X75284571Y-114001714D02*
X73784571Y-114001714D01*
X75284571Y-112430286D02*
X74498857Y-112430286D01*
X74356000Y-112501715D01*
X74284571Y-112644572D01*
X74284571Y-112930286D01*
X74356000Y-113073143D01*
X75213143Y-112430286D02*
X75284571Y-112573143D01*
X75284571Y-112930286D01*
X75213143Y-113073143D01*
X75070286Y-113144572D01*
X74927429Y-113144572D01*
X74784571Y-113073143D01*
X74713143Y-112930286D01*
X74713143Y-112573143D01*
X74641714Y-112430286D01*
X75284571Y-111716000D02*
X73784571Y-111716000D01*
X74356000Y-111716000D02*
X74284571Y-111573143D01*
X74284571Y-111287429D01*
X74356000Y-111144572D01*
X74427429Y-111073143D01*
X74570286Y-111001714D01*
X74998857Y-111001714D01*
X75141714Y-111073143D01*
X75213143Y-111144572D01*
X75284571Y-111287429D01*
X75284571Y-111573143D01*
X75213143Y-111716000D01*
X75284571Y-110144571D02*
X75213143Y-110287429D01*
X75141714Y-110358857D01*
X74998857Y-110430286D01*
X74570286Y-110430286D01*
X74427429Y-110358857D01*
X74356000Y-110287429D01*
X74284571Y-110144571D01*
X74284571Y-109930286D01*
X74356000Y-109787429D01*
X74427429Y-109716000D01*
X74570286Y-109644571D01*
X74998857Y-109644571D01*
X75141714Y-109716000D01*
X75213143Y-109787429D01*
X75284571Y-109930286D01*
X75284571Y-110144571D01*
X75284571Y-109001714D02*
X74284571Y-109001714D01*
X74570286Y-109001714D02*
X74427429Y-108930286D01*
X74356000Y-108858857D01*
X74284571Y-108716000D01*
X74284571Y-108573143D01*
X75284571Y-106216000D02*
X75284571Y-106930286D01*
X73784571Y-106930286D01*
X75284571Y-105073143D02*
X74498857Y-105073143D01*
X74356000Y-105144572D01*
X74284571Y-105287429D01*
X74284571Y-105573143D01*
X74356000Y-105716000D01*
X75213143Y-105073143D02*
X75284571Y-105216000D01*
X75284571Y-105573143D01*
X75213143Y-105716000D01*
X75070286Y-105787429D01*
X74927429Y-105787429D01*
X74784571Y-105716000D01*
X74713143Y-105573143D01*
X74713143Y-105216000D01*
X74641714Y-105073143D01*
X75284571Y-104358857D02*
X73784571Y-104358857D01*
X74356000Y-104358857D02*
X74284571Y-104216000D01*
X74284571Y-103930286D01*
X74356000Y-103787429D01*
X74427429Y-103716000D01*
X74570286Y-103644571D01*
X74998857Y-103644571D01*
X75141714Y-103716000D01*
X75213143Y-103787429D01*
X75284571Y-103930286D01*
X75284571Y-104216000D01*
X75213143Y-104358857D01*
X70866000Y-88927714D02*
X70937428Y-88999143D01*
X70866000Y-89070571D01*
X70794571Y-88999143D01*
X70866000Y-88927714D01*
X70866000Y-89070571D01*
D12*
X74382381Y-71961429D02*
X74382381Y-71770952D01*
X74430000Y-71675714D01*
X74525238Y-71580476D01*
X74715714Y-71532857D01*
X75049048Y-71532857D01*
X75239524Y-71580476D01*
X75334762Y-71675714D01*
X75382381Y-71770952D01*
X75382381Y-71961429D01*
X75334762Y-72056667D01*
X75239524Y-72151905D01*
X75049048Y-72199524D01*
X74715714Y-72199524D01*
X74525238Y-72151905D01*
X74430000Y-72056667D01*
X74382381Y-71961429D01*
X75382381Y-71104286D02*
X74382381Y-71104286D01*
X75382381Y-70532857D01*
X74382381Y-70532857D01*
X77398571Y-72151905D02*
X77398571Y-71818571D01*
X77922381Y-71675714D02*
X77922381Y-72151905D01*
X76922381Y-72151905D01*
X76922381Y-71675714D01*
X77922381Y-70675714D02*
X77446190Y-71009048D01*
X77922381Y-71247143D02*
X76922381Y-71247143D01*
X76922381Y-70866190D01*
X76970000Y-70770952D01*
X77017619Y-70723333D01*
X77112857Y-70675714D01*
X77255714Y-70675714D01*
X77350952Y-70723333D01*
X77398571Y-70770952D01*
X77446190Y-70866190D01*
X77446190Y-71247143D01*
X77922381Y-69675714D02*
X77446190Y-70009048D01*
X77922381Y-70247143D02*
X76922381Y-70247143D01*
X76922381Y-69866190D01*
X76970000Y-69770952D01*
X77017619Y-69723333D01*
X77112857Y-69675714D01*
X77255714Y-69675714D01*
X77350952Y-69723333D01*
X77398571Y-69770952D01*
X77446190Y-69866190D01*
X77446190Y-70247143D01*
X79938571Y-71818571D02*
X79938571Y-72151905D01*
X80462381Y-72151905D02*
X79462381Y-72151905D01*
X79462381Y-71675714D01*
X80462381Y-71294762D02*
X79462381Y-71294762D01*
X80462381Y-70818572D02*
X79462381Y-70818572D01*
X80462381Y-70247143D01*
X79462381Y-70247143D01*
D10*
X172926000Y-133298000D02*
X173426000Y-132798000D01*
X172926000Y-139018000D02*
X179026000Y-139018000D01*
X179026000Y-139018000D02*
X179026000Y-132798000D01*
X179026000Y-132798000D02*
X173426000Y-132798000D01*
X172926000Y-133298000D02*
X172926000Y-139018000D01*
X178476000Y-135838000D02*
G75*
G03X178476000Y-135838000I-2500000J0D01*
G01*
X136926000Y-72298000D02*
X137426000Y-71798000D01*
X136926000Y-78018000D02*
X143026000Y-78018000D01*
X143026000Y-78018000D02*
X143026000Y-71798000D01*
X143026000Y-71798000D02*
X137426000Y-71798000D01*
X136926000Y-72298000D02*
X136926000Y-78018000D01*
X142476000Y-74838000D02*
G75*
G03X142476000Y-74838000I-2500000J0D01*
G01*
X100926000Y-79298000D02*
X101426000Y-78798000D01*
X100926000Y-85018000D02*
X107026000Y-85018000D01*
X107026000Y-85018000D02*
X107026000Y-78798000D01*
X107026000Y-78798000D02*
X101426000Y-78798000D01*
X100926000Y-79298000D02*
X100926000Y-85018000D01*
X106476000Y-81838000D02*
G75*
G03X106476000Y-81838000I-2500000J0D01*
G01*
X71346714Y-74422000D02*
G75*
G03X71346714Y-74422000I-1750714J0D01*
G01*
X72821000Y-77647000D02*
X72696000Y-77647000D01*
X66371000Y-77647000D02*
X66496000Y-77647000D01*
X66371000Y-71197000D02*
X66496000Y-71197000D01*
X72696000Y-71197000D02*
X72821000Y-71197000D01*
X70996000Y-77647000D02*
X68196000Y-77647000D01*
X72821000Y-71197000D02*
X72821000Y-77647000D01*
X70996000Y-71197000D02*
X68196000Y-71197000D01*
X66371000Y-71197000D02*
X66371000Y-77647000D01*
D13*
X71882000Y-80264000D02*
X71882000Y-87884000D01*
X66802000Y-87884000D02*
X66802000Y-80264000D01*
X66802000Y-80264000D02*
X71882000Y-80264000D01*
X71882000Y-87884000D02*
X66802000Y-87884000D01*
D14*
X80899000Y-76073000D02*
G75*
G03X80899000Y-76073000I-127000J0D01*
G01*
X80772000Y-74930000D02*
X80772000Y-75946000D01*
X80772000Y-75946000D02*
X79248000Y-75946000D01*
X79248000Y-75946000D02*
X79248000Y-74930000D01*
X79248000Y-73914000D02*
X79248000Y-72898000D01*
X79248000Y-72898000D02*
X80772000Y-72898000D01*
X80772000Y-72898000D02*
X80772000Y-73914000D01*
X76835000Y-72771000D02*
G75*
G03X76835000Y-72771000I-127000J0D01*
G01*
X76708000Y-73914000D02*
X76708000Y-72898000D01*
X76708000Y-72898000D02*
X78232000Y-72898000D01*
X78232000Y-72898000D02*
X78232000Y-73914000D01*
X78232000Y-74930000D02*
X78232000Y-75946000D01*
X78232000Y-75946000D02*
X76708000Y-75946000D01*
X76708000Y-75946000D02*
X76708000Y-74930000D01*
X75819000Y-76073000D02*
G75*
G03X75819000Y-76073000I-127000J0D01*
G01*
X75692000Y-74930000D02*
X75692000Y-75946000D01*
X75692000Y-75946000D02*
X74168000Y-75946000D01*
X74168000Y-75946000D02*
X74168000Y-74930000D01*
X74168000Y-73914000D02*
X74168000Y-72898000D01*
X74168000Y-72898000D02*
X75692000Y-72898000D01*
X75692000Y-72898000D02*
X75692000Y-73914000D01*
D10*
X100926000Y-72298000D02*
X101426000Y-71798000D01*
X100926000Y-78018000D02*
X107026000Y-78018000D01*
X107026000Y-78018000D02*
X107026000Y-71798000D01*
X107026000Y-71798000D02*
X101426000Y-71798000D01*
X100926000Y-72298000D02*
X100926000Y-78018000D01*
X106476000Y-74838000D02*
G75*
G03X106476000Y-74838000I-2500000J0D01*
G01*
X136926000Y-90298000D02*
X137426000Y-89798000D01*
X136926000Y-96018000D02*
X143026000Y-96018000D01*
X143026000Y-96018000D02*
X143026000Y-89798000D01*
X143026000Y-89798000D02*
X137426000Y-89798000D01*
X136926000Y-90298000D02*
X136926000Y-96018000D01*
X142476000Y-92838000D02*
G75*
G03X142476000Y-92838000I-2500000J0D01*
G01*
X136926000Y-79298000D02*
X137426000Y-78798000D01*
X136926000Y-85018000D02*
X143026000Y-85018000D01*
X143026000Y-85018000D02*
X143026000Y-78798000D01*
X143026000Y-78798000D02*
X137426000Y-78798000D01*
X136926000Y-79298000D02*
X136926000Y-85018000D01*
X142476000Y-81838000D02*
G75*
G03X142476000Y-81838000I-2500000J0D01*
G01*
X100926000Y-133298000D02*
X101426000Y-132798000D01*
X100926000Y-139018000D02*
X107026000Y-139018000D01*
X107026000Y-139018000D02*
X107026000Y-132798000D01*
X107026000Y-132798000D02*
X101426000Y-132798000D01*
X100926000Y-133298000D02*
X100926000Y-139018000D01*
X106476000Y-135838000D02*
G75*
G03X106476000Y-135838000I-2500000J0D01*
G01*
X100926000Y-126298000D02*
X101426000Y-125798000D01*
X100926000Y-132018000D02*
X107026000Y-132018000D01*
X107026000Y-132018000D02*
X107026000Y-125798000D01*
X107026000Y-125798000D02*
X101426000Y-125798000D01*
X100926000Y-126298000D02*
X100926000Y-132018000D01*
X106476000Y-128838000D02*
G75*
G03X106476000Y-128838000I-2500000J0D01*
G01*
X100926000Y-115298000D02*
X101426000Y-114798000D01*
X100926000Y-121018000D02*
X107026000Y-121018000D01*
X107026000Y-121018000D02*
X107026000Y-114798000D01*
X107026000Y-114798000D02*
X101426000Y-114798000D01*
X100926000Y-115298000D02*
X100926000Y-121018000D01*
X106476000Y-117838000D02*
G75*
G03X106476000Y-117838000I-2500000J0D01*
G01*
X100926000Y-108298000D02*
X101426000Y-107798000D01*
X100926000Y-114018000D02*
X107026000Y-114018000D01*
X107026000Y-114018000D02*
X107026000Y-107798000D01*
X107026000Y-107798000D02*
X101426000Y-107798000D01*
X100926000Y-108298000D02*
X100926000Y-114018000D01*
X106476000Y-110838000D02*
G75*
G03X106476000Y-110838000I-2500000J0D01*
G01*
X100926000Y-97298000D02*
X101426000Y-96798000D01*
X100926000Y-103018000D02*
X107026000Y-103018000D01*
X107026000Y-103018000D02*
X107026000Y-96798000D01*
X107026000Y-96798000D02*
X101426000Y-96798000D01*
X100926000Y-97298000D02*
X100926000Y-103018000D01*
X106476000Y-99838000D02*
G75*
G03X106476000Y-99838000I-2500000J0D01*
G01*
X100926000Y-90298000D02*
X101426000Y-89798000D01*
X100926000Y-96018000D02*
X107026000Y-96018000D01*
X107026000Y-96018000D02*
X107026000Y-89798000D01*
X107026000Y-89798000D02*
X101426000Y-89798000D01*
X100926000Y-90298000D02*
X100926000Y-96018000D01*
X106476000Y-92838000D02*
G75*
G03X106476000Y-92838000I-2500000J0D01*
G01*
X172926000Y-72298000D02*
X173426000Y-71798000D01*
X172926000Y-78018000D02*
X179026000Y-78018000D01*
X179026000Y-78018000D02*
X179026000Y-71798000D01*
X179026000Y-71798000D02*
X173426000Y-71798000D01*
X172926000Y-72298000D02*
X172926000Y-78018000D01*
X178476000Y-74838000D02*
G75*
G03X178476000Y-74838000I-2500000J0D01*
G01*
X136926000Y-97298000D02*
X137426000Y-96798000D01*
X136926000Y-103018000D02*
X143026000Y-103018000D01*
X143026000Y-103018000D02*
X143026000Y-96798000D01*
X143026000Y-96798000D02*
X137426000Y-96798000D01*
X136926000Y-97298000D02*
X136926000Y-103018000D01*
X142476000Y-99838000D02*
G75*
G03X142476000Y-99838000I-2500000J0D01*
G01*
X136926000Y-108298000D02*
X137426000Y-107798000D01*
X136926000Y-114018000D02*
X143026000Y-114018000D01*
X143026000Y-114018000D02*
X143026000Y-107798000D01*
X143026000Y-107798000D02*
X137426000Y-107798000D01*
X136926000Y-108298000D02*
X136926000Y-114018000D01*
X142476000Y-110838000D02*
G75*
G03X142476000Y-110838000I-2500000J0D01*
G01*
X136926000Y-115298000D02*
X137426000Y-114798000D01*
X136926000Y-121018000D02*
X143026000Y-121018000D01*
X143026000Y-121018000D02*
X143026000Y-114798000D01*
X143026000Y-114798000D02*
X137426000Y-114798000D01*
X136926000Y-115298000D02*
X136926000Y-121018000D01*
X142476000Y-117838000D02*
G75*
G03X142476000Y-117838000I-2500000J0D01*
G01*
X136926000Y-126298000D02*
X137426000Y-125798000D01*
X136926000Y-132018000D02*
X143026000Y-132018000D01*
X143026000Y-132018000D02*
X143026000Y-125798000D01*
X143026000Y-125798000D02*
X137426000Y-125798000D01*
X136926000Y-126298000D02*
X136926000Y-132018000D01*
X142476000Y-128838000D02*
G75*
G03X142476000Y-128838000I-2500000J0D01*
G01*
X136926000Y-133298000D02*
X137426000Y-132798000D01*
X136926000Y-139018000D02*
X143026000Y-139018000D01*
X143026000Y-139018000D02*
X143026000Y-132798000D01*
X143026000Y-132798000D02*
X137426000Y-132798000D01*
X136926000Y-133298000D02*
X136926000Y-139018000D01*
X142476000Y-135838000D02*
G75*
G03X142476000Y-135838000I-2500000J0D01*
G01*
X172926000Y-79298000D02*
X173426000Y-78798000D01*
X172926000Y-85018000D02*
X179026000Y-85018000D01*
X179026000Y-85018000D02*
X179026000Y-78798000D01*
X179026000Y-78798000D02*
X173426000Y-78798000D01*
X172926000Y-79298000D02*
X172926000Y-85018000D01*
X178476000Y-81838000D02*
G75*
G03X178476000Y-81838000I-2500000J0D01*
G01*
X172926000Y-90298000D02*
X173426000Y-89798000D01*
X172926000Y-96018000D02*
X179026000Y-96018000D01*
X179026000Y-96018000D02*
X179026000Y-89798000D01*
X179026000Y-89798000D02*
X173426000Y-89798000D01*
X172926000Y-90298000D02*
X172926000Y-96018000D01*
X178476000Y-92838000D02*
G75*
G03X178476000Y-92838000I-2500000J0D01*
G01*
X172926000Y-97298000D02*
X173426000Y-96798000D01*
X172926000Y-103018000D02*
X179026000Y-103018000D01*
X179026000Y-103018000D02*
X179026000Y-96798000D01*
X179026000Y-96798000D02*
X173426000Y-96798000D01*
X172926000Y-97298000D02*
X172926000Y-103018000D01*
X178476000Y-99838000D02*
G75*
G03X178476000Y-99838000I-2500000J0D01*
G01*
X172926000Y-108298000D02*
X173426000Y-107798000D01*
X172926000Y-114018000D02*
X179026000Y-114018000D01*
X179026000Y-114018000D02*
X179026000Y-107798000D01*
X179026000Y-107798000D02*
X173426000Y-107798000D01*
X172926000Y-108298000D02*
X172926000Y-114018000D01*
X178476000Y-110838000D02*
G75*
G03X178476000Y-110838000I-2500000J0D01*
G01*
X172926000Y-115298000D02*
X173426000Y-114798000D01*
X172926000Y-121018000D02*
X179026000Y-121018000D01*
X179026000Y-121018000D02*
X179026000Y-114798000D01*
X179026000Y-114798000D02*
X173426000Y-114798000D01*
X172926000Y-115298000D02*
X172926000Y-121018000D01*
X178476000Y-117838000D02*
G75*
G03X178476000Y-117838000I-2500000J0D01*
G01*
X172926000Y-126298000D02*
X173426000Y-125798000D01*
X172926000Y-132018000D02*
X179026000Y-132018000D01*
X179026000Y-132018000D02*
X179026000Y-125798000D01*
X179026000Y-125798000D02*
X173426000Y-125798000D01*
X172926000Y-126298000D02*
X172926000Y-132018000D01*
X178476000Y-128838000D02*
G75*
G03X178476000Y-128838000I-2500000J0D01*
G01*
X154926000Y-97298000D02*
X155426000Y-96798000D01*
X154926000Y-103018000D02*
X161026000Y-103018000D01*
X161026000Y-103018000D02*
X161026000Y-96798000D01*
X161026000Y-96798000D02*
X155426000Y-96798000D01*
X154926000Y-97298000D02*
X154926000Y-103018000D01*
X160476000Y-99838000D02*
G75*
G03X160476000Y-99838000I-2500000J0D01*
G01*
X118926000Y-72298000D02*
X119426000Y-71798000D01*
X118926000Y-78018000D02*
X125026000Y-78018000D01*
X125026000Y-78018000D02*
X125026000Y-71798000D01*
X125026000Y-71798000D02*
X119426000Y-71798000D01*
X118926000Y-72298000D02*
X118926000Y-78018000D01*
X124476000Y-74838000D02*
G75*
G03X124476000Y-74838000I-2500000J0D01*
G01*
X118926000Y-79298000D02*
X119426000Y-78798000D01*
X118926000Y-85018000D02*
X125026000Y-85018000D01*
X125026000Y-85018000D02*
X125026000Y-78798000D01*
X125026000Y-78798000D02*
X119426000Y-78798000D01*
X118926000Y-79298000D02*
X118926000Y-85018000D01*
X124476000Y-81838000D02*
G75*
G03X124476000Y-81838000I-2500000J0D01*
G01*
X118926000Y-90298000D02*
X119426000Y-89798000D01*
X118926000Y-96018000D02*
X125026000Y-96018000D01*
X125026000Y-96018000D02*
X125026000Y-89798000D01*
X125026000Y-89798000D02*
X119426000Y-89798000D01*
X118926000Y-90298000D02*
X118926000Y-96018000D01*
X124476000Y-92838000D02*
G75*
G03X124476000Y-92838000I-2500000J0D01*
G01*
X118926000Y-97298000D02*
X119426000Y-96798000D01*
X118926000Y-103018000D02*
X125026000Y-103018000D01*
X125026000Y-103018000D02*
X125026000Y-96798000D01*
X125026000Y-96798000D02*
X119426000Y-96798000D01*
X118926000Y-97298000D02*
X118926000Y-103018000D01*
X124476000Y-99838000D02*
G75*
G03X124476000Y-99838000I-2500000J0D01*
G01*
X118926000Y-108298000D02*
X119426000Y-107798000D01*
X118926000Y-114018000D02*
X125026000Y-114018000D01*
X125026000Y-114018000D02*
X125026000Y-107798000D01*
X125026000Y-107798000D02*
X119426000Y-107798000D01*
X118926000Y-108298000D02*
X118926000Y-114018000D01*
X124476000Y-110838000D02*
G75*
G03X124476000Y-110838000I-2500000J0D01*
G01*
X118926000Y-115298000D02*
X119426000Y-114798000D01*
X118926000Y-121018000D02*
X125026000Y-121018000D01*
X125026000Y-121018000D02*
X125026000Y-114798000D01*
X125026000Y-114798000D02*
X119426000Y-114798000D01*
X118926000Y-115298000D02*
X118926000Y-121018000D01*
X124476000Y-117838000D02*
G75*
G03X124476000Y-117838000I-2500000J0D01*
G01*
X118926000Y-126298000D02*
X119426000Y-125798000D01*
X118926000Y-132018000D02*
X125026000Y-132018000D01*
X125026000Y-132018000D02*
X125026000Y-125798000D01*
X125026000Y-125798000D02*
X119426000Y-125798000D01*
X118926000Y-126298000D02*
X118926000Y-132018000D01*
X124476000Y-128838000D02*
G75*
G03X124476000Y-128838000I-2500000J0D01*
G01*
X118926000Y-133298000D02*
X119426000Y-132798000D01*
X118926000Y-139018000D02*
X125026000Y-139018000D01*
X125026000Y-139018000D02*
X125026000Y-132798000D01*
X125026000Y-132798000D02*
X119426000Y-132798000D01*
X118926000Y-133298000D02*
X118926000Y-139018000D01*
X124476000Y-135838000D02*
G75*
G03X124476000Y-135838000I-2500000J0D01*
G01*
X154926000Y-72298000D02*
X155426000Y-71798000D01*
X154926000Y-78018000D02*
X161026000Y-78018000D01*
X161026000Y-78018000D02*
X161026000Y-71798000D01*
X161026000Y-71798000D02*
X155426000Y-71798000D01*
X154926000Y-72298000D02*
X154926000Y-78018000D01*
X160476000Y-74838000D02*
G75*
G03X160476000Y-74838000I-2500000J0D01*
G01*
X154926000Y-79298000D02*
X155426000Y-78798000D01*
X154926000Y-85018000D02*
X161026000Y-85018000D01*
X161026000Y-85018000D02*
X161026000Y-78798000D01*
X161026000Y-78798000D02*
X155426000Y-78798000D01*
X154926000Y-79298000D02*
X154926000Y-85018000D01*
X160476000Y-81838000D02*
G75*
G03X160476000Y-81838000I-2500000J0D01*
G01*
X154926000Y-90298000D02*
X155426000Y-89798000D01*
X154926000Y-96018000D02*
X161026000Y-96018000D01*
X161026000Y-96018000D02*
X161026000Y-89798000D01*
X161026000Y-89798000D02*
X155426000Y-89798000D01*
X154926000Y-90298000D02*
X154926000Y-96018000D01*
X160476000Y-92838000D02*
G75*
G03X160476000Y-92838000I-2500000J0D01*
G01*
X190926000Y-133298000D02*
X191426000Y-132798000D01*
X190926000Y-139018000D02*
X197026000Y-139018000D01*
X197026000Y-139018000D02*
X197026000Y-132798000D01*
X197026000Y-132798000D02*
X191426000Y-132798000D01*
X190926000Y-133298000D02*
X190926000Y-139018000D01*
X196476000Y-135838000D02*
G75*
G03X196476000Y-135838000I-2500000J0D01*
G01*
X154926000Y-108298000D02*
X155426000Y-107798000D01*
X154926000Y-114018000D02*
X161026000Y-114018000D01*
X161026000Y-114018000D02*
X161026000Y-107798000D01*
X161026000Y-107798000D02*
X155426000Y-107798000D01*
X154926000Y-108298000D02*
X154926000Y-114018000D01*
X160476000Y-110838000D02*
G75*
G03X160476000Y-110838000I-2500000J0D01*
G01*
X154926000Y-115298000D02*
X155426000Y-114798000D01*
X154926000Y-121018000D02*
X161026000Y-121018000D01*
X161026000Y-121018000D02*
X161026000Y-114798000D01*
X161026000Y-114798000D02*
X155426000Y-114798000D01*
X154926000Y-115298000D02*
X154926000Y-121018000D01*
X160476000Y-117838000D02*
G75*
G03X160476000Y-117838000I-2500000J0D01*
G01*
X154926000Y-126298000D02*
X155426000Y-125798000D01*
X154926000Y-132018000D02*
X161026000Y-132018000D01*
X161026000Y-132018000D02*
X161026000Y-125798000D01*
X161026000Y-125798000D02*
X155426000Y-125798000D01*
X154926000Y-126298000D02*
X154926000Y-132018000D01*
X160476000Y-128838000D02*
G75*
G03X160476000Y-128838000I-2500000J0D01*
G01*
X154926000Y-133298000D02*
X155426000Y-132798000D01*
X154926000Y-139018000D02*
X161026000Y-139018000D01*
X161026000Y-139018000D02*
X161026000Y-132798000D01*
X161026000Y-132798000D02*
X155426000Y-132798000D01*
X154926000Y-133298000D02*
X154926000Y-139018000D01*
X160476000Y-135838000D02*
G75*
G03X160476000Y-135838000I-2500000J0D01*
G01*
X190926000Y-72298000D02*
X191426000Y-71798000D01*
X190926000Y-78018000D02*
X197026000Y-78018000D01*
X197026000Y-78018000D02*
X197026000Y-71798000D01*
X197026000Y-71798000D02*
X191426000Y-71798000D01*
X190926000Y-72298000D02*
X190926000Y-78018000D01*
X196476000Y-74838000D02*
G75*
G03X196476000Y-74838000I-2500000J0D01*
G01*
X190926000Y-79298000D02*
X191426000Y-78798000D01*
X190926000Y-85018000D02*
X197026000Y-85018000D01*
X197026000Y-85018000D02*
X197026000Y-78798000D01*
X197026000Y-78798000D02*
X191426000Y-78798000D01*
X190926000Y-79298000D02*
X190926000Y-85018000D01*
X196476000Y-81838000D02*
G75*
G03X196476000Y-81838000I-2500000J0D01*
G01*
X190926000Y-90298000D02*
X191426000Y-89798000D01*
X190926000Y-96018000D02*
X197026000Y-96018000D01*
X197026000Y-96018000D02*
X197026000Y-89798000D01*
X197026000Y-89798000D02*
X191426000Y-89798000D01*
X190926000Y-90298000D02*
X190926000Y-96018000D01*
X196476000Y-92838000D02*
G75*
G03X196476000Y-92838000I-2500000J0D01*
G01*
X190926000Y-97298000D02*
X191426000Y-96798000D01*
X190926000Y-103018000D02*
X197026000Y-103018000D01*
X197026000Y-103018000D02*
X197026000Y-96798000D01*
X197026000Y-96798000D02*
X191426000Y-96798000D01*
X190926000Y-97298000D02*
X190926000Y-103018000D01*
X196476000Y-99838000D02*
G75*
G03X196476000Y-99838000I-2500000J0D01*
G01*
X190926000Y-108298000D02*
X191426000Y-107798000D01*
X190926000Y-114018000D02*
X197026000Y-114018000D01*
X197026000Y-114018000D02*
X197026000Y-107798000D01*
X197026000Y-107798000D02*
X191426000Y-107798000D01*
X190926000Y-108298000D02*
X190926000Y-114018000D01*
X196476000Y-110838000D02*
G75*
G03X196476000Y-110838000I-2500000J0D01*
G01*
X190926000Y-115298000D02*
X191426000Y-114798000D01*
X190926000Y-121018000D02*
X197026000Y-121018000D01*
X197026000Y-121018000D02*
X197026000Y-114798000D01*
X197026000Y-114798000D02*
X191426000Y-114798000D01*
X190926000Y-115298000D02*
X190926000Y-121018000D01*
X196476000Y-117838000D02*
G75*
G03X196476000Y-117838000I-2500000J0D01*
G01*
X190926000Y-126298000D02*
X191426000Y-125798000D01*
X190926000Y-132018000D02*
X197026000Y-132018000D01*
X197026000Y-132018000D02*
X197026000Y-125798000D01*
X197026000Y-125798000D02*
X191426000Y-125798000D01*
X190926000Y-126298000D02*
X190926000Y-132018000D01*
X196476000Y-128838000D02*
G75*
G03X196476000Y-128838000I-2500000J0D01*
G01*
X64579500Y-130119120D02*
X64579500Y-139120880D01*
X61079380Y-130119120D02*
X61079380Y-139120880D01*
X61079380Y-139120880D02*
X75580240Y-139120880D01*
X75580240Y-139120880D02*
X75580240Y-130119120D01*
X75580240Y-130119120D02*
X61079380Y-130119120D01*
X174807714Y-140406381D02*
X174807714Y-139406381D01*
X175045809Y-139406381D01*
X175188667Y-139454000D01*
X175283905Y-139549238D01*
X175331524Y-139644476D01*
X175379143Y-139834952D01*
X175379143Y-139977810D01*
X175331524Y-140168286D01*
X175283905Y-140263524D01*
X175188667Y-140358762D01*
X175045809Y-140406381D01*
X174807714Y-140406381D01*
X176236286Y-139739714D02*
X176236286Y-140406381D01*
X175998190Y-139358762D02*
X175760095Y-140073048D01*
X176379143Y-140073048D01*
X176902952Y-139834952D02*
X176807714Y-139787333D01*
X176760095Y-139739714D01*
X176712476Y-139644476D01*
X176712476Y-139596857D01*
X176760095Y-139501619D01*
X176807714Y-139454000D01*
X176902952Y-139406381D01*
X177093429Y-139406381D01*
X177188667Y-139454000D01*
X177236286Y-139501619D01*
X177283905Y-139596857D01*
X177283905Y-139644476D01*
X177236286Y-139739714D01*
X177188667Y-139787333D01*
X177093429Y-139834952D01*
X176902952Y-139834952D01*
X176807714Y-139882571D01*
X176760095Y-139930190D01*
X176712476Y-140025429D01*
X176712476Y-140215905D01*
X176760095Y-140311143D01*
X176807714Y-140358762D01*
X176902952Y-140406381D01*
X177093429Y-140406381D01*
X177188667Y-140358762D01*
X177236286Y-140311143D01*
X177283905Y-140215905D01*
X177283905Y-140025429D01*
X177236286Y-139930190D01*
X177188667Y-139882571D01*
X177093429Y-139834952D01*
X138761714Y-71480381D02*
X138761714Y-70480381D01*
X138999809Y-70480381D01*
X139142667Y-70528000D01*
X139237905Y-70623238D01*
X139285524Y-70718476D01*
X139333143Y-70908952D01*
X139333143Y-71051810D01*
X139285524Y-71242286D01*
X139237905Y-71337524D01*
X139142667Y-71432762D01*
X138999809Y-71480381D01*
X138761714Y-71480381D01*
X139666476Y-70480381D02*
X140285524Y-70480381D01*
X139952190Y-70861333D01*
X140095048Y-70861333D01*
X140190286Y-70908952D01*
X140237905Y-70956571D01*
X140285524Y-71051810D01*
X140285524Y-71289905D01*
X140237905Y-71385143D01*
X140190286Y-71432762D01*
X140095048Y-71480381D01*
X139809333Y-71480381D01*
X139714095Y-71432762D01*
X139666476Y-71385143D01*
X140618857Y-70480381D02*
X141237905Y-70480381D01*
X140904571Y-70861333D01*
X141047429Y-70861333D01*
X141142667Y-70908952D01*
X141190286Y-70956571D01*
X141237905Y-71051810D01*
X141237905Y-71289905D01*
X141190286Y-71385143D01*
X141142667Y-71432762D01*
X141047429Y-71480381D01*
X140761714Y-71480381D01*
X140666476Y-71432762D01*
X140618857Y-71385143D01*
X102671714Y-86304381D02*
X102671714Y-85304381D01*
X102909809Y-85304381D01*
X103052667Y-85352000D01*
X103147905Y-85447238D01*
X103195524Y-85542476D01*
X103243143Y-85732952D01*
X103243143Y-85875810D01*
X103195524Y-86066286D01*
X103147905Y-86161524D01*
X103052667Y-86256762D01*
X102909809Y-86304381D01*
X102671714Y-86304381D01*
X103624095Y-85399619D02*
X103671714Y-85352000D01*
X103766952Y-85304381D01*
X104005048Y-85304381D01*
X104100286Y-85352000D01*
X104147905Y-85399619D01*
X104195524Y-85494857D01*
X104195524Y-85590095D01*
X104147905Y-85732952D01*
X103576476Y-86304381D01*
X104195524Y-86304381D01*
X105052667Y-85304381D02*
X104862190Y-85304381D01*
X104766952Y-85352000D01*
X104719333Y-85399619D01*
X104624095Y-85542476D01*
X104576476Y-85732952D01*
X104576476Y-86113905D01*
X104624095Y-86209143D01*
X104671714Y-86256762D01*
X104766952Y-86304381D01*
X104957429Y-86304381D01*
X105052667Y-86256762D01*
X105100286Y-86209143D01*
X105147905Y-86113905D01*
X105147905Y-85875810D01*
X105100286Y-85780571D01*
X105052667Y-85732952D01*
X104957429Y-85685333D01*
X104766952Y-85685333D01*
X104671714Y-85732952D01*
X104624095Y-85780571D01*
X104576476Y-85875810D01*
X72588381Y-76350571D02*
X72112190Y-76683905D01*
X72588381Y-76922000D02*
X71588381Y-76922000D01*
X71588381Y-76541047D01*
X71636000Y-76445809D01*
X71683619Y-76398190D01*
X71778857Y-76350571D01*
X71921714Y-76350571D01*
X72016952Y-76398190D01*
X72064571Y-76445809D01*
X72112190Y-76541047D01*
X72112190Y-76922000D01*
X72064571Y-75922000D02*
X72064571Y-75588666D01*
X72588381Y-75445809D02*
X72588381Y-75922000D01*
X71588381Y-75922000D01*
X71588381Y-75445809D01*
X72540762Y-75064857D02*
X72588381Y-74922000D01*
X72588381Y-74683904D01*
X72540762Y-74588666D01*
X72493143Y-74541047D01*
X72397905Y-74493428D01*
X72302667Y-74493428D01*
X72207429Y-74541047D01*
X72159810Y-74588666D01*
X72112190Y-74683904D01*
X72064571Y-74874381D01*
X72016952Y-74969619D01*
X71969333Y-75017238D01*
X71874095Y-75064857D01*
X71778857Y-75064857D01*
X71683619Y-75017238D01*
X71636000Y-74969619D01*
X71588381Y-74874381D01*
X71588381Y-74636285D01*
X71636000Y-74493428D01*
X72064571Y-74064857D02*
X72064571Y-73731523D01*
X72588381Y-73588666D02*
X72588381Y-74064857D01*
X71588381Y-74064857D01*
X71588381Y-73588666D01*
X71588381Y-73302952D02*
X71588381Y-72731523D01*
X72588381Y-73017238D02*
X71588381Y-73017238D01*
X72588381Y-71874380D02*
X72588381Y-72445809D01*
X72588381Y-72160095D02*
X71588381Y-72160095D01*
X71731238Y-72255333D01*
X71826476Y-72350571D01*
X71874095Y-72445809D01*
D13*
X68023619Y-89903904D02*
X67007619Y-89903904D01*
X67007619Y-89516857D01*
X67056000Y-89420095D01*
X67104381Y-89371714D01*
X67201143Y-89323333D01*
X67346286Y-89323333D01*
X67443048Y-89371714D01*
X67491429Y-89420095D01*
X67539810Y-89516857D01*
X67539810Y-89903904D01*
X67104381Y-88936285D02*
X67056000Y-88887904D01*
X67007619Y-88791142D01*
X67007619Y-88549238D01*
X67056000Y-88452476D01*
X67104381Y-88404095D01*
X67201143Y-88355714D01*
X67297905Y-88355714D01*
X67443048Y-88404095D01*
X68023619Y-88984666D01*
X68023619Y-88355714D01*
D15*
X79656759Y-74970035D02*
X79656759Y-75136828D01*
X79918862Y-75136828D02*
X79418482Y-75136828D01*
X79418482Y-74898552D01*
X79918862Y-74707931D02*
X79418482Y-74707931D01*
X79918862Y-74469655D02*
X79418482Y-74469655D01*
X79918862Y-74183723D01*
X79418482Y-74183723D01*
X79918862Y-73683343D02*
X79918862Y-73969275D01*
X79918862Y-73826309D02*
X79418482Y-73826309D01*
X79489965Y-73873964D01*
X79537620Y-73921619D01*
X79561448Y-73969275D01*
X77751759Y-75267880D02*
X77751759Y-75101087D01*
X78013862Y-75029604D02*
X78013862Y-75267880D01*
X77513482Y-75267880D01*
X77513482Y-75029604D01*
X78013862Y-74529223D02*
X77775586Y-74696017D01*
X78013862Y-74815155D02*
X77513482Y-74815155D01*
X77513482Y-74624534D01*
X77537310Y-74576879D01*
X77561138Y-74553051D01*
X77608793Y-74529223D01*
X77680276Y-74529223D01*
X77727931Y-74553051D01*
X77751759Y-74576879D01*
X77775586Y-74624534D01*
X77775586Y-74815155D01*
X78013862Y-74028843D02*
X77775586Y-74195637D01*
X78013862Y-74314775D02*
X77513482Y-74314775D01*
X77513482Y-74124154D01*
X77537310Y-74076499D01*
X77561138Y-74052671D01*
X77608793Y-74028843D01*
X77680276Y-74028843D01*
X77727931Y-74052671D01*
X77751759Y-74076499D01*
X77775586Y-74124154D01*
X77775586Y-74314775D01*
X78013862Y-73552291D02*
X78013862Y-73838223D01*
X78013862Y-73695257D02*
X77513482Y-73695257D01*
X77584965Y-73742912D01*
X77632620Y-73790567D01*
X77656448Y-73838223D01*
X74338482Y-74970035D02*
X74338482Y-74874725D01*
X74362310Y-74827070D01*
X74409965Y-74779414D01*
X74505276Y-74755587D01*
X74672069Y-74755587D01*
X74767380Y-74779414D01*
X74815035Y-74827070D01*
X74838862Y-74874725D01*
X74838862Y-74970035D01*
X74815035Y-75017691D01*
X74767380Y-75065346D01*
X74672069Y-75089174D01*
X74505276Y-75089174D01*
X74409965Y-75065346D01*
X74362310Y-75017691D01*
X74338482Y-74970035D01*
X74838862Y-74541138D02*
X74338482Y-74541138D01*
X74838862Y-74255206D01*
X74338482Y-74255206D01*
X74838862Y-73754826D02*
X74838862Y-74040758D01*
X74838862Y-73897792D02*
X74338482Y-73897792D01*
X74409965Y-73945447D01*
X74457620Y-73993102D01*
X74481448Y-74040758D01*
D10*
X102761714Y-71480381D02*
X102761714Y-70480381D01*
X102999809Y-70480381D01*
X103142667Y-70528000D01*
X103237905Y-70623238D01*
X103285524Y-70718476D01*
X103333143Y-70908952D01*
X103333143Y-71051810D01*
X103285524Y-71242286D01*
X103237905Y-71337524D01*
X103142667Y-71432762D01*
X102999809Y-71480381D01*
X102761714Y-71480381D01*
X103714095Y-70575619D02*
X103761714Y-70528000D01*
X103856952Y-70480381D01*
X104095048Y-70480381D01*
X104190286Y-70528000D01*
X104237905Y-70575619D01*
X104285524Y-70670857D01*
X104285524Y-70766095D01*
X104237905Y-70908952D01*
X103666476Y-71480381D01*
X104285524Y-71480381D01*
X105190286Y-70480381D02*
X104714095Y-70480381D01*
X104666476Y-70956571D01*
X104714095Y-70908952D01*
X104809333Y-70861333D01*
X105047429Y-70861333D01*
X105142667Y-70908952D01*
X105190286Y-70956571D01*
X105237905Y-71051810D01*
X105237905Y-71289905D01*
X105190286Y-71385143D01*
X105142667Y-71432762D01*
X105047429Y-71480381D01*
X104809333Y-71480381D01*
X104714095Y-71432762D01*
X104666476Y-71385143D01*
X138761714Y-89480381D02*
X138761714Y-88480381D01*
X138999809Y-88480381D01*
X139142667Y-88528000D01*
X139237905Y-88623238D01*
X139285524Y-88718476D01*
X139333143Y-88908952D01*
X139333143Y-89051810D01*
X139285524Y-89242286D01*
X139237905Y-89337524D01*
X139142667Y-89432762D01*
X138999809Y-89480381D01*
X138761714Y-89480381D01*
X139666476Y-88480381D02*
X140285524Y-88480381D01*
X139952190Y-88861333D01*
X140095048Y-88861333D01*
X140190286Y-88908952D01*
X140237905Y-88956571D01*
X140285524Y-89051810D01*
X140285524Y-89289905D01*
X140237905Y-89385143D01*
X140190286Y-89432762D01*
X140095048Y-89480381D01*
X139809333Y-89480381D01*
X139714095Y-89432762D01*
X139666476Y-89385143D01*
X141190286Y-88480381D02*
X140714095Y-88480381D01*
X140666476Y-88956571D01*
X140714095Y-88908952D01*
X140809333Y-88861333D01*
X141047429Y-88861333D01*
X141142667Y-88908952D01*
X141190286Y-88956571D01*
X141237905Y-89051810D01*
X141237905Y-89289905D01*
X141190286Y-89385143D01*
X141142667Y-89432762D01*
X141047429Y-89480381D01*
X140809333Y-89480381D01*
X140714095Y-89432762D01*
X140666476Y-89385143D01*
X138739714Y-86304381D02*
X138739714Y-85304381D01*
X138977809Y-85304381D01*
X139120667Y-85352000D01*
X139215905Y-85447238D01*
X139263524Y-85542476D01*
X139311143Y-85732952D01*
X139311143Y-85875810D01*
X139263524Y-86066286D01*
X139215905Y-86161524D01*
X139120667Y-86256762D01*
X138977809Y-86304381D01*
X138739714Y-86304381D01*
X139644476Y-85304381D02*
X140263524Y-85304381D01*
X139930190Y-85685333D01*
X140073048Y-85685333D01*
X140168286Y-85732952D01*
X140215905Y-85780571D01*
X140263524Y-85875810D01*
X140263524Y-86113905D01*
X140215905Y-86209143D01*
X140168286Y-86256762D01*
X140073048Y-86304381D01*
X139787333Y-86304381D01*
X139692095Y-86256762D01*
X139644476Y-86209143D01*
X141120667Y-85637714D02*
X141120667Y-86304381D01*
X140882571Y-85256762D02*
X140644476Y-85971048D01*
X141263524Y-85971048D01*
X102671714Y-140406381D02*
X102671714Y-139406381D01*
X102909809Y-139406381D01*
X103052667Y-139454000D01*
X103147905Y-139549238D01*
X103195524Y-139644476D01*
X103243143Y-139834952D01*
X103243143Y-139977810D01*
X103195524Y-140168286D01*
X103147905Y-140263524D01*
X103052667Y-140358762D01*
X102909809Y-140406381D01*
X102671714Y-140406381D01*
X103576476Y-139406381D02*
X104195524Y-139406381D01*
X103862190Y-139787333D01*
X104005048Y-139787333D01*
X104100286Y-139834952D01*
X104147905Y-139882571D01*
X104195524Y-139977810D01*
X104195524Y-140215905D01*
X104147905Y-140311143D01*
X104100286Y-140358762D01*
X104005048Y-140406381D01*
X103719333Y-140406381D01*
X103624095Y-140358762D01*
X103576476Y-140311143D01*
X104576476Y-139501619D02*
X104624095Y-139454000D01*
X104719333Y-139406381D01*
X104957429Y-139406381D01*
X105052667Y-139454000D01*
X105100286Y-139501619D01*
X105147905Y-139596857D01*
X105147905Y-139692095D01*
X105100286Y-139834952D01*
X104528857Y-140406381D01*
X105147905Y-140406381D01*
X102761714Y-125480381D02*
X102761714Y-124480381D01*
X102999809Y-124480381D01*
X103142667Y-124528000D01*
X103237905Y-124623238D01*
X103285524Y-124718476D01*
X103333143Y-124908952D01*
X103333143Y-125051810D01*
X103285524Y-125242286D01*
X103237905Y-125337524D01*
X103142667Y-125432762D01*
X102999809Y-125480381D01*
X102761714Y-125480381D01*
X103666476Y-124480381D02*
X104285524Y-124480381D01*
X103952190Y-124861333D01*
X104095048Y-124861333D01*
X104190286Y-124908952D01*
X104237905Y-124956571D01*
X104285524Y-125051810D01*
X104285524Y-125289905D01*
X104237905Y-125385143D01*
X104190286Y-125432762D01*
X104095048Y-125480381D01*
X103809333Y-125480381D01*
X103714095Y-125432762D01*
X103666476Y-125385143D01*
X105237905Y-125480381D02*
X104666476Y-125480381D01*
X104952190Y-125480381D02*
X104952190Y-124480381D01*
X104856952Y-124623238D01*
X104761714Y-124718476D01*
X104666476Y-124766095D01*
X102671714Y-122372381D02*
X102671714Y-121372381D01*
X102909809Y-121372381D01*
X103052667Y-121420000D01*
X103147905Y-121515238D01*
X103195524Y-121610476D01*
X103243143Y-121800952D01*
X103243143Y-121943810D01*
X103195524Y-122134286D01*
X103147905Y-122229524D01*
X103052667Y-122324762D01*
X102909809Y-122372381D01*
X102671714Y-122372381D01*
X103576476Y-121372381D02*
X104195524Y-121372381D01*
X103862190Y-121753333D01*
X104005048Y-121753333D01*
X104100286Y-121800952D01*
X104147905Y-121848571D01*
X104195524Y-121943810D01*
X104195524Y-122181905D01*
X104147905Y-122277143D01*
X104100286Y-122324762D01*
X104005048Y-122372381D01*
X103719333Y-122372381D01*
X103624095Y-122324762D01*
X103576476Y-122277143D01*
X104814571Y-121372381D02*
X104909810Y-121372381D01*
X105005048Y-121420000D01*
X105052667Y-121467619D01*
X105100286Y-121562857D01*
X105147905Y-121753333D01*
X105147905Y-121991429D01*
X105100286Y-122181905D01*
X105052667Y-122277143D01*
X105005048Y-122324762D01*
X104909810Y-122372381D01*
X104814571Y-122372381D01*
X104719333Y-122324762D01*
X104671714Y-122277143D01*
X104624095Y-122181905D01*
X104576476Y-121991429D01*
X104576476Y-121753333D01*
X104624095Y-121562857D01*
X104671714Y-121467619D01*
X104719333Y-121420000D01*
X104814571Y-121372381D01*
X102761714Y-107480381D02*
X102761714Y-106480381D01*
X102999809Y-106480381D01*
X103142667Y-106528000D01*
X103237905Y-106623238D01*
X103285524Y-106718476D01*
X103333143Y-106908952D01*
X103333143Y-107051810D01*
X103285524Y-107242286D01*
X103237905Y-107337524D01*
X103142667Y-107432762D01*
X102999809Y-107480381D01*
X102761714Y-107480381D01*
X103714095Y-106575619D02*
X103761714Y-106528000D01*
X103856952Y-106480381D01*
X104095048Y-106480381D01*
X104190286Y-106528000D01*
X104237905Y-106575619D01*
X104285524Y-106670857D01*
X104285524Y-106766095D01*
X104237905Y-106908952D01*
X103666476Y-107480381D01*
X104285524Y-107480381D01*
X104761714Y-107480381D02*
X104952190Y-107480381D01*
X105047429Y-107432762D01*
X105095048Y-107385143D01*
X105190286Y-107242286D01*
X105237905Y-107051810D01*
X105237905Y-106670857D01*
X105190286Y-106575619D01*
X105142667Y-106528000D01*
X105047429Y-106480381D01*
X104856952Y-106480381D01*
X104761714Y-106528000D01*
X104714095Y-106575619D01*
X104666476Y-106670857D01*
X104666476Y-106908952D01*
X104714095Y-107004190D01*
X104761714Y-107051810D01*
X104856952Y-107099429D01*
X105047429Y-107099429D01*
X105142667Y-107051810D01*
X105190286Y-107004190D01*
X105237905Y-106908952D01*
X102671714Y-104338381D02*
X102671714Y-103338381D01*
X102909809Y-103338381D01*
X103052667Y-103386000D01*
X103147905Y-103481238D01*
X103195524Y-103576476D01*
X103243143Y-103766952D01*
X103243143Y-103909810D01*
X103195524Y-104100286D01*
X103147905Y-104195524D01*
X103052667Y-104290762D01*
X102909809Y-104338381D01*
X102671714Y-104338381D01*
X103624095Y-103433619D02*
X103671714Y-103386000D01*
X103766952Y-103338381D01*
X104005048Y-103338381D01*
X104100286Y-103386000D01*
X104147905Y-103433619D01*
X104195524Y-103528857D01*
X104195524Y-103624095D01*
X104147905Y-103766952D01*
X103576476Y-104338381D01*
X104195524Y-104338381D01*
X104766952Y-103766952D02*
X104671714Y-103719333D01*
X104624095Y-103671714D01*
X104576476Y-103576476D01*
X104576476Y-103528857D01*
X104624095Y-103433619D01*
X104671714Y-103386000D01*
X104766952Y-103338381D01*
X104957429Y-103338381D01*
X105052667Y-103386000D01*
X105100286Y-103433619D01*
X105147905Y-103528857D01*
X105147905Y-103576476D01*
X105100286Y-103671714D01*
X105052667Y-103719333D01*
X104957429Y-103766952D01*
X104766952Y-103766952D01*
X104671714Y-103814571D01*
X104624095Y-103862190D01*
X104576476Y-103957429D01*
X104576476Y-104147905D01*
X104624095Y-104243143D01*
X104671714Y-104290762D01*
X104766952Y-104338381D01*
X104957429Y-104338381D01*
X105052667Y-104290762D01*
X105100286Y-104243143D01*
X105147905Y-104147905D01*
X105147905Y-103957429D01*
X105100286Y-103862190D01*
X105052667Y-103814571D01*
X104957429Y-103766952D01*
X102761714Y-89480381D02*
X102761714Y-88480381D01*
X102999809Y-88480381D01*
X103142667Y-88528000D01*
X103237905Y-88623238D01*
X103285524Y-88718476D01*
X103333143Y-88908952D01*
X103333143Y-89051810D01*
X103285524Y-89242286D01*
X103237905Y-89337524D01*
X103142667Y-89432762D01*
X102999809Y-89480381D01*
X102761714Y-89480381D01*
X103714095Y-88575619D02*
X103761714Y-88528000D01*
X103856952Y-88480381D01*
X104095048Y-88480381D01*
X104190286Y-88528000D01*
X104237905Y-88575619D01*
X104285524Y-88670857D01*
X104285524Y-88766095D01*
X104237905Y-88908952D01*
X103666476Y-89480381D01*
X104285524Y-89480381D01*
X104618857Y-88480381D02*
X105285524Y-88480381D01*
X104856952Y-89480381D01*
X174761714Y-71480381D02*
X174761714Y-70480381D01*
X174999809Y-70480381D01*
X175142667Y-70528000D01*
X175237905Y-70623238D01*
X175285524Y-70718476D01*
X175333143Y-70908952D01*
X175333143Y-71051810D01*
X175285524Y-71242286D01*
X175237905Y-71337524D01*
X175142667Y-71432762D01*
X174999809Y-71480381D01*
X174761714Y-71480381D01*
X176190286Y-70813714D02*
X176190286Y-71480381D01*
X175952190Y-70432762D02*
X175714095Y-71147048D01*
X176333143Y-71147048D01*
X177237905Y-71480381D02*
X176666476Y-71480381D01*
X176952190Y-71480381D02*
X176952190Y-70480381D01*
X176856952Y-70623238D01*
X176761714Y-70718476D01*
X176666476Y-70766095D01*
X138739714Y-104338381D02*
X138739714Y-103338381D01*
X138977809Y-103338381D01*
X139120667Y-103386000D01*
X139215905Y-103481238D01*
X139263524Y-103576476D01*
X139311143Y-103766952D01*
X139311143Y-103909810D01*
X139263524Y-104100286D01*
X139215905Y-104195524D01*
X139120667Y-104290762D01*
X138977809Y-104338381D01*
X138739714Y-104338381D01*
X139644476Y-103338381D02*
X140263524Y-103338381D01*
X139930190Y-103719333D01*
X140073048Y-103719333D01*
X140168286Y-103766952D01*
X140215905Y-103814571D01*
X140263524Y-103909810D01*
X140263524Y-104147905D01*
X140215905Y-104243143D01*
X140168286Y-104290762D01*
X140073048Y-104338381D01*
X139787333Y-104338381D01*
X139692095Y-104290762D01*
X139644476Y-104243143D01*
X141120667Y-103338381D02*
X140930190Y-103338381D01*
X140834952Y-103386000D01*
X140787333Y-103433619D01*
X140692095Y-103576476D01*
X140644476Y-103766952D01*
X140644476Y-104147905D01*
X140692095Y-104243143D01*
X140739714Y-104290762D01*
X140834952Y-104338381D01*
X141025429Y-104338381D01*
X141120667Y-104290762D01*
X141168286Y-104243143D01*
X141215905Y-104147905D01*
X141215905Y-103909810D01*
X141168286Y-103814571D01*
X141120667Y-103766952D01*
X141025429Y-103719333D01*
X140834952Y-103719333D01*
X140739714Y-103766952D01*
X140692095Y-103814571D01*
X140644476Y-103909810D01*
X138761714Y-107480381D02*
X138761714Y-106480381D01*
X138999809Y-106480381D01*
X139142667Y-106528000D01*
X139237905Y-106623238D01*
X139285524Y-106718476D01*
X139333143Y-106908952D01*
X139333143Y-107051810D01*
X139285524Y-107242286D01*
X139237905Y-107337524D01*
X139142667Y-107432762D01*
X138999809Y-107480381D01*
X138761714Y-107480381D01*
X139666476Y-106480381D02*
X140285524Y-106480381D01*
X139952190Y-106861333D01*
X140095048Y-106861333D01*
X140190286Y-106908952D01*
X140237905Y-106956571D01*
X140285524Y-107051810D01*
X140285524Y-107289905D01*
X140237905Y-107385143D01*
X140190286Y-107432762D01*
X140095048Y-107480381D01*
X139809333Y-107480381D01*
X139714095Y-107432762D01*
X139666476Y-107385143D01*
X140618857Y-106480381D02*
X141285524Y-106480381D01*
X140856952Y-107480381D01*
X138739714Y-122372381D02*
X138739714Y-121372381D01*
X138977809Y-121372381D01*
X139120667Y-121420000D01*
X139215905Y-121515238D01*
X139263524Y-121610476D01*
X139311143Y-121800952D01*
X139311143Y-121943810D01*
X139263524Y-122134286D01*
X139215905Y-122229524D01*
X139120667Y-122324762D01*
X138977809Y-122372381D01*
X138739714Y-122372381D01*
X139644476Y-121372381D02*
X140263524Y-121372381D01*
X139930190Y-121753333D01*
X140073048Y-121753333D01*
X140168286Y-121800952D01*
X140215905Y-121848571D01*
X140263524Y-121943810D01*
X140263524Y-122181905D01*
X140215905Y-122277143D01*
X140168286Y-122324762D01*
X140073048Y-122372381D01*
X139787333Y-122372381D01*
X139692095Y-122324762D01*
X139644476Y-122277143D01*
X140834952Y-121800952D02*
X140739714Y-121753333D01*
X140692095Y-121705714D01*
X140644476Y-121610476D01*
X140644476Y-121562857D01*
X140692095Y-121467619D01*
X140739714Y-121420000D01*
X140834952Y-121372381D01*
X141025429Y-121372381D01*
X141120667Y-121420000D01*
X141168286Y-121467619D01*
X141215905Y-121562857D01*
X141215905Y-121610476D01*
X141168286Y-121705714D01*
X141120667Y-121753333D01*
X141025429Y-121800952D01*
X140834952Y-121800952D01*
X140739714Y-121848571D01*
X140692095Y-121896190D01*
X140644476Y-121991429D01*
X140644476Y-122181905D01*
X140692095Y-122277143D01*
X140739714Y-122324762D01*
X140834952Y-122372381D01*
X141025429Y-122372381D01*
X141120667Y-122324762D01*
X141168286Y-122277143D01*
X141215905Y-122181905D01*
X141215905Y-121991429D01*
X141168286Y-121896190D01*
X141120667Y-121848571D01*
X141025429Y-121800952D01*
X138761714Y-125480381D02*
X138761714Y-124480381D01*
X138999809Y-124480381D01*
X139142667Y-124528000D01*
X139237905Y-124623238D01*
X139285524Y-124718476D01*
X139333143Y-124908952D01*
X139333143Y-125051810D01*
X139285524Y-125242286D01*
X139237905Y-125337524D01*
X139142667Y-125432762D01*
X138999809Y-125480381D01*
X138761714Y-125480381D01*
X139666476Y-124480381D02*
X140285524Y-124480381D01*
X139952190Y-124861333D01*
X140095048Y-124861333D01*
X140190286Y-124908952D01*
X140237905Y-124956571D01*
X140285524Y-125051810D01*
X140285524Y-125289905D01*
X140237905Y-125385143D01*
X140190286Y-125432762D01*
X140095048Y-125480381D01*
X139809333Y-125480381D01*
X139714095Y-125432762D01*
X139666476Y-125385143D01*
X140761714Y-125480381D02*
X140952190Y-125480381D01*
X141047429Y-125432762D01*
X141095048Y-125385143D01*
X141190286Y-125242286D01*
X141237905Y-125051810D01*
X141237905Y-124670857D01*
X141190286Y-124575619D01*
X141142667Y-124528000D01*
X141047429Y-124480381D01*
X140856952Y-124480381D01*
X140761714Y-124528000D01*
X140714095Y-124575619D01*
X140666476Y-124670857D01*
X140666476Y-124908952D01*
X140714095Y-125004190D01*
X140761714Y-125051810D01*
X140856952Y-125099429D01*
X141047429Y-125099429D01*
X141142667Y-125051810D01*
X141190286Y-125004190D01*
X141237905Y-124908952D01*
X138739714Y-140406381D02*
X138739714Y-139406381D01*
X138977809Y-139406381D01*
X139120667Y-139454000D01*
X139215905Y-139549238D01*
X139263524Y-139644476D01*
X139311143Y-139834952D01*
X139311143Y-139977810D01*
X139263524Y-140168286D01*
X139215905Y-140263524D01*
X139120667Y-140358762D01*
X138977809Y-140406381D01*
X138739714Y-140406381D01*
X140168286Y-139739714D02*
X140168286Y-140406381D01*
X139930190Y-139358762D02*
X139692095Y-140073048D01*
X140311143Y-140073048D01*
X140882571Y-139406381D02*
X140977810Y-139406381D01*
X141073048Y-139454000D01*
X141120667Y-139501619D01*
X141168286Y-139596857D01*
X141215905Y-139787333D01*
X141215905Y-140025429D01*
X141168286Y-140215905D01*
X141120667Y-140311143D01*
X141073048Y-140358762D01*
X140977810Y-140406381D01*
X140882571Y-140406381D01*
X140787333Y-140358762D01*
X140739714Y-140311143D01*
X140692095Y-140215905D01*
X140644476Y-140025429D01*
X140644476Y-139787333D01*
X140692095Y-139596857D01*
X140739714Y-139501619D01*
X140787333Y-139454000D01*
X140882571Y-139406381D01*
X174807714Y-86304381D02*
X174807714Y-85304381D01*
X175045809Y-85304381D01*
X175188667Y-85352000D01*
X175283905Y-85447238D01*
X175331524Y-85542476D01*
X175379143Y-85732952D01*
X175379143Y-85875810D01*
X175331524Y-86066286D01*
X175283905Y-86161524D01*
X175188667Y-86256762D01*
X175045809Y-86304381D01*
X174807714Y-86304381D01*
X176236286Y-85637714D02*
X176236286Y-86304381D01*
X175998190Y-85256762D02*
X175760095Y-85971048D01*
X176379143Y-85971048D01*
X176712476Y-85399619D02*
X176760095Y-85352000D01*
X176855333Y-85304381D01*
X177093429Y-85304381D01*
X177188667Y-85352000D01*
X177236286Y-85399619D01*
X177283905Y-85494857D01*
X177283905Y-85590095D01*
X177236286Y-85732952D01*
X176664857Y-86304381D01*
X177283905Y-86304381D01*
X174761714Y-89480381D02*
X174761714Y-88480381D01*
X174999809Y-88480381D01*
X175142667Y-88528000D01*
X175237905Y-88623238D01*
X175285524Y-88718476D01*
X175333143Y-88908952D01*
X175333143Y-89051810D01*
X175285524Y-89242286D01*
X175237905Y-89337524D01*
X175142667Y-89432762D01*
X174999809Y-89480381D01*
X174761714Y-89480381D01*
X176190286Y-88813714D02*
X176190286Y-89480381D01*
X175952190Y-88432762D02*
X175714095Y-89147048D01*
X176333143Y-89147048D01*
X176618857Y-88480381D02*
X177237905Y-88480381D01*
X176904571Y-88861333D01*
X177047429Y-88861333D01*
X177142667Y-88908952D01*
X177190286Y-88956571D01*
X177237905Y-89051810D01*
X177237905Y-89289905D01*
X177190286Y-89385143D01*
X177142667Y-89432762D01*
X177047429Y-89480381D01*
X176761714Y-89480381D01*
X176666476Y-89432762D01*
X176618857Y-89385143D01*
X174807714Y-104338381D02*
X174807714Y-103338381D01*
X175045809Y-103338381D01*
X175188667Y-103386000D01*
X175283905Y-103481238D01*
X175331524Y-103576476D01*
X175379143Y-103766952D01*
X175379143Y-103909810D01*
X175331524Y-104100286D01*
X175283905Y-104195524D01*
X175188667Y-104290762D01*
X175045809Y-104338381D01*
X174807714Y-104338381D01*
X176236286Y-103671714D02*
X176236286Y-104338381D01*
X175998190Y-103290762D02*
X175760095Y-104005048D01*
X176379143Y-104005048D01*
X177188667Y-103671714D02*
X177188667Y-104338381D01*
X176950571Y-103290762D02*
X176712476Y-104005048D01*
X177331524Y-104005048D01*
X174761714Y-107480381D02*
X174761714Y-106480381D01*
X174999809Y-106480381D01*
X175142667Y-106528000D01*
X175237905Y-106623238D01*
X175285524Y-106718476D01*
X175333143Y-106908952D01*
X175333143Y-107051810D01*
X175285524Y-107242286D01*
X175237905Y-107337524D01*
X175142667Y-107432762D01*
X174999809Y-107480381D01*
X174761714Y-107480381D01*
X176190286Y-106813714D02*
X176190286Y-107480381D01*
X175952190Y-106432762D02*
X175714095Y-107147048D01*
X176333143Y-107147048D01*
X177190286Y-106480381D02*
X176714095Y-106480381D01*
X176666476Y-106956571D01*
X176714095Y-106908952D01*
X176809333Y-106861333D01*
X177047429Y-106861333D01*
X177142667Y-106908952D01*
X177190286Y-106956571D01*
X177237905Y-107051810D01*
X177237905Y-107289905D01*
X177190286Y-107385143D01*
X177142667Y-107432762D01*
X177047429Y-107480381D01*
X176809333Y-107480381D01*
X176714095Y-107432762D01*
X176666476Y-107385143D01*
X174807714Y-122372381D02*
X174807714Y-121372381D01*
X175045809Y-121372381D01*
X175188667Y-121420000D01*
X175283905Y-121515238D01*
X175331524Y-121610476D01*
X175379143Y-121800952D01*
X175379143Y-121943810D01*
X175331524Y-122134286D01*
X175283905Y-122229524D01*
X175188667Y-122324762D01*
X175045809Y-122372381D01*
X174807714Y-122372381D01*
X176236286Y-121705714D02*
X176236286Y-122372381D01*
X175998190Y-121324762D02*
X175760095Y-122039048D01*
X176379143Y-122039048D01*
X177188667Y-121372381D02*
X176998190Y-121372381D01*
X176902952Y-121420000D01*
X176855333Y-121467619D01*
X176760095Y-121610476D01*
X176712476Y-121800952D01*
X176712476Y-122181905D01*
X176760095Y-122277143D01*
X176807714Y-122324762D01*
X176902952Y-122372381D01*
X177093429Y-122372381D01*
X177188667Y-122324762D01*
X177236286Y-122277143D01*
X177283905Y-122181905D01*
X177283905Y-121943810D01*
X177236286Y-121848571D01*
X177188667Y-121800952D01*
X177093429Y-121753333D01*
X176902952Y-121753333D01*
X176807714Y-121800952D01*
X176760095Y-121848571D01*
X176712476Y-121943810D01*
X174761714Y-125480381D02*
X174761714Y-124480381D01*
X174999809Y-124480381D01*
X175142667Y-124528000D01*
X175237905Y-124623238D01*
X175285524Y-124718476D01*
X175333143Y-124908952D01*
X175333143Y-125051810D01*
X175285524Y-125242286D01*
X175237905Y-125337524D01*
X175142667Y-125432762D01*
X174999809Y-125480381D01*
X174761714Y-125480381D01*
X176190286Y-124813714D02*
X176190286Y-125480381D01*
X175952190Y-124432762D02*
X175714095Y-125147048D01*
X176333143Y-125147048D01*
X176618857Y-124480381D02*
X177285524Y-124480381D01*
X176856952Y-125480381D01*
X156773714Y-104338381D02*
X156773714Y-103338381D01*
X157011809Y-103338381D01*
X157154667Y-103386000D01*
X157249905Y-103481238D01*
X157297524Y-103576476D01*
X157345143Y-103766952D01*
X157345143Y-103909810D01*
X157297524Y-104100286D01*
X157249905Y-104195524D01*
X157154667Y-104290762D01*
X157011809Y-104338381D01*
X156773714Y-104338381D01*
X158297524Y-104338381D02*
X157726095Y-104338381D01*
X158011809Y-104338381D02*
X158011809Y-103338381D01*
X157916571Y-103481238D01*
X157821333Y-103576476D01*
X157726095Y-103624095D01*
X158678476Y-103433619D02*
X158726095Y-103386000D01*
X158821333Y-103338381D01*
X159059429Y-103338381D01*
X159154667Y-103386000D01*
X159202286Y-103433619D01*
X159249905Y-103528857D01*
X159249905Y-103624095D01*
X159202286Y-103766952D01*
X158630857Y-104338381D01*
X159249905Y-104338381D01*
X121237905Y-71480381D02*
X121237905Y-70480381D01*
X121476000Y-70480381D01*
X121618858Y-70528000D01*
X121714096Y-70623238D01*
X121761715Y-70718476D01*
X121809334Y-70908952D01*
X121809334Y-71051810D01*
X121761715Y-71242286D01*
X121714096Y-71337524D01*
X121618858Y-71432762D01*
X121476000Y-71480381D01*
X121237905Y-71480381D01*
X122761715Y-71480381D02*
X122190286Y-71480381D01*
X122476000Y-71480381D02*
X122476000Y-70480381D01*
X122380762Y-70623238D01*
X122285524Y-70718476D01*
X122190286Y-70766095D01*
X121181905Y-86304381D02*
X121181905Y-85304381D01*
X121420000Y-85304381D01*
X121562858Y-85352000D01*
X121658096Y-85447238D01*
X121705715Y-85542476D01*
X121753334Y-85732952D01*
X121753334Y-85875810D01*
X121705715Y-86066286D01*
X121658096Y-86161524D01*
X121562858Y-86256762D01*
X121420000Y-86304381D01*
X121181905Y-86304381D01*
X122134286Y-85399619D02*
X122181905Y-85352000D01*
X122277143Y-85304381D01*
X122515239Y-85304381D01*
X122610477Y-85352000D01*
X122658096Y-85399619D01*
X122705715Y-85494857D01*
X122705715Y-85590095D01*
X122658096Y-85732952D01*
X122086667Y-86304381D01*
X122705715Y-86304381D01*
X121237905Y-89480381D02*
X121237905Y-88480381D01*
X121476000Y-88480381D01*
X121618858Y-88528000D01*
X121714096Y-88623238D01*
X121761715Y-88718476D01*
X121809334Y-88908952D01*
X121809334Y-89051810D01*
X121761715Y-89242286D01*
X121714096Y-89337524D01*
X121618858Y-89432762D01*
X121476000Y-89480381D01*
X121237905Y-89480381D01*
X122142667Y-88480381D02*
X122761715Y-88480381D01*
X122428381Y-88861333D01*
X122571239Y-88861333D01*
X122666477Y-88908952D01*
X122714096Y-88956571D01*
X122761715Y-89051810D01*
X122761715Y-89289905D01*
X122714096Y-89385143D01*
X122666477Y-89432762D01*
X122571239Y-89480381D01*
X122285524Y-89480381D01*
X122190286Y-89432762D01*
X122142667Y-89385143D01*
X121181905Y-104338381D02*
X121181905Y-103338381D01*
X121420000Y-103338381D01*
X121562858Y-103386000D01*
X121658096Y-103481238D01*
X121705715Y-103576476D01*
X121753334Y-103766952D01*
X121753334Y-103909810D01*
X121705715Y-104100286D01*
X121658096Y-104195524D01*
X121562858Y-104290762D01*
X121420000Y-104338381D01*
X121181905Y-104338381D01*
X122610477Y-103671714D02*
X122610477Y-104338381D01*
X122372381Y-103290762D02*
X122134286Y-104005048D01*
X122753334Y-104005048D01*
X121237905Y-107480381D02*
X121237905Y-106480381D01*
X121476000Y-106480381D01*
X121618858Y-106528000D01*
X121714096Y-106623238D01*
X121761715Y-106718476D01*
X121809334Y-106908952D01*
X121809334Y-107051810D01*
X121761715Y-107242286D01*
X121714096Y-107337524D01*
X121618858Y-107432762D01*
X121476000Y-107480381D01*
X121237905Y-107480381D01*
X122714096Y-106480381D02*
X122237905Y-106480381D01*
X122190286Y-106956571D01*
X122237905Y-106908952D01*
X122333143Y-106861333D01*
X122571239Y-106861333D01*
X122666477Y-106908952D01*
X122714096Y-106956571D01*
X122761715Y-107051810D01*
X122761715Y-107289905D01*
X122714096Y-107385143D01*
X122666477Y-107432762D01*
X122571239Y-107480381D01*
X122333143Y-107480381D01*
X122237905Y-107432762D01*
X122190286Y-107385143D01*
X121181905Y-122372381D02*
X121181905Y-121372381D01*
X121420000Y-121372381D01*
X121562858Y-121420000D01*
X121658096Y-121515238D01*
X121705715Y-121610476D01*
X121753334Y-121800952D01*
X121753334Y-121943810D01*
X121705715Y-122134286D01*
X121658096Y-122229524D01*
X121562858Y-122324762D01*
X121420000Y-122372381D01*
X121181905Y-122372381D01*
X122610477Y-121372381D02*
X122420000Y-121372381D01*
X122324762Y-121420000D01*
X122277143Y-121467619D01*
X122181905Y-121610476D01*
X122134286Y-121800952D01*
X122134286Y-122181905D01*
X122181905Y-122277143D01*
X122229524Y-122324762D01*
X122324762Y-122372381D01*
X122515239Y-122372381D01*
X122610477Y-122324762D01*
X122658096Y-122277143D01*
X122705715Y-122181905D01*
X122705715Y-121943810D01*
X122658096Y-121848571D01*
X122610477Y-121800952D01*
X122515239Y-121753333D01*
X122324762Y-121753333D01*
X122229524Y-121800952D01*
X122181905Y-121848571D01*
X122134286Y-121943810D01*
X121237905Y-125480381D02*
X121237905Y-124480381D01*
X121476000Y-124480381D01*
X121618858Y-124528000D01*
X121714096Y-124623238D01*
X121761715Y-124718476D01*
X121809334Y-124908952D01*
X121809334Y-125051810D01*
X121761715Y-125242286D01*
X121714096Y-125337524D01*
X121618858Y-125432762D01*
X121476000Y-125480381D01*
X121237905Y-125480381D01*
X122142667Y-124480381D02*
X122809334Y-124480381D01*
X122380762Y-125480381D01*
X121181905Y-140406381D02*
X121181905Y-139406381D01*
X121420000Y-139406381D01*
X121562858Y-139454000D01*
X121658096Y-139549238D01*
X121705715Y-139644476D01*
X121753334Y-139834952D01*
X121753334Y-139977810D01*
X121705715Y-140168286D01*
X121658096Y-140263524D01*
X121562858Y-140358762D01*
X121420000Y-140406381D01*
X121181905Y-140406381D01*
X122324762Y-139834952D02*
X122229524Y-139787333D01*
X122181905Y-139739714D01*
X122134286Y-139644476D01*
X122134286Y-139596857D01*
X122181905Y-139501619D01*
X122229524Y-139454000D01*
X122324762Y-139406381D01*
X122515239Y-139406381D01*
X122610477Y-139454000D01*
X122658096Y-139501619D01*
X122705715Y-139596857D01*
X122705715Y-139644476D01*
X122658096Y-139739714D01*
X122610477Y-139787333D01*
X122515239Y-139834952D01*
X122324762Y-139834952D01*
X122229524Y-139882571D01*
X122181905Y-139930190D01*
X122134286Y-140025429D01*
X122134286Y-140215905D01*
X122181905Y-140311143D01*
X122229524Y-140358762D01*
X122324762Y-140406381D01*
X122515239Y-140406381D01*
X122610477Y-140358762D01*
X122658096Y-140311143D01*
X122705715Y-140215905D01*
X122705715Y-140025429D01*
X122658096Y-139930190D01*
X122610477Y-139882571D01*
X122515239Y-139834952D01*
X157237905Y-71480381D02*
X157237905Y-70480381D01*
X157476000Y-70480381D01*
X157618858Y-70528000D01*
X157714096Y-70623238D01*
X157761715Y-70718476D01*
X157809334Y-70908952D01*
X157809334Y-71051810D01*
X157761715Y-71242286D01*
X157714096Y-71337524D01*
X157618858Y-71432762D01*
X157476000Y-71480381D01*
X157237905Y-71480381D01*
X158285524Y-71480381D02*
X158476000Y-71480381D01*
X158571239Y-71432762D01*
X158618858Y-71385143D01*
X158714096Y-71242286D01*
X158761715Y-71051810D01*
X158761715Y-70670857D01*
X158714096Y-70575619D01*
X158666477Y-70528000D01*
X158571239Y-70480381D01*
X158380762Y-70480381D01*
X158285524Y-70528000D01*
X158237905Y-70575619D01*
X158190286Y-70670857D01*
X158190286Y-70908952D01*
X158237905Y-71004190D01*
X158285524Y-71051810D01*
X158380762Y-71099429D01*
X158571239Y-71099429D01*
X158666477Y-71051810D01*
X158714096Y-71004190D01*
X158761715Y-70908952D01*
X156773714Y-86304381D02*
X156773714Y-85304381D01*
X157011809Y-85304381D01*
X157154667Y-85352000D01*
X157249905Y-85447238D01*
X157297524Y-85542476D01*
X157345143Y-85732952D01*
X157345143Y-85875810D01*
X157297524Y-86066286D01*
X157249905Y-86161524D01*
X157154667Y-86256762D01*
X157011809Y-86304381D01*
X156773714Y-86304381D01*
X158297524Y-86304381D02*
X157726095Y-86304381D01*
X158011809Y-86304381D02*
X158011809Y-85304381D01*
X157916571Y-85447238D01*
X157821333Y-85542476D01*
X157726095Y-85590095D01*
X158916571Y-85304381D02*
X159011810Y-85304381D01*
X159107048Y-85352000D01*
X159154667Y-85399619D01*
X159202286Y-85494857D01*
X159249905Y-85685333D01*
X159249905Y-85923429D01*
X159202286Y-86113905D01*
X159154667Y-86209143D01*
X159107048Y-86256762D01*
X159011810Y-86304381D01*
X158916571Y-86304381D01*
X158821333Y-86256762D01*
X158773714Y-86209143D01*
X158726095Y-86113905D01*
X158678476Y-85923429D01*
X158678476Y-85685333D01*
X158726095Y-85494857D01*
X158773714Y-85399619D01*
X158821333Y-85352000D01*
X158916571Y-85304381D01*
X156761714Y-89480381D02*
X156761714Y-88480381D01*
X156999809Y-88480381D01*
X157142667Y-88528000D01*
X157237905Y-88623238D01*
X157285524Y-88718476D01*
X157333143Y-88908952D01*
X157333143Y-89051810D01*
X157285524Y-89242286D01*
X157237905Y-89337524D01*
X157142667Y-89432762D01*
X156999809Y-89480381D01*
X156761714Y-89480381D01*
X158285524Y-89480381D02*
X157714095Y-89480381D01*
X157999809Y-89480381D02*
X157999809Y-88480381D01*
X157904571Y-88623238D01*
X157809333Y-88718476D01*
X157714095Y-88766095D01*
X159237905Y-89480381D02*
X158666476Y-89480381D01*
X158952190Y-89480381D02*
X158952190Y-88480381D01*
X158856952Y-88623238D01*
X158761714Y-88718476D01*
X158666476Y-88766095D01*
X192841714Y-140406381D02*
X192841714Y-139406381D01*
X193079809Y-139406381D01*
X193222667Y-139454000D01*
X193317905Y-139549238D01*
X193365524Y-139644476D01*
X193413143Y-139834952D01*
X193413143Y-139977810D01*
X193365524Y-140168286D01*
X193317905Y-140263524D01*
X193222667Y-140358762D01*
X193079809Y-140406381D01*
X192841714Y-140406381D01*
X193794095Y-139501619D02*
X193841714Y-139454000D01*
X193936952Y-139406381D01*
X194175048Y-139406381D01*
X194270286Y-139454000D01*
X194317905Y-139501619D01*
X194365524Y-139596857D01*
X194365524Y-139692095D01*
X194317905Y-139834952D01*
X193746476Y-140406381D01*
X194365524Y-140406381D01*
X195222667Y-139739714D02*
X195222667Y-140406381D01*
X194984571Y-139358762D02*
X194746476Y-140073048D01*
X195365524Y-140073048D01*
X156761714Y-107480381D02*
X156761714Y-106480381D01*
X156999809Y-106480381D01*
X157142667Y-106528000D01*
X157237905Y-106623238D01*
X157285524Y-106718476D01*
X157333143Y-106908952D01*
X157333143Y-107051810D01*
X157285524Y-107242286D01*
X157237905Y-107337524D01*
X157142667Y-107432762D01*
X156999809Y-107480381D01*
X156761714Y-107480381D01*
X158285524Y-107480381D02*
X157714095Y-107480381D01*
X157999809Y-107480381D02*
X157999809Y-106480381D01*
X157904571Y-106623238D01*
X157809333Y-106718476D01*
X157714095Y-106766095D01*
X158618857Y-106480381D02*
X159237905Y-106480381D01*
X158904571Y-106861333D01*
X159047429Y-106861333D01*
X159142667Y-106908952D01*
X159190286Y-106956571D01*
X159237905Y-107051810D01*
X159237905Y-107289905D01*
X159190286Y-107385143D01*
X159142667Y-107432762D01*
X159047429Y-107480381D01*
X158761714Y-107480381D01*
X158666476Y-107432762D01*
X158618857Y-107385143D01*
X156773714Y-122372381D02*
X156773714Y-121372381D01*
X157011809Y-121372381D01*
X157154667Y-121420000D01*
X157249905Y-121515238D01*
X157297524Y-121610476D01*
X157345143Y-121800952D01*
X157345143Y-121943810D01*
X157297524Y-122134286D01*
X157249905Y-122229524D01*
X157154667Y-122324762D01*
X157011809Y-122372381D01*
X156773714Y-122372381D01*
X158297524Y-122372381D02*
X157726095Y-122372381D01*
X158011809Y-122372381D02*
X158011809Y-121372381D01*
X157916571Y-121515238D01*
X157821333Y-121610476D01*
X157726095Y-121658095D01*
X159154667Y-121705714D02*
X159154667Y-122372381D01*
X158916571Y-121324762D02*
X158678476Y-122039048D01*
X159297524Y-122039048D01*
X156761714Y-125480381D02*
X156761714Y-124480381D01*
X156999809Y-124480381D01*
X157142667Y-124528000D01*
X157237905Y-124623238D01*
X157285524Y-124718476D01*
X157333143Y-124908952D01*
X157333143Y-125051810D01*
X157285524Y-125242286D01*
X157237905Y-125337524D01*
X157142667Y-125432762D01*
X156999809Y-125480381D01*
X156761714Y-125480381D01*
X158285524Y-125480381D02*
X157714095Y-125480381D01*
X157999809Y-125480381D02*
X157999809Y-124480381D01*
X157904571Y-124623238D01*
X157809333Y-124718476D01*
X157714095Y-124766095D01*
X159190286Y-124480381D02*
X158714095Y-124480381D01*
X158666476Y-124956571D01*
X158714095Y-124908952D01*
X158809333Y-124861333D01*
X159047429Y-124861333D01*
X159142667Y-124908952D01*
X159190286Y-124956571D01*
X159237905Y-125051810D01*
X159237905Y-125289905D01*
X159190286Y-125385143D01*
X159142667Y-125432762D01*
X159047429Y-125480381D01*
X158809333Y-125480381D01*
X158714095Y-125432762D01*
X158666476Y-125385143D01*
X156773714Y-140406381D02*
X156773714Y-139406381D01*
X157011809Y-139406381D01*
X157154667Y-139454000D01*
X157249905Y-139549238D01*
X157297524Y-139644476D01*
X157345143Y-139834952D01*
X157345143Y-139977810D01*
X157297524Y-140168286D01*
X157249905Y-140263524D01*
X157154667Y-140358762D01*
X157011809Y-140406381D01*
X156773714Y-140406381D01*
X158297524Y-140406381D02*
X157726095Y-140406381D01*
X158011809Y-140406381D02*
X158011809Y-139406381D01*
X157916571Y-139549238D01*
X157821333Y-139644476D01*
X157726095Y-139692095D01*
X159154667Y-139406381D02*
X158964190Y-139406381D01*
X158868952Y-139454000D01*
X158821333Y-139501619D01*
X158726095Y-139644476D01*
X158678476Y-139834952D01*
X158678476Y-140215905D01*
X158726095Y-140311143D01*
X158773714Y-140358762D01*
X158868952Y-140406381D01*
X159059429Y-140406381D01*
X159154667Y-140358762D01*
X159202286Y-140311143D01*
X159249905Y-140215905D01*
X159249905Y-139977810D01*
X159202286Y-139882571D01*
X159154667Y-139834952D01*
X159059429Y-139787333D01*
X158868952Y-139787333D01*
X158773714Y-139834952D01*
X158726095Y-139882571D01*
X158678476Y-139977810D01*
X192761714Y-71480381D02*
X192761714Y-70480381D01*
X192999809Y-70480381D01*
X193142667Y-70528000D01*
X193237905Y-70623238D01*
X193285524Y-70718476D01*
X193333143Y-70908952D01*
X193333143Y-71051810D01*
X193285524Y-71242286D01*
X193237905Y-71337524D01*
X193142667Y-71432762D01*
X192999809Y-71480381D01*
X192761714Y-71480381D01*
X194285524Y-71480381D02*
X193714095Y-71480381D01*
X193999809Y-71480381D02*
X193999809Y-70480381D01*
X193904571Y-70623238D01*
X193809333Y-70718476D01*
X193714095Y-70766095D01*
X194618857Y-70480381D02*
X195285524Y-70480381D01*
X194856952Y-71480381D01*
X192841714Y-86304381D02*
X192841714Y-85304381D01*
X193079809Y-85304381D01*
X193222667Y-85352000D01*
X193317905Y-85447238D01*
X193365524Y-85542476D01*
X193413143Y-85732952D01*
X193413143Y-85875810D01*
X193365524Y-86066286D01*
X193317905Y-86161524D01*
X193222667Y-86256762D01*
X193079809Y-86304381D01*
X192841714Y-86304381D01*
X194365524Y-86304381D02*
X193794095Y-86304381D01*
X194079809Y-86304381D02*
X194079809Y-85304381D01*
X193984571Y-85447238D01*
X193889333Y-85542476D01*
X193794095Y-85590095D01*
X194936952Y-85732952D02*
X194841714Y-85685333D01*
X194794095Y-85637714D01*
X194746476Y-85542476D01*
X194746476Y-85494857D01*
X194794095Y-85399619D01*
X194841714Y-85352000D01*
X194936952Y-85304381D01*
X195127429Y-85304381D01*
X195222667Y-85352000D01*
X195270286Y-85399619D01*
X195317905Y-85494857D01*
X195317905Y-85542476D01*
X195270286Y-85637714D01*
X195222667Y-85685333D01*
X195127429Y-85732952D01*
X194936952Y-85732952D01*
X194841714Y-85780571D01*
X194794095Y-85828190D01*
X194746476Y-85923429D01*
X194746476Y-86113905D01*
X194794095Y-86209143D01*
X194841714Y-86256762D01*
X194936952Y-86304381D01*
X195127429Y-86304381D01*
X195222667Y-86256762D01*
X195270286Y-86209143D01*
X195317905Y-86113905D01*
X195317905Y-85923429D01*
X195270286Y-85828190D01*
X195222667Y-85780571D01*
X195127429Y-85732952D01*
X192761714Y-89480381D02*
X192761714Y-88480381D01*
X192999809Y-88480381D01*
X193142667Y-88528000D01*
X193237905Y-88623238D01*
X193285524Y-88718476D01*
X193333143Y-88908952D01*
X193333143Y-89051810D01*
X193285524Y-89242286D01*
X193237905Y-89337524D01*
X193142667Y-89432762D01*
X192999809Y-89480381D01*
X192761714Y-89480381D01*
X194285524Y-89480381D02*
X193714095Y-89480381D01*
X193999809Y-89480381D02*
X193999809Y-88480381D01*
X193904571Y-88623238D01*
X193809333Y-88718476D01*
X193714095Y-88766095D01*
X194761714Y-89480381D02*
X194952190Y-89480381D01*
X195047429Y-89432762D01*
X195095048Y-89385143D01*
X195190286Y-89242286D01*
X195237905Y-89051810D01*
X195237905Y-88670857D01*
X195190286Y-88575619D01*
X195142667Y-88528000D01*
X195047429Y-88480381D01*
X194856952Y-88480381D01*
X194761714Y-88528000D01*
X194714095Y-88575619D01*
X194666476Y-88670857D01*
X194666476Y-88908952D01*
X194714095Y-89004190D01*
X194761714Y-89051810D01*
X194856952Y-89099429D01*
X195047429Y-89099429D01*
X195142667Y-89051810D01*
X195190286Y-89004190D01*
X195237905Y-88908952D01*
X192841714Y-104338381D02*
X192841714Y-103338381D01*
X193079809Y-103338381D01*
X193222667Y-103386000D01*
X193317905Y-103481238D01*
X193365524Y-103576476D01*
X193413143Y-103766952D01*
X193413143Y-103909810D01*
X193365524Y-104100286D01*
X193317905Y-104195524D01*
X193222667Y-104290762D01*
X193079809Y-104338381D01*
X192841714Y-104338381D01*
X193794095Y-103433619D02*
X193841714Y-103386000D01*
X193936952Y-103338381D01*
X194175048Y-103338381D01*
X194270286Y-103386000D01*
X194317905Y-103433619D01*
X194365524Y-103528857D01*
X194365524Y-103624095D01*
X194317905Y-103766952D01*
X193746476Y-104338381D01*
X194365524Y-104338381D01*
X194984571Y-103338381D02*
X195079810Y-103338381D01*
X195175048Y-103386000D01*
X195222667Y-103433619D01*
X195270286Y-103528857D01*
X195317905Y-103719333D01*
X195317905Y-103957429D01*
X195270286Y-104147905D01*
X195222667Y-104243143D01*
X195175048Y-104290762D01*
X195079810Y-104338381D01*
X194984571Y-104338381D01*
X194889333Y-104290762D01*
X194841714Y-104243143D01*
X194794095Y-104147905D01*
X194746476Y-103957429D01*
X194746476Y-103719333D01*
X194794095Y-103528857D01*
X194841714Y-103433619D01*
X194889333Y-103386000D01*
X194984571Y-103338381D01*
X192761714Y-107480381D02*
X192761714Y-106480381D01*
X192999809Y-106480381D01*
X193142667Y-106528000D01*
X193237905Y-106623238D01*
X193285524Y-106718476D01*
X193333143Y-106908952D01*
X193333143Y-107051810D01*
X193285524Y-107242286D01*
X193237905Y-107337524D01*
X193142667Y-107432762D01*
X192999809Y-107480381D01*
X192761714Y-107480381D01*
X193714095Y-106575619D02*
X193761714Y-106528000D01*
X193856952Y-106480381D01*
X194095048Y-106480381D01*
X194190286Y-106528000D01*
X194237905Y-106575619D01*
X194285524Y-106670857D01*
X194285524Y-106766095D01*
X194237905Y-106908952D01*
X193666476Y-107480381D01*
X194285524Y-107480381D01*
X195237905Y-107480381D02*
X194666476Y-107480381D01*
X194952190Y-107480381D02*
X194952190Y-106480381D01*
X194856952Y-106623238D01*
X194761714Y-106718476D01*
X194666476Y-106766095D01*
X192841714Y-122372381D02*
X192841714Y-121372381D01*
X193079809Y-121372381D01*
X193222667Y-121420000D01*
X193317905Y-121515238D01*
X193365524Y-121610476D01*
X193413143Y-121800952D01*
X193413143Y-121943810D01*
X193365524Y-122134286D01*
X193317905Y-122229524D01*
X193222667Y-122324762D01*
X193079809Y-122372381D01*
X192841714Y-122372381D01*
X193794095Y-121467619D02*
X193841714Y-121420000D01*
X193936952Y-121372381D01*
X194175048Y-121372381D01*
X194270286Y-121420000D01*
X194317905Y-121467619D01*
X194365524Y-121562857D01*
X194365524Y-121658095D01*
X194317905Y-121800952D01*
X193746476Y-122372381D01*
X194365524Y-122372381D01*
X194746476Y-121467619D02*
X194794095Y-121420000D01*
X194889333Y-121372381D01*
X195127429Y-121372381D01*
X195222667Y-121420000D01*
X195270286Y-121467619D01*
X195317905Y-121562857D01*
X195317905Y-121658095D01*
X195270286Y-121800952D01*
X194698857Y-122372381D01*
X195317905Y-122372381D01*
X192761714Y-125480381D02*
X192761714Y-124480381D01*
X192999809Y-124480381D01*
X193142667Y-124528000D01*
X193237905Y-124623238D01*
X193285524Y-124718476D01*
X193333143Y-124908952D01*
X193333143Y-125051810D01*
X193285524Y-125242286D01*
X193237905Y-125337524D01*
X193142667Y-125432762D01*
X192999809Y-125480381D01*
X192761714Y-125480381D01*
X193714095Y-124575619D02*
X193761714Y-124528000D01*
X193856952Y-124480381D01*
X194095048Y-124480381D01*
X194190286Y-124528000D01*
X194237905Y-124575619D01*
X194285524Y-124670857D01*
X194285524Y-124766095D01*
X194237905Y-124908952D01*
X193666476Y-125480381D01*
X194285524Y-125480381D01*
X194618857Y-124480381D02*
X195237905Y-124480381D01*
X194904571Y-124861333D01*
X195047429Y-124861333D01*
X195142667Y-124908952D01*
X195190286Y-124956571D01*
X195237905Y-125051810D01*
X195237905Y-125289905D01*
X195190286Y-125385143D01*
X195142667Y-125432762D01*
X195047429Y-125480381D01*
X194761714Y-125480381D01*
X194666476Y-125432762D01*
X194618857Y-125385143D01*
X67111715Y-131675143D02*
X67064096Y-131722762D01*
X66921239Y-131770381D01*
X66826001Y-131770381D01*
X66683143Y-131722762D01*
X66587905Y-131627524D01*
X66540286Y-131532286D01*
X66492667Y-131341810D01*
X66492667Y-131198952D01*
X66540286Y-131008476D01*
X66587905Y-130913238D01*
X66683143Y-130818000D01*
X66826001Y-130770381D01*
X66921239Y-130770381D01*
X67064096Y-130818000D01*
X67111715Y-130865619D01*
X67730762Y-130770381D02*
X67921239Y-130770381D01*
X68016477Y-130818000D01*
X68111715Y-130913238D01*
X68159334Y-131103714D01*
X68159334Y-131437048D01*
X68111715Y-131627524D01*
X68016477Y-131722762D01*
X67921239Y-131770381D01*
X67730762Y-131770381D01*
X67635524Y-131722762D01*
X67540286Y-131627524D01*
X67492667Y-131437048D01*
X67492667Y-131103714D01*
X67540286Y-130913238D01*
X67635524Y-130818000D01*
X67730762Y-130770381D01*
X68587905Y-131770381D02*
X68587905Y-130770381D01*
X69159334Y-131770381D01*
X69159334Y-130770381D01*
X70159334Y-131770381D02*
X69587905Y-131770381D01*
X69873619Y-131770381D02*
X69873619Y-130770381D01*
X69778381Y-130913238D01*
X69683143Y-131008476D01*
X69587905Y-131056095D01*
M02*
