M48
;DRILL file {KiCad 4.0.1-stable} date 6/7/2017 10:06:39 PM
;FORMAT={-:-/ absolute / inch / decimal}
FMAT,2
INCH,TZ
T1C0.012
T2C0.025
T3C0.040
T4C0.040
T5C0.059
T6C0.060
T7C0.118
T8C0.118
%
G90
G05
M72
T1
X4.3967Y-4.0724
X4.3967Y-4.1235
X4.3967Y-4.1747
X4.3967Y-4.2259
X4.3967Y-4.2771
X4.3967Y-4.3283
X4.3967Y-4.3794
X4.4479Y-4.0724
X4.4479Y-4.1235
X4.4479Y-4.1747
X4.4479Y-4.2259
X4.4479Y-4.2771
X4.4479Y-4.3283
X4.4479Y-4.3794
X4.4991Y-4.0724
X4.4991Y-4.1235
X4.4991Y-4.1747
X4.4991Y-4.2259
X4.4991Y-4.2771
X4.4991Y-4.3283
X4.4991Y-4.3794
X5.814Y-4.0724
X5.814Y-4.1235
X5.814Y-4.1747
X5.814Y-4.2259
X5.814Y-4.2771
X5.814Y-4.3283
X5.814Y-4.3794
X5.8652Y-4.0724
X5.8652Y-4.1235
X5.8652Y-4.1747
X5.8652Y-4.2259
X5.8652Y-4.2771
X5.8652Y-4.3283
X5.8652Y-4.3794
X5.9164Y-4.0724
X5.9164Y-4.1235
X5.9164Y-4.1747
X5.9164Y-4.2259
X5.9164Y-4.2771
X5.9164Y-4.3283
X5.9164Y-4.3794
X7.2313Y-4.0724
X7.2313Y-4.1235
X7.2313Y-4.1747
X7.2313Y-4.2259
X7.2313Y-4.2771
X7.2313Y-4.3283
X7.2313Y-4.3794
X7.2825Y-4.0724
X7.2825Y-4.1235
X7.2825Y-4.1747
X7.2825Y-4.2259
X7.2825Y-4.2771
X7.2825Y-4.3283
X7.2825Y-4.3794
X7.3337Y-4.0724
X7.3337Y-4.1235
X7.3337Y-4.1747
X7.3337Y-4.2259
X7.3337Y-4.2771
X7.3337Y-4.3283
X7.3337Y-4.3794
T2
X2.7253Y-3.5107
X2.73Y-4.9
X2.73Y-4.95
X2.73Y-5.
X2.73Y-5.05
X2.87Y-5.11
X2.89Y-2.79
X2.89Y-3.09
X2.9046Y-3.6235
X2.94Y-3.5645
X2.98Y-3.62
X3.01Y-5.1
X3.0383Y-3.3985
X3.0481Y-3.5304
X3.1Y-2.8
X3.13Y-5.48
X3.1623Y-3.4871
X3.2Y-2.85
X3.245Y-3.369
X3.245Y-3.4182
X3.34Y-3.58
X3.4694Y-3.7391
X3.5324Y-4.243
X3.5363Y-4.4989
X3.55Y-3.43
X3.55Y-4.93
X3.5501Y-3.3788
X3.67Y-3.59
X3.67Y-4.14
X4.21Y-3.33
X4.22Y-3.65
X4.255Y-4.1354
X4.255Y-4.1826
X4.26Y-3.62
X4.2786Y-3.9897
X4.3101Y-4.4582
X4.3101Y-4.5054
X4.43Y-3.8
X4.4872Y-3.407
X4.49Y-3.83
X4.52Y-3.62
X4.57Y-3.63
X4.61Y-3.66
X4.6132Y-4.4582
X4.6132Y-4.5054
X4.6487Y-4.1039
X4.6526Y-3.2928
X4.6802Y-4.1393
X4.7195Y-4.1629
X4.7589Y-4.1865
X4.9557Y-4.0724
X4.9597Y-4.2692
X4.9872Y-3.4779
X4.9912Y-3.5802
X4.9912Y-4.2338
X5.0227Y-4.1983
X5.0266Y-3.4543
X5.0266Y-3.6117
X5.0266Y-4.1117
X5.062Y-3.3834
X5.062Y-3.5763
X5.0935Y-4.1511
X5.1014Y-3.3558
X5.1014Y-3.6039
X5.129Y-3.9306
X5.3691Y-4.0842
X5.3691Y-4.2338
X5.64Y-3.65
X5.6605Y-3.2731
X5.6723Y-4.1354
X5.6723Y-4.1826
X5.69Y-3.65
X5.6959Y-3.9897
X5.7274Y-4.4582
X5.7274Y-4.5054
X5.7274Y-4.5527
X5.86Y-3.79
X5.9Y-3.82
X5.9046Y-3.407
X5.96Y-3.71
X6.Y-3.74
X6.0306Y-4.4582
X6.0306Y-4.5054
X6.0306Y-4.5527
X6.05Y-3.75
X6.066Y-4.1039
X6.0699Y-3.2928
X6.0975Y-4.1393
X6.1369Y-4.1629
X6.1762Y-4.1865
X6.3731Y-4.0724
X6.377Y-4.2692
X6.4046Y-3.4779
X6.4085Y-3.5802
X6.4085Y-4.2338
X6.44Y-4.1983
X6.4439Y-3.4543
X6.4439Y-3.6117
X6.4439Y-4.1117
X6.4794Y-3.3834
X6.4794Y-3.5763
X6.5463Y-3.9306
X6.7865Y-4.0842
X6.7865Y-4.2338
X7.04Y-3.7
X7.0778Y-3.2731
X7.0896Y-4.1354
X7.0896Y-4.1826
X7.1Y-3.65
X7.1132Y-3.9897
X7.1447Y-4.4582
X7.1447Y-4.5054
X7.1447Y-4.5566
X7.32Y-3.82
X7.3219Y-3.407
X7.33Y-3.64
X7.42Y-3.66
X7.4479Y-4.4582
X7.4479Y-4.5054
X7.4479Y-4.5566
X7.46Y-3.7
X7.4833Y-4.1039
X7.4872Y-3.2928
X7.5148Y-4.1393
X7.5542Y-4.1629
X7.5935Y-4.1865
X7.7904Y-4.0724
X7.7943Y-4.2692
X7.8258Y-4.2338
X7.8573Y-4.1983
X7.8613Y-4.1117
T3
X2.68Y-3.21
X2.68Y-3.31
X2.68Y-3.41
X2.78Y-3.21
X2.78Y-3.31
X2.78Y-3.41
T4
X4.0435Y-3.0413
X4.0435Y-3.3169
X4.0435Y-3.7499
X4.0435Y-4.0255
X4.0435Y-4.4586
X4.0435Y-4.7342
X4.0435Y-5.1672
X4.0435Y-5.4428
X4.1435Y-3.0413
X4.1435Y-3.3169
X4.1435Y-3.7499
X4.1435Y-4.0255
X4.1435Y-4.4586
X4.1435Y-4.7342
X4.1435Y-5.1672
X4.1435Y-5.4428
X4.7522Y-3.0413
X4.7522Y-3.3169
X4.7522Y-3.7499
X4.7522Y-4.0255
X4.7522Y-4.4586
X4.7522Y-4.7342
X4.7522Y-5.1672
X4.7522Y-5.4428
X4.8522Y-3.0413
X4.8522Y-3.3169
X4.8522Y-3.7499
X4.8522Y-4.0255
X4.8522Y-4.4586
X4.8522Y-4.7342
X4.8522Y-5.1672
X4.8522Y-5.4428
X5.4609Y-3.0413
X5.4609Y-3.3169
X5.4609Y-3.7499
X5.4609Y-4.0255
X5.4609Y-4.4586
X5.4609Y-4.7342
X5.4609Y-5.1672
X5.4609Y-5.4428
X5.5609Y-3.0413
X5.5609Y-3.3169
X5.5609Y-3.7499
X5.5609Y-4.0255
X5.5609Y-4.4586
X5.5609Y-4.7342
X5.5609Y-5.1672
X5.5609Y-5.4428
X6.1695Y-3.0413
X6.1695Y-3.3169
X6.1695Y-3.7499
X6.1695Y-4.0255
X6.1695Y-4.4586
X6.1695Y-4.7342
X6.1695Y-5.1672
X6.1695Y-5.4428
X6.2695Y-3.0413
X6.2695Y-3.3169
X6.2695Y-3.7499
X6.2695Y-4.0255
X6.2695Y-4.4586
X6.2695Y-4.7342
X6.2695Y-5.1672
X6.2695Y-5.4428
X6.8782Y-3.0413
X6.8782Y-3.3169
X6.8782Y-3.7499
X6.8782Y-4.0255
X6.8782Y-4.4586
X6.8782Y-4.7342
X6.8782Y-5.1672
X6.8782Y-5.4428
X6.9782Y-3.0413
X6.9782Y-3.3169
X6.9782Y-3.7499
X6.9782Y-4.0255
X6.9782Y-4.4586
X6.9782Y-4.7342
X6.9782Y-5.1672
X6.9782Y-5.4428
X7.5869Y-3.0413
X7.5869Y-3.3169
X7.5869Y-3.7499
X7.5869Y-4.0255
X7.5869Y-4.4586
X7.5869Y-4.7342
X7.5869Y-5.1672
X7.5869Y-5.4428
X7.6869Y-3.0413
X7.6869Y-3.3169
X7.6869Y-3.7499
X7.6869Y-4.0255
X7.6869Y-4.4586
X7.6869Y-4.7342
X7.6869Y-5.1672
X7.6869Y-5.4428
T5
X2.6369Y-3.8051
X2.6369Y-4.7559
T6
X4.0435Y-2.9464
X4.0435Y-3.222
X4.0435Y-3.655
X4.0435Y-3.9306
X4.0435Y-4.3637
X4.0435Y-4.6393
X4.0435Y-5.0724
X4.0435Y-5.348
X4.1435Y-2.9464
X4.1435Y-3.222
X4.1435Y-3.655
X4.1435Y-3.9306
X4.1435Y-4.3637
X4.1435Y-4.6393
X4.1435Y-5.0724
X4.1435Y-5.348
X4.7522Y-2.9464
X4.7522Y-3.222
X4.7522Y-3.655
X4.7522Y-3.9306
X4.7522Y-4.3637
X4.7522Y-4.6393
X4.7522Y-5.0724
X4.7522Y-5.348
X4.8522Y-2.9464
X4.8522Y-3.222
X4.8522Y-3.655
X4.8522Y-3.9306
X4.8522Y-4.3637
X4.8522Y-4.6393
X4.8522Y-5.0724
X4.8522Y-5.348
X5.4609Y-2.9464
X5.4609Y-3.222
X5.4609Y-3.655
X5.4609Y-3.9306
X5.4609Y-4.3637
X5.4609Y-4.6393
X5.4609Y-5.0724
X5.4609Y-5.348
X5.5609Y-2.9464
X5.5609Y-3.222
X5.5609Y-3.655
X5.5609Y-3.9306
X5.5609Y-4.3637
X5.5609Y-4.6393
X5.5609Y-5.0724
X5.5609Y-5.348
X6.1695Y-2.9464
X6.1695Y-3.222
X6.1695Y-3.655
X6.1695Y-3.9306
X6.1695Y-4.3637
X6.1695Y-4.6393
X6.1695Y-5.0724
X6.1695Y-5.348
X6.2695Y-2.9464
X6.2695Y-3.222
X6.2695Y-3.655
X6.2695Y-3.9306
X6.2695Y-4.3637
X6.2695Y-4.6393
X6.2695Y-5.0724
X6.2695Y-5.348
X6.8782Y-2.9464
X6.8782Y-3.222
X6.8782Y-3.655
X6.8782Y-3.9306
X6.8782Y-4.3637
X6.8782Y-4.6393
X6.8782Y-5.0724
X6.8782Y-5.348
X6.9782Y-2.9464
X6.9782Y-3.222
X6.9782Y-3.655
X6.9782Y-3.9306
X6.9782Y-4.3637
X6.9782Y-4.6393
X6.9782Y-5.0724
X6.9782Y-5.348
X7.5869Y-2.9464
X7.5869Y-3.222
X7.5869Y-3.655
X7.5869Y-3.9306
X7.5869Y-4.3637
X7.5869Y-4.6393
X7.5869Y-5.0724
X7.5869Y-5.348
X7.6869Y-2.9464
X7.6869Y-3.222
X7.6869Y-3.655
X7.6869Y-3.9306
X7.6869Y-4.3637
X7.6869Y-4.6393
X7.6869Y-5.0724
X7.6869Y-5.348
T7
X2.826Y-5.485
T8
X2.7079Y-5.3
X2.9441Y-5.3
T0
M30
