G04 #@! TF.FileFunction,Soldermask,Bot*
%FSLAX46Y46*%
G04 Gerber Fmt 4.6, Leading zero omitted, Abs format (unit mm)*
G04 Created by KiCad (PCBNEW 4.0.1-stable) date 6/7/2017 10:05:46 PM*
%MOMM*%
G01*
G04 APERTURE LIST*
%ADD10C,0.150000*%
%ADD11C,1.520000*%
%ADD12R,0.889000X1.397000*%
%ADD13R,1.524000X1.524000*%
%ADD14C,1.524000*%
%ADD15R,1.397000X0.889000*%
%ADD16R,1.270000X0.406400*%
%ADD17R,2.400000X6.170000*%
%ADD18C,0.300000*%
%ADD19R,1.998980X0.449580*%
%ADD20R,0.449580X1.998980*%
%ADD21R,0.900000X1.000000*%
%ADD22R,1.500000X1.000000*%
%ADD23R,2.000000X1.200000*%
%ADD24C,1.600000*%
%ADD25R,1.600200X3.599180*%
%ADD26R,2.400300X3.500120*%
%ADD27R,1.220000X0.910000*%
%ADD28R,1.550000X0.600000*%
%ADD29R,5.100000X1.900000*%
%ADD30C,4.000000*%
G04 APERTURE END LIST*
D10*
D11*
X174706000Y-138248000D03*
X177246000Y-138248000D03*
X174706000Y-135838000D03*
X177246000Y-135838000D03*
X138706000Y-77248000D03*
X141246000Y-77248000D03*
X138706000Y-74838000D03*
X141246000Y-74838000D03*
X102706000Y-84248000D03*
X105246000Y-84248000D03*
X102706000Y-81838000D03*
X105246000Y-81838000D03*
D12*
X112023500Y-100838000D03*
X113928500Y-100838000D03*
X113928500Y-98838000D03*
X112023500Y-98838000D03*
X148023500Y-100838000D03*
X149928500Y-100838000D03*
X149928500Y-98838000D03*
X148023500Y-98838000D03*
X184023500Y-100838000D03*
X185928500Y-100838000D03*
X185928500Y-98838000D03*
X184023500Y-98838000D03*
X88836500Y-87376000D03*
X86931500Y-87376000D03*
X70167500Y-90932000D03*
X72072500Y-90932000D03*
D13*
X70612000Y-86614000D03*
D14*
X68072000Y-86614000D03*
X70612000Y-84074000D03*
X68072000Y-84074000D03*
X70612000Y-81534000D03*
X68072000Y-81534000D03*
D12*
X75120500Y-81534000D03*
X73215500Y-81534000D03*
X86128500Y-82438000D03*
X84223500Y-82438000D03*
D15*
X82042000Y-78676500D03*
X82042000Y-76771500D03*
X78994000Y-78676500D03*
X78994000Y-76771500D03*
X75946000Y-78676500D03*
X75946000Y-76771500D03*
D16*
X116532000Y-103147000D03*
X116532000Y-103782000D03*
X116532000Y-104442400D03*
X116532000Y-105102800D03*
X116532000Y-105737800D03*
X116532000Y-106398200D03*
X116532000Y-107058600D03*
X116532000Y-107693600D03*
X116532000Y-108354000D03*
X116532000Y-108989000D03*
X116532000Y-109649400D03*
X116532000Y-110309800D03*
X116532000Y-110944800D03*
X116532000Y-111605200D03*
X109420000Y-111605200D03*
X109420000Y-110944800D03*
X109420000Y-110335200D03*
X109420000Y-109649400D03*
X109420000Y-108989000D03*
X109420000Y-108354000D03*
X109420000Y-107693600D03*
X109420000Y-107058600D03*
X109420000Y-106398200D03*
X109420000Y-105737800D03*
X109420000Y-105102800D03*
X109420000Y-104442400D03*
X109420000Y-103782000D03*
X109420000Y-103147000D03*
D17*
X112976000Y-107338000D03*
D18*
X112976000Y-103438000D03*
X111676000Y-103438000D03*
X111676000Y-104738000D03*
X111676000Y-106038000D03*
X111676000Y-107338000D03*
X111676000Y-108638000D03*
X111676000Y-109938000D03*
X111676000Y-111238000D03*
X112976000Y-111238000D03*
X112976000Y-109938000D03*
X112976000Y-108638000D03*
X112976000Y-107338000D03*
X112976000Y-106038000D03*
X112976000Y-104738000D03*
X114276000Y-103438000D03*
X114276000Y-104738000D03*
X114276000Y-106038000D03*
X114276000Y-107338000D03*
X114276000Y-108638000D03*
X114276000Y-109938000D03*
X114276000Y-111238000D03*
D16*
X152532000Y-103147000D03*
X152532000Y-103782000D03*
X152532000Y-104442400D03*
X152532000Y-105102800D03*
X152532000Y-105737800D03*
X152532000Y-106398200D03*
X152532000Y-107058600D03*
X152532000Y-107693600D03*
X152532000Y-108354000D03*
X152532000Y-108989000D03*
X152532000Y-109649400D03*
X152532000Y-110309800D03*
X152532000Y-110944800D03*
X152532000Y-111605200D03*
X145420000Y-111605200D03*
X145420000Y-110944800D03*
X145420000Y-110335200D03*
X145420000Y-109649400D03*
X145420000Y-108989000D03*
X145420000Y-108354000D03*
X145420000Y-107693600D03*
X145420000Y-107058600D03*
X145420000Y-106398200D03*
X145420000Y-105737800D03*
X145420000Y-105102800D03*
X145420000Y-104442400D03*
X145420000Y-103782000D03*
X145420000Y-103147000D03*
D17*
X148976000Y-107338000D03*
D18*
X148976000Y-103438000D03*
X147676000Y-103438000D03*
X147676000Y-104738000D03*
X147676000Y-106038000D03*
X147676000Y-107338000D03*
X147676000Y-108638000D03*
X147676000Y-109938000D03*
X147676000Y-111238000D03*
X148976000Y-111238000D03*
X148976000Y-109938000D03*
X148976000Y-108638000D03*
X148976000Y-107338000D03*
X148976000Y-106038000D03*
X148976000Y-104738000D03*
X150276000Y-103438000D03*
X150276000Y-104738000D03*
X150276000Y-106038000D03*
X150276000Y-107338000D03*
X150276000Y-108638000D03*
X150276000Y-109938000D03*
X150276000Y-111238000D03*
D16*
X188532000Y-103147000D03*
X188532000Y-103782000D03*
X188532000Y-104442400D03*
X188532000Y-105102800D03*
X188532000Y-105737800D03*
X188532000Y-106398200D03*
X188532000Y-107058600D03*
X188532000Y-107693600D03*
X188532000Y-108354000D03*
X188532000Y-108989000D03*
X188532000Y-109649400D03*
X188532000Y-110309800D03*
X188532000Y-110944800D03*
X188532000Y-111605200D03*
X181420000Y-111605200D03*
X181420000Y-110944800D03*
X181420000Y-110335200D03*
X181420000Y-109649400D03*
X181420000Y-108989000D03*
X181420000Y-108354000D03*
X181420000Y-107693600D03*
X181420000Y-107058600D03*
X181420000Y-106398200D03*
X181420000Y-105737800D03*
X181420000Y-105102800D03*
X181420000Y-104442400D03*
X181420000Y-103782000D03*
X181420000Y-103147000D03*
D17*
X184976000Y-107338000D03*
D18*
X184976000Y-103438000D03*
X183676000Y-103438000D03*
X183676000Y-104738000D03*
X183676000Y-106038000D03*
X183676000Y-107338000D03*
X183676000Y-108638000D03*
X183676000Y-109938000D03*
X183676000Y-111238000D03*
X184976000Y-111238000D03*
X184976000Y-109938000D03*
X184976000Y-108638000D03*
X184976000Y-107338000D03*
X184976000Y-106038000D03*
X184976000Y-104738000D03*
X186276000Y-103438000D03*
X186276000Y-104738000D03*
X186276000Y-106038000D03*
X186276000Y-107338000D03*
X186276000Y-108638000D03*
X186276000Y-109938000D03*
X186276000Y-111238000D03*
D11*
X102706000Y-77248000D03*
X105246000Y-77248000D03*
X102706000Y-74838000D03*
X105246000Y-74838000D03*
X138706000Y-95248000D03*
X141246000Y-95248000D03*
X138706000Y-92838000D03*
X141246000Y-92838000D03*
X138706000Y-84248000D03*
X141246000Y-84248000D03*
X138706000Y-81838000D03*
X141246000Y-81838000D03*
X102706000Y-138248000D03*
X105246000Y-138248000D03*
X102706000Y-135838000D03*
X105246000Y-135838000D03*
X102706000Y-131248000D03*
X105246000Y-131248000D03*
X102706000Y-128838000D03*
X105246000Y-128838000D03*
X102706000Y-120248000D03*
X105246000Y-120248000D03*
X102706000Y-117838000D03*
X105246000Y-117838000D03*
X102706000Y-113248000D03*
X105246000Y-113248000D03*
X102706000Y-110838000D03*
X105246000Y-110838000D03*
X102706000Y-102248000D03*
X105246000Y-102248000D03*
X102706000Y-99838000D03*
X105246000Y-99838000D03*
X102706000Y-95248000D03*
X105246000Y-95248000D03*
X102706000Y-92838000D03*
X105246000Y-92838000D03*
X174706000Y-77248000D03*
X177246000Y-77248000D03*
X174706000Y-74838000D03*
X177246000Y-74838000D03*
X138706000Y-102248000D03*
X141246000Y-102248000D03*
X138706000Y-99838000D03*
X141246000Y-99838000D03*
X138706000Y-113248000D03*
X141246000Y-113248000D03*
X138706000Y-110838000D03*
X141246000Y-110838000D03*
X138706000Y-120248000D03*
X141246000Y-120248000D03*
X138706000Y-117838000D03*
X141246000Y-117838000D03*
X138706000Y-131248000D03*
X141246000Y-131248000D03*
X138706000Y-128838000D03*
X141246000Y-128838000D03*
X138706000Y-138248000D03*
X141246000Y-138248000D03*
X138706000Y-135838000D03*
X141246000Y-135838000D03*
X174706000Y-84248000D03*
X177246000Y-84248000D03*
X174706000Y-81838000D03*
X177246000Y-81838000D03*
X174706000Y-95248000D03*
X177246000Y-95248000D03*
X174706000Y-92838000D03*
X177246000Y-92838000D03*
X174706000Y-102248000D03*
X177246000Y-102248000D03*
X174706000Y-99838000D03*
X177246000Y-99838000D03*
X174706000Y-113248000D03*
X177246000Y-113248000D03*
X174706000Y-110838000D03*
X177246000Y-110838000D03*
X174706000Y-120248000D03*
X177246000Y-120248000D03*
X174706000Y-117838000D03*
X177246000Y-117838000D03*
X174706000Y-131248000D03*
X177246000Y-131248000D03*
X174706000Y-128838000D03*
X177246000Y-128838000D03*
X156706000Y-102248000D03*
X159246000Y-102248000D03*
X156706000Y-99838000D03*
X159246000Y-99838000D03*
X120706000Y-77248000D03*
X123246000Y-77248000D03*
X120706000Y-74838000D03*
X123246000Y-74838000D03*
X120706000Y-84248000D03*
X123246000Y-84248000D03*
X120706000Y-81838000D03*
X123246000Y-81838000D03*
X120706000Y-95248000D03*
X123246000Y-95248000D03*
X120706000Y-92838000D03*
X123246000Y-92838000D03*
X120706000Y-102248000D03*
X123246000Y-102248000D03*
X120706000Y-99838000D03*
X123246000Y-99838000D03*
X120706000Y-113248000D03*
X123246000Y-113248000D03*
X120706000Y-110838000D03*
X123246000Y-110838000D03*
X120706000Y-120248000D03*
X123246000Y-120248000D03*
X120706000Y-117838000D03*
X123246000Y-117838000D03*
X120706000Y-131248000D03*
X123246000Y-131248000D03*
X120706000Y-128838000D03*
X123246000Y-128838000D03*
X120706000Y-138248000D03*
X123246000Y-138248000D03*
X120706000Y-135838000D03*
X123246000Y-135838000D03*
X156706000Y-77248000D03*
X159246000Y-77248000D03*
X156706000Y-74838000D03*
X159246000Y-74838000D03*
X156706000Y-84248000D03*
X159246000Y-84248000D03*
X156706000Y-81838000D03*
X159246000Y-81838000D03*
X156706000Y-95248000D03*
X159246000Y-95248000D03*
X156706000Y-92838000D03*
X159246000Y-92838000D03*
X192706000Y-138248000D03*
X195246000Y-138248000D03*
X192706000Y-135838000D03*
X195246000Y-135838000D03*
X156706000Y-113248000D03*
X159246000Y-113248000D03*
X156706000Y-110838000D03*
X159246000Y-110838000D03*
X156706000Y-120248000D03*
X159246000Y-120248000D03*
X156706000Y-117838000D03*
X159246000Y-117838000D03*
X156706000Y-131248000D03*
X159246000Y-131248000D03*
X156706000Y-128838000D03*
X159246000Y-128838000D03*
X156706000Y-138248000D03*
X159246000Y-138248000D03*
X156706000Y-135838000D03*
X159246000Y-135838000D03*
X192706000Y-77248000D03*
X195246000Y-77248000D03*
X192706000Y-74838000D03*
X195246000Y-74838000D03*
X192706000Y-84248000D03*
X195246000Y-84248000D03*
X192706000Y-81838000D03*
X195246000Y-81838000D03*
X192706000Y-95248000D03*
X195246000Y-95248000D03*
X192706000Y-92838000D03*
X195246000Y-92838000D03*
X192706000Y-102248000D03*
X195246000Y-102248000D03*
X192706000Y-99838000D03*
X195246000Y-99838000D03*
X192706000Y-113248000D03*
X195246000Y-113248000D03*
X192706000Y-110838000D03*
X195246000Y-110838000D03*
X192706000Y-120248000D03*
X195246000Y-120248000D03*
X192706000Y-117838000D03*
X195246000Y-117838000D03*
X192706000Y-131248000D03*
X195246000Y-131248000D03*
X192706000Y-128838000D03*
X195246000Y-128838000D03*
D19*
X84291840Y-89614220D03*
X84291840Y-88814120D03*
X84291840Y-88014020D03*
X84291840Y-87213920D03*
X84291840Y-86413820D03*
X84291840Y-85613720D03*
X84291840Y-84813620D03*
X84291840Y-84013520D03*
X74726200Y-84018600D03*
X74726200Y-89632000D03*
X74726200Y-88819200D03*
X74726200Y-88006400D03*
X74726200Y-87219000D03*
X74726200Y-86406200D03*
X74726200Y-85618800D03*
X74726200Y-84806000D03*
D20*
X82300480Y-82012000D03*
X81502920Y-82012000D03*
X80700280Y-82012000D03*
X79902720Y-82012000D03*
X79100080Y-82012000D03*
X78302520Y-82012000D03*
X77499880Y-82012000D03*
X76702320Y-82012000D03*
X82295400Y-91613200D03*
X81508000Y-91613200D03*
X80695200Y-91613200D03*
X79907800Y-91613200D03*
X79120400Y-91613200D03*
X78307600Y-91613200D03*
X77494800Y-91613200D03*
X76682000Y-91613200D03*
D15*
X91694000Y-91884500D03*
X91694000Y-89979500D03*
X86614000Y-89979500D03*
X86614000Y-91884500D03*
D21*
X89929000Y-92007000D03*
X89929000Y-89857000D03*
X88379000Y-92007000D03*
X88379000Y-89857000D03*
D22*
X91286000Y-101850000D03*
X91286000Y-104350000D03*
X91286000Y-107750000D03*
X91286000Y-109400000D03*
X91286000Y-111850000D03*
X91286000Y-114350000D03*
X91286000Y-116780000D03*
X91286000Y-118480000D03*
X91286000Y-99350000D03*
X91286000Y-121830000D03*
D23*
X69076000Y-122350000D03*
X70276000Y-94350000D03*
D22*
X91286000Y-106050000D03*
D24*
X66976000Y-96650000D03*
X66976000Y-120800000D03*
D12*
X88836500Y-85344000D03*
X86931500Y-85344000D03*
D25*
X81280000Y-133647180D03*
X81280000Y-139148820D03*
D26*
X88392000Y-132029200D03*
X88392000Y-125526800D03*
D27*
X75946000Y-125111000D03*
X75946000Y-128381000D03*
D28*
X73312000Y-124587000D03*
X73312000Y-125857000D03*
X73312000Y-127127000D03*
X73312000Y-128397000D03*
X67912000Y-128397000D03*
X67912000Y-127127000D03*
X67912000Y-125857000D03*
X67912000Y-124587000D03*
D29*
X80518000Y-125154000D03*
X80518000Y-129354000D03*
D30*
X74780140Y-134620000D03*
X68780660Y-134620000D03*
X71780400Y-139319000D03*
M02*
