  0
SECTION
  2
HEADER
  9
$ANGBASE
  50
0.0
  9
$ANGDIR
  70
  1
  9
$MEASUREMENT
  70
0
  0
ENDSEC
  0
SECTION
  2
TABLES
  0
TABLE
  2
LTYPE
  70
1
  0
LTYPE
  2
CONTINUOUS
  70
0
  3
Solid line
  72
65
  73
0
  40
0.0
  0
ENDTAB
  0
TABLE
  2
STYLE
  70
4
  0
STYLE
  2
KICAD
  70
0
  40
0
  41
1
  42
1
  50
0
  71
0
  3
isocp.shx
  0
STYLE
  2
KICADB
  70
0
  40
0
  41
1
  42
1
  50
0
  71
0
  3
isocp.shx
  0
STYLE
  2
KICADI
  70
0
  40
0
  41
1
  42
1
  50
15
  71
0
  3
isocp.shx
  0
STYLE
  2
KICADBI
  70
0
  40
0
  41
1
  42
1
  50
15
  71
0
  3
isocp.shx
  0
ENDTAB
  0
TABLE
  2
LAYER
  70
24
  0
LAYER
  2
BLACK
  70
0
  62
250
  6
CONTINUOUS
  0
LAYER
  2
BLUE
  70
0
  62
5
  6
CONTINUOUS
  0
LAYER
  2
GREEN
  70
0
  62
3
  6
CONTINUOUS
  0
LAYER
  2
CYAN
  70
0
  62
4
  6
CONTINUOUS
  0
LAYER
  2
RED
  70
0
  62
1
  6
CONTINUOUS
  0
LAYER
  2
MAGENTA
  70
0
  62
6
  6
CONTINUOUS
  0
LAYER
  2
BROWN
  70
0
  62
54
  6
CONTINUOUS
  0
LAYER
  2
LIGHTGRAY
  70
0
  62
9
  6
CONTINUOUS
  0
LAYER
  2
DARKGRAY
  70
0
  62
8
  6
CONTINUOUS
  0
LAYER
  2
LIGHTBLUE
  70
0
  62
171
  6
CONTINUOUS
  0
LAYER
  2
LIGHTGREEN
  70
0
  62
91
  6
CONTINUOUS
  0
LAYER
  2
LIGHTCYAN
  70
0
  62
131
  6
CONTINUOUS
  0
LAYER
  2
LIGHTRED
  70
0
  62
11
  6
CONTINUOUS
  0
LAYER
  2
LIGHTMAGENTA
  70
0
  62
221
  6
CONTINUOUS
  0
LAYER
  2
YELLOW
  70
0
  62
2
  6
CONTINUOUS
  0
LAYER
  2
WHITE
  70
0
  62
7
  6
CONTINUOUS
  0
LAYER
  2
DARKDARKGRAY
  70
0
  62
251
  6
CONTINUOUS
  0
LAYER
  2
DARKBLUE
  70
0
  62
178
  6
CONTINUOUS
  0
LAYER
  2
DARKGREEN
  70
0
  62
98
  6
CONTINUOUS
  0
LAYER
  2
DARKCYAN
  70
0
  62
138
  6
CONTINUOUS
  0
LAYER
  2
DARKRED
  70
0
  62
18
  6
CONTINUOUS
  0
LAYER
  2
DARKMAGENTA
  70
0
  62
228
  6
CONTINUOUS
  0
LAYER
  2
DARKBROWN
  70
0
  62
58
  6
CONTINUOUS
  0
LAYER
  2
LIGHTYELLOW
  70
0
  62
51
  6
CONTINUOUS
  0
ENDTAB
  0
ENDSEC
  0
SECTION
  2
ENTITIES
0
LINE
8
BLACK
10
87.3153
20
-113.501
11
87.3153
21
-113.051
0
LINE
8
BLACK
10
87.3153
20
-113.051
11
85.3164
21
-113.051
0
LINE
8
BLACK
10
85.3164
20
-113.051
11
85.3164
21
-113.501
0
LINE
8
BLACK
10
85.3164
20
-113.501
11
87.3153
21
-113.501
0
LINE
8
BLACK
10
87.3153
20
-112.701
11
87.3153
21
-112.251
0
LINE
8
BLACK
10
87.3153
20
-112.251
11
85.3164
21
-112.251
0
LINE
8
BLACK
10
85.3164
20
-112.251
11
85.3164
21
-112.701
0
LINE
8
BLACK
10
85.3164
20
-112.701
11
87.3153
21
-112.701
0
LINE
8
BLACK
10
87.3153
20
-111.901
11
87.3153
21
-111.451
0
LINE
8
BLACK
10
87.3153
20
-111.451
11
85.3164
21
-111.451
0
LINE
8
BLACK
10
85.3164
20
-111.451
11
85.3164
21
-111.901
0
LINE
8
BLACK
10
85.3164
20
-111.901
11
87.3153
21
-111.901
0
LINE
8
BLACK
10
87.3153
20
-111.101
11
87.3153
21
-110.651
0
LINE
8
BLACK
10
87.3153
20
-110.651
11
85.3164
21
-110.651
0
LINE
8
BLACK
10
85.3164
20
-110.651
11
85.3164
21
-111.101
0
LINE
8
BLACK
10
85.3164
20
-111.101
11
87.3153
21
-111.101
0
LINE
8
BLACK
10
87.3153
20
-110.301
11
87.3153
21
-109.851
0
LINE
8
BLACK
10
87.3153
20
-109.851
11
85.3164
21
-109.851
0
LINE
8
BLACK
10
85.3164
20
-109.851
11
85.3164
21
-110.301
0
LINE
8
BLACK
10
85.3164
20
-110.301
11
87.3153
21
-110.301
0
LINE
8
BLACK
10
87.3153
20
-109.501
11
87.3153
21
-109.051
0
LINE
8
BLACK
10
87.3153
20
-109.051
11
85.3164
21
-109.051
0
LINE
8
BLACK
10
85.3164
20
-109.051
11
85.3164
21
-109.501
0
LINE
8
BLACK
10
85.3164
20
-109.501
11
87.3153
21
-109.501
0
LINE
8
BLACK
10
87.3153
20
-108.7
11
87.3153
21
-108.251
0
LINE
8
BLACK
10
87.3153
20
-108.251
11
85.3164
21
-108.251
0
LINE
8
BLACK
10
85.3164
20
-108.251
11
85.3164
21
-108.7
0
LINE
8
BLACK
10
85.3164
20
-108.7
11
87.3153
21
-108.7
0
LINE
8
BLACK
10
87.3153
20
-107.9
11
87.3153
21
-107.451
0
LINE
8
BLACK
10
87.3153
20
-107.451
11
85.3164
21
-107.451
0
LINE
8
BLACK
10
85.3164
20
-107.451
11
85.3164
21
-107.9
0
LINE
8
BLACK
10
85.3164
20
-107.9
11
87.3153
21
-107.9
0
LINE
8
BLACK
10
77.7497
20
-107.905
11
77.7497
21
-107.456
0
LINE
8
BLACK
10
77.7497
20
-107.456
11
75.7507
21
-107.456
0
LINE
8
BLACK
10
75.7507
20
-107.456
11
75.7507
21
-107.905
0
LINE
8
BLACK
10
75.7507
20
-107.905
11
77.7497
21
-107.905
0
LINE
8
BLACK
10
77.7497
20
-113.519
11
77.7497
21
-113.069
0
LINE
8
BLACK
10
77.7497
20
-113.069
11
75.7507
21
-113.069
0
LINE
8
BLACK
10
75.7507
20
-113.069
11
75.7507
21
-113.519
0
LINE
8
BLACK
10
75.7507
20
-113.519
11
77.7497
21
-113.519
0
LINE
8
BLACK
10
77.7497
20
-112.706
11
77.7497
21
-112.256
0
LINE
8
BLACK
10
77.7497
20
-112.256
11
75.7507
21
-112.256
0
LINE
8
BLACK
10
75.7507
20
-112.256
11
75.7507
21
-112.706
0
LINE
8
BLACK
10
75.7507
20
-112.706
11
77.7497
21
-112.706
0
LINE
8
BLACK
10
77.7497
20
-111.893
11
77.7497
21
-111.444
0
LINE
8
BLACK
10
77.7497
20
-111.444
11
75.7507
21
-111.444
0
LINE
8
BLACK
10
75.7507
20
-111.444
11
75.7507
21
-111.893
0
LINE
8
BLACK
10
75.7507
20
-111.893
11
77.7497
21
-111.893
0
LINE
8
BLACK
10
77.7497
20
-111.106
11
77.7497
21
-110.656
0
LINE
8
BLACK
10
77.7497
20
-110.656
11
75.7507
21
-110.656
0
LINE
8
BLACK
10
75.7507
20
-110.656
11
75.7507
21
-111.106
0
LINE
8
BLACK
10
75.7507
20
-111.106
11
77.7497
21
-111.106
0
LINE
8
BLACK
10
77.7497
20
-110.293
11
77.7497
21
-109.843
0
LINE
8
BLACK
10
77.7497
20
-109.843
11
75.7507
21
-109.843
0
LINE
8
BLACK
10
75.7507
20
-109.843
11
75.7507
21
-110.293
0
LINE
8
BLACK
10
75.7507
20
-110.293
11
77.7497
21
-110.293
0
LINE
8
BLACK
10
77.7497
20
-109.506
11
77.7497
21
-109.056
0
LINE
8
BLACK
10
77.7497
20
-109.056
11
75.7507
21
-109.056
0
LINE
8
BLACK
10
75.7507
20
-109.056
11
75.7507
21
-109.506
0
LINE
8
BLACK
10
75.7507
20
-109.506
11
77.7497
21
-109.506
0
LINE
8
BLACK
10
77.7497
20
-108.693
11
77.7497
21
-108.243
0
LINE
8
BLACK
10
77.7497
20
-108.243
11
75.7507
21
-108.243
0
LINE
8
BLACK
10
75.7507
20
-108.243
11
75.7507
21
-108.693
0
LINE
8
BLACK
10
75.7507
20
-108.693
11
77.7497
21
-108.693
0
LINE
8
BLACK
10
84.5493
20
-106.673
11
84.5493
21
-104.675
0
LINE
8
BLACK
10
84.5493
20
-104.675
11
84.0997
21
-104.675
0
LINE
8
BLACK
10
84.0997
20
-104.675
11
84.0997
21
-106.673
0
LINE
8
BLACK
10
84.0997
20
-106.673
11
84.5493
21
-106.673
0
LINE
8
BLACK
10
83.7517
20
-106.673
11
83.7517
21
-104.675
0
LINE
8
BLACK
10
83.7517
20
-104.675
11
83.3021
21
-104.675
0
LINE
8
BLACK
10
83.3021
20
-104.675
11
83.3021
21
-106.673
0
LINE
8
BLACK
10
83.3021
20
-106.673
11
83.7517
21
-106.673
0
LINE
8
BLACK
10
82.9491
20
-106.673
11
82.9491
21
-104.675
0
LINE
8
BLACK
10
82.9491
20
-104.675
11
82.4995
21
-104.675
0
LINE
8
BLACK
10
82.4995
20
-104.675
11
82.4995
21
-106.673
0
LINE
8
BLACK
10
82.4995
20
-106.673
11
82.9491
21
-106.673
0
LINE
8
BLACK
10
82.1515
20
-106.673
11
82.1515
21
-104.675
0
LINE
8
BLACK
10
82.1515
20
-104.675
11
81.7019
21
-104.675
0
LINE
8
BLACK
10
81.7019
20
-104.675
11
81.7019
21
-106.673
0
LINE
8
BLACK
10
81.7019
20
-106.673
11
82.1515
21
-106.673
0
LINE
8
BLACK
10
81.3489
20
-106.673
11
81.3489
21
-104.675
0
LINE
8
BLACK
10
81.3489
20
-104.675
11
80.8993
21
-104.675
0
LINE
8
BLACK
10
80.8993
20
-104.675
11
80.8993
21
-106.673
0
LINE
8
BLACK
10
80.8993
20
-106.673
11
81.3489
21
-106.673
0
LINE
8
BLACK
10
80.5513
20
-106.673
11
80.5513
21
-104.675
0
LINE
8
BLACK
10
80.5513
20
-104.675
11
80.1017
21
-104.675
0
LINE
8
BLACK
10
80.1017
20
-104.675
11
80.1017
21
-106.673
0
LINE
8
BLACK
10
80.1017
20
-106.673
11
80.5513
21
-106.673
0
LINE
8
BLACK
10
79.7487
20
-106.673
11
79.7487
21
-104.675
0
LINE
8
BLACK
10
79.7487
20
-104.675
11
79.2991
21
-104.675
0
LINE
8
BLACK
10
79.2991
20
-104.675
11
79.2991
21
-106.673
0
LINE
8
BLACK
10
79.2991
20
-106.673
11
79.7487
21
-106.673
0
LINE
8
BLACK
10
78.9511
20
-106.673
11
78.9511
21
-104.675
0
LINE
8
BLACK
10
78.9511
20
-104.675
11
78.5015
21
-104.675
0
LINE
8
BLACK
10
78.5015
20
-104.675
11
78.5015
21
-106.673
0
LINE
8
BLACK
10
78.5015
20
-106.673
11
78.9511
21
-106.673
0
LINE
8
BLACK
10
84.5442
20
-116.275
11
84.5442
21
-114.276
0
LINE
8
BLACK
10
84.5442
20
-114.276
11
84.0946
21
-114.276
0
LINE
8
BLACK
10
84.0946
20
-114.276
11
84.0946
21
-116.275
0
LINE
8
BLACK
10
84.0946
20
-116.275
11
84.5442
21
-116.275
0
LINE
8
BLACK
10
83.7568
20
-116.275
11
83.7568
21
-114.276
0
LINE
8
BLACK
10
83.7568
20
-114.276
11
83.3072
21
-114.276
0
LINE
8
BLACK
10
83.3072
20
-114.276
11
83.3072
21
-116.275
0
LINE
8
BLACK
10
83.3072
20
-116.275
11
83.7568
21
-116.275
0
LINE
8
BLACK
10
82.944
20
-116.275
11
82.944
21
-114.276
0
LINE
8
BLACK
10
82.944
20
-114.276
11
82.4944
21
-114.276
0
LINE
8
BLACK
10
82.4944
20
-114.276
11
82.4944
21
-116.275
0
LINE
8
BLACK
10
82.4944
20
-116.275
11
82.944
21
-116.275
0
LINE
8
BLACK
10
82.1566
20
-116.275
11
82.1566
21
-114.276
0
LINE
8
BLACK
10
82.1566
20
-114.276
11
81.707
21
-114.276
0
LINE
8
BLACK
10
81.707
20
-114.276
11
81.707
21
-116.275
0
LINE
8
BLACK
10
81.707
20
-116.275
11
82.1566
21
-116.275
0
LINE
8
BLACK
10
81.3692
20
-116.275
11
81.3692
21
-114.276
0
LINE
8
BLACK
10
81.3692
20
-114.276
11
80.9196
21
-114.276
0
LINE
8
BLACK
10
80.9196
20
-114.276
11
80.9196
21
-116.275
0
LINE
8
BLACK
10
80.9196
20
-116.275
11
81.3692
21
-116.275
0
LINE
8
BLACK
10
80.5564
20
-116.275
11
80.5564
21
-114.276
0
LINE
8
BLACK
10
80.5564
20
-114.276
11
80.1068
21
-114.276
0
LINE
8
BLACK
10
80.1068
20
-114.276
11
80.1068
21
-116.275
0
LINE
8
BLACK
10
80.1068
20
-116.275
11
80.5564
21
-116.275
0
LINE
8
BLACK
10
79.7436
20
-116.275
11
79.7436
21
-114.276
0
LINE
8
BLACK
10
79.7436
20
-114.276
11
79.294
21
-114.276
0
LINE
8
BLACK
10
79.294
20
-114.276
11
79.294
21
-116.275
0
LINE
8
BLACK
10
79.294
20
-116.275
11
79.7436
21
-116.275
0
LINE
8
BLACK
10
78.9308
20
-116.275
11
78.9308
21
-114.276
0
LINE
8
BLACK
10
78.9308
20
-114.276
11
78.4812
21
-114.276
0
LINE
8
BLACK
10
78.4812
20
-114.276
11
78.4812
21
-116.275
0
LINE
8
BLACK
10
78.4812
20
-116.275
11
78.9308
21
-116.275
0
LINE
8
BLACK
10
172.809
20
-160.394
11
174.079
21
-160.394
0
LINE
8
BLACK
10
174.079
20
-160.394
11
174.079
21
-159.988
0
LINE
8
BLACK
10
174.079
20
-159.988
11
172.809
21
-159.988
0
LINE
8
BLACK
10
172.809
20
-159.988
11
172.809
21
-160.394
0
LINE
8
BLACK
10
172.809
20
-159.759
11
174.079
21
-159.759
0
LINE
8
BLACK
10
174.079
20
-159.759
11
174.079
21
-159.353
0
LINE
8
BLACK
10
174.079
20
-159.353
11
172.809
21
-159.353
0
LINE
8
BLACK
10
172.809
20
-159.353
11
172.809
21
-159.759
0
LINE
8
BLACK
10
172.809
20
-159.099
11
174.079
21
-159.099
0
LINE
8
BLACK
10
174.079
20
-159.099
11
174.079
21
-158.692
0
LINE
8
BLACK
10
174.079
20
-158.692
11
172.809
21
-158.692
0
LINE
8
BLACK
10
172.809
20
-158.692
11
172.809
21
-159.099
0
LINE
8
BLACK
10
172.809
20
-158.438
11
174.079
21
-158.438
0
LINE
8
BLACK
10
174.079
20
-158.438
11
174.079
21
-158.032
0
LINE
8
BLACK
10
174.079
20
-158.032
11
172.809
21
-158.032
0
LINE
8
BLACK
10
172.809
20
-158.032
11
172.809
21
-158.438
0
LINE
8
BLACK
10
172.809
20
-157.803
11
174.079
21
-157.803
0
LINE
8
BLACK
10
174.079
20
-157.803
11
174.079
21
-157.397
0
LINE
8
BLACK
10
174.079
20
-157.397
11
172.809
21
-157.397
0
LINE
8
BLACK
10
172.809
20
-157.397
11
172.809
21
-157.803
0
LINE
8
BLACK
10
172.809
20
-157.143
11
174.079
21
-157.143
0
LINE
8
BLACK
10
174.079
20
-157.143
11
174.079
21
-156.737
0
LINE
8
BLACK
10
174.079
20
-156.737
11
172.809
21
-156.737
0
LINE
8
BLACK
10
172.809
20
-156.737
11
172.809
21
-157.143
0
LINE
8
BLACK
10
172.809
20
-156.483
11
174.079
21
-156.483
0
LINE
8
BLACK
10
174.079
20
-156.483
11
174.079
21
-156.076
0
LINE
8
BLACK
10
174.079
20
-156.076
11
172.809
21
-156.076
0
LINE
8
BLACK
10
172.809
20
-156.076
11
172.809
21
-156.483
0
LINE
8
BLACK
10
172.809
20
-155.848
11
174.079
21
-155.848
0
LINE
8
BLACK
10
174.079
20
-155.848
11
174.079
21
-155.441
0
LINE
8
BLACK
10
174.079
20
-155.441
11
172.809
21
-155.441
0
LINE
8
BLACK
10
172.809
20
-155.441
11
172.809
21
-155.848
0
LINE
8
BLACK
10
172.809
20
-155.187
11
174.079
21
-155.187
0
LINE
8
BLACK
10
174.079
20
-155.187
11
174.079
21
-154.781
0
LINE
8
BLACK
10
174.079
20
-154.781
11
172.809
21
-154.781
0
LINE
8
BLACK
10
172.809
20
-154.781
11
172.809
21
-155.187
0
LINE
8
BLACK
10
172.809
20
-154.552
11
174.079
21
-154.552
0
LINE
8
BLACK
10
174.079
20
-154.552
11
174.079
21
-154.146
0
LINE
8
BLACK
10
174.079
20
-154.146
11
172.809
21
-154.146
0
LINE
8
BLACK
10
172.809
20
-154.146
11
172.809
21
-154.552
0
LINE
8
BLACK
10
172.809
20
-153.892
11
174.079
21
-153.892
0
LINE
8
BLACK
10
174.079
20
-153.892
11
174.079
21
-153.485
0
LINE
8
BLACK
10
174.079
20
-153.485
11
172.809
21
-153.485
0
LINE
8
BLACK
10
172.809
20
-153.485
11
172.809
21
-153.892
0
LINE
8
BLACK
10
172.809
20
-153.231
11
174.079
21
-153.231
0
LINE
8
BLACK
10
174.079
20
-153.231
11
174.079
21
-152.825
0
LINE
8
BLACK
10
174.079
20
-152.825
11
172.809
21
-152.825
0
LINE
8
BLACK
10
172.809
20
-152.825
11
172.809
21
-153.231
0
LINE
8
BLACK
10
172.809
20
-152.596
11
174.079
21
-152.596
0
LINE
8
BLACK
10
174.079
20
-152.596
11
174.079
21
-152.19
0
LINE
8
BLACK
10
174.079
20
-152.19
11
172.809
21
-152.19
0
LINE
8
BLACK
10
172.809
20
-152.19
11
172.809
21
-152.596
0
LINE
8
BLACK
10
172.809
20
-151.936
11
174.079
21
-151.936
0
LINE
8
BLACK
10
174.079
20
-151.936
11
174.079
21
-151.53
0
LINE
8
BLACK
10
174.079
20
-151.53
11
172.809
21
-151.53
0
LINE
8
BLACK
10
172.809
20
-151.53
11
172.809
21
-151.936
0
LINE
8
BLACK
10
179.921
20
-151.936
11
181.191
21
-151.936
0
LINE
8
BLACK
10
181.191
20
-151.936
11
181.191
21
-151.53
0
LINE
8
BLACK
10
181.191
20
-151.53
11
179.921
21
-151.53
0
LINE
8
BLACK
10
179.921
20
-151.53
11
179.921
21
-151.936
0
LINE
8
BLACK
10
179.921
20
-152.596
11
181.191
21
-152.596
0
LINE
8
BLACK
10
181.191
20
-152.596
11
181.191
21
-152.19
0
LINE
8
BLACK
10
181.191
20
-152.19
11
179.921
21
-152.19
0
LINE
8
BLACK
10
179.921
20
-152.19
11
179.921
21
-152.596
0
LINE
8
BLACK
10
179.921
20
-153.206
11
181.191
21
-153.206
0
LINE
8
BLACK
10
181.191
20
-153.206
11
181.191
21
-152.8
0
LINE
8
BLACK
10
181.191
20
-152.8
11
179.921
21
-152.8
0
LINE
8
BLACK
10
179.921
20
-152.8
11
179.921
21
-153.206
0
LINE
8
BLACK
10
179.921
20
-153.892
11
181.191
21
-153.892
0
LINE
8
BLACK
10
181.191
20
-153.892
11
181.191
21
-153.485
0
LINE
8
BLACK
10
181.191
20
-153.485
11
179.921
21
-153.485
0
LINE
8
BLACK
10
179.921
20
-153.485
11
179.921
21
-153.892
0
LINE
8
BLACK
10
179.921
20
-154.552
11
181.191
21
-154.552
0
LINE
8
BLACK
10
181.191
20
-154.552
11
181.191
21
-154.146
0
LINE
8
BLACK
10
181.191
20
-154.146
11
179.921
21
-154.146
0
LINE
8
BLACK
10
179.921
20
-154.146
11
179.921
21
-154.552
0
LINE
8
BLACK
10
179.921
20
-155.187
11
181.191
21
-155.187
0
LINE
8
BLACK
10
181.191
20
-155.187
11
181.191
21
-154.781
0
LINE
8
BLACK
10
181.191
20
-154.781
11
179.921
21
-154.781
0
LINE
8
BLACK
10
179.921
20
-154.781
11
179.921
21
-155.187
0
LINE
8
BLACK
10
179.921
20
-155.848
11
181.191
21
-155.848
0
LINE
8
BLACK
10
181.191
20
-155.848
11
181.191
21
-155.441
0
LINE
8
BLACK
10
181.191
20
-155.441
11
179.921
21
-155.441
0
LINE
8
BLACK
10
179.921
20
-155.441
11
179.921
21
-155.848
0
LINE
8
BLACK
10
179.921
20
-156.483
11
181.191
21
-156.483
0
LINE
8
BLACK
10
181.191
20
-156.483
11
181.191
21
-156.076
0
LINE
8
BLACK
10
181.191
20
-156.076
11
179.921
21
-156.076
0
LINE
8
BLACK
10
179.921
20
-156.076
11
179.921
21
-156.483
0
LINE
8
BLACK
10
179.921
20
-157.143
11
181.191
21
-157.143
0
LINE
8
BLACK
10
181.191
20
-157.143
11
181.191
21
-156.737
0
LINE
8
BLACK
10
181.191
20
-156.737
11
179.921
21
-156.737
0
LINE
8
BLACK
10
179.921
20
-156.737
11
179.921
21
-157.143
0
LINE
8
BLACK
10
179.921
20
-157.803
11
181.191
21
-157.803
0
LINE
8
BLACK
10
181.191
20
-157.803
11
181.191
21
-157.397
0
LINE
8
BLACK
10
181.191
20
-157.397
11
179.921
21
-157.397
0
LINE
8
BLACK
10
179.921
20
-157.397
11
179.921
21
-157.803
0
LINE
8
BLACK
10
179.921
20
-158.438
11
181.191
21
-158.438
0
LINE
8
BLACK
10
181.191
20
-158.438
11
181.191
21
-158.032
0
LINE
8
BLACK
10
181.191
20
-158.032
11
179.921
21
-158.032
0
LINE
8
BLACK
10
179.921
20
-158.032
11
179.921
21
-158.438
0
LINE
8
BLACK
10
179.921
20
-159.099
11
181.191
21
-159.099
0
LINE
8
BLACK
10
181.191
20
-159.099
11
181.191
21
-158.692
0
LINE
8
BLACK
10
181.191
20
-158.692
11
179.921
21
-158.692
0
LINE
8
BLACK
10
179.921
20
-158.692
11
179.921
21
-159.099
0
LINE
8
BLACK
10
179.921
20
-159.759
11
181.191
21
-159.759
0
LINE
8
BLACK
10
181.191
20
-159.759
11
181.191
21
-159.353
0
LINE
8
BLACK
10
181.191
20
-159.353
11
179.921
21
-159.353
0
LINE
8
BLACK
10
179.921
20
-159.353
11
179.921
21
-159.759
0
LINE
8
BLACK
10
179.921
20
-160.394
11
181.191
21
-160.394
0
LINE
8
BLACK
10
181.191
20
-160.394
11
181.191
21
-159.988
0
LINE
8
BLACK
10
181.191
20
-159.988
11
179.921
21
-159.988
0
LINE
8
BLACK
10
179.921
20
-159.988
11
179.921
21
-160.394
0
LINE
8
BLACK
10
175.3
20
-160.85
11
178.7
21
-160.85
0
LINE
8
BLACK
10
178.7
20
-160.85
11
178.7
21
-151.15
0
LINE
8
BLACK
10
178.7
20
-151.15
11
175.3
21
-151.15
0
LINE
8
BLACK
10
175.3
20
-151.15
11
175.3
21
-160.85
0
LINE
8
BLACK
10
136.809
20
-160.394
11
138.079
21
-160.394
0
LINE
8
BLACK
10
138.079
20
-160.394
11
138.079
21
-159.988
0
LINE
8
BLACK
10
138.079
20
-159.988
11
136.809
21
-159.988
0
LINE
8
BLACK
10
136.809
20
-159.988
11
136.809
21
-160.394
0
LINE
8
BLACK
10
136.809
20
-159.759
11
138.079
21
-159.759
0
LINE
8
BLACK
10
138.079
20
-159.759
11
138.079
21
-159.353
0
LINE
8
BLACK
10
138.079
20
-159.353
11
136.809
21
-159.353
0
LINE
8
BLACK
10
136.809
20
-159.353
11
136.809
21
-159.759
0
LINE
8
BLACK
10
136.809
20
-159.099
11
138.079
21
-159.099
0
LINE
8
BLACK
10
138.079
20
-159.099
11
138.079
21
-158.692
0
LINE
8
BLACK
10
138.079
20
-158.692
11
136.809
21
-158.692
0
LINE
8
BLACK
10
136.809
20
-158.692
11
136.809
21
-159.099
0
LINE
8
BLACK
10
136.809
20
-158.438
11
138.079
21
-158.438
0
LINE
8
BLACK
10
138.079
20
-158.438
11
138.079
21
-158.032
0
LINE
8
BLACK
10
138.079
20
-158.032
11
136.809
21
-158.032
0
LINE
8
BLACK
10
136.809
20
-158.032
11
136.809
21
-158.438
0
LINE
8
BLACK
10
136.809
20
-157.803
11
138.079
21
-157.803
0
LINE
8
BLACK
10
138.079
20
-157.803
11
138.079
21
-157.397
0
LINE
8
BLACK
10
138.079
20
-157.397
11
136.809
21
-157.397
0
LINE
8
BLACK
10
136.809
20
-157.397
11
136.809
21
-157.803
0
LINE
8
BLACK
10
136.809
20
-157.143
11
138.079
21
-157.143
0
LINE
8
BLACK
10
138.079
20
-157.143
11
138.079
21
-156.737
0
LINE
8
BLACK
10
138.079
20
-156.737
11
136.809
21
-156.737
0
LINE
8
BLACK
10
136.809
20
-156.737
11
136.809
21
-157.143
0
LINE
8
BLACK
10
136.809
20
-156.483
11
138.079
21
-156.483
0
LINE
8
BLACK
10
138.079
20
-156.483
11
138.079
21
-156.076
0
LINE
8
BLACK
10
138.079
20
-156.076
11
136.809
21
-156.076
0
LINE
8
BLACK
10
136.809
20
-156.076
11
136.809
21
-156.483
0
LINE
8
BLACK
10
136.809
20
-155.848
11
138.079
21
-155.848
0
LINE
8
BLACK
10
138.079
20
-155.848
11
138.079
21
-155.441
0
LINE
8
BLACK
10
138.079
20
-155.441
11
136.809
21
-155.441
0
LINE
8
BLACK
10
136.809
20
-155.441
11
136.809
21
-155.848
0
LINE
8
BLACK
10
136.809
20
-155.187
11
138.079
21
-155.187
0
LINE
8
BLACK
10
138.079
20
-155.187
11
138.079
21
-154.781
0
LINE
8
BLACK
10
138.079
20
-154.781
11
136.809
21
-154.781
0
LINE
8
BLACK
10
136.809
20
-154.781
11
136.809
21
-155.187
0
LINE
8
BLACK
10
136.809
20
-154.552
11
138.079
21
-154.552
0
LINE
8
BLACK
10
138.079
20
-154.552
11
138.079
21
-154.146
0
LINE
8
BLACK
10
138.079
20
-154.146
11
136.809
21
-154.146
0
LINE
8
BLACK
10
136.809
20
-154.146
11
136.809
21
-154.552
0
LINE
8
BLACK
10
136.809
20
-153.892
11
138.079
21
-153.892
0
LINE
8
BLACK
10
138.079
20
-153.892
11
138.079
21
-153.485
0
LINE
8
BLACK
10
138.079
20
-153.485
11
136.809
21
-153.485
0
LINE
8
BLACK
10
136.809
20
-153.485
11
136.809
21
-153.892
0
LINE
8
BLACK
10
136.809
20
-153.231
11
138.079
21
-153.231
0
LINE
8
BLACK
10
138.079
20
-153.231
11
138.079
21
-152.825
0
LINE
8
BLACK
10
138.079
20
-152.825
11
136.809
21
-152.825
0
LINE
8
BLACK
10
136.809
20
-152.825
11
136.809
21
-153.231
0
LINE
8
BLACK
10
136.809
20
-152.596
11
138.079
21
-152.596
0
LINE
8
BLACK
10
138.079
20
-152.596
11
138.079
21
-152.19
0
LINE
8
BLACK
10
138.079
20
-152.19
11
136.809
21
-152.19
0
LINE
8
BLACK
10
136.809
20
-152.19
11
136.809
21
-152.596
0
LINE
8
BLACK
10
136.809
20
-151.936
11
138.079
21
-151.936
0
LINE
8
BLACK
10
138.079
20
-151.936
11
138.079
21
-151.53
0
LINE
8
BLACK
10
138.079
20
-151.53
11
136.809
21
-151.53
0
LINE
8
BLACK
10
136.809
20
-151.53
11
136.809
21
-151.936
0
LINE
8
BLACK
10
143.921
20
-151.936
11
145.191
21
-151.936
0
LINE
8
BLACK
10
145.191
20
-151.936
11
145.191
21
-151.53
0
LINE
8
BLACK
10
145.191
20
-151.53
11
143.921
21
-151.53
0
LINE
8
BLACK
10
143.921
20
-151.53
11
143.921
21
-151.936
0
LINE
8
BLACK
10
143.921
20
-152.596
11
145.191
21
-152.596
0
LINE
8
BLACK
10
145.191
20
-152.596
11
145.191
21
-152.19
0
LINE
8
BLACK
10
145.191
20
-152.19
11
143.921
21
-152.19
0
LINE
8
BLACK
10
143.921
20
-152.19
11
143.921
21
-152.596
0
LINE
8
BLACK
10
143.921
20
-153.206
11
145.191
21
-153.206
0
LINE
8
BLACK
10
145.191
20
-153.206
11
145.191
21
-152.8
0
LINE
8
BLACK
10
145.191
20
-152.8
11
143.921
21
-152.8
0
LINE
8
BLACK
10
143.921
20
-152.8
11
143.921
21
-153.206
0
LINE
8
BLACK
10
143.921
20
-153.892
11
145.191
21
-153.892
0
LINE
8
BLACK
10
145.191
20
-153.892
11
145.191
21
-153.485
0
LINE
8
BLACK
10
145.191
20
-153.485
11
143.921
21
-153.485
0
LINE
8
BLACK
10
143.921
20
-153.485
11
143.921
21
-153.892
0
LINE
8
BLACK
10
143.921
20
-154.552
11
145.191
21
-154.552
0
LINE
8
BLACK
10
145.191
20
-154.552
11
145.191
21
-154.146
0
LINE
8
BLACK
10
145.191
20
-154.146
11
143.921
21
-154.146
0
LINE
8
BLACK
10
143.921
20
-154.146
11
143.921
21
-154.552
0
LINE
8
BLACK
10
143.921
20
-155.187
11
145.191
21
-155.187
0
LINE
8
BLACK
10
145.191
20
-155.187
11
145.191
21
-154.781
0
LINE
8
BLACK
10
145.191
20
-154.781
11
143.921
21
-154.781
0
LINE
8
BLACK
10
143.921
20
-154.781
11
143.921
21
-155.187
0
LINE
8
BLACK
10
143.921
20
-155.848
11
145.191
21
-155.848
0
LINE
8
BLACK
10
145.191
20
-155.848
11
145.191
21
-155.441
0
LINE
8
BLACK
10
145.191
20
-155.441
11
143.921
21
-155.441
0
LINE
8
BLACK
10
143.921
20
-155.441
11
143.921
21
-155.848
0
LINE
8
BLACK
10
143.921
20
-156.483
11
145.191
21
-156.483
0
LINE
8
BLACK
10
145.191
20
-156.483
11
145.191
21
-156.076
0
LINE
8
BLACK
10
145.191
20
-156.076
11
143.921
21
-156.076
0
LINE
8
BLACK
10
143.921
20
-156.076
11
143.921
21
-156.483
0
LINE
8
BLACK
10
143.921
20
-157.143
11
145.191
21
-157.143
0
LINE
8
BLACK
10
145.191
20
-157.143
11
145.191
21
-156.737
0
LINE
8
BLACK
10
145.191
20
-156.737
11
143.921
21
-156.737
0
LINE
8
BLACK
10
143.921
20
-156.737
11
143.921
21
-157.143
0
LINE
8
BLACK
10
143.921
20
-157.803
11
145.191
21
-157.803
0
LINE
8
BLACK
10
145.191
20
-157.803
11
145.191
21
-157.397
0
LINE
8
BLACK
10
145.191
20
-157.397
11
143.921
21
-157.397
0
LINE
8
BLACK
10
143.921
20
-157.397
11
143.921
21
-157.803
0
LINE
8
BLACK
10
143.921
20
-158.438
11
145.191
21
-158.438
0
LINE
8
BLACK
10
145.191
20
-158.438
11
145.191
21
-158.032
0
LINE
8
BLACK
10
145.191
20
-158.032
11
143.921
21
-158.032
0
LINE
8
BLACK
10
143.921
20
-158.032
11
143.921
21
-158.438
0
LINE
8
BLACK
10
143.921
20
-159.099
11
145.191
21
-159.099
0
LINE
8
BLACK
10
145.191
20
-159.099
11
145.191
21
-158.692
0
LINE
8
BLACK
10
145.191
20
-158.692
11
143.921
21
-158.692
0
LINE
8
BLACK
10
143.921
20
-158.692
11
143.921
21
-159.099
0
LINE
8
BLACK
10
143.921
20
-159.759
11
145.191
21
-159.759
0
LINE
8
BLACK
10
145.191
20
-159.759
11
145.191
21
-159.353
0
LINE
8
BLACK
10
145.191
20
-159.353
11
143.921
21
-159.353
0
LINE
8
BLACK
10
143.921
20
-159.353
11
143.921
21
-159.759
0
LINE
8
BLACK
10
143.921
20
-160.394
11
145.191
21
-160.394
0
LINE
8
BLACK
10
145.191
20
-160.394
11
145.191
21
-159.988
0
LINE
8
BLACK
10
145.191
20
-159.988
11
143.921
21
-159.988
0
LINE
8
BLACK
10
143.921
20
-159.988
11
143.921
21
-160.394
0
LINE
8
BLACK
10
139.3
20
-160.85
11
142.7
21
-160.85
0
LINE
8
BLACK
10
142.7
20
-160.85
11
142.7
21
-151.15
0
LINE
8
BLACK
10
142.7
20
-151.15
11
139.3
21
-151.15
0
LINE
8
BLACK
10
139.3
20
-151.15
11
139.3
21
-160.85
0
LINE
8
BLACK
10
118.809
20
-160.394
11
120.079
21
-160.394
0
LINE
8
BLACK
10
120.079
20
-160.394
11
120.079
21
-159.988
0
LINE
8
BLACK
10
120.079
20
-159.988
11
118.809
21
-159.988
0
LINE
8
BLACK
10
118.809
20
-159.988
11
118.809
21
-160.394
0
LINE
8
BLACK
10
118.809
20
-159.759
11
120.079
21
-159.759
0
LINE
8
BLACK
10
120.079
20
-159.759
11
120.079
21
-159.353
0
LINE
8
BLACK
10
120.079
20
-159.353
11
118.809
21
-159.353
0
LINE
8
BLACK
10
118.809
20
-159.353
11
118.809
21
-159.759
0
LINE
8
BLACK
10
118.809
20
-159.099
11
120.079
21
-159.099
0
LINE
8
BLACK
10
120.079
20
-159.099
11
120.079
21
-158.692
0
LINE
8
BLACK
10
120.079
20
-158.692
11
118.809
21
-158.692
0
LINE
8
BLACK
10
118.809
20
-158.692
11
118.809
21
-159.099
0
LINE
8
BLACK
10
118.809
20
-158.438
11
120.079
21
-158.438
0
LINE
8
BLACK
10
120.079
20
-158.438
11
120.079
21
-158.032
0
LINE
8
BLACK
10
120.079
20
-158.032
11
118.809
21
-158.032
0
LINE
8
BLACK
10
118.809
20
-158.032
11
118.809
21
-158.438
0
LINE
8
BLACK
10
118.809
20
-157.803
11
120.079
21
-157.803
0
LINE
8
BLACK
10
120.079
20
-157.803
11
120.079
21
-157.397
0
LINE
8
BLACK
10
120.079
20
-157.397
11
118.809
21
-157.397
0
LINE
8
BLACK
10
118.809
20
-157.397
11
118.809
21
-157.803
0
LINE
8
BLACK
10
118.809
20
-157.143
11
120.079
21
-157.143
0
LINE
8
BLACK
10
120.079
20
-157.143
11
120.079
21
-156.737
0
LINE
8
BLACK
10
120.079
20
-156.737
11
118.809
21
-156.737
0
LINE
8
BLACK
10
118.809
20
-156.737
11
118.809
21
-157.143
0
LINE
8
BLACK
10
118.809
20
-156.483
11
120.079
21
-156.483
0
LINE
8
BLACK
10
120.079
20
-156.483
11
120.079
21
-156.076
0
LINE
8
BLACK
10
120.079
20
-156.076
11
118.809
21
-156.076
0
LINE
8
BLACK
10
118.809
20
-156.076
11
118.809
21
-156.483
0
LINE
8
BLACK
10
118.809
20
-155.848
11
120.079
21
-155.848
0
LINE
8
BLACK
10
120.079
20
-155.848
11
120.079
21
-155.441
0
LINE
8
BLACK
10
120.079
20
-155.441
11
118.809
21
-155.441
0
LINE
8
BLACK
10
118.809
20
-155.441
11
118.809
21
-155.848
0
LINE
8
BLACK
10
118.809
20
-155.187
11
120.079
21
-155.187
0
LINE
8
BLACK
10
120.079
20
-155.187
11
120.079
21
-154.781
0
LINE
8
BLACK
10
120.079
20
-154.781
11
118.809
21
-154.781
0
LINE
8
BLACK
10
118.809
20
-154.781
11
118.809
21
-155.187
0
LINE
8
BLACK
10
118.809
20
-154.552
11
120.079
21
-154.552
0
LINE
8
BLACK
10
120.079
20
-154.552
11
120.079
21
-154.146
0
LINE
8
BLACK
10
120.079
20
-154.146
11
118.809
21
-154.146
0
LINE
8
BLACK
10
118.809
20
-154.146
11
118.809
21
-154.552
0
LINE
8
BLACK
10
118.809
20
-153.892
11
120.079
21
-153.892
0
LINE
8
BLACK
10
120.079
20
-153.892
11
120.079
21
-153.485
0
LINE
8
BLACK
10
120.079
20
-153.485
11
118.809
21
-153.485
0
LINE
8
BLACK
10
118.809
20
-153.485
11
118.809
21
-153.892
0
LINE
8
BLACK
10
118.809
20
-153.231
11
120.079
21
-153.231
0
LINE
8
BLACK
10
120.079
20
-153.231
11
120.079
21
-152.825
0
LINE
8
BLACK
10
120.079
20
-152.825
11
118.809
21
-152.825
0
LINE
8
BLACK
10
118.809
20
-152.825
11
118.809
21
-153.231
0
LINE
8
BLACK
10
118.809
20
-152.596
11
120.079
21
-152.596
0
LINE
8
BLACK
10
120.079
20
-152.596
11
120.079
21
-152.19
0
LINE
8
BLACK
10
120.079
20
-152.19
11
118.809
21
-152.19
0
LINE
8
BLACK
10
118.809
20
-152.19
11
118.809
21
-152.596
0
LINE
8
BLACK
10
118.809
20
-151.936
11
120.079
21
-151.936
0
LINE
8
BLACK
10
120.079
20
-151.936
11
120.079
21
-151.53
0
LINE
8
BLACK
10
120.079
20
-151.53
11
118.809
21
-151.53
0
LINE
8
BLACK
10
118.809
20
-151.53
11
118.809
21
-151.936
0
LINE
8
BLACK
10
125.921
20
-151.936
11
127.191
21
-151.936
0
LINE
8
BLACK
10
127.191
20
-151.936
11
127.191
21
-151.53
0
LINE
8
BLACK
10
127.191
20
-151.53
11
125.921
21
-151.53
0
LINE
8
BLACK
10
125.921
20
-151.53
11
125.921
21
-151.936
0
LINE
8
BLACK
10
125.921
20
-152.596
11
127.191
21
-152.596
0
LINE
8
BLACK
10
127.191
20
-152.596
11
127.191
21
-152.19
0
LINE
8
BLACK
10
127.191
20
-152.19
11
125.921
21
-152.19
0
LINE
8
BLACK
10
125.921
20
-152.19
11
125.921
21
-152.596
0
LINE
8
BLACK
10
125.921
20
-153.206
11
127.191
21
-153.206
0
LINE
8
BLACK
10
127.191
20
-153.206
11
127.191
21
-152.8
0
LINE
8
BLACK
10
127.191
20
-152.8
11
125.921
21
-152.8
0
LINE
8
BLACK
10
125.921
20
-152.8
11
125.921
21
-153.206
0
LINE
8
BLACK
10
125.921
20
-153.892
11
127.191
21
-153.892
0
LINE
8
BLACK
10
127.191
20
-153.892
11
127.191
21
-153.485
0
LINE
8
BLACK
10
127.191
20
-153.485
11
125.921
21
-153.485
0
LINE
8
BLACK
10
125.921
20
-153.485
11
125.921
21
-153.892
0
LINE
8
BLACK
10
125.921
20
-154.552
11
127.191
21
-154.552
0
LINE
8
BLACK
10
127.191
20
-154.552
11
127.191
21
-154.146
0
LINE
8
BLACK
10
127.191
20
-154.146
11
125.921
21
-154.146
0
LINE
8
BLACK
10
125.921
20
-154.146
11
125.921
21
-154.552
0
LINE
8
BLACK
10
125.921
20
-155.187
11
127.191
21
-155.187
0
LINE
8
BLACK
10
127.191
20
-155.187
11
127.191
21
-154.781
0
LINE
8
BLACK
10
127.191
20
-154.781
11
125.921
21
-154.781
0
LINE
8
BLACK
10
125.921
20
-154.781
11
125.921
21
-155.187
0
LINE
8
BLACK
10
125.921
20
-155.848
11
127.191
21
-155.848
0
LINE
8
BLACK
10
127.191
20
-155.848
11
127.191
21
-155.441
0
LINE
8
BLACK
10
127.191
20
-155.441
11
125.921
21
-155.441
0
LINE
8
BLACK
10
125.921
20
-155.441
11
125.921
21
-155.848
0
LINE
8
BLACK
10
125.921
20
-156.483
11
127.191
21
-156.483
0
LINE
8
BLACK
10
127.191
20
-156.483
11
127.191
21
-156.076
0
LINE
8
BLACK
10
127.191
20
-156.076
11
125.921
21
-156.076
0
LINE
8
BLACK
10
125.921
20
-156.076
11
125.921
21
-156.483
0
LINE
8
BLACK
10
125.921
20
-157.143
11
127.191
21
-157.143
0
LINE
8
BLACK
10
127.191
20
-157.143
11
127.191
21
-156.737
0
LINE
8
BLACK
10
127.191
20
-156.737
11
125.921
21
-156.737
0
LINE
8
BLACK
10
125.921
20
-156.737
11
125.921
21
-157.143
0
LINE
8
BLACK
10
125.921
20
-157.803
11
127.191
21
-157.803
0
LINE
8
BLACK
10
127.191
20
-157.803
11
127.191
21
-157.397
0
LINE
8
BLACK
10
127.191
20
-157.397
11
125.921
21
-157.397
0
LINE
8
BLACK
10
125.921
20
-157.397
11
125.921
21
-157.803
0
LINE
8
BLACK
10
125.921
20
-158.438
11
127.191
21
-158.438
0
LINE
8
BLACK
10
127.191
20
-158.438
11
127.191
21
-158.032
0
LINE
8
BLACK
10
127.191
20
-158.032
11
125.921
21
-158.032
0
LINE
8
BLACK
10
125.921
20
-158.032
11
125.921
21
-158.438
0
LINE
8
BLACK
10
125.921
20
-159.099
11
127.191
21
-159.099
0
LINE
8
BLACK
10
127.191
20
-159.099
11
127.191
21
-158.692
0
LINE
8
BLACK
10
127.191
20
-158.692
11
125.921
21
-158.692
0
LINE
8
BLACK
10
125.921
20
-158.692
11
125.921
21
-159.099
0
LINE
8
BLACK
10
125.921
20
-159.759
11
127.191
21
-159.759
0
LINE
8
BLACK
10
127.191
20
-159.759
11
127.191
21
-159.353
0
LINE
8
BLACK
10
127.191
20
-159.353
11
125.921
21
-159.353
0
LINE
8
BLACK
10
125.921
20
-159.353
11
125.921
21
-159.759
0
LINE
8
BLACK
10
125.921
20
-160.394
11
127.191
21
-160.394
0
LINE
8
BLACK
10
127.191
20
-160.394
11
127.191
21
-159.988
0
LINE
8
BLACK
10
127.191
20
-159.988
11
125.921
21
-159.988
0
LINE
8
BLACK
10
125.921
20
-159.988
11
125.921
21
-160.394
0
LINE
8
BLACK
10
121.3
20
-160.85
11
124.7
21
-160.85
0
LINE
8
BLACK
10
124.7
20
-160.85
11
124.7
21
-151.15
0
LINE
8
BLACK
10
124.7
20
-151.15
11
121.3
21
-151.15
0
LINE
8
BLACK
10
121.3
20
-151.15
11
121.3
21
-160.85
0
LINE
8
BLACK
10
162.191
20
-102.606
11
160.921
21
-102.606
0
LINE
8
BLACK
10
160.921
20
-102.606
11
160.921
21
-103.012
0
LINE
8
BLACK
10
160.921
20
-103.012
11
162.191
21
-103.012
0
LINE
8
BLACK
10
162.191
20
-103.012
11
162.191
21
-102.606
0
LINE
8
BLACK
10
162.191
20
-103.241
11
160.921
21
-103.241
0
LINE
8
BLACK
10
160.921
20
-103.241
11
160.921
21
-103.647
0
LINE
8
BLACK
10
160.921
20
-103.647
11
162.191
21
-103.647
0
LINE
8
BLACK
10
162.191
20
-103.647
11
162.191
21
-103.241
0
LINE
8
BLACK
10
162.191
20
-103.901
11
160.921
21
-103.901
0
LINE
8
BLACK
10
160.921
20
-103.901
11
160.921
21
-104.308
0
LINE
8
BLACK
10
160.921
20
-104.308
11
162.191
21
-104.308
0
LINE
8
BLACK
10
162.191
20
-104.308
11
162.191
21
-103.901
0
LINE
8
BLACK
10
162.191
20
-104.562
11
160.921
21
-104.562
0
LINE
8
BLACK
10
160.921
20
-104.562
11
160.921
21
-104.968
0
LINE
8
BLACK
10
160.921
20
-104.968
11
162.191
21
-104.968
0
LINE
8
BLACK
10
162.191
20
-104.968
11
162.191
21
-104.562
0
LINE
8
BLACK
10
162.191
20
-105.197
11
160.921
21
-105.197
0
LINE
8
BLACK
10
160.921
20
-105.197
11
160.921
21
-105.603
0
LINE
8
BLACK
10
160.921
20
-105.603
11
162.191
21
-105.603
0
LINE
8
BLACK
10
162.191
20
-105.603
11
162.191
21
-105.197
0
LINE
8
BLACK
10
162.191
20
-105.857
11
160.921
21
-105.857
0
LINE
8
BLACK
10
160.921
20
-105.857
11
160.921
21
-106.263
0
LINE
8
BLACK
10
160.921
20
-106.263
11
162.191
21
-106.263
0
LINE
8
BLACK
10
162.191
20
-106.263
11
162.191
21
-105.857
0
LINE
8
BLACK
10
162.191
20
-106.517
11
160.921
21
-106.517
0
LINE
8
BLACK
10
160.921
20
-106.517
11
160.921
21
-106.924
0
LINE
8
BLACK
10
160.921
20
-106.924
11
162.191
21
-106.924
0
LINE
8
BLACK
10
162.191
20
-106.924
11
162.191
21
-106.517
0
LINE
8
BLACK
10
162.191
20
-107.152
11
160.921
21
-107.152
0
LINE
8
BLACK
10
160.921
20
-107.152
11
160.921
21
-107.559
0
LINE
8
BLACK
10
160.921
20
-107.559
11
162.191
21
-107.559
0
LINE
8
BLACK
10
162.191
20
-107.559
11
162.191
21
-107.152
0
LINE
8
BLACK
10
162.191
20
-107.813
11
160.921
21
-107.813
0
LINE
8
BLACK
10
160.921
20
-107.813
11
160.921
21
-108.219
0
LINE
8
BLACK
10
160.921
20
-108.219
11
162.191
21
-108.219
0
LINE
8
BLACK
10
162.191
20
-108.219
11
162.191
21
-107.813
0
LINE
8
BLACK
10
162.191
20
-108.448
11
160.921
21
-108.448
0
LINE
8
BLACK
10
160.921
20
-108.448
11
160.921
21
-108.854
0
LINE
8
BLACK
10
160.921
20
-108.854
11
162.191
21
-108.854
0
LINE
8
BLACK
10
162.191
20
-108.854
11
162.191
21
-108.448
0
LINE
8
BLACK
10
162.191
20
-109.108
11
160.921
21
-109.108
0
LINE
8
BLACK
10
160.921
20
-109.108
11
160.921
21
-109.515
0
LINE
8
BLACK
10
160.921
20
-109.515
11
162.191
21
-109.515
0
LINE
8
BLACK
10
162.191
20
-109.515
11
162.191
21
-109.108
0
LINE
8
BLACK
10
162.191
20
-109.769
11
160.921
21
-109.769
0
LINE
8
BLACK
10
160.921
20
-109.769
11
160.921
21
-110.175
0
LINE
8
BLACK
10
160.921
20
-110.175
11
162.191
21
-110.175
0
LINE
8
BLACK
10
162.191
20
-110.175
11
162.191
21
-109.769
0
LINE
8
BLACK
10
162.191
20
-110.404
11
160.921
21
-110.404
0
LINE
8
BLACK
10
160.921
20
-110.404
11
160.921
21
-110.81
0
LINE
8
BLACK
10
160.921
20
-110.81
11
162.191
21
-110.81
0
LINE
8
BLACK
10
162.191
20
-110.81
11
162.191
21
-110.404
0
LINE
8
BLACK
10
162.191
20
-111.064
11
160.921
21
-111.064
0
LINE
8
BLACK
10
160.921
20
-111.064
11
160.921
21
-111.47
0
LINE
8
BLACK
10
160.921
20
-111.47
11
162.191
21
-111.47
0
LINE
8
BLACK
10
162.191
20
-111.47
11
162.191
21
-111.064
0
LINE
8
BLACK
10
155.079
20
-111.064
11
153.809
21
-111.064
0
LINE
8
BLACK
10
153.809
20
-111.064
11
153.809
21
-111.47
0
LINE
8
BLACK
10
153.809
20
-111.47
11
155.079
21
-111.47
0
LINE
8
BLACK
10
155.079
20
-111.47
11
155.079
21
-111.064
0
LINE
8
BLACK
10
155.079
20
-110.404
11
153.809
21
-110.404
0
LINE
8
BLACK
10
153.809
20
-110.404
11
153.809
21
-110.81
0
LINE
8
BLACK
10
153.809
20
-110.81
11
155.079
21
-110.81
0
LINE
8
BLACK
10
155.079
20
-110.81
11
155.079
21
-110.404
0
LINE
8
BLACK
10
155.079
20
-109.794
11
153.809
21
-109.794
0
LINE
8
BLACK
10
153.809
20
-109.794
11
153.809
21
-110.2
0
LINE
8
BLACK
10
153.809
20
-110.2
11
155.079
21
-110.2
0
LINE
8
BLACK
10
155.079
20
-110.2
11
155.079
21
-109.794
0
LINE
8
BLACK
10
155.079
20
-109.108
11
153.809
21
-109.108
0
LINE
8
BLACK
10
153.809
20
-109.108
11
153.809
21
-109.515
0
LINE
8
BLACK
10
153.809
20
-109.515
11
155.079
21
-109.515
0
LINE
8
BLACK
10
155.079
20
-109.515
11
155.079
21
-109.108
0
LINE
8
BLACK
10
155.079
20
-108.448
11
153.809
21
-108.448
0
LINE
8
BLACK
10
153.809
20
-108.448
11
153.809
21
-108.854
0
LINE
8
BLACK
10
153.809
20
-108.854
11
155.079
21
-108.854
0
LINE
8
BLACK
10
155.079
20
-108.854
11
155.079
21
-108.448
0
LINE
8
BLACK
10
155.079
20
-107.813
11
153.809
21
-107.813
0
LINE
8
BLACK
10
153.809
20
-107.813
11
153.809
21
-108.219
0
LINE
8
BLACK
10
153.809
20
-108.219
11
155.079
21
-108.219
0
LINE
8
BLACK
10
155.079
20
-108.219
11
155.079
21
-107.813
0
LINE
8
BLACK
10
155.079
20
-107.152
11
153.809
21
-107.152
0
LINE
8
BLACK
10
153.809
20
-107.152
11
153.809
21
-107.559
0
LINE
8
BLACK
10
153.809
20
-107.559
11
155.079
21
-107.559
0
LINE
8
BLACK
10
155.079
20
-107.559
11
155.079
21
-107.152
0
LINE
8
BLACK
10
155.079
20
-106.517
11
153.809
21
-106.517
0
LINE
8
BLACK
10
153.809
20
-106.517
11
153.809
21
-106.924
0
LINE
8
BLACK
10
153.809
20
-106.924
11
155.079
21
-106.924
0
LINE
8
BLACK
10
155.079
20
-106.924
11
155.079
21
-106.517
0
LINE
8
BLACK
10
155.079
20
-105.857
11
153.809
21
-105.857
0
LINE
8
BLACK
10
153.809
20
-105.857
11
153.809
21
-106.263
0
LINE
8
BLACK
10
153.809
20
-106.263
11
155.079
21
-106.263
0
LINE
8
BLACK
10
155.079
20
-106.263
11
155.079
21
-105.857
0
LINE
8
BLACK
10
155.079
20
-105.197
11
153.809
21
-105.197
0
LINE
8
BLACK
10
153.809
20
-105.197
11
153.809
21
-105.603
0
LINE
8
BLACK
10
153.809
20
-105.603
11
155.079
21
-105.603
0
LINE
8
BLACK
10
155.079
20
-105.603
11
155.079
21
-105.197
0
LINE
8
BLACK
10
155.079
20
-104.562
11
153.809
21
-104.562
0
LINE
8
BLACK
10
153.809
20
-104.562
11
153.809
21
-104.968
0
LINE
8
BLACK
10
153.809
20
-104.968
11
155.079
21
-104.968
0
LINE
8
BLACK
10
155.079
20
-104.968
11
155.079
21
-104.562
0
LINE
8
BLACK
10
155.079
20
-103.901
11
153.809
21
-103.901
0
LINE
8
BLACK
10
153.809
20
-103.901
11
153.809
21
-104.308
0
LINE
8
BLACK
10
153.809
20
-104.308
11
155.079
21
-104.308
0
LINE
8
BLACK
10
155.079
20
-104.308
11
155.079
21
-103.901
0
LINE
8
BLACK
10
155.079
20
-103.241
11
153.809
21
-103.241
0
LINE
8
BLACK
10
153.809
20
-103.241
11
153.809
21
-103.647
0
LINE
8
BLACK
10
153.809
20
-103.647
11
155.079
21
-103.647
0
LINE
8
BLACK
10
155.079
20
-103.647
11
155.079
21
-103.241
0
LINE
8
BLACK
10
155.079
20
-102.606
11
153.809
21
-102.606
0
LINE
8
BLACK
10
153.809
20
-102.606
11
153.809
21
-103.012
0
LINE
8
BLACK
10
153.809
20
-103.012
11
155.079
21
-103.012
0
LINE
8
BLACK
10
155.079
20
-103.012
11
155.079
21
-102.606
0
LINE
8
BLACK
10
159.7
20
-102.15
11
156.3
21
-102.15
0
LINE
8
BLACK
10
156.3
20
-102.15
11
156.3
21
-111.85
0
LINE
8
BLACK
10
156.3
20
-111.85
11
159.7
21
-111.85
0
LINE
8
BLACK
10
159.7
20
-111.85
11
159.7
21
-102.15
0
LINE
8
BLACK
10
100.809
20
-160.394
11
102.079
21
-160.394
0
LINE
8
BLACK
10
102.079
20
-160.394
11
102.079
21
-159.988
0
LINE
8
BLACK
10
102.079
20
-159.988
11
100.809
21
-159.988
0
LINE
8
BLACK
10
100.809
20
-159.988
11
100.809
21
-160.394
0
LINE
8
BLACK
10
100.809
20
-159.759
11
102.079
21
-159.759
0
LINE
8
BLACK
10
102.079
20
-159.759
11
102.079
21
-159.353
0
LINE
8
BLACK
10
102.079
20
-159.353
11
100.809
21
-159.353
0
LINE
8
BLACK
10
100.809
20
-159.353
11
100.809
21
-159.759
0
LINE
8
BLACK
10
100.809
20
-159.099
11
102.079
21
-159.099
0
LINE
8
BLACK
10
102.079
20
-159.099
11
102.079
21
-158.692
0
LINE
8
BLACK
10
102.079
20
-158.692
11
100.809
21
-158.692
0
LINE
8
BLACK
10
100.809
20
-158.692
11
100.809
21
-159.099
0
LINE
8
BLACK
10
100.809
20
-158.438
11
102.079
21
-158.438
0
LINE
8
BLACK
10
102.079
20
-158.438
11
102.079
21
-158.032
0
LINE
8
BLACK
10
102.079
20
-158.032
11
100.809
21
-158.032
0
LINE
8
BLACK
10
100.809
20
-158.032
11
100.809
21
-158.438
0
LINE
8
BLACK
10
100.809
20
-157.803
11
102.079
21
-157.803
0
LINE
8
BLACK
10
102.079
20
-157.803
11
102.079
21
-157.397
0
LINE
8
BLACK
10
102.079
20
-157.397
11
100.809
21
-157.397
0
LINE
8
BLACK
10
100.809
20
-157.397
11
100.809
21
-157.803
0
LINE
8
BLACK
10
100.809
20
-157.143
11
102.079
21
-157.143
0
LINE
8
BLACK
10
102.079
20
-157.143
11
102.079
21
-156.737
0
LINE
8
BLACK
10
102.079
20
-156.737
11
100.809
21
-156.737
0
LINE
8
BLACK
10
100.809
20
-156.737
11
100.809
21
-157.143
0
LINE
8
BLACK
10
100.809
20
-156.483
11
102.079
21
-156.483
0
LINE
8
BLACK
10
102.079
20
-156.483
11
102.079
21
-156.076
0
LINE
8
BLACK
10
102.079
20
-156.076
11
100.809
21
-156.076
0
LINE
8
BLACK
10
100.809
20
-156.076
11
100.809
21
-156.483
0
LINE
8
BLACK
10
100.809
20
-155.848
11
102.079
21
-155.848
0
LINE
8
BLACK
10
102.079
20
-155.848
11
102.079
21
-155.441
0
LINE
8
BLACK
10
102.079
20
-155.441
11
100.809
21
-155.441
0
LINE
8
BLACK
10
100.809
20
-155.441
11
100.809
21
-155.848
0
LINE
8
BLACK
10
100.809
20
-155.187
11
102.079
21
-155.187
0
LINE
8
BLACK
10
102.079
20
-155.187
11
102.079
21
-154.781
0
LINE
8
BLACK
10
102.079
20
-154.781
11
100.809
21
-154.781
0
LINE
8
BLACK
10
100.809
20
-154.781
11
100.809
21
-155.187
0
LINE
8
BLACK
10
100.809
20
-154.552
11
102.079
21
-154.552
0
LINE
8
BLACK
10
102.079
20
-154.552
11
102.079
21
-154.146
0
LINE
8
BLACK
10
102.079
20
-154.146
11
100.809
21
-154.146
0
LINE
8
BLACK
10
100.809
20
-154.146
11
100.809
21
-154.552
0
LINE
8
BLACK
10
100.809
20
-153.892
11
102.079
21
-153.892
0
LINE
8
BLACK
10
102.079
20
-153.892
11
102.079
21
-153.485
0
LINE
8
BLACK
10
102.079
20
-153.485
11
100.809
21
-153.485
0
LINE
8
BLACK
10
100.809
20
-153.485
11
100.809
21
-153.892
0
LINE
8
BLACK
10
100.809
20
-153.231
11
102.079
21
-153.231
0
LINE
8
BLACK
10
102.079
20
-153.231
11
102.079
21
-152.825
0
LINE
8
BLACK
10
102.079
20
-152.825
11
100.809
21
-152.825
0
LINE
8
BLACK
10
100.809
20
-152.825
11
100.809
21
-153.231
0
LINE
8
BLACK
10
100.809
20
-152.596
11
102.079
21
-152.596
0
LINE
8
BLACK
10
102.079
20
-152.596
11
102.079
21
-152.19
0
LINE
8
BLACK
10
102.079
20
-152.19
11
100.809
21
-152.19
0
LINE
8
BLACK
10
100.809
20
-152.19
11
100.809
21
-152.596
0
LINE
8
BLACK
10
100.809
20
-151.936
11
102.079
21
-151.936
0
LINE
8
BLACK
10
102.079
20
-151.936
11
102.079
21
-151.53
0
LINE
8
BLACK
10
102.079
20
-151.53
11
100.809
21
-151.53
0
LINE
8
BLACK
10
100.809
20
-151.53
11
100.809
21
-151.936
0
LINE
8
BLACK
10
107.921
20
-151.936
11
109.191
21
-151.936
0
LINE
8
BLACK
10
109.191
20
-151.936
11
109.191
21
-151.53
0
LINE
8
BLACK
10
109.191
20
-151.53
11
107.921
21
-151.53
0
LINE
8
BLACK
10
107.921
20
-151.53
11
107.921
21
-151.936
0
LINE
8
BLACK
10
107.921
20
-152.596
11
109.191
21
-152.596
0
LINE
8
BLACK
10
109.191
20
-152.596
11
109.191
21
-152.19
0
LINE
8
BLACK
10
109.191
20
-152.19
11
107.921
21
-152.19
0
LINE
8
BLACK
10
107.921
20
-152.19
11
107.921
21
-152.596
0
LINE
8
BLACK
10
107.921
20
-153.206
11
109.191
21
-153.206
0
LINE
8
BLACK
10
109.191
20
-153.206
11
109.191
21
-152.8
0
LINE
8
BLACK
10
109.191
20
-152.8
11
107.921
21
-152.8
0
LINE
8
BLACK
10
107.921
20
-152.8
11
107.921
21
-153.206
0
LINE
8
BLACK
10
107.921
20
-153.892
11
109.191
21
-153.892
0
LINE
8
BLACK
10
109.191
20
-153.892
11
109.191
21
-153.485
0
LINE
8
BLACK
10
109.191
20
-153.485
11
107.921
21
-153.485
0
LINE
8
BLACK
10
107.921
20
-153.485
11
107.921
21
-153.892
0
LINE
8
BLACK
10
107.921
20
-154.552
11
109.191
21
-154.552
0
LINE
8
BLACK
10
109.191
20
-154.552
11
109.191
21
-154.146
0
LINE
8
BLACK
10
109.191
20
-154.146
11
107.921
21
-154.146
0
LINE
8
BLACK
10
107.921
20
-154.146
11
107.921
21
-154.552
0
LINE
8
BLACK
10
107.921
20
-155.187
11
109.191
21
-155.187
0
LINE
8
BLACK
10
109.191
20
-155.187
11
109.191
21
-154.781
0
LINE
8
BLACK
10
109.191
20
-154.781
11
107.921
21
-154.781
0
LINE
8
BLACK
10
107.921
20
-154.781
11
107.921
21
-155.187
0
LINE
8
BLACK
10
107.921
20
-155.848
11
109.191
21
-155.848
0
LINE
8
BLACK
10
109.191
20
-155.848
11
109.191
21
-155.441
0
LINE
8
BLACK
10
109.191
20
-155.441
11
107.921
21
-155.441
0
LINE
8
BLACK
10
107.921
20
-155.441
11
107.921
21
-155.848
0
LINE
8
BLACK
10
107.921
20
-156.483
11
109.191
21
-156.483
0
LINE
8
BLACK
10
109.191
20
-156.483
11
109.191
21
-156.076
0
LINE
8
BLACK
10
109.191
20
-156.076
11
107.921
21
-156.076
0
LINE
8
BLACK
10
107.921
20
-156.076
11
107.921
21
-156.483
0
LINE
8
BLACK
10
107.921
20
-157.143
11
109.191
21
-157.143
0
LINE
8
BLACK
10
109.191
20
-157.143
11
109.191
21
-156.737
0
LINE
8
BLACK
10
109.191
20
-156.737
11
107.921
21
-156.737
0
LINE
8
BLACK
10
107.921
20
-156.737
11
107.921
21
-157.143
0
LINE
8
BLACK
10
107.921
20
-157.803
11
109.191
21
-157.803
0
LINE
8
BLACK
10
109.191
20
-157.803
11
109.191
21
-157.397
0
LINE
8
BLACK
10
109.191
20
-157.397
11
107.921
21
-157.397
0
LINE
8
BLACK
10
107.921
20
-157.397
11
107.921
21
-157.803
0
LINE
8
BLACK
10
107.921
20
-158.438
11
109.191
21
-158.438
0
LINE
8
BLACK
10
109.191
20
-158.438
11
109.191
21
-158.032
0
LINE
8
BLACK
10
109.191
20
-158.032
11
107.921
21
-158.032
0
LINE
8
BLACK
10
107.921
20
-158.032
11
107.921
21
-158.438
0
LINE
8
BLACK
10
107.921
20
-159.099
11
109.191
21
-159.099
0
LINE
8
BLACK
10
109.191
20
-159.099
11
109.191
21
-158.692
0
LINE
8
BLACK
10
109.191
20
-158.692
11
107.921
21
-158.692
0
LINE
8
BLACK
10
107.921
20
-158.692
11
107.921
21
-159.099
0
LINE
8
BLACK
10
107.921
20
-159.759
11
109.191
21
-159.759
0
LINE
8
BLACK
10
109.191
20
-159.759
11
109.191
21
-159.353
0
LINE
8
BLACK
10
109.191
20
-159.353
11
107.921
21
-159.353
0
LINE
8
BLACK
10
107.921
20
-159.353
11
107.921
21
-159.759
0
LINE
8
BLACK
10
107.921
20
-160.394
11
109.191
21
-160.394
0
LINE
8
BLACK
10
109.191
20
-160.394
11
109.191
21
-159.988
0
LINE
8
BLACK
10
109.191
20
-159.988
11
107.921
21
-159.988
0
LINE
8
BLACK
10
107.921
20
-159.988
11
107.921
21
-160.394
0
LINE
8
BLACK
10
103.3
20
-160.85
11
106.7
21
-160.85
0
LINE
8
BLACK
10
106.7
20
-160.85
11
106.7
21
-151.15
0
LINE
8
BLACK
10
106.7
20
-151.15
11
103.3
21
-151.15
0
LINE
8
BLACK
10
103.3
20
-151.15
11
103.3
21
-160.85
0
LINE
8
BLACK
10
190.809
20
-160.394
11
192.079
21
-160.394
0
LINE
8
BLACK
10
192.079
20
-160.394
11
192.079
21
-159.988
0
LINE
8
BLACK
10
192.079
20
-159.988
11
190.809
21
-159.988
0
LINE
8
BLACK
10
190.809
20
-159.988
11
190.809
21
-160.394
0
LINE
8
BLACK
10
190.809
20
-159.759
11
192.079
21
-159.759
0
LINE
8
BLACK
10
192.079
20
-159.759
11
192.079
21
-159.353
0
LINE
8
BLACK
10
192.079
20
-159.353
11
190.809
21
-159.353
0
LINE
8
BLACK
10
190.809
20
-159.353
11
190.809
21
-159.759
0
LINE
8
BLACK
10
190.809
20
-159.099
11
192.079
21
-159.099
0
LINE
8
BLACK
10
192.079
20
-159.099
11
192.079
21
-158.692
0
LINE
8
BLACK
10
192.079
20
-158.692
11
190.809
21
-158.692
0
LINE
8
BLACK
10
190.809
20
-158.692
11
190.809
21
-159.099
0
LINE
8
BLACK
10
190.809
20
-158.438
11
192.079
21
-158.438
0
LINE
8
BLACK
10
192.079
20
-158.438
11
192.079
21
-158.032
0
LINE
8
BLACK
10
192.079
20
-158.032
11
190.809
21
-158.032
0
LINE
8
BLACK
10
190.809
20
-158.032
11
190.809
21
-158.438
0
LINE
8
BLACK
10
190.809
20
-157.803
11
192.079
21
-157.803
0
LINE
8
BLACK
10
192.079
20
-157.803
11
192.079
21
-157.397
0
LINE
8
BLACK
10
192.079
20
-157.397
11
190.809
21
-157.397
0
LINE
8
BLACK
10
190.809
20
-157.397
11
190.809
21
-157.803
0
LINE
8
BLACK
10
190.809
20
-157.143
11
192.079
21
-157.143
0
LINE
8
BLACK
10
192.079
20
-157.143
11
192.079
21
-156.737
0
LINE
8
BLACK
10
192.079
20
-156.737
11
190.809
21
-156.737
0
LINE
8
BLACK
10
190.809
20
-156.737
11
190.809
21
-157.143
0
LINE
8
BLACK
10
190.809
20
-156.483
11
192.079
21
-156.483
0
LINE
8
BLACK
10
192.079
20
-156.483
11
192.079
21
-156.076
0
LINE
8
BLACK
10
192.079
20
-156.076
11
190.809
21
-156.076
0
LINE
8
BLACK
10
190.809
20
-156.076
11
190.809
21
-156.483
0
LINE
8
BLACK
10
190.809
20
-155.848
11
192.079
21
-155.848
0
LINE
8
BLACK
10
192.079
20
-155.848
11
192.079
21
-155.441
0
LINE
8
BLACK
10
192.079
20
-155.441
11
190.809
21
-155.441
0
LINE
8
BLACK
10
190.809
20
-155.441
11
190.809
21
-155.848
0
LINE
8
BLACK
10
190.809
20
-155.187
11
192.079
21
-155.187
0
LINE
8
BLACK
10
192.079
20
-155.187
11
192.079
21
-154.781
0
LINE
8
BLACK
10
192.079
20
-154.781
11
190.809
21
-154.781
0
LINE
8
BLACK
10
190.809
20
-154.781
11
190.809
21
-155.187
0
LINE
8
BLACK
10
190.809
20
-154.552
11
192.079
21
-154.552
0
LINE
8
BLACK
10
192.079
20
-154.552
11
192.079
21
-154.146
0
LINE
8
BLACK
10
192.079
20
-154.146
11
190.809
21
-154.146
0
LINE
8
BLACK
10
190.809
20
-154.146
11
190.809
21
-154.552
0
LINE
8
BLACK
10
190.809
20
-153.892
11
192.079
21
-153.892
0
LINE
8
BLACK
10
192.079
20
-153.892
11
192.079
21
-153.485
0
LINE
8
BLACK
10
192.079
20
-153.485
11
190.809
21
-153.485
0
LINE
8
BLACK
10
190.809
20
-153.485
11
190.809
21
-153.892
0
LINE
8
BLACK
10
190.809
20
-153.231
11
192.079
21
-153.231
0
LINE
8
BLACK
10
192.079
20
-153.231
11
192.079
21
-152.825
0
LINE
8
BLACK
10
192.079
20
-152.825
11
190.809
21
-152.825
0
LINE
8
BLACK
10
190.809
20
-152.825
11
190.809
21
-153.231
0
LINE
8
BLACK
10
190.809
20
-152.596
11
192.079
21
-152.596
0
LINE
8
BLACK
10
192.079
20
-152.596
11
192.079
21
-152.19
0
LINE
8
BLACK
10
192.079
20
-152.19
11
190.809
21
-152.19
0
LINE
8
BLACK
10
190.809
20
-152.19
11
190.809
21
-152.596
0
LINE
8
BLACK
10
190.809
20
-151.936
11
192.079
21
-151.936
0
LINE
8
BLACK
10
192.079
20
-151.936
11
192.079
21
-151.53
0
LINE
8
BLACK
10
192.079
20
-151.53
11
190.809
21
-151.53
0
LINE
8
BLACK
10
190.809
20
-151.53
11
190.809
21
-151.936
0
LINE
8
BLACK
10
197.921
20
-151.936
11
199.191
21
-151.936
0
LINE
8
BLACK
10
199.191
20
-151.936
11
199.191
21
-151.53
0
LINE
8
BLACK
10
199.191
20
-151.53
11
197.921
21
-151.53
0
LINE
8
BLACK
10
197.921
20
-151.53
11
197.921
21
-151.936
0
LINE
8
BLACK
10
197.921
20
-152.596
11
199.191
21
-152.596
0
LINE
8
BLACK
10
199.191
20
-152.596
11
199.191
21
-152.19
0
LINE
8
BLACK
10
199.191
20
-152.19
11
197.921
21
-152.19
0
LINE
8
BLACK
10
197.921
20
-152.19
11
197.921
21
-152.596
0
LINE
8
BLACK
10
197.921
20
-153.206
11
199.191
21
-153.206
0
LINE
8
BLACK
10
199.191
20
-153.206
11
199.191
21
-152.8
0
LINE
8
BLACK
10
199.191
20
-152.8
11
197.921
21
-152.8
0
LINE
8
BLACK
10
197.921
20
-152.8
11
197.921
21
-153.206
0
LINE
8
BLACK
10
197.921
20
-153.892
11
199.191
21
-153.892
0
LINE
8
BLACK
10
199.191
20
-153.892
11
199.191
21
-153.485
0
LINE
8
BLACK
10
199.191
20
-153.485
11
197.921
21
-153.485
0
LINE
8
BLACK
10
197.921
20
-153.485
11
197.921
21
-153.892
0
LINE
8
BLACK
10
197.921
20
-154.552
11
199.191
21
-154.552
0
LINE
8
BLACK
10
199.191
20
-154.552
11
199.191
21
-154.146
0
LINE
8
BLACK
10
199.191
20
-154.146
11
197.921
21
-154.146
0
LINE
8
BLACK
10
197.921
20
-154.146
11
197.921
21
-154.552
0
LINE
8
BLACK
10
197.921
20
-155.187
11
199.191
21
-155.187
0
LINE
8
BLACK
10
199.191
20
-155.187
11
199.191
21
-154.781
0
LINE
8
BLACK
10
199.191
20
-154.781
11
197.921
21
-154.781
0
LINE
8
BLACK
10
197.921
20
-154.781
11
197.921
21
-155.187
0
LINE
8
BLACK
10
197.921
20
-155.848
11
199.191
21
-155.848
0
LINE
8
BLACK
10
199.191
20
-155.848
11
199.191
21
-155.441
0
LINE
8
BLACK
10
199.191
20
-155.441
11
197.921
21
-155.441
0
LINE
8
BLACK
10
197.921
20
-155.441
11
197.921
21
-155.848
0
LINE
8
BLACK
10
197.921
20
-156.483
11
199.191
21
-156.483
0
LINE
8
BLACK
10
199.191
20
-156.483
11
199.191
21
-156.076
0
LINE
8
BLACK
10
199.191
20
-156.076
11
197.921
21
-156.076
0
LINE
8
BLACK
10
197.921
20
-156.076
11
197.921
21
-156.483
0
LINE
8
BLACK
10
197.921
20
-157.143
11
199.191
21
-157.143
0
LINE
8
BLACK
10
199.191
20
-157.143
11
199.191
21
-156.737
0
LINE
8
BLACK
10
199.191
20
-156.737
11
197.921
21
-156.737
0
LINE
8
BLACK
10
197.921
20
-156.737
11
197.921
21
-157.143
0
LINE
8
BLACK
10
197.921
20
-157.803
11
199.191
21
-157.803
0
LINE
8
BLACK
10
199.191
20
-157.803
11
199.191
21
-157.397
0
LINE
8
BLACK
10
199.191
20
-157.397
11
197.921
21
-157.397
0
LINE
8
BLACK
10
197.921
20
-157.397
11
197.921
21
-157.803
0
LINE
8
BLACK
10
197.921
20
-158.438
11
199.191
21
-158.438
0
LINE
8
BLACK
10
199.191
20
-158.438
11
199.191
21
-158.032
0
LINE
8
BLACK
10
199.191
20
-158.032
11
197.921
21
-158.032
0
LINE
8
BLACK
10
197.921
20
-158.032
11
197.921
21
-158.438
0
LINE
8
BLACK
10
197.921
20
-159.099
11
199.191
21
-159.099
0
LINE
8
BLACK
10
199.191
20
-159.099
11
199.191
21
-158.692
0
LINE
8
BLACK
10
199.191
20
-158.692
11
197.921
21
-158.692
0
LINE
8
BLACK
10
197.921
20
-158.692
11
197.921
21
-159.099
0
LINE
8
BLACK
10
197.921
20
-159.759
11
199.191
21
-159.759
0
LINE
8
BLACK
10
199.191
20
-159.759
11
199.191
21
-159.353
0
LINE
8
BLACK
10
199.191
20
-159.353
11
197.921
21
-159.353
0
LINE
8
BLACK
10
197.921
20
-159.353
11
197.921
21
-159.759
0
LINE
8
BLACK
10
197.921
20
-160.394
11
199.191
21
-160.394
0
LINE
8
BLACK
10
199.191
20
-160.394
11
199.191
21
-159.988
0
LINE
8
BLACK
10
199.191
20
-159.988
11
197.921
21
-159.988
0
LINE
8
BLACK
10
197.921
20
-159.988
11
197.921
21
-160.394
0
LINE
8
BLACK
10
193.3
20
-160.85
11
196.7
21
-160.85
0
LINE
8
BLACK
10
196.7
20
-160.85
11
196.7
21
-151.15
0
LINE
8
BLACK
10
196.7
20
-151.15
11
193.3
21
-151.15
0
LINE
8
BLACK
10
193.3
20
-151.15
11
193.3
21
-160.85
0
LINE
8
BLACK
10
180.191
20
-102.606
11
178.921
21
-102.606
0
LINE
8
BLACK
10
178.921
20
-102.606
11
178.921
21
-103.012
0
LINE
8
BLACK
10
178.921
20
-103.012
11
180.191
21
-103.012
0
LINE
8
BLACK
10
180.191
20
-103.012
11
180.191
21
-102.606
0
LINE
8
BLACK
10
180.191
20
-103.241
11
178.921
21
-103.241
0
LINE
8
BLACK
10
178.921
20
-103.241
11
178.921
21
-103.647
0
LINE
8
BLACK
10
178.921
20
-103.647
11
180.191
21
-103.647
0
LINE
8
BLACK
10
180.191
20
-103.647
11
180.191
21
-103.241
0
LINE
8
BLACK
10
180.191
20
-103.901
11
178.921
21
-103.901
0
LINE
8
BLACK
10
178.921
20
-103.901
11
178.921
21
-104.308
0
LINE
8
BLACK
10
178.921
20
-104.308
11
180.191
21
-104.308
0
LINE
8
BLACK
10
180.191
20
-104.308
11
180.191
21
-103.901
0
LINE
8
BLACK
10
180.191
20
-104.562
11
178.921
21
-104.562
0
LINE
8
BLACK
10
178.921
20
-104.562
11
178.921
21
-104.968
0
LINE
8
BLACK
10
178.921
20
-104.968
11
180.191
21
-104.968
0
LINE
8
BLACK
10
180.191
20
-104.968
11
180.191
21
-104.562
0
LINE
8
BLACK
10
180.191
20
-105.197
11
178.921
21
-105.197
0
LINE
8
BLACK
10
178.921
20
-105.197
11
178.921
21
-105.603
0
LINE
8
BLACK
10
178.921
20
-105.603
11
180.191
21
-105.603
0
LINE
8
BLACK
10
180.191
20
-105.603
11
180.191
21
-105.197
0
LINE
8
BLACK
10
180.191
20
-105.857
11
178.921
21
-105.857
0
LINE
8
BLACK
10
178.921
20
-105.857
11
178.921
21
-106.263
0
LINE
8
BLACK
10
178.921
20
-106.263
11
180.191
21
-106.263
0
LINE
8
BLACK
10
180.191
20
-106.263
11
180.191
21
-105.857
0
LINE
8
BLACK
10
180.191
20
-106.517
11
178.921
21
-106.517
0
LINE
8
BLACK
10
178.921
20
-106.517
11
178.921
21
-106.924
0
LINE
8
BLACK
10
178.921
20
-106.924
11
180.191
21
-106.924
0
LINE
8
BLACK
10
180.191
20
-106.924
11
180.191
21
-106.517
0
LINE
8
BLACK
10
180.191
20
-107.152
11
178.921
21
-107.152
0
LINE
8
BLACK
10
178.921
20
-107.152
11
178.921
21
-107.559
0
LINE
8
BLACK
10
178.921
20
-107.559
11
180.191
21
-107.559
0
LINE
8
BLACK
10
180.191
20
-107.559
11
180.191
21
-107.152
0
LINE
8
BLACK
10
180.191
20
-107.813
11
178.921
21
-107.813
0
LINE
8
BLACK
10
178.921
20
-107.813
11
178.921
21
-108.219
0
LINE
8
BLACK
10
178.921
20
-108.219
11
180.191
21
-108.219
0
LINE
8
BLACK
10
180.191
20
-108.219
11
180.191
21
-107.813
0
LINE
8
BLACK
10
180.191
20
-108.448
11
178.921
21
-108.448
0
LINE
8
BLACK
10
178.921
20
-108.448
11
178.921
21
-108.854
0
LINE
8
BLACK
10
178.921
20
-108.854
11
180.191
21
-108.854
0
LINE
8
BLACK
10
180.191
20
-108.854
11
180.191
21
-108.448
0
LINE
8
BLACK
10
180.191
20
-109.108
11
178.921
21
-109.108
0
LINE
8
BLACK
10
178.921
20
-109.108
11
178.921
21
-109.515
0
LINE
8
BLACK
10
178.921
20
-109.515
11
180.191
21
-109.515
0
LINE
8
BLACK
10
180.191
20
-109.515
11
180.191
21
-109.108
0
LINE
8
BLACK
10
180.191
20
-109.769
11
178.921
21
-109.769
0
LINE
8
BLACK
10
178.921
20
-109.769
11
178.921
21
-110.175
0
LINE
8
BLACK
10
178.921
20
-110.175
11
180.191
21
-110.175
0
LINE
8
BLACK
10
180.191
20
-110.175
11
180.191
21
-109.769
0
LINE
8
BLACK
10
180.191
20
-110.404
11
178.921
21
-110.404
0
LINE
8
BLACK
10
178.921
20
-110.404
11
178.921
21
-110.81
0
LINE
8
BLACK
10
178.921
20
-110.81
11
180.191
21
-110.81
0
LINE
8
BLACK
10
180.191
20
-110.81
11
180.191
21
-110.404
0
LINE
8
BLACK
10
180.191
20
-111.064
11
178.921
21
-111.064
0
LINE
8
BLACK
10
178.921
20
-111.064
11
178.921
21
-111.47
0
LINE
8
BLACK
10
178.921
20
-111.47
11
180.191
21
-111.47
0
LINE
8
BLACK
10
180.191
20
-111.47
11
180.191
21
-111.064
0
LINE
8
BLACK
10
173.079
20
-111.064
11
171.809
21
-111.064
0
LINE
8
BLACK
10
171.809
20
-111.064
11
171.809
21
-111.47
0
LINE
8
BLACK
10
171.809
20
-111.47
11
173.079
21
-111.47
0
LINE
8
BLACK
10
173.079
20
-111.47
11
173.079
21
-111.064
0
LINE
8
BLACK
10
173.079
20
-110.404
11
171.809
21
-110.404
0
LINE
8
BLACK
10
171.809
20
-110.404
11
171.809
21
-110.81
0
LINE
8
BLACK
10
171.809
20
-110.81
11
173.079
21
-110.81
0
LINE
8
BLACK
10
173.079
20
-110.81
11
173.079
21
-110.404
0
LINE
8
BLACK
10
173.079
20
-109.794
11
171.809
21
-109.794
0
LINE
8
BLACK
10
171.809
20
-109.794
11
171.809
21
-110.2
0
LINE
8
BLACK
10
171.809
20
-110.2
11
173.079
21
-110.2
0
LINE
8
BLACK
10
173.079
20
-110.2
11
173.079
21
-109.794
0
LINE
8
BLACK
10
173.079
20
-109.108
11
171.809
21
-109.108
0
LINE
8
BLACK
10
171.809
20
-109.108
11
171.809
21
-109.515
0
LINE
8
BLACK
10
171.809
20
-109.515
11
173.079
21
-109.515
0
LINE
8
BLACK
10
173.079
20
-109.515
11
173.079
21
-109.108
0
LINE
8
BLACK
10
173.079
20
-108.448
11
171.809
21
-108.448
0
LINE
8
BLACK
10
171.809
20
-108.448
11
171.809
21
-108.854
0
LINE
8
BLACK
10
171.809
20
-108.854
11
173.079
21
-108.854
0
LINE
8
BLACK
10
173.079
20
-108.854
11
173.079
21
-108.448
0
LINE
8
BLACK
10
173.079
20
-107.813
11
171.809
21
-107.813
0
LINE
8
BLACK
10
171.809
20
-107.813
11
171.809
21
-108.219
0
LINE
8
BLACK
10
171.809
20
-108.219
11
173.079
21
-108.219
0
LINE
8
BLACK
10
173.079
20
-108.219
11
173.079
21
-107.813
0
LINE
8
BLACK
10
173.079
20
-107.152
11
171.809
21
-107.152
0
LINE
8
BLACK
10
171.809
20
-107.152
11
171.809
21
-107.559
0
LINE
8
BLACK
10
171.809
20
-107.559
11
173.079
21
-107.559
0
LINE
8
BLACK
10
173.079
20
-107.559
11
173.079
21
-107.152
0
LINE
8
BLACK
10
173.079
20
-106.517
11
171.809
21
-106.517
0
LINE
8
BLACK
10
171.809
20
-106.517
11
171.809
21
-106.924
0
LINE
8
BLACK
10
171.809
20
-106.924
11
173.079
21
-106.924
0
LINE
8
BLACK
10
173.079
20
-106.924
11
173.079
21
-106.517
0
LINE
8
BLACK
10
173.079
20
-105.857
11
171.809
21
-105.857
0
LINE
8
BLACK
10
171.809
20
-105.857
11
171.809
21
-106.263
0
LINE
8
BLACK
10
171.809
20
-106.263
11
173.079
21
-106.263
0
LINE
8
BLACK
10
173.079
20
-106.263
11
173.079
21
-105.857
0
LINE
8
BLACK
10
173.079
20
-105.197
11
171.809
21
-105.197
0
LINE
8
BLACK
10
171.809
20
-105.197
11
171.809
21
-105.603
0
LINE
8
BLACK
10
171.809
20
-105.603
11
173.079
21
-105.603
0
LINE
8
BLACK
10
173.079
20
-105.603
11
173.079
21
-105.197
0
LINE
8
BLACK
10
173.079
20
-104.562
11
171.809
21
-104.562
0
LINE
8
BLACK
10
171.809
20
-104.562
11
171.809
21
-104.968
0
LINE
8
BLACK
10
171.809
20
-104.968
11
173.079
21
-104.968
0
LINE
8
BLACK
10
173.079
20
-104.968
11
173.079
21
-104.562
0
LINE
8
BLACK
10
173.079
20
-103.901
11
171.809
21
-103.901
0
LINE
8
BLACK
10
171.809
20
-103.901
11
171.809
21
-104.308
0
LINE
8
BLACK
10
171.809
20
-104.308
11
173.079
21
-104.308
0
LINE
8
BLACK
10
173.079
20
-104.308
11
173.079
21
-103.901
0
LINE
8
BLACK
10
173.079
20
-103.241
11
171.809
21
-103.241
0
LINE
8
BLACK
10
171.809
20
-103.241
11
171.809
21
-103.647
0
LINE
8
BLACK
10
171.809
20
-103.647
11
173.079
21
-103.647
0
LINE
8
BLACK
10
173.079
20
-103.647
11
173.079
21
-103.241
0
LINE
8
BLACK
10
173.079
20
-102.606
11
171.809
21
-102.606
0
LINE
8
BLACK
10
171.809
20
-102.606
11
171.809
21
-103.012
0
LINE
8
BLACK
10
171.809
20
-103.012
11
173.079
21
-103.012
0
LINE
8
BLACK
10
173.079
20
-103.012
11
173.079
21
-102.606
0
LINE
8
BLACK
10
177.7
20
-102.15
11
174.3
21
-102.15
0
LINE
8
BLACK
10
174.3
20
-102.15
11
174.3
21
-111.85
0
LINE
8
BLACK
10
174.3
20
-111.85
11
177.7
21
-111.85
0
LINE
8
BLACK
10
177.7
20
-111.85
11
177.7
21
-102.15
0
LINE
8
BLACK
10
154.809
20
-160.394
11
156.079
21
-160.394
0
LINE
8
BLACK
10
156.079
20
-160.394
11
156.079
21
-159.988
0
LINE
8
BLACK
10
156.079
20
-159.988
11
154.809
21
-159.988
0
LINE
8
BLACK
10
154.809
20
-159.988
11
154.809
21
-160.394
0
LINE
8
BLACK
10
154.809
20
-159.759
11
156.079
21
-159.759
0
LINE
8
BLACK
10
156.079
20
-159.759
11
156.079
21
-159.353
0
LINE
8
BLACK
10
156.079
20
-159.353
11
154.809
21
-159.353
0
LINE
8
BLACK
10
154.809
20
-159.353
11
154.809
21
-159.759
0
LINE
8
BLACK
10
154.809
20
-159.099
11
156.079
21
-159.099
0
LINE
8
BLACK
10
156.079
20
-159.099
11
156.079
21
-158.692
0
LINE
8
BLACK
10
156.079
20
-158.692
11
154.809
21
-158.692
0
LINE
8
BLACK
10
154.809
20
-158.692
11
154.809
21
-159.099
0
LINE
8
BLACK
10
154.809
20
-158.438
11
156.079
21
-158.438
0
LINE
8
BLACK
10
156.079
20
-158.438
11
156.079
21
-158.032
0
LINE
8
BLACK
10
156.079
20
-158.032
11
154.809
21
-158.032
0
LINE
8
BLACK
10
154.809
20
-158.032
11
154.809
21
-158.438
0
LINE
8
BLACK
10
154.809
20
-157.803
11
156.079
21
-157.803
0
LINE
8
BLACK
10
156.079
20
-157.803
11
156.079
21
-157.397
0
LINE
8
BLACK
10
156.079
20
-157.397
11
154.809
21
-157.397
0
LINE
8
BLACK
10
154.809
20
-157.397
11
154.809
21
-157.803
0
LINE
8
BLACK
10
154.809
20
-157.143
11
156.079
21
-157.143
0
LINE
8
BLACK
10
156.079
20
-157.143
11
156.079
21
-156.737
0
LINE
8
BLACK
10
156.079
20
-156.737
11
154.809
21
-156.737
0
LINE
8
BLACK
10
154.809
20
-156.737
11
154.809
21
-157.143
0
LINE
8
BLACK
10
154.809
20
-156.483
11
156.079
21
-156.483
0
LINE
8
BLACK
10
156.079
20
-156.483
11
156.079
21
-156.076
0
LINE
8
BLACK
10
156.079
20
-156.076
11
154.809
21
-156.076
0
LINE
8
BLACK
10
154.809
20
-156.076
11
154.809
21
-156.483
0
LINE
8
BLACK
10
154.809
20
-155.848
11
156.079
21
-155.848
0
LINE
8
BLACK
10
156.079
20
-155.848
11
156.079
21
-155.441
0
LINE
8
BLACK
10
156.079
20
-155.441
11
154.809
21
-155.441
0
LINE
8
BLACK
10
154.809
20
-155.441
11
154.809
21
-155.848
0
LINE
8
BLACK
10
154.809
20
-155.187
11
156.079
21
-155.187
0
LINE
8
BLACK
10
156.079
20
-155.187
11
156.079
21
-154.781
0
LINE
8
BLACK
10
156.079
20
-154.781
11
154.809
21
-154.781
0
LINE
8
BLACK
10
154.809
20
-154.781
11
154.809
21
-155.187
0
LINE
8
BLACK
10
154.809
20
-154.552
11
156.079
21
-154.552
0
LINE
8
BLACK
10
156.079
20
-154.552
11
156.079
21
-154.146
0
LINE
8
BLACK
10
156.079
20
-154.146
11
154.809
21
-154.146
0
LINE
8
BLACK
10
154.809
20
-154.146
11
154.809
21
-154.552
0
LINE
8
BLACK
10
154.809
20
-153.892
11
156.079
21
-153.892
0
LINE
8
BLACK
10
156.079
20
-153.892
11
156.079
21
-153.485
0
LINE
8
BLACK
10
156.079
20
-153.485
11
154.809
21
-153.485
0
LINE
8
BLACK
10
154.809
20
-153.485
11
154.809
21
-153.892
0
LINE
8
BLACK
10
154.809
20
-153.231
11
156.079
21
-153.231
0
LINE
8
BLACK
10
156.079
20
-153.231
11
156.079
21
-152.825
0
LINE
8
BLACK
10
156.079
20
-152.825
11
154.809
21
-152.825
0
LINE
8
BLACK
10
154.809
20
-152.825
11
154.809
21
-153.231
0
LINE
8
BLACK
10
154.809
20
-152.596
11
156.079
21
-152.596
0
LINE
8
BLACK
10
156.079
20
-152.596
11
156.079
21
-152.19
0
LINE
8
BLACK
10
156.079
20
-152.19
11
154.809
21
-152.19
0
LINE
8
BLACK
10
154.809
20
-152.19
11
154.809
21
-152.596
0
LINE
8
BLACK
10
154.809
20
-151.936
11
156.079
21
-151.936
0
LINE
8
BLACK
10
156.079
20
-151.936
11
156.079
21
-151.53
0
LINE
8
BLACK
10
156.079
20
-151.53
11
154.809
21
-151.53
0
LINE
8
BLACK
10
154.809
20
-151.53
11
154.809
21
-151.936
0
LINE
8
BLACK
10
161.921
20
-151.936
11
163.191
21
-151.936
0
LINE
8
BLACK
10
163.191
20
-151.936
11
163.191
21
-151.53
0
LINE
8
BLACK
10
163.191
20
-151.53
11
161.921
21
-151.53
0
LINE
8
BLACK
10
161.921
20
-151.53
11
161.921
21
-151.936
0
LINE
8
BLACK
10
161.921
20
-152.596
11
163.191
21
-152.596
0
LINE
8
BLACK
10
163.191
20
-152.596
11
163.191
21
-152.19
0
LINE
8
BLACK
10
163.191
20
-152.19
11
161.921
21
-152.19
0
LINE
8
BLACK
10
161.921
20
-152.19
11
161.921
21
-152.596
0
LINE
8
BLACK
10
161.921
20
-153.206
11
163.191
21
-153.206
0
LINE
8
BLACK
10
163.191
20
-153.206
11
163.191
21
-152.8
0
LINE
8
BLACK
10
163.191
20
-152.8
11
161.921
21
-152.8
0
LINE
8
BLACK
10
161.921
20
-152.8
11
161.921
21
-153.206
0
LINE
8
BLACK
10
161.921
20
-153.892
11
163.191
21
-153.892
0
LINE
8
BLACK
10
163.191
20
-153.892
11
163.191
21
-153.485
0
LINE
8
BLACK
10
163.191
20
-153.485
11
161.921
21
-153.485
0
LINE
8
BLACK
10
161.921
20
-153.485
11
161.921
21
-153.892
0
LINE
8
BLACK
10
161.921
20
-154.552
11
163.191
21
-154.552
0
LINE
8
BLACK
10
163.191
20
-154.552
11
163.191
21
-154.146
0
LINE
8
BLACK
10
163.191
20
-154.146
11
161.921
21
-154.146
0
LINE
8
BLACK
10
161.921
20
-154.146
11
161.921
21
-154.552
0
LINE
8
BLACK
10
161.921
20
-155.187
11
163.191
21
-155.187
0
LINE
8
BLACK
10
163.191
20
-155.187
11
163.191
21
-154.781
0
LINE
8
BLACK
10
163.191
20
-154.781
11
161.921
21
-154.781
0
LINE
8
BLACK
10
161.921
20
-154.781
11
161.921
21
-155.187
0
LINE
8
BLACK
10
161.921
20
-155.848
11
163.191
21
-155.848
0
LINE
8
BLACK
10
163.191
20
-155.848
11
163.191
21
-155.441
0
LINE
8
BLACK
10
163.191
20
-155.441
11
161.921
21
-155.441
0
LINE
8
BLACK
10
161.921
20
-155.441
11
161.921
21
-155.848
0
LINE
8
BLACK
10
161.921
20
-156.483
11
163.191
21
-156.483
0
LINE
8
BLACK
10
163.191
20
-156.483
11
163.191
21
-156.076
0
LINE
8
BLACK
10
163.191
20
-156.076
11
161.921
21
-156.076
0
LINE
8
BLACK
10
161.921
20
-156.076
11
161.921
21
-156.483
0
LINE
8
BLACK
10
161.921
20
-157.143
11
163.191
21
-157.143
0
LINE
8
BLACK
10
163.191
20
-157.143
11
163.191
21
-156.737
0
LINE
8
BLACK
10
163.191
20
-156.737
11
161.921
21
-156.737
0
LINE
8
BLACK
10
161.921
20
-156.737
11
161.921
21
-157.143
0
LINE
8
BLACK
10
161.921
20
-157.803
11
163.191
21
-157.803
0
LINE
8
BLACK
10
163.191
20
-157.803
11
163.191
21
-157.397
0
LINE
8
BLACK
10
163.191
20
-157.397
11
161.921
21
-157.397
0
LINE
8
BLACK
10
161.921
20
-157.397
11
161.921
21
-157.803
0
LINE
8
BLACK
10
161.921
20
-158.438
11
163.191
21
-158.438
0
LINE
8
BLACK
10
163.191
20
-158.438
11
163.191
21
-158.032
0
LINE
8
BLACK
10
163.191
20
-158.032
11
161.921
21
-158.032
0
LINE
8
BLACK
10
161.921
20
-158.032
11
161.921
21
-158.438
0
LINE
8
BLACK
10
161.921
20
-159.099
11
163.191
21
-159.099
0
LINE
8
BLACK
10
163.191
20
-159.099
11
163.191
21
-158.692
0
LINE
8
BLACK
10
163.191
20
-158.692
11
161.921
21
-158.692
0
LINE
8
BLACK
10
161.921
20
-158.692
11
161.921
21
-159.099
0
LINE
8
BLACK
10
161.921
20
-159.759
11
163.191
21
-159.759
0
LINE
8
BLACK
10
163.191
20
-159.759
11
163.191
21
-159.353
0
LINE
8
BLACK
10
163.191
20
-159.353
11
161.921
21
-159.353
0
LINE
8
BLACK
10
161.921
20
-159.353
11
161.921
21
-159.759
0
LINE
8
BLACK
10
161.921
20
-160.394
11
163.191
21
-160.394
0
LINE
8
BLACK
10
163.191
20
-160.394
11
163.191
21
-159.988
0
LINE
8
BLACK
10
163.191
20
-159.988
11
161.921
21
-159.988
0
LINE
8
BLACK
10
161.921
20
-159.988
11
161.921
21
-160.394
0
LINE
8
BLACK
10
157.3
20
-160.85
11
160.7
21
-160.85
0
LINE
8
BLACK
10
160.7
20
-160.85
11
160.7
21
-151.15
0
LINE
8
BLACK
10
160.7
20
-151.15
11
157.3
21
-151.15
0
LINE
8
BLACK
10
157.3
20
-151.15
11
157.3
21
-160.85
0
LINE
8
BLACK
10
144.191
20
-102.606
11
142.921
21
-102.606
0
LINE
8
BLACK
10
142.921
20
-102.606
11
142.921
21
-103.012
0
LINE
8
BLACK
10
142.921
20
-103.012
11
144.191
21
-103.012
0
LINE
8
BLACK
10
144.191
20
-103.012
11
144.191
21
-102.606
0
LINE
8
BLACK
10
144.191
20
-103.241
11
142.921
21
-103.241
0
LINE
8
BLACK
10
142.921
20
-103.241
11
142.921
21
-103.647
0
LINE
8
BLACK
10
142.921
20
-103.647
11
144.191
21
-103.647
0
LINE
8
BLACK
10
144.191
20
-103.647
11
144.191
21
-103.241
0
LINE
8
BLACK
10
144.191
20
-103.901
11
142.921
21
-103.901
0
LINE
8
BLACK
10
142.921
20
-103.901
11
142.921
21
-104.308
0
LINE
8
BLACK
10
142.921
20
-104.308
11
144.191
21
-104.308
0
LINE
8
BLACK
10
144.191
20
-104.308
11
144.191
21
-103.901
0
LINE
8
BLACK
10
144.191
20
-104.562
11
142.921
21
-104.562
0
LINE
8
BLACK
10
142.921
20
-104.562
11
142.921
21
-104.968
0
LINE
8
BLACK
10
142.921
20
-104.968
11
144.191
21
-104.968
0
LINE
8
BLACK
10
144.191
20
-104.968
11
144.191
21
-104.562
0
LINE
8
BLACK
10
144.191
20
-105.197
11
142.921
21
-105.197
0
LINE
8
BLACK
10
142.921
20
-105.197
11
142.921
21
-105.603
0
LINE
8
BLACK
10
142.921
20
-105.603
11
144.191
21
-105.603
0
LINE
8
BLACK
10
144.191
20
-105.603
11
144.191
21
-105.197
0
LINE
8
BLACK
10
144.191
20
-105.857
11
142.921
21
-105.857
0
LINE
8
BLACK
10
142.921
20
-105.857
11
142.921
21
-106.263
0
LINE
8
BLACK
10
142.921
20
-106.263
11
144.191
21
-106.263
0
LINE
8
BLACK
10
144.191
20
-106.263
11
144.191
21
-105.857
0
LINE
8
BLACK
10
144.191
20
-106.517
11
142.921
21
-106.517
0
LINE
8
BLACK
10
142.921
20
-106.517
11
142.921
21
-106.924
0
LINE
8
BLACK
10
142.921
20
-106.924
11
144.191
21
-106.924
0
LINE
8
BLACK
10
144.191
20
-106.924
11
144.191
21
-106.517
0
LINE
8
BLACK
10
144.191
20
-107.152
11
142.921
21
-107.152
0
LINE
8
BLACK
10
142.921
20
-107.152
11
142.921
21
-107.559
0
LINE
8
BLACK
10
142.921
20
-107.559
11
144.191
21
-107.559
0
LINE
8
BLACK
10
144.191
20
-107.559
11
144.191
21
-107.152
0
LINE
8
BLACK
10
144.191
20
-107.813
11
142.921
21
-107.813
0
LINE
8
BLACK
10
142.921
20
-107.813
11
142.921
21
-108.219
0
LINE
8
BLACK
10
142.921
20
-108.219
11
144.191
21
-108.219
0
LINE
8
BLACK
10
144.191
20
-108.219
11
144.191
21
-107.813
0
LINE
8
BLACK
10
144.191
20
-108.448
11
142.921
21
-108.448
0
LINE
8
BLACK
10
142.921
20
-108.448
11
142.921
21
-108.854
0
LINE
8
BLACK
10
142.921
20
-108.854
11
144.191
21
-108.854
0
LINE
8
BLACK
10
144.191
20
-108.854
11
144.191
21
-108.448
0
LINE
8
BLACK
10
144.191
20
-109.108
11
142.921
21
-109.108
0
LINE
8
BLACK
10
142.921
20
-109.108
11
142.921
21
-109.515
0
LINE
8
BLACK
10
142.921
20
-109.515
11
144.191
21
-109.515
0
LINE
8
BLACK
10
144.191
20
-109.515
11
144.191
21
-109.108
0
LINE
8
BLACK
10
144.191
20
-109.769
11
142.921
21
-109.769
0
LINE
8
BLACK
10
142.921
20
-109.769
11
142.921
21
-110.175
0
LINE
8
BLACK
10
142.921
20
-110.175
11
144.191
21
-110.175
0
LINE
8
BLACK
10
144.191
20
-110.175
11
144.191
21
-109.769
0
LINE
8
BLACK
10
144.191
20
-110.404
11
142.921
21
-110.404
0
LINE
8
BLACK
10
142.921
20
-110.404
11
142.921
21
-110.81
0
LINE
8
BLACK
10
142.921
20
-110.81
11
144.191
21
-110.81
0
LINE
8
BLACK
10
144.191
20
-110.81
11
144.191
21
-110.404
0
LINE
8
BLACK
10
144.191
20
-111.064
11
142.921
21
-111.064
0
LINE
8
BLACK
10
142.921
20
-111.064
11
142.921
21
-111.47
0
LINE
8
BLACK
10
142.921
20
-111.47
11
144.191
21
-111.47
0
LINE
8
BLACK
10
144.191
20
-111.47
11
144.191
21
-111.064
0
LINE
8
BLACK
10
137.079
20
-111.064
11
135.809
21
-111.064
0
LINE
8
BLACK
10
135.809
20
-111.064
11
135.809
21
-111.47
0
LINE
8
BLACK
10
135.809
20
-111.47
11
137.079
21
-111.47
0
LINE
8
BLACK
10
137.079
20
-111.47
11
137.079
21
-111.064
0
LINE
8
BLACK
10
137.079
20
-110.404
11
135.809
21
-110.404
0
LINE
8
BLACK
10
135.809
20
-110.404
11
135.809
21
-110.81
0
LINE
8
BLACK
10
135.809
20
-110.81
11
137.079
21
-110.81
0
LINE
8
BLACK
10
137.079
20
-110.81
11
137.079
21
-110.404
0
LINE
8
BLACK
10
137.079
20
-109.794
11
135.809
21
-109.794
0
LINE
8
BLACK
10
135.809
20
-109.794
11
135.809
21
-110.2
0
LINE
8
BLACK
10
135.809
20
-110.2
11
137.079
21
-110.2
0
LINE
8
BLACK
10
137.079
20
-110.2
11
137.079
21
-109.794
0
LINE
8
BLACK
10
137.079
20
-109.108
11
135.809
21
-109.108
0
LINE
8
BLACK
10
135.809
20
-109.108
11
135.809
21
-109.515
0
LINE
8
BLACK
10
135.809
20
-109.515
11
137.079
21
-109.515
0
LINE
8
BLACK
10
137.079
20
-109.515
11
137.079
21
-109.108
0
LINE
8
BLACK
10
137.079
20
-108.448
11
135.809
21
-108.448
0
LINE
8
BLACK
10
135.809
20
-108.448
11
135.809
21
-108.854
0
LINE
8
BLACK
10
135.809
20
-108.854
11
137.079
21
-108.854
0
LINE
8
BLACK
10
137.079
20
-108.854
11
137.079
21
-108.448
0
LINE
8
BLACK
10
137.079
20
-107.813
11
135.809
21
-107.813
0
LINE
8
BLACK
10
135.809
20
-107.813
11
135.809
21
-108.219
0
LINE
8
BLACK
10
135.809
20
-108.219
11
137.079
21
-108.219
0
LINE
8
BLACK
10
137.079
20
-108.219
11
137.079
21
-107.813
0
LINE
8
BLACK
10
137.079
20
-107.152
11
135.809
21
-107.152
0
LINE
8
BLACK
10
135.809
20
-107.152
11
135.809
21
-107.559
0
LINE
8
BLACK
10
135.809
20
-107.559
11
137.079
21
-107.559
0
LINE
8
BLACK
10
137.079
20
-107.559
11
137.079
21
-107.152
0
LINE
8
BLACK
10
137.079
20
-106.517
11
135.809
21
-106.517
0
LINE
8
BLACK
10
135.809
20
-106.517
11
135.809
21
-106.924
0
LINE
8
BLACK
10
135.809
20
-106.924
11
137.079
21
-106.924
0
LINE
8
BLACK
10
137.079
20
-106.924
11
137.079
21
-106.517
0
LINE
8
BLACK
10
137.079
20
-105.857
11
135.809
21
-105.857
0
LINE
8
BLACK
10
135.809
20
-105.857
11
135.809
21
-106.263
0
LINE
8
BLACK
10
135.809
20
-106.263
11
137.079
21
-106.263
0
LINE
8
BLACK
10
137.079
20
-106.263
11
137.079
21
-105.857
0
LINE
8
BLACK
10
137.079
20
-105.197
11
135.809
21
-105.197
0
LINE
8
BLACK
10
135.809
20
-105.197
11
135.809
21
-105.603
0
LINE
8
BLACK
10
135.809
20
-105.603
11
137.079
21
-105.603
0
LINE
8
BLACK
10
137.079
20
-105.603
11
137.079
21
-105.197
0
LINE
8
BLACK
10
137.079
20
-104.562
11
135.809
21
-104.562
0
LINE
8
BLACK
10
135.809
20
-104.562
11
135.809
21
-104.968
0
LINE
8
BLACK
10
135.809
20
-104.968
11
137.079
21
-104.968
0
LINE
8
BLACK
10
137.079
20
-104.968
11
137.079
21
-104.562
0
LINE
8
BLACK
10
137.079
20
-103.901
11
135.809
21
-103.901
0
LINE
8
BLACK
10
135.809
20
-103.901
11
135.809
21
-104.308
0
LINE
8
BLACK
10
135.809
20
-104.308
11
137.079
21
-104.308
0
LINE
8
BLACK
10
137.079
20
-104.308
11
137.079
21
-103.901
0
LINE
8
BLACK
10
137.079
20
-103.241
11
135.809
21
-103.241
0
LINE
8
BLACK
10
135.809
20
-103.241
11
135.809
21
-103.647
0
LINE
8
BLACK
10
135.809
20
-103.647
11
137.079
21
-103.647
0
LINE
8
BLACK
10
137.079
20
-103.647
11
137.079
21
-103.241
0
LINE
8
BLACK
10
137.079
20
-102.606
11
135.809
21
-102.606
0
LINE
8
BLACK
10
135.809
20
-102.606
11
135.809
21
-103.012
0
LINE
8
BLACK
10
135.809
20
-103.012
11
137.079
21
-103.012
0
LINE
8
BLACK
10
137.079
20
-103.012
11
137.079
21
-102.606
0
LINE
8
BLACK
10
141.7
20
-102.15
11
138.3
21
-102.15
0
LINE
8
BLACK
10
138.3
20
-102.15
11
138.3
21
-111.85
0
LINE
8
BLACK
10
138.3
20
-111.85
11
141.7
21
-111.85
0
LINE
8
BLACK
10
141.7
20
-111.85
11
141.7
21
-102.15
0
LINE
8
BLACK
10
198.191
20
-102.606
11
196.921
21
-102.606
0
LINE
8
BLACK
10
196.921
20
-102.606
11
196.921
21
-103.012
0
LINE
8
BLACK
10
196.921
20
-103.012
11
198.191
21
-103.012
0
LINE
8
BLACK
10
198.191
20
-103.012
11
198.191
21
-102.606
0
LINE
8
BLACK
10
198.191
20
-103.241
11
196.921
21
-103.241
0
LINE
8
BLACK
10
196.921
20
-103.241
11
196.921
21
-103.647
0
LINE
8
BLACK
10
196.921
20
-103.647
11
198.191
21
-103.647
0
LINE
8
BLACK
10
198.191
20
-103.647
11
198.191
21
-103.241
0
LINE
8
BLACK
10
198.191
20
-103.901
11
196.921
21
-103.901
0
LINE
8
BLACK
10
196.921
20
-103.901
11
196.921
21
-104.308
0
LINE
8
BLACK
10
196.921
20
-104.308
11
198.191
21
-104.308
0
LINE
8
BLACK
10
198.191
20
-104.308
11
198.191
21
-103.901
0
LINE
8
BLACK
10
198.191
20
-104.562
11
196.921
21
-104.562
0
LINE
8
BLACK
10
196.921
20
-104.562
11
196.921
21
-104.968
0
LINE
8
BLACK
10
196.921
20
-104.968
11
198.191
21
-104.968
0
LINE
8
BLACK
10
198.191
20
-104.968
11
198.191
21
-104.562
0
LINE
8
BLACK
10
198.191
20
-105.197
11
196.921
21
-105.197
0
LINE
8
BLACK
10
196.921
20
-105.197
11
196.921
21
-105.603
0
LINE
8
BLACK
10
196.921
20
-105.603
11
198.191
21
-105.603
0
LINE
8
BLACK
10
198.191
20
-105.603
11
198.191
21
-105.197
0
LINE
8
BLACK
10
198.191
20
-105.857
11
196.921
21
-105.857
0
LINE
8
BLACK
10
196.921
20
-105.857
11
196.921
21
-106.263
0
LINE
8
BLACK
10
196.921
20
-106.263
11
198.191
21
-106.263
0
LINE
8
BLACK
10
198.191
20
-106.263
11
198.191
21
-105.857
0
LINE
8
BLACK
10
198.191
20
-106.517
11
196.921
21
-106.517
0
LINE
8
BLACK
10
196.921
20
-106.517
11
196.921
21
-106.924
0
LINE
8
BLACK
10
196.921
20
-106.924
11
198.191
21
-106.924
0
LINE
8
BLACK
10
198.191
20
-106.924
11
198.191
21
-106.517
0
LINE
8
BLACK
10
198.191
20
-107.152
11
196.921
21
-107.152
0
LINE
8
BLACK
10
196.921
20
-107.152
11
196.921
21
-107.559
0
LINE
8
BLACK
10
196.921
20
-107.559
11
198.191
21
-107.559
0
LINE
8
BLACK
10
198.191
20
-107.559
11
198.191
21
-107.152
0
LINE
8
BLACK
10
198.191
20
-107.813
11
196.921
21
-107.813
0
LINE
8
BLACK
10
196.921
20
-107.813
11
196.921
21
-108.219
0
LINE
8
BLACK
10
196.921
20
-108.219
11
198.191
21
-108.219
0
LINE
8
BLACK
10
198.191
20
-108.219
11
198.191
21
-107.813
0
LINE
8
BLACK
10
198.191
20
-108.448
11
196.921
21
-108.448
0
LINE
8
BLACK
10
196.921
20
-108.448
11
196.921
21
-108.854
0
LINE
8
BLACK
10
196.921
20
-108.854
11
198.191
21
-108.854
0
LINE
8
BLACK
10
198.191
20
-108.854
11
198.191
21
-108.448
0
LINE
8
BLACK
10
198.191
20
-109.108
11
196.921
21
-109.108
0
LINE
8
BLACK
10
196.921
20
-109.108
11
196.921
21
-109.515
0
LINE
8
BLACK
10
196.921
20
-109.515
11
198.191
21
-109.515
0
LINE
8
BLACK
10
198.191
20
-109.515
11
198.191
21
-109.108
0
LINE
8
BLACK
10
198.191
20
-109.769
11
196.921
21
-109.769
0
LINE
8
BLACK
10
196.921
20
-109.769
11
196.921
21
-110.175
0
LINE
8
BLACK
10
196.921
20
-110.175
11
198.191
21
-110.175
0
LINE
8
BLACK
10
198.191
20
-110.175
11
198.191
21
-109.769
0
LINE
8
BLACK
10
198.191
20
-110.404
11
196.921
21
-110.404
0
LINE
8
BLACK
10
196.921
20
-110.404
11
196.921
21
-110.81
0
LINE
8
BLACK
10
196.921
20
-110.81
11
198.191
21
-110.81
0
LINE
8
BLACK
10
198.191
20
-110.81
11
198.191
21
-110.404
0
LINE
8
BLACK
10
198.191
20
-111.064
11
196.921
21
-111.064
0
LINE
8
BLACK
10
196.921
20
-111.064
11
196.921
21
-111.47
0
LINE
8
BLACK
10
196.921
20
-111.47
11
198.191
21
-111.47
0
LINE
8
BLACK
10
198.191
20
-111.47
11
198.191
21
-111.064
0
LINE
8
BLACK
10
191.079
20
-111.064
11
189.809
21
-111.064
0
LINE
8
BLACK
10
189.809
20
-111.064
11
189.809
21
-111.47
0
LINE
8
BLACK
10
189.809
20
-111.47
11
191.079
21
-111.47
0
LINE
8
BLACK
10
191.079
20
-111.47
11
191.079
21
-111.064
0
LINE
8
BLACK
10
191.079
20
-110.404
11
189.809
21
-110.404
0
LINE
8
BLACK
10
189.809
20
-110.404
11
189.809
21
-110.81
0
LINE
8
BLACK
10
189.809
20
-110.81
11
191.079
21
-110.81
0
LINE
8
BLACK
10
191.079
20
-110.81
11
191.079
21
-110.404
0
LINE
8
BLACK
10
191.079
20
-109.794
11
189.809
21
-109.794
0
LINE
8
BLACK
10
189.809
20
-109.794
11
189.809
21
-110.2
0
LINE
8
BLACK
10
189.809
20
-110.2
11
191.079
21
-110.2
0
LINE
8
BLACK
10
191.079
20
-110.2
11
191.079
21
-109.794
0
LINE
8
BLACK
10
191.079
20
-109.108
11
189.809
21
-109.108
0
LINE
8
BLACK
10
189.809
20
-109.108
11
189.809
21
-109.515
0
LINE
8
BLACK
10
189.809
20
-109.515
11
191.079
21
-109.515
0
LINE
8
BLACK
10
191.079
20
-109.515
11
191.079
21
-109.108
0
LINE
8
BLACK
10
191.079
20
-108.448
11
189.809
21
-108.448
0
LINE
8
BLACK
10
189.809
20
-108.448
11
189.809
21
-108.854
0
LINE
8
BLACK
10
189.809
20
-108.854
11
191.079
21
-108.854
0
LINE
8
BLACK
10
191.079
20
-108.854
11
191.079
21
-108.448
0
LINE
8
BLACK
10
191.079
20
-107.813
11
189.809
21
-107.813
0
LINE
8
BLACK
10
189.809
20
-107.813
11
189.809
21
-108.219
0
LINE
8
BLACK
10
189.809
20
-108.219
11
191.079
21
-108.219
0
LINE
8
BLACK
10
191.079
20
-108.219
11
191.079
21
-107.813
0
LINE
8
BLACK
10
191.079
20
-107.152
11
189.809
21
-107.152
0
LINE
8
BLACK
10
189.809
20
-107.152
11
189.809
21
-107.559
0
LINE
8
BLACK
10
189.809
20
-107.559
11
191.079
21
-107.559
0
LINE
8
BLACK
10
191.079
20
-107.559
11
191.079
21
-107.152
0
LINE
8
BLACK
10
191.079
20
-106.517
11
189.809
21
-106.517
0
LINE
8
BLACK
10
189.809
20
-106.517
11
189.809
21
-106.924
0
LINE
8
BLACK
10
189.809
20
-106.924
11
191.079
21
-106.924
0
LINE
8
BLACK
10
191.079
20
-106.924
11
191.079
21
-106.517
0
LINE
8
BLACK
10
191.079
20
-105.857
11
189.809
21
-105.857
0
LINE
8
BLACK
10
189.809
20
-105.857
11
189.809
21
-106.263
0
LINE
8
BLACK
10
189.809
20
-106.263
11
191.079
21
-106.263
0
LINE
8
BLACK
10
191.079
20
-106.263
11
191.079
21
-105.857
0
LINE
8
BLACK
10
191.079
20
-105.197
11
189.809
21
-105.197
0
LINE
8
BLACK
10
189.809
20
-105.197
11
189.809
21
-105.603
0
LINE
8
BLACK
10
189.809
20
-105.603
11
191.079
21
-105.603
0
LINE
8
BLACK
10
191.079
20
-105.603
11
191.079
21
-105.197
0
LINE
8
BLACK
10
191.079
20
-104.562
11
189.809
21
-104.562
0
LINE
8
BLACK
10
189.809
20
-104.562
11
189.809
21
-104.968
0
LINE
8
BLACK
10
189.809
20
-104.968
11
191.079
21
-104.968
0
LINE
8
BLACK
10
191.079
20
-104.968
11
191.079
21
-104.562
0
LINE
8
BLACK
10
191.079
20
-103.901
11
189.809
21
-103.901
0
LINE
8
BLACK
10
189.809
20
-103.901
11
189.809
21
-104.308
0
LINE
8
BLACK
10
189.809
20
-104.308
11
191.079
21
-104.308
0
LINE
8
BLACK
10
191.079
20
-104.308
11
191.079
21
-103.901
0
LINE
8
BLACK
10
191.079
20
-103.241
11
189.809
21
-103.241
0
LINE
8
BLACK
10
189.809
20
-103.241
11
189.809
21
-103.647
0
LINE
8
BLACK
10
189.809
20
-103.647
11
191.079
21
-103.647
0
LINE
8
BLACK
10
191.079
20
-103.647
11
191.079
21
-103.241
0
LINE
8
BLACK
10
191.079
20
-102.606
11
189.809
21
-102.606
0
LINE
8
BLACK
10
189.809
20
-102.606
11
189.809
21
-103.012
0
LINE
8
BLACK
10
189.809
20
-103.012
11
191.079
21
-103.012
0
LINE
8
BLACK
10
191.079
20
-103.012
11
191.079
21
-102.606
0
LINE
8
BLACK
10
195.7
20
-102.15
11
192.3
21
-102.15
0
LINE
8
BLACK
10
192.3
20
-102.15
11
192.3
21
-111.85
0
LINE
8
BLACK
10
192.3
20
-111.85
11
195.7
21
-111.85
0
LINE
8
BLACK
10
195.7
20
-111.85
11
195.7
21
-102.15
0
LINE
8
BLACK
10
108.191
20
-102.606
11
106.921
21
-102.606
0
LINE
8
BLACK
10
106.921
20
-102.606
11
106.921
21
-103.012
0
LINE
8
BLACK
10
106.921
20
-103.012
11
108.191
21
-103.012
0
LINE
8
BLACK
10
108.191
20
-103.012
11
108.191
21
-102.606
0
LINE
8
BLACK
10
108.191
20
-103.241
11
106.921
21
-103.241
0
LINE
8
BLACK
10
106.921
20
-103.241
11
106.921
21
-103.647
0
LINE
8
BLACK
10
106.921
20
-103.647
11
108.191
21
-103.647
0
LINE
8
BLACK
10
108.191
20
-103.647
11
108.191
21
-103.241
0
LINE
8
BLACK
10
108.191
20
-103.901
11
106.921
21
-103.901
0
LINE
8
BLACK
10
106.921
20
-103.901
11
106.921
21
-104.308
0
LINE
8
BLACK
10
106.921
20
-104.308
11
108.191
21
-104.308
0
LINE
8
BLACK
10
108.191
20
-104.308
11
108.191
21
-103.901
0
LINE
8
BLACK
10
108.191
20
-104.562
11
106.921
21
-104.562
0
LINE
8
BLACK
10
106.921
20
-104.562
11
106.921
21
-104.968
0
LINE
8
BLACK
10
106.921
20
-104.968
11
108.191
21
-104.968
0
LINE
8
BLACK
10
108.191
20
-104.968
11
108.191
21
-104.562
0
LINE
8
BLACK
10
108.191
20
-105.197
11
106.921
21
-105.197
0
LINE
8
BLACK
10
106.921
20
-105.197
11
106.921
21
-105.603
0
LINE
8
BLACK
10
106.921
20
-105.603
11
108.191
21
-105.603
0
LINE
8
BLACK
10
108.191
20
-105.603
11
108.191
21
-105.197
0
LINE
8
BLACK
10
108.191
20
-105.857
11
106.921
21
-105.857
0
LINE
8
BLACK
10
106.921
20
-105.857
11
106.921
21
-106.263
0
LINE
8
BLACK
10
106.921
20
-106.263
11
108.191
21
-106.263
0
LINE
8
BLACK
10
108.191
20
-106.263
11
108.191
21
-105.857
0
LINE
8
BLACK
10
108.191
20
-106.517
11
106.921
21
-106.517
0
LINE
8
BLACK
10
106.921
20
-106.517
11
106.921
21
-106.924
0
LINE
8
BLACK
10
106.921
20
-106.924
11
108.191
21
-106.924
0
LINE
8
BLACK
10
108.191
20
-106.924
11
108.191
21
-106.517
0
LINE
8
BLACK
10
108.191
20
-107.152
11
106.921
21
-107.152
0
LINE
8
BLACK
10
106.921
20
-107.152
11
106.921
21
-107.559
0
LINE
8
BLACK
10
106.921
20
-107.559
11
108.191
21
-107.559
0
LINE
8
BLACK
10
108.191
20
-107.559
11
108.191
21
-107.152
0
LINE
8
BLACK
10
108.191
20
-107.813
11
106.921
21
-107.813
0
LINE
8
BLACK
10
106.921
20
-107.813
11
106.921
21
-108.219
0
LINE
8
BLACK
10
106.921
20
-108.219
11
108.191
21
-108.219
0
LINE
8
BLACK
10
108.191
20
-108.219
11
108.191
21
-107.813
0
LINE
8
BLACK
10
108.191
20
-108.448
11
106.921
21
-108.448
0
LINE
8
BLACK
10
106.921
20
-108.448
11
106.921
21
-108.854
0
LINE
8
BLACK
10
106.921
20
-108.854
11
108.191
21
-108.854
0
LINE
8
BLACK
10
108.191
20
-108.854
11
108.191
21
-108.448
0
LINE
8
BLACK
10
108.191
20
-109.108
11
106.921
21
-109.108
0
LINE
8
BLACK
10
106.921
20
-109.108
11
106.921
21
-109.515
0
LINE
8
BLACK
10
106.921
20
-109.515
11
108.191
21
-109.515
0
LINE
8
BLACK
10
108.191
20
-109.515
11
108.191
21
-109.108
0
LINE
8
BLACK
10
108.191
20
-109.769
11
106.921
21
-109.769
0
LINE
8
BLACK
10
106.921
20
-109.769
11
106.921
21
-110.175
0
LINE
8
BLACK
10
106.921
20
-110.175
11
108.191
21
-110.175
0
LINE
8
BLACK
10
108.191
20
-110.175
11
108.191
21
-109.769
0
LINE
8
BLACK
10
108.191
20
-110.404
11
106.921
21
-110.404
0
LINE
8
BLACK
10
106.921
20
-110.404
11
106.921
21
-110.81
0
LINE
8
BLACK
10
106.921
20
-110.81
11
108.191
21
-110.81
0
LINE
8
BLACK
10
108.191
20
-110.81
11
108.191
21
-110.404
0
LINE
8
BLACK
10
108.191
20
-111.064
11
106.921
21
-111.064
0
LINE
8
BLACK
10
106.921
20
-111.064
11
106.921
21
-111.47
0
LINE
8
BLACK
10
106.921
20
-111.47
11
108.191
21
-111.47
0
LINE
8
BLACK
10
108.191
20
-111.47
11
108.191
21
-111.064
0
LINE
8
BLACK
10
101.079
20
-111.064
11
99.809
21
-111.064
0
LINE
8
BLACK
10
99.809
20
-111.064
11
99.809
21
-111.47
0
LINE
8
BLACK
10
99.809
20
-111.47
11
101.079
21
-111.47
0
LINE
8
BLACK
10
101.079
20
-111.47
11
101.079
21
-111.064
0
LINE
8
BLACK
10
101.079
20
-110.404
11
99.809
21
-110.404
0
LINE
8
BLACK
10
99.809
20
-110.404
11
99.809
21
-110.81
0
LINE
8
BLACK
10
99.809
20
-110.81
11
101.079
21
-110.81
0
LINE
8
BLACK
10
101.079
20
-110.81
11
101.079
21
-110.404
0
LINE
8
BLACK
10
101.079
20
-109.794
11
99.809
21
-109.794
0
LINE
8
BLACK
10
99.809
20
-109.794
11
99.809
21
-110.2
0
LINE
8
BLACK
10
99.809
20
-110.2
11
101.079
21
-110.2
0
LINE
8
BLACK
10
101.079
20
-110.2
11
101.079
21
-109.794
0
LINE
8
BLACK
10
101.079
20
-109.108
11
99.809
21
-109.108
0
LINE
8
BLACK
10
99.809
20
-109.108
11
99.809
21
-109.515
0
LINE
8
BLACK
10
99.809
20
-109.515
11
101.079
21
-109.515
0
LINE
8
BLACK
10
101.079
20
-109.515
11
101.079
21
-109.108
0
LINE
8
BLACK
10
101.079
20
-108.448
11
99.809
21
-108.448
0
LINE
8
BLACK
10
99.809
20
-108.448
11
99.809
21
-108.854
0
LINE
8
BLACK
10
99.809
20
-108.854
11
101.079
21
-108.854
0
LINE
8
BLACK
10
101.079
20
-108.854
11
101.079
21
-108.448
0
LINE
8
BLACK
10
101.079
20
-107.813
11
99.809
21
-107.813
0
LINE
8
BLACK
10
99.809
20
-107.813
11
99.809
21
-108.219
0
LINE
8
BLACK
10
99.809
20
-108.219
11
101.079
21
-108.219
0
LINE
8
BLACK
10
101.079
20
-108.219
11
101.079
21
-107.813
0
LINE
8
BLACK
10
101.079
20
-107.152
11
99.809
21
-107.152
0
LINE
8
BLACK
10
99.809
20
-107.152
11
99.809
21
-107.559
0
LINE
8
BLACK
10
99.809
20
-107.559
11
101.079
21
-107.559
0
LINE
8
BLACK
10
101.079
20
-107.559
11
101.079
21
-107.152
0
LINE
8
BLACK
10
101.079
20
-106.517
11
99.809
21
-106.517
0
LINE
8
BLACK
10
99.809
20
-106.517
11
99.809
21
-106.924
0
LINE
8
BLACK
10
99.809
20
-106.924
11
101.079
21
-106.924
0
LINE
8
BLACK
10
101.079
20
-106.924
11
101.079
21
-106.517
0
LINE
8
BLACK
10
101.079
20
-105.857
11
99.809
21
-105.857
0
LINE
8
BLACK
10
99.809
20
-105.857
11
99.809
21
-106.263
0
LINE
8
BLACK
10
99.809
20
-106.263
11
101.079
21
-106.263
0
LINE
8
BLACK
10
101.079
20
-106.263
11
101.079
21
-105.857
0
LINE
8
BLACK
10
101.079
20
-105.197
11
99.809
21
-105.197
0
LINE
8
BLACK
10
99.809
20
-105.197
11
99.809
21
-105.603
0
LINE
8
BLACK
10
99.809
20
-105.603
11
101.079
21
-105.603
0
LINE
8
BLACK
10
101.079
20
-105.603
11
101.079
21
-105.197
0
LINE
8
BLACK
10
101.079
20
-104.562
11
99.809
21
-104.562
0
LINE
8
BLACK
10
99.809
20
-104.562
11
99.809
21
-104.968
0
LINE
8
BLACK
10
99.809
20
-104.968
11
101.079
21
-104.968
0
LINE
8
BLACK
10
101.079
20
-104.968
11
101.079
21
-104.562
0
LINE
8
BLACK
10
101.079
20
-103.901
11
99.809
21
-103.901
0
LINE
8
BLACK
10
99.809
20
-103.901
11
99.809
21
-104.308
0
LINE
8
BLACK
10
99.809
20
-104.308
11
101.079
21
-104.308
0
LINE
8
BLACK
10
101.079
20
-104.308
11
101.079
21
-103.901
0
LINE
8
BLACK
10
101.079
20
-103.241
11
99.809
21
-103.241
0
LINE
8
BLACK
10
99.809
20
-103.241
11
99.809
21
-103.647
0
LINE
8
BLACK
10
99.809
20
-103.647
11
101.079
21
-103.647
0
LINE
8
BLACK
10
101.079
20
-103.647
11
101.079
21
-103.241
0
LINE
8
BLACK
10
101.079
20
-102.606
11
99.809
21
-102.606
0
LINE
8
BLACK
10
99.809
20
-102.606
11
99.809
21
-103.012
0
LINE
8
BLACK
10
99.809
20
-103.012
11
101.079
21
-103.012
0
LINE
8
BLACK
10
101.079
20
-103.012
11
101.079
21
-102.606
0
LINE
8
BLACK
10
105.7
20
-102.15
11
102.3
21
-102.15
0
LINE
8
BLACK
10
102.3
20
-102.15
11
102.3
21
-111.85
0
LINE
8
BLACK
10
102.3
20
-111.85
11
105.7
21
-111.85
0
LINE
8
BLACK
10
105.7
20
-111.85
11
105.7
21
-102.15
0
LINE
8
BLACK
10
126.191
20
-102.606
11
124.921
21
-102.606
0
LINE
8
BLACK
10
124.921
20
-102.606
11
124.921
21
-103.012
0
LINE
8
BLACK
10
124.921
20
-103.012
11
126.191
21
-103.012
0
LINE
8
BLACK
10
126.191
20
-103.012
11
126.191
21
-102.606
0
LINE
8
BLACK
10
126.191
20
-103.241
11
124.921
21
-103.241
0
LINE
8
BLACK
10
124.921
20
-103.241
11
124.921
21
-103.647
0
LINE
8
BLACK
10
124.921
20
-103.647
11
126.191
21
-103.647
0
LINE
8
BLACK
10
126.191
20
-103.647
11
126.191
21
-103.241
0
LINE
8
BLACK
10
126.191
20
-103.901
11
124.921
21
-103.901
0
LINE
8
BLACK
10
124.921
20
-103.901
11
124.921
21
-104.308
0
LINE
8
BLACK
10
124.921
20
-104.308
11
126.191
21
-104.308
0
LINE
8
BLACK
10
126.191
20
-104.308
11
126.191
21
-103.901
0
LINE
8
BLACK
10
126.191
20
-104.562
11
124.921
21
-104.562
0
LINE
8
BLACK
10
124.921
20
-104.562
11
124.921
21
-104.968
0
LINE
8
BLACK
10
124.921
20
-104.968
11
126.191
21
-104.968
0
LINE
8
BLACK
10
126.191
20
-104.968
11
126.191
21
-104.562
0
LINE
8
BLACK
10
126.191
20
-105.197
11
124.921
21
-105.197
0
LINE
8
BLACK
10
124.921
20
-105.197
11
124.921
21
-105.603
0
LINE
8
BLACK
10
124.921
20
-105.603
11
126.191
21
-105.603
0
LINE
8
BLACK
10
126.191
20
-105.603
11
126.191
21
-105.197
0
LINE
8
BLACK
10
126.191
20
-105.857
11
124.921
21
-105.857
0
LINE
8
BLACK
10
124.921
20
-105.857
11
124.921
21
-106.263
0
LINE
8
BLACK
10
124.921
20
-106.263
11
126.191
21
-106.263
0
LINE
8
BLACK
10
126.191
20
-106.263
11
126.191
21
-105.857
0
LINE
8
BLACK
10
126.191
20
-106.517
11
124.921
21
-106.517
0
LINE
8
BLACK
10
124.921
20
-106.517
11
124.921
21
-106.924
0
LINE
8
BLACK
10
124.921
20
-106.924
11
126.191
21
-106.924
0
LINE
8
BLACK
10
126.191
20
-106.924
11
126.191
21
-106.517
0
LINE
8
BLACK
10
126.191
20
-107.152
11
124.921
21
-107.152
0
LINE
8
BLACK
10
124.921
20
-107.152
11
124.921
21
-107.559
0
LINE
8
BLACK
10
124.921
20
-107.559
11
126.191
21
-107.559
0
LINE
8
BLACK
10
126.191
20
-107.559
11
126.191
21
-107.152
0
LINE
8
BLACK
10
126.191
20
-107.813
11
124.921
21
-107.813
0
LINE
8
BLACK
10
124.921
20
-107.813
11
124.921
21
-108.219
0
LINE
8
BLACK
10
124.921
20
-108.219
11
126.191
21
-108.219
0
LINE
8
BLACK
10
126.191
20
-108.219
11
126.191
21
-107.813
0
LINE
8
BLACK
10
126.191
20
-108.448
11
124.921
21
-108.448
0
LINE
8
BLACK
10
124.921
20
-108.448
11
124.921
21
-108.854
0
LINE
8
BLACK
10
124.921
20
-108.854
11
126.191
21
-108.854
0
LINE
8
BLACK
10
126.191
20
-108.854
11
126.191
21
-108.448
0
LINE
8
BLACK
10
126.191
20
-109.108
11
124.921
21
-109.108
0
LINE
8
BLACK
10
124.921
20
-109.108
11
124.921
21
-109.515
0
LINE
8
BLACK
10
124.921
20
-109.515
11
126.191
21
-109.515
0
LINE
8
BLACK
10
126.191
20
-109.515
11
126.191
21
-109.108
0
LINE
8
BLACK
10
126.191
20
-109.769
11
124.921
21
-109.769
0
LINE
8
BLACK
10
124.921
20
-109.769
11
124.921
21
-110.175
0
LINE
8
BLACK
10
124.921
20
-110.175
11
126.191
21
-110.175
0
LINE
8
BLACK
10
126.191
20
-110.175
11
126.191
21
-109.769
0
LINE
8
BLACK
10
126.191
20
-110.404
11
124.921
21
-110.404
0
LINE
8
BLACK
10
124.921
20
-110.404
11
124.921
21
-110.81
0
LINE
8
BLACK
10
124.921
20
-110.81
11
126.191
21
-110.81
0
LINE
8
BLACK
10
126.191
20
-110.81
11
126.191
21
-110.404
0
LINE
8
BLACK
10
126.191
20
-111.064
11
124.921
21
-111.064
0
LINE
8
BLACK
10
124.921
20
-111.064
11
124.921
21
-111.47
0
LINE
8
BLACK
10
124.921
20
-111.47
11
126.191
21
-111.47
0
LINE
8
BLACK
10
126.191
20
-111.47
11
126.191
21
-111.064
0
LINE
8
BLACK
10
119.079
20
-111.064
11
117.809
21
-111.064
0
LINE
8
BLACK
10
117.809
20
-111.064
11
117.809
21
-111.47
0
LINE
8
BLACK
10
117.809
20
-111.47
11
119.079
21
-111.47
0
LINE
8
BLACK
10
119.079
20
-111.47
11
119.079
21
-111.064
0
LINE
8
BLACK
10
119.079
20
-110.404
11
117.809
21
-110.404
0
LINE
8
BLACK
10
117.809
20
-110.404
11
117.809
21
-110.81
0
LINE
8
BLACK
10
117.809
20
-110.81
11
119.079
21
-110.81
0
LINE
8
BLACK
10
119.079
20
-110.81
11
119.079
21
-110.404
0
LINE
8
BLACK
10
119.079
20
-109.794
11
117.809
21
-109.794
0
LINE
8
BLACK
10
117.809
20
-109.794
11
117.809
21
-110.2
0
LINE
8
BLACK
10
117.809
20
-110.2
11
119.079
21
-110.2
0
LINE
8
BLACK
10
119.079
20
-110.2
11
119.079
21
-109.794
0
LINE
8
BLACK
10
119.079
20
-109.108
11
117.809
21
-109.108
0
LINE
8
BLACK
10
117.809
20
-109.108
11
117.809
21
-109.515
0
LINE
8
BLACK
10
117.809
20
-109.515
11
119.079
21
-109.515
0
LINE
8
BLACK
10
119.079
20
-109.515
11
119.079
21
-109.108
0
LINE
8
BLACK
10
119.079
20
-108.448
11
117.809
21
-108.448
0
LINE
8
BLACK
10
117.809
20
-108.448
11
117.809
21
-108.854
0
LINE
8
BLACK
10
117.809
20
-108.854
11
119.079
21
-108.854
0
LINE
8
BLACK
10
119.079
20
-108.854
11
119.079
21
-108.448
0
LINE
8
BLACK
10
119.079
20
-107.813
11
117.809
21
-107.813
0
LINE
8
BLACK
10
117.809
20
-107.813
11
117.809
21
-108.219
0
LINE
8
BLACK
10
117.809
20
-108.219
11
119.079
21
-108.219
0
LINE
8
BLACK
10
119.079
20
-108.219
11
119.079
21
-107.813
0
LINE
8
BLACK
10
119.079
20
-107.152
11
117.809
21
-107.152
0
LINE
8
BLACK
10
117.809
20
-107.152
11
117.809
21
-107.559
0
LINE
8
BLACK
10
117.809
20
-107.559
11
119.079
21
-107.559
0
LINE
8
BLACK
10
119.079
20
-107.559
11
119.079
21
-107.152
0
LINE
8
BLACK
10
119.079
20
-106.517
11
117.809
21
-106.517
0
LINE
8
BLACK
10
117.809
20
-106.517
11
117.809
21
-106.924
0
LINE
8
BLACK
10
117.809
20
-106.924
11
119.079
21
-106.924
0
LINE
8
BLACK
10
119.079
20
-106.924
11
119.079
21
-106.517
0
LINE
8
BLACK
10
119.079
20
-105.857
11
117.809
21
-105.857
0
LINE
8
BLACK
10
117.809
20
-105.857
11
117.809
21
-106.263
0
LINE
8
BLACK
10
117.809
20
-106.263
11
119.079
21
-106.263
0
LINE
8
BLACK
10
119.079
20
-106.263
11
119.079
21
-105.857
0
LINE
8
BLACK
10
119.079
20
-105.197
11
117.809
21
-105.197
0
LINE
8
BLACK
10
117.809
20
-105.197
11
117.809
21
-105.603
0
LINE
8
BLACK
10
117.809
20
-105.603
11
119.079
21
-105.603
0
LINE
8
BLACK
10
119.079
20
-105.603
11
119.079
21
-105.197
0
LINE
8
BLACK
10
119.079
20
-104.562
11
117.809
21
-104.562
0
LINE
8
BLACK
10
117.809
20
-104.562
11
117.809
21
-104.968
0
LINE
8
BLACK
10
117.809
20
-104.968
11
119.079
21
-104.968
0
LINE
8
BLACK
10
119.079
20
-104.968
11
119.079
21
-104.562
0
LINE
8
BLACK
10
119.079
20
-103.901
11
117.809
21
-103.901
0
LINE
8
BLACK
10
117.809
20
-103.901
11
117.809
21
-104.308
0
LINE
8
BLACK
10
117.809
20
-104.308
11
119.079
21
-104.308
0
LINE
8
BLACK
10
119.079
20
-104.308
11
119.079
21
-103.901
0
LINE
8
BLACK
10
119.079
20
-103.241
11
117.809
21
-103.241
0
LINE
8
BLACK
10
117.809
20
-103.241
11
117.809
21
-103.647
0
LINE
8
BLACK
10
117.809
20
-103.647
11
119.079
21
-103.647
0
LINE
8
BLACK
10
119.079
20
-103.647
11
119.079
21
-103.241
0
LINE
8
BLACK
10
119.079
20
-102.606
11
117.809
21
-102.606
0
LINE
8
BLACK
10
117.809
20
-102.606
11
117.809
21
-103.012
0
LINE
8
BLACK
10
117.809
20
-103.012
11
119.079
21
-103.012
0
LINE
8
BLACK
10
119.079
20
-103.012
11
119.079
21
-102.606
0
LINE
8
BLACK
10
123.7
20
-102.15
11
120.3
21
-102.15
0
LINE
8
BLACK
10
120.3
20
-102.15
11
120.3
21
-111.85
0
LINE
8
BLACK
10
120.3
20
-111.85
11
123.7
21
-111.85
0
LINE
8
BLACK
10
123.7
20
-111.85
11
123.7
21
-102.15
0
LINE
8
BLACK
10
75.7
20
-99.6
11
75.7
21
-100.9
0
LINE
8
BLACK
10
75.7
20
-100.9
11
77.25
21
-100.9
0
LINE
8
BLACK
10
77.25
20
-100.9
11
77.25
21
-99.6
0
LINE
8
BLACK
10
77.25
20
-99.6
11
75.7
21
-99.6
0
LINE
8
BLACK
10
75.7
20
-95.1
11
75.7
21
-96.4
0
LINE
8
BLACK
10
75.7
20
-96.4
11
77.25
21
-96.4
0
LINE
8
BLACK
10
77.25
20
-96.4
11
77.25
21
-95.1
0
LINE
8
BLACK
10
77.25
20
-95.1
11
75.7
21
-95.1
0
LINE
8
BLACK
10
67.75
20
-95.1
11
67.75
21
-96.4
0
LINE
8
BLACK
10
67.75
20
-96.4
11
69.3
21
-96.4
0
LINE
8
BLACK
10
69.3
20
-96.4
11
69.3
21
-95.1
0
LINE
8
BLACK
10
69.3
20
-95.1
11
67.75
21
-95.1
0
LINE
8
BLACK
10
67.75
20
-99.6
11
67.75
21
-100.9
0
LINE
8
BLACK
10
67.75
20
-100.9
11
69.3
21
-100.9
0
LINE
8
BLACK
10
69.3
20
-100.9
11
69.3
21
-99.6
0
LINE
8
BLACK
10
69.3
20
-99.6
11
67.75
21
-99.6
0
LINE
8
BLACK
10
87.3288
20
-156.714
11
87.3288
21
-154.682
0
LINE
8
BLACK
10
87.3288
20
-154.682
11
83.6712
21
-154.682
0
LINE
8
BLACK
10
83.6712
20
-154.682
11
83.6712
21
-156.714
0
LINE
8
BLACK
10
83.6712
20
-156.714
11
87.3288
21
-156.714
0
LINE
8
BLACK
10
86.008
20
-163.318
11
86.008
21
-161.286
0
LINE
8
BLACK
10
86.008
20
-161.286
11
84.992
21
-161.286
0
LINE
8
BLACK
10
84.992
20
-161.286
11
84.992
21
-163.318
0
LINE
8
BLACK
10
84.992
20
-163.318
11
86.008
21
-163.318
0
LINE
8
BLACK
10
83.722
20
-163.318
11
83.722
21
-161.286
0
LINE
8
BLACK
10
83.722
20
-161.286
11
82.706
21
-161.286
0
LINE
8
BLACK
10
82.706
20
-161.286
11
82.706
21
-163.318
0
LINE
8
BLACK
10
82.706
20
-163.318
11
83.722
21
-163.318
0
LINE
8
BLACK
10
88.294
20
-163.318
11
88.294
21
-161.286
0
LINE
8
BLACK
10
88.294
20
-161.286
11
87.278
21
-161.286
0
LINE
8
BLACK
10
87.278
20
-161.286
11
87.278
21
-163.318
0
LINE
8
BLACK
10
87.278
20
-163.318
11
88.294
21
-163.318
0
LINE
8
BLACK
10
79.3288
20
-156.714
11
79.3288
21
-154.682
0
LINE
8
BLACK
10
79.3288
20
-154.682
11
75.6712
21
-154.682
0
LINE
8
BLACK
10
75.6712
20
-154.682
11
75.6712
21
-156.714
0
LINE
8
BLACK
10
75.6712
20
-156.714
11
79.3288
21
-156.714
0
LINE
8
BLACK
10
78.008
20
-163.318
11
78.008
21
-161.286
0
LINE
8
BLACK
10
78.008
20
-161.286
11
76.992
21
-161.286
0
LINE
8
BLACK
10
76.992
20
-161.286
11
76.992
21
-163.318
0
LINE
8
BLACK
10
76.992
20
-163.318
11
78.008
21
-163.318
0
LINE
8
BLACK
10
75.722
20
-163.318
11
75.722
21
-161.286
0
LINE
8
BLACK
10
75.722
20
-161.286
11
74.706
21
-161.286
0
LINE
8
BLACK
10
74.706
20
-161.286
11
74.706
21
-163.318
0
LINE
8
BLACK
10
74.706
20
-163.318
11
75.722
21
-163.318
0
LINE
8
BLACK
10
80.294
20
-163.318
11
80.294
21
-161.286
0
LINE
8
BLACK
10
80.294
20
-161.286
11
79.278
21
-161.286
0
LINE
8
BLACK
10
79.278
20
-161.286
11
79.278
21
-163.318
0
LINE
8
BLACK
10
79.278
20
-163.318
11
80.294
21
-163.318
0
LINE
8
BLACK
10
75.6985
20
-102.103
11
74.3015
21
-102.103
0
LINE
8
BLACK
10
74.3015
20
-102.103
11
74.3015
21
-102.992
0
LINE
8
BLACK
10
74.3015
20
-102.992
11
75.6985
21
-102.992
0
LINE
8
BLACK
10
75.6985
20
-102.992
11
75.6985
21
-102.103
0
LINE
8
BLACK
10
75.6985
20
-104.008
11
74.3015
21
-104.008
0
LINE
8
BLACK
10
74.3015
20
-104.008
11
74.3015
21
-104.897
0
LINE
8
BLACK
10
74.3015
20
-104.897
11
75.6985
21
-104.897
0
LINE
8
BLACK
10
75.6985
20
-104.897
11
75.6985
21
-104.008
0
LINE
8
BLACK
10
195.397
20
-99.1985
11
195.397
21
-97.8015
0
LINE
8
BLACK
10
195.397
20
-97.8015
11
194.508
21
-97.8015
0
LINE
8
BLACK
10
194.508
20
-97.8015
11
194.508
21
-99.1985
0
LINE
8
BLACK
10
194.508
20
-99.1985
11
195.397
21
-99.1985
0
LINE
8
BLACK
10
193.492
20
-99.1985
11
193.492
21
-97.8015
0
LINE
8
BLACK
10
193.492
20
-97.8015
11
192.603
21
-97.8015
0
LINE
8
BLACK
10
192.603
20
-97.8015
11
192.603
21
-99.1985
0
LINE
8
BLACK
10
192.603
20
-99.1985
11
193.492
21
-99.1985
0
LINE
8
BLACK
10
78.3015
20
-99.397
11
79.6985
21
-99.397
0
LINE
8
BLACK
10
79.6985
20
-99.397
11
79.6985
21
-98.508
0
LINE
8
BLACK
10
79.6985
20
-98.508
11
78.3015
21
-98.508
0
LINE
8
BLACK
10
78.3015
20
-98.508
11
78.3015
21
-99.397
0
LINE
8
BLACK
10
78.3015
20
-97.492
11
79.6985
21
-97.492
0
LINE
8
BLACK
10
79.6985
20
-97.492
11
79.6985
21
-96.603
0
LINE
8
BLACK
10
79.6985
20
-96.603
11
78.3015
21
-96.603
0
LINE
8
BLACK
10
78.3015
20
-96.603
11
78.3015
21
-97.492
0
LINE
8
BLACK
10
90.3015
20
-111.897
11
91.6985
21
-111.897
0
LINE
8
BLACK
10
91.6985
20
-111.897
11
91.6985
21
-111.008
0
LINE
8
BLACK
10
91.6985
20
-111.008
11
90.3015
21
-111.008
0
LINE
8
BLACK
10
90.3015
20
-111.008
11
90.3015
21
-111.897
0
LINE
8
BLACK
10
90.3015
20
-109.992
11
91.6985
21
-109.992
0
LINE
8
BLACK
10
91.6985
20
-109.992
11
91.6985
21
-109.103
0
LINE
8
BLACK
10
91.6985
20
-109.103
11
90.3015
21
-109.103
0
LINE
8
BLACK
10
90.3015
20
-109.103
11
90.3015
21
-109.992
0
LINE
8
BLACK
10
159.397
20
-99.1985
11
159.397
21
-97.8015
0
LINE
8
BLACK
10
159.397
20
-97.8015
11
158.508
21
-97.8015
0
LINE
8
BLACK
10
158.508
20
-97.8015
11
158.508
21
-99.1985
0
LINE
8
BLACK
10
158.508
20
-99.1985
11
159.397
21
-99.1985
0
LINE
8
BLACK
10
157.492
20
-99.1985
11
157.492
21
-97.8015
0
LINE
8
BLACK
10
157.492
20
-97.8015
11
156.603
21
-97.8015
0
LINE
8
BLACK
10
156.603
20
-97.8015
11
156.603
21
-99.1985
0
LINE
8
BLACK
10
156.603
20
-99.1985
11
157.492
21
-99.1985
0
LINE
8
BLACK
10
73.8015
20
-112.397
11
75.1985
21
-112.397
0
LINE
8
BLACK
10
75.1985
20
-112.397
11
75.1985
21
-111.508
0
LINE
8
BLACK
10
75.1985
20
-111.508
11
73.8015
21
-111.508
0
LINE
8
BLACK
10
73.8015
20
-111.508
11
73.8015
21
-112.397
0
LINE
8
BLACK
10
73.8015
20
-110.492
11
75.1985
21
-110.492
0
LINE
8
BLACK
10
75.1985
20
-110.492
11
75.1985
21
-109.603
0
LINE
8
BLACK
10
75.1985
20
-109.603
11
73.8015
21
-109.603
0
LINE
8
BLACK
10
73.8015
20
-109.603
11
73.8015
21
-110.492
0
LINE
8
BLACK
10
177.397
20
-99.1985
11
177.397
21
-97.8015
0
LINE
8
BLACK
10
177.397
20
-97.8015
11
176.508
21
-97.8015
0
LINE
8
BLACK
10
176.508
20
-97.8015
11
176.508
21
-99.1985
0
LINE
8
BLACK
10
176.508
20
-99.1985
11
177.397
21
-99.1985
0
LINE
8
BLACK
10
175.492
20
-99.1985
11
175.492
21
-97.8015
0
LINE
8
BLACK
10
175.492
20
-97.8015
11
174.603
21
-97.8015
0
LINE
8
BLACK
10
174.603
20
-97.8015
11
174.603
21
-99.1985
0
LINE
8
BLACK
10
174.603
20
-99.1985
11
175.492
21
-99.1985
0
LINE
8
BLACK
10
70.8015
20
-118.397
11
72.1985
21
-118.397
0
LINE
8
BLACK
10
72.1985
20
-118.397
11
72.1985
21
-117.508
0
LINE
8
BLACK
10
72.1985
20
-117.508
11
70.8015
21
-117.508
0
LINE
8
BLACK
10
70.8015
20
-117.508
11
70.8015
21
-118.397
0
LINE
8
BLACK
10
70.8015
20
-116.492
11
72.1985
21
-116.492
0
LINE
8
BLACK
10
72.1985
20
-116.492
11
72.1985
21
-115.603
0
LINE
8
BLACK
10
72.1985
20
-115.603
11
70.8015
21
-115.603
0
LINE
8
BLACK
10
70.8015
20
-115.603
11
70.8015
21
-116.492
0
LINE
8
BLACK
10
89.603
20
-154.302
11
89.603
21
-155.699
0
LINE
8
BLACK
10
89.603
20
-155.699
11
90.492
21
-155.699
0
LINE
8
BLACK
10
90.492
20
-155.699
11
90.492
21
-154.302
0
LINE
8
BLACK
10
90.492
20
-154.302
11
89.603
21
-154.302
0
LINE
8
BLACK
10
91.508
20
-154.302
11
91.508
21
-155.699
0
LINE
8
BLACK
10
91.508
20
-155.699
11
92.397
21
-155.699
0
LINE
8
BLACK
10
92.397
20
-155.699
11
92.397
21
-154.302
0
LINE
8
BLACK
10
92.397
20
-154.302
11
91.508
21
-154.302
0
LINE
8
BLACK
10
81.8015
20
-99.397
11
83.1985
21
-99.397
0
LINE
8
BLACK
10
83.1985
20
-99.397
11
83.1985
21
-98.508
0
LINE
8
BLACK
10
83.1985
20
-98.508
11
81.8015
21
-98.508
0
LINE
8
BLACK
10
81.8015
20
-98.508
11
81.8015
21
-99.397
0
LINE
8
BLACK
10
81.8015
20
-97.492
11
83.1985
21
-97.492
0
LINE
8
BLACK
10
83.1985
20
-97.492
11
83.1985
21
-96.603
0
LINE
8
BLACK
10
83.1985
20
-96.603
11
81.8015
21
-96.603
0
LINE
8
BLACK
10
81.8015
20
-96.603
11
81.8015
21
-97.492
0
LINE
8
BLACK
10
85.3015
20
-99.397
11
86.6985
21
-99.397
0
LINE
8
BLACK
10
86.6985
20
-99.397
11
86.6985
21
-98.508
0
LINE
8
BLACK
10
86.6985
20
-98.508
11
85.3015
21
-98.508
0
LINE
8
BLACK
10
85.3015
20
-98.508
11
85.3015
21
-99.397
0
LINE
8
BLACK
10
85.3015
20
-97.492
11
86.6985
21
-97.492
0
LINE
8
BLACK
10
86.6985
20
-97.492
11
86.6985
21
-96.603
0
LINE
8
BLACK
10
86.6985
20
-96.603
11
85.3015
21
-96.603
0
LINE
8
BLACK
10
85.3015
20
-96.603
11
85.3015
21
-97.492
0
LINE
8
BLACK
10
78.3015
20
-102.897
11
79.6985
21
-102.897
0
LINE
8
BLACK
10
79.6985
20
-102.897
11
79.6985
21
-102.008
0
LINE
8
BLACK
10
79.6985
20
-102.008
11
78.3015
21
-102.008
0
LINE
8
BLACK
10
78.3015
20
-102.008
11
78.3015
21
-102.897
0
LINE
8
BLACK
10
78.3015
20
-100.992
11
79.6985
21
-100.992
0
LINE
8
BLACK
10
79.6985
20
-100.992
11
79.6985
21
-100.103
0
LINE
8
BLACK
10
79.6985
20
-100.103
11
78.3015
21
-100.103
0
LINE
8
BLACK
10
78.3015
20
-100.103
11
78.3015
21
-100.992
0
LINE
8
BLACK
10
81.8015
20
-102.897
11
83.1985
21
-102.897
0
LINE
8
BLACK
10
83.1985
20
-102.897
11
83.1985
21
-102.008
0
LINE
8
BLACK
10
83.1985
20
-102.008
11
81.8015
21
-102.008
0
LINE
8
BLACK
10
81.8015
20
-102.008
11
81.8015
21
-102.897
0
LINE
8
BLACK
10
81.8015
20
-100.992
11
83.1985
21
-100.992
0
LINE
8
BLACK
10
83.1985
20
-100.992
11
83.1985
21
-100.103
0
LINE
8
BLACK
10
83.1985
20
-100.103
11
81.8015
21
-100.103
0
LINE
8
BLACK
10
81.8015
20
-100.103
11
81.8015
21
-100.992
0
LINE
8
BLACK
10
85.3015
20
-102.897
11
86.6985
21
-102.897
0
LINE
8
BLACK
10
86.6985
20
-102.897
11
86.6985
21
-102.008
0
LINE
8
BLACK
10
86.6985
20
-102.008
11
85.3015
21
-102.008
0
LINE
8
BLACK
10
85.3015
20
-102.008
11
85.3015
21
-102.897
0
LINE
8
BLACK
10
85.3015
20
-100.992
11
86.6985
21
-100.992
0
LINE
8
BLACK
10
86.6985
20
-100.992
11
86.6985
21
-100.103
0
LINE
8
BLACK
10
86.6985
20
-100.103
11
85.3015
21
-100.103
0
LINE
8
BLACK
10
85.3015
20
-100.103
11
85.3015
21
-100.992
0
LINE
8
BLACK
10
88.6985
20
-121.103
11
87.3015
21
-121.103
0
LINE
8
BLACK
10
87.3015
20
-121.103
11
87.3015
21
-121.992
0
LINE
8
BLACK
10
87.3015
20
-121.992
11
88.6985
21
-121.992
0
LINE
8
BLACK
10
88.6985
20
-121.992
11
88.6985
21
-121.103
0
LINE
8
BLACK
10
88.6985
20
-123.008
11
87.3015
21
-123.008
0
LINE
8
BLACK
10
87.3015
20
-123.008
11
87.3015
21
-123.897
0
LINE
8
BLACK
10
87.3015
20
-123.897
11
88.6985
21
-123.897
0
LINE
8
BLACK
10
88.6985
20
-123.897
11
88.6985
21
-123.008
0
LINE
8
BLACK
10
86.1985
20
-121.103
11
84.8015
21
-121.103
0
LINE
8
BLACK
10
84.8015
20
-121.103
11
84.8015
21
-121.992
0
LINE
8
BLACK
10
84.8015
20
-121.992
11
86.1985
21
-121.992
0
LINE
8
BLACK
10
86.1985
20
-121.992
11
86.1985
21
-121.103
0
LINE
8
BLACK
10
86.1985
20
-123.008
11
84.8015
21
-123.008
0
LINE
8
BLACK
10
84.8015
20
-123.008
11
84.8015
21
-123.897
0
LINE
8
BLACK
10
84.8015
20
-123.897
11
86.1985
21
-123.897
0
LINE
8
BLACK
10
86.1985
20
-123.897
11
86.1985
21
-123.008
0
LINE
8
BLACK
10
77.897
20
-124.199
11
77.897
21
-122.802
0
LINE
8
BLACK
10
77.897
20
-122.802
11
77.008
21
-122.802
0
LINE
8
BLACK
10
77.008
20
-122.802
11
77.008
21
-124.199
0
LINE
8
BLACK
10
77.008
20
-124.199
11
77.897
21
-124.199
0
LINE
8
BLACK
10
75.992
20
-124.199
11
75.992
21
-122.802
0
LINE
8
BLACK
10
75.992
20
-122.802
11
75.103
21
-122.802
0
LINE
8
BLACK
10
75.103
20
-122.802
11
75.103
21
-124.199
0
LINE
8
BLACK
10
75.103
20
-124.199
11
75.992
21
-124.199
0
LINE
8
BLACK
10
83.6985
20
-121.103
11
82.3015
21
-121.103
0
LINE
8
BLACK
10
82.3015
20
-121.103
11
82.3015
21
-121.992
0
LINE
8
BLACK
10
82.3015
20
-121.992
11
83.6985
21
-121.992
0
LINE
8
BLACK
10
83.6985
20
-121.992
11
83.6985
21
-121.103
0
LINE
8
BLACK
10
83.6985
20
-123.008
11
82.3015
21
-123.008
0
LINE
8
BLACK
10
82.3015
20
-123.008
11
82.3015
21
-123.897
0
LINE
8
BLACK
10
82.3015
20
-123.897
11
83.6985
21
-123.897
0
LINE
8
BLACK
10
83.6985
20
-123.897
11
83.6985
21
-123.008
0
LINE
8
BLACK
10
81.397
20
-122.199
11
81.397
21
-120.802
0
LINE
8
BLACK
10
81.397
20
-120.802
11
80.508
21
-120.802
0
LINE
8
BLACK
10
80.508
20
-120.802
11
80.508
21
-122.199
0
LINE
8
BLACK
10
80.508
20
-122.199
11
81.397
21
-122.199
0
LINE
8
BLACK
10
79.492
20
-122.199
11
79.492
21
-120.802
0
LINE
8
BLACK
10
79.492
20
-120.802
11
78.603
21
-120.802
0
LINE
8
BLACK
10
78.603
20
-120.802
11
78.603
21
-122.199
0
LINE
8
BLACK
10
78.603
20
-122.199
11
79.492
21
-122.199
0
LINE
8
BLACK
10
78.603
20
-122.802
11
78.603
21
-124.199
0
LINE
8
BLACK
10
78.603
20
-124.199
11
79.492
21
-124.199
0
LINE
8
BLACK
10
79.492
20
-124.199
11
79.492
21
-122.802
0
LINE
8
BLACK
10
79.492
20
-122.802
11
78.603
21
-122.802
0
LINE
8
BLACK
10
80.508
20
-122.802
11
80.508
21
-124.199
0
LINE
8
BLACK
10
80.508
20
-124.199
11
81.397
21
-124.199
0
LINE
8
BLACK
10
81.397
20
-124.199
11
81.397
21
-122.802
0
LINE
8
BLACK
10
81.397
20
-122.802
11
80.508
21
-122.802
0
LINE
8
BLACK
10
105.397
20
-99.1985
11
105.397
21
-97.8015
0
LINE
8
BLACK
10
105.397
20
-97.8015
11
104.508
21
-97.8015
0
LINE
8
BLACK
10
104.508
20
-97.8015
11
104.508
21
-99.1985
0
LINE
8
BLACK
10
104.508
20
-99.1985
11
105.397
21
-99.1985
0
LINE
8
BLACK
10
103.492
20
-99.1985
11
103.492
21
-97.8015
0
LINE
8
BLACK
10
103.492
20
-97.8015
11
102.603
21
-97.8015
0
LINE
8
BLACK
10
102.603
20
-97.8015
11
102.603
21
-99.1985
0
LINE
8
BLACK
10
102.603
20
-99.1985
11
103.492
21
-99.1985
0
LINE
8
BLACK
10
139.603
20
-163.802
11
139.603
21
-165.199
0
LINE
8
BLACK
10
139.603
20
-165.199
11
140.492
21
-165.199
0
LINE
8
BLACK
10
140.492
20
-165.199
11
140.492
21
-163.802
0
LINE
8
BLACK
10
140.492
20
-163.802
11
139.603
21
-163.802
0
LINE
8
BLACK
10
141.508
20
-163.802
11
141.508
21
-165.199
0
LINE
8
BLACK
10
141.508
20
-165.199
11
142.397
21
-165.199
0
LINE
8
BLACK
10
142.397
20
-165.199
11
142.397
21
-163.802
0
LINE
8
BLACK
10
142.397
20
-163.802
11
141.508
21
-163.802
0
LINE
8
BLACK
10
123.397
20
-99.1985
11
123.397
21
-97.8015
0
LINE
8
BLACK
10
123.397
20
-97.8015
11
122.508
21
-97.8015
0
LINE
8
BLACK
10
122.508
20
-97.8015
11
122.508
21
-99.1985
0
LINE
8
BLACK
10
122.508
20
-99.1985
11
123.397
21
-99.1985
0
LINE
8
BLACK
10
121.492
20
-99.1985
11
121.492
21
-97.8015
0
LINE
8
BLACK
10
121.492
20
-97.8015
11
120.603
21
-97.8015
0
LINE
8
BLACK
10
120.603
20
-97.8015
11
120.603
21
-99.1985
0
LINE
8
BLACK
10
120.603
20
-99.1985
11
121.492
21
-99.1985
0
LINE
8
BLACK
10
141.397
20
-99.1985
11
141.397
21
-97.8015
0
LINE
8
BLACK
10
141.397
20
-97.8015
11
140.508
21
-97.8015
0
LINE
8
BLACK
10
140.508
20
-97.8015
11
140.508
21
-99.1985
0
LINE
8
BLACK
10
140.508
20
-99.1985
11
141.397
21
-99.1985
0
LINE
8
BLACK
10
139.492
20
-99.1985
11
139.492
21
-97.8015
0
LINE
8
BLACK
10
139.492
20
-97.8015
11
138.603
21
-97.8015
0
LINE
8
BLACK
10
138.603
20
-97.8015
11
138.603
21
-99.1985
0
LINE
8
BLACK
10
138.603
20
-99.1985
11
139.492
21
-99.1985
0
LINE
8
BLACK
10
121.603
20
-163.802
11
121.603
21
-165.199
0
LINE
8
BLACK
10
121.603
20
-165.199
11
122.492
21
-165.199
0
LINE
8
BLACK
10
122.492
20
-165.199
11
122.492
21
-163.802
0
LINE
8
BLACK
10
122.492
20
-163.802
11
121.603
21
-163.802
0
LINE
8
BLACK
10
123.508
20
-163.802
11
123.508
21
-165.199
0
LINE
8
BLACK
10
123.508
20
-165.199
11
124.397
21
-165.199
0
LINE
8
BLACK
10
124.397
20
-165.199
11
124.397
21
-163.802
0
LINE
8
BLACK
10
124.397
20
-163.802
11
123.508
21
-163.802
0
LINE
8
BLACK
10
175.603
20
-163.802
11
175.603
21
-165.199
0
LINE
8
BLACK
10
175.603
20
-165.199
11
176.492
21
-165.199
0
LINE
8
BLACK
10
176.492
20
-165.199
11
176.492
21
-163.802
0
LINE
8
BLACK
10
176.492
20
-163.802
11
175.603
21
-163.802
0
LINE
8
BLACK
10
177.508
20
-163.802
11
177.508
21
-165.199
0
LINE
8
BLACK
10
177.508
20
-165.199
11
178.397
21
-165.199
0
LINE
8
BLACK
10
178.397
20
-165.199
11
178.397
21
-163.802
0
LINE
8
BLACK
10
178.397
20
-163.802
11
177.508
21
-163.802
0
LINE
8
BLACK
10
103.603
20
-163.802
11
103.603
21
-165.199
0
LINE
8
BLACK
10
103.603
20
-165.199
11
104.492
21
-165.199
0
LINE
8
BLACK
10
104.492
20
-165.199
11
104.492
21
-163.802
0
LINE
8
BLACK
10
104.492
20
-163.802
11
103.603
21
-163.802
0
LINE
8
BLACK
10
105.508
20
-163.802
11
105.508
21
-165.199
0
LINE
8
BLACK
10
105.508
20
-165.199
11
106.397
21
-165.199
0
LINE
8
BLACK
10
106.397
20
-165.199
11
106.397
21
-163.802
0
LINE
8
BLACK
10
106.397
20
-163.802
11
105.508
21
-163.802
0
LINE
8
BLACK
10
73.603
20
-116.802
11
73.603
21
-118.199
0
LINE
8
BLACK
10
73.603
20
-118.199
11
74.492
21
-118.199
0
LINE
8
BLACK
10
74.492
20
-118.199
11
74.492
21
-116.802
0
LINE
8
BLACK
10
74.492
20
-116.802
11
73.603
21
-116.802
0
LINE
8
BLACK
10
75.508
20
-116.802
11
75.508
21
-118.199
0
LINE
8
BLACK
10
75.508
20
-118.199
11
76.397
21
-118.199
0
LINE
8
BLACK
10
76.397
20
-118.199
11
76.397
21
-116.802
0
LINE
8
BLACK
10
76.397
20
-116.802
11
75.508
21
-116.802
0
LINE
8
BLACK
10
157.603
20
-163.802
11
157.603
21
-165.199
0
LINE
8
BLACK
10
157.603
20
-165.199
11
158.492
21
-165.199
0
LINE
8
BLACK
10
158.492
20
-165.199
11
158.492
21
-163.802
0
LINE
8
BLACK
10
158.492
20
-163.802
11
157.603
21
-163.802
0
LINE
8
BLACK
10
159.508
20
-163.802
11
159.508
21
-165.199
0
LINE
8
BLACK
10
159.508
20
-165.199
11
160.397
21
-165.199
0
LINE
8
BLACK
10
160.397
20
-165.199
11
160.397
21
-163.802
0
LINE
8
BLACK
10
160.397
20
-163.802
11
159.508
21
-163.802
0
LINE
8
BLACK
10
193.603
20
-163.802
11
193.603
21
-165.199
0
LINE
8
BLACK
10
193.603
20
-165.199
11
194.492
21
-165.199
0
LINE
8
BLACK
10
194.492
20
-165.199
11
194.492
21
-163.802
0
LINE
8
BLACK
10
194.492
20
-163.802
11
193.603
21
-163.802
0
LINE
8
BLACK
10
195.508
20
-163.802
11
195.508
21
-165.199
0
LINE
8
BLACK
10
195.508
20
-165.199
11
196.397
21
-165.199
0
LINE
8
BLACK
10
196.397
20
-165.199
11
196.397
21
-163.802
0
LINE
8
BLACK
10
196.397
20
-163.802
11
195.508
21
-163.802
0
LINE
8
BLACK
10
94.06
20
-133.4
11
94.06
21
-132.4
0
LINE
8
BLACK
10
94.06
20
-132.4
11
92.56
21
-132.4
0
LINE
8
BLACK
10
92.56
20
-132.4
11
92.56
21
-133.4
0
LINE
8
BLACK
10
92.56
20
-133.4
11
94.06
21
-133.4
0
LINE
8
BLACK
10
94.06
20
-135.9
11
94.06
21
-134.9
0
LINE
8
BLACK
10
94.06
20
-134.9
11
92.56
21
-134.9
0
LINE
8
BLACK
10
92.56
20
-134.9
11
92.56
21
-135.9
0
LINE
8
BLACK
10
92.56
20
-135.9
11
94.06
21
-135.9
0
LINE
8
BLACK
10
94.06
20
-139.3
11
94.06
21
-138.3
0
LINE
8
BLACK
10
94.06
20
-138.3
11
92.56
21
-138.3
0
LINE
8
BLACK
10
92.56
20
-138.3
11
92.56
21
-139.3
0
LINE
8
BLACK
10
92.56
20
-139.3
11
94.06
21
-139.3
0
LINE
8
BLACK
10
94.06
20
-140.95
11
94.06
21
-139.95
0
LINE
8
BLACK
10
94.06
20
-139.95
11
92.56
21
-139.95
0
LINE
8
BLACK
10
92.56
20
-139.95
11
92.56
21
-140.95
0
LINE
8
BLACK
10
92.56
20
-140.95
11
94.06
21
-140.95
0
LINE
8
BLACK
10
94.06
20
-143.4
11
94.06
21
-142.4
0
LINE
8
BLACK
10
94.06
20
-142.4
11
92.56
21
-142.4
0
LINE
8
BLACK
10
92.56
20
-142.4
11
92.56
21
-143.4
0
LINE
8
BLACK
10
92.56
20
-143.4
11
94.06
21
-143.4
0
LINE
8
BLACK
10
94.06
20
-145.9
11
94.06
21
-144.9
0
LINE
8
BLACK
10
94.06
20
-144.9
11
92.56
21
-144.9
0
LINE
8
BLACK
10
92.56
20
-144.9
11
92.56
21
-145.9
0
LINE
8
BLACK
10
92.56
20
-145.9
11
94.06
21
-145.9
0
LINE
8
BLACK
10
94.06
20
-148.33
11
94.06
21
-147.33
0
LINE
8
BLACK
10
94.06
20
-147.33
11
92.56
21
-147.33
0
LINE
8
BLACK
10
92.56
20
-147.33
11
92.56
21
-148.33
0
LINE
8
BLACK
10
92.56
20
-148.33
11
94.06
21
-148.33
0
LINE
8
BLACK
10
94.06
20
-150.03
11
94.06
21
-149.03
0
LINE
8
BLACK
10
94.06
20
-149.03
11
92.56
21
-149.03
0
LINE
8
BLACK
10
92.56
20
-149.03
11
92.56
21
-150.03
0
LINE
8
BLACK
10
92.56
20
-150.03
11
94.06
21
-150.03
0
LINE
8
BLACK
10
94.06
20
-130.9
11
94.06
21
-129.9
0
LINE
8
BLACK
10
94.06
20
-129.9
11
92.56
21
-129.9
0
LINE
8
BLACK
10
92.56
20
-129.9
11
92.56
21
-130.9
0
LINE
8
BLACK
10
92.56
20
-130.9
11
94.06
21
-130.9
0
LINE
8
BLACK
10
94.06
20
-153.38
11
94.06
21
-152.38
0
LINE
8
BLACK
10
94.06
20
-152.38
11
92.56
21
-152.38
0
LINE
8
BLACK
10
92.56
20
-152.38
11
92.56
21
-153.38
0
LINE
8
BLACK
10
92.56
20
-153.38
11
94.06
21
-153.38
0
LINE
8
BLACK
10
72.1
20
-154
11
72.1
21
-152.8
0
LINE
8
BLACK
10
72.1
20
-152.8
11
70.1
21
-152.8
0
LINE
8
BLACK
10
70.1
20
-152.8
11
70.1
21
-154
0
LINE
8
BLACK
10
70.1
20
-154
11
72.1
21
-154
0
LINE
8
BLACK
10
73.3
20
-126
11
73.3
21
-124.8
0
LINE
8
BLACK
10
73.3
20
-124.8
11
71.3
21
-124.8
0
LINE
8
BLACK
10
71.3
20
-124.8
11
71.3
21
-126
0
LINE
8
BLACK
10
71.3
20
-126
11
73.3
21
-126
0
LINE
8
BLACK
10
94.06
20
-137.6
11
94.06
21
-136.6
0
LINE
8
BLACK
10
94.06
20
-136.6
11
92.56
21
-136.6
0
LINE
8
BLACK
10
92.56
20
-136.6
11
92.56
21
-137.6
0
LINE
8
BLACK
10
92.56
20
-137.6
11
94.06
21
-137.6
0
CIRCLE
8
BLACK
10
69
20
-127.7
40
0.8
0
CIRCLE
8
BLACK
10
69
20
-151.85
40
0.8
0
LINE
8
BLACK
10
72.032
20
-108.198
11
70.508
21
-108.198
0
LINE
8
BLACK
10
70.508
20
-108.198
11
70.508
21
-109.722
0
LINE
8
BLACK
10
70.508
20
-109.722
11
72.032
21
-109.722
0
LINE
8
BLACK
10
72.032
20
-109.722
11
72.032
21
-108.198
0
CIRCLE
8
BLACK
10
68.73
20
-108.96
40
0.762
0
CIRCLE
8
BLACK
10
71.27
20
-111.5
40
0.762
0
CIRCLE
8
BLACK
10
68.73
20
-111.5
40
0.762
0
CIRCLE
8
BLACK
10
71.27
20
-114.04
40
0.762
0
CIRCLE
8
BLACK
10
68.73
20
-114.04
40
0.762
0
LINE
8
BLACK
10
68.238
20
-123.302
11
69.762
21
-123.302
0
LINE
8
BLACK
10
69.762
20
-123.302
11
69.762
21
-121.778
0
LINE
8
BLACK
10
69.762
20
-121.778
11
68.238
21
-121.778
0
LINE
8
BLACK
10
68.238
20
-121.778
11
68.238
21
-123.302
0
CIRCLE
8
BLACK
10
69
20
-120
40
0.762
0
CIRCLE
8
BLACK
10
69
20
-117.46
40
0.762
0
LINE
8
BLACK
10
69.762
20
-162.468
11
68.238
21
-162.468
0
LINE
8
BLACK
10
68.238
20
-162.468
11
68.238
21
-163.992
0
LINE
8
BLACK
10
68.238
20
-163.992
11
69.762
21
-163.992
0
LINE
8
BLACK
10
69.762
20
-163.992
11
69.762
21
-162.468
0
CIRCLE
8
BLACK
10
69
20
-165.77
40
0.762
0
LINE
8
BLACK
10
86.95
20
-118.85
11
91.05
21
-118.85
0
LINE
8
BLACK
10
91.05
20
-118.85
11
91.05
21
-118.15
0
LINE
8
BLACK
10
91.05
20
-118.15
11
86.95
21
-118.15
0
LINE
8
BLACK
10
86.95
20
-118.15
11
86.95
21
-118.85
0
LINE
8
BLACK
10
86.95
20
-117.5
11
91.05
21
-117.5
0
LINE
8
BLACK
10
91.05
20
-117.5
11
91.05
21
-116.5
0
LINE
8
BLACK
10
91.05
20
-116.5
11
86.95
21
-116.5
0
LINE
8
BLACK
10
86.95
20
-116.5
11
86.95
21
-117.5
0
LINE
8
BLACK
10
86.95
20
-115.85
11
91.05
21
-115.85
0
LINE
8
BLACK
10
91.05
20
-115.85
11
91.05
21
-115.15
0
LINE
8
BLACK
10
91.05
20
-115.15
11
86.95
21
-115.15
0
LINE
8
BLACK
10
86.95
20
-115.15
11
86.95
21
-115.85
0
LINE
8
BLACK
10
86.1977
20
-165.749
11
86.1977
21
-164.251
0
LINE
8
BLACK
10
86.1977
20
-164.251
11
84.8973
21
-164.251
0
LINE
8
BLACK
10
84.8973
20
-164.251
11
84.8973
21
-165.749
0
LINE
8
BLACK
10
84.8973
20
-165.749
11
86.1977
21
-165.749
0
LINE
8
BLACK
10
88.1027
20
-165.749
11
88.1027
21
-164.251
0
LINE
8
BLACK
10
88.1027
20
-164.251
11
86.8023
21
-164.251
0
LINE
8
BLACK
10
86.8023
20
-164.251
11
86.8023
21
-165.749
0
LINE
8
BLACK
10
86.8023
20
-165.749
11
88.1027
21
-165.749
0
LINE
8
BLACK
10
105.302
20
-161.751
11
105.302
21
-163.249
0
LINE
8
BLACK
10
105.302
20
-163.249
11
106.603
21
-163.249
0
LINE
8
BLACK
10
106.603
20
-163.249
11
106.603
21
-161.751
0
LINE
8
BLACK
10
106.603
20
-161.751
11
105.302
21
-161.751
0
LINE
8
BLACK
10
103.397
20
-161.751
11
103.397
21
-163.249
0
LINE
8
BLACK
10
103.397
20
-163.249
11
104.698
21
-163.249
0
LINE
8
BLACK
10
104.698
20
-163.249
11
104.698
21
-161.751
0
LINE
8
BLACK
10
104.698
20
-161.751
11
103.397
21
-161.751
0
LINE
8
BLACK
10
121.698
20
-101.249
11
121.698
21
-99.7507
0
LINE
8
BLACK
10
121.698
20
-99.7507
11
120.397
21
-99.7507
0
LINE
8
BLACK
10
120.397
20
-99.7507
11
120.397
21
-101.249
0
LINE
8
BLACK
10
120.397
20
-101.249
11
121.698
21
-101.249
0
LINE
8
BLACK
10
123.603
20
-101.249
11
123.603
21
-99.7507
0
LINE
8
BLACK
10
123.603
20
-99.7507
11
122.302
21
-99.7507
0
LINE
8
BLACK
10
122.302
20
-99.7507
11
122.302
21
-101.249
0
LINE
8
BLACK
10
122.302
20
-101.249
11
123.603
21
-101.249
0
LINE
8
BLACK
10
157.698
20
-101.249
11
157.698
21
-99.7507
0
LINE
8
BLACK
10
157.698
20
-99.7507
11
156.397
21
-99.7507
0
LINE
8
BLACK
10
156.397
20
-99.7507
11
156.397
21
-101.249
0
LINE
8
BLACK
10
156.397
20
-101.249
11
157.698
21
-101.249
0
LINE
8
BLACK
10
159.603
20
-101.249
11
159.603
21
-99.7507
0
LINE
8
BLACK
10
159.603
20
-99.7507
11
158.302
21
-99.7507
0
LINE
8
BLACK
10
158.302
20
-99.7507
11
158.302
21
-101.249
0
LINE
8
BLACK
10
158.302
20
-101.249
11
159.603
21
-101.249
0
LINE
8
BLACK
10
193.698
20
-101.249
11
193.698
21
-99.7507
0
LINE
8
BLACK
10
193.698
20
-99.7507
11
192.397
21
-99.7507
0
LINE
8
BLACK
10
192.397
20
-99.7507
11
192.397
21
-101.249
0
LINE
8
BLACK
10
192.397
20
-101.249
11
193.698
21
-101.249
0
LINE
8
BLACK
10
195.603
20
-101.249
11
195.603
21
-99.7507
0
LINE
8
BLACK
10
195.603
20
-99.7507
11
194.302
21
-99.7507
0
LINE
8
BLACK
10
194.302
20
-99.7507
11
194.302
21
-101.249
0
LINE
8
BLACK
10
194.302
20
-101.249
11
195.603
21
-101.249
0
LINE
8
BLACK
10
159.302
20
-161.751
11
159.302
21
-163.249
0
LINE
8
BLACK
10
159.302
20
-163.249
11
160.603
21
-163.249
0
LINE
8
BLACK
10
160.603
20
-163.249
11
160.603
21
-161.751
0
LINE
8
BLACK
10
160.603
20
-161.751
11
159.302
21
-161.751
0
LINE
8
BLACK
10
157.397
20
-161.751
11
157.397
21
-163.249
0
LINE
8
BLACK
10
157.397
20
-163.249
11
158.698
21
-163.249
0
LINE
8
BLACK
10
158.698
20
-163.249
11
158.698
21
-161.751
0
LINE
8
BLACK
10
158.698
20
-161.751
11
157.397
21
-161.751
0
LINE
8
BLACK
10
78.1977
20
-165.749
11
78.1977
21
-164.251
0
LINE
8
BLACK
10
78.1977
20
-164.251
11
76.8973
21
-164.251
0
LINE
8
BLACK
10
76.8973
20
-164.251
11
76.8973
21
-165.749
0
LINE
8
BLACK
10
76.8973
20
-165.749
11
78.1977
21
-165.749
0
LINE
8
BLACK
10
80.1027
20
-165.749
11
80.1027
21
-164.251
0
LINE
8
BLACK
10
80.1027
20
-164.251
11
78.8023
21
-164.251
0
LINE
8
BLACK
10
78.8023
20
-164.251
11
78.8023
21
-165.749
0
LINE
8
BLACK
10
78.8023
20
-165.749
11
80.1027
21
-165.749
0
LINE
8
BLACK
10
70.7507
20
-164.198
11
72.2493
21
-164.198
0
LINE
8
BLACK
10
72.2493
20
-164.198
11
72.2493
21
-162.897
0
LINE
8
BLACK
10
72.2493
20
-162.897
11
70.7507
21
-162.897
0
LINE
8
BLACK
10
70.7507
20
-162.897
11
70.7507
21
-164.198
0
LINE
8
BLACK
10
70.7507
20
-166.103
11
72.2493
21
-166.103
0
LINE
8
BLACK
10
72.2493
20
-166.103
11
72.2493
21
-164.802
0
LINE
8
BLACK
10
72.2493
20
-164.802
11
70.7507
21
-164.802
0
LINE
8
BLACK
10
70.7507
20
-164.802
11
70.7507
21
-166.103
0
LINE
8
BLACK
10
175.698
20
-101.249
11
175.698
21
-99.7507
0
LINE
8
BLACK
10
175.698
20
-99.7507
11
174.397
21
-99.7507
0
LINE
8
BLACK
10
174.397
20
-99.7507
11
174.397
21
-101.249
0
LINE
8
BLACK
10
174.397
20
-101.249
11
175.698
21
-101.249
0
LINE
8
BLACK
10
177.603
20
-101.249
11
177.603
21
-99.7507
0
LINE
8
BLACK
10
177.603
20
-99.7507
11
176.302
21
-99.7507
0
LINE
8
BLACK
10
176.302
20
-99.7507
11
176.302
21
-101.249
0
LINE
8
BLACK
10
176.302
20
-101.249
11
177.603
21
-101.249
0
LINE
8
BLACK
10
139.698
20
-101.249
11
139.698
21
-99.7507
0
LINE
8
BLACK
10
139.698
20
-99.7507
11
138.397
21
-99.7507
0
LINE
8
BLACK
10
138.397
20
-99.7507
11
138.397
21
-101.249
0
LINE
8
BLACK
10
138.397
20
-101.249
11
139.698
21
-101.249
0
LINE
8
BLACK
10
141.603
20
-101.249
11
141.603
21
-99.7507
0
LINE
8
BLACK
10
141.603
20
-99.7507
11
140.302
21
-99.7507
0
LINE
8
BLACK
10
140.302
20
-99.7507
11
140.302
21
-101.249
0
LINE
8
BLACK
10
140.302
20
-101.249
11
141.603
21
-101.249
0
LINE
8
BLACK
10
103.698
20
-101.249
11
103.698
21
-99.7507
0
LINE
8
BLACK
10
103.698
20
-99.7507
11
102.397
21
-99.7507
0
LINE
8
BLACK
10
102.397
20
-99.7507
11
102.397
21
-101.249
0
LINE
8
BLACK
10
102.397
20
-101.249
11
103.698
21
-101.249
0
LINE
8
BLACK
10
105.603
20
-101.249
11
105.603
21
-99.7507
0
LINE
8
BLACK
10
105.603
20
-99.7507
11
104.302
21
-99.7507
0
LINE
8
BLACK
10
104.302
20
-99.7507
11
104.302
21
-101.249
0
LINE
8
BLACK
10
104.302
20
-101.249
11
105.603
21
-101.249
0
LINE
8
BLACK
10
122.698
20
-163.249
11
122.698
21
-161.751
0
LINE
8
BLACK
10
122.698
20
-161.751
11
121.397
21
-161.751
0
LINE
8
BLACK
10
121.397
20
-161.751
11
121.397
21
-163.249
0
LINE
8
BLACK
10
121.397
20
-163.249
11
122.698
21
-163.249
0
LINE
8
BLACK
10
124.603
20
-163.249
11
124.603
21
-161.751
0
LINE
8
BLACK
10
124.603
20
-161.751
11
123.302
21
-161.751
0
LINE
8
BLACK
10
123.302
20
-161.751
11
123.302
21
-163.249
0
LINE
8
BLACK
10
123.302
20
-163.249
11
124.603
21
-163.249
0
LINE
8
BLACK
10
140.698
20
-163.249
11
140.698
21
-161.751
0
LINE
8
BLACK
10
140.698
20
-161.751
11
139.397
21
-161.751
0
LINE
8
BLACK
10
139.397
20
-161.751
11
139.397
21
-163.249
0
LINE
8
BLACK
10
139.397
20
-163.249
11
140.698
21
-163.249
0
LINE
8
BLACK
10
142.603
20
-163.249
11
142.603
21
-161.751
0
LINE
8
BLACK
10
142.603
20
-161.751
11
141.302
21
-161.751
0
LINE
8
BLACK
10
141.302
20
-161.751
11
141.302
21
-163.249
0
LINE
8
BLACK
10
141.302
20
-163.249
11
142.603
21
-163.249
0
LINE
8
BLACK
10
177.302
20
-161.751
11
177.302
21
-163.249
0
LINE
8
BLACK
10
177.302
20
-163.249
11
178.603
21
-163.249
0
LINE
8
BLACK
10
178.603
20
-163.249
11
178.603
21
-161.751
0
LINE
8
BLACK
10
178.603
20
-161.751
11
177.302
21
-161.751
0
LINE
8
BLACK
10
175.397
20
-161.751
11
175.397
21
-163.249
0
LINE
8
BLACK
10
175.397
20
-163.249
11
176.698
21
-163.249
0
LINE
8
BLACK
10
176.698
20
-163.249
11
176.698
21
-161.751
0
LINE
8
BLACK
10
176.698
20
-161.751
11
175.397
21
-161.751
0
LINE
8
BLACK
10
195.302
20
-161.751
11
195.302
21
-163.249
0
LINE
8
BLACK
10
195.302
20
-163.249
11
196.603
21
-163.249
0
LINE
8
BLACK
10
196.603
20
-163.249
11
196.603
21
-161.751
0
LINE
8
BLACK
10
196.603
20
-161.751
11
195.302
21
-161.751
0
LINE
8
BLACK
10
193.397
20
-161.751
11
193.397
21
-163.249
0
LINE
8
BLACK
10
193.397
20
-163.249
11
194.698
21
-163.249
0
LINE
8
BLACK
10
194.698
20
-163.249
11
194.698
21
-161.751
0
LINE
8
BLACK
10
194.698
20
-161.751
11
193.397
21
-161.751
0
LINE
8
BLACK
10
89.7493
20
-110.802
11
88.2507
21
-110.802
0
LINE
8
BLACK
10
88.2507
20
-110.802
11
88.2507
21
-112.103
0
LINE
8
BLACK
10
88.2507
20
-112.103
11
89.7493
21
-112.103
0
LINE
8
BLACK
10
89.7493
20
-112.103
11
89.7493
21
-110.802
0
LINE
8
BLACK
10
89.7493
20
-108.897
11
88.2507
21
-108.897
0
LINE
8
BLACK
10
88.2507
20
-108.897
11
88.2507
21
-110.198
0
LINE
8
BLACK
10
88.2507
20
-110.198
11
89.7493
21
-110.198
0
LINE
8
BLACK
10
89.7493
20
-110.198
11
89.7493
21
-108.897
0
LINE
8
BLACK
10
90.6
20
-163.599
11
90.6
21
-164.6
0
LINE
8
BLACK
10
90.6
20
-164.6
11
91.4001
21
-164.6
0
LINE
8
BLACK
10
91.4001
20
-164.6
11
91.4001
21
-163.599
0
LINE
8
BLACK
10
91.4001
20
-163.599
11
90.6
21
-163.599
0
LINE
8
BLACK
10
91.5525
20
-161.4
11
91.5525
21
-162.401
0
LINE
8
BLACK
10
91.5525
20
-162.401
11
92.3526
21
-162.401
0
LINE
8
BLACK
10
92.3526
20
-162.401
11
92.3526
21
-161.4
0
LINE
8
BLACK
10
92.3526
20
-161.4
11
91.5525
21
-161.4
0
LINE
8
BLACK
10
89.6475
20
-161.4
11
89.6475
21
-162.401
0
LINE
8
BLACK
10
89.6475
20
-162.401
11
90.4476
21
-162.401
0
LINE
8
BLACK
10
90.4476
20
-162.401
11
90.4476
21
-161.4
0
LINE
8
BLACK
10
90.4476
20
-161.4
11
89.6475
21
-161.4
0
CIRCLE
8
BLACK
10
207
20
-158.5
40
2.032
0
CIRCLE
8
BLACK
10
207
20
-104.5
40
2.032
0
CIRCLE
8
BLACK
10
71
20
-158.5
40
2.032
0
CIRCLE
8
BLACK
10
93.5
20
-158.5
40
2.032
0
CIRCLE
8
BLACK
10
93.5
20
-104.5
40
2.032
0
CIRCLE
8
BLACK
10
71
20
-104.5
40
2.032
  0
ENDSEC
  0
EOF
