  0
SECTION
  2
HEADER
  9
$ANGBASE
  50
0.0
  9
$ANGDIR
  70
  1
  9
$MEASUREMENT
  70
0
  0
ENDSEC
  0
SECTION
  2
TABLES
  0
TABLE
  2
LTYPE
  70
1
  0
LTYPE
  2
CONTINUOUS
  70
0
  3
Solid line
  72
65
  73
0
  40
0.0
  0
ENDTAB
  0
TABLE
  2
STYLE
  70
4
  0
STYLE
  2
KICAD
  70
0
  40
0
  41
1
  42
1
  50
0
  71
0
  3
isocp.shx
  0
STYLE
  2
KICADB
  70
0
  40
0
  41
1
  42
1
  50
0
  71
0
  3
isocp.shx
  0
STYLE
  2
KICADI
  70
0
  40
0
  41
1
  42
1
  50
15
  71
0
  3
isocp.shx
  0
STYLE
  2
KICADBI
  70
0
  40
0
  41
1
  42
1
  50
15
  71
0
  3
isocp.shx
  0
ENDTAB
  0
TABLE
  2
LAYER
  70
24
  0
LAYER
  2
BLACK
  70
0
  62
250
  6
CONTINUOUS
  0
LAYER
  2
BLUE
  70
0
  62
5
  6
CONTINUOUS
  0
LAYER
  2
GREEN
  70
0
  62
3
  6
CONTINUOUS
  0
LAYER
  2
CYAN
  70
0
  62
4
  6
CONTINUOUS
  0
LAYER
  2
RED
  70
0
  62
1
  6
CONTINUOUS
  0
LAYER
  2
MAGENTA
  70
0
  62
6
  6
CONTINUOUS
  0
LAYER
  2
BROWN
  70
0
  62
54
  6
CONTINUOUS
  0
LAYER
  2
LIGHTGRAY
  70
0
  62
9
  6
CONTINUOUS
  0
LAYER
  2
DARKGRAY
  70
0
  62
8
  6
CONTINUOUS
  0
LAYER
  2
LIGHTBLUE
  70
0
  62
171
  6
CONTINUOUS
  0
LAYER
  2
LIGHTGREEN
  70
0
  62
91
  6
CONTINUOUS
  0
LAYER
  2
LIGHTCYAN
  70
0
  62
131
  6
CONTINUOUS
  0
LAYER
  2
LIGHTRED
  70
0
  62
11
  6
CONTINUOUS
  0
LAYER
  2
LIGHTMAGENTA
  70
0
  62
221
  6
CONTINUOUS
  0
LAYER
  2
YELLOW
  70
0
  62
2
  6
CONTINUOUS
  0
LAYER
  2
WHITE
  70
0
  62
7
  6
CONTINUOUS
  0
LAYER
  2
DARKDARKGRAY
  70
0
  62
251
  6
CONTINUOUS
  0
LAYER
  2
DARKBLUE
  70
0
  62
178
  6
CONTINUOUS
  0
LAYER
  2
DARKGREEN
  70
0
  62
98
  6
CONTINUOUS
  0
LAYER
  2
DARKCYAN
  70
0
  62
138
  6
CONTINUOUS
  0
LAYER
  2
DARKRED
  70
0
  62
18
  6
CONTINUOUS
  0
LAYER
  2
DARKMAGENTA
  70
0
  62
228
  6
CONTINUOUS
  0
LAYER
  2
DARKBROWN
  70
0
  62
58
  6
CONTINUOUS
  0
LAYER
  2
LIGHTYELLOW
  70
0
  62
51
  6
CONTINUOUS
  0
ENDTAB
  0
ENDSEC
  0
SECTION
  2
ENTITIES
0
LINE
8
BLACK
10
198.175
20
-100.1
11
198.175
21
-99.9
0
LINE
8
BLACK
10
198.025
20
-100.1
11
198.025
21
-99.9
0
ARC
8
BLACK
10
198.1
20
-99.9
40
0.075
50
360
51
540
0
ARC
8
BLACK
10
198.1
20
-100.1
40
0.075
50
180
51
360
0
LINE
8
BLACK
10
198.1
20
-99.975
11
198.5
21
-99.975
0
LINE
8
BLACK
10
198.1
20
-99.825
11
198.5
21
-99.825
0
ARC
8
BLACK
10
198.5
20
-99.9
40
0.075
50
270
51
450
0
ARC
8
BLACK
10
198.1
20
-99.9
40
0.075
50
90
51
270
0
LINE
8
BLACK
10
198.575
20
-100.1
11
198.575
21
-99.9
0
LINE
8
BLACK
10
198.425
20
-100.1
11
198.425
21
-99.9
0
ARC
8
BLACK
10
198.5
20
-99.9
40
0.075
50
360
51
540
0
ARC
8
BLACK
10
198.5
20
-100.1
40
0.075
50
180
51
360
0
LINE
8
BLACK
10
198.1
20
-100.175
11
198.5
21
-100.175
0
LINE
8
BLACK
10
198.1
20
-100.025
11
198.5
21
-100.025
0
ARC
8
BLACK
10
198.5
20
-100.1
40
0.075
50
270
51
450
0
ARC
8
BLACK
10
198.1
20
-100.1
40
0.075
50
90
51
270
0
LINE
8
BLACK
10
198.175
20
-109.1
11
198.175
21
-108.9
0
LINE
8
BLACK
10
198.025
20
-109.1
11
198.025
21
-108.9
0
ARC
8
BLACK
10
198.1
20
-108.9
40
0.075
50
360
51
540
0
ARC
8
BLACK
10
198.1
20
-109.1
40
0.075
50
180
51
360
0
LINE
8
BLACK
10
198.1
20
-108.975
11
198.5
21
-108.975
0
LINE
8
BLACK
10
198.1
20
-108.825
11
198.5
21
-108.825
0
ARC
8
BLACK
10
198.5
20
-108.9
40
0.075
50
270
51
450
0
ARC
8
BLACK
10
198.1
20
-108.9
40
0.075
50
90
51
270
0
LINE
8
BLACK
10
198.575
20
-109.1
11
198.575
21
-108.9
0
LINE
8
BLACK
10
198.425
20
-109.1
11
198.425
21
-108.9
0
ARC
8
BLACK
10
198.5
20
-108.9
40
0.075
50
360
51
540
0
ARC
8
BLACK
10
198.5
20
-109.1
40
0.075
50
180
51
360
0
LINE
8
BLACK
10
198.1
20
-109.175
11
198.5
21
-109.175
0
LINE
8
BLACK
10
198.1
20
-109.025
11
198.5
21
-109.025
0
ARC
8
BLACK
10
198.5
20
-109.1
40
0.075
50
270
51
450
0
ARC
8
BLACK
10
198.1
20
-109.1
40
0.075
50
90
51
270
0
LINE
8
BLACK
10
135.175
20
-163.1
11
135.175
21
-162.9
0
LINE
8
BLACK
10
135.025
20
-163.1
11
135.025
21
-162.9
0
ARC
8
BLACK
10
135.1
20
-162.9
40
0.075
50
360
51
540
0
ARC
8
BLACK
10
135.1
20
-163.1
40
0.075
50
180
51
360
0
LINE
8
BLACK
10
135.1
20
-162.975
11
135.5
21
-162.975
0
LINE
8
BLACK
10
135.1
20
-162.825
11
135.5
21
-162.825
0
ARC
8
BLACK
10
135.5
20
-162.9
40
0.075
50
270
51
450
0
ARC
8
BLACK
10
135.1
20
-162.9
40
0.075
50
90
51
270
0
LINE
8
BLACK
10
135.575
20
-163.1
11
135.575
21
-162.9
0
LINE
8
BLACK
10
135.425
20
-163.1
11
135.425
21
-162.9
0
ARC
8
BLACK
10
135.5
20
-162.9
40
0.075
50
360
51
540
0
ARC
8
BLACK
10
135.5
20
-163.1
40
0.075
50
180
51
360
0
LINE
8
BLACK
10
135.1
20
-163.175
11
135.5
21
-163.175
0
LINE
8
BLACK
10
135.1
20
-163.025
11
135.5
21
-163.025
0
ARC
8
BLACK
10
135.5
20
-163.1
40
0.075
50
270
51
450
0
ARC
8
BLACK
10
135.1
20
-163.1
40
0.075
50
90
51
270
0
LINE
8
BLACK
10
144.175
20
-136.1
11
144.175
21
-135.9
0
LINE
8
BLACK
10
144.025
20
-136.1
11
144.025
21
-135.9
0
ARC
8
BLACK
10
144.1
20
-135.9
40
0.075
50
360
51
540
0
ARC
8
BLACK
10
144.1
20
-136.1
40
0.075
50
180
51
360
0
LINE
8
BLACK
10
144.1
20
-135.975
11
144.5
21
-135.975
0
LINE
8
BLACK
10
144.1
20
-135.825
11
144.5
21
-135.825
0
ARC
8
BLACK
10
144.5
20
-135.9
40
0.075
50
270
51
450
0
ARC
8
BLACK
10
144.1
20
-135.9
40
0.075
50
90
51
270
0
LINE
8
BLACK
10
144.575
20
-136.1
11
144.575
21
-135.9
0
LINE
8
BLACK
10
144.425
20
-136.1
11
144.425
21
-135.9
0
ARC
8
BLACK
10
144.5
20
-135.9
40
0.075
50
360
51
540
0
ARC
8
BLACK
10
144.5
20
-136.1
40
0.075
50
180
51
360
0
LINE
8
BLACK
10
144.1
20
-136.175
11
144.5
21
-136.175
0
LINE
8
BLACK
10
144.1
20
-136.025
11
144.5
21
-136.025
0
ARC
8
BLACK
10
144.5
20
-136.1
40
0.075
50
270
51
450
0
ARC
8
BLACK
10
144.1
20
-136.1
40
0.075
50
90
51
270
0
LINE
8
BLACK
10
144.175
20
-145.1
11
144.175
21
-144.9
0
LINE
8
BLACK
10
144.025
20
-145.1
11
144.025
21
-144.9
0
ARC
8
BLACK
10
144.1
20
-144.9
40
0.075
50
360
51
540
0
ARC
8
BLACK
10
144.1
20
-145.1
40
0.075
50
180
51
360
0
LINE
8
BLACK
10
144.1
20
-144.975
11
144.5
21
-144.975
0
LINE
8
BLACK
10
144.1
20
-144.825
11
144.5
21
-144.825
0
ARC
8
BLACK
10
144.5
20
-144.9
40
0.075
50
270
51
450
0
ARC
8
BLACK
10
144.1
20
-144.9
40
0.075
50
90
51
270
0
LINE
8
BLACK
10
144.575
20
-145.1
11
144.575
21
-144.9
0
LINE
8
BLACK
10
144.425
20
-145.1
11
144.425
21
-144.9
0
ARC
8
BLACK
10
144.5
20
-144.9
40
0.075
50
360
51
540
0
ARC
8
BLACK
10
144.5
20
-145.1
40
0.075
50
180
51
360
0
LINE
8
BLACK
10
144.1
20
-145.175
11
144.5
21
-145.175
0
LINE
8
BLACK
10
144.1
20
-145.025
11
144.5
21
-145.025
0
ARC
8
BLACK
10
144.5
20
-145.1
40
0.075
50
270
51
450
0
ARC
8
BLACK
10
144.1
20
-145.1
40
0.075
50
90
51
270
0
LINE
8
BLACK
10
144.175
20
-154.1
11
144.175
21
-153.9
0
LINE
8
BLACK
10
144.025
20
-154.1
11
144.025
21
-153.9
0
ARC
8
BLACK
10
144.1
20
-153.9
40
0.075
50
360
51
540
0
ARC
8
BLACK
10
144.1
20
-154.1
40
0.075
50
180
51
360
0
LINE
8
BLACK
10
144.1
20
-153.975
11
144.5
21
-153.975
0
LINE
8
BLACK
10
144.1
20
-153.825
11
144.5
21
-153.825
0
ARC
8
BLACK
10
144.5
20
-153.9
40
0.075
50
270
51
450
0
ARC
8
BLACK
10
144.1
20
-153.9
40
0.075
50
90
51
270
0
LINE
8
BLACK
10
144.575
20
-154.1
11
144.575
21
-153.9
0
LINE
8
BLACK
10
144.425
20
-154.1
11
144.425
21
-153.9
0
ARC
8
BLACK
10
144.5
20
-153.9
40
0.075
50
360
51
540
0
ARC
8
BLACK
10
144.5
20
-154.1
40
0.075
50
180
51
360
0
LINE
8
BLACK
10
144.1
20
-154.175
11
144.5
21
-154.175
0
LINE
8
BLACK
10
144.1
20
-154.025
11
144.5
21
-154.025
0
ARC
8
BLACK
10
144.5
20
-154.1
40
0.075
50
270
51
450
0
ARC
8
BLACK
10
144.1
20
-154.1
40
0.075
50
90
51
270
0
LINE
8
BLACK
10
144.175
20
-163.1
11
144.175
21
-162.9
0
LINE
8
BLACK
10
144.025
20
-163.1
11
144.025
21
-162.9
0
ARC
8
BLACK
10
144.1
20
-162.9
40
0.075
50
360
51
540
0
ARC
8
BLACK
10
144.1
20
-163.1
40
0.075
50
180
51
360
0
LINE
8
BLACK
10
144.1
20
-162.975
11
144.5
21
-162.975
0
LINE
8
BLACK
10
144.1
20
-162.825
11
144.5
21
-162.825
0
ARC
8
BLACK
10
144.5
20
-162.9
40
0.075
50
270
51
450
0
ARC
8
BLACK
10
144.1
20
-162.9
40
0.075
50
90
51
270
0
LINE
8
BLACK
10
144.575
20
-163.1
11
144.575
21
-162.9
0
LINE
8
BLACK
10
144.425
20
-163.1
11
144.425
21
-162.9
0
ARC
8
BLACK
10
144.5
20
-162.9
40
0.075
50
360
51
540
0
ARC
8
BLACK
10
144.5
20
-163.1
40
0.075
50
180
51
360
0
LINE
8
BLACK
10
144.1
20
-163.175
11
144.5
21
-163.175
0
LINE
8
BLACK
10
144.1
20
-163.025
11
144.5
21
-163.025
0
ARC
8
BLACK
10
144.5
20
-163.1
40
0.075
50
270
51
450
0
ARC
8
BLACK
10
144.1
20
-163.1
40
0.075
50
90
51
270
0
LINE
8
BLACK
10
126.175
20
-136.1
11
126.175
21
-135.9
0
LINE
8
BLACK
10
126.025
20
-136.1
11
126.025
21
-135.9
0
ARC
8
BLACK
10
126.1
20
-135.9
40
0.075
50
360
51
540
0
ARC
8
BLACK
10
126.1
20
-136.1
40
0.075
50
180
51
360
0
LINE
8
BLACK
10
126.1
20
-135.975
11
126.5
21
-135.975
0
LINE
8
BLACK
10
126.1
20
-135.825
11
126.5
21
-135.825
0
ARC
8
BLACK
10
126.5
20
-135.9
40
0.075
50
270
51
450
0
ARC
8
BLACK
10
126.1
20
-135.9
40
0.075
50
90
51
270
0
LINE
8
BLACK
10
126.575
20
-136.1
11
126.575
21
-135.9
0
LINE
8
BLACK
10
126.425
20
-136.1
11
126.425
21
-135.9
0
ARC
8
BLACK
10
126.5
20
-135.9
40
0.075
50
360
51
540
0
ARC
8
BLACK
10
126.5
20
-136.1
40
0.075
50
180
51
360
0
LINE
8
BLACK
10
126.1
20
-136.175
11
126.5
21
-136.175
0
LINE
8
BLACK
10
126.1
20
-136.025
11
126.5
21
-136.025
0
ARC
8
BLACK
10
126.5
20
-136.1
40
0.075
50
270
51
450
0
ARC
8
BLACK
10
126.1
20
-136.1
40
0.075
50
90
51
270
0
LINE
8
BLACK
10
126.175
20
-145.1
11
126.175
21
-144.9
0
LINE
8
BLACK
10
126.025
20
-145.1
11
126.025
21
-144.9
0
ARC
8
BLACK
10
126.1
20
-144.9
40
0.075
50
360
51
540
0
ARC
8
BLACK
10
126.1
20
-145.1
40
0.075
50
180
51
360
0
LINE
8
BLACK
10
126.1
20
-144.975
11
126.5
21
-144.975
0
LINE
8
BLACK
10
126.1
20
-144.825
11
126.5
21
-144.825
0
ARC
8
BLACK
10
126.5
20
-144.9
40
0.075
50
270
51
450
0
ARC
8
BLACK
10
126.1
20
-144.9
40
0.075
50
90
51
270
0
LINE
8
BLACK
10
126.575
20
-145.1
11
126.575
21
-144.9
0
LINE
8
BLACK
10
126.425
20
-145.1
11
126.425
21
-144.9
0
ARC
8
BLACK
10
126.5
20
-144.9
40
0.075
50
360
51
540
0
ARC
8
BLACK
10
126.5
20
-145.1
40
0.075
50
180
51
360
0
LINE
8
BLACK
10
126.1
20
-145.175
11
126.5
21
-145.175
0
LINE
8
BLACK
10
126.1
20
-145.025
11
126.5
21
-145.025
0
ARC
8
BLACK
10
126.5
20
-145.1
40
0.075
50
270
51
450
0
ARC
8
BLACK
10
126.1
20
-145.1
40
0.075
50
90
51
270
0
LINE
8
BLACK
10
126.175
20
-154.1
11
126.175
21
-153.9
0
LINE
8
BLACK
10
126.025
20
-154.1
11
126.025
21
-153.9
0
ARC
8
BLACK
10
126.1
20
-153.9
40
0.075
50
360
51
540
0
ARC
8
BLACK
10
126.1
20
-154.1
40
0.075
50
180
51
360
0
LINE
8
BLACK
10
126.1
20
-153.975
11
126.5
21
-153.975
0
LINE
8
BLACK
10
126.1
20
-153.825
11
126.5
21
-153.825
0
ARC
8
BLACK
10
126.5
20
-153.9
40
0.075
50
270
51
450
0
ARC
8
BLACK
10
126.1
20
-153.9
40
0.075
50
90
51
270
0
LINE
8
BLACK
10
126.575
20
-154.1
11
126.575
21
-153.9
0
LINE
8
BLACK
10
126.425
20
-154.1
11
126.425
21
-153.9
0
ARC
8
BLACK
10
126.5
20
-153.9
40
0.075
50
360
51
540
0
ARC
8
BLACK
10
126.5
20
-154.1
40
0.075
50
180
51
360
0
LINE
8
BLACK
10
126.1
20
-154.175
11
126.5
21
-154.175
0
LINE
8
BLACK
10
126.1
20
-154.025
11
126.5
21
-154.025
0
ARC
8
BLACK
10
126.5
20
-154.1
40
0.075
50
270
51
450
0
ARC
8
BLACK
10
126.1
20
-154.1
40
0.075
50
90
51
270
0
LINE
8
BLACK
10
126.175
20
-163.1
11
126.175
21
-162.9
0
LINE
8
BLACK
10
126.025
20
-163.1
11
126.025
21
-162.9
0
ARC
8
BLACK
10
126.1
20
-162.9
40
0.075
50
360
51
540
0
ARC
8
BLACK
10
126.1
20
-163.1
40
0.075
50
180
51
360
0
LINE
8
BLACK
10
126.1
20
-162.975
11
126.5
21
-162.975
0
LINE
8
BLACK
10
126.1
20
-162.825
11
126.5
21
-162.825
0
ARC
8
BLACK
10
126.5
20
-162.9
40
0.075
50
270
51
450
0
ARC
8
BLACK
10
126.1
20
-162.9
40
0.075
50
90
51
270
0
LINE
8
BLACK
10
126.575
20
-163.1
11
126.575
21
-162.9
0
LINE
8
BLACK
10
126.425
20
-163.1
11
126.425
21
-162.9
0
ARC
8
BLACK
10
126.5
20
-162.9
40
0.075
50
360
51
540
0
ARC
8
BLACK
10
126.5
20
-163.1
40
0.075
50
180
51
360
0
LINE
8
BLACK
10
126.1
20
-163.175
11
126.5
21
-163.175
0
LINE
8
BLACK
10
126.1
20
-163.025
11
126.5
21
-163.025
0
ARC
8
BLACK
10
126.5
20
-163.1
40
0.075
50
270
51
450
0
ARC
8
BLACK
10
126.1
20
-163.1
40
0.075
50
90
51
270
0
LINE
8
BLACK
10
135.175
20
-136.1
11
135.175
21
-135.9
0
LINE
8
BLACK
10
135.025
20
-136.1
11
135.025
21
-135.9
0
ARC
8
BLACK
10
135.1
20
-135.9
40
0.075
50
360
51
540
0
ARC
8
BLACK
10
135.1
20
-136.1
40
0.075
50
180
51
360
0
LINE
8
BLACK
10
135.1
20
-135.975
11
135.5
21
-135.975
0
LINE
8
BLACK
10
135.1
20
-135.825
11
135.5
21
-135.825
0
ARC
8
BLACK
10
135.5
20
-135.9
40
0.075
50
270
51
450
0
ARC
8
BLACK
10
135.1
20
-135.9
40
0.075
50
90
51
270
0
LINE
8
BLACK
10
135.575
20
-136.1
11
135.575
21
-135.9
0
LINE
8
BLACK
10
135.425
20
-136.1
11
135.425
21
-135.9
0
ARC
8
BLACK
10
135.5
20
-135.9
40
0.075
50
360
51
540
0
ARC
8
BLACK
10
135.5
20
-136.1
40
0.075
50
180
51
360
0
LINE
8
BLACK
10
135.1
20
-136.175
11
135.5
21
-136.175
0
LINE
8
BLACK
10
135.1
20
-136.025
11
135.5
21
-136.025
0
ARC
8
BLACK
10
135.5
20
-136.1
40
0.075
50
270
51
450
0
ARC
8
BLACK
10
135.1
20
-136.1
40
0.075
50
90
51
270
0
LINE
8
BLACK
10
135.175
20
-145.1
11
135.175
21
-144.9
0
LINE
8
BLACK
10
135.025
20
-145.1
11
135.025
21
-144.9
0
ARC
8
BLACK
10
135.1
20
-144.9
40
0.075
50
360
51
540
0
ARC
8
BLACK
10
135.1
20
-145.1
40
0.075
50
180
51
360
0
LINE
8
BLACK
10
135.1
20
-144.975
11
135.5
21
-144.975
0
LINE
8
BLACK
10
135.1
20
-144.825
11
135.5
21
-144.825
0
ARC
8
BLACK
10
135.5
20
-144.9
40
0.075
50
270
51
450
0
ARC
8
BLACK
10
135.1
20
-144.9
40
0.075
50
90
51
270
0
LINE
8
BLACK
10
135.575
20
-145.1
11
135.575
21
-144.9
0
LINE
8
BLACK
10
135.425
20
-145.1
11
135.425
21
-144.9
0
ARC
8
BLACK
10
135.5
20
-144.9
40
0.075
50
360
51
540
0
ARC
8
BLACK
10
135.5
20
-145.1
40
0.075
50
180
51
360
0
LINE
8
BLACK
10
135.1
20
-145.175
11
135.5
21
-145.175
0
LINE
8
BLACK
10
135.1
20
-145.025
11
135.5
21
-145.025
0
ARC
8
BLACK
10
135.5
20
-145.1
40
0.075
50
270
51
450
0
ARC
8
BLACK
10
135.1
20
-145.1
40
0.075
50
90
51
270
0
LINE
8
BLACK
10
135.175
20
-154.1
11
135.175
21
-153.9
0
LINE
8
BLACK
10
135.025
20
-154.1
11
135.025
21
-153.9
0
ARC
8
BLACK
10
135.1
20
-153.9
40
0.075
50
360
51
540
0
ARC
8
BLACK
10
135.1
20
-154.1
40
0.075
50
180
51
360
0
LINE
8
BLACK
10
135.1
20
-153.975
11
135.5
21
-153.975
0
LINE
8
BLACK
10
135.1
20
-153.825
11
135.5
21
-153.825
0
ARC
8
BLACK
10
135.5
20
-153.9
40
0.075
50
270
51
450
0
ARC
8
BLACK
10
135.1
20
-153.9
40
0.075
50
90
51
270
0
LINE
8
BLACK
10
135.575
20
-154.1
11
135.575
21
-153.9
0
LINE
8
BLACK
10
135.425
20
-154.1
11
135.425
21
-153.9
0
ARC
8
BLACK
10
135.5
20
-153.9
40
0.075
50
360
51
540
0
ARC
8
BLACK
10
135.5
20
-154.1
40
0.075
50
180
51
360
0
LINE
8
BLACK
10
135.1
20
-154.175
11
135.5
21
-154.175
0
LINE
8
BLACK
10
135.1
20
-154.025
11
135.5
21
-154.025
0
ARC
8
BLACK
10
135.5
20
-154.1
40
0.075
50
270
51
450
0
ARC
8
BLACK
10
135.1
20
-154.1
40
0.075
50
90
51
270
0
LINE
8
BLACK
10
153.175
20
-163.1
11
153.175
21
-162.9
0
LINE
8
BLACK
10
153.025
20
-163.1
11
153.025
21
-162.9
0
ARC
8
BLACK
10
153.1
20
-162.9
40
0.075
50
360
51
540
0
ARC
8
BLACK
10
153.1
20
-163.1
40
0.075
50
180
51
360
0
LINE
8
BLACK
10
153.1
20
-162.975
11
153.5
21
-162.975
0
LINE
8
BLACK
10
153.1
20
-162.825
11
153.5
21
-162.825
0
ARC
8
BLACK
10
153.5
20
-162.9
40
0.075
50
270
51
450
0
ARC
8
BLACK
10
153.1
20
-162.9
40
0.075
50
90
51
270
0
LINE
8
BLACK
10
153.575
20
-163.1
11
153.575
21
-162.9
0
LINE
8
BLACK
10
153.425
20
-163.1
11
153.425
21
-162.9
0
ARC
8
BLACK
10
153.5
20
-162.9
40
0.075
50
360
51
540
0
ARC
8
BLACK
10
153.5
20
-163.1
40
0.075
50
180
51
360
0
LINE
8
BLACK
10
153.1
20
-163.175
11
153.5
21
-163.175
0
LINE
8
BLACK
10
153.1
20
-163.025
11
153.5
21
-163.025
0
ARC
8
BLACK
10
153.5
20
-163.1
40
0.075
50
270
51
450
0
ARC
8
BLACK
10
153.1
20
-163.1
40
0.075
50
90
51
270
0
LINE
8
BLACK
10
117.175
20
-136.1
11
117.175
21
-135.9
0
LINE
8
BLACK
10
117.025
20
-136.1
11
117.025
21
-135.9
0
ARC
8
BLACK
10
117.1
20
-135.9
40
0.075
50
360
51
540
0
ARC
8
BLACK
10
117.1
20
-136.1
40
0.075
50
180
51
360
0
LINE
8
BLACK
10
117.1
20
-135.975
11
117.5
21
-135.975
0
LINE
8
BLACK
10
117.1
20
-135.825
11
117.5
21
-135.825
0
ARC
8
BLACK
10
117.5
20
-135.9
40
0.075
50
270
51
450
0
ARC
8
BLACK
10
117.1
20
-135.9
40
0.075
50
90
51
270
0
LINE
8
BLACK
10
117.575
20
-136.1
11
117.575
21
-135.9
0
LINE
8
BLACK
10
117.425
20
-136.1
11
117.425
21
-135.9
0
ARC
8
BLACK
10
117.5
20
-135.9
40
0.075
50
360
51
540
0
ARC
8
BLACK
10
117.5
20
-136.1
40
0.075
50
180
51
360
0
LINE
8
BLACK
10
117.1
20
-136.175
11
117.5
21
-136.175
0
LINE
8
BLACK
10
117.1
20
-136.025
11
117.5
21
-136.025
0
ARC
8
BLACK
10
117.5
20
-136.1
40
0.075
50
270
51
450
0
ARC
8
BLACK
10
117.1
20
-136.1
40
0.075
50
90
51
270
0
LINE
8
BLACK
10
117.175
20
-145.1
11
117.175
21
-144.9
0
LINE
8
BLACK
10
117.025
20
-145.1
11
117.025
21
-144.9
0
ARC
8
BLACK
10
117.1
20
-144.9
40
0.075
50
360
51
540
0
ARC
8
BLACK
10
117.1
20
-145.1
40
0.075
50
180
51
360
0
LINE
8
BLACK
10
117.1
20
-144.975
11
117.5
21
-144.975
0
LINE
8
BLACK
10
117.1
20
-144.825
11
117.5
21
-144.825
0
ARC
8
BLACK
10
117.5
20
-144.9
40
0.075
50
270
51
450
0
ARC
8
BLACK
10
117.1
20
-144.9
40
0.075
50
90
51
270
0
LINE
8
BLACK
10
117.575
20
-145.1
11
117.575
21
-144.9
0
LINE
8
BLACK
10
117.425
20
-145.1
11
117.425
21
-144.9
0
ARC
8
BLACK
10
117.5
20
-144.9
40
0.075
50
360
51
540
0
ARC
8
BLACK
10
117.5
20
-145.1
40
0.075
50
180
51
360
0
LINE
8
BLACK
10
117.1
20
-145.175
11
117.5
21
-145.175
0
LINE
8
BLACK
10
117.1
20
-145.025
11
117.5
21
-145.025
0
ARC
8
BLACK
10
117.5
20
-145.1
40
0.075
50
270
51
450
0
ARC
8
BLACK
10
117.1
20
-145.1
40
0.075
50
90
51
270
0
LINE
8
BLACK
10
117.175
20
-154.1
11
117.175
21
-153.9
0
LINE
8
BLACK
10
117.025
20
-154.1
11
117.025
21
-153.9
0
ARC
8
BLACK
10
117.1
20
-153.9
40
0.075
50
360
51
540
0
ARC
8
BLACK
10
117.1
20
-154.1
40
0.075
50
180
51
360
0
LINE
8
BLACK
10
117.1
20
-153.975
11
117.5
21
-153.975
0
LINE
8
BLACK
10
117.1
20
-153.825
11
117.5
21
-153.825
0
ARC
8
BLACK
10
117.5
20
-153.9
40
0.075
50
270
51
450
0
ARC
8
BLACK
10
117.1
20
-153.9
40
0.075
50
90
51
270
0
LINE
8
BLACK
10
117.575
20
-154.1
11
117.575
21
-153.9
0
LINE
8
BLACK
10
117.425
20
-154.1
11
117.425
21
-153.9
0
ARC
8
BLACK
10
117.5
20
-153.9
40
0.075
50
360
51
540
0
ARC
8
BLACK
10
117.5
20
-154.1
40
0.075
50
180
51
360
0
LINE
8
BLACK
10
117.1
20
-154.175
11
117.5
21
-154.175
0
LINE
8
BLACK
10
117.1
20
-154.025
11
117.5
21
-154.025
0
ARC
8
BLACK
10
117.5
20
-154.1
40
0.075
50
270
51
450
0
ARC
8
BLACK
10
117.1
20
-154.1
40
0.075
50
90
51
270
0
LINE
8
BLACK
10
117.175
20
-163.1
11
117.175
21
-162.9
0
LINE
8
BLACK
10
117.025
20
-163.1
11
117.025
21
-162.9
0
ARC
8
BLACK
10
117.1
20
-162.9
40
0.075
50
360
51
540
0
ARC
8
BLACK
10
117.1
20
-163.1
40
0.075
50
180
51
360
0
LINE
8
BLACK
10
117.1
20
-162.975
11
117.5
21
-162.975
0
LINE
8
BLACK
10
117.1
20
-162.825
11
117.5
21
-162.825
0
ARC
8
BLACK
10
117.5
20
-162.9
40
0.075
50
270
51
450
0
ARC
8
BLACK
10
117.1
20
-162.9
40
0.075
50
90
51
270
0
LINE
8
BLACK
10
117.575
20
-163.1
11
117.575
21
-162.9
0
LINE
8
BLACK
10
117.425
20
-163.1
11
117.425
21
-162.9
0
ARC
8
BLACK
10
117.5
20
-162.9
40
0.075
50
360
51
540
0
ARC
8
BLACK
10
117.5
20
-163.1
40
0.075
50
180
51
360
0
LINE
8
BLACK
10
117.1
20
-163.175
11
117.5
21
-163.175
0
LINE
8
BLACK
10
117.1
20
-163.025
11
117.5
21
-163.025
0
ARC
8
BLACK
10
117.5
20
-163.1
40
0.075
50
270
51
450
0
ARC
8
BLACK
10
117.1
20
-163.1
40
0.075
50
90
51
270
0
LINE
8
BLACK
10
108.175
20
-136.1
11
108.175
21
-135.9
0
LINE
8
BLACK
10
108.025
20
-136.1
11
108.025
21
-135.9
0
ARC
8
BLACK
10
108.1
20
-135.9
40
0.075
50
360
51
540
0
ARC
8
BLACK
10
108.1
20
-136.1
40
0.075
50
180
51
360
0
LINE
8
BLACK
10
108.1
20
-135.975
11
108.5
21
-135.975
0
LINE
8
BLACK
10
108.1
20
-135.825
11
108.5
21
-135.825
0
ARC
8
BLACK
10
108.5
20
-135.9
40
0.075
50
270
51
450
0
ARC
8
BLACK
10
108.1
20
-135.9
40
0.075
50
90
51
270
0
LINE
8
BLACK
10
108.575
20
-136.1
11
108.575
21
-135.9
0
LINE
8
BLACK
10
108.425
20
-136.1
11
108.425
21
-135.9
0
ARC
8
BLACK
10
108.5
20
-135.9
40
0.075
50
360
51
540
0
ARC
8
BLACK
10
108.5
20
-136.1
40
0.075
50
180
51
360
0
LINE
8
BLACK
10
108.1
20
-136.175
11
108.5
21
-136.175
0
LINE
8
BLACK
10
108.1
20
-136.025
11
108.5
21
-136.025
0
ARC
8
BLACK
10
108.5
20
-136.1
40
0.075
50
270
51
450
0
ARC
8
BLACK
10
108.1
20
-136.1
40
0.075
50
90
51
270
0
LINE
8
BLACK
10
108.175
20
-145.1
11
108.175
21
-144.9
0
LINE
8
BLACK
10
108.025
20
-145.1
11
108.025
21
-144.9
0
ARC
8
BLACK
10
108.1
20
-144.9
40
0.075
50
360
51
540
0
ARC
8
BLACK
10
108.1
20
-145.1
40
0.075
50
180
51
360
0
LINE
8
BLACK
10
108.1
20
-144.975
11
108.5
21
-144.975
0
LINE
8
BLACK
10
108.1
20
-144.825
11
108.5
21
-144.825
0
ARC
8
BLACK
10
108.5
20
-144.9
40
0.075
50
270
51
450
0
ARC
8
BLACK
10
108.1
20
-144.9
40
0.075
50
90
51
270
0
LINE
8
BLACK
10
108.575
20
-145.1
11
108.575
21
-144.9
0
LINE
8
BLACK
10
108.425
20
-145.1
11
108.425
21
-144.9
0
ARC
8
BLACK
10
108.5
20
-144.9
40
0.075
50
360
51
540
0
ARC
8
BLACK
10
108.5
20
-145.1
40
0.075
50
180
51
360
0
LINE
8
BLACK
10
108.1
20
-145.175
11
108.5
21
-145.175
0
LINE
8
BLACK
10
108.1
20
-145.025
11
108.5
21
-145.025
0
ARC
8
BLACK
10
108.5
20
-145.1
40
0.075
50
270
51
450
0
ARC
8
BLACK
10
108.1
20
-145.1
40
0.075
50
90
51
270
0
LINE
8
BLACK
10
108.175
20
-154.1
11
108.175
21
-153.9
0
LINE
8
BLACK
10
108.025
20
-154.1
11
108.025
21
-153.9
0
ARC
8
BLACK
10
108.1
20
-153.9
40
0.075
50
360
51
540
0
ARC
8
BLACK
10
108.1
20
-154.1
40
0.075
50
180
51
360
0
LINE
8
BLACK
10
108.1
20
-153.975
11
108.5
21
-153.975
0
LINE
8
BLACK
10
108.1
20
-153.825
11
108.5
21
-153.825
0
ARC
8
BLACK
10
108.5
20
-153.9
40
0.075
50
270
51
450
0
ARC
8
BLACK
10
108.1
20
-153.9
40
0.075
50
90
51
270
0
LINE
8
BLACK
10
108.575
20
-154.1
11
108.575
21
-153.9
0
LINE
8
BLACK
10
108.425
20
-154.1
11
108.425
21
-153.9
0
ARC
8
BLACK
10
108.5
20
-153.9
40
0.075
50
360
51
540
0
ARC
8
BLACK
10
108.5
20
-154.1
40
0.075
50
180
51
360
0
LINE
8
BLACK
10
108.1
20
-154.175
11
108.5
21
-154.175
0
LINE
8
BLACK
10
108.1
20
-154.025
11
108.5
21
-154.025
0
ARC
8
BLACK
10
108.5
20
-154.1
40
0.075
50
270
51
450
0
ARC
8
BLACK
10
108.1
20
-154.1
40
0.075
50
90
51
270
0
LINE
8
BLACK
10
108.175
20
-163.1
11
108.175
21
-162.9
0
LINE
8
BLACK
10
108.025
20
-163.1
11
108.025
21
-162.9
0
ARC
8
BLACK
10
108.1
20
-162.9
40
0.075
50
360
51
540
0
ARC
8
BLACK
10
108.1
20
-163.1
40
0.075
50
180
51
360
0
LINE
8
BLACK
10
108.1
20
-162.975
11
108.5
21
-162.975
0
LINE
8
BLACK
10
108.1
20
-162.825
11
108.5
21
-162.825
0
ARC
8
BLACK
10
108.5
20
-162.9
40
0.075
50
270
51
450
0
ARC
8
BLACK
10
108.1
20
-162.9
40
0.075
50
90
51
270
0
LINE
8
BLACK
10
108.575
20
-163.1
11
108.575
21
-162.9
0
LINE
8
BLACK
10
108.425
20
-163.1
11
108.425
21
-162.9
0
ARC
8
BLACK
10
108.5
20
-162.9
40
0.075
50
360
51
540
0
ARC
8
BLACK
10
108.5
20
-163.1
40
0.075
50
180
51
360
0
LINE
8
BLACK
10
108.1
20
-163.175
11
108.5
21
-163.175
0
LINE
8
BLACK
10
108.1
20
-163.025
11
108.5
21
-163.025
0
ARC
8
BLACK
10
108.5
20
-163.1
40
0.075
50
270
51
450
0
ARC
8
BLACK
10
108.1
20
-163.1
40
0.075
50
90
51
270
0
LINE
8
BLACK
10
99.175
20
-136.1
11
99.175
21
-135.9
0
LINE
8
BLACK
10
99.025
20
-136.1
11
99.025
21
-135.9
0
ARC
8
BLACK
10
99.1
20
-135.9
40
0.075
50
360
51
540
0
ARC
8
BLACK
10
99.1
20
-136.1
40
0.075
50
180
51
360
0
LINE
8
BLACK
10
99.1
20
-135.975
11
99.5
21
-135.975
0
LINE
8
BLACK
10
99.1
20
-135.825
11
99.5
21
-135.825
0
ARC
8
BLACK
10
99.5
20
-135.9
40
0.075
50
270
51
450
0
ARC
8
BLACK
10
99.1
20
-135.9
40
0.075
50
90
51
270
0
LINE
8
BLACK
10
99.575
20
-136.1
11
99.575
21
-135.9
0
LINE
8
BLACK
10
99.425
20
-136.1
11
99.425
21
-135.9
0
ARC
8
BLACK
10
99.5
20
-135.9
40
0.075
50
360
51
540
0
ARC
8
BLACK
10
99.5
20
-136.1
40
0.075
50
180
51
360
0
LINE
8
BLACK
10
99.1
20
-136.175
11
99.5
21
-136.175
0
LINE
8
BLACK
10
99.1
20
-136.025
11
99.5
21
-136.025
0
ARC
8
BLACK
10
99.5
20
-136.1
40
0.075
50
270
51
450
0
ARC
8
BLACK
10
99.1
20
-136.1
40
0.075
50
90
51
270
0
LINE
8
BLACK
10
99.175
20
-145.1
11
99.175
21
-144.9
0
LINE
8
BLACK
10
99.025
20
-145.1
11
99.025
21
-144.9
0
ARC
8
BLACK
10
99.1
20
-144.9
40
0.075
50
360
51
540
0
ARC
8
BLACK
10
99.1
20
-145.1
40
0.075
50
180
51
360
0
LINE
8
BLACK
10
99.1
20
-144.975
11
99.5
21
-144.975
0
LINE
8
BLACK
10
99.1
20
-144.825
11
99.5
21
-144.825
0
ARC
8
BLACK
10
99.5
20
-144.9
40
0.075
50
270
51
450
0
ARC
8
BLACK
10
99.1
20
-144.9
40
0.075
50
90
51
270
0
LINE
8
BLACK
10
99.575
20
-145.1
11
99.575
21
-144.9
0
LINE
8
BLACK
10
99.425
20
-145.1
11
99.425
21
-144.9
0
ARC
8
BLACK
10
99.5
20
-144.9
40
0.075
50
360
51
540
0
ARC
8
BLACK
10
99.5
20
-145.1
40
0.075
50
180
51
360
0
LINE
8
BLACK
10
99.1
20
-145.175
11
99.5
21
-145.175
0
LINE
8
BLACK
10
99.1
20
-145.025
11
99.5
21
-145.025
0
ARC
8
BLACK
10
99.5
20
-145.1
40
0.075
50
270
51
450
0
ARC
8
BLACK
10
99.1
20
-145.1
40
0.075
50
90
51
270
0
LINE
8
BLACK
10
162.175
20
-163.1
11
162.175
21
-162.9
0
LINE
8
BLACK
10
162.025
20
-163.1
11
162.025
21
-162.9
0
ARC
8
BLACK
10
162.1
20
-162.9
40
0.075
50
360
51
540
0
ARC
8
BLACK
10
162.1
20
-163.1
40
0.075
50
180
51
360
0
LINE
8
BLACK
10
162.1
20
-162.975
11
162.5
21
-162.975
0
LINE
8
BLACK
10
162.1
20
-162.825
11
162.5
21
-162.825
0
ARC
8
BLACK
10
162.5
20
-162.9
40
0.075
50
270
51
450
0
ARC
8
BLACK
10
162.1
20
-162.9
40
0.075
50
90
51
270
0
LINE
8
BLACK
10
162.575
20
-163.1
11
162.575
21
-162.9
0
LINE
8
BLACK
10
162.425
20
-163.1
11
162.425
21
-162.9
0
ARC
8
BLACK
10
162.5
20
-162.9
40
0.075
50
360
51
540
0
ARC
8
BLACK
10
162.5
20
-163.1
40
0.075
50
180
51
360
0
LINE
8
BLACK
10
162.1
20
-163.175
11
162.5
21
-163.175
0
LINE
8
BLACK
10
162.1
20
-163.025
11
162.5
21
-163.025
0
ARC
8
BLACK
10
162.5
20
-163.1
40
0.075
50
270
51
450
0
ARC
8
BLACK
10
162.1
20
-163.1
40
0.075
50
90
51
270
0
LINE
8
BLACK
10
198.175
20
-136.1
11
198.175
21
-135.9
0
LINE
8
BLACK
10
198.025
20
-136.1
11
198.025
21
-135.9
0
ARC
8
BLACK
10
198.1
20
-135.9
40
0.075
50
360
51
540
0
ARC
8
BLACK
10
198.1
20
-136.1
40
0.075
50
180
51
360
0
LINE
8
BLACK
10
198.1
20
-135.975
11
198.5
21
-135.975
0
LINE
8
BLACK
10
198.1
20
-135.825
11
198.5
21
-135.825
0
ARC
8
BLACK
10
198.5
20
-135.9
40
0.075
50
270
51
450
0
ARC
8
BLACK
10
198.1
20
-135.9
40
0.075
50
90
51
270
0
LINE
8
BLACK
10
198.575
20
-136.1
11
198.575
21
-135.9
0
LINE
8
BLACK
10
198.425
20
-136.1
11
198.425
21
-135.9
0
ARC
8
BLACK
10
198.5
20
-135.9
40
0.075
50
360
51
540
0
ARC
8
BLACK
10
198.5
20
-136.1
40
0.075
50
180
51
360
0
LINE
8
BLACK
10
198.1
20
-136.175
11
198.5
21
-136.175
0
LINE
8
BLACK
10
198.1
20
-136.025
11
198.5
21
-136.025
0
ARC
8
BLACK
10
198.5
20
-136.1
40
0.075
50
270
51
450
0
ARC
8
BLACK
10
198.1
20
-136.1
40
0.075
50
90
51
270
0
LINE
8
BLACK
10
198.175
20
-145.1
11
198.175
21
-144.9
0
LINE
8
BLACK
10
198.025
20
-145.1
11
198.025
21
-144.9
0
ARC
8
BLACK
10
198.1
20
-144.9
40
0.075
50
360
51
540
0
ARC
8
BLACK
10
198.1
20
-145.1
40
0.075
50
180
51
360
0
LINE
8
BLACK
10
198.1
20
-144.975
11
198.5
21
-144.975
0
LINE
8
BLACK
10
198.1
20
-144.825
11
198.5
21
-144.825
0
ARC
8
BLACK
10
198.5
20
-144.9
40
0.075
50
270
51
450
0
ARC
8
BLACK
10
198.1
20
-144.9
40
0.075
50
90
51
270
0
LINE
8
BLACK
10
198.575
20
-145.1
11
198.575
21
-144.9
0
LINE
8
BLACK
10
198.425
20
-145.1
11
198.425
21
-144.9
0
ARC
8
BLACK
10
198.5
20
-144.9
40
0.075
50
360
51
540
0
ARC
8
BLACK
10
198.5
20
-145.1
40
0.075
50
180
51
360
0
LINE
8
BLACK
10
198.1
20
-145.175
11
198.5
21
-145.175
0
LINE
8
BLACK
10
198.1
20
-145.025
11
198.5
21
-145.025
0
ARC
8
BLACK
10
198.5
20
-145.1
40
0.075
50
270
51
450
0
ARC
8
BLACK
10
198.1
20
-145.1
40
0.075
50
90
51
270
0
LINE
8
BLACK
10
198.175
20
-154.1
11
198.175
21
-153.9
0
LINE
8
BLACK
10
198.025
20
-154.1
11
198.025
21
-153.9
0
ARC
8
BLACK
10
198.1
20
-153.9
40
0.075
50
360
51
540
0
ARC
8
BLACK
10
198.1
20
-154.1
40
0.075
50
180
51
360
0
LINE
8
BLACK
10
198.1
20
-153.975
11
198.5
21
-153.975
0
LINE
8
BLACK
10
198.1
20
-153.825
11
198.5
21
-153.825
0
ARC
8
BLACK
10
198.5
20
-153.9
40
0.075
50
270
51
450
0
ARC
8
BLACK
10
198.1
20
-153.9
40
0.075
50
90
51
270
0
LINE
8
BLACK
10
198.575
20
-154.1
11
198.575
21
-153.9
0
LINE
8
BLACK
10
198.425
20
-154.1
11
198.425
21
-153.9
0
ARC
8
BLACK
10
198.5
20
-153.9
40
0.075
50
360
51
540
0
ARC
8
BLACK
10
198.5
20
-154.1
40
0.075
50
180
51
360
0
LINE
8
BLACK
10
198.1
20
-154.175
11
198.5
21
-154.175
0
LINE
8
BLACK
10
198.1
20
-154.025
11
198.5
21
-154.025
0
ARC
8
BLACK
10
198.5
20
-154.1
40
0.075
50
270
51
450
0
ARC
8
BLACK
10
198.1
20
-154.1
40
0.075
50
90
51
270
0
LINE
8
BLACK
10
198.175
20
-163.1
11
198.175
21
-162.9
0
LINE
8
BLACK
10
198.025
20
-163.1
11
198.025
21
-162.9
0
ARC
8
BLACK
10
198.1
20
-162.9
40
0.075
50
360
51
540
0
ARC
8
BLACK
10
198.1
20
-163.1
40
0.075
50
180
51
360
0
LINE
8
BLACK
10
198.1
20
-162.975
11
198.5
21
-162.975
0
LINE
8
BLACK
10
198.1
20
-162.825
11
198.5
21
-162.825
0
ARC
8
BLACK
10
198.5
20
-162.9
40
0.075
50
270
51
450
0
ARC
8
BLACK
10
198.1
20
-162.9
40
0.075
50
90
51
270
0
LINE
8
BLACK
10
198.575
20
-163.1
11
198.575
21
-162.9
0
LINE
8
BLACK
10
198.425
20
-163.1
11
198.425
21
-162.9
0
ARC
8
BLACK
10
198.5
20
-162.9
40
0.075
50
360
51
540
0
ARC
8
BLACK
10
198.5
20
-163.1
40
0.075
50
180
51
360
0
LINE
8
BLACK
10
198.1
20
-163.175
11
198.5
21
-163.175
0
LINE
8
BLACK
10
198.1
20
-163.025
11
198.5
21
-163.025
0
ARC
8
BLACK
10
198.5
20
-163.1
40
0.075
50
270
51
450
0
ARC
8
BLACK
10
198.1
20
-163.1
40
0.075
50
90
51
270
0
LINE
8
BLACK
10
180.175
20
-136.1
11
180.175
21
-135.9
0
LINE
8
BLACK
10
180.025
20
-136.1
11
180.025
21
-135.9
0
ARC
8
BLACK
10
180.1
20
-135.9
40
0.075
50
360
51
540
0
ARC
8
BLACK
10
180.1
20
-136.1
40
0.075
50
180
51
360
0
LINE
8
BLACK
10
180.1
20
-135.975
11
180.5
21
-135.975
0
LINE
8
BLACK
10
180.1
20
-135.825
11
180.5
21
-135.825
0
ARC
8
BLACK
10
180.5
20
-135.9
40
0.075
50
270
51
450
0
ARC
8
BLACK
10
180.1
20
-135.9
40
0.075
50
90
51
270
0
LINE
8
BLACK
10
180.575
20
-136.1
11
180.575
21
-135.9
0
LINE
8
BLACK
10
180.425
20
-136.1
11
180.425
21
-135.9
0
ARC
8
BLACK
10
180.5
20
-135.9
40
0.075
50
360
51
540
0
ARC
8
BLACK
10
180.5
20
-136.1
40
0.075
50
180
51
360
0
LINE
8
BLACK
10
180.1
20
-136.175
11
180.5
21
-136.175
0
LINE
8
BLACK
10
180.1
20
-136.025
11
180.5
21
-136.025
0
ARC
8
BLACK
10
180.5
20
-136.1
40
0.075
50
270
51
450
0
ARC
8
BLACK
10
180.1
20
-136.1
40
0.075
50
90
51
270
0
LINE
8
BLACK
10
180.175
20
-145.1
11
180.175
21
-144.9
0
LINE
8
BLACK
10
180.025
20
-145.1
11
180.025
21
-144.9
0
ARC
8
BLACK
10
180.1
20
-144.9
40
0.075
50
360
51
540
0
ARC
8
BLACK
10
180.1
20
-145.1
40
0.075
50
180
51
360
0
LINE
8
BLACK
10
180.1
20
-144.975
11
180.5
21
-144.975
0
LINE
8
BLACK
10
180.1
20
-144.825
11
180.5
21
-144.825
0
ARC
8
BLACK
10
180.5
20
-144.9
40
0.075
50
270
51
450
0
ARC
8
BLACK
10
180.1
20
-144.9
40
0.075
50
90
51
270
0
LINE
8
BLACK
10
180.575
20
-145.1
11
180.575
21
-144.9
0
LINE
8
BLACK
10
180.425
20
-145.1
11
180.425
21
-144.9
0
ARC
8
BLACK
10
180.5
20
-144.9
40
0.075
50
360
51
540
0
ARC
8
BLACK
10
180.5
20
-145.1
40
0.075
50
180
51
360
0
LINE
8
BLACK
10
180.1
20
-145.175
11
180.5
21
-145.175
0
LINE
8
BLACK
10
180.1
20
-145.025
11
180.5
21
-145.025
0
ARC
8
BLACK
10
180.5
20
-145.1
40
0.075
50
270
51
450
0
ARC
8
BLACK
10
180.1
20
-145.1
40
0.075
50
90
51
270
0
LINE
8
BLACK
10
180.175
20
-154.1
11
180.175
21
-153.9
0
LINE
8
BLACK
10
180.025
20
-154.1
11
180.025
21
-153.9
0
ARC
8
BLACK
10
180.1
20
-153.9
40
0.075
50
360
51
540
0
ARC
8
BLACK
10
180.1
20
-154.1
40
0.075
50
180
51
360
0
LINE
8
BLACK
10
180.1
20
-153.975
11
180.5
21
-153.975
0
LINE
8
BLACK
10
180.1
20
-153.825
11
180.5
21
-153.825
0
ARC
8
BLACK
10
180.5
20
-153.9
40
0.075
50
270
51
450
0
ARC
8
BLACK
10
180.1
20
-153.9
40
0.075
50
90
51
270
0
LINE
8
BLACK
10
180.575
20
-154.1
11
180.575
21
-153.9
0
LINE
8
BLACK
10
180.425
20
-154.1
11
180.425
21
-153.9
0
ARC
8
BLACK
10
180.5
20
-153.9
40
0.075
50
360
51
540
0
ARC
8
BLACK
10
180.5
20
-154.1
40
0.075
50
180
51
360
0
LINE
8
BLACK
10
180.1
20
-154.175
11
180.5
21
-154.175
0
LINE
8
BLACK
10
180.1
20
-154.025
11
180.5
21
-154.025
0
ARC
8
BLACK
10
180.5
20
-154.1
40
0.075
50
270
51
450
0
ARC
8
BLACK
10
180.1
20
-154.1
40
0.075
50
90
51
270
0
LINE
8
BLACK
10
180.175
20
-163.1
11
180.175
21
-162.9
0
LINE
8
BLACK
10
180.025
20
-163.1
11
180.025
21
-162.9
0
ARC
8
BLACK
10
180.1
20
-162.9
40
0.075
50
360
51
540
0
ARC
8
BLACK
10
180.1
20
-163.1
40
0.075
50
180
51
360
0
LINE
8
BLACK
10
180.1
20
-162.975
11
180.5
21
-162.975
0
LINE
8
BLACK
10
180.1
20
-162.825
11
180.5
21
-162.825
0
ARC
8
BLACK
10
180.5
20
-162.9
40
0.075
50
270
51
450
0
ARC
8
BLACK
10
180.1
20
-162.9
40
0.075
50
90
51
270
0
LINE
8
BLACK
10
180.575
20
-163.1
11
180.575
21
-162.9
0
LINE
8
BLACK
10
180.425
20
-163.1
11
180.425
21
-162.9
0
ARC
8
BLACK
10
180.5
20
-162.9
40
0.075
50
360
51
540
0
ARC
8
BLACK
10
180.5
20
-163.1
40
0.075
50
180
51
360
0
LINE
8
BLACK
10
180.1
20
-163.175
11
180.5
21
-163.175
0
LINE
8
BLACK
10
180.1
20
-163.025
11
180.5
21
-163.025
0
ARC
8
BLACK
10
180.5
20
-163.1
40
0.075
50
270
51
450
0
ARC
8
BLACK
10
180.1
20
-163.1
40
0.075
50
90
51
270
0
LINE
8
BLACK
10
162.175
20
-136.1
11
162.175
21
-135.9
0
LINE
8
BLACK
10
162.025
20
-136.1
11
162.025
21
-135.9
0
ARC
8
BLACK
10
162.1
20
-135.9
40
0.075
50
360
51
540
0
ARC
8
BLACK
10
162.1
20
-136.1
40
0.075
50
180
51
360
0
LINE
8
BLACK
10
162.1
20
-135.975
11
162.5
21
-135.975
0
LINE
8
BLACK
10
162.1
20
-135.825
11
162.5
21
-135.825
0
ARC
8
BLACK
10
162.5
20
-135.9
40
0.075
50
270
51
450
0
ARC
8
BLACK
10
162.1
20
-135.9
40
0.075
50
90
51
270
0
LINE
8
BLACK
10
162.575
20
-136.1
11
162.575
21
-135.9
0
LINE
8
BLACK
10
162.425
20
-136.1
11
162.425
21
-135.9
0
ARC
8
BLACK
10
162.5
20
-135.9
40
0.075
50
360
51
540
0
ARC
8
BLACK
10
162.5
20
-136.1
40
0.075
50
180
51
360
0
LINE
8
BLACK
10
162.1
20
-136.175
11
162.5
21
-136.175
0
LINE
8
BLACK
10
162.1
20
-136.025
11
162.5
21
-136.025
0
ARC
8
BLACK
10
162.5
20
-136.1
40
0.075
50
270
51
450
0
ARC
8
BLACK
10
162.1
20
-136.1
40
0.075
50
90
51
270
0
LINE
8
BLACK
10
162.175
20
-145.1
11
162.175
21
-144.9
0
LINE
8
BLACK
10
162.025
20
-145.1
11
162.025
21
-144.9
0
ARC
8
BLACK
10
162.1
20
-144.9
40
0.075
50
360
51
540
0
ARC
8
BLACK
10
162.1
20
-145.1
40
0.075
50
180
51
360
0
LINE
8
BLACK
10
162.1
20
-144.975
11
162.5
21
-144.975
0
LINE
8
BLACK
10
162.1
20
-144.825
11
162.5
21
-144.825
0
ARC
8
BLACK
10
162.5
20
-144.9
40
0.075
50
270
51
450
0
ARC
8
BLACK
10
162.1
20
-144.9
40
0.075
50
90
51
270
0
LINE
8
BLACK
10
162.575
20
-145.1
11
162.575
21
-144.9
0
LINE
8
BLACK
10
162.425
20
-145.1
11
162.425
21
-144.9
0
ARC
8
BLACK
10
162.5
20
-144.9
40
0.075
50
360
51
540
0
ARC
8
BLACK
10
162.5
20
-145.1
40
0.075
50
180
51
360
0
LINE
8
BLACK
10
162.1
20
-145.175
11
162.5
21
-145.175
0
LINE
8
BLACK
10
162.1
20
-145.025
11
162.5
21
-145.025
0
ARC
8
BLACK
10
162.5
20
-145.1
40
0.075
50
270
51
450
0
ARC
8
BLACK
10
162.1
20
-145.1
40
0.075
50
90
51
270
0
LINE
8
BLACK
10
162.175
20
-154.1
11
162.175
21
-153.9
0
LINE
8
BLACK
10
162.025
20
-154.1
11
162.025
21
-153.9
0
ARC
8
BLACK
10
162.1
20
-153.9
40
0.075
50
360
51
540
0
ARC
8
BLACK
10
162.1
20
-154.1
40
0.075
50
180
51
360
0
LINE
8
BLACK
10
162.1
20
-153.975
11
162.5
21
-153.975
0
LINE
8
BLACK
10
162.1
20
-153.825
11
162.5
21
-153.825
0
ARC
8
BLACK
10
162.5
20
-153.9
40
0.075
50
270
51
450
0
ARC
8
BLACK
10
162.1
20
-153.9
40
0.075
50
90
51
270
0
LINE
8
BLACK
10
162.575
20
-154.1
11
162.575
21
-153.9
0
LINE
8
BLACK
10
162.425
20
-154.1
11
162.425
21
-153.9
0
ARC
8
BLACK
10
162.5
20
-153.9
40
0.075
50
360
51
540
0
ARC
8
BLACK
10
162.5
20
-154.1
40
0.075
50
180
51
360
0
LINE
8
BLACK
10
162.1
20
-154.175
11
162.5
21
-154.175
0
LINE
8
BLACK
10
162.1
20
-154.025
11
162.5
21
-154.025
0
ARC
8
BLACK
10
162.5
20
-154.1
40
0.075
50
270
51
450
0
ARC
8
BLACK
10
162.1
20
-154.1
40
0.075
50
90
51
270
0
LINE
8
BLACK
10
99.175
20
-154.1
11
99.175
21
-153.9
0
LINE
8
BLACK
10
99.025
20
-154.1
11
99.025
21
-153.9
0
ARC
8
BLACK
10
99.1
20
-153.9
40
0.075
50
360
51
540
0
ARC
8
BLACK
10
99.1
20
-154.1
40
0.075
50
180
51
360
0
LINE
8
BLACK
10
99.1
20
-153.975
11
99.5
21
-153.975
0
LINE
8
BLACK
10
99.1
20
-153.825
11
99.5
21
-153.825
0
ARC
8
BLACK
10
99.5
20
-153.9
40
0.075
50
270
51
450
0
ARC
8
BLACK
10
99.1
20
-153.9
40
0.075
50
90
51
270
0
LINE
8
BLACK
10
99.575
20
-154.1
11
99.575
21
-153.9
0
LINE
8
BLACK
10
99.425
20
-154.1
11
99.425
21
-153.9
0
ARC
8
BLACK
10
99.5
20
-153.9
40
0.075
50
360
51
540
0
ARC
8
BLACK
10
99.5
20
-154.1
40
0.075
50
180
51
360
0
LINE
8
BLACK
10
99.1
20
-154.175
11
99.5
21
-154.175
0
LINE
8
BLACK
10
99.1
20
-154.025
11
99.5
21
-154.025
0
ARC
8
BLACK
10
99.5
20
-154.1
40
0.075
50
270
51
450
0
ARC
8
BLACK
10
99.1
20
-154.1
40
0.075
50
90
51
270
0
LINE
8
BLACK
10
189.175
20
-136.1
11
189.175
21
-135.9
0
LINE
8
BLACK
10
189.025
20
-136.1
11
189.025
21
-135.9
0
ARC
8
BLACK
10
189.1
20
-135.9
40
0.075
50
360
51
540
0
ARC
8
BLACK
10
189.1
20
-136.1
40
0.075
50
180
51
360
0
LINE
8
BLACK
10
189.1
20
-135.975
11
189.5
21
-135.975
0
LINE
8
BLACK
10
189.1
20
-135.825
11
189.5
21
-135.825
0
ARC
8
BLACK
10
189.5
20
-135.9
40
0.075
50
270
51
450
0
ARC
8
BLACK
10
189.1
20
-135.9
40
0.075
50
90
51
270
0
LINE
8
BLACK
10
189.575
20
-136.1
11
189.575
21
-135.9
0
LINE
8
BLACK
10
189.425
20
-136.1
11
189.425
21
-135.9
0
ARC
8
BLACK
10
189.5
20
-135.9
40
0.075
50
360
51
540
0
ARC
8
BLACK
10
189.5
20
-136.1
40
0.075
50
180
51
360
0
LINE
8
BLACK
10
189.1
20
-136.175
11
189.5
21
-136.175
0
LINE
8
BLACK
10
189.1
20
-136.025
11
189.5
21
-136.025
0
ARC
8
BLACK
10
189.5
20
-136.1
40
0.075
50
270
51
450
0
ARC
8
BLACK
10
189.1
20
-136.1
40
0.075
50
90
51
270
0
LINE
8
BLACK
10
189.175
20
-145.1
11
189.175
21
-144.9
0
LINE
8
BLACK
10
189.025
20
-145.1
11
189.025
21
-144.9
0
ARC
8
BLACK
10
189.1
20
-144.9
40
0.075
50
360
51
540
0
ARC
8
BLACK
10
189.1
20
-145.1
40
0.075
50
180
51
360
0
LINE
8
BLACK
10
189.1
20
-144.975
11
189.5
21
-144.975
0
LINE
8
BLACK
10
189.1
20
-144.825
11
189.5
21
-144.825
0
ARC
8
BLACK
10
189.5
20
-144.9
40
0.075
50
270
51
450
0
ARC
8
BLACK
10
189.1
20
-144.9
40
0.075
50
90
51
270
0
LINE
8
BLACK
10
189.575
20
-145.1
11
189.575
21
-144.9
0
LINE
8
BLACK
10
189.425
20
-145.1
11
189.425
21
-144.9
0
ARC
8
BLACK
10
189.5
20
-144.9
40
0.075
50
360
51
540
0
ARC
8
BLACK
10
189.5
20
-145.1
40
0.075
50
180
51
360
0
LINE
8
BLACK
10
189.1
20
-145.175
11
189.5
21
-145.175
0
LINE
8
BLACK
10
189.1
20
-145.025
11
189.5
21
-145.025
0
ARC
8
BLACK
10
189.5
20
-145.1
40
0.075
50
270
51
450
0
ARC
8
BLACK
10
189.1
20
-145.1
40
0.075
50
90
51
270
0
LINE
8
BLACK
10
189.175
20
-154.1
11
189.175
21
-153.9
0
LINE
8
BLACK
10
189.025
20
-154.1
11
189.025
21
-153.9
0
ARC
8
BLACK
10
189.1
20
-153.9
40
0.075
50
360
51
540
0
ARC
8
BLACK
10
189.1
20
-154.1
40
0.075
50
180
51
360
0
LINE
8
BLACK
10
189.1
20
-153.975
11
189.5
21
-153.975
0
LINE
8
BLACK
10
189.1
20
-153.825
11
189.5
21
-153.825
0
ARC
8
BLACK
10
189.5
20
-153.9
40
0.075
50
270
51
450
0
ARC
8
BLACK
10
189.1
20
-153.9
40
0.075
50
90
51
270
0
LINE
8
BLACK
10
189.575
20
-154.1
11
189.575
21
-153.9
0
LINE
8
BLACK
10
189.425
20
-154.1
11
189.425
21
-153.9
0
ARC
8
BLACK
10
189.5
20
-153.9
40
0.075
50
360
51
540
0
ARC
8
BLACK
10
189.5
20
-154.1
40
0.075
50
180
51
360
0
LINE
8
BLACK
10
189.1
20
-154.175
11
189.5
21
-154.175
0
LINE
8
BLACK
10
189.1
20
-154.025
11
189.5
21
-154.025
0
ARC
8
BLACK
10
189.5
20
-154.1
40
0.075
50
270
51
450
0
ARC
8
BLACK
10
189.1
20
-154.1
40
0.075
50
90
51
270
0
LINE
8
BLACK
10
189.175
20
-163.1
11
189.175
21
-162.9
0
LINE
8
BLACK
10
189.025
20
-163.1
11
189.025
21
-162.9
0
ARC
8
BLACK
10
189.1
20
-162.9
40
0.075
50
360
51
540
0
ARC
8
BLACK
10
189.1
20
-163.1
40
0.075
50
180
51
360
0
LINE
8
BLACK
10
189.1
20
-162.975
11
189.5
21
-162.975
0
LINE
8
BLACK
10
189.1
20
-162.825
11
189.5
21
-162.825
0
ARC
8
BLACK
10
189.5
20
-162.9
40
0.075
50
270
51
450
0
ARC
8
BLACK
10
189.1
20
-162.9
40
0.075
50
90
51
270
0
LINE
8
BLACK
10
189.575
20
-163.1
11
189.575
21
-162.9
0
LINE
8
BLACK
10
189.425
20
-163.1
11
189.425
21
-162.9
0
ARC
8
BLACK
10
189.5
20
-162.9
40
0.075
50
360
51
540
0
ARC
8
BLACK
10
189.5
20
-163.1
40
0.075
50
180
51
360
0
LINE
8
BLACK
10
189.1
20
-163.175
11
189.5
21
-163.175
0
LINE
8
BLACK
10
189.1
20
-163.025
11
189.5
21
-163.025
0
ARC
8
BLACK
10
189.5
20
-163.1
40
0.075
50
270
51
450
0
ARC
8
BLACK
10
189.1
20
-163.1
40
0.075
50
90
51
270
0
LINE
8
BLACK
10
171.175
20
-136.1
11
171.175
21
-135.9
0
LINE
8
BLACK
10
171.025
20
-136.1
11
171.025
21
-135.9
0
ARC
8
BLACK
10
171.1
20
-135.9
40
0.075
50
360
51
540
0
ARC
8
BLACK
10
171.1
20
-136.1
40
0.075
50
180
51
360
0
LINE
8
BLACK
10
171.1
20
-135.975
11
171.5
21
-135.975
0
LINE
8
BLACK
10
171.1
20
-135.825
11
171.5
21
-135.825
0
ARC
8
BLACK
10
171.5
20
-135.9
40
0.075
50
270
51
450
0
ARC
8
BLACK
10
171.1
20
-135.9
40
0.075
50
90
51
270
0
LINE
8
BLACK
10
171.575
20
-136.1
11
171.575
21
-135.9
0
LINE
8
BLACK
10
171.425
20
-136.1
11
171.425
21
-135.9
0
ARC
8
BLACK
10
171.5
20
-135.9
40
0.075
50
360
51
540
0
ARC
8
BLACK
10
171.5
20
-136.1
40
0.075
50
180
51
360
0
LINE
8
BLACK
10
171.1
20
-136.175
11
171.5
21
-136.175
0
LINE
8
BLACK
10
171.1
20
-136.025
11
171.5
21
-136.025
0
ARC
8
BLACK
10
171.5
20
-136.1
40
0.075
50
270
51
450
0
ARC
8
BLACK
10
171.1
20
-136.1
40
0.075
50
90
51
270
0
LINE
8
BLACK
10
171.175
20
-145.1
11
171.175
21
-144.9
0
LINE
8
BLACK
10
171.025
20
-145.1
11
171.025
21
-144.9
0
ARC
8
BLACK
10
171.1
20
-144.9
40
0.075
50
360
51
540
0
ARC
8
BLACK
10
171.1
20
-145.1
40
0.075
50
180
51
360
0
LINE
8
BLACK
10
171.1
20
-144.975
11
171.5
21
-144.975
0
LINE
8
BLACK
10
171.1
20
-144.825
11
171.5
21
-144.825
0
ARC
8
BLACK
10
171.5
20
-144.9
40
0.075
50
270
51
450
0
ARC
8
BLACK
10
171.1
20
-144.9
40
0.075
50
90
51
270
0
LINE
8
BLACK
10
171.575
20
-145.1
11
171.575
21
-144.9
0
LINE
8
BLACK
10
171.425
20
-145.1
11
171.425
21
-144.9
0
ARC
8
BLACK
10
171.5
20
-144.9
40
0.075
50
360
51
540
0
ARC
8
BLACK
10
171.5
20
-145.1
40
0.075
50
180
51
360
0
LINE
8
BLACK
10
171.1
20
-145.175
11
171.5
21
-145.175
0
LINE
8
BLACK
10
171.1
20
-145.025
11
171.5
21
-145.025
0
ARC
8
BLACK
10
171.5
20
-145.1
40
0.075
50
270
51
450
0
ARC
8
BLACK
10
171.1
20
-145.1
40
0.075
50
90
51
270
0
LINE
8
BLACK
10
171.175
20
-154.1
11
171.175
21
-153.9
0
LINE
8
BLACK
10
171.025
20
-154.1
11
171.025
21
-153.9
0
ARC
8
BLACK
10
171.1
20
-153.9
40
0.075
50
360
51
540
0
ARC
8
BLACK
10
171.1
20
-154.1
40
0.075
50
180
51
360
0
LINE
8
BLACK
10
171.1
20
-153.975
11
171.5
21
-153.975
0
LINE
8
BLACK
10
171.1
20
-153.825
11
171.5
21
-153.825
0
ARC
8
BLACK
10
171.5
20
-153.9
40
0.075
50
270
51
450
0
ARC
8
BLACK
10
171.1
20
-153.9
40
0.075
50
90
51
270
0
LINE
8
BLACK
10
171.575
20
-154.1
11
171.575
21
-153.9
0
LINE
8
BLACK
10
171.425
20
-154.1
11
171.425
21
-153.9
0
ARC
8
BLACK
10
171.5
20
-153.9
40
0.075
50
360
51
540
0
ARC
8
BLACK
10
171.5
20
-154.1
40
0.075
50
180
51
360
0
LINE
8
BLACK
10
171.1
20
-154.175
11
171.5
21
-154.175
0
LINE
8
BLACK
10
171.1
20
-154.025
11
171.5
21
-154.025
0
ARC
8
BLACK
10
171.5
20
-154.1
40
0.075
50
270
51
450
0
ARC
8
BLACK
10
171.1
20
-154.1
40
0.075
50
90
51
270
0
LINE
8
BLACK
10
153.175
20
-136.1
11
153.175
21
-135.9
0
LINE
8
BLACK
10
153.025
20
-136.1
11
153.025
21
-135.9
0
ARC
8
BLACK
10
153.1
20
-135.9
40
0.075
50
360
51
540
0
ARC
8
BLACK
10
153.1
20
-136.1
40
0.075
50
180
51
360
0
LINE
8
BLACK
10
153.1
20
-135.975
11
153.5
21
-135.975
0
LINE
8
BLACK
10
153.1
20
-135.825
11
153.5
21
-135.825
0
ARC
8
BLACK
10
153.5
20
-135.9
40
0.075
50
270
51
450
0
ARC
8
BLACK
10
153.1
20
-135.9
40
0.075
50
90
51
270
0
LINE
8
BLACK
10
153.575
20
-136.1
11
153.575
21
-135.9
0
LINE
8
BLACK
10
153.425
20
-136.1
11
153.425
21
-135.9
0
ARC
8
BLACK
10
153.5
20
-135.9
40
0.075
50
360
51
540
0
ARC
8
BLACK
10
153.5
20
-136.1
40
0.075
50
180
51
360
0
LINE
8
BLACK
10
153.1
20
-136.175
11
153.5
21
-136.175
0
LINE
8
BLACK
10
153.1
20
-136.025
11
153.5
21
-136.025
0
ARC
8
BLACK
10
153.5
20
-136.1
40
0.075
50
270
51
450
0
ARC
8
BLACK
10
153.1
20
-136.1
40
0.075
50
90
51
270
0
LINE
8
BLACK
10
153.175
20
-145.1
11
153.175
21
-144.9
0
LINE
8
BLACK
10
153.025
20
-145.1
11
153.025
21
-144.9
0
ARC
8
BLACK
10
153.1
20
-144.9
40
0.075
50
360
51
540
0
ARC
8
BLACK
10
153.1
20
-145.1
40
0.075
50
180
51
360
0
LINE
8
BLACK
10
153.1
20
-144.975
11
153.5
21
-144.975
0
LINE
8
BLACK
10
153.1
20
-144.825
11
153.5
21
-144.825
0
ARC
8
BLACK
10
153.5
20
-144.9
40
0.075
50
270
51
450
0
ARC
8
BLACK
10
153.1
20
-144.9
40
0.075
50
90
51
270
0
LINE
8
BLACK
10
153.575
20
-145.1
11
153.575
21
-144.9
0
LINE
8
BLACK
10
153.425
20
-145.1
11
153.425
21
-144.9
0
ARC
8
BLACK
10
153.5
20
-144.9
40
0.075
50
360
51
540
0
ARC
8
BLACK
10
153.5
20
-145.1
40
0.075
50
180
51
360
0
LINE
8
BLACK
10
153.1
20
-145.175
11
153.5
21
-145.175
0
LINE
8
BLACK
10
153.1
20
-145.025
11
153.5
21
-145.025
0
ARC
8
BLACK
10
153.5
20
-145.1
40
0.075
50
270
51
450
0
ARC
8
BLACK
10
153.1
20
-145.1
40
0.075
50
90
51
270
0
LINE
8
BLACK
10
153.175
20
-154.1
11
153.175
21
-153.9
0
LINE
8
BLACK
10
153.025
20
-154.1
11
153.025
21
-153.9
0
ARC
8
BLACK
10
153.1
20
-153.9
40
0.075
50
360
51
540
0
ARC
8
BLACK
10
153.1
20
-154.1
40
0.075
50
180
51
360
0
LINE
8
BLACK
10
153.1
20
-153.975
11
153.5
21
-153.975
0
LINE
8
BLACK
10
153.1
20
-153.825
11
153.5
21
-153.825
0
ARC
8
BLACK
10
153.5
20
-153.9
40
0.075
50
270
51
450
0
ARC
8
BLACK
10
153.1
20
-153.9
40
0.075
50
90
51
270
0
LINE
8
BLACK
10
153.575
20
-154.1
11
153.575
21
-153.9
0
LINE
8
BLACK
10
153.425
20
-154.1
11
153.425
21
-153.9
0
ARC
8
BLACK
10
153.5
20
-153.9
40
0.075
50
360
51
540
0
ARC
8
BLACK
10
153.5
20
-154.1
40
0.075
50
180
51
360
0
LINE
8
BLACK
10
153.1
20
-154.175
11
153.5
21
-154.175
0
LINE
8
BLACK
10
153.1
20
-154.025
11
153.5
21
-154.025
0
ARC
8
BLACK
10
153.5
20
-154.1
40
0.075
50
270
51
450
0
ARC
8
BLACK
10
153.1
20
-154.1
40
0.075
50
90
51
270
0
LINE
8
BLACK
10
162.175
20
-109.1
11
162.175
21
-108.9
0
LINE
8
BLACK
10
162.025
20
-109.1
11
162.025
21
-108.9
0
ARC
8
BLACK
10
162.1
20
-108.9
40
0.075
50
360
51
540
0
ARC
8
BLACK
10
162.1
20
-109.1
40
0.075
50
180
51
360
0
LINE
8
BLACK
10
162.1
20
-108.975
11
162.5
21
-108.975
0
LINE
8
BLACK
10
162.1
20
-108.825
11
162.5
21
-108.825
0
ARC
8
BLACK
10
162.5
20
-108.9
40
0.075
50
270
51
450
0
ARC
8
BLACK
10
162.1
20
-108.9
40
0.075
50
90
51
270
0
LINE
8
BLACK
10
162.575
20
-109.1
11
162.575
21
-108.9
0
LINE
8
BLACK
10
162.425
20
-109.1
11
162.425
21
-108.9
0
ARC
8
BLACK
10
162.5
20
-108.9
40
0.075
50
360
51
540
0
ARC
8
BLACK
10
162.5
20
-109.1
40
0.075
50
180
51
360
0
LINE
8
BLACK
10
162.1
20
-109.175
11
162.5
21
-109.175
0
LINE
8
BLACK
10
162.1
20
-109.025
11
162.5
21
-109.025
0
ARC
8
BLACK
10
162.5
20
-109.1
40
0.075
50
270
51
450
0
ARC
8
BLACK
10
162.1
20
-109.1
40
0.075
50
90
51
270
0
LINE
8
BLACK
10
144.175
20
-109.1
11
144.175
21
-108.9
0
LINE
8
BLACK
10
144.025
20
-109.1
11
144.025
21
-108.9
0
ARC
8
BLACK
10
144.1
20
-108.9
40
0.075
50
360
51
540
0
ARC
8
BLACK
10
144.1
20
-109.1
40
0.075
50
180
51
360
0
LINE
8
BLACK
10
144.1
20
-108.975
11
144.5
21
-108.975
0
LINE
8
BLACK
10
144.1
20
-108.825
11
144.5
21
-108.825
0
ARC
8
BLACK
10
144.5
20
-108.9
40
0.075
50
270
51
450
0
ARC
8
BLACK
10
144.1
20
-108.9
40
0.075
50
90
51
270
0
LINE
8
BLACK
10
144.575
20
-109.1
11
144.575
21
-108.9
0
LINE
8
BLACK
10
144.425
20
-109.1
11
144.425
21
-108.9
0
ARC
8
BLACK
10
144.5
20
-108.9
40
0.075
50
360
51
540
0
ARC
8
BLACK
10
144.5
20
-109.1
40
0.075
50
180
51
360
0
LINE
8
BLACK
10
144.1
20
-109.175
11
144.5
21
-109.175
0
LINE
8
BLACK
10
144.1
20
-109.025
11
144.5
21
-109.025
0
ARC
8
BLACK
10
144.5
20
-109.1
40
0.075
50
270
51
450
0
ARC
8
BLACK
10
144.1
20
-109.1
40
0.075
50
90
51
270
0
LINE
8
BLACK
10
144.175
20
-100.1
11
144.175
21
-99.9
0
LINE
8
BLACK
10
144.025
20
-100.1
11
144.025
21
-99.9
0
ARC
8
BLACK
10
144.1
20
-99.9
40
0.075
50
360
51
540
0
ARC
8
BLACK
10
144.1
20
-100.1
40
0.075
50
180
51
360
0
LINE
8
BLACK
10
144.1
20
-99.975
11
144.5
21
-99.975
0
LINE
8
BLACK
10
144.1
20
-99.825
11
144.5
21
-99.825
0
ARC
8
BLACK
10
144.5
20
-99.9
40
0.075
50
270
51
450
0
ARC
8
BLACK
10
144.1
20
-99.9
40
0.075
50
90
51
270
0
LINE
8
BLACK
10
144.575
20
-100.1
11
144.575
21
-99.9
0
LINE
8
BLACK
10
144.425
20
-100.1
11
144.425
21
-99.9
0
ARC
8
BLACK
10
144.5
20
-99.9
40
0.075
50
360
51
540
0
ARC
8
BLACK
10
144.5
20
-100.1
40
0.075
50
180
51
360
0
LINE
8
BLACK
10
144.1
20
-100.175
11
144.5
21
-100.175
0
LINE
8
BLACK
10
144.1
20
-100.025
11
144.5
21
-100.025
0
ARC
8
BLACK
10
144.5
20
-100.1
40
0.075
50
270
51
450
0
ARC
8
BLACK
10
144.1
20
-100.1
40
0.075
50
90
51
270
0
LINE
8
BLACK
10
153.175
20
-127.1
11
153.175
21
-126.9
0
LINE
8
BLACK
10
153.025
20
-127.1
11
153.025
21
-126.9
0
ARC
8
BLACK
10
153.1
20
-126.9
40
0.075
50
360
51
540
0
ARC
8
BLACK
10
153.1
20
-127.1
40
0.075
50
180
51
360
0
LINE
8
BLACK
10
153.1
20
-126.975
11
153.5
21
-126.975
0
LINE
8
BLACK
10
153.1
20
-126.825
11
153.5
21
-126.825
0
ARC
8
BLACK
10
153.5
20
-126.9
40
0.075
50
270
51
450
0
ARC
8
BLACK
10
153.1
20
-126.9
40
0.075
50
90
51
270
0
LINE
8
BLACK
10
153.575
20
-127.1
11
153.575
21
-126.9
0
LINE
8
BLACK
10
153.425
20
-127.1
11
153.425
21
-126.9
0
ARC
8
BLACK
10
153.5
20
-126.9
40
0.075
50
360
51
540
0
ARC
8
BLACK
10
153.5
20
-127.1
40
0.075
50
180
51
360
0
LINE
8
BLACK
10
153.1
20
-127.175
11
153.5
21
-127.175
0
LINE
8
BLACK
10
153.1
20
-127.025
11
153.5
21
-127.025
0
ARC
8
BLACK
10
153.5
20
-127.1
40
0.075
50
270
51
450
0
ARC
8
BLACK
10
153.1
20
-127.1
40
0.075
50
90
51
270
0
LINE
8
BLACK
10
153.175
20
-118.1
11
153.175
21
-117.9
0
LINE
8
BLACK
10
153.025
20
-118.1
11
153.025
21
-117.9
0
ARC
8
BLACK
10
153.1
20
-117.9
40
0.075
50
360
51
540
0
ARC
8
BLACK
10
153.1
20
-118.1
40
0.075
50
180
51
360
0
LINE
8
BLACK
10
153.1
20
-117.975
11
153.5
21
-117.975
0
LINE
8
BLACK
10
153.1
20
-117.825
11
153.5
21
-117.825
0
ARC
8
BLACK
10
153.5
20
-117.9
40
0.075
50
270
51
450
0
ARC
8
BLACK
10
153.1
20
-117.9
40
0.075
50
90
51
270
0
LINE
8
BLACK
10
153.575
20
-118.1
11
153.575
21
-117.9
0
LINE
8
BLACK
10
153.425
20
-118.1
11
153.425
21
-117.9
0
ARC
8
BLACK
10
153.5
20
-117.9
40
0.075
50
360
51
540
0
ARC
8
BLACK
10
153.5
20
-118.1
40
0.075
50
180
51
360
0
LINE
8
BLACK
10
153.1
20
-118.175
11
153.5
21
-118.175
0
LINE
8
BLACK
10
153.1
20
-118.025
11
153.5
21
-118.025
0
ARC
8
BLACK
10
153.5
20
-118.1
40
0.075
50
270
51
450
0
ARC
8
BLACK
10
153.1
20
-118.1
40
0.075
50
90
51
270
0
LINE
8
BLACK
10
153.175
20
-109.1
11
153.175
21
-108.9
0
LINE
8
BLACK
10
153.025
20
-109.1
11
153.025
21
-108.9
0
ARC
8
BLACK
10
153.1
20
-108.9
40
0.075
50
360
51
540
0
ARC
8
BLACK
10
153.1
20
-109.1
40
0.075
50
180
51
360
0
LINE
8
BLACK
10
153.1
20
-108.975
11
153.5
21
-108.975
0
LINE
8
BLACK
10
153.1
20
-108.825
11
153.5
21
-108.825
0
ARC
8
BLACK
10
153.5
20
-108.9
40
0.075
50
270
51
450
0
ARC
8
BLACK
10
153.1
20
-108.9
40
0.075
50
90
51
270
0
LINE
8
BLACK
10
153.575
20
-109.1
11
153.575
21
-108.9
0
LINE
8
BLACK
10
153.425
20
-109.1
11
153.425
21
-108.9
0
ARC
8
BLACK
10
153.5
20
-108.9
40
0.075
50
360
51
540
0
ARC
8
BLACK
10
153.5
20
-109.1
40
0.075
50
180
51
360
0
LINE
8
BLACK
10
153.1
20
-109.175
11
153.5
21
-109.175
0
LINE
8
BLACK
10
153.1
20
-109.025
11
153.5
21
-109.025
0
ARC
8
BLACK
10
153.5
20
-109.1
40
0.075
50
270
51
450
0
ARC
8
BLACK
10
153.1
20
-109.1
40
0.075
50
90
51
270
0
LINE
8
BLACK
10
153.175
20
-100.1
11
153.175
21
-99.9
0
LINE
8
BLACK
10
153.025
20
-100.1
11
153.025
21
-99.9
0
ARC
8
BLACK
10
153.1
20
-99.9
40
0.075
50
360
51
540
0
ARC
8
BLACK
10
153.1
20
-100.1
40
0.075
50
180
51
360
0
LINE
8
BLACK
10
153.1
20
-99.975
11
153.5
21
-99.975
0
LINE
8
BLACK
10
153.1
20
-99.825
11
153.5
21
-99.825
0
ARC
8
BLACK
10
153.5
20
-99.9
40
0.075
50
270
51
450
0
ARC
8
BLACK
10
153.1
20
-99.9
40
0.075
50
90
51
270
0
LINE
8
BLACK
10
153.575
20
-100.1
11
153.575
21
-99.9
0
LINE
8
BLACK
10
153.425
20
-100.1
11
153.425
21
-99.9
0
ARC
8
BLACK
10
153.5
20
-99.9
40
0.075
50
360
51
540
0
ARC
8
BLACK
10
153.5
20
-100.1
40
0.075
50
180
51
360
0
LINE
8
BLACK
10
153.1
20
-100.175
11
153.5
21
-100.175
0
LINE
8
BLACK
10
153.1
20
-100.025
11
153.5
21
-100.025
0
ARC
8
BLACK
10
153.5
20
-100.1
40
0.075
50
270
51
450
0
ARC
8
BLACK
10
153.1
20
-100.1
40
0.075
50
90
51
270
0
LINE
8
BLACK
10
171.175
20
-127.1
11
171.175
21
-126.9
0
LINE
8
BLACK
10
171.025
20
-127.1
11
171.025
21
-126.9
0
ARC
8
BLACK
10
171.1
20
-126.9
40
0.075
50
360
51
540
0
ARC
8
BLACK
10
171.1
20
-127.1
40
0.075
50
180
51
360
0
LINE
8
BLACK
10
171.1
20
-126.975
11
171.5
21
-126.975
0
LINE
8
BLACK
10
171.1
20
-126.825
11
171.5
21
-126.825
0
ARC
8
BLACK
10
171.5
20
-126.9
40
0.075
50
270
51
450
0
ARC
8
BLACK
10
171.1
20
-126.9
40
0.075
50
90
51
270
0
LINE
8
BLACK
10
171.575
20
-127.1
11
171.575
21
-126.9
0
LINE
8
BLACK
10
171.425
20
-127.1
11
171.425
21
-126.9
0
ARC
8
BLACK
10
171.5
20
-126.9
40
0.075
50
360
51
540
0
ARC
8
BLACK
10
171.5
20
-127.1
40
0.075
50
180
51
360
0
LINE
8
BLACK
10
171.1
20
-127.175
11
171.5
21
-127.175
0
LINE
8
BLACK
10
171.1
20
-127.025
11
171.5
21
-127.025
0
ARC
8
BLACK
10
171.5
20
-127.1
40
0.075
50
270
51
450
0
ARC
8
BLACK
10
171.1
20
-127.1
40
0.075
50
90
51
270
0
LINE
8
BLACK
10
171.175
20
-118.1
11
171.175
21
-117.9
0
LINE
8
BLACK
10
171.025
20
-118.1
11
171.025
21
-117.9
0
ARC
8
BLACK
10
171.1
20
-117.9
40
0.075
50
360
51
540
0
ARC
8
BLACK
10
171.1
20
-118.1
40
0.075
50
180
51
360
0
LINE
8
BLACK
10
171.1
20
-117.975
11
171.5
21
-117.975
0
LINE
8
BLACK
10
171.1
20
-117.825
11
171.5
21
-117.825
0
ARC
8
BLACK
10
171.5
20
-117.9
40
0.075
50
270
51
450
0
ARC
8
BLACK
10
171.1
20
-117.9
40
0.075
50
90
51
270
0
LINE
8
BLACK
10
171.575
20
-118.1
11
171.575
21
-117.9
0
LINE
8
BLACK
10
171.425
20
-118.1
11
171.425
21
-117.9
0
ARC
8
BLACK
10
171.5
20
-117.9
40
0.075
50
360
51
540
0
ARC
8
BLACK
10
171.5
20
-118.1
40
0.075
50
180
51
360
0
LINE
8
BLACK
10
171.1
20
-118.175
11
171.5
21
-118.175
0
LINE
8
BLACK
10
171.1
20
-118.025
11
171.5
21
-118.025
0
ARC
8
BLACK
10
171.5
20
-118.1
40
0.075
50
270
51
450
0
ARC
8
BLACK
10
171.1
20
-118.1
40
0.075
50
90
51
270
0
LINE
8
BLACK
10
171.175
20
-109.1
11
171.175
21
-108.9
0
LINE
8
BLACK
10
171.025
20
-109.1
11
171.025
21
-108.9
0
ARC
8
BLACK
10
171.1
20
-108.9
40
0.075
50
360
51
540
0
ARC
8
BLACK
10
171.1
20
-109.1
40
0.075
50
180
51
360
0
LINE
8
BLACK
10
171.1
20
-108.975
11
171.5
21
-108.975
0
LINE
8
BLACK
10
171.1
20
-108.825
11
171.5
21
-108.825
0
ARC
8
BLACK
10
171.5
20
-108.9
40
0.075
50
270
51
450
0
ARC
8
BLACK
10
171.1
20
-108.9
40
0.075
50
90
51
270
0
LINE
8
BLACK
10
171.575
20
-109.1
11
171.575
21
-108.9
0
LINE
8
BLACK
10
171.425
20
-109.1
11
171.425
21
-108.9
0
ARC
8
BLACK
10
171.5
20
-108.9
40
0.075
50
360
51
540
0
ARC
8
BLACK
10
171.5
20
-109.1
40
0.075
50
180
51
360
0
LINE
8
BLACK
10
171.1
20
-109.175
11
171.5
21
-109.175
0
LINE
8
BLACK
10
171.1
20
-109.025
11
171.5
21
-109.025
0
ARC
8
BLACK
10
171.5
20
-109.1
40
0.075
50
270
51
450
0
ARC
8
BLACK
10
171.1
20
-109.1
40
0.075
50
90
51
270
0
LINE
8
BLACK
10
171.175
20
-100.1
11
171.175
21
-99.9
0
LINE
8
BLACK
10
171.025
20
-100.1
11
171.025
21
-99.9
0
ARC
8
BLACK
10
171.1
20
-99.9
40
0.075
50
360
51
540
0
ARC
8
BLACK
10
171.1
20
-100.1
40
0.075
50
180
51
360
0
LINE
8
BLACK
10
171.1
20
-99.975
11
171.5
21
-99.975
0
LINE
8
BLACK
10
171.1
20
-99.825
11
171.5
21
-99.825
0
ARC
8
BLACK
10
171.5
20
-99.9
40
0.075
50
270
51
450
0
ARC
8
BLACK
10
171.1
20
-99.9
40
0.075
50
90
51
270
0
LINE
8
BLACK
10
171.575
20
-100.1
11
171.575
21
-99.9
0
LINE
8
BLACK
10
171.425
20
-100.1
11
171.425
21
-99.9
0
ARC
8
BLACK
10
171.5
20
-99.9
40
0.075
50
360
51
540
0
ARC
8
BLACK
10
171.5
20
-100.1
40
0.075
50
180
51
360
0
LINE
8
BLACK
10
171.1
20
-100.175
11
171.5
21
-100.175
0
LINE
8
BLACK
10
171.1
20
-100.025
11
171.5
21
-100.025
0
ARC
8
BLACK
10
171.5
20
-100.1
40
0.075
50
270
51
450
0
ARC
8
BLACK
10
171.1
20
-100.1
40
0.075
50
90
51
270
0
LINE
8
BLACK
10
162.175
20
-127.1
11
162.175
21
-126.9
0
LINE
8
BLACK
10
162.025
20
-127.1
11
162.025
21
-126.9
0
ARC
8
BLACK
10
162.1
20
-126.9
40
0.075
50
360
51
540
0
ARC
8
BLACK
10
162.1
20
-127.1
40
0.075
50
180
51
360
0
LINE
8
BLACK
10
162.1
20
-126.975
11
162.5
21
-126.975
0
LINE
8
BLACK
10
162.1
20
-126.825
11
162.5
21
-126.825
0
ARC
8
BLACK
10
162.5
20
-126.9
40
0.075
50
270
51
450
0
ARC
8
BLACK
10
162.1
20
-126.9
40
0.075
50
90
51
270
0
LINE
8
BLACK
10
162.575
20
-127.1
11
162.575
21
-126.9
0
LINE
8
BLACK
10
162.425
20
-127.1
11
162.425
21
-126.9
0
ARC
8
BLACK
10
162.5
20
-126.9
40
0.075
50
360
51
540
0
ARC
8
BLACK
10
162.5
20
-127.1
40
0.075
50
180
51
360
0
LINE
8
BLACK
10
162.1
20
-127.175
11
162.5
21
-127.175
0
LINE
8
BLACK
10
162.1
20
-127.025
11
162.5
21
-127.025
0
ARC
8
BLACK
10
162.5
20
-127.1
40
0.075
50
270
51
450
0
ARC
8
BLACK
10
162.1
20
-127.1
40
0.075
50
90
51
270
0
LINE
8
BLACK
10
144.175
20
-118.1
11
144.175
21
-117.9
0
LINE
8
BLACK
10
144.025
20
-118.1
11
144.025
21
-117.9
0
ARC
8
BLACK
10
144.1
20
-117.9
40
0.075
50
360
51
540
0
ARC
8
BLACK
10
144.1
20
-118.1
40
0.075
50
180
51
360
0
LINE
8
BLACK
10
144.1
20
-117.975
11
144.5
21
-117.975
0
LINE
8
BLACK
10
144.1
20
-117.825
11
144.5
21
-117.825
0
ARC
8
BLACK
10
144.5
20
-117.9
40
0.075
50
270
51
450
0
ARC
8
BLACK
10
144.1
20
-117.9
40
0.075
50
90
51
270
0
LINE
8
BLACK
10
144.575
20
-118.1
11
144.575
21
-117.9
0
LINE
8
BLACK
10
144.425
20
-118.1
11
144.425
21
-117.9
0
ARC
8
BLACK
10
144.5
20
-117.9
40
0.075
50
360
51
540
0
ARC
8
BLACK
10
144.5
20
-118.1
40
0.075
50
180
51
360
0
LINE
8
BLACK
10
144.1
20
-118.175
11
144.5
21
-118.175
0
LINE
8
BLACK
10
144.1
20
-118.025
11
144.5
21
-118.025
0
ARC
8
BLACK
10
144.5
20
-118.1
40
0.075
50
270
51
450
0
ARC
8
BLACK
10
144.1
20
-118.1
40
0.075
50
90
51
270
0
LINE
8
BLACK
10
162.175
20
-100.1
11
162.175
21
-99.9
0
LINE
8
BLACK
10
162.025
20
-100.1
11
162.025
21
-99.9
0
ARC
8
BLACK
10
162.1
20
-99.9
40
0.075
50
360
51
540
0
ARC
8
BLACK
10
162.1
20
-100.1
40
0.075
50
180
51
360
0
LINE
8
BLACK
10
162.1
20
-99.975
11
162.5
21
-99.975
0
LINE
8
BLACK
10
162.1
20
-99.825
11
162.5
21
-99.825
0
ARC
8
BLACK
10
162.5
20
-99.9
40
0.075
50
270
51
450
0
ARC
8
BLACK
10
162.1
20
-99.9
40
0.075
50
90
51
270
0
LINE
8
BLACK
10
162.575
20
-100.1
11
162.575
21
-99.9
0
LINE
8
BLACK
10
162.425
20
-100.1
11
162.425
21
-99.9
0
ARC
8
BLACK
10
162.5
20
-99.9
40
0.075
50
360
51
540
0
ARC
8
BLACK
10
162.5
20
-100.1
40
0.075
50
180
51
360
0
LINE
8
BLACK
10
162.1
20
-100.175
11
162.5
21
-100.175
0
LINE
8
BLACK
10
162.1
20
-100.025
11
162.5
21
-100.025
0
ARC
8
BLACK
10
162.5
20
-100.1
40
0.075
50
270
51
450
0
ARC
8
BLACK
10
162.1
20
-100.1
40
0.075
50
90
51
270
0
LINE
8
BLACK
10
180.175
20
-127.1
11
180.175
21
-126.9
0
LINE
8
BLACK
10
180.025
20
-127.1
11
180.025
21
-126.9
0
ARC
8
BLACK
10
180.1
20
-126.9
40
0.075
50
360
51
540
0
ARC
8
BLACK
10
180.1
20
-127.1
40
0.075
50
180
51
360
0
LINE
8
BLACK
10
180.1
20
-126.975
11
180.5
21
-126.975
0
LINE
8
BLACK
10
180.1
20
-126.825
11
180.5
21
-126.825
0
ARC
8
BLACK
10
180.5
20
-126.9
40
0.075
50
270
51
450
0
ARC
8
BLACK
10
180.1
20
-126.9
40
0.075
50
90
51
270
0
LINE
8
BLACK
10
180.575
20
-127.1
11
180.575
21
-126.9
0
LINE
8
BLACK
10
180.425
20
-127.1
11
180.425
21
-126.9
0
ARC
8
BLACK
10
180.5
20
-126.9
40
0.075
50
360
51
540
0
ARC
8
BLACK
10
180.5
20
-127.1
40
0.075
50
180
51
360
0
LINE
8
BLACK
10
180.1
20
-127.175
11
180.5
21
-127.175
0
LINE
8
BLACK
10
180.1
20
-127.025
11
180.5
21
-127.025
0
ARC
8
BLACK
10
180.5
20
-127.1
40
0.075
50
270
51
450
0
ARC
8
BLACK
10
180.1
20
-127.1
40
0.075
50
90
51
270
0
LINE
8
BLACK
10
180.175
20
-118.1
11
180.175
21
-117.9
0
LINE
8
BLACK
10
180.025
20
-118.1
11
180.025
21
-117.9
0
ARC
8
BLACK
10
180.1
20
-117.9
40
0.075
50
360
51
540
0
ARC
8
BLACK
10
180.1
20
-118.1
40
0.075
50
180
51
360
0
LINE
8
BLACK
10
180.1
20
-117.975
11
180.5
21
-117.975
0
LINE
8
BLACK
10
180.1
20
-117.825
11
180.5
21
-117.825
0
ARC
8
BLACK
10
180.5
20
-117.9
40
0.075
50
270
51
450
0
ARC
8
BLACK
10
180.1
20
-117.9
40
0.075
50
90
51
270
0
LINE
8
BLACK
10
180.575
20
-118.1
11
180.575
21
-117.9
0
LINE
8
BLACK
10
180.425
20
-118.1
11
180.425
21
-117.9
0
ARC
8
BLACK
10
180.5
20
-117.9
40
0.075
50
360
51
540
0
ARC
8
BLACK
10
180.5
20
-118.1
40
0.075
50
180
51
360
0
LINE
8
BLACK
10
180.1
20
-118.175
11
180.5
21
-118.175
0
LINE
8
BLACK
10
180.1
20
-118.025
11
180.5
21
-118.025
0
ARC
8
BLACK
10
180.5
20
-118.1
40
0.075
50
270
51
450
0
ARC
8
BLACK
10
180.1
20
-118.1
40
0.075
50
90
51
270
0
LINE
8
BLACK
10
180.175
20
-109.1
11
180.175
21
-108.9
0
LINE
8
BLACK
10
180.025
20
-109.1
11
180.025
21
-108.9
0
ARC
8
BLACK
10
180.1
20
-108.9
40
0.075
50
360
51
540
0
ARC
8
BLACK
10
180.1
20
-109.1
40
0.075
50
180
51
360
0
LINE
8
BLACK
10
180.1
20
-108.975
11
180.5
21
-108.975
0
LINE
8
BLACK
10
180.1
20
-108.825
11
180.5
21
-108.825
0
ARC
8
BLACK
10
180.5
20
-108.9
40
0.075
50
270
51
450
0
ARC
8
BLACK
10
180.1
20
-108.9
40
0.075
50
90
51
270
0
LINE
8
BLACK
10
180.575
20
-109.1
11
180.575
21
-108.9
0
LINE
8
BLACK
10
180.425
20
-109.1
11
180.425
21
-108.9
0
ARC
8
BLACK
10
180.5
20
-108.9
40
0.075
50
360
51
540
0
ARC
8
BLACK
10
180.5
20
-109.1
40
0.075
50
180
51
360
0
LINE
8
BLACK
10
180.1
20
-109.175
11
180.5
21
-109.175
0
LINE
8
BLACK
10
180.1
20
-109.025
11
180.5
21
-109.025
0
ARC
8
BLACK
10
180.5
20
-109.1
40
0.075
50
270
51
450
0
ARC
8
BLACK
10
180.1
20
-109.1
40
0.075
50
90
51
270
0
LINE
8
BLACK
10
180.175
20
-100.1
11
180.175
21
-99.9
0
LINE
8
BLACK
10
180.025
20
-100.1
11
180.025
21
-99.9
0
ARC
8
BLACK
10
180.1
20
-99.9
40
0.075
50
360
51
540
0
ARC
8
BLACK
10
180.1
20
-100.1
40
0.075
50
180
51
360
0
LINE
8
BLACK
10
180.1
20
-99.975
11
180.5
21
-99.975
0
LINE
8
BLACK
10
180.1
20
-99.825
11
180.5
21
-99.825
0
ARC
8
BLACK
10
180.5
20
-99.9
40
0.075
50
270
51
450
0
ARC
8
BLACK
10
180.1
20
-99.9
40
0.075
50
90
51
270
0
LINE
8
BLACK
10
180.575
20
-100.1
11
180.575
21
-99.9
0
LINE
8
BLACK
10
180.425
20
-100.1
11
180.425
21
-99.9
0
ARC
8
BLACK
10
180.5
20
-99.9
40
0.075
50
360
51
540
0
ARC
8
BLACK
10
180.5
20
-100.1
40
0.075
50
180
51
360
0
LINE
8
BLACK
10
180.1
20
-100.175
11
180.5
21
-100.175
0
LINE
8
BLACK
10
180.1
20
-100.025
11
180.5
21
-100.025
0
ARC
8
BLACK
10
180.5
20
-100.1
40
0.075
50
270
51
450
0
ARC
8
BLACK
10
180.1
20
-100.1
40
0.075
50
90
51
270
0
LINE
8
BLACK
10
189.175
20
-127.1
11
189.175
21
-126.9
0
LINE
8
BLACK
10
189.025
20
-127.1
11
189.025
21
-126.9
0
ARC
8
BLACK
10
189.1
20
-126.9
40
0.075
50
360
51
540
0
ARC
8
BLACK
10
189.1
20
-127.1
40
0.075
50
180
51
360
0
LINE
8
BLACK
10
189.1
20
-126.975
11
189.5
21
-126.975
0
LINE
8
BLACK
10
189.1
20
-126.825
11
189.5
21
-126.825
0
ARC
8
BLACK
10
189.5
20
-126.9
40
0.075
50
270
51
450
0
ARC
8
BLACK
10
189.1
20
-126.9
40
0.075
50
90
51
270
0
LINE
8
BLACK
10
189.575
20
-127.1
11
189.575
21
-126.9
0
LINE
8
BLACK
10
189.425
20
-127.1
11
189.425
21
-126.9
0
ARC
8
BLACK
10
189.5
20
-126.9
40
0.075
50
360
51
540
0
ARC
8
BLACK
10
189.5
20
-127.1
40
0.075
50
180
51
360
0
LINE
8
BLACK
10
189.1
20
-127.175
11
189.5
21
-127.175
0
LINE
8
BLACK
10
189.1
20
-127.025
11
189.5
21
-127.025
0
ARC
8
BLACK
10
189.5
20
-127.1
40
0.075
50
270
51
450
0
ARC
8
BLACK
10
189.1
20
-127.1
40
0.075
50
90
51
270
0
LINE
8
BLACK
10
189.175
20
-118.1
11
189.175
21
-117.9
0
LINE
8
BLACK
10
189.025
20
-118.1
11
189.025
21
-117.9
0
ARC
8
BLACK
10
189.1
20
-117.9
40
0.075
50
360
51
540
0
ARC
8
BLACK
10
189.1
20
-118.1
40
0.075
50
180
51
360
0
LINE
8
BLACK
10
189.1
20
-117.975
11
189.5
21
-117.975
0
LINE
8
BLACK
10
189.1
20
-117.825
11
189.5
21
-117.825
0
ARC
8
BLACK
10
189.5
20
-117.9
40
0.075
50
270
51
450
0
ARC
8
BLACK
10
189.1
20
-117.9
40
0.075
50
90
51
270
0
LINE
8
BLACK
10
189.575
20
-118.1
11
189.575
21
-117.9
0
LINE
8
BLACK
10
189.425
20
-118.1
11
189.425
21
-117.9
0
ARC
8
BLACK
10
189.5
20
-117.9
40
0.075
50
360
51
540
0
ARC
8
BLACK
10
189.5
20
-118.1
40
0.075
50
180
51
360
0
LINE
8
BLACK
10
189.1
20
-118.175
11
189.5
21
-118.175
0
LINE
8
BLACK
10
189.1
20
-118.025
11
189.5
21
-118.025
0
ARC
8
BLACK
10
189.5
20
-118.1
40
0.075
50
270
51
450
0
ARC
8
BLACK
10
189.1
20
-118.1
40
0.075
50
90
51
270
0
LINE
8
BLACK
10
189.175
20
-109.1
11
189.175
21
-108.9
0
LINE
8
BLACK
10
189.025
20
-109.1
11
189.025
21
-108.9
0
ARC
8
BLACK
10
189.1
20
-108.9
40
0.075
50
360
51
540
0
ARC
8
BLACK
10
189.1
20
-109.1
40
0.075
50
180
51
360
0
LINE
8
BLACK
10
189.1
20
-108.975
11
189.5
21
-108.975
0
LINE
8
BLACK
10
189.1
20
-108.825
11
189.5
21
-108.825
0
ARC
8
BLACK
10
189.5
20
-108.9
40
0.075
50
270
51
450
0
ARC
8
BLACK
10
189.1
20
-108.9
40
0.075
50
90
51
270
0
LINE
8
BLACK
10
189.575
20
-109.1
11
189.575
21
-108.9
0
LINE
8
BLACK
10
189.425
20
-109.1
11
189.425
21
-108.9
0
ARC
8
BLACK
10
189.5
20
-108.9
40
0.075
50
360
51
540
0
ARC
8
BLACK
10
189.5
20
-109.1
40
0.075
50
180
51
360
0
LINE
8
BLACK
10
189.1
20
-109.175
11
189.5
21
-109.175
0
LINE
8
BLACK
10
189.1
20
-109.025
11
189.5
21
-109.025
0
ARC
8
BLACK
10
189.5
20
-109.1
40
0.075
50
270
51
450
0
ARC
8
BLACK
10
189.1
20
-109.1
40
0.075
50
90
51
270
0
LINE
8
BLACK
10
189.175
20
-100.1
11
189.175
21
-99.9
0
LINE
8
BLACK
10
189.025
20
-100.1
11
189.025
21
-99.9
0
ARC
8
BLACK
10
189.1
20
-99.9
40
0.075
50
360
51
540
0
ARC
8
BLACK
10
189.1
20
-100.1
40
0.075
50
180
51
360
0
LINE
8
BLACK
10
189.1
20
-99.975
11
189.5
21
-99.975
0
LINE
8
BLACK
10
189.1
20
-99.825
11
189.5
21
-99.825
0
ARC
8
BLACK
10
189.5
20
-99.9
40
0.075
50
270
51
450
0
ARC
8
BLACK
10
189.1
20
-99.9
40
0.075
50
90
51
270
0
LINE
8
BLACK
10
189.575
20
-100.1
11
189.575
21
-99.9
0
LINE
8
BLACK
10
189.425
20
-100.1
11
189.425
21
-99.9
0
ARC
8
BLACK
10
189.5
20
-99.9
40
0.075
50
360
51
540
0
ARC
8
BLACK
10
189.5
20
-100.1
40
0.075
50
180
51
360
0
LINE
8
BLACK
10
189.1
20
-100.175
11
189.5
21
-100.175
0
LINE
8
BLACK
10
189.1
20
-100.025
11
189.5
21
-100.025
0
ARC
8
BLACK
10
189.5
20
-100.1
40
0.075
50
270
51
450
0
ARC
8
BLACK
10
189.1
20
-100.1
40
0.075
50
90
51
270
0
LINE
8
BLACK
10
198.175
20
-127.1
11
198.175
21
-126.9
0
LINE
8
BLACK
10
198.025
20
-127.1
11
198.025
21
-126.9
0
ARC
8
BLACK
10
198.1
20
-126.9
40
0.075
50
360
51
540
0
ARC
8
BLACK
10
198.1
20
-127.1
40
0.075
50
180
51
360
0
LINE
8
BLACK
10
198.1
20
-126.975
11
198.5
21
-126.975
0
LINE
8
BLACK
10
198.1
20
-126.825
11
198.5
21
-126.825
0
ARC
8
BLACK
10
198.5
20
-126.9
40
0.075
50
270
51
450
0
ARC
8
BLACK
10
198.1
20
-126.9
40
0.075
50
90
51
270
0
LINE
8
BLACK
10
198.575
20
-127.1
11
198.575
21
-126.9
0
LINE
8
BLACK
10
198.425
20
-127.1
11
198.425
21
-126.9
0
ARC
8
BLACK
10
198.5
20
-126.9
40
0.075
50
360
51
540
0
ARC
8
BLACK
10
198.5
20
-127.1
40
0.075
50
180
51
360
0
LINE
8
BLACK
10
198.1
20
-127.175
11
198.5
21
-127.175
0
LINE
8
BLACK
10
198.1
20
-127.025
11
198.5
21
-127.025
0
ARC
8
BLACK
10
198.5
20
-127.1
40
0.075
50
270
51
450
0
ARC
8
BLACK
10
198.1
20
-127.1
40
0.075
50
90
51
270
0
LINE
8
BLACK
10
135.175
20
-109.1
11
135.175
21
-108.9
0
LINE
8
BLACK
10
135.025
20
-109.1
11
135.025
21
-108.9
0
ARC
8
BLACK
10
135.1
20
-108.9
40
0.075
50
360
51
540
0
ARC
8
BLACK
10
135.1
20
-109.1
40
0.075
50
180
51
360
0
LINE
8
BLACK
10
135.1
20
-108.975
11
135.5
21
-108.975
0
LINE
8
BLACK
10
135.1
20
-108.825
11
135.5
21
-108.825
0
ARC
8
BLACK
10
135.5
20
-108.9
40
0.075
50
270
51
450
0
ARC
8
BLACK
10
135.1
20
-108.9
40
0.075
50
90
51
270
0
LINE
8
BLACK
10
135.575
20
-109.1
11
135.575
21
-108.9
0
LINE
8
BLACK
10
135.425
20
-109.1
11
135.425
21
-108.9
0
ARC
8
BLACK
10
135.5
20
-108.9
40
0.075
50
360
51
540
0
ARC
8
BLACK
10
135.5
20
-109.1
40
0.075
50
180
51
360
0
LINE
8
BLACK
10
135.1
20
-109.175
11
135.5
21
-109.175
0
LINE
8
BLACK
10
135.1
20
-109.025
11
135.5
21
-109.025
0
ARC
8
BLACK
10
135.5
20
-109.1
40
0.075
50
270
51
450
0
ARC
8
BLACK
10
135.1
20
-109.1
40
0.075
50
90
51
270
0
LINE
8
BLACK
10
99.175
20
-163.1
11
99.175
21
-162.9
0
LINE
8
BLACK
10
99.025
20
-163.1
11
99.025
21
-162.9
0
ARC
8
BLACK
10
99.1
20
-162.9
40
0.075
50
360
51
540
0
ARC
8
BLACK
10
99.1
20
-163.1
40
0.075
50
180
51
360
0
LINE
8
BLACK
10
99.1
20
-162.975
11
99.5
21
-162.975
0
LINE
8
BLACK
10
99.1
20
-162.825
11
99.5
21
-162.825
0
ARC
8
BLACK
10
99.5
20
-162.9
40
0.075
50
270
51
450
0
ARC
8
BLACK
10
99.1
20
-162.9
40
0.075
50
90
51
270
0
LINE
8
BLACK
10
99.575
20
-163.1
11
99.575
21
-162.9
0
LINE
8
BLACK
10
99.425
20
-163.1
11
99.425
21
-162.9
0
ARC
8
BLACK
10
99.5
20
-162.9
40
0.075
50
360
51
540
0
ARC
8
BLACK
10
99.5
20
-163.1
40
0.075
50
180
51
360
0
LINE
8
BLACK
10
99.1
20
-163.175
11
99.5
21
-163.175
0
LINE
8
BLACK
10
99.1
20
-163.025
11
99.5
21
-163.025
0
ARC
8
BLACK
10
99.5
20
-163.1
40
0.075
50
270
51
450
0
ARC
8
BLACK
10
99.1
20
-163.1
40
0.075
50
90
51
270
0
LINE
8
BLACK
10
99.175
20
-127.1
11
99.175
21
-126.9
0
LINE
8
BLACK
10
99.025
20
-127.1
11
99.025
21
-126.9
0
ARC
8
BLACK
10
99.1
20
-126.9
40
0.075
50
360
51
540
0
ARC
8
BLACK
10
99.1
20
-127.1
40
0.075
50
180
51
360
0
LINE
8
BLACK
10
99.1
20
-126.975
11
99.5
21
-126.975
0
LINE
8
BLACK
10
99.1
20
-126.825
11
99.5
21
-126.825
0
ARC
8
BLACK
10
99.5
20
-126.9
40
0.075
50
270
51
450
0
ARC
8
BLACK
10
99.1
20
-126.9
40
0.075
50
90
51
270
0
LINE
8
BLACK
10
99.575
20
-127.1
11
99.575
21
-126.9
0
LINE
8
BLACK
10
99.425
20
-127.1
11
99.425
21
-126.9
0
ARC
8
BLACK
10
99.5
20
-126.9
40
0.075
50
360
51
540
0
ARC
8
BLACK
10
99.5
20
-127.1
40
0.075
50
180
51
360
0
LINE
8
BLACK
10
99.1
20
-127.175
11
99.5
21
-127.175
0
LINE
8
BLACK
10
99.1
20
-127.025
11
99.5
21
-127.025
0
ARC
8
BLACK
10
99.5
20
-127.1
40
0.075
50
270
51
450
0
ARC
8
BLACK
10
99.1
20
-127.1
40
0.075
50
90
51
270
0
LINE
8
BLACK
10
99.175
20
-118.1
11
99.175
21
-117.9
0
LINE
8
BLACK
10
99.025
20
-118.1
11
99.025
21
-117.9
0
ARC
8
BLACK
10
99.1
20
-117.9
40
0.075
50
360
51
540
0
ARC
8
BLACK
10
99.1
20
-118.1
40
0.075
50
180
51
360
0
LINE
8
BLACK
10
99.1
20
-117.975
11
99.5
21
-117.975
0
LINE
8
BLACK
10
99.1
20
-117.825
11
99.5
21
-117.825
0
ARC
8
BLACK
10
99.5
20
-117.9
40
0.075
50
270
51
450
0
ARC
8
BLACK
10
99.1
20
-117.9
40
0.075
50
90
51
270
0
LINE
8
BLACK
10
99.575
20
-118.1
11
99.575
21
-117.9
0
LINE
8
BLACK
10
99.425
20
-118.1
11
99.425
21
-117.9
0
ARC
8
BLACK
10
99.5
20
-117.9
40
0.075
50
360
51
540
0
ARC
8
BLACK
10
99.5
20
-118.1
40
0.075
50
180
51
360
0
LINE
8
BLACK
10
99.1
20
-118.175
11
99.5
21
-118.175
0
LINE
8
BLACK
10
99.1
20
-118.025
11
99.5
21
-118.025
0
ARC
8
BLACK
10
99.5
20
-118.1
40
0.075
50
270
51
450
0
ARC
8
BLACK
10
99.1
20
-118.1
40
0.075
50
90
51
270
0
LINE
8
BLACK
10
99.175
20
-109.1
11
99.175
21
-108.9
0
LINE
8
BLACK
10
99.025
20
-109.1
11
99.025
21
-108.9
0
ARC
8
BLACK
10
99.1
20
-108.9
40
0.075
50
360
51
540
0
ARC
8
BLACK
10
99.1
20
-109.1
40
0.075
50
180
51
360
0
LINE
8
BLACK
10
99.1
20
-108.975
11
99.5
21
-108.975
0
LINE
8
BLACK
10
99.1
20
-108.825
11
99.5
21
-108.825
0
ARC
8
BLACK
10
99.5
20
-108.9
40
0.075
50
270
51
450
0
ARC
8
BLACK
10
99.1
20
-108.9
40
0.075
50
90
51
270
0
LINE
8
BLACK
10
99.575
20
-109.1
11
99.575
21
-108.9
0
LINE
8
BLACK
10
99.425
20
-109.1
11
99.425
21
-108.9
0
ARC
8
BLACK
10
99.5
20
-108.9
40
0.075
50
360
51
540
0
ARC
8
BLACK
10
99.5
20
-109.1
40
0.075
50
180
51
360
0
LINE
8
BLACK
10
99.1
20
-109.175
11
99.5
21
-109.175
0
LINE
8
BLACK
10
99.1
20
-109.025
11
99.5
21
-109.025
0
ARC
8
BLACK
10
99.5
20
-109.1
40
0.075
50
270
51
450
0
ARC
8
BLACK
10
99.1
20
-109.1
40
0.075
50
90
51
270
0
LINE
8
BLACK
10
99.175
20
-100.1
11
99.175
21
-99.9
0
LINE
8
BLACK
10
99.025
20
-100.1
11
99.025
21
-99.9
0
ARC
8
BLACK
10
99.1
20
-99.9
40
0.075
50
360
51
540
0
ARC
8
BLACK
10
99.1
20
-100.1
40
0.075
50
180
51
360
0
LINE
8
BLACK
10
99.1
20
-99.975
11
99.5
21
-99.975
0
LINE
8
BLACK
10
99.1
20
-99.825
11
99.5
21
-99.825
0
ARC
8
BLACK
10
99.5
20
-99.9
40
0.075
50
270
51
450
0
ARC
8
BLACK
10
99.1
20
-99.9
40
0.075
50
90
51
270
0
LINE
8
BLACK
10
99.575
20
-100.1
11
99.575
21
-99.9
0
LINE
8
BLACK
10
99.425
20
-100.1
11
99.425
21
-99.9
0
ARC
8
BLACK
10
99.5
20
-99.9
40
0.075
50
360
51
540
0
ARC
8
BLACK
10
99.5
20
-100.1
40
0.075
50
180
51
360
0
LINE
8
BLACK
10
99.1
20
-100.175
11
99.5
21
-100.175
0
LINE
8
BLACK
10
99.1
20
-100.025
11
99.5
21
-100.025
0
ARC
8
BLACK
10
99.5
20
-100.1
40
0.075
50
270
51
450
0
ARC
8
BLACK
10
99.1
20
-100.1
40
0.075
50
90
51
270
0
LINE
8
BLACK
10
117.175
20
-127.1
11
117.175
21
-126.9
0
LINE
8
BLACK
10
117.025
20
-127.1
11
117.025
21
-126.9
0
ARC
8
BLACK
10
117.1
20
-126.9
40
0.075
50
360
51
540
0
ARC
8
BLACK
10
117.1
20
-127.1
40
0.075
50
180
51
360
0
LINE
8
BLACK
10
117.1
20
-126.975
11
117.5
21
-126.975
0
LINE
8
BLACK
10
117.1
20
-126.825
11
117.5
21
-126.825
0
ARC
8
BLACK
10
117.5
20
-126.9
40
0.075
50
270
51
450
0
ARC
8
BLACK
10
117.1
20
-126.9
40
0.075
50
90
51
270
0
LINE
8
BLACK
10
117.575
20
-127.1
11
117.575
21
-126.9
0
LINE
8
BLACK
10
117.425
20
-127.1
11
117.425
21
-126.9
0
ARC
8
BLACK
10
117.5
20
-126.9
40
0.075
50
360
51
540
0
ARC
8
BLACK
10
117.5
20
-127.1
40
0.075
50
180
51
360
0
LINE
8
BLACK
10
117.1
20
-127.175
11
117.5
21
-127.175
0
LINE
8
BLACK
10
117.1
20
-127.025
11
117.5
21
-127.025
0
ARC
8
BLACK
10
117.5
20
-127.1
40
0.075
50
270
51
450
0
ARC
8
BLACK
10
117.1
20
-127.1
40
0.075
50
90
51
270
0
LINE
8
BLACK
10
117.175
20
-118.1
11
117.175
21
-117.9
0
LINE
8
BLACK
10
117.025
20
-118.1
11
117.025
21
-117.9
0
ARC
8
BLACK
10
117.1
20
-117.9
40
0.075
50
360
51
540
0
ARC
8
BLACK
10
117.1
20
-118.1
40
0.075
50
180
51
360
0
LINE
8
BLACK
10
117.1
20
-117.975
11
117.5
21
-117.975
0
LINE
8
BLACK
10
117.1
20
-117.825
11
117.5
21
-117.825
0
ARC
8
BLACK
10
117.5
20
-117.9
40
0.075
50
270
51
450
0
ARC
8
BLACK
10
117.1
20
-117.9
40
0.075
50
90
51
270
0
LINE
8
BLACK
10
117.575
20
-118.1
11
117.575
21
-117.9
0
LINE
8
BLACK
10
117.425
20
-118.1
11
117.425
21
-117.9
0
ARC
8
BLACK
10
117.5
20
-117.9
40
0.075
50
360
51
540
0
ARC
8
BLACK
10
117.5
20
-118.1
40
0.075
50
180
51
360
0
LINE
8
BLACK
10
117.1
20
-118.175
11
117.5
21
-118.175
0
LINE
8
BLACK
10
117.1
20
-118.025
11
117.5
21
-118.025
0
ARC
8
BLACK
10
117.5
20
-118.1
40
0.075
50
270
51
450
0
ARC
8
BLACK
10
117.1
20
-118.1
40
0.075
50
90
51
270
0
LINE
8
BLACK
10
117.175
20
-109.1
11
117.175
21
-108.9
0
LINE
8
BLACK
10
117.025
20
-109.1
11
117.025
21
-108.9
0
ARC
8
BLACK
10
117.1
20
-108.9
40
0.075
50
360
51
540
0
ARC
8
BLACK
10
117.1
20
-109.1
40
0.075
50
180
51
360
0
LINE
8
BLACK
10
117.1
20
-108.975
11
117.5
21
-108.975
0
LINE
8
BLACK
10
117.1
20
-108.825
11
117.5
21
-108.825
0
ARC
8
BLACK
10
117.5
20
-108.9
40
0.075
50
270
51
450
0
ARC
8
BLACK
10
117.1
20
-108.9
40
0.075
50
90
51
270
0
LINE
8
BLACK
10
117.575
20
-109.1
11
117.575
21
-108.9
0
LINE
8
BLACK
10
117.425
20
-109.1
11
117.425
21
-108.9
0
ARC
8
BLACK
10
117.5
20
-108.9
40
0.075
50
360
51
540
0
ARC
8
BLACK
10
117.5
20
-109.1
40
0.075
50
180
51
360
0
LINE
8
BLACK
10
117.1
20
-109.175
11
117.5
21
-109.175
0
LINE
8
BLACK
10
117.1
20
-109.025
11
117.5
21
-109.025
0
ARC
8
BLACK
10
117.5
20
-109.1
40
0.075
50
270
51
450
0
ARC
8
BLACK
10
117.1
20
-109.1
40
0.075
50
90
51
270
0
LINE
8
BLACK
10
117.175
20
-100.1
11
117.175
21
-99.9
0
LINE
8
BLACK
10
117.025
20
-100.1
11
117.025
21
-99.9
0
ARC
8
BLACK
10
117.1
20
-99.9
40
0.075
50
360
51
540
0
ARC
8
BLACK
10
117.1
20
-100.1
40
0.075
50
180
51
360
0
LINE
8
BLACK
10
117.1
20
-99.975
11
117.5
21
-99.975
0
LINE
8
BLACK
10
117.1
20
-99.825
11
117.5
21
-99.825
0
ARC
8
BLACK
10
117.5
20
-99.9
40
0.075
50
270
51
450
0
ARC
8
BLACK
10
117.1
20
-99.9
40
0.075
50
90
51
270
0
LINE
8
BLACK
10
117.575
20
-100.1
11
117.575
21
-99.9
0
LINE
8
BLACK
10
117.425
20
-100.1
11
117.425
21
-99.9
0
ARC
8
BLACK
10
117.5
20
-99.9
40
0.075
50
360
51
540
0
ARC
8
BLACK
10
117.5
20
-100.1
40
0.075
50
180
51
360
0
LINE
8
BLACK
10
117.1
20
-100.175
11
117.5
21
-100.175
0
LINE
8
BLACK
10
117.1
20
-100.025
11
117.5
21
-100.025
0
ARC
8
BLACK
10
117.5
20
-100.1
40
0.075
50
270
51
450
0
ARC
8
BLACK
10
117.1
20
-100.1
40
0.075
50
90
51
270
0
LINE
8
BLACK
10
135.175
20
-127.1
11
135.175
21
-126.9
0
LINE
8
BLACK
10
135.025
20
-127.1
11
135.025
21
-126.9
0
ARC
8
BLACK
10
135.1
20
-126.9
40
0.075
50
360
51
540
0
ARC
8
BLACK
10
135.1
20
-127.1
40
0.075
50
180
51
360
0
LINE
8
BLACK
10
135.1
20
-126.975
11
135.5
21
-126.975
0
LINE
8
BLACK
10
135.1
20
-126.825
11
135.5
21
-126.825
0
ARC
8
BLACK
10
135.5
20
-126.9
40
0.075
50
270
51
450
0
ARC
8
BLACK
10
135.1
20
-126.9
40
0.075
50
90
51
270
0
LINE
8
BLACK
10
135.575
20
-127.1
11
135.575
21
-126.9
0
LINE
8
BLACK
10
135.425
20
-127.1
11
135.425
21
-126.9
0
ARC
8
BLACK
10
135.5
20
-126.9
40
0.075
50
360
51
540
0
ARC
8
BLACK
10
135.5
20
-127.1
40
0.075
50
180
51
360
0
LINE
8
BLACK
10
135.1
20
-127.175
11
135.5
21
-127.175
0
LINE
8
BLACK
10
135.1
20
-127.025
11
135.5
21
-127.025
0
ARC
8
BLACK
10
135.5
20
-127.1
40
0.075
50
270
51
450
0
ARC
8
BLACK
10
135.1
20
-127.1
40
0.075
50
90
51
270
0
LINE
8
BLACK
10
135.175
20
-118.1
11
135.175
21
-117.9
0
LINE
8
BLACK
10
135.025
20
-118.1
11
135.025
21
-117.9
0
ARC
8
BLACK
10
135.1
20
-117.9
40
0.075
50
360
51
540
0
ARC
8
BLACK
10
135.1
20
-118.1
40
0.075
50
180
51
360
0
LINE
8
BLACK
10
135.1
20
-117.975
11
135.5
21
-117.975
0
LINE
8
BLACK
10
135.1
20
-117.825
11
135.5
21
-117.825
0
ARC
8
BLACK
10
135.5
20
-117.9
40
0.075
50
270
51
450
0
ARC
8
BLACK
10
135.1
20
-117.9
40
0.075
50
90
51
270
0
LINE
8
BLACK
10
135.575
20
-118.1
11
135.575
21
-117.9
0
LINE
8
BLACK
10
135.425
20
-118.1
11
135.425
21
-117.9
0
ARC
8
BLACK
10
135.5
20
-117.9
40
0.075
50
360
51
540
0
ARC
8
BLACK
10
135.5
20
-118.1
40
0.075
50
180
51
360
0
LINE
8
BLACK
10
135.1
20
-118.175
11
135.5
21
-118.175
0
LINE
8
BLACK
10
135.1
20
-118.025
11
135.5
21
-118.025
0
ARC
8
BLACK
10
135.5
20
-118.1
40
0.075
50
270
51
450
0
ARC
8
BLACK
10
135.1
20
-118.1
40
0.075
50
90
51
270
0
LINE
8
BLACK
10
198.175
20
-118.1
11
198.175
21
-117.9
0
LINE
8
BLACK
10
198.025
20
-118.1
11
198.025
21
-117.9
0
ARC
8
BLACK
10
198.1
20
-117.9
40
0.075
50
360
51
540
0
ARC
8
BLACK
10
198.1
20
-118.1
40
0.075
50
180
51
360
0
LINE
8
BLACK
10
198.1
20
-117.975
11
198.5
21
-117.975
0
LINE
8
BLACK
10
198.1
20
-117.825
11
198.5
21
-117.825
0
ARC
8
BLACK
10
198.5
20
-117.9
40
0.075
50
270
51
450
0
ARC
8
BLACK
10
198.1
20
-117.9
40
0.075
50
90
51
270
0
LINE
8
BLACK
10
198.575
20
-118.1
11
198.575
21
-117.9
0
LINE
8
BLACK
10
198.425
20
-118.1
11
198.425
21
-117.9
0
ARC
8
BLACK
10
198.5
20
-117.9
40
0.075
50
360
51
540
0
ARC
8
BLACK
10
198.5
20
-118.1
40
0.075
50
180
51
360
0
LINE
8
BLACK
10
198.1
20
-118.175
11
198.5
21
-118.175
0
LINE
8
BLACK
10
198.1
20
-118.025
11
198.5
21
-118.025
0
ARC
8
BLACK
10
198.5
20
-118.1
40
0.075
50
270
51
450
0
ARC
8
BLACK
10
198.1
20
-118.1
40
0.075
50
90
51
270
0
LINE
8
BLACK
10
135.175
20
-100.1
11
135.175
21
-99.9
0
LINE
8
BLACK
10
135.025
20
-100.1
11
135.025
21
-99.9
0
ARC
8
BLACK
10
135.1
20
-99.9
40
0.075
50
360
51
540
0
ARC
8
BLACK
10
135.1
20
-100.1
40
0.075
50
180
51
360
0
LINE
8
BLACK
10
135.1
20
-99.975
11
135.5
21
-99.975
0
LINE
8
BLACK
10
135.1
20
-99.825
11
135.5
21
-99.825
0
ARC
8
BLACK
10
135.5
20
-99.9
40
0.075
50
270
51
450
0
ARC
8
BLACK
10
135.1
20
-99.9
40
0.075
50
90
51
270
0
LINE
8
BLACK
10
135.575
20
-100.1
11
135.575
21
-99.9
0
LINE
8
BLACK
10
135.425
20
-100.1
11
135.425
21
-99.9
0
ARC
8
BLACK
10
135.5
20
-99.9
40
0.075
50
360
51
540
0
ARC
8
BLACK
10
135.5
20
-100.1
40
0.075
50
180
51
360
0
LINE
8
BLACK
10
135.1
20
-100.175
11
135.5
21
-100.175
0
LINE
8
BLACK
10
135.1
20
-100.025
11
135.5
21
-100.025
0
ARC
8
BLACK
10
135.5
20
-100.1
40
0.075
50
270
51
450
0
ARC
8
BLACK
10
135.1
20
-100.1
40
0.075
50
90
51
270
0
LINE
8
BLACK
10
108.175
20
-127.1
11
108.175
21
-126.9
0
LINE
8
BLACK
10
108.025
20
-127.1
11
108.025
21
-126.9
0
ARC
8
BLACK
10
108.1
20
-126.9
40
0.075
50
360
51
540
0
ARC
8
BLACK
10
108.1
20
-127.1
40
0.075
50
180
51
360
0
LINE
8
BLACK
10
108.1
20
-126.975
11
108.5
21
-126.975
0
LINE
8
BLACK
10
108.1
20
-126.825
11
108.5
21
-126.825
0
ARC
8
BLACK
10
108.5
20
-126.9
40
0.075
50
270
51
450
0
ARC
8
BLACK
10
108.1
20
-126.9
40
0.075
50
90
51
270
0
LINE
8
BLACK
10
108.575
20
-127.1
11
108.575
21
-126.9
0
LINE
8
BLACK
10
108.425
20
-127.1
11
108.425
21
-126.9
0
ARC
8
BLACK
10
108.5
20
-126.9
40
0.075
50
360
51
540
0
ARC
8
BLACK
10
108.5
20
-127.1
40
0.075
50
180
51
360
0
LINE
8
BLACK
10
108.1
20
-127.175
11
108.5
21
-127.175
0
LINE
8
BLACK
10
108.1
20
-127.025
11
108.5
21
-127.025
0
ARC
8
BLACK
10
108.5
20
-127.1
40
0.075
50
270
51
450
0
ARC
8
BLACK
10
108.1
20
-127.1
40
0.075
50
90
51
270
0
LINE
8
BLACK
10
108.175
20
-118.1
11
108.175
21
-117.9
0
LINE
8
BLACK
10
108.025
20
-118.1
11
108.025
21
-117.9
0
ARC
8
BLACK
10
108.1
20
-117.9
40
0.075
50
360
51
540
0
ARC
8
BLACK
10
108.1
20
-118.1
40
0.075
50
180
51
360
0
LINE
8
BLACK
10
108.1
20
-117.975
11
108.5
21
-117.975
0
LINE
8
BLACK
10
108.1
20
-117.825
11
108.5
21
-117.825
0
ARC
8
BLACK
10
108.5
20
-117.9
40
0.075
50
270
51
450
0
ARC
8
BLACK
10
108.1
20
-117.9
40
0.075
50
90
51
270
0
LINE
8
BLACK
10
108.575
20
-118.1
11
108.575
21
-117.9
0
LINE
8
BLACK
10
108.425
20
-118.1
11
108.425
21
-117.9
0
ARC
8
BLACK
10
108.5
20
-117.9
40
0.075
50
360
51
540
0
ARC
8
BLACK
10
108.5
20
-118.1
40
0.075
50
180
51
360
0
LINE
8
BLACK
10
108.1
20
-118.175
11
108.5
21
-118.175
0
LINE
8
BLACK
10
108.1
20
-118.025
11
108.5
21
-118.025
0
ARC
8
BLACK
10
108.5
20
-118.1
40
0.075
50
270
51
450
0
ARC
8
BLACK
10
108.1
20
-118.1
40
0.075
50
90
51
270
0
LINE
8
BLACK
10
108.175
20
-109.1
11
108.175
21
-108.9
0
LINE
8
BLACK
10
108.025
20
-109.1
11
108.025
21
-108.9
0
ARC
8
BLACK
10
108.1
20
-108.9
40
0.075
50
360
51
540
0
ARC
8
BLACK
10
108.1
20
-109.1
40
0.075
50
180
51
360
0
LINE
8
BLACK
10
108.1
20
-108.975
11
108.5
21
-108.975
0
LINE
8
BLACK
10
108.1
20
-108.825
11
108.5
21
-108.825
0
ARC
8
BLACK
10
108.5
20
-108.9
40
0.075
50
270
51
450
0
ARC
8
BLACK
10
108.1
20
-108.9
40
0.075
50
90
51
270
0
LINE
8
BLACK
10
108.575
20
-109.1
11
108.575
21
-108.9
0
LINE
8
BLACK
10
108.425
20
-109.1
11
108.425
21
-108.9
0
ARC
8
BLACK
10
108.5
20
-108.9
40
0.075
50
360
51
540
0
ARC
8
BLACK
10
108.5
20
-109.1
40
0.075
50
180
51
360
0
LINE
8
BLACK
10
108.1
20
-109.175
11
108.5
21
-109.175
0
LINE
8
BLACK
10
108.1
20
-109.025
11
108.5
21
-109.025
0
ARC
8
BLACK
10
108.5
20
-109.1
40
0.075
50
270
51
450
0
ARC
8
BLACK
10
108.1
20
-109.1
40
0.075
50
90
51
270
0
LINE
8
BLACK
10
108.175
20
-100.1
11
108.175
21
-99.9
0
LINE
8
BLACK
10
108.025
20
-100.1
11
108.025
21
-99.9
0
ARC
8
BLACK
10
108.1
20
-99.9
40
0.075
50
360
51
540
0
ARC
8
BLACK
10
108.1
20
-100.1
40
0.075
50
180
51
360
0
LINE
8
BLACK
10
108.1
20
-99.975
11
108.5
21
-99.975
0
LINE
8
BLACK
10
108.1
20
-99.825
11
108.5
21
-99.825
0
ARC
8
BLACK
10
108.5
20
-99.9
40
0.075
50
270
51
450
0
ARC
8
BLACK
10
108.1
20
-99.9
40
0.075
50
90
51
270
0
LINE
8
BLACK
10
108.575
20
-100.1
11
108.575
21
-99.9
0
LINE
8
BLACK
10
108.425
20
-100.1
11
108.425
21
-99.9
0
ARC
8
BLACK
10
108.5
20
-99.9
40
0.075
50
360
51
540
0
ARC
8
BLACK
10
108.5
20
-100.1
40
0.075
50
180
51
360
0
LINE
8
BLACK
10
108.1
20
-100.175
11
108.5
21
-100.175
0
LINE
8
BLACK
10
108.1
20
-100.025
11
108.5
21
-100.025
0
ARC
8
BLACK
10
108.5
20
-100.1
40
0.075
50
270
51
450
0
ARC
8
BLACK
10
108.1
20
-100.1
40
0.075
50
90
51
270
0
LINE
8
BLACK
10
126.175
20
-127.1
11
126.175
21
-126.9
0
LINE
8
BLACK
10
126.025
20
-127.1
11
126.025
21
-126.9
0
ARC
8
BLACK
10
126.1
20
-126.9
40
0.075
50
360
51
540
0
ARC
8
BLACK
10
126.1
20
-127.1
40
0.075
50
180
51
360
0
LINE
8
BLACK
10
126.1
20
-126.975
11
126.5
21
-126.975
0
LINE
8
BLACK
10
126.1
20
-126.825
11
126.5
21
-126.825
0
ARC
8
BLACK
10
126.5
20
-126.9
40
0.075
50
270
51
450
0
ARC
8
BLACK
10
126.1
20
-126.9
40
0.075
50
90
51
270
0
LINE
8
BLACK
10
126.575
20
-127.1
11
126.575
21
-126.9
0
LINE
8
BLACK
10
126.425
20
-127.1
11
126.425
21
-126.9
0
ARC
8
BLACK
10
126.5
20
-126.9
40
0.075
50
360
51
540
0
ARC
8
BLACK
10
126.5
20
-127.1
40
0.075
50
180
51
360
0
LINE
8
BLACK
10
126.1
20
-127.175
11
126.5
21
-127.175
0
LINE
8
BLACK
10
126.1
20
-127.025
11
126.5
21
-127.025
0
ARC
8
BLACK
10
126.5
20
-127.1
40
0.075
50
270
51
450
0
ARC
8
BLACK
10
126.1
20
-127.1
40
0.075
50
90
51
270
0
LINE
8
BLACK
10
126.175
20
-118.1
11
126.175
21
-117.9
0
LINE
8
BLACK
10
126.025
20
-118.1
11
126.025
21
-117.9
0
ARC
8
BLACK
10
126.1
20
-117.9
40
0.075
50
360
51
540
0
ARC
8
BLACK
10
126.1
20
-118.1
40
0.075
50
180
51
360
0
LINE
8
BLACK
10
126.1
20
-117.975
11
126.5
21
-117.975
0
LINE
8
BLACK
10
126.1
20
-117.825
11
126.5
21
-117.825
0
ARC
8
BLACK
10
126.5
20
-117.9
40
0.075
50
270
51
450
0
ARC
8
BLACK
10
126.1
20
-117.9
40
0.075
50
90
51
270
0
LINE
8
BLACK
10
126.575
20
-118.1
11
126.575
21
-117.9
0
LINE
8
BLACK
10
126.425
20
-118.1
11
126.425
21
-117.9
0
ARC
8
BLACK
10
126.5
20
-117.9
40
0.075
50
360
51
540
0
ARC
8
BLACK
10
126.5
20
-118.1
40
0.075
50
180
51
360
0
LINE
8
BLACK
10
126.1
20
-118.175
11
126.5
21
-118.175
0
LINE
8
BLACK
10
126.1
20
-118.025
11
126.5
21
-118.025
0
ARC
8
BLACK
10
126.5
20
-118.1
40
0.075
50
270
51
450
0
ARC
8
BLACK
10
126.1
20
-118.1
40
0.075
50
90
51
270
0
LINE
8
BLACK
10
126.175
20
-109.1
11
126.175
21
-108.9
0
LINE
8
BLACK
10
126.025
20
-109.1
11
126.025
21
-108.9
0
ARC
8
BLACK
10
126.1
20
-108.9
40
0.075
50
360
51
540
0
ARC
8
BLACK
10
126.1
20
-109.1
40
0.075
50
180
51
360
0
LINE
8
BLACK
10
126.1
20
-108.975
11
126.5
21
-108.975
0
LINE
8
BLACK
10
126.1
20
-108.825
11
126.5
21
-108.825
0
ARC
8
BLACK
10
126.5
20
-108.9
40
0.075
50
270
51
450
0
ARC
8
BLACK
10
126.1
20
-108.9
40
0.075
50
90
51
270
0
LINE
8
BLACK
10
126.575
20
-109.1
11
126.575
21
-108.9
0
LINE
8
BLACK
10
126.425
20
-109.1
11
126.425
21
-108.9
0
ARC
8
BLACK
10
126.5
20
-108.9
40
0.075
50
360
51
540
0
ARC
8
BLACK
10
126.5
20
-109.1
40
0.075
50
180
51
360
0
LINE
8
BLACK
10
126.1
20
-109.175
11
126.5
21
-109.175
0
LINE
8
BLACK
10
126.1
20
-109.025
11
126.5
21
-109.025
0
ARC
8
BLACK
10
126.5
20
-109.1
40
0.075
50
270
51
450
0
ARC
8
BLACK
10
126.1
20
-109.1
40
0.075
50
90
51
270
0
LINE
8
BLACK
10
126.175
20
-100.1
11
126.175
21
-99.9
0
LINE
8
BLACK
10
126.025
20
-100.1
11
126.025
21
-99.9
0
ARC
8
BLACK
10
126.1
20
-99.9
40
0.075
50
360
51
540
0
ARC
8
BLACK
10
126.1
20
-100.1
40
0.075
50
180
51
360
0
LINE
8
BLACK
10
126.1
20
-99.975
11
126.5
21
-99.975
0
LINE
8
BLACK
10
126.1
20
-99.825
11
126.5
21
-99.825
0
ARC
8
BLACK
10
126.5
20
-99.9
40
0.075
50
270
51
450
0
ARC
8
BLACK
10
126.1
20
-99.9
40
0.075
50
90
51
270
0
LINE
8
BLACK
10
126.575
20
-100.1
11
126.575
21
-99.9
0
LINE
8
BLACK
10
126.425
20
-100.1
11
126.425
21
-99.9
0
ARC
8
BLACK
10
126.5
20
-99.9
40
0.075
50
360
51
540
0
ARC
8
BLACK
10
126.5
20
-100.1
40
0.075
50
180
51
360
0
LINE
8
BLACK
10
126.1
20
-100.175
11
126.5
21
-100.175
0
LINE
8
BLACK
10
126.1
20
-100.025
11
126.5
21
-100.025
0
ARC
8
BLACK
10
126.5
20
-100.1
40
0.075
50
270
51
450
0
ARC
8
BLACK
10
126.1
20
-100.1
40
0.075
50
90
51
270
0
LINE
8
BLACK
10
144.175
20
-127.1
11
144.175
21
-126.9
0
LINE
8
BLACK
10
144.025
20
-127.1
11
144.025
21
-126.9
0
ARC
8
BLACK
10
144.1
20
-126.9
40
0.075
50
360
51
540
0
ARC
8
BLACK
10
144.1
20
-127.1
40
0.075
50
180
51
360
0
LINE
8
BLACK
10
144.1
20
-126.975
11
144.5
21
-126.975
0
LINE
8
BLACK
10
144.1
20
-126.825
11
144.5
21
-126.825
0
ARC
8
BLACK
10
144.5
20
-126.9
40
0.075
50
270
51
450
0
ARC
8
BLACK
10
144.1
20
-126.9
40
0.075
50
90
51
270
0
LINE
8
BLACK
10
144.575
20
-127.1
11
144.575
21
-126.9
0
LINE
8
BLACK
10
144.425
20
-127.1
11
144.425
21
-126.9
0
ARC
8
BLACK
10
144.5
20
-126.9
40
0.075
50
360
51
540
0
ARC
8
BLACK
10
144.5
20
-127.1
40
0.075
50
180
51
360
0
LINE
8
BLACK
10
144.1
20
-127.175
11
144.5
21
-127.175
0
LINE
8
BLACK
10
144.1
20
-127.025
11
144.5
21
-127.025
0
ARC
8
BLACK
10
144.5
20
-127.1
40
0.075
50
270
51
450
0
ARC
8
BLACK
10
144.1
20
-127.1
40
0.075
50
90
51
270
0
LINE
8
BLACK
10
162.175
20
-118.1
11
162.175
21
-117.9
0
LINE
8
BLACK
10
162.025
20
-118.1
11
162.025
21
-117.9
0
ARC
8
BLACK
10
162.1
20
-117.9
40
0.075
50
360
51
540
0
ARC
8
BLACK
10
162.1
20
-118.1
40
0.075
50
180
51
360
0
LINE
8
BLACK
10
162.1
20
-117.975
11
162.5
21
-117.975
0
LINE
8
BLACK
10
162.1
20
-117.825
11
162.5
21
-117.825
0
ARC
8
BLACK
10
162.5
20
-117.9
40
0.075
50
270
51
450
0
ARC
8
BLACK
10
162.1
20
-117.9
40
0.075
50
90
51
270
0
LINE
8
BLACK
10
162.575
20
-118.1
11
162.575
21
-117.9
0
LINE
8
BLACK
10
162.425
20
-118.1
11
162.425
21
-117.9
0
ARC
8
BLACK
10
162.5
20
-117.9
40
0.075
50
360
51
540
0
ARC
8
BLACK
10
162.5
20
-118.1
40
0.075
50
180
51
360
0
LINE
8
BLACK
10
162.1
20
-118.175
11
162.5
21
-118.175
0
LINE
8
BLACK
10
162.1
20
-118.025
11
162.5
21
-118.025
0
ARC
8
BLACK
10
162.5
20
-118.1
40
0.075
50
270
51
450
0
ARC
8
BLACK
10
162.1
20
-118.1
40
0.075
50
90
51
270
0
LINE
8
BLACK
10
171.175
20
-163.1
11
171.175
21
-162.9
0
LINE
8
BLACK
10
171.025
20
-163.1
11
171.025
21
-162.9
0
ARC
8
BLACK
10
171.1
20
-162.9
40
0.075
50
360
51
540
0
ARC
8
BLACK
10
171.1
20
-163.1
40
0.075
50
180
51
360
0
LINE
8
BLACK
10
171.1
20
-162.975
11
171.5
21
-162.975
0
LINE
8
BLACK
10
171.1
20
-162.825
11
171.5
21
-162.825
0
ARC
8
BLACK
10
171.5
20
-162.9
40
0.075
50
270
51
450
0
ARC
8
BLACK
10
171.1
20
-162.9
40
0.075
50
90
51
270
0
LINE
8
BLACK
10
171.575
20
-163.1
11
171.575
21
-162.9
0
LINE
8
BLACK
10
171.425
20
-163.1
11
171.425
21
-162.9
0
ARC
8
BLACK
10
171.5
20
-162.9
40
0.075
50
360
51
540
0
ARC
8
BLACK
10
171.5
20
-163.1
40
0.075
50
180
51
360
0
LINE
8
BLACK
10
171.1
20
-163.175
11
171.5
21
-163.175
0
LINE
8
BLACK
10
171.1
20
-163.025
11
171.5
21
-163.025
0
ARC
8
BLACK
10
171.5
20
-163.1
40
0.075
50
270
51
450
0
ARC
8
BLACK
10
171.1
20
-163.1
40
0.075
50
90
51
270
0
CIRCLE
8
BLACK
10
207
20
-158.5
40
2.286
0
CIRCLE
8
BLACK
10
207
20
-104.5
40
2.286
0
CIRCLE
8
BLACK
10
71
20
-158.5
40
2.286
0
CIRCLE
8
BLACK
10
93.5
20
-158.5
40
2.286
0
CIRCLE
8
BLACK
10
93.5
20
-104.5
40
2.286
0
CIRCLE
8
BLACK
10
71
20
-104.5
40
2.286
  0
ENDSEC
  0
EOF
