  0
SECTION
  2
HEADER
  9
$ANGBASE
  50
0.0
  9
$ANGDIR
  70
  1
  9
$MEASUREMENT
  70
0
  0
ENDSEC
  0
SECTION
  2
TABLES
  0
TABLE
  2
LTYPE
  70
1
  0
LTYPE
  2
CONTINUOUS
  70
0
  3
Solid line
  72
65
  73
0
  40
0.0
  0
ENDTAB
  0
TABLE
  2
STYLE
  70
4
  0
STYLE
  2
KICAD
  70
0
  40
0
  41
1
  42
1
  50
0
  71
0
  3
isocp.shx
  0
STYLE
  2
KICADB
  70
0
  40
0
  41
1
  42
1
  50
0
  71
0
  3
isocp.shx
  0
STYLE
  2
KICADI
  70
0
  40
0
  41
1
  42
1
  50
15
  71
0
  3
isocp.shx
  0
STYLE
  2
KICADBI
  70
0
  40
0
  41
1
  42
1
  50
15
  71
0
  3
isocp.shx
  0
ENDTAB
  0
TABLE
  2
LAYER
  70
24
  0
LAYER
  2
BLACK
  70
0
  62
250
  6
CONTINUOUS
  0
LAYER
  2
BLUE
  70
0
  62
5
  6
CONTINUOUS
  0
LAYER
  2
GREEN
  70
0
  62
3
  6
CONTINUOUS
  0
LAYER
  2
CYAN
  70
0
  62
4
  6
CONTINUOUS
  0
LAYER
  2
RED
  70
0
  62
1
  6
CONTINUOUS
  0
LAYER
  2
MAGENTA
  70
0
  62
6
  6
CONTINUOUS
  0
LAYER
  2
BROWN
  70
0
  62
54
  6
CONTINUOUS
  0
LAYER
  2
LIGHTGRAY
  70
0
  62
9
  6
CONTINUOUS
  0
LAYER
  2
DARKGRAY
  70
0
  62
8
  6
CONTINUOUS
  0
LAYER
  2
LIGHTBLUE
  70
0
  62
171
  6
CONTINUOUS
  0
LAYER
  2
LIGHTGREEN
  70
0
  62
91
  6
CONTINUOUS
  0
LAYER
  2
LIGHTCYAN
  70
0
  62
131
  6
CONTINUOUS
  0
LAYER
  2
LIGHTRED
  70
0
  62
11
  6
CONTINUOUS
  0
LAYER
  2
LIGHTMAGENTA
  70
0
  62
221
  6
CONTINUOUS
  0
LAYER
  2
YELLOW
  70
0
  62
2
  6
CONTINUOUS
  0
LAYER
  2
WHITE
  70
0
  62
7
  6
CONTINUOUS
  0
LAYER
  2
DARKDARKGRAY
  70
0
  62
251
  6
CONTINUOUS
  0
LAYER
  2
DARKBLUE
  70
0
  62
178
  6
CONTINUOUS
  0
LAYER
  2
DARKGREEN
  70
0
  62
98
  6
CONTINUOUS
  0
LAYER
  2
DARKCYAN
  70
0
  62
138
  6
CONTINUOUS
  0
LAYER
  2
DARKRED
  70
0
  62
18
  6
CONTINUOUS
  0
LAYER
  2
DARKMAGENTA
  70
0
  62
228
  6
CONTINUOUS
  0
LAYER
  2
DARKBROWN
  70
0
  62
58
  6
CONTINUOUS
  0
LAYER
  2
LIGHTYELLOW
  70
0
  62
51
  6
CONTINUOUS
  0
ENDTAB
  0
ENDSEC
  0
SECTION
  2
ENTITIES
0
LINE
8
BLACK
10
199.6
20
-99.225
11
199.6
21
-99.825
0
LINE
8
BLACK
10
199.6
20
-99.825
11
200.8
21
-99.825
0
LINE
8
BLACK
10
200.8
20
-99.825
11
200.8
21
-99.225
0
LINE
8
BLACK
10
200.8
20
-99.225
11
199.6
21
-99.225
0
LINE
8
BLACK
10
199.6
20
-100.175
11
199.6
21
-100.775
0
LINE
8
BLACK
10
199.6
20
-100.775
11
200.8
21
-100.775
0
LINE
8
BLACK
10
200.8
20
-100.775
11
200.8
21
-100.175
0
LINE
8
BLACK
10
200.8
20
-100.175
11
199.6
21
-100.175
0
LINE
8
BLACK
10
197.2
20
-100.175
11
197.2
21
-100.775
0
LINE
8
BLACK
10
197.2
20
-100.775
11
198.4
21
-100.775
0
LINE
8
BLACK
10
198.4
20
-100.775
11
198.4
21
-100.175
0
LINE
8
BLACK
10
198.4
20
-100.175
11
197.2
21
-100.175
0
LINE
8
BLACK
10
197.2
20
-99.225
11
197.2
21
-99.825
0
LINE
8
BLACK
10
197.2
20
-99.825
11
198.4
21
-99.825
0
LINE
8
BLACK
10
198.4
20
-99.825
11
198.4
21
-99.225
0
LINE
8
BLACK
10
198.4
20
-99.225
11
197.2
21
-99.225
0
CIRCLE
8
BLACK
10
69
20
-127.7
40
0.8
0
CIRCLE
8
BLACK
10
69
20
-151.85
40
0.8
0
LINE
8
BLACK
10
72.032
20
-108.198
11
70.508
21
-108.198
0
LINE
8
BLACK
10
70.508
20
-108.198
11
70.508
21
-109.722
0
LINE
8
BLACK
10
70.508
20
-109.722
11
72.032
21
-109.722
0
LINE
8
BLACK
10
72.032
20
-109.722
11
72.032
21
-108.198
0
CIRCLE
8
BLACK
10
68.73
20
-108.96
40
0.762
0
CIRCLE
8
BLACK
10
71.27
20
-111.5
40
0.762
0
CIRCLE
8
BLACK
10
68.73
20
-111.5
40
0.762
0
CIRCLE
8
BLACK
10
71.27
20
-114.04
40
0.762
0
CIRCLE
8
BLACK
10
68.73
20
-114.04
40
0.762
0
LINE
8
BLACK
10
68.238
20
-123.302
11
69.762
21
-123.302
0
LINE
8
BLACK
10
69.762
20
-123.302
11
69.762
21
-121.778
0
LINE
8
BLACK
10
69.762
20
-121.778
11
68.238
21
-121.778
0
LINE
8
BLACK
10
68.238
20
-121.778
11
68.238
21
-123.302
0
CIRCLE
8
BLACK
10
69
20
-120
40
0.762
0
CIRCLE
8
BLACK
10
69
20
-117.46
40
0.762
0
LINE
8
BLACK
10
69.762
20
-162.468
11
68.238
21
-162.468
0
LINE
8
BLACK
10
68.238
20
-162.468
11
68.238
21
-163.992
0
LINE
8
BLACK
10
68.238
20
-163.992
11
69.762
21
-163.992
0
LINE
8
BLACK
10
69.762
20
-163.992
11
69.762
21
-162.468
0
CIRCLE
8
BLACK
10
69
20
-165.77
40
0.762
0
LINE
8
BLACK
10
199.6
20
-108.225
11
199.6
21
-108.825
0
LINE
8
BLACK
10
199.6
20
-108.825
11
200.8
21
-108.825
0
LINE
8
BLACK
10
200.8
20
-108.825
11
200.8
21
-108.225
0
LINE
8
BLACK
10
200.8
20
-108.225
11
199.6
21
-108.225
0
LINE
8
BLACK
10
199.6
20
-109.175
11
199.6
21
-109.775
0
LINE
8
BLACK
10
199.6
20
-109.775
11
200.8
21
-109.775
0
LINE
8
BLACK
10
200.8
20
-109.775
11
200.8
21
-109.175
0
LINE
8
BLACK
10
200.8
20
-109.175
11
199.6
21
-109.175
0
LINE
8
BLACK
10
197.2
20
-109.175
11
197.2
21
-109.775
0
LINE
8
BLACK
10
197.2
20
-109.775
11
198.4
21
-109.775
0
LINE
8
BLACK
10
198.4
20
-109.775
11
198.4
21
-109.175
0
LINE
8
BLACK
10
198.4
20
-109.175
11
197.2
21
-109.175
0
LINE
8
BLACK
10
197.2
20
-108.225
11
197.2
21
-108.825
0
LINE
8
BLACK
10
197.2
20
-108.825
11
198.4
21
-108.825
0
LINE
8
BLACK
10
198.4
20
-108.825
11
198.4
21
-108.225
0
LINE
8
BLACK
10
198.4
20
-108.225
11
197.2
21
-108.225
0
LINE
8
BLACK
10
136.6
20
-162.225
11
136.6
21
-162.825
0
LINE
8
BLACK
10
136.6
20
-162.825
11
137.8
21
-162.825
0
LINE
8
BLACK
10
137.8
20
-162.825
11
137.8
21
-162.225
0
LINE
8
BLACK
10
137.8
20
-162.225
11
136.6
21
-162.225
0
LINE
8
BLACK
10
136.6
20
-163.175
11
136.6
21
-163.775
0
LINE
8
BLACK
10
136.6
20
-163.775
11
137.8
21
-163.775
0
LINE
8
BLACK
10
137.8
20
-163.775
11
137.8
21
-163.175
0
LINE
8
BLACK
10
137.8
20
-163.175
11
136.6
21
-163.175
0
LINE
8
BLACK
10
134.2
20
-163.175
11
134.2
21
-163.775
0
LINE
8
BLACK
10
134.2
20
-163.775
11
135.4
21
-163.775
0
LINE
8
BLACK
10
135.4
20
-163.775
11
135.4
21
-163.175
0
LINE
8
BLACK
10
135.4
20
-163.175
11
134.2
21
-163.175
0
LINE
8
BLACK
10
134.2
20
-162.225
11
134.2
21
-162.825
0
LINE
8
BLACK
10
134.2
20
-162.825
11
135.4
21
-162.825
0
LINE
8
BLACK
10
135.4
20
-162.825
11
135.4
21
-162.225
0
LINE
8
BLACK
10
135.4
20
-162.225
11
134.2
21
-162.225
0
LINE
8
BLACK
10
145.6
20
-135.225
11
145.6
21
-135.825
0
LINE
8
BLACK
10
145.6
20
-135.825
11
146.8
21
-135.825
0
LINE
8
BLACK
10
146.8
20
-135.825
11
146.8
21
-135.225
0
LINE
8
BLACK
10
146.8
20
-135.225
11
145.6
21
-135.225
0
LINE
8
BLACK
10
145.6
20
-136.175
11
145.6
21
-136.775
0
LINE
8
BLACK
10
145.6
20
-136.775
11
146.8
21
-136.775
0
LINE
8
BLACK
10
146.8
20
-136.775
11
146.8
21
-136.175
0
LINE
8
BLACK
10
146.8
20
-136.175
11
145.6
21
-136.175
0
LINE
8
BLACK
10
143.2
20
-136.175
11
143.2
21
-136.775
0
LINE
8
BLACK
10
143.2
20
-136.775
11
144.4
21
-136.775
0
LINE
8
BLACK
10
144.4
20
-136.775
11
144.4
21
-136.175
0
LINE
8
BLACK
10
144.4
20
-136.175
11
143.2
21
-136.175
0
LINE
8
BLACK
10
143.2
20
-135.225
11
143.2
21
-135.825
0
LINE
8
BLACK
10
143.2
20
-135.825
11
144.4
21
-135.825
0
LINE
8
BLACK
10
144.4
20
-135.825
11
144.4
21
-135.225
0
LINE
8
BLACK
10
144.4
20
-135.225
11
143.2
21
-135.225
0
LINE
8
BLACK
10
145.6
20
-144.225
11
145.6
21
-144.825
0
LINE
8
BLACK
10
145.6
20
-144.825
11
146.8
21
-144.825
0
LINE
8
BLACK
10
146.8
20
-144.825
11
146.8
21
-144.225
0
LINE
8
BLACK
10
146.8
20
-144.225
11
145.6
21
-144.225
0
LINE
8
BLACK
10
145.6
20
-145.175
11
145.6
21
-145.775
0
LINE
8
BLACK
10
145.6
20
-145.775
11
146.8
21
-145.775
0
LINE
8
BLACK
10
146.8
20
-145.775
11
146.8
21
-145.175
0
LINE
8
BLACK
10
146.8
20
-145.175
11
145.6
21
-145.175
0
LINE
8
BLACK
10
143.2
20
-145.175
11
143.2
21
-145.775
0
LINE
8
BLACK
10
143.2
20
-145.775
11
144.4
21
-145.775
0
LINE
8
BLACK
10
144.4
20
-145.775
11
144.4
21
-145.175
0
LINE
8
BLACK
10
144.4
20
-145.175
11
143.2
21
-145.175
0
LINE
8
BLACK
10
143.2
20
-144.225
11
143.2
21
-144.825
0
LINE
8
BLACK
10
143.2
20
-144.825
11
144.4
21
-144.825
0
LINE
8
BLACK
10
144.4
20
-144.825
11
144.4
21
-144.225
0
LINE
8
BLACK
10
144.4
20
-144.225
11
143.2
21
-144.225
0
LINE
8
BLACK
10
145.6
20
-153.225
11
145.6
21
-153.825
0
LINE
8
BLACK
10
145.6
20
-153.825
11
146.8
21
-153.825
0
LINE
8
BLACK
10
146.8
20
-153.825
11
146.8
21
-153.225
0
LINE
8
BLACK
10
146.8
20
-153.225
11
145.6
21
-153.225
0
LINE
8
BLACK
10
145.6
20
-154.175
11
145.6
21
-154.775
0
LINE
8
BLACK
10
145.6
20
-154.775
11
146.8
21
-154.775
0
LINE
8
BLACK
10
146.8
20
-154.775
11
146.8
21
-154.175
0
LINE
8
BLACK
10
146.8
20
-154.175
11
145.6
21
-154.175
0
LINE
8
BLACK
10
143.2
20
-154.175
11
143.2
21
-154.775
0
LINE
8
BLACK
10
143.2
20
-154.775
11
144.4
21
-154.775
0
LINE
8
BLACK
10
144.4
20
-154.775
11
144.4
21
-154.175
0
LINE
8
BLACK
10
144.4
20
-154.175
11
143.2
21
-154.175
0
LINE
8
BLACK
10
143.2
20
-153.225
11
143.2
21
-153.825
0
LINE
8
BLACK
10
143.2
20
-153.825
11
144.4
21
-153.825
0
LINE
8
BLACK
10
144.4
20
-153.825
11
144.4
21
-153.225
0
LINE
8
BLACK
10
144.4
20
-153.225
11
143.2
21
-153.225
0
LINE
8
BLACK
10
145.6
20
-162.225
11
145.6
21
-162.825
0
LINE
8
BLACK
10
145.6
20
-162.825
11
146.8
21
-162.825
0
LINE
8
BLACK
10
146.8
20
-162.825
11
146.8
21
-162.225
0
LINE
8
BLACK
10
146.8
20
-162.225
11
145.6
21
-162.225
0
LINE
8
BLACK
10
145.6
20
-163.175
11
145.6
21
-163.775
0
LINE
8
BLACK
10
145.6
20
-163.775
11
146.8
21
-163.775
0
LINE
8
BLACK
10
146.8
20
-163.775
11
146.8
21
-163.175
0
LINE
8
BLACK
10
146.8
20
-163.175
11
145.6
21
-163.175
0
LINE
8
BLACK
10
143.2
20
-163.175
11
143.2
21
-163.775
0
LINE
8
BLACK
10
143.2
20
-163.775
11
144.4
21
-163.775
0
LINE
8
BLACK
10
144.4
20
-163.775
11
144.4
21
-163.175
0
LINE
8
BLACK
10
144.4
20
-163.175
11
143.2
21
-163.175
0
LINE
8
BLACK
10
143.2
20
-162.225
11
143.2
21
-162.825
0
LINE
8
BLACK
10
143.2
20
-162.825
11
144.4
21
-162.825
0
LINE
8
BLACK
10
144.4
20
-162.825
11
144.4
21
-162.225
0
LINE
8
BLACK
10
144.4
20
-162.225
11
143.2
21
-162.225
0
LINE
8
BLACK
10
127.6
20
-135.225
11
127.6
21
-135.825
0
LINE
8
BLACK
10
127.6
20
-135.825
11
128.8
21
-135.825
0
LINE
8
BLACK
10
128.8
20
-135.825
11
128.8
21
-135.225
0
LINE
8
BLACK
10
128.8
20
-135.225
11
127.6
21
-135.225
0
LINE
8
BLACK
10
127.6
20
-136.175
11
127.6
21
-136.775
0
LINE
8
BLACK
10
127.6
20
-136.775
11
128.8
21
-136.775
0
LINE
8
BLACK
10
128.8
20
-136.775
11
128.8
21
-136.175
0
LINE
8
BLACK
10
128.8
20
-136.175
11
127.6
21
-136.175
0
LINE
8
BLACK
10
125.2
20
-136.175
11
125.2
21
-136.775
0
LINE
8
BLACK
10
125.2
20
-136.775
11
126.4
21
-136.775
0
LINE
8
BLACK
10
126.4
20
-136.775
11
126.4
21
-136.175
0
LINE
8
BLACK
10
126.4
20
-136.175
11
125.2
21
-136.175
0
LINE
8
BLACK
10
125.2
20
-135.225
11
125.2
21
-135.825
0
LINE
8
BLACK
10
125.2
20
-135.825
11
126.4
21
-135.825
0
LINE
8
BLACK
10
126.4
20
-135.825
11
126.4
21
-135.225
0
LINE
8
BLACK
10
126.4
20
-135.225
11
125.2
21
-135.225
0
LINE
8
BLACK
10
127.6
20
-144.225
11
127.6
21
-144.825
0
LINE
8
BLACK
10
127.6
20
-144.825
11
128.8
21
-144.825
0
LINE
8
BLACK
10
128.8
20
-144.825
11
128.8
21
-144.225
0
LINE
8
BLACK
10
128.8
20
-144.225
11
127.6
21
-144.225
0
LINE
8
BLACK
10
127.6
20
-145.175
11
127.6
21
-145.775
0
LINE
8
BLACK
10
127.6
20
-145.775
11
128.8
21
-145.775
0
LINE
8
BLACK
10
128.8
20
-145.775
11
128.8
21
-145.175
0
LINE
8
BLACK
10
128.8
20
-145.175
11
127.6
21
-145.175
0
LINE
8
BLACK
10
125.2
20
-145.175
11
125.2
21
-145.775
0
LINE
8
BLACK
10
125.2
20
-145.775
11
126.4
21
-145.775
0
LINE
8
BLACK
10
126.4
20
-145.775
11
126.4
21
-145.175
0
LINE
8
BLACK
10
126.4
20
-145.175
11
125.2
21
-145.175
0
LINE
8
BLACK
10
125.2
20
-144.225
11
125.2
21
-144.825
0
LINE
8
BLACK
10
125.2
20
-144.825
11
126.4
21
-144.825
0
LINE
8
BLACK
10
126.4
20
-144.825
11
126.4
21
-144.225
0
LINE
8
BLACK
10
126.4
20
-144.225
11
125.2
21
-144.225
0
LINE
8
BLACK
10
127.6
20
-153.225
11
127.6
21
-153.825
0
LINE
8
BLACK
10
127.6
20
-153.825
11
128.8
21
-153.825
0
LINE
8
BLACK
10
128.8
20
-153.825
11
128.8
21
-153.225
0
LINE
8
BLACK
10
128.8
20
-153.225
11
127.6
21
-153.225
0
LINE
8
BLACK
10
127.6
20
-154.175
11
127.6
21
-154.775
0
LINE
8
BLACK
10
127.6
20
-154.775
11
128.8
21
-154.775
0
LINE
8
BLACK
10
128.8
20
-154.775
11
128.8
21
-154.175
0
LINE
8
BLACK
10
128.8
20
-154.175
11
127.6
21
-154.175
0
LINE
8
BLACK
10
125.2
20
-154.175
11
125.2
21
-154.775
0
LINE
8
BLACK
10
125.2
20
-154.775
11
126.4
21
-154.775
0
LINE
8
BLACK
10
126.4
20
-154.775
11
126.4
21
-154.175
0
LINE
8
BLACK
10
126.4
20
-154.175
11
125.2
21
-154.175
0
LINE
8
BLACK
10
125.2
20
-153.225
11
125.2
21
-153.825
0
LINE
8
BLACK
10
125.2
20
-153.825
11
126.4
21
-153.825
0
LINE
8
BLACK
10
126.4
20
-153.825
11
126.4
21
-153.225
0
LINE
8
BLACK
10
126.4
20
-153.225
11
125.2
21
-153.225
0
LINE
8
BLACK
10
127.6
20
-162.225
11
127.6
21
-162.825
0
LINE
8
BLACK
10
127.6
20
-162.825
11
128.8
21
-162.825
0
LINE
8
BLACK
10
128.8
20
-162.825
11
128.8
21
-162.225
0
LINE
8
BLACK
10
128.8
20
-162.225
11
127.6
21
-162.225
0
LINE
8
BLACK
10
127.6
20
-163.175
11
127.6
21
-163.775
0
LINE
8
BLACK
10
127.6
20
-163.775
11
128.8
21
-163.775
0
LINE
8
BLACK
10
128.8
20
-163.775
11
128.8
21
-163.175
0
LINE
8
BLACK
10
128.8
20
-163.175
11
127.6
21
-163.175
0
LINE
8
BLACK
10
125.2
20
-163.175
11
125.2
21
-163.775
0
LINE
8
BLACK
10
125.2
20
-163.775
11
126.4
21
-163.775
0
LINE
8
BLACK
10
126.4
20
-163.775
11
126.4
21
-163.175
0
LINE
8
BLACK
10
126.4
20
-163.175
11
125.2
21
-163.175
0
LINE
8
BLACK
10
125.2
20
-162.225
11
125.2
21
-162.825
0
LINE
8
BLACK
10
125.2
20
-162.825
11
126.4
21
-162.825
0
LINE
8
BLACK
10
126.4
20
-162.825
11
126.4
21
-162.225
0
LINE
8
BLACK
10
126.4
20
-162.225
11
125.2
21
-162.225
0
LINE
8
BLACK
10
136.6
20
-135.225
11
136.6
21
-135.825
0
LINE
8
BLACK
10
136.6
20
-135.825
11
137.8
21
-135.825
0
LINE
8
BLACK
10
137.8
20
-135.825
11
137.8
21
-135.225
0
LINE
8
BLACK
10
137.8
20
-135.225
11
136.6
21
-135.225
0
LINE
8
BLACK
10
136.6
20
-136.175
11
136.6
21
-136.775
0
LINE
8
BLACK
10
136.6
20
-136.775
11
137.8
21
-136.775
0
LINE
8
BLACK
10
137.8
20
-136.775
11
137.8
21
-136.175
0
LINE
8
BLACK
10
137.8
20
-136.175
11
136.6
21
-136.175
0
LINE
8
BLACK
10
134.2
20
-136.175
11
134.2
21
-136.775
0
LINE
8
BLACK
10
134.2
20
-136.775
11
135.4
21
-136.775
0
LINE
8
BLACK
10
135.4
20
-136.775
11
135.4
21
-136.175
0
LINE
8
BLACK
10
135.4
20
-136.175
11
134.2
21
-136.175
0
LINE
8
BLACK
10
134.2
20
-135.225
11
134.2
21
-135.825
0
LINE
8
BLACK
10
134.2
20
-135.825
11
135.4
21
-135.825
0
LINE
8
BLACK
10
135.4
20
-135.825
11
135.4
21
-135.225
0
LINE
8
BLACK
10
135.4
20
-135.225
11
134.2
21
-135.225
0
LINE
8
BLACK
10
136.6
20
-144.225
11
136.6
21
-144.825
0
LINE
8
BLACK
10
136.6
20
-144.825
11
137.8
21
-144.825
0
LINE
8
BLACK
10
137.8
20
-144.825
11
137.8
21
-144.225
0
LINE
8
BLACK
10
137.8
20
-144.225
11
136.6
21
-144.225
0
LINE
8
BLACK
10
136.6
20
-145.175
11
136.6
21
-145.775
0
LINE
8
BLACK
10
136.6
20
-145.775
11
137.8
21
-145.775
0
LINE
8
BLACK
10
137.8
20
-145.775
11
137.8
21
-145.175
0
LINE
8
BLACK
10
137.8
20
-145.175
11
136.6
21
-145.175
0
LINE
8
BLACK
10
134.2
20
-145.175
11
134.2
21
-145.775
0
LINE
8
BLACK
10
134.2
20
-145.775
11
135.4
21
-145.775
0
LINE
8
BLACK
10
135.4
20
-145.775
11
135.4
21
-145.175
0
LINE
8
BLACK
10
135.4
20
-145.175
11
134.2
21
-145.175
0
LINE
8
BLACK
10
134.2
20
-144.225
11
134.2
21
-144.825
0
LINE
8
BLACK
10
134.2
20
-144.825
11
135.4
21
-144.825
0
LINE
8
BLACK
10
135.4
20
-144.825
11
135.4
21
-144.225
0
LINE
8
BLACK
10
135.4
20
-144.225
11
134.2
21
-144.225
0
LINE
8
BLACK
10
136.6
20
-153.225
11
136.6
21
-153.825
0
LINE
8
BLACK
10
136.6
20
-153.825
11
137.8
21
-153.825
0
LINE
8
BLACK
10
137.8
20
-153.825
11
137.8
21
-153.225
0
LINE
8
BLACK
10
137.8
20
-153.225
11
136.6
21
-153.225
0
LINE
8
BLACK
10
136.6
20
-154.175
11
136.6
21
-154.775
0
LINE
8
BLACK
10
136.6
20
-154.775
11
137.8
21
-154.775
0
LINE
8
BLACK
10
137.8
20
-154.775
11
137.8
21
-154.175
0
LINE
8
BLACK
10
137.8
20
-154.175
11
136.6
21
-154.175
0
LINE
8
BLACK
10
134.2
20
-154.175
11
134.2
21
-154.775
0
LINE
8
BLACK
10
134.2
20
-154.775
11
135.4
21
-154.775
0
LINE
8
BLACK
10
135.4
20
-154.775
11
135.4
21
-154.175
0
LINE
8
BLACK
10
135.4
20
-154.175
11
134.2
21
-154.175
0
LINE
8
BLACK
10
134.2
20
-153.225
11
134.2
21
-153.825
0
LINE
8
BLACK
10
134.2
20
-153.825
11
135.4
21
-153.825
0
LINE
8
BLACK
10
135.4
20
-153.825
11
135.4
21
-153.225
0
LINE
8
BLACK
10
135.4
20
-153.225
11
134.2
21
-153.225
0
LINE
8
BLACK
10
154.6
20
-162.225
11
154.6
21
-162.825
0
LINE
8
BLACK
10
154.6
20
-162.825
11
155.8
21
-162.825
0
LINE
8
BLACK
10
155.8
20
-162.825
11
155.8
21
-162.225
0
LINE
8
BLACK
10
155.8
20
-162.225
11
154.6
21
-162.225
0
LINE
8
BLACK
10
154.6
20
-163.175
11
154.6
21
-163.775
0
LINE
8
BLACK
10
154.6
20
-163.775
11
155.8
21
-163.775
0
LINE
8
BLACK
10
155.8
20
-163.775
11
155.8
21
-163.175
0
LINE
8
BLACK
10
155.8
20
-163.175
11
154.6
21
-163.175
0
LINE
8
BLACK
10
152.2
20
-163.175
11
152.2
21
-163.775
0
LINE
8
BLACK
10
152.2
20
-163.775
11
153.4
21
-163.775
0
LINE
8
BLACK
10
153.4
20
-163.775
11
153.4
21
-163.175
0
LINE
8
BLACK
10
153.4
20
-163.175
11
152.2
21
-163.175
0
LINE
8
BLACK
10
152.2
20
-162.225
11
152.2
21
-162.825
0
LINE
8
BLACK
10
152.2
20
-162.825
11
153.4
21
-162.825
0
LINE
8
BLACK
10
153.4
20
-162.825
11
153.4
21
-162.225
0
LINE
8
BLACK
10
153.4
20
-162.225
11
152.2
21
-162.225
0
LINE
8
BLACK
10
118.6
20
-135.225
11
118.6
21
-135.825
0
LINE
8
BLACK
10
118.6
20
-135.825
11
119.8
21
-135.825
0
LINE
8
BLACK
10
119.8
20
-135.825
11
119.8
21
-135.225
0
LINE
8
BLACK
10
119.8
20
-135.225
11
118.6
21
-135.225
0
LINE
8
BLACK
10
118.6
20
-136.175
11
118.6
21
-136.775
0
LINE
8
BLACK
10
118.6
20
-136.775
11
119.8
21
-136.775
0
LINE
8
BLACK
10
119.8
20
-136.775
11
119.8
21
-136.175
0
LINE
8
BLACK
10
119.8
20
-136.175
11
118.6
21
-136.175
0
LINE
8
BLACK
10
116.2
20
-136.175
11
116.2
21
-136.775
0
LINE
8
BLACK
10
116.2
20
-136.775
11
117.4
21
-136.775
0
LINE
8
BLACK
10
117.4
20
-136.775
11
117.4
21
-136.175
0
LINE
8
BLACK
10
117.4
20
-136.175
11
116.2
21
-136.175
0
LINE
8
BLACK
10
116.2
20
-135.225
11
116.2
21
-135.825
0
LINE
8
BLACK
10
116.2
20
-135.825
11
117.4
21
-135.825
0
LINE
8
BLACK
10
117.4
20
-135.825
11
117.4
21
-135.225
0
LINE
8
BLACK
10
117.4
20
-135.225
11
116.2
21
-135.225
0
LINE
8
BLACK
10
118.6
20
-144.225
11
118.6
21
-144.825
0
LINE
8
BLACK
10
118.6
20
-144.825
11
119.8
21
-144.825
0
LINE
8
BLACK
10
119.8
20
-144.825
11
119.8
21
-144.225
0
LINE
8
BLACK
10
119.8
20
-144.225
11
118.6
21
-144.225
0
LINE
8
BLACK
10
118.6
20
-145.175
11
118.6
21
-145.775
0
LINE
8
BLACK
10
118.6
20
-145.775
11
119.8
21
-145.775
0
LINE
8
BLACK
10
119.8
20
-145.775
11
119.8
21
-145.175
0
LINE
8
BLACK
10
119.8
20
-145.175
11
118.6
21
-145.175
0
LINE
8
BLACK
10
116.2
20
-145.175
11
116.2
21
-145.775
0
LINE
8
BLACK
10
116.2
20
-145.775
11
117.4
21
-145.775
0
LINE
8
BLACK
10
117.4
20
-145.775
11
117.4
21
-145.175
0
LINE
8
BLACK
10
117.4
20
-145.175
11
116.2
21
-145.175
0
LINE
8
BLACK
10
116.2
20
-144.225
11
116.2
21
-144.825
0
LINE
8
BLACK
10
116.2
20
-144.825
11
117.4
21
-144.825
0
LINE
8
BLACK
10
117.4
20
-144.825
11
117.4
21
-144.225
0
LINE
8
BLACK
10
117.4
20
-144.225
11
116.2
21
-144.225
0
LINE
8
BLACK
10
118.6
20
-153.225
11
118.6
21
-153.825
0
LINE
8
BLACK
10
118.6
20
-153.825
11
119.8
21
-153.825
0
LINE
8
BLACK
10
119.8
20
-153.825
11
119.8
21
-153.225
0
LINE
8
BLACK
10
119.8
20
-153.225
11
118.6
21
-153.225
0
LINE
8
BLACK
10
118.6
20
-154.175
11
118.6
21
-154.775
0
LINE
8
BLACK
10
118.6
20
-154.775
11
119.8
21
-154.775
0
LINE
8
BLACK
10
119.8
20
-154.775
11
119.8
21
-154.175
0
LINE
8
BLACK
10
119.8
20
-154.175
11
118.6
21
-154.175
0
LINE
8
BLACK
10
116.2
20
-154.175
11
116.2
21
-154.775
0
LINE
8
BLACK
10
116.2
20
-154.775
11
117.4
21
-154.775
0
LINE
8
BLACK
10
117.4
20
-154.775
11
117.4
21
-154.175
0
LINE
8
BLACK
10
117.4
20
-154.175
11
116.2
21
-154.175
0
LINE
8
BLACK
10
116.2
20
-153.225
11
116.2
21
-153.825
0
LINE
8
BLACK
10
116.2
20
-153.825
11
117.4
21
-153.825
0
LINE
8
BLACK
10
117.4
20
-153.825
11
117.4
21
-153.225
0
LINE
8
BLACK
10
117.4
20
-153.225
11
116.2
21
-153.225
0
LINE
8
BLACK
10
118.6
20
-162.225
11
118.6
21
-162.825
0
LINE
8
BLACK
10
118.6
20
-162.825
11
119.8
21
-162.825
0
LINE
8
BLACK
10
119.8
20
-162.825
11
119.8
21
-162.225
0
LINE
8
BLACK
10
119.8
20
-162.225
11
118.6
21
-162.225
0
LINE
8
BLACK
10
118.6
20
-163.175
11
118.6
21
-163.775
0
LINE
8
BLACK
10
118.6
20
-163.775
11
119.8
21
-163.775
0
LINE
8
BLACK
10
119.8
20
-163.775
11
119.8
21
-163.175
0
LINE
8
BLACK
10
119.8
20
-163.175
11
118.6
21
-163.175
0
LINE
8
BLACK
10
116.2
20
-163.175
11
116.2
21
-163.775
0
LINE
8
BLACK
10
116.2
20
-163.775
11
117.4
21
-163.775
0
LINE
8
BLACK
10
117.4
20
-163.775
11
117.4
21
-163.175
0
LINE
8
BLACK
10
117.4
20
-163.175
11
116.2
21
-163.175
0
LINE
8
BLACK
10
116.2
20
-162.225
11
116.2
21
-162.825
0
LINE
8
BLACK
10
116.2
20
-162.825
11
117.4
21
-162.825
0
LINE
8
BLACK
10
117.4
20
-162.825
11
117.4
21
-162.225
0
LINE
8
BLACK
10
117.4
20
-162.225
11
116.2
21
-162.225
0
LINE
8
BLACK
10
109.6
20
-135.225
11
109.6
21
-135.825
0
LINE
8
BLACK
10
109.6
20
-135.825
11
110.8
21
-135.825
0
LINE
8
BLACK
10
110.8
20
-135.825
11
110.8
21
-135.225
0
LINE
8
BLACK
10
110.8
20
-135.225
11
109.6
21
-135.225
0
LINE
8
BLACK
10
109.6
20
-136.175
11
109.6
21
-136.775
0
LINE
8
BLACK
10
109.6
20
-136.775
11
110.8
21
-136.775
0
LINE
8
BLACK
10
110.8
20
-136.775
11
110.8
21
-136.175
0
LINE
8
BLACK
10
110.8
20
-136.175
11
109.6
21
-136.175
0
LINE
8
BLACK
10
107.2
20
-136.175
11
107.2
21
-136.775
0
LINE
8
BLACK
10
107.2
20
-136.775
11
108.4
21
-136.775
0
LINE
8
BLACK
10
108.4
20
-136.775
11
108.4
21
-136.175
0
LINE
8
BLACK
10
108.4
20
-136.175
11
107.2
21
-136.175
0
LINE
8
BLACK
10
107.2
20
-135.225
11
107.2
21
-135.825
0
LINE
8
BLACK
10
107.2
20
-135.825
11
108.4
21
-135.825
0
LINE
8
BLACK
10
108.4
20
-135.825
11
108.4
21
-135.225
0
LINE
8
BLACK
10
108.4
20
-135.225
11
107.2
21
-135.225
0
LINE
8
BLACK
10
109.6
20
-144.225
11
109.6
21
-144.825
0
LINE
8
BLACK
10
109.6
20
-144.825
11
110.8
21
-144.825
0
LINE
8
BLACK
10
110.8
20
-144.825
11
110.8
21
-144.225
0
LINE
8
BLACK
10
110.8
20
-144.225
11
109.6
21
-144.225
0
LINE
8
BLACK
10
109.6
20
-145.175
11
109.6
21
-145.775
0
LINE
8
BLACK
10
109.6
20
-145.775
11
110.8
21
-145.775
0
LINE
8
BLACK
10
110.8
20
-145.775
11
110.8
21
-145.175
0
LINE
8
BLACK
10
110.8
20
-145.175
11
109.6
21
-145.175
0
LINE
8
BLACK
10
107.2
20
-145.175
11
107.2
21
-145.775
0
LINE
8
BLACK
10
107.2
20
-145.775
11
108.4
21
-145.775
0
LINE
8
BLACK
10
108.4
20
-145.775
11
108.4
21
-145.175
0
LINE
8
BLACK
10
108.4
20
-145.175
11
107.2
21
-145.175
0
LINE
8
BLACK
10
107.2
20
-144.225
11
107.2
21
-144.825
0
LINE
8
BLACK
10
107.2
20
-144.825
11
108.4
21
-144.825
0
LINE
8
BLACK
10
108.4
20
-144.825
11
108.4
21
-144.225
0
LINE
8
BLACK
10
108.4
20
-144.225
11
107.2
21
-144.225
0
LINE
8
BLACK
10
109.6
20
-153.225
11
109.6
21
-153.825
0
LINE
8
BLACK
10
109.6
20
-153.825
11
110.8
21
-153.825
0
LINE
8
BLACK
10
110.8
20
-153.825
11
110.8
21
-153.225
0
LINE
8
BLACK
10
110.8
20
-153.225
11
109.6
21
-153.225
0
LINE
8
BLACK
10
109.6
20
-154.175
11
109.6
21
-154.775
0
LINE
8
BLACK
10
109.6
20
-154.775
11
110.8
21
-154.775
0
LINE
8
BLACK
10
110.8
20
-154.775
11
110.8
21
-154.175
0
LINE
8
BLACK
10
110.8
20
-154.175
11
109.6
21
-154.175
0
LINE
8
BLACK
10
107.2
20
-154.175
11
107.2
21
-154.775
0
LINE
8
BLACK
10
107.2
20
-154.775
11
108.4
21
-154.775
0
LINE
8
BLACK
10
108.4
20
-154.775
11
108.4
21
-154.175
0
LINE
8
BLACK
10
108.4
20
-154.175
11
107.2
21
-154.175
0
LINE
8
BLACK
10
107.2
20
-153.225
11
107.2
21
-153.825
0
LINE
8
BLACK
10
107.2
20
-153.825
11
108.4
21
-153.825
0
LINE
8
BLACK
10
108.4
20
-153.825
11
108.4
21
-153.225
0
LINE
8
BLACK
10
108.4
20
-153.225
11
107.2
21
-153.225
0
LINE
8
BLACK
10
109.6
20
-162.225
11
109.6
21
-162.825
0
LINE
8
BLACK
10
109.6
20
-162.825
11
110.8
21
-162.825
0
LINE
8
BLACK
10
110.8
20
-162.825
11
110.8
21
-162.225
0
LINE
8
BLACK
10
110.8
20
-162.225
11
109.6
21
-162.225
0
LINE
8
BLACK
10
109.6
20
-163.175
11
109.6
21
-163.775
0
LINE
8
BLACK
10
109.6
20
-163.775
11
110.8
21
-163.775
0
LINE
8
BLACK
10
110.8
20
-163.775
11
110.8
21
-163.175
0
LINE
8
BLACK
10
110.8
20
-163.175
11
109.6
21
-163.175
0
LINE
8
BLACK
10
107.2
20
-163.175
11
107.2
21
-163.775
0
LINE
8
BLACK
10
107.2
20
-163.775
11
108.4
21
-163.775
0
LINE
8
BLACK
10
108.4
20
-163.775
11
108.4
21
-163.175
0
LINE
8
BLACK
10
108.4
20
-163.175
11
107.2
21
-163.175
0
LINE
8
BLACK
10
107.2
20
-162.225
11
107.2
21
-162.825
0
LINE
8
BLACK
10
107.2
20
-162.825
11
108.4
21
-162.825
0
LINE
8
BLACK
10
108.4
20
-162.825
11
108.4
21
-162.225
0
LINE
8
BLACK
10
108.4
20
-162.225
11
107.2
21
-162.225
0
LINE
8
BLACK
10
100.6
20
-135.225
11
100.6
21
-135.825
0
LINE
8
BLACK
10
100.6
20
-135.825
11
101.8
21
-135.825
0
LINE
8
BLACK
10
101.8
20
-135.825
11
101.8
21
-135.225
0
LINE
8
BLACK
10
101.8
20
-135.225
11
100.6
21
-135.225
0
LINE
8
BLACK
10
100.6
20
-136.175
11
100.6
21
-136.775
0
LINE
8
BLACK
10
100.6
20
-136.775
11
101.8
21
-136.775
0
LINE
8
BLACK
10
101.8
20
-136.775
11
101.8
21
-136.175
0
LINE
8
BLACK
10
101.8
20
-136.175
11
100.6
21
-136.175
0
LINE
8
BLACK
10
98.2
20
-136.175
11
98.2
21
-136.775
0
LINE
8
BLACK
10
98.2
20
-136.775
11
99.4
21
-136.775
0
LINE
8
BLACK
10
99.4
20
-136.775
11
99.4
21
-136.175
0
LINE
8
BLACK
10
99.4
20
-136.175
11
98.2
21
-136.175
0
LINE
8
BLACK
10
98.2
20
-135.225
11
98.2
21
-135.825
0
LINE
8
BLACK
10
98.2
20
-135.825
11
99.4
21
-135.825
0
LINE
8
BLACK
10
99.4
20
-135.825
11
99.4
21
-135.225
0
LINE
8
BLACK
10
99.4
20
-135.225
11
98.2
21
-135.225
0
LINE
8
BLACK
10
100.6
20
-144.225
11
100.6
21
-144.825
0
LINE
8
BLACK
10
100.6
20
-144.825
11
101.8
21
-144.825
0
LINE
8
BLACK
10
101.8
20
-144.825
11
101.8
21
-144.225
0
LINE
8
BLACK
10
101.8
20
-144.225
11
100.6
21
-144.225
0
LINE
8
BLACK
10
100.6
20
-145.175
11
100.6
21
-145.775
0
LINE
8
BLACK
10
100.6
20
-145.775
11
101.8
21
-145.775
0
LINE
8
BLACK
10
101.8
20
-145.775
11
101.8
21
-145.175
0
LINE
8
BLACK
10
101.8
20
-145.175
11
100.6
21
-145.175
0
LINE
8
BLACK
10
98.2
20
-145.175
11
98.2
21
-145.775
0
LINE
8
BLACK
10
98.2
20
-145.775
11
99.4
21
-145.775
0
LINE
8
BLACK
10
99.4
20
-145.775
11
99.4
21
-145.175
0
LINE
8
BLACK
10
99.4
20
-145.175
11
98.2
21
-145.175
0
LINE
8
BLACK
10
98.2
20
-144.225
11
98.2
21
-144.825
0
LINE
8
BLACK
10
98.2
20
-144.825
11
99.4
21
-144.825
0
LINE
8
BLACK
10
99.4
20
-144.825
11
99.4
21
-144.225
0
LINE
8
BLACK
10
99.4
20
-144.225
11
98.2
21
-144.225
0
LINE
8
BLACK
10
163.6
20
-162.225
11
163.6
21
-162.825
0
LINE
8
BLACK
10
163.6
20
-162.825
11
164.8
21
-162.825
0
LINE
8
BLACK
10
164.8
20
-162.825
11
164.8
21
-162.225
0
LINE
8
BLACK
10
164.8
20
-162.225
11
163.6
21
-162.225
0
LINE
8
BLACK
10
163.6
20
-163.175
11
163.6
21
-163.775
0
LINE
8
BLACK
10
163.6
20
-163.775
11
164.8
21
-163.775
0
LINE
8
BLACK
10
164.8
20
-163.775
11
164.8
21
-163.175
0
LINE
8
BLACK
10
164.8
20
-163.175
11
163.6
21
-163.175
0
LINE
8
BLACK
10
161.2
20
-163.175
11
161.2
21
-163.775
0
LINE
8
BLACK
10
161.2
20
-163.775
11
162.4
21
-163.775
0
LINE
8
BLACK
10
162.4
20
-163.775
11
162.4
21
-163.175
0
LINE
8
BLACK
10
162.4
20
-163.175
11
161.2
21
-163.175
0
LINE
8
BLACK
10
161.2
20
-162.225
11
161.2
21
-162.825
0
LINE
8
BLACK
10
161.2
20
-162.825
11
162.4
21
-162.825
0
LINE
8
BLACK
10
162.4
20
-162.825
11
162.4
21
-162.225
0
LINE
8
BLACK
10
162.4
20
-162.225
11
161.2
21
-162.225
0
LINE
8
BLACK
10
199.6
20
-135.225
11
199.6
21
-135.825
0
LINE
8
BLACK
10
199.6
20
-135.825
11
200.8
21
-135.825
0
LINE
8
BLACK
10
200.8
20
-135.825
11
200.8
21
-135.225
0
LINE
8
BLACK
10
200.8
20
-135.225
11
199.6
21
-135.225
0
LINE
8
BLACK
10
199.6
20
-136.175
11
199.6
21
-136.775
0
LINE
8
BLACK
10
199.6
20
-136.775
11
200.8
21
-136.775
0
LINE
8
BLACK
10
200.8
20
-136.775
11
200.8
21
-136.175
0
LINE
8
BLACK
10
200.8
20
-136.175
11
199.6
21
-136.175
0
LINE
8
BLACK
10
197.2
20
-136.175
11
197.2
21
-136.775
0
LINE
8
BLACK
10
197.2
20
-136.775
11
198.4
21
-136.775
0
LINE
8
BLACK
10
198.4
20
-136.775
11
198.4
21
-136.175
0
LINE
8
BLACK
10
198.4
20
-136.175
11
197.2
21
-136.175
0
LINE
8
BLACK
10
197.2
20
-135.225
11
197.2
21
-135.825
0
LINE
8
BLACK
10
197.2
20
-135.825
11
198.4
21
-135.825
0
LINE
8
BLACK
10
198.4
20
-135.825
11
198.4
21
-135.225
0
LINE
8
BLACK
10
198.4
20
-135.225
11
197.2
21
-135.225
0
LINE
8
BLACK
10
199.6
20
-144.225
11
199.6
21
-144.825
0
LINE
8
BLACK
10
199.6
20
-144.825
11
200.8
21
-144.825
0
LINE
8
BLACK
10
200.8
20
-144.825
11
200.8
21
-144.225
0
LINE
8
BLACK
10
200.8
20
-144.225
11
199.6
21
-144.225
0
LINE
8
BLACK
10
199.6
20
-145.175
11
199.6
21
-145.775
0
LINE
8
BLACK
10
199.6
20
-145.775
11
200.8
21
-145.775
0
LINE
8
BLACK
10
200.8
20
-145.775
11
200.8
21
-145.175
0
LINE
8
BLACK
10
200.8
20
-145.175
11
199.6
21
-145.175
0
LINE
8
BLACK
10
197.2
20
-145.175
11
197.2
21
-145.775
0
LINE
8
BLACK
10
197.2
20
-145.775
11
198.4
21
-145.775
0
LINE
8
BLACK
10
198.4
20
-145.775
11
198.4
21
-145.175
0
LINE
8
BLACK
10
198.4
20
-145.175
11
197.2
21
-145.175
0
LINE
8
BLACK
10
197.2
20
-144.225
11
197.2
21
-144.825
0
LINE
8
BLACK
10
197.2
20
-144.825
11
198.4
21
-144.825
0
LINE
8
BLACK
10
198.4
20
-144.825
11
198.4
21
-144.225
0
LINE
8
BLACK
10
198.4
20
-144.225
11
197.2
21
-144.225
0
LINE
8
BLACK
10
199.6
20
-153.225
11
199.6
21
-153.825
0
LINE
8
BLACK
10
199.6
20
-153.825
11
200.8
21
-153.825
0
LINE
8
BLACK
10
200.8
20
-153.825
11
200.8
21
-153.225
0
LINE
8
BLACK
10
200.8
20
-153.225
11
199.6
21
-153.225
0
LINE
8
BLACK
10
199.6
20
-154.175
11
199.6
21
-154.775
0
LINE
8
BLACK
10
199.6
20
-154.775
11
200.8
21
-154.775
0
LINE
8
BLACK
10
200.8
20
-154.775
11
200.8
21
-154.175
0
LINE
8
BLACK
10
200.8
20
-154.175
11
199.6
21
-154.175
0
LINE
8
BLACK
10
197.2
20
-154.175
11
197.2
21
-154.775
0
LINE
8
BLACK
10
197.2
20
-154.775
11
198.4
21
-154.775
0
LINE
8
BLACK
10
198.4
20
-154.775
11
198.4
21
-154.175
0
LINE
8
BLACK
10
198.4
20
-154.175
11
197.2
21
-154.175
0
LINE
8
BLACK
10
197.2
20
-153.225
11
197.2
21
-153.825
0
LINE
8
BLACK
10
197.2
20
-153.825
11
198.4
21
-153.825
0
LINE
8
BLACK
10
198.4
20
-153.825
11
198.4
21
-153.225
0
LINE
8
BLACK
10
198.4
20
-153.225
11
197.2
21
-153.225
0
LINE
8
BLACK
10
199.6
20
-162.225
11
199.6
21
-162.825
0
LINE
8
BLACK
10
199.6
20
-162.825
11
200.8
21
-162.825
0
LINE
8
BLACK
10
200.8
20
-162.825
11
200.8
21
-162.225
0
LINE
8
BLACK
10
200.8
20
-162.225
11
199.6
21
-162.225
0
LINE
8
BLACK
10
199.6
20
-163.175
11
199.6
21
-163.775
0
LINE
8
BLACK
10
199.6
20
-163.775
11
200.8
21
-163.775
0
LINE
8
BLACK
10
200.8
20
-163.775
11
200.8
21
-163.175
0
LINE
8
BLACK
10
200.8
20
-163.175
11
199.6
21
-163.175
0
LINE
8
BLACK
10
197.2
20
-163.175
11
197.2
21
-163.775
0
LINE
8
BLACK
10
197.2
20
-163.775
11
198.4
21
-163.775
0
LINE
8
BLACK
10
198.4
20
-163.775
11
198.4
21
-163.175
0
LINE
8
BLACK
10
198.4
20
-163.175
11
197.2
21
-163.175
0
LINE
8
BLACK
10
197.2
20
-162.225
11
197.2
21
-162.825
0
LINE
8
BLACK
10
197.2
20
-162.825
11
198.4
21
-162.825
0
LINE
8
BLACK
10
198.4
20
-162.825
11
198.4
21
-162.225
0
LINE
8
BLACK
10
198.4
20
-162.225
11
197.2
21
-162.225
0
LINE
8
BLACK
10
181.6
20
-135.225
11
181.6
21
-135.825
0
LINE
8
BLACK
10
181.6
20
-135.825
11
182.8
21
-135.825
0
LINE
8
BLACK
10
182.8
20
-135.825
11
182.8
21
-135.225
0
LINE
8
BLACK
10
182.8
20
-135.225
11
181.6
21
-135.225
0
LINE
8
BLACK
10
181.6
20
-136.175
11
181.6
21
-136.775
0
LINE
8
BLACK
10
181.6
20
-136.775
11
182.8
21
-136.775
0
LINE
8
BLACK
10
182.8
20
-136.775
11
182.8
21
-136.175
0
LINE
8
BLACK
10
182.8
20
-136.175
11
181.6
21
-136.175
0
LINE
8
BLACK
10
179.2
20
-136.175
11
179.2
21
-136.775
0
LINE
8
BLACK
10
179.2
20
-136.775
11
180.4
21
-136.775
0
LINE
8
BLACK
10
180.4
20
-136.775
11
180.4
21
-136.175
0
LINE
8
BLACK
10
180.4
20
-136.175
11
179.2
21
-136.175
0
LINE
8
BLACK
10
179.2
20
-135.225
11
179.2
21
-135.825
0
LINE
8
BLACK
10
179.2
20
-135.825
11
180.4
21
-135.825
0
LINE
8
BLACK
10
180.4
20
-135.825
11
180.4
21
-135.225
0
LINE
8
BLACK
10
180.4
20
-135.225
11
179.2
21
-135.225
0
LINE
8
BLACK
10
181.6
20
-144.225
11
181.6
21
-144.825
0
LINE
8
BLACK
10
181.6
20
-144.825
11
182.8
21
-144.825
0
LINE
8
BLACK
10
182.8
20
-144.825
11
182.8
21
-144.225
0
LINE
8
BLACK
10
182.8
20
-144.225
11
181.6
21
-144.225
0
LINE
8
BLACK
10
181.6
20
-145.175
11
181.6
21
-145.775
0
LINE
8
BLACK
10
181.6
20
-145.775
11
182.8
21
-145.775
0
LINE
8
BLACK
10
182.8
20
-145.775
11
182.8
21
-145.175
0
LINE
8
BLACK
10
182.8
20
-145.175
11
181.6
21
-145.175
0
LINE
8
BLACK
10
179.2
20
-145.175
11
179.2
21
-145.775
0
LINE
8
BLACK
10
179.2
20
-145.775
11
180.4
21
-145.775
0
LINE
8
BLACK
10
180.4
20
-145.775
11
180.4
21
-145.175
0
LINE
8
BLACK
10
180.4
20
-145.175
11
179.2
21
-145.175
0
LINE
8
BLACK
10
179.2
20
-144.225
11
179.2
21
-144.825
0
LINE
8
BLACK
10
179.2
20
-144.825
11
180.4
21
-144.825
0
LINE
8
BLACK
10
180.4
20
-144.825
11
180.4
21
-144.225
0
LINE
8
BLACK
10
180.4
20
-144.225
11
179.2
21
-144.225
0
LINE
8
BLACK
10
181.6
20
-153.225
11
181.6
21
-153.825
0
LINE
8
BLACK
10
181.6
20
-153.825
11
182.8
21
-153.825
0
LINE
8
BLACK
10
182.8
20
-153.825
11
182.8
21
-153.225
0
LINE
8
BLACK
10
182.8
20
-153.225
11
181.6
21
-153.225
0
LINE
8
BLACK
10
181.6
20
-154.175
11
181.6
21
-154.775
0
LINE
8
BLACK
10
181.6
20
-154.775
11
182.8
21
-154.775
0
LINE
8
BLACK
10
182.8
20
-154.775
11
182.8
21
-154.175
0
LINE
8
BLACK
10
182.8
20
-154.175
11
181.6
21
-154.175
0
LINE
8
BLACK
10
179.2
20
-154.175
11
179.2
21
-154.775
0
LINE
8
BLACK
10
179.2
20
-154.775
11
180.4
21
-154.775
0
LINE
8
BLACK
10
180.4
20
-154.775
11
180.4
21
-154.175
0
LINE
8
BLACK
10
180.4
20
-154.175
11
179.2
21
-154.175
0
LINE
8
BLACK
10
179.2
20
-153.225
11
179.2
21
-153.825
0
LINE
8
BLACK
10
179.2
20
-153.825
11
180.4
21
-153.825
0
LINE
8
BLACK
10
180.4
20
-153.825
11
180.4
21
-153.225
0
LINE
8
BLACK
10
180.4
20
-153.225
11
179.2
21
-153.225
0
LINE
8
BLACK
10
181.6
20
-162.225
11
181.6
21
-162.825
0
LINE
8
BLACK
10
181.6
20
-162.825
11
182.8
21
-162.825
0
LINE
8
BLACK
10
182.8
20
-162.825
11
182.8
21
-162.225
0
LINE
8
BLACK
10
182.8
20
-162.225
11
181.6
21
-162.225
0
LINE
8
BLACK
10
181.6
20
-163.175
11
181.6
21
-163.775
0
LINE
8
BLACK
10
181.6
20
-163.775
11
182.8
21
-163.775
0
LINE
8
BLACK
10
182.8
20
-163.775
11
182.8
21
-163.175
0
LINE
8
BLACK
10
182.8
20
-163.175
11
181.6
21
-163.175
0
LINE
8
BLACK
10
179.2
20
-163.175
11
179.2
21
-163.775
0
LINE
8
BLACK
10
179.2
20
-163.775
11
180.4
21
-163.775
0
LINE
8
BLACK
10
180.4
20
-163.775
11
180.4
21
-163.175
0
LINE
8
BLACK
10
180.4
20
-163.175
11
179.2
21
-163.175
0
LINE
8
BLACK
10
179.2
20
-162.225
11
179.2
21
-162.825
0
LINE
8
BLACK
10
179.2
20
-162.825
11
180.4
21
-162.825
0
LINE
8
BLACK
10
180.4
20
-162.825
11
180.4
21
-162.225
0
LINE
8
BLACK
10
180.4
20
-162.225
11
179.2
21
-162.225
0
LINE
8
BLACK
10
163.6
20
-135.225
11
163.6
21
-135.825
0
LINE
8
BLACK
10
163.6
20
-135.825
11
164.8
21
-135.825
0
LINE
8
BLACK
10
164.8
20
-135.825
11
164.8
21
-135.225
0
LINE
8
BLACK
10
164.8
20
-135.225
11
163.6
21
-135.225
0
LINE
8
BLACK
10
163.6
20
-136.175
11
163.6
21
-136.775
0
LINE
8
BLACK
10
163.6
20
-136.775
11
164.8
21
-136.775
0
LINE
8
BLACK
10
164.8
20
-136.775
11
164.8
21
-136.175
0
LINE
8
BLACK
10
164.8
20
-136.175
11
163.6
21
-136.175
0
LINE
8
BLACK
10
161.2
20
-136.175
11
161.2
21
-136.775
0
LINE
8
BLACK
10
161.2
20
-136.775
11
162.4
21
-136.775
0
LINE
8
BLACK
10
162.4
20
-136.775
11
162.4
21
-136.175
0
LINE
8
BLACK
10
162.4
20
-136.175
11
161.2
21
-136.175
0
LINE
8
BLACK
10
161.2
20
-135.225
11
161.2
21
-135.825
0
LINE
8
BLACK
10
161.2
20
-135.825
11
162.4
21
-135.825
0
LINE
8
BLACK
10
162.4
20
-135.825
11
162.4
21
-135.225
0
LINE
8
BLACK
10
162.4
20
-135.225
11
161.2
21
-135.225
0
LINE
8
BLACK
10
163.6
20
-144.225
11
163.6
21
-144.825
0
LINE
8
BLACK
10
163.6
20
-144.825
11
164.8
21
-144.825
0
LINE
8
BLACK
10
164.8
20
-144.825
11
164.8
21
-144.225
0
LINE
8
BLACK
10
164.8
20
-144.225
11
163.6
21
-144.225
0
LINE
8
BLACK
10
163.6
20
-145.175
11
163.6
21
-145.775
0
LINE
8
BLACK
10
163.6
20
-145.775
11
164.8
21
-145.775
0
LINE
8
BLACK
10
164.8
20
-145.775
11
164.8
21
-145.175
0
LINE
8
BLACK
10
164.8
20
-145.175
11
163.6
21
-145.175
0
LINE
8
BLACK
10
161.2
20
-145.175
11
161.2
21
-145.775
0
LINE
8
BLACK
10
161.2
20
-145.775
11
162.4
21
-145.775
0
LINE
8
BLACK
10
162.4
20
-145.775
11
162.4
21
-145.175
0
LINE
8
BLACK
10
162.4
20
-145.175
11
161.2
21
-145.175
0
LINE
8
BLACK
10
161.2
20
-144.225
11
161.2
21
-144.825
0
LINE
8
BLACK
10
161.2
20
-144.825
11
162.4
21
-144.825
0
LINE
8
BLACK
10
162.4
20
-144.825
11
162.4
21
-144.225
0
LINE
8
BLACK
10
162.4
20
-144.225
11
161.2
21
-144.225
0
LINE
8
BLACK
10
163.6
20
-153.225
11
163.6
21
-153.825
0
LINE
8
BLACK
10
163.6
20
-153.825
11
164.8
21
-153.825
0
LINE
8
BLACK
10
164.8
20
-153.825
11
164.8
21
-153.225
0
LINE
8
BLACK
10
164.8
20
-153.225
11
163.6
21
-153.225
0
LINE
8
BLACK
10
163.6
20
-154.175
11
163.6
21
-154.775
0
LINE
8
BLACK
10
163.6
20
-154.775
11
164.8
21
-154.775
0
LINE
8
BLACK
10
164.8
20
-154.775
11
164.8
21
-154.175
0
LINE
8
BLACK
10
164.8
20
-154.175
11
163.6
21
-154.175
0
LINE
8
BLACK
10
161.2
20
-154.175
11
161.2
21
-154.775
0
LINE
8
BLACK
10
161.2
20
-154.775
11
162.4
21
-154.775
0
LINE
8
BLACK
10
162.4
20
-154.775
11
162.4
21
-154.175
0
LINE
8
BLACK
10
162.4
20
-154.175
11
161.2
21
-154.175
0
LINE
8
BLACK
10
161.2
20
-153.225
11
161.2
21
-153.825
0
LINE
8
BLACK
10
161.2
20
-153.825
11
162.4
21
-153.825
0
LINE
8
BLACK
10
162.4
20
-153.825
11
162.4
21
-153.225
0
LINE
8
BLACK
10
162.4
20
-153.225
11
161.2
21
-153.225
0
LINE
8
BLACK
10
100.6
20
-153.225
11
100.6
21
-153.825
0
LINE
8
BLACK
10
100.6
20
-153.825
11
101.8
21
-153.825
0
LINE
8
BLACK
10
101.8
20
-153.825
11
101.8
21
-153.225
0
LINE
8
BLACK
10
101.8
20
-153.225
11
100.6
21
-153.225
0
LINE
8
BLACK
10
100.6
20
-154.175
11
100.6
21
-154.775
0
LINE
8
BLACK
10
100.6
20
-154.775
11
101.8
21
-154.775
0
LINE
8
BLACK
10
101.8
20
-154.775
11
101.8
21
-154.175
0
LINE
8
BLACK
10
101.8
20
-154.175
11
100.6
21
-154.175
0
LINE
8
BLACK
10
98.2
20
-154.175
11
98.2
21
-154.775
0
LINE
8
BLACK
10
98.2
20
-154.775
11
99.4
21
-154.775
0
LINE
8
BLACK
10
99.4
20
-154.775
11
99.4
21
-154.175
0
LINE
8
BLACK
10
99.4
20
-154.175
11
98.2
21
-154.175
0
LINE
8
BLACK
10
98.2
20
-153.225
11
98.2
21
-153.825
0
LINE
8
BLACK
10
98.2
20
-153.825
11
99.4
21
-153.825
0
LINE
8
BLACK
10
99.4
20
-153.825
11
99.4
21
-153.225
0
LINE
8
BLACK
10
99.4
20
-153.225
11
98.2
21
-153.225
0
LINE
8
BLACK
10
190.6
20
-135.225
11
190.6
21
-135.825
0
LINE
8
BLACK
10
190.6
20
-135.825
11
191.8
21
-135.825
0
LINE
8
BLACK
10
191.8
20
-135.825
11
191.8
21
-135.225
0
LINE
8
BLACK
10
191.8
20
-135.225
11
190.6
21
-135.225
0
LINE
8
BLACK
10
190.6
20
-136.175
11
190.6
21
-136.775
0
LINE
8
BLACK
10
190.6
20
-136.775
11
191.8
21
-136.775
0
LINE
8
BLACK
10
191.8
20
-136.775
11
191.8
21
-136.175
0
LINE
8
BLACK
10
191.8
20
-136.175
11
190.6
21
-136.175
0
LINE
8
BLACK
10
188.2
20
-136.175
11
188.2
21
-136.775
0
LINE
8
BLACK
10
188.2
20
-136.775
11
189.4
21
-136.775
0
LINE
8
BLACK
10
189.4
20
-136.775
11
189.4
21
-136.175
0
LINE
8
BLACK
10
189.4
20
-136.175
11
188.2
21
-136.175
0
LINE
8
BLACK
10
188.2
20
-135.225
11
188.2
21
-135.825
0
LINE
8
BLACK
10
188.2
20
-135.825
11
189.4
21
-135.825
0
LINE
8
BLACK
10
189.4
20
-135.825
11
189.4
21
-135.225
0
LINE
8
BLACK
10
189.4
20
-135.225
11
188.2
21
-135.225
0
LINE
8
BLACK
10
190.6
20
-144.225
11
190.6
21
-144.825
0
LINE
8
BLACK
10
190.6
20
-144.825
11
191.8
21
-144.825
0
LINE
8
BLACK
10
191.8
20
-144.825
11
191.8
21
-144.225
0
LINE
8
BLACK
10
191.8
20
-144.225
11
190.6
21
-144.225
0
LINE
8
BLACK
10
190.6
20
-145.175
11
190.6
21
-145.775
0
LINE
8
BLACK
10
190.6
20
-145.775
11
191.8
21
-145.775
0
LINE
8
BLACK
10
191.8
20
-145.775
11
191.8
21
-145.175
0
LINE
8
BLACK
10
191.8
20
-145.175
11
190.6
21
-145.175
0
LINE
8
BLACK
10
188.2
20
-145.175
11
188.2
21
-145.775
0
LINE
8
BLACK
10
188.2
20
-145.775
11
189.4
21
-145.775
0
LINE
8
BLACK
10
189.4
20
-145.775
11
189.4
21
-145.175
0
LINE
8
BLACK
10
189.4
20
-145.175
11
188.2
21
-145.175
0
LINE
8
BLACK
10
188.2
20
-144.225
11
188.2
21
-144.825
0
LINE
8
BLACK
10
188.2
20
-144.825
11
189.4
21
-144.825
0
LINE
8
BLACK
10
189.4
20
-144.825
11
189.4
21
-144.225
0
LINE
8
BLACK
10
189.4
20
-144.225
11
188.2
21
-144.225
0
LINE
8
BLACK
10
190.6
20
-153.225
11
190.6
21
-153.825
0
LINE
8
BLACK
10
190.6
20
-153.825
11
191.8
21
-153.825
0
LINE
8
BLACK
10
191.8
20
-153.825
11
191.8
21
-153.225
0
LINE
8
BLACK
10
191.8
20
-153.225
11
190.6
21
-153.225
0
LINE
8
BLACK
10
190.6
20
-154.175
11
190.6
21
-154.775
0
LINE
8
BLACK
10
190.6
20
-154.775
11
191.8
21
-154.775
0
LINE
8
BLACK
10
191.8
20
-154.775
11
191.8
21
-154.175
0
LINE
8
BLACK
10
191.8
20
-154.175
11
190.6
21
-154.175
0
LINE
8
BLACK
10
188.2
20
-154.175
11
188.2
21
-154.775
0
LINE
8
BLACK
10
188.2
20
-154.775
11
189.4
21
-154.775
0
LINE
8
BLACK
10
189.4
20
-154.775
11
189.4
21
-154.175
0
LINE
8
BLACK
10
189.4
20
-154.175
11
188.2
21
-154.175
0
LINE
8
BLACK
10
188.2
20
-153.225
11
188.2
21
-153.825
0
LINE
8
BLACK
10
188.2
20
-153.825
11
189.4
21
-153.825
0
LINE
8
BLACK
10
189.4
20
-153.825
11
189.4
21
-153.225
0
LINE
8
BLACK
10
189.4
20
-153.225
11
188.2
21
-153.225
0
LINE
8
BLACK
10
190.6
20
-162.225
11
190.6
21
-162.825
0
LINE
8
BLACK
10
190.6
20
-162.825
11
191.8
21
-162.825
0
LINE
8
BLACK
10
191.8
20
-162.825
11
191.8
21
-162.225
0
LINE
8
BLACK
10
191.8
20
-162.225
11
190.6
21
-162.225
0
LINE
8
BLACK
10
190.6
20
-163.175
11
190.6
21
-163.775
0
LINE
8
BLACK
10
190.6
20
-163.775
11
191.8
21
-163.775
0
LINE
8
BLACK
10
191.8
20
-163.775
11
191.8
21
-163.175
0
LINE
8
BLACK
10
191.8
20
-163.175
11
190.6
21
-163.175
0
LINE
8
BLACK
10
188.2
20
-163.175
11
188.2
21
-163.775
0
LINE
8
BLACK
10
188.2
20
-163.775
11
189.4
21
-163.775
0
LINE
8
BLACK
10
189.4
20
-163.775
11
189.4
21
-163.175
0
LINE
8
BLACK
10
189.4
20
-163.175
11
188.2
21
-163.175
0
LINE
8
BLACK
10
188.2
20
-162.225
11
188.2
21
-162.825
0
LINE
8
BLACK
10
188.2
20
-162.825
11
189.4
21
-162.825
0
LINE
8
BLACK
10
189.4
20
-162.825
11
189.4
21
-162.225
0
LINE
8
BLACK
10
189.4
20
-162.225
11
188.2
21
-162.225
0
LINE
8
BLACK
10
172.6
20
-135.225
11
172.6
21
-135.825
0
LINE
8
BLACK
10
172.6
20
-135.825
11
173.8
21
-135.825
0
LINE
8
BLACK
10
173.8
20
-135.825
11
173.8
21
-135.225
0
LINE
8
BLACK
10
173.8
20
-135.225
11
172.6
21
-135.225
0
LINE
8
BLACK
10
172.6
20
-136.175
11
172.6
21
-136.775
0
LINE
8
BLACK
10
172.6
20
-136.775
11
173.8
21
-136.775
0
LINE
8
BLACK
10
173.8
20
-136.775
11
173.8
21
-136.175
0
LINE
8
BLACK
10
173.8
20
-136.175
11
172.6
21
-136.175
0
LINE
8
BLACK
10
170.2
20
-136.175
11
170.2
21
-136.775
0
LINE
8
BLACK
10
170.2
20
-136.775
11
171.4
21
-136.775
0
LINE
8
BLACK
10
171.4
20
-136.775
11
171.4
21
-136.175
0
LINE
8
BLACK
10
171.4
20
-136.175
11
170.2
21
-136.175
0
LINE
8
BLACK
10
170.2
20
-135.225
11
170.2
21
-135.825
0
LINE
8
BLACK
10
170.2
20
-135.825
11
171.4
21
-135.825
0
LINE
8
BLACK
10
171.4
20
-135.825
11
171.4
21
-135.225
0
LINE
8
BLACK
10
171.4
20
-135.225
11
170.2
21
-135.225
0
LINE
8
BLACK
10
172.6
20
-144.225
11
172.6
21
-144.825
0
LINE
8
BLACK
10
172.6
20
-144.825
11
173.8
21
-144.825
0
LINE
8
BLACK
10
173.8
20
-144.825
11
173.8
21
-144.225
0
LINE
8
BLACK
10
173.8
20
-144.225
11
172.6
21
-144.225
0
LINE
8
BLACK
10
172.6
20
-145.175
11
172.6
21
-145.775
0
LINE
8
BLACK
10
172.6
20
-145.775
11
173.8
21
-145.775
0
LINE
8
BLACK
10
173.8
20
-145.775
11
173.8
21
-145.175
0
LINE
8
BLACK
10
173.8
20
-145.175
11
172.6
21
-145.175
0
LINE
8
BLACK
10
170.2
20
-145.175
11
170.2
21
-145.775
0
LINE
8
BLACK
10
170.2
20
-145.775
11
171.4
21
-145.775
0
LINE
8
BLACK
10
171.4
20
-145.775
11
171.4
21
-145.175
0
LINE
8
BLACK
10
171.4
20
-145.175
11
170.2
21
-145.175
0
LINE
8
BLACK
10
170.2
20
-144.225
11
170.2
21
-144.825
0
LINE
8
BLACK
10
170.2
20
-144.825
11
171.4
21
-144.825
0
LINE
8
BLACK
10
171.4
20
-144.825
11
171.4
21
-144.225
0
LINE
8
BLACK
10
171.4
20
-144.225
11
170.2
21
-144.225
0
LINE
8
BLACK
10
172.6
20
-153.225
11
172.6
21
-153.825
0
LINE
8
BLACK
10
172.6
20
-153.825
11
173.8
21
-153.825
0
LINE
8
BLACK
10
173.8
20
-153.825
11
173.8
21
-153.225
0
LINE
8
BLACK
10
173.8
20
-153.225
11
172.6
21
-153.225
0
LINE
8
BLACK
10
172.6
20
-154.175
11
172.6
21
-154.775
0
LINE
8
BLACK
10
172.6
20
-154.775
11
173.8
21
-154.775
0
LINE
8
BLACK
10
173.8
20
-154.775
11
173.8
21
-154.175
0
LINE
8
BLACK
10
173.8
20
-154.175
11
172.6
21
-154.175
0
LINE
8
BLACK
10
170.2
20
-154.175
11
170.2
21
-154.775
0
LINE
8
BLACK
10
170.2
20
-154.775
11
171.4
21
-154.775
0
LINE
8
BLACK
10
171.4
20
-154.775
11
171.4
21
-154.175
0
LINE
8
BLACK
10
171.4
20
-154.175
11
170.2
21
-154.175
0
LINE
8
BLACK
10
170.2
20
-153.225
11
170.2
21
-153.825
0
LINE
8
BLACK
10
170.2
20
-153.825
11
171.4
21
-153.825
0
LINE
8
BLACK
10
171.4
20
-153.825
11
171.4
21
-153.225
0
LINE
8
BLACK
10
171.4
20
-153.225
11
170.2
21
-153.225
0
LINE
8
BLACK
10
154.6
20
-135.225
11
154.6
21
-135.825
0
LINE
8
BLACK
10
154.6
20
-135.825
11
155.8
21
-135.825
0
LINE
8
BLACK
10
155.8
20
-135.825
11
155.8
21
-135.225
0
LINE
8
BLACK
10
155.8
20
-135.225
11
154.6
21
-135.225
0
LINE
8
BLACK
10
154.6
20
-136.175
11
154.6
21
-136.775
0
LINE
8
BLACK
10
154.6
20
-136.775
11
155.8
21
-136.775
0
LINE
8
BLACK
10
155.8
20
-136.775
11
155.8
21
-136.175
0
LINE
8
BLACK
10
155.8
20
-136.175
11
154.6
21
-136.175
0
LINE
8
BLACK
10
152.2
20
-136.175
11
152.2
21
-136.775
0
LINE
8
BLACK
10
152.2
20
-136.775
11
153.4
21
-136.775
0
LINE
8
BLACK
10
153.4
20
-136.775
11
153.4
21
-136.175
0
LINE
8
BLACK
10
153.4
20
-136.175
11
152.2
21
-136.175
0
LINE
8
BLACK
10
152.2
20
-135.225
11
152.2
21
-135.825
0
LINE
8
BLACK
10
152.2
20
-135.825
11
153.4
21
-135.825
0
LINE
8
BLACK
10
153.4
20
-135.825
11
153.4
21
-135.225
0
LINE
8
BLACK
10
153.4
20
-135.225
11
152.2
21
-135.225
0
LINE
8
BLACK
10
154.6
20
-144.225
11
154.6
21
-144.825
0
LINE
8
BLACK
10
154.6
20
-144.825
11
155.8
21
-144.825
0
LINE
8
BLACK
10
155.8
20
-144.825
11
155.8
21
-144.225
0
LINE
8
BLACK
10
155.8
20
-144.225
11
154.6
21
-144.225
0
LINE
8
BLACK
10
154.6
20
-145.175
11
154.6
21
-145.775
0
LINE
8
BLACK
10
154.6
20
-145.775
11
155.8
21
-145.775
0
LINE
8
BLACK
10
155.8
20
-145.775
11
155.8
21
-145.175
0
LINE
8
BLACK
10
155.8
20
-145.175
11
154.6
21
-145.175
0
LINE
8
BLACK
10
152.2
20
-145.175
11
152.2
21
-145.775
0
LINE
8
BLACK
10
152.2
20
-145.775
11
153.4
21
-145.775
0
LINE
8
BLACK
10
153.4
20
-145.775
11
153.4
21
-145.175
0
LINE
8
BLACK
10
153.4
20
-145.175
11
152.2
21
-145.175
0
LINE
8
BLACK
10
152.2
20
-144.225
11
152.2
21
-144.825
0
LINE
8
BLACK
10
152.2
20
-144.825
11
153.4
21
-144.825
0
LINE
8
BLACK
10
153.4
20
-144.825
11
153.4
21
-144.225
0
LINE
8
BLACK
10
153.4
20
-144.225
11
152.2
21
-144.225
0
LINE
8
BLACK
10
154.6
20
-153.225
11
154.6
21
-153.825
0
LINE
8
BLACK
10
154.6
20
-153.825
11
155.8
21
-153.825
0
LINE
8
BLACK
10
155.8
20
-153.825
11
155.8
21
-153.225
0
LINE
8
BLACK
10
155.8
20
-153.225
11
154.6
21
-153.225
0
LINE
8
BLACK
10
154.6
20
-154.175
11
154.6
21
-154.775
0
LINE
8
BLACK
10
154.6
20
-154.775
11
155.8
21
-154.775
0
LINE
8
BLACK
10
155.8
20
-154.775
11
155.8
21
-154.175
0
LINE
8
BLACK
10
155.8
20
-154.175
11
154.6
21
-154.175
0
LINE
8
BLACK
10
152.2
20
-154.175
11
152.2
21
-154.775
0
LINE
8
BLACK
10
152.2
20
-154.775
11
153.4
21
-154.775
0
LINE
8
BLACK
10
153.4
20
-154.775
11
153.4
21
-154.175
0
LINE
8
BLACK
10
153.4
20
-154.175
11
152.2
21
-154.175
0
LINE
8
BLACK
10
152.2
20
-153.225
11
152.2
21
-153.825
0
LINE
8
BLACK
10
152.2
20
-153.825
11
153.4
21
-153.825
0
LINE
8
BLACK
10
153.4
20
-153.825
11
153.4
21
-153.225
0
LINE
8
BLACK
10
153.4
20
-153.225
11
152.2
21
-153.225
0
LINE
8
BLACK
10
163.6
20
-108.225
11
163.6
21
-108.825
0
LINE
8
BLACK
10
163.6
20
-108.825
11
164.8
21
-108.825
0
LINE
8
BLACK
10
164.8
20
-108.825
11
164.8
21
-108.225
0
LINE
8
BLACK
10
164.8
20
-108.225
11
163.6
21
-108.225
0
LINE
8
BLACK
10
163.6
20
-109.175
11
163.6
21
-109.775
0
LINE
8
BLACK
10
163.6
20
-109.775
11
164.8
21
-109.775
0
LINE
8
BLACK
10
164.8
20
-109.775
11
164.8
21
-109.175
0
LINE
8
BLACK
10
164.8
20
-109.175
11
163.6
21
-109.175
0
LINE
8
BLACK
10
161.2
20
-109.175
11
161.2
21
-109.775
0
LINE
8
BLACK
10
161.2
20
-109.775
11
162.4
21
-109.775
0
LINE
8
BLACK
10
162.4
20
-109.775
11
162.4
21
-109.175
0
LINE
8
BLACK
10
162.4
20
-109.175
11
161.2
21
-109.175
0
LINE
8
BLACK
10
161.2
20
-108.225
11
161.2
21
-108.825
0
LINE
8
BLACK
10
161.2
20
-108.825
11
162.4
21
-108.825
0
LINE
8
BLACK
10
162.4
20
-108.825
11
162.4
21
-108.225
0
LINE
8
BLACK
10
162.4
20
-108.225
11
161.2
21
-108.225
0
LINE
8
BLACK
10
145.6
20
-108.225
11
145.6
21
-108.825
0
LINE
8
BLACK
10
145.6
20
-108.825
11
146.8
21
-108.825
0
LINE
8
BLACK
10
146.8
20
-108.825
11
146.8
21
-108.225
0
LINE
8
BLACK
10
146.8
20
-108.225
11
145.6
21
-108.225
0
LINE
8
BLACK
10
145.6
20
-109.175
11
145.6
21
-109.775
0
LINE
8
BLACK
10
145.6
20
-109.775
11
146.8
21
-109.775
0
LINE
8
BLACK
10
146.8
20
-109.775
11
146.8
21
-109.175
0
LINE
8
BLACK
10
146.8
20
-109.175
11
145.6
21
-109.175
0
LINE
8
BLACK
10
143.2
20
-109.175
11
143.2
21
-109.775
0
LINE
8
BLACK
10
143.2
20
-109.775
11
144.4
21
-109.775
0
LINE
8
BLACK
10
144.4
20
-109.775
11
144.4
21
-109.175
0
LINE
8
BLACK
10
144.4
20
-109.175
11
143.2
21
-109.175
0
LINE
8
BLACK
10
143.2
20
-108.225
11
143.2
21
-108.825
0
LINE
8
BLACK
10
143.2
20
-108.825
11
144.4
21
-108.825
0
LINE
8
BLACK
10
144.4
20
-108.825
11
144.4
21
-108.225
0
LINE
8
BLACK
10
144.4
20
-108.225
11
143.2
21
-108.225
0
LINE
8
BLACK
10
145.6
20
-99.225
11
145.6
21
-99.825
0
LINE
8
BLACK
10
145.6
20
-99.825
11
146.8
21
-99.825
0
LINE
8
BLACK
10
146.8
20
-99.825
11
146.8
21
-99.225
0
LINE
8
BLACK
10
146.8
20
-99.225
11
145.6
21
-99.225
0
LINE
8
BLACK
10
145.6
20
-100.175
11
145.6
21
-100.775
0
LINE
8
BLACK
10
145.6
20
-100.775
11
146.8
21
-100.775
0
LINE
8
BLACK
10
146.8
20
-100.775
11
146.8
21
-100.175
0
LINE
8
BLACK
10
146.8
20
-100.175
11
145.6
21
-100.175
0
LINE
8
BLACK
10
143.2
20
-100.175
11
143.2
21
-100.775
0
LINE
8
BLACK
10
143.2
20
-100.775
11
144.4
21
-100.775
0
LINE
8
BLACK
10
144.4
20
-100.775
11
144.4
21
-100.175
0
LINE
8
BLACK
10
144.4
20
-100.175
11
143.2
21
-100.175
0
LINE
8
BLACK
10
143.2
20
-99.225
11
143.2
21
-99.825
0
LINE
8
BLACK
10
143.2
20
-99.825
11
144.4
21
-99.825
0
LINE
8
BLACK
10
144.4
20
-99.825
11
144.4
21
-99.225
0
LINE
8
BLACK
10
144.4
20
-99.225
11
143.2
21
-99.225
0
LINE
8
BLACK
10
154.6
20
-126.225
11
154.6
21
-126.825
0
LINE
8
BLACK
10
154.6
20
-126.825
11
155.8
21
-126.825
0
LINE
8
BLACK
10
155.8
20
-126.825
11
155.8
21
-126.225
0
LINE
8
BLACK
10
155.8
20
-126.225
11
154.6
21
-126.225
0
LINE
8
BLACK
10
154.6
20
-127.175
11
154.6
21
-127.775
0
LINE
8
BLACK
10
154.6
20
-127.775
11
155.8
21
-127.775
0
LINE
8
BLACK
10
155.8
20
-127.775
11
155.8
21
-127.175
0
LINE
8
BLACK
10
155.8
20
-127.175
11
154.6
21
-127.175
0
LINE
8
BLACK
10
152.2
20
-127.175
11
152.2
21
-127.775
0
LINE
8
BLACK
10
152.2
20
-127.775
11
153.4
21
-127.775
0
LINE
8
BLACK
10
153.4
20
-127.775
11
153.4
21
-127.175
0
LINE
8
BLACK
10
153.4
20
-127.175
11
152.2
21
-127.175
0
LINE
8
BLACK
10
152.2
20
-126.225
11
152.2
21
-126.825
0
LINE
8
BLACK
10
152.2
20
-126.825
11
153.4
21
-126.825
0
LINE
8
BLACK
10
153.4
20
-126.825
11
153.4
21
-126.225
0
LINE
8
BLACK
10
153.4
20
-126.225
11
152.2
21
-126.225
0
LINE
8
BLACK
10
154.6
20
-117.225
11
154.6
21
-117.825
0
LINE
8
BLACK
10
154.6
20
-117.825
11
155.8
21
-117.825
0
LINE
8
BLACK
10
155.8
20
-117.825
11
155.8
21
-117.225
0
LINE
8
BLACK
10
155.8
20
-117.225
11
154.6
21
-117.225
0
LINE
8
BLACK
10
154.6
20
-118.175
11
154.6
21
-118.775
0
LINE
8
BLACK
10
154.6
20
-118.775
11
155.8
21
-118.775
0
LINE
8
BLACK
10
155.8
20
-118.775
11
155.8
21
-118.175
0
LINE
8
BLACK
10
155.8
20
-118.175
11
154.6
21
-118.175
0
LINE
8
BLACK
10
152.2
20
-118.175
11
152.2
21
-118.775
0
LINE
8
BLACK
10
152.2
20
-118.775
11
153.4
21
-118.775
0
LINE
8
BLACK
10
153.4
20
-118.775
11
153.4
21
-118.175
0
LINE
8
BLACK
10
153.4
20
-118.175
11
152.2
21
-118.175
0
LINE
8
BLACK
10
152.2
20
-117.225
11
152.2
21
-117.825
0
LINE
8
BLACK
10
152.2
20
-117.825
11
153.4
21
-117.825
0
LINE
8
BLACK
10
153.4
20
-117.825
11
153.4
21
-117.225
0
LINE
8
BLACK
10
153.4
20
-117.225
11
152.2
21
-117.225
0
LINE
8
BLACK
10
154.6
20
-108.225
11
154.6
21
-108.825
0
LINE
8
BLACK
10
154.6
20
-108.825
11
155.8
21
-108.825
0
LINE
8
BLACK
10
155.8
20
-108.825
11
155.8
21
-108.225
0
LINE
8
BLACK
10
155.8
20
-108.225
11
154.6
21
-108.225
0
LINE
8
BLACK
10
154.6
20
-109.175
11
154.6
21
-109.775
0
LINE
8
BLACK
10
154.6
20
-109.775
11
155.8
21
-109.775
0
LINE
8
BLACK
10
155.8
20
-109.775
11
155.8
21
-109.175
0
LINE
8
BLACK
10
155.8
20
-109.175
11
154.6
21
-109.175
0
LINE
8
BLACK
10
152.2
20
-109.175
11
152.2
21
-109.775
0
LINE
8
BLACK
10
152.2
20
-109.775
11
153.4
21
-109.775
0
LINE
8
BLACK
10
153.4
20
-109.775
11
153.4
21
-109.175
0
LINE
8
BLACK
10
153.4
20
-109.175
11
152.2
21
-109.175
0
LINE
8
BLACK
10
152.2
20
-108.225
11
152.2
21
-108.825
0
LINE
8
BLACK
10
152.2
20
-108.825
11
153.4
21
-108.825
0
LINE
8
BLACK
10
153.4
20
-108.825
11
153.4
21
-108.225
0
LINE
8
BLACK
10
153.4
20
-108.225
11
152.2
21
-108.225
0
LINE
8
BLACK
10
154.6
20
-99.225
11
154.6
21
-99.825
0
LINE
8
BLACK
10
154.6
20
-99.825
11
155.8
21
-99.825
0
LINE
8
BLACK
10
155.8
20
-99.825
11
155.8
21
-99.225
0
LINE
8
BLACK
10
155.8
20
-99.225
11
154.6
21
-99.225
0
LINE
8
BLACK
10
154.6
20
-100.175
11
154.6
21
-100.775
0
LINE
8
BLACK
10
154.6
20
-100.775
11
155.8
21
-100.775
0
LINE
8
BLACK
10
155.8
20
-100.775
11
155.8
21
-100.175
0
LINE
8
BLACK
10
155.8
20
-100.175
11
154.6
21
-100.175
0
LINE
8
BLACK
10
152.2
20
-100.175
11
152.2
21
-100.775
0
LINE
8
BLACK
10
152.2
20
-100.775
11
153.4
21
-100.775
0
LINE
8
BLACK
10
153.4
20
-100.775
11
153.4
21
-100.175
0
LINE
8
BLACK
10
153.4
20
-100.175
11
152.2
21
-100.175
0
LINE
8
BLACK
10
152.2
20
-99.225
11
152.2
21
-99.825
0
LINE
8
BLACK
10
152.2
20
-99.825
11
153.4
21
-99.825
0
LINE
8
BLACK
10
153.4
20
-99.825
11
153.4
21
-99.225
0
LINE
8
BLACK
10
153.4
20
-99.225
11
152.2
21
-99.225
0
LINE
8
BLACK
10
172.6
20
-126.225
11
172.6
21
-126.825
0
LINE
8
BLACK
10
172.6
20
-126.825
11
173.8
21
-126.825
0
LINE
8
BLACK
10
173.8
20
-126.825
11
173.8
21
-126.225
0
LINE
8
BLACK
10
173.8
20
-126.225
11
172.6
21
-126.225
0
LINE
8
BLACK
10
172.6
20
-127.175
11
172.6
21
-127.775
0
LINE
8
BLACK
10
172.6
20
-127.775
11
173.8
21
-127.775
0
LINE
8
BLACK
10
173.8
20
-127.775
11
173.8
21
-127.175
0
LINE
8
BLACK
10
173.8
20
-127.175
11
172.6
21
-127.175
0
LINE
8
BLACK
10
170.2
20
-127.175
11
170.2
21
-127.775
0
LINE
8
BLACK
10
170.2
20
-127.775
11
171.4
21
-127.775
0
LINE
8
BLACK
10
171.4
20
-127.775
11
171.4
21
-127.175
0
LINE
8
BLACK
10
171.4
20
-127.175
11
170.2
21
-127.175
0
LINE
8
BLACK
10
170.2
20
-126.225
11
170.2
21
-126.825
0
LINE
8
BLACK
10
170.2
20
-126.825
11
171.4
21
-126.825
0
LINE
8
BLACK
10
171.4
20
-126.825
11
171.4
21
-126.225
0
LINE
8
BLACK
10
171.4
20
-126.225
11
170.2
21
-126.225
0
LINE
8
BLACK
10
172.6
20
-117.225
11
172.6
21
-117.825
0
LINE
8
BLACK
10
172.6
20
-117.825
11
173.8
21
-117.825
0
LINE
8
BLACK
10
173.8
20
-117.825
11
173.8
21
-117.225
0
LINE
8
BLACK
10
173.8
20
-117.225
11
172.6
21
-117.225
0
LINE
8
BLACK
10
172.6
20
-118.175
11
172.6
21
-118.775
0
LINE
8
BLACK
10
172.6
20
-118.775
11
173.8
21
-118.775
0
LINE
8
BLACK
10
173.8
20
-118.775
11
173.8
21
-118.175
0
LINE
8
BLACK
10
173.8
20
-118.175
11
172.6
21
-118.175
0
LINE
8
BLACK
10
170.2
20
-118.175
11
170.2
21
-118.775
0
LINE
8
BLACK
10
170.2
20
-118.775
11
171.4
21
-118.775
0
LINE
8
BLACK
10
171.4
20
-118.775
11
171.4
21
-118.175
0
LINE
8
BLACK
10
171.4
20
-118.175
11
170.2
21
-118.175
0
LINE
8
BLACK
10
170.2
20
-117.225
11
170.2
21
-117.825
0
LINE
8
BLACK
10
170.2
20
-117.825
11
171.4
21
-117.825
0
LINE
8
BLACK
10
171.4
20
-117.825
11
171.4
21
-117.225
0
LINE
8
BLACK
10
171.4
20
-117.225
11
170.2
21
-117.225
0
LINE
8
BLACK
10
172.6
20
-108.225
11
172.6
21
-108.825
0
LINE
8
BLACK
10
172.6
20
-108.825
11
173.8
21
-108.825
0
LINE
8
BLACK
10
173.8
20
-108.825
11
173.8
21
-108.225
0
LINE
8
BLACK
10
173.8
20
-108.225
11
172.6
21
-108.225
0
LINE
8
BLACK
10
172.6
20
-109.175
11
172.6
21
-109.775
0
LINE
8
BLACK
10
172.6
20
-109.775
11
173.8
21
-109.775
0
LINE
8
BLACK
10
173.8
20
-109.775
11
173.8
21
-109.175
0
LINE
8
BLACK
10
173.8
20
-109.175
11
172.6
21
-109.175
0
LINE
8
BLACK
10
170.2
20
-109.175
11
170.2
21
-109.775
0
LINE
8
BLACK
10
170.2
20
-109.775
11
171.4
21
-109.775
0
LINE
8
BLACK
10
171.4
20
-109.775
11
171.4
21
-109.175
0
LINE
8
BLACK
10
171.4
20
-109.175
11
170.2
21
-109.175
0
LINE
8
BLACK
10
170.2
20
-108.225
11
170.2
21
-108.825
0
LINE
8
BLACK
10
170.2
20
-108.825
11
171.4
21
-108.825
0
LINE
8
BLACK
10
171.4
20
-108.825
11
171.4
21
-108.225
0
LINE
8
BLACK
10
171.4
20
-108.225
11
170.2
21
-108.225
0
LINE
8
BLACK
10
172.6
20
-99.225
11
172.6
21
-99.825
0
LINE
8
BLACK
10
172.6
20
-99.825
11
173.8
21
-99.825
0
LINE
8
BLACK
10
173.8
20
-99.825
11
173.8
21
-99.225
0
LINE
8
BLACK
10
173.8
20
-99.225
11
172.6
21
-99.225
0
LINE
8
BLACK
10
172.6
20
-100.175
11
172.6
21
-100.775
0
LINE
8
BLACK
10
172.6
20
-100.775
11
173.8
21
-100.775
0
LINE
8
BLACK
10
173.8
20
-100.775
11
173.8
21
-100.175
0
LINE
8
BLACK
10
173.8
20
-100.175
11
172.6
21
-100.175
0
LINE
8
BLACK
10
170.2
20
-100.175
11
170.2
21
-100.775
0
LINE
8
BLACK
10
170.2
20
-100.775
11
171.4
21
-100.775
0
LINE
8
BLACK
10
171.4
20
-100.775
11
171.4
21
-100.175
0
LINE
8
BLACK
10
171.4
20
-100.175
11
170.2
21
-100.175
0
LINE
8
BLACK
10
170.2
20
-99.225
11
170.2
21
-99.825
0
LINE
8
BLACK
10
170.2
20
-99.825
11
171.4
21
-99.825
0
LINE
8
BLACK
10
171.4
20
-99.825
11
171.4
21
-99.225
0
LINE
8
BLACK
10
171.4
20
-99.225
11
170.2
21
-99.225
0
LINE
8
BLACK
10
163.6
20
-126.225
11
163.6
21
-126.825
0
LINE
8
BLACK
10
163.6
20
-126.825
11
164.8
21
-126.825
0
LINE
8
BLACK
10
164.8
20
-126.825
11
164.8
21
-126.225
0
LINE
8
BLACK
10
164.8
20
-126.225
11
163.6
21
-126.225
0
LINE
8
BLACK
10
163.6
20
-127.175
11
163.6
21
-127.775
0
LINE
8
BLACK
10
163.6
20
-127.775
11
164.8
21
-127.775
0
LINE
8
BLACK
10
164.8
20
-127.775
11
164.8
21
-127.175
0
LINE
8
BLACK
10
164.8
20
-127.175
11
163.6
21
-127.175
0
LINE
8
BLACK
10
161.2
20
-127.175
11
161.2
21
-127.775
0
LINE
8
BLACK
10
161.2
20
-127.775
11
162.4
21
-127.775
0
LINE
8
BLACK
10
162.4
20
-127.775
11
162.4
21
-127.175
0
LINE
8
BLACK
10
162.4
20
-127.175
11
161.2
21
-127.175
0
LINE
8
BLACK
10
161.2
20
-126.225
11
161.2
21
-126.825
0
LINE
8
BLACK
10
161.2
20
-126.825
11
162.4
21
-126.825
0
LINE
8
BLACK
10
162.4
20
-126.825
11
162.4
21
-126.225
0
LINE
8
BLACK
10
162.4
20
-126.225
11
161.2
21
-126.225
0
LINE
8
BLACK
10
145.6
20
-117.225
11
145.6
21
-117.825
0
LINE
8
BLACK
10
145.6
20
-117.825
11
146.8
21
-117.825
0
LINE
8
BLACK
10
146.8
20
-117.825
11
146.8
21
-117.225
0
LINE
8
BLACK
10
146.8
20
-117.225
11
145.6
21
-117.225
0
LINE
8
BLACK
10
145.6
20
-118.175
11
145.6
21
-118.775
0
LINE
8
BLACK
10
145.6
20
-118.775
11
146.8
21
-118.775
0
LINE
8
BLACK
10
146.8
20
-118.775
11
146.8
21
-118.175
0
LINE
8
BLACK
10
146.8
20
-118.175
11
145.6
21
-118.175
0
LINE
8
BLACK
10
143.2
20
-118.175
11
143.2
21
-118.775
0
LINE
8
BLACK
10
143.2
20
-118.775
11
144.4
21
-118.775
0
LINE
8
BLACK
10
144.4
20
-118.775
11
144.4
21
-118.175
0
LINE
8
BLACK
10
144.4
20
-118.175
11
143.2
21
-118.175
0
LINE
8
BLACK
10
143.2
20
-117.225
11
143.2
21
-117.825
0
LINE
8
BLACK
10
143.2
20
-117.825
11
144.4
21
-117.825
0
LINE
8
BLACK
10
144.4
20
-117.825
11
144.4
21
-117.225
0
LINE
8
BLACK
10
144.4
20
-117.225
11
143.2
21
-117.225
0
LINE
8
BLACK
10
163.6
20
-99.225
11
163.6
21
-99.825
0
LINE
8
BLACK
10
163.6
20
-99.825
11
164.8
21
-99.825
0
LINE
8
BLACK
10
164.8
20
-99.825
11
164.8
21
-99.225
0
LINE
8
BLACK
10
164.8
20
-99.225
11
163.6
21
-99.225
0
LINE
8
BLACK
10
163.6
20
-100.175
11
163.6
21
-100.775
0
LINE
8
BLACK
10
163.6
20
-100.775
11
164.8
21
-100.775
0
LINE
8
BLACK
10
164.8
20
-100.775
11
164.8
21
-100.175
0
LINE
8
BLACK
10
164.8
20
-100.175
11
163.6
21
-100.175
0
LINE
8
BLACK
10
161.2
20
-100.175
11
161.2
21
-100.775
0
LINE
8
BLACK
10
161.2
20
-100.775
11
162.4
21
-100.775
0
LINE
8
BLACK
10
162.4
20
-100.775
11
162.4
21
-100.175
0
LINE
8
BLACK
10
162.4
20
-100.175
11
161.2
21
-100.175
0
LINE
8
BLACK
10
161.2
20
-99.225
11
161.2
21
-99.825
0
LINE
8
BLACK
10
161.2
20
-99.825
11
162.4
21
-99.825
0
LINE
8
BLACK
10
162.4
20
-99.825
11
162.4
21
-99.225
0
LINE
8
BLACK
10
162.4
20
-99.225
11
161.2
21
-99.225
0
LINE
8
BLACK
10
181.6
20
-126.225
11
181.6
21
-126.825
0
LINE
8
BLACK
10
181.6
20
-126.825
11
182.8
21
-126.825
0
LINE
8
BLACK
10
182.8
20
-126.825
11
182.8
21
-126.225
0
LINE
8
BLACK
10
182.8
20
-126.225
11
181.6
21
-126.225
0
LINE
8
BLACK
10
181.6
20
-127.175
11
181.6
21
-127.775
0
LINE
8
BLACK
10
181.6
20
-127.775
11
182.8
21
-127.775
0
LINE
8
BLACK
10
182.8
20
-127.775
11
182.8
21
-127.175
0
LINE
8
BLACK
10
182.8
20
-127.175
11
181.6
21
-127.175
0
LINE
8
BLACK
10
179.2
20
-127.175
11
179.2
21
-127.775
0
LINE
8
BLACK
10
179.2
20
-127.775
11
180.4
21
-127.775
0
LINE
8
BLACK
10
180.4
20
-127.775
11
180.4
21
-127.175
0
LINE
8
BLACK
10
180.4
20
-127.175
11
179.2
21
-127.175
0
LINE
8
BLACK
10
179.2
20
-126.225
11
179.2
21
-126.825
0
LINE
8
BLACK
10
179.2
20
-126.825
11
180.4
21
-126.825
0
LINE
8
BLACK
10
180.4
20
-126.825
11
180.4
21
-126.225
0
LINE
8
BLACK
10
180.4
20
-126.225
11
179.2
21
-126.225
0
LINE
8
BLACK
10
181.6
20
-117.225
11
181.6
21
-117.825
0
LINE
8
BLACK
10
181.6
20
-117.825
11
182.8
21
-117.825
0
LINE
8
BLACK
10
182.8
20
-117.825
11
182.8
21
-117.225
0
LINE
8
BLACK
10
182.8
20
-117.225
11
181.6
21
-117.225
0
LINE
8
BLACK
10
181.6
20
-118.175
11
181.6
21
-118.775
0
LINE
8
BLACK
10
181.6
20
-118.775
11
182.8
21
-118.775
0
LINE
8
BLACK
10
182.8
20
-118.775
11
182.8
21
-118.175
0
LINE
8
BLACK
10
182.8
20
-118.175
11
181.6
21
-118.175
0
LINE
8
BLACK
10
179.2
20
-118.175
11
179.2
21
-118.775
0
LINE
8
BLACK
10
179.2
20
-118.775
11
180.4
21
-118.775
0
LINE
8
BLACK
10
180.4
20
-118.775
11
180.4
21
-118.175
0
LINE
8
BLACK
10
180.4
20
-118.175
11
179.2
21
-118.175
0
LINE
8
BLACK
10
179.2
20
-117.225
11
179.2
21
-117.825
0
LINE
8
BLACK
10
179.2
20
-117.825
11
180.4
21
-117.825
0
LINE
8
BLACK
10
180.4
20
-117.825
11
180.4
21
-117.225
0
LINE
8
BLACK
10
180.4
20
-117.225
11
179.2
21
-117.225
0
LINE
8
BLACK
10
181.6
20
-108.225
11
181.6
21
-108.825
0
LINE
8
BLACK
10
181.6
20
-108.825
11
182.8
21
-108.825
0
LINE
8
BLACK
10
182.8
20
-108.825
11
182.8
21
-108.225
0
LINE
8
BLACK
10
182.8
20
-108.225
11
181.6
21
-108.225
0
LINE
8
BLACK
10
181.6
20
-109.175
11
181.6
21
-109.775
0
LINE
8
BLACK
10
181.6
20
-109.775
11
182.8
21
-109.775
0
LINE
8
BLACK
10
182.8
20
-109.775
11
182.8
21
-109.175
0
LINE
8
BLACK
10
182.8
20
-109.175
11
181.6
21
-109.175
0
LINE
8
BLACK
10
179.2
20
-109.175
11
179.2
21
-109.775
0
LINE
8
BLACK
10
179.2
20
-109.775
11
180.4
21
-109.775
0
LINE
8
BLACK
10
180.4
20
-109.775
11
180.4
21
-109.175
0
LINE
8
BLACK
10
180.4
20
-109.175
11
179.2
21
-109.175
0
LINE
8
BLACK
10
179.2
20
-108.225
11
179.2
21
-108.825
0
LINE
8
BLACK
10
179.2
20
-108.825
11
180.4
21
-108.825
0
LINE
8
BLACK
10
180.4
20
-108.825
11
180.4
21
-108.225
0
LINE
8
BLACK
10
180.4
20
-108.225
11
179.2
21
-108.225
0
LINE
8
BLACK
10
181.6
20
-99.225
11
181.6
21
-99.825
0
LINE
8
BLACK
10
181.6
20
-99.825
11
182.8
21
-99.825
0
LINE
8
BLACK
10
182.8
20
-99.825
11
182.8
21
-99.225
0
LINE
8
BLACK
10
182.8
20
-99.225
11
181.6
21
-99.225
0
LINE
8
BLACK
10
181.6
20
-100.175
11
181.6
21
-100.775
0
LINE
8
BLACK
10
181.6
20
-100.775
11
182.8
21
-100.775
0
LINE
8
BLACK
10
182.8
20
-100.775
11
182.8
21
-100.175
0
LINE
8
BLACK
10
182.8
20
-100.175
11
181.6
21
-100.175
0
LINE
8
BLACK
10
179.2
20
-100.175
11
179.2
21
-100.775
0
LINE
8
BLACK
10
179.2
20
-100.775
11
180.4
21
-100.775
0
LINE
8
BLACK
10
180.4
20
-100.775
11
180.4
21
-100.175
0
LINE
8
BLACK
10
180.4
20
-100.175
11
179.2
21
-100.175
0
LINE
8
BLACK
10
179.2
20
-99.225
11
179.2
21
-99.825
0
LINE
8
BLACK
10
179.2
20
-99.825
11
180.4
21
-99.825
0
LINE
8
BLACK
10
180.4
20
-99.825
11
180.4
21
-99.225
0
LINE
8
BLACK
10
180.4
20
-99.225
11
179.2
21
-99.225
0
LINE
8
BLACK
10
190.6
20
-126.225
11
190.6
21
-126.825
0
LINE
8
BLACK
10
190.6
20
-126.825
11
191.8
21
-126.825
0
LINE
8
BLACK
10
191.8
20
-126.825
11
191.8
21
-126.225
0
LINE
8
BLACK
10
191.8
20
-126.225
11
190.6
21
-126.225
0
LINE
8
BLACK
10
190.6
20
-127.175
11
190.6
21
-127.775
0
LINE
8
BLACK
10
190.6
20
-127.775
11
191.8
21
-127.775
0
LINE
8
BLACK
10
191.8
20
-127.775
11
191.8
21
-127.175
0
LINE
8
BLACK
10
191.8
20
-127.175
11
190.6
21
-127.175
0
LINE
8
BLACK
10
188.2
20
-127.175
11
188.2
21
-127.775
0
LINE
8
BLACK
10
188.2
20
-127.775
11
189.4
21
-127.775
0
LINE
8
BLACK
10
189.4
20
-127.775
11
189.4
21
-127.175
0
LINE
8
BLACK
10
189.4
20
-127.175
11
188.2
21
-127.175
0
LINE
8
BLACK
10
188.2
20
-126.225
11
188.2
21
-126.825
0
LINE
8
BLACK
10
188.2
20
-126.825
11
189.4
21
-126.825
0
LINE
8
BLACK
10
189.4
20
-126.825
11
189.4
21
-126.225
0
LINE
8
BLACK
10
189.4
20
-126.225
11
188.2
21
-126.225
0
LINE
8
BLACK
10
190.6
20
-117.225
11
190.6
21
-117.825
0
LINE
8
BLACK
10
190.6
20
-117.825
11
191.8
21
-117.825
0
LINE
8
BLACK
10
191.8
20
-117.825
11
191.8
21
-117.225
0
LINE
8
BLACK
10
191.8
20
-117.225
11
190.6
21
-117.225
0
LINE
8
BLACK
10
190.6
20
-118.175
11
190.6
21
-118.775
0
LINE
8
BLACK
10
190.6
20
-118.775
11
191.8
21
-118.775
0
LINE
8
BLACK
10
191.8
20
-118.775
11
191.8
21
-118.175
0
LINE
8
BLACK
10
191.8
20
-118.175
11
190.6
21
-118.175
0
LINE
8
BLACK
10
188.2
20
-118.175
11
188.2
21
-118.775
0
LINE
8
BLACK
10
188.2
20
-118.775
11
189.4
21
-118.775
0
LINE
8
BLACK
10
189.4
20
-118.775
11
189.4
21
-118.175
0
LINE
8
BLACK
10
189.4
20
-118.175
11
188.2
21
-118.175
0
LINE
8
BLACK
10
188.2
20
-117.225
11
188.2
21
-117.825
0
LINE
8
BLACK
10
188.2
20
-117.825
11
189.4
21
-117.825
0
LINE
8
BLACK
10
189.4
20
-117.825
11
189.4
21
-117.225
0
LINE
8
BLACK
10
189.4
20
-117.225
11
188.2
21
-117.225
0
LINE
8
BLACK
10
190.6
20
-108.225
11
190.6
21
-108.825
0
LINE
8
BLACK
10
190.6
20
-108.825
11
191.8
21
-108.825
0
LINE
8
BLACK
10
191.8
20
-108.825
11
191.8
21
-108.225
0
LINE
8
BLACK
10
191.8
20
-108.225
11
190.6
21
-108.225
0
LINE
8
BLACK
10
190.6
20
-109.175
11
190.6
21
-109.775
0
LINE
8
BLACK
10
190.6
20
-109.775
11
191.8
21
-109.775
0
LINE
8
BLACK
10
191.8
20
-109.775
11
191.8
21
-109.175
0
LINE
8
BLACK
10
191.8
20
-109.175
11
190.6
21
-109.175
0
LINE
8
BLACK
10
188.2
20
-109.175
11
188.2
21
-109.775
0
LINE
8
BLACK
10
188.2
20
-109.775
11
189.4
21
-109.775
0
LINE
8
BLACK
10
189.4
20
-109.775
11
189.4
21
-109.175
0
LINE
8
BLACK
10
189.4
20
-109.175
11
188.2
21
-109.175
0
LINE
8
BLACK
10
188.2
20
-108.225
11
188.2
21
-108.825
0
LINE
8
BLACK
10
188.2
20
-108.825
11
189.4
21
-108.825
0
LINE
8
BLACK
10
189.4
20
-108.825
11
189.4
21
-108.225
0
LINE
8
BLACK
10
189.4
20
-108.225
11
188.2
21
-108.225
0
LINE
8
BLACK
10
190.6
20
-99.225
11
190.6
21
-99.825
0
LINE
8
BLACK
10
190.6
20
-99.825
11
191.8
21
-99.825
0
LINE
8
BLACK
10
191.8
20
-99.825
11
191.8
21
-99.225
0
LINE
8
BLACK
10
191.8
20
-99.225
11
190.6
21
-99.225
0
LINE
8
BLACK
10
190.6
20
-100.175
11
190.6
21
-100.775
0
LINE
8
BLACK
10
190.6
20
-100.775
11
191.8
21
-100.775
0
LINE
8
BLACK
10
191.8
20
-100.775
11
191.8
21
-100.175
0
LINE
8
BLACK
10
191.8
20
-100.175
11
190.6
21
-100.175
0
LINE
8
BLACK
10
188.2
20
-100.175
11
188.2
21
-100.775
0
LINE
8
BLACK
10
188.2
20
-100.775
11
189.4
21
-100.775
0
LINE
8
BLACK
10
189.4
20
-100.775
11
189.4
21
-100.175
0
LINE
8
BLACK
10
189.4
20
-100.175
11
188.2
21
-100.175
0
LINE
8
BLACK
10
188.2
20
-99.225
11
188.2
21
-99.825
0
LINE
8
BLACK
10
188.2
20
-99.825
11
189.4
21
-99.825
0
LINE
8
BLACK
10
189.4
20
-99.825
11
189.4
21
-99.225
0
LINE
8
BLACK
10
189.4
20
-99.225
11
188.2
21
-99.225
0
LINE
8
BLACK
10
199.6
20
-126.225
11
199.6
21
-126.825
0
LINE
8
BLACK
10
199.6
20
-126.825
11
200.8
21
-126.825
0
LINE
8
BLACK
10
200.8
20
-126.825
11
200.8
21
-126.225
0
LINE
8
BLACK
10
200.8
20
-126.225
11
199.6
21
-126.225
0
LINE
8
BLACK
10
199.6
20
-127.175
11
199.6
21
-127.775
0
LINE
8
BLACK
10
199.6
20
-127.775
11
200.8
21
-127.775
0
LINE
8
BLACK
10
200.8
20
-127.775
11
200.8
21
-127.175
0
LINE
8
BLACK
10
200.8
20
-127.175
11
199.6
21
-127.175
0
LINE
8
BLACK
10
197.2
20
-127.175
11
197.2
21
-127.775
0
LINE
8
BLACK
10
197.2
20
-127.775
11
198.4
21
-127.775
0
LINE
8
BLACK
10
198.4
20
-127.775
11
198.4
21
-127.175
0
LINE
8
BLACK
10
198.4
20
-127.175
11
197.2
21
-127.175
0
LINE
8
BLACK
10
197.2
20
-126.225
11
197.2
21
-126.825
0
LINE
8
BLACK
10
197.2
20
-126.825
11
198.4
21
-126.825
0
LINE
8
BLACK
10
198.4
20
-126.825
11
198.4
21
-126.225
0
LINE
8
BLACK
10
198.4
20
-126.225
11
197.2
21
-126.225
0
LINE
8
BLACK
10
136.6
20
-108.225
11
136.6
21
-108.825
0
LINE
8
BLACK
10
136.6
20
-108.825
11
137.8
21
-108.825
0
LINE
8
BLACK
10
137.8
20
-108.825
11
137.8
21
-108.225
0
LINE
8
BLACK
10
137.8
20
-108.225
11
136.6
21
-108.225
0
LINE
8
BLACK
10
136.6
20
-109.175
11
136.6
21
-109.775
0
LINE
8
BLACK
10
136.6
20
-109.775
11
137.8
21
-109.775
0
LINE
8
BLACK
10
137.8
20
-109.775
11
137.8
21
-109.175
0
LINE
8
BLACK
10
137.8
20
-109.175
11
136.6
21
-109.175
0
LINE
8
BLACK
10
134.2
20
-109.175
11
134.2
21
-109.775
0
LINE
8
BLACK
10
134.2
20
-109.775
11
135.4
21
-109.775
0
LINE
8
BLACK
10
135.4
20
-109.775
11
135.4
21
-109.175
0
LINE
8
BLACK
10
135.4
20
-109.175
11
134.2
21
-109.175
0
LINE
8
BLACK
10
134.2
20
-108.225
11
134.2
21
-108.825
0
LINE
8
BLACK
10
134.2
20
-108.825
11
135.4
21
-108.825
0
LINE
8
BLACK
10
135.4
20
-108.825
11
135.4
21
-108.225
0
LINE
8
BLACK
10
135.4
20
-108.225
11
134.2
21
-108.225
0
LINE
8
BLACK
10
100.6
20
-162.225
11
100.6
21
-162.825
0
LINE
8
BLACK
10
100.6
20
-162.825
11
101.8
21
-162.825
0
LINE
8
BLACK
10
101.8
20
-162.825
11
101.8
21
-162.225
0
LINE
8
BLACK
10
101.8
20
-162.225
11
100.6
21
-162.225
0
LINE
8
BLACK
10
100.6
20
-163.175
11
100.6
21
-163.775
0
LINE
8
BLACK
10
100.6
20
-163.775
11
101.8
21
-163.775
0
LINE
8
BLACK
10
101.8
20
-163.775
11
101.8
21
-163.175
0
LINE
8
BLACK
10
101.8
20
-163.175
11
100.6
21
-163.175
0
LINE
8
BLACK
10
98.2
20
-163.175
11
98.2
21
-163.775
0
LINE
8
BLACK
10
98.2
20
-163.775
11
99.4
21
-163.775
0
LINE
8
BLACK
10
99.4
20
-163.775
11
99.4
21
-163.175
0
LINE
8
BLACK
10
99.4
20
-163.175
11
98.2
21
-163.175
0
LINE
8
BLACK
10
98.2
20
-162.225
11
98.2
21
-162.825
0
LINE
8
BLACK
10
98.2
20
-162.825
11
99.4
21
-162.825
0
LINE
8
BLACK
10
99.4
20
-162.825
11
99.4
21
-162.225
0
LINE
8
BLACK
10
99.4
20
-162.225
11
98.2
21
-162.225
0
LINE
8
BLACK
10
100.6
20
-126.225
11
100.6
21
-126.825
0
LINE
8
BLACK
10
100.6
20
-126.825
11
101.8
21
-126.825
0
LINE
8
BLACK
10
101.8
20
-126.825
11
101.8
21
-126.225
0
LINE
8
BLACK
10
101.8
20
-126.225
11
100.6
21
-126.225
0
LINE
8
BLACK
10
100.6
20
-127.175
11
100.6
21
-127.775
0
LINE
8
BLACK
10
100.6
20
-127.775
11
101.8
21
-127.775
0
LINE
8
BLACK
10
101.8
20
-127.775
11
101.8
21
-127.175
0
LINE
8
BLACK
10
101.8
20
-127.175
11
100.6
21
-127.175
0
LINE
8
BLACK
10
98.2
20
-127.175
11
98.2
21
-127.775
0
LINE
8
BLACK
10
98.2
20
-127.775
11
99.4
21
-127.775
0
LINE
8
BLACK
10
99.4
20
-127.775
11
99.4
21
-127.175
0
LINE
8
BLACK
10
99.4
20
-127.175
11
98.2
21
-127.175
0
LINE
8
BLACK
10
98.2
20
-126.225
11
98.2
21
-126.825
0
LINE
8
BLACK
10
98.2
20
-126.825
11
99.4
21
-126.825
0
LINE
8
BLACK
10
99.4
20
-126.825
11
99.4
21
-126.225
0
LINE
8
BLACK
10
99.4
20
-126.225
11
98.2
21
-126.225
0
LINE
8
BLACK
10
100.6
20
-117.225
11
100.6
21
-117.825
0
LINE
8
BLACK
10
100.6
20
-117.825
11
101.8
21
-117.825
0
LINE
8
BLACK
10
101.8
20
-117.825
11
101.8
21
-117.225
0
LINE
8
BLACK
10
101.8
20
-117.225
11
100.6
21
-117.225
0
LINE
8
BLACK
10
100.6
20
-118.175
11
100.6
21
-118.775
0
LINE
8
BLACK
10
100.6
20
-118.775
11
101.8
21
-118.775
0
LINE
8
BLACK
10
101.8
20
-118.775
11
101.8
21
-118.175
0
LINE
8
BLACK
10
101.8
20
-118.175
11
100.6
21
-118.175
0
LINE
8
BLACK
10
98.2
20
-118.175
11
98.2
21
-118.775
0
LINE
8
BLACK
10
98.2
20
-118.775
11
99.4
21
-118.775
0
LINE
8
BLACK
10
99.4
20
-118.775
11
99.4
21
-118.175
0
LINE
8
BLACK
10
99.4
20
-118.175
11
98.2
21
-118.175
0
LINE
8
BLACK
10
98.2
20
-117.225
11
98.2
21
-117.825
0
LINE
8
BLACK
10
98.2
20
-117.825
11
99.4
21
-117.825
0
LINE
8
BLACK
10
99.4
20
-117.825
11
99.4
21
-117.225
0
LINE
8
BLACK
10
99.4
20
-117.225
11
98.2
21
-117.225
0
LINE
8
BLACK
10
100.6
20
-108.225
11
100.6
21
-108.825
0
LINE
8
BLACK
10
100.6
20
-108.825
11
101.8
21
-108.825
0
LINE
8
BLACK
10
101.8
20
-108.825
11
101.8
21
-108.225
0
LINE
8
BLACK
10
101.8
20
-108.225
11
100.6
21
-108.225
0
LINE
8
BLACK
10
100.6
20
-109.175
11
100.6
21
-109.775
0
LINE
8
BLACK
10
100.6
20
-109.775
11
101.8
21
-109.775
0
LINE
8
BLACK
10
101.8
20
-109.775
11
101.8
21
-109.175
0
LINE
8
BLACK
10
101.8
20
-109.175
11
100.6
21
-109.175
0
LINE
8
BLACK
10
98.2
20
-109.175
11
98.2
21
-109.775
0
LINE
8
BLACK
10
98.2
20
-109.775
11
99.4
21
-109.775
0
LINE
8
BLACK
10
99.4
20
-109.775
11
99.4
21
-109.175
0
LINE
8
BLACK
10
99.4
20
-109.175
11
98.2
21
-109.175
0
LINE
8
BLACK
10
98.2
20
-108.225
11
98.2
21
-108.825
0
LINE
8
BLACK
10
98.2
20
-108.825
11
99.4
21
-108.825
0
LINE
8
BLACK
10
99.4
20
-108.825
11
99.4
21
-108.225
0
LINE
8
BLACK
10
99.4
20
-108.225
11
98.2
21
-108.225
0
LINE
8
BLACK
10
100.6
20
-99.225
11
100.6
21
-99.825
0
LINE
8
BLACK
10
100.6
20
-99.825
11
101.8
21
-99.825
0
LINE
8
BLACK
10
101.8
20
-99.825
11
101.8
21
-99.225
0
LINE
8
BLACK
10
101.8
20
-99.225
11
100.6
21
-99.225
0
LINE
8
BLACK
10
100.6
20
-100.175
11
100.6
21
-100.775
0
LINE
8
BLACK
10
100.6
20
-100.775
11
101.8
21
-100.775
0
LINE
8
BLACK
10
101.8
20
-100.775
11
101.8
21
-100.175
0
LINE
8
BLACK
10
101.8
20
-100.175
11
100.6
21
-100.175
0
LINE
8
BLACK
10
98.2
20
-100.175
11
98.2
21
-100.775
0
LINE
8
BLACK
10
98.2
20
-100.775
11
99.4
21
-100.775
0
LINE
8
BLACK
10
99.4
20
-100.775
11
99.4
21
-100.175
0
LINE
8
BLACK
10
99.4
20
-100.175
11
98.2
21
-100.175
0
LINE
8
BLACK
10
98.2
20
-99.225
11
98.2
21
-99.825
0
LINE
8
BLACK
10
98.2
20
-99.825
11
99.4
21
-99.825
0
LINE
8
BLACK
10
99.4
20
-99.825
11
99.4
21
-99.225
0
LINE
8
BLACK
10
99.4
20
-99.225
11
98.2
21
-99.225
0
LINE
8
BLACK
10
118.6
20
-126.225
11
118.6
21
-126.825
0
LINE
8
BLACK
10
118.6
20
-126.825
11
119.8
21
-126.825
0
LINE
8
BLACK
10
119.8
20
-126.825
11
119.8
21
-126.225
0
LINE
8
BLACK
10
119.8
20
-126.225
11
118.6
21
-126.225
0
LINE
8
BLACK
10
118.6
20
-127.175
11
118.6
21
-127.775
0
LINE
8
BLACK
10
118.6
20
-127.775
11
119.8
21
-127.775
0
LINE
8
BLACK
10
119.8
20
-127.775
11
119.8
21
-127.175
0
LINE
8
BLACK
10
119.8
20
-127.175
11
118.6
21
-127.175
0
LINE
8
BLACK
10
116.2
20
-127.175
11
116.2
21
-127.775
0
LINE
8
BLACK
10
116.2
20
-127.775
11
117.4
21
-127.775
0
LINE
8
BLACK
10
117.4
20
-127.775
11
117.4
21
-127.175
0
LINE
8
BLACK
10
117.4
20
-127.175
11
116.2
21
-127.175
0
LINE
8
BLACK
10
116.2
20
-126.225
11
116.2
21
-126.825
0
LINE
8
BLACK
10
116.2
20
-126.825
11
117.4
21
-126.825
0
LINE
8
BLACK
10
117.4
20
-126.825
11
117.4
21
-126.225
0
LINE
8
BLACK
10
117.4
20
-126.225
11
116.2
21
-126.225
0
LINE
8
BLACK
10
118.6
20
-117.225
11
118.6
21
-117.825
0
LINE
8
BLACK
10
118.6
20
-117.825
11
119.8
21
-117.825
0
LINE
8
BLACK
10
119.8
20
-117.825
11
119.8
21
-117.225
0
LINE
8
BLACK
10
119.8
20
-117.225
11
118.6
21
-117.225
0
LINE
8
BLACK
10
118.6
20
-118.175
11
118.6
21
-118.775
0
LINE
8
BLACK
10
118.6
20
-118.775
11
119.8
21
-118.775
0
LINE
8
BLACK
10
119.8
20
-118.775
11
119.8
21
-118.175
0
LINE
8
BLACK
10
119.8
20
-118.175
11
118.6
21
-118.175
0
LINE
8
BLACK
10
116.2
20
-118.175
11
116.2
21
-118.775
0
LINE
8
BLACK
10
116.2
20
-118.775
11
117.4
21
-118.775
0
LINE
8
BLACK
10
117.4
20
-118.775
11
117.4
21
-118.175
0
LINE
8
BLACK
10
117.4
20
-118.175
11
116.2
21
-118.175
0
LINE
8
BLACK
10
116.2
20
-117.225
11
116.2
21
-117.825
0
LINE
8
BLACK
10
116.2
20
-117.825
11
117.4
21
-117.825
0
LINE
8
BLACK
10
117.4
20
-117.825
11
117.4
21
-117.225
0
LINE
8
BLACK
10
117.4
20
-117.225
11
116.2
21
-117.225
0
LINE
8
BLACK
10
118.6
20
-108.225
11
118.6
21
-108.825
0
LINE
8
BLACK
10
118.6
20
-108.825
11
119.8
21
-108.825
0
LINE
8
BLACK
10
119.8
20
-108.825
11
119.8
21
-108.225
0
LINE
8
BLACK
10
119.8
20
-108.225
11
118.6
21
-108.225
0
LINE
8
BLACK
10
118.6
20
-109.175
11
118.6
21
-109.775
0
LINE
8
BLACK
10
118.6
20
-109.775
11
119.8
21
-109.775
0
LINE
8
BLACK
10
119.8
20
-109.775
11
119.8
21
-109.175
0
LINE
8
BLACK
10
119.8
20
-109.175
11
118.6
21
-109.175
0
LINE
8
BLACK
10
116.2
20
-109.175
11
116.2
21
-109.775
0
LINE
8
BLACK
10
116.2
20
-109.775
11
117.4
21
-109.775
0
LINE
8
BLACK
10
117.4
20
-109.775
11
117.4
21
-109.175
0
LINE
8
BLACK
10
117.4
20
-109.175
11
116.2
21
-109.175
0
LINE
8
BLACK
10
116.2
20
-108.225
11
116.2
21
-108.825
0
LINE
8
BLACK
10
116.2
20
-108.825
11
117.4
21
-108.825
0
LINE
8
BLACK
10
117.4
20
-108.825
11
117.4
21
-108.225
0
LINE
8
BLACK
10
117.4
20
-108.225
11
116.2
21
-108.225
0
LINE
8
BLACK
10
118.6
20
-99.225
11
118.6
21
-99.825
0
LINE
8
BLACK
10
118.6
20
-99.825
11
119.8
21
-99.825
0
LINE
8
BLACK
10
119.8
20
-99.825
11
119.8
21
-99.225
0
LINE
8
BLACK
10
119.8
20
-99.225
11
118.6
21
-99.225
0
LINE
8
BLACK
10
118.6
20
-100.175
11
118.6
21
-100.775
0
LINE
8
BLACK
10
118.6
20
-100.775
11
119.8
21
-100.775
0
LINE
8
BLACK
10
119.8
20
-100.775
11
119.8
21
-100.175
0
LINE
8
BLACK
10
119.8
20
-100.175
11
118.6
21
-100.175
0
LINE
8
BLACK
10
116.2
20
-100.175
11
116.2
21
-100.775
0
LINE
8
BLACK
10
116.2
20
-100.775
11
117.4
21
-100.775
0
LINE
8
BLACK
10
117.4
20
-100.775
11
117.4
21
-100.175
0
LINE
8
BLACK
10
117.4
20
-100.175
11
116.2
21
-100.175
0
LINE
8
BLACK
10
116.2
20
-99.225
11
116.2
21
-99.825
0
LINE
8
BLACK
10
116.2
20
-99.825
11
117.4
21
-99.825
0
LINE
8
BLACK
10
117.4
20
-99.825
11
117.4
21
-99.225
0
LINE
8
BLACK
10
117.4
20
-99.225
11
116.2
21
-99.225
0
LINE
8
BLACK
10
136.6
20
-126.225
11
136.6
21
-126.825
0
LINE
8
BLACK
10
136.6
20
-126.825
11
137.8
21
-126.825
0
LINE
8
BLACK
10
137.8
20
-126.825
11
137.8
21
-126.225
0
LINE
8
BLACK
10
137.8
20
-126.225
11
136.6
21
-126.225
0
LINE
8
BLACK
10
136.6
20
-127.175
11
136.6
21
-127.775
0
LINE
8
BLACK
10
136.6
20
-127.775
11
137.8
21
-127.775
0
LINE
8
BLACK
10
137.8
20
-127.775
11
137.8
21
-127.175
0
LINE
8
BLACK
10
137.8
20
-127.175
11
136.6
21
-127.175
0
LINE
8
BLACK
10
134.2
20
-127.175
11
134.2
21
-127.775
0
LINE
8
BLACK
10
134.2
20
-127.775
11
135.4
21
-127.775
0
LINE
8
BLACK
10
135.4
20
-127.775
11
135.4
21
-127.175
0
LINE
8
BLACK
10
135.4
20
-127.175
11
134.2
21
-127.175
0
LINE
8
BLACK
10
134.2
20
-126.225
11
134.2
21
-126.825
0
LINE
8
BLACK
10
134.2
20
-126.825
11
135.4
21
-126.825
0
LINE
8
BLACK
10
135.4
20
-126.825
11
135.4
21
-126.225
0
LINE
8
BLACK
10
135.4
20
-126.225
11
134.2
21
-126.225
0
LINE
8
BLACK
10
136.6
20
-117.225
11
136.6
21
-117.825
0
LINE
8
BLACK
10
136.6
20
-117.825
11
137.8
21
-117.825
0
LINE
8
BLACK
10
137.8
20
-117.825
11
137.8
21
-117.225
0
LINE
8
BLACK
10
137.8
20
-117.225
11
136.6
21
-117.225
0
LINE
8
BLACK
10
136.6
20
-118.175
11
136.6
21
-118.775
0
LINE
8
BLACK
10
136.6
20
-118.775
11
137.8
21
-118.775
0
LINE
8
BLACK
10
137.8
20
-118.775
11
137.8
21
-118.175
0
LINE
8
BLACK
10
137.8
20
-118.175
11
136.6
21
-118.175
0
LINE
8
BLACK
10
134.2
20
-118.175
11
134.2
21
-118.775
0
LINE
8
BLACK
10
134.2
20
-118.775
11
135.4
21
-118.775
0
LINE
8
BLACK
10
135.4
20
-118.775
11
135.4
21
-118.175
0
LINE
8
BLACK
10
135.4
20
-118.175
11
134.2
21
-118.175
0
LINE
8
BLACK
10
134.2
20
-117.225
11
134.2
21
-117.825
0
LINE
8
BLACK
10
134.2
20
-117.825
11
135.4
21
-117.825
0
LINE
8
BLACK
10
135.4
20
-117.825
11
135.4
21
-117.225
0
LINE
8
BLACK
10
135.4
20
-117.225
11
134.2
21
-117.225
0
LINE
8
BLACK
10
199.6
20
-117.225
11
199.6
21
-117.825
0
LINE
8
BLACK
10
199.6
20
-117.825
11
200.8
21
-117.825
0
LINE
8
BLACK
10
200.8
20
-117.825
11
200.8
21
-117.225
0
LINE
8
BLACK
10
200.8
20
-117.225
11
199.6
21
-117.225
0
LINE
8
BLACK
10
199.6
20
-118.175
11
199.6
21
-118.775
0
LINE
8
BLACK
10
199.6
20
-118.775
11
200.8
21
-118.775
0
LINE
8
BLACK
10
200.8
20
-118.775
11
200.8
21
-118.175
0
LINE
8
BLACK
10
200.8
20
-118.175
11
199.6
21
-118.175
0
LINE
8
BLACK
10
197.2
20
-118.175
11
197.2
21
-118.775
0
LINE
8
BLACK
10
197.2
20
-118.775
11
198.4
21
-118.775
0
LINE
8
BLACK
10
198.4
20
-118.775
11
198.4
21
-118.175
0
LINE
8
BLACK
10
198.4
20
-118.175
11
197.2
21
-118.175
0
LINE
8
BLACK
10
197.2
20
-117.225
11
197.2
21
-117.825
0
LINE
8
BLACK
10
197.2
20
-117.825
11
198.4
21
-117.825
0
LINE
8
BLACK
10
198.4
20
-117.825
11
198.4
21
-117.225
0
LINE
8
BLACK
10
198.4
20
-117.225
11
197.2
21
-117.225
0
LINE
8
BLACK
10
136.6
20
-99.225
11
136.6
21
-99.825
0
LINE
8
BLACK
10
136.6
20
-99.825
11
137.8
21
-99.825
0
LINE
8
BLACK
10
137.8
20
-99.825
11
137.8
21
-99.225
0
LINE
8
BLACK
10
137.8
20
-99.225
11
136.6
21
-99.225
0
LINE
8
BLACK
10
136.6
20
-100.175
11
136.6
21
-100.775
0
LINE
8
BLACK
10
136.6
20
-100.775
11
137.8
21
-100.775
0
LINE
8
BLACK
10
137.8
20
-100.775
11
137.8
21
-100.175
0
LINE
8
BLACK
10
137.8
20
-100.175
11
136.6
21
-100.175
0
LINE
8
BLACK
10
134.2
20
-100.175
11
134.2
21
-100.775
0
LINE
8
BLACK
10
134.2
20
-100.775
11
135.4
21
-100.775
0
LINE
8
BLACK
10
135.4
20
-100.775
11
135.4
21
-100.175
0
LINE
8
BLACK
10
135.4
20
-100.175
11
134.2
21
-100.175
0
LINE
8
BLACK
10
134.2
20
-99.225
11
134.2
21
-99.825
0
LINE
8
BLACK
10
134.2
20
-99.825
11
135.4
21
-99.825
0
LINE
8
BLACK
10
135.4
20
-99.825
11
135.4
21
-99.225
0
LINE
8
BLACK
10
135.4
20
-99.225
11
134.2
21
-99.225
0
LINE
8
BLACK
10
109.6
20
-126.225
11
109.6
21
-126.825
0
LINE
8
BLACK
10
109.6
20
-126.825
11
110.8
21
-126.825
0
LINE
8
BLACK
10
110.8
20
-126.825
11
110.8
21
-126.225
0
LINE
8
BLACK
10
110.8
20
-126.225
11
109.6
21
-126.225
0
LINE
8
BLACK
10
109.6
20
-127.175
11
109.6
21
-127.775
0
LINE
8
BLACK
10
109.6
20
-127.775
11
110.8
21
-127.775
0
LINE
8
BLACK
10
110.8
20
-127.775
11
110.8
21
-127.175
0
LINE
8
BLACK
10
110.8
20
-127.175
11
109.6
21
-127.175
0
LINE
8
BLACK
10
107.2
20
-127.175
11
107.2
21
-127.775
0
LINE
8
BLACK
10
107.2
20
-127.775
11
108.4
21
-127.775
0
LINE
8
BLACK
10
108.4
20
-127.775
11
108.4
21
-127.175
0
LINE
8
BLACK
10
108.4
20
-127.175
11
107.2
21
-127.175
0
LINE
8
BLACK
10
107.2
20
-126.225
11
107.2
21
-126.825
0
LINE
8
BLACK
10
107.2
20
-126.825
11
108.4
21
-126.825
0
LINE
8
BLACK
10
108.4
20
-126.825
11
108.4
21
-126.225
0
LINE
8
BLACK
10
108.4
20
-126.225
11
107.2
21
-126.225
0
LINE
8
BLACK
10
109.6
20
-117.225
11
109.6
21
-117.825
0
LINE
8
BLACK
10
109.6
20
-117.825
11
110.8
21
-117.825
0
LINE
8
BLACK
10
110.8
20
-117.825
11
110.8
21
-117.225
0
LINE
8
BLACK
10
110.8
20
-117.225
11
109.6
21
-117.225
0
LINE
8
BLACK
10
109.6
20
-118.175
11
109.6
21
-118.775
0
LINE
8
BLACK
10
109.6
20
-118.775
11
110.8
21
-118.775
0
LINE
8
BLACK
10
110.8
20
-118.775
11
110.8
21
-118.175
0
LINE
8
BLACK
10
110.8
20
-118.175
11
109.6
21
-118.175
0
LINE
8
BLACK
10
107.2
20
-118.175
11
107.2
21
-118.775
0
LINE
8
BLACK
10
107.2
20
-118.775
11
108.4
21
-118.775
0
LINE
8
BLACK
10
108.4
20
-118.775
11
108.4
21
-118.175
0
LINE
8
BLACK
10
108.4
20
-118.175
11
107.2
21
-118.175
0
LINE
8
BLACK
10
107.2
20
-117.225
11
107.2
21
-117.825
0
LINE
8
BLACK
10
107.2
20
-117.825
11
108.4
21
-117.825
0
LINE
8
BLACK
10
108.4
20
-117.825
11
108.4
21
-117.225
0
LINE
8
BLACK
10
108.4
20
-117.225
11
107.2
21
-117.225
0
LINE
8
BLACK
10
109.6
20
-108.225
11
109.6
21
-108.825
0
LINE
8
BLACK
10
109.6
20
-108.825
11
110.8
21
-108.825
0
LINE
8
BLACK
10
110.8
20
-108.825
11
110.8
21
-108.225
0
LINE
8
BLACK
10
110.8
20
-108.225
11
109.6
21
-108.225
0
LINE
8
BLACK
10
109.6
20
-109.175
11
109.6
21
-109.775
0
LINE
8
BLACK
10
109.6
20
-109.775
11
110.8
21
-109.775
0
LINE
8
BLACK
10
110.8
20
-109.775
11
110.8
21
-109.175
0
LINE
8
BLACK
10
110.8
20
-109.175
11
109.6
21
-109.175
0
LINE
8
BLACK
10
107.2
20
-109.175
11
107.2
21
-109.775
0
LINE
8
BLACK
10
107.2
20
-109.775
11
108.4
21
-109.775
0
LINE
8
BLACK
10
108.4
20
-109.775
11
108.4
21
-109.175
0
LINE
8
BLACK
10
108.4
20
-109.175
11
107.2
21
-109.175
0
LINE
8
BLACK
10
107.2
20
-108.225
11
107.2
21
-108.825
0
LINE
8
BLACK
10
107.2
20
-108.825
11
108.4
21
-108.825
0
LINE
8
BLACK
10
108.4
20
-108.825
11
108.4
21
-108.225
0
LINE
8
BLACK
10
108.4
20
-108.225
11
107.2
21
-108.225
0
LINE
8
BLACK
10
109.6
20
-99.225
11
109.6
21
-99.825
0
LINE
8
BLACK
10
109.6
20
-99.825
11
110.8
21
-99.825
0
LINE
8
BLACK
10
110.8
20
-99.825
11
110.8
21
-99.225
0
LINE
8
BLACK
10
110.8
20
-99.225
11
109.6
21
-99.225
0
LINE
8
BLACK
10
109.6
20
-100.175
11
109.6
21
-100.775
0
LINE
8
BLACK
10
109.6
20
-100.775
11
110.8
21
-100.775
0
LINE
8
BLACK
10
110.8
20
-100.775
11
110.8
21
-100.175
0
LINE
8
BLACK
10
110.8
20
-100.175
11
109.6
21
-100.175
0
LINE
8
BLACK
10
107.2
20
-100.175
11
107.2
21
-100.775
0
LINE
8
BLACK
10
107.2
20
-100.775
11
108.4
21
-100.775
0
LINE
8
BLACK
10
108.4
20
-100.775
11
108.4
21
-100.175
0
LINE
8
BLACK
10
108.4
20
-100.175
11
107.2
21
-100.175
0
LINE
8
BLACK
10
107.2
20
-99.225
11
107.2
21
-99.825
0
LINE
8
BLACK
10
107.2
20
-99.825
11
108.4
21
-99.825
0
LINE
8
BLACK
10
108.4
20
-99.825
11
108.4
21
-99.225
0
LINE
8
BLACK
10
108.4
20
-99.225
11
107.2
21
-99.225
0
LINE
8
BLACK
10
127.6
20
-126.225
11
127.6
21
-126.825
0
LINE
8
BLACK
10
127.6
20
-126.825
11
128.8
21
-126.825
0
LINE
8
BLACK
10
128.8
20
-126.825
11
128.8
21
-126.225
0
LINE
8
BLACK
10
128.8
20
-126.225
11
127.6
21
-126.225
0
LINE
8
BLACK
10
127.6
20
-127.175
11
127.6
21
-127.775
0
LINE
8
BLACK
10
127.6
20
-127.775
11
128.8
21
-127.775
0
LINE
8
BLACK
10
128.8
20
-127.775
11
128.8
21
-127.175
0
LINE
8
BLACK
10
128.8
20
-127.175
11
127.6
21
-127.175
0
LINE
8
BLACK
10
125.2
20
-127.175
11
125.2
21
-127.775
0
LINE
8
BLACK
10
125.2
20
-127.775
11
126.4
21
-127.775
0
LINE
8
BLACK
10
126.4
20
-127.775
11
126.4
21
-127.175
0
LINE
8
BLACK
10
126.4
20
-127.175
11
125.2
21
-127.175
0
LINE
8
BLACK
10
125.2
20
-126.225
11
125.2
21
-126.825
0
LINE
8
BLACK
10
125.2
20
-126.825
11
126.4
21
-126.825
0
LINE
8
BLACK
10
126.4
20
-126.825
11
126.4
21
-126.225
0
LINE
8
BLACK
10
126.4
20
-126.225
11
125.2
21
-126.225
0
LINE
8
BLACK
10
127.6
20
-117.225
11
127.6
21
-117.825
0
LINE
8
BLACK
10
127.6
20
-117.825
11
128.8
21
-117.825
0
LINE
8
BLACK
10
128.8
20
-117.825
11
128.8
21
-117.225
0
LINE
8
BLACK
10
128.8
20
-117.225
11
127.6
21
-117.225
0
LINE
8
BLACK
10
127.6
20
-118.175
11
127.6
21
-118.775
0
LINE
8
BLACK
10
127.6
20
-118.775
11
128.8
21
-118.775
0
LINE
8
BLACK
10
128.8
20
-118.775
11
128.8
21
-118.175
0
LINE
8
BLACK
10
128.8
20
-118.175
11
127.6
21
-118.175
0
LINE
8
BLACK
10
125.2
20
-118.175
11
125.2
21
-118.775
0
LINE
8
BLACK
10
125.2
20
-118.775
11
126.4
21
-118.775
0
LINE
8
BLACK
10
126.4
20
-118.775
11
126.4
21
-118.175
0
LINE
8
BLACK
10
126.4
20
-118.175
11
125.2
21
-118.175
0
LINE
8
BLACK
10
125.2
20
-117.225
11
125.2
21
-117.825
0
LINE
8
BLACK
10
125.2
20
-117.825
11
126.4
21
-117.825
0
LINE
8
BLACK
10
126.4
20
-117.825
11
126.4
21
-117.225
0
LINE
8
BLACK
10
126.4
20
-117.225
11
125.2
21
-117.225
0
LINE
8
BLACK
10
127.6
20
-108.225
11
127.6
21
-108.825
0
LINE
8
BLACK
10
127.6
20
-108.825
11
128.8
21
-108.825
0
LINE
8
BLACK
10
128.8
20
-108.825
11
128.8
21
-108.225
0
LINE
8
BLACK
10
128.8
20
-108.225
11
127.6
21
-108.225
0
LINE
8
BLACK
10
127.6
20
-109.175
11
127.6
21
-109.775
0
LINE
8
BLACK
10
127.6
20
-109.775
11
128.8
21
-109.775
0
LINE
8
BLACK
10
128.8
20
-109.775
11
128.8
21
-109.175
0
LINE
8
BLACK
10
128.8
20
-109.175
11
127.6
21
-109.175
0
LINE
8
BLACK
10
125.2
20
-109.175
11
125.2
21
-109.775
0
LINE
8
BLACK
10
125.2
20
-109.775
11
126.4
21
-109.775
0
LINE
8
BLACK
10
126.4
20
-109.775
11
126.4
21
-109.175
0
LINE
8
BLACK
10
126.4
20
-109.175
11
125.2
21
-109.175
0
LINE
8
BLACK
10
125.2
20
-108.225
11
125.2
21
-108.825
0
LINE
8
BLACK
10
125.2
20
-108.825
11
126.4
21
-108.825
0
LINE
8
BLACK
10
126.4
20
-108.825
11
126.4
21
-108.225
0
LINE
8
BLACK
10
126.4
20
-108.225
11
125.2
21
-108.225
0
LINE
8
BLACK
10
127.6
20
-99.225
11
127.6
21
-99.825
0
LINE
8
BLACK
10
127.6
20
-99.825
11
128.8
21
-99.825
0
LINE
8
BLACK
10
128.8
20
-99.825
11
128.8
21
-99.225
0
LINE
8
BLACK
10
128.8
20
-99.225
11
127.6
21
-99.225
0
LINE
8
BLACK
10
127.6
20
-100.175
11
127.6
21
-100.775
0
LINE
8
BLACK
10
127.6
20
-100.775
11
128.8
21
-100.775
0
LINE
8
BLACK
10
128.8
20
-100.775
11
128.8
21
-100.175
0
LINE
8
BLACK
10
128.8
20
-100.175
11
127.6
21
-100.175
0
LINE
8
BLACK
10
125.2
20
-100.175
11
125.2
21
-100.775
0
LINE
8
BLACK
10
125.2
20
-100.775
11
126.4
21
-100.775
0
LINE
8
BLACK
10
126.4
20
-100.775
11
126.4
21
-100.175
0
LINE
8
BLACK
10
126.4
20
-100.175
11
125.2
21
-100.175
0
LINE
8
BLACK
10
125.2
20
-99.225
11
125.2
21
-99.825
0
LINE
8
BLACK
10
125.2
20
-99.825
11
126.4
21
-99.825
0
LINE
8
BLACK
10
126.4
20
-99.825
11
126.4
21
-99.225
0
LINE
8
BLACK
10
126.4
20
-99.225
11
125.2
21
-99.225
0
LINE
8
BLACK
10
145.6
20
-126.225
11
145.6
21
-126.825
0
LINE
8
BLACK
10
145.6
20
-126.825
11
146.8
21
-126.825
0
LINE
8
BLACK
10
146.8
20
-126.825
11
146.8
21
-126.225
0
LINE
8
BLACK
10
146.8
20
-126.225
11
145.6
21
-126.225
0
LINE
8
BLACK
10
145.6
20
-127.175
11
145.6
21
-127.775
0
LINE
8
BLACK
10
145.6
20
-127.775
11
146.8
21
-127.775
0
LINE
8
BLACK
10
146.8
20
-127.775
11
146.8
21
-127.175
0
LINE
8
BLACK
10
146.8
20
-127.175
11
145.6
21
-127.175
0
LINE
8
BLACK
10
143.2
20
-127.175
11
143.2
21
-127.775
0
LINE
8
BLACK
10
143.2
20
-127.775
11
144.4
21
-127.775
0
LINE
8
BLACK
10
144.4
20
-127.775
11
144.4
21
-127.175
0
LINE
8
BLACK
10
144.4
20
-127.175
11
143.2
21
-127.175
0
LINE
8
BLACK
10
143.2
20
-126.225
11
143.2
21
-126.825
0
LINE
8
BLACK
10
143.2
20
-126.825
11
144.4
21
-126.825
0
LINE
8
BLACK
10
144.4
20
-126.825
11
144.4
21
-126.225
0
LINE
8
BLACK
10
144.4
20
-126.225
11
143.2
21
-126.225
0
LINE
8
BLACK
10
163.6
20
-117.225
11
163.6
21
-117.825
0
LINE
8
BLACK
10
163.6
20
-117.825
11
164.8
21
-117.825
0
LINE
8
BLACK
10
164.8
20
-117.825
11
164.8
21
-117.225
0
LINE
8
BLACK
10
164.8
20
-117.225
11
163.6
21
-117.225
0
LINE
8
BLACK
10
163.6
20
-118.175
11
163.6
21
-118.775
0
LINE
8
BLACK
10
163.6
20
-118.775
11
164.8
21
-118.775
0
LINE
8
BLACK
10
164.8
20
-118.775
11
164.8
21
-118.175
0
LINE
8
BLACK
10
164.8
20
-118.175
11
163.6
21
-118.175
0
LINE
8
BLACK
10
161.2
20
-118.175
11
161.2
21
-118.775
0
LINE
8
BLACK
10
161.2
20
-118.775
11
162.4
21
-118.775
0
LINE
8
BLACK
10
162.4
20
-118.775
11
162.4
21
-118.175
0
LINE
8
BLACK
10
162.4
20
-118.175
11
161.2
21
-118.175
0
LINE
8
BLACK
10
161.2
20
-117.225
11
161.2
21
-117.825
0
LINE
8
BLACK
10
161.2
20
-117.825
11
162.4
21
-117.825
0
LINE
8
BLACK
10
162.4
20
-117.825
11
162.4
21
-117.225
0
LINE
8
BLACK
10
162.4
20
-117.225
11
161.2
21
-117.225
0
LINE
8
BLACK
10
172.6
20
-162.225
11
172.6
21
-162.825
0
LINE
8
BLACK
10
172.6
20
-162.825
11
173.8
21
-162.825
0
LINE
8
BLACK
10
173.8
20
-162.825
11
173.8
21
-162.225
0
LINE
8
BLACK
10
173.8
20
-162.225
11
172.6
21
-162.225
0
LINE
8
BLACK
10
172.6
20
-163.175
11
172.6
21
-163.775
0
LINE
8
BLACK
10
172.6
20
-163.775
11
173.8
21
-163.775
0
LINE
8
BLACK
10
173.8
20
-163.775
11
173.8
21
-163.175
0
LINE
8
BLACK
10
173.8
20
-163.175
11
172.6
21
-163.175
0
LINE
8
BLACK
10
170.2
20
-163.175
11
170.2
21
-163.775
0
LINE
8
BLACK
10
170.2
20
-163.775
11
171.4
21
-163.775
0
LINE
8
BLACK
10
171.4
20
-163.775
11
171.4
21
-163.175
0
LINE
8
BLACK
10
171.4
20
-163.175
11
170.2
21
-163.175
0
LINE
8
BLACK
10
170.2
20
-162.225
11
170.2
21
-162.825
0
LINE
8
BLACK
10
170.2
20
-162.825
11
171.4
21
-162.825
0
LINE
8
BLACK
10
171.4
20
-162.825
11
171.4
21
-162.225
0
LINE
8
BLACK
10
171.4
20
-162.225
11
170.2
21
-162.225
0
CIRCLE
8
BLACK
10
207
20
-158.5
40
2.032
0
CIRCLE
8
BLACK
10
207
20
-104.5
40
2.032
0
CIRCLE
8
BLACK
10
71
20
-158.5
40
2.032
0
CIRCLE
8
BLACK
10
93.5
20
-158.5
40
2.032
0
CIRCLE
8
BLACK
10
93.5
20
-104.5
40
2.032
0
CIRCLE
8
BLACK
10
71
20
-104.5
40
2.032
  0
ENDSEC
  0
EOF
